<?xml version="1.0" encoding="UTF-8" standalone="no"?>
<!-- Created with Inkscape (http://www.inkscape.org/) -->

<svg
   width="109.71666mm"
   height="73.204185mm"
   viewBox="0 0 109.71666 73.204185"
   version="1.1"
   id="svg1"
   xmlns="http://www.w3.org/2000/svg"
   xmlns:svg="http://www.w3.org/2000/svg">
  <defs
     id="defs1" />
  <g
     id="layer1"
     style="display:inline"
     transform="translate(-46.74167,-125.5875)">
    <path
       id="path47"
       style="display:inline;fill:none;stroke:#fff;stroke-width:6;stroke-dasharray:none;stroke-opacity:1"
       d="m 113.50625,128.5875 c -9.36619,0.0419 -18.105439,4.71349 -23.343278,12.47831 v 0 c -1.404428,-0.37619 -2.851747,-0.56848 -4.30568,-0.57206 -8.797339,0.0472 -16.068583,6.8729 -16.671334,15.64969 -10.787834,0.21719 -19.425124,9.01448 -19.444291,19.80448 0,10.9594 8.884349,19.84375 19.84375,19.84375 h 64.029163 c 10.9594,0 19.84375,-8.88435 19.84375,-19.84375 -0.002,-7.81659 -4.59203,-14.90397 -11.72435,-18.10226 0.0329,-0.31543 0.0604,-0.63139 0.0827,-0.94774 0,-15.63541 -12.67501,-28.31042 -28.31042,-28.31042 z" />
  </g>
  <g
     id="g111"
     style="stroke:#fff;stroke-opacity:1"
     transform="translate(-46.74167,-125.5875)">
    <path
       id="path101"
       style="fill:#fff;fill-opacity:1;fill-rule:nonzero;stroke:#fff;stroke-width:2;stroke-dasharray:none;stroke-opacity:1"
       d="m 112.2438,139.13208 -0.6227,2.6758 a 14.720552,14.720552 0 0 0 -1.07332,0.29714 14.720552,14.720552 0 0 0 -0.88677,0.24546 14.720552,14.720552 0 0 0 -0.79685,0.3235 14.720552,14.720552 0 0 0 -1.27072,0.57206 14.720552,14.720552 0 0 0 -0.50488,0.29094 14.720552,14.720552 0 0 0 -0.91519,0.52709 l -2.33216,-1.45159 -1.21181,1.21182 -0.70642,0.70641 -1.21181,1.2113 1.45211,2.33267 a 14.720552,14.720552 0 0 0 -0.55708,0.95963 14.720552,14.720552 0 0 0 -0.24339,0.41962 14.720552,14.720552 0 0 0 -0.5147,1.1436 14.720552,14.720552 0 0 0 -0.941543,2.92437 l -2.675809,0.6227 v 1.71359 0.99942 1.71307 l 2.675809,0.6227 a 14.720552,14.720552 0 0 0 0.924493,2.88717 14.720552,14.720552 0 0 0 0.5364,1.19062 14.720552,14.720552 0 0 0 0.22789,0.39274 14.720552,14.720552 0 0 0 0.56741,0.9772 l -1.45159,2.33216 1.21181,1.21181 0.70642,0.70642 1.21129,1.21181 2.33268,-1.45211 a 14.720552,14.720552 0 0 0 0.90899,0.524 14.720552,14.720552 0 0 0 0.51211,0.29508 14.720552,14.720552 0 0 0 1.26917,0.57154 14.720552,14.720552 0 0 0 0.79685,0.32349 14.720552,14.720552 0 0 0 0.88419,0.24495 14.720552,14.720552 0 0 0 1.0759,0.29765 l 0.6227,2.67581 h 1.71359 0.99942 1.71308 l 0.6227,-2.67581 a 14.720552,14.720552 0 0 0 1.07332,-0.29714 14.720552,14.720552 0 0 0 0.88677,-0.24546 14.720552,14.720552 0 0 0 0.79685,-0.32349 14.720552,14.720552 0 0 0 1.27072,-0.57206 14.720552,14.720552 0 0 0 0.5054,-0.29094 14.720552,14.720552 0 0 0 0.91467,-0.5271 l 2.33216,1.45159 1.21181,-1.21129 0.70641,-0.70694 1.21182,-1.21129 -1.45211,-2.33268 a 14.720552,14.720552 0 0 0 1.63142,-3.22512 14.720552,14.720552 0 0 0 0.0476,-0.1354 14.720552,14.720552 0 0 0 0.51004,-1.84174 14.720552,14.720552 0 0 0 0.0677,-0.24495 l 2.6758,-0.6227 v -1.71359 -0.99942 -1.71308 l -2.6758,-0.6227 a 14.720552,14.720552 0 0 0 -0.0677,-0.24391 14.720552,14.720552 0 0 0 -0.51004,-1.84278 14.720552,14.720552 0 0 0 -0.0476,-0.13539 14.720552,14.720552 0 0 0 -1.6309,-3.22565 l 1.45159,-2.33215 -1.21182,-1.21182 -0.70641,-0.70641 -1.2113,-1.21182 -2.33267,1.45211 a 14.720552,14.720552 0 0 0 -0.90847,-0.524 14.720552,14.720552 0 0 0 -0.51263,-0.29507 14.720552,14.720552 0 0 0 -1.26918,-0.57154 14.720552,14.720552 0 0 0 -0.79685,-0.3235 14.720552,14.720552 0 0 0 -0.88418,-0.24494 14.720552,14.720552 0 0 0 -1.0759,-0.29766 l -0.62271,-2.6758 h -1.71359 -0.99942 z m 2.21278,8.39018 a 8.8355007,8.8355007 0 0 1 8.83564,8.83564 8.8355007,8.8355007 0 0 1 -8.83564,8.83563 8.8355007,8.8355007 0 0 1 -8.83563,-8.83563 8.8355007,8.8355007 0 0 1 8.83563,-8.83564 z" />
    <path
       id="path111"
       style="fill:#fff;fill-opacity:1;fill-rule:nonzero;stroke:#fff;stroke-width:1.39029;stroke-dasharray:none;stroke-opacity:1"
       d="m 85.666296,165.55014 -0.432867,1.86007 a 10.232904,10.232904 0 0 0 -0.746112,0.20656 10.232904,10.232904 0 0 0 -0.616432,0.17063 10.232904,10.232904 0 0 0 -0.553926,0.22487 10.232904,10.232904 0 0 0 -0.883333,0.39767 10.232904,10.232904 0 0 0 -0.350965,0.20224 10.232904,10.232904 0 0 0 -0.636189,0.36641 l -1.621187,-1.00907 -0.842382,0.84239 -0.491064,0.49106 -0.842382,0.84203 1.009425,1.62154 a 10.232904,10.232904 0 0 0 -0.387251,0.66708 10.232904,10.232904 0 0 0 -0.169191,0.2917 10.232904,10.232904 0 0 0 -0.35779,0.79496 10.232904,10.232904 0 0 0 -0.654508,2.03286 l -1.860073,0.43287 v 1.19119 0.69474 1.19083 l 1.860073,0.43287 a 10.232904,10.232904 0 0 0 0.642655,2.007 10.232904,10.232904 0 0 0 0.372876,0.82765 10.232904,10.232904 0 0 0 0.158416,0.27301 10.232904,10.232904 0 0 0 0.394432,0.67929 l -1.009064,1.62119 0.842382,0.84238 0.491064,0.49107 0.842021,0.84238 1.621548,-1.00943 a 10.232904,10.232904 0 0 0 0.631879,0.36426 10.232904,10.232904 0 0 0 0.355991,0.20512 10.232904,10.232904 0 0 0 0.882256,0.39731 10.232904,10.232904 0 0 0 0.553925,0.22487 10.232904,10.232904 0 0 0 0.614639,0.17027 10.232904,10.232904 0 0 0 0.747906,0.20691 l 0.432866,1.86008 h 1.191192 0.694741 1.190837 l 0.432866,-1.86008 a 10.232904,10.232904 0 0 0 0.746112,-0.20655 10.232904,10.232904 0 0 0 0.616433,-0.17063 10.232904,10.232904 0 0 0 0.553926,-0.22487 10.232904,10.232904 0 0 0 0.883333,-0.39767 10.232904,10.232904 0 0 0 0.351326,-0.20224 10.232904,10.232904 0 0 0 0.635827,-0.36641 l 1.621187,1.00906 0.842383,-0.84202 0.491057,-0.49143 0.842389,-0.84202 -1.009426,-1.62155 a 10.232904,10.232904 0 0 0 1.134072,-2.24192 10.232904,10.232904 0 0 0 0.03309,-0.0941 10.232904,10.232904 0 0 0 0.354551,-1.28028 10.232904,10.232904 0 0 0 0.04706,-0.17027 l 1.860068,-0.43287 v -1.19119 -0.69474 -1.19084 l -1.860068,-0.43286 a 10.232904,10.232904 0 0 0 -0.04706,-0.16956 10.232904,10.232904 0 0 0 -0.354551,-1.28099 10.232904,10.232904 0 0 0 -0.03309,-0.0941 10.232904,10.232904 0 0 0 -1.13371,-2.24229 l 1.009064,-1.62118 -0.842389,-0.84239 -0.491057,-0.49106 -0.842028,-0.84239 -1.621542,1.00943 a 10.232904,10.232904 0 0 0 -0.631517,-0.36426 10.232904,10.232904 0 0 0 -0.356352,-0.20511 10.232904,10.232904 0 0 0 -0.882263,-0.39731 10.232904,10.232904 0 0 0 -0.553925,-0.22487 10.232904,10.232904 0 0 0 -0.614633,-0.17027 10.232904,10.232904 0 0 0 -0.747905,-0.20692 l -0.432873,-1.86007 h -1.191192 -0.694741 z m 1.5382,5.83239 a 6.1419456,6.1419456 0 0 1 6.142043,6.14204 6.1419456,6.1419456 0 0 1 -6.142043,6.14204 6.1419456,6.1419456 0 0 1 -6.142035,-6.14204 6.1419456,6.1419456 0 0 1 6.142035,-6.14204 z" />
  </g>
</svg>
