<svg xmlns="http://www.w3.org/2000/svg" width="33.494" height="33.494" viewBox="0 0 33.494 33.494">
  <g id="Group_9212" data-name="Group 9212" transform="translate(-262.237 -608.453)">
    <g id="Path_30431" data-name="Path 30431" transform="translate(262.237 608.453)" fill="#ee877b">
      <path d="M 16.74714851379395 32.99429702758789 C 12.40737819671631 32.99429702758789 8.327358245849609 31.30429840087891 5.258678436279297 28.23561859130859 C 2.189998626708984 25.16693878173828 0.4999985098838806 21.08691787719727 0.4999985098838806 16.74714851379395 C 0.4999985098838806 12.40737819671631 2.189998626708984 8.32736873626709 5.258678436279297 5.258678436279297 C 8.32736873626709 2.189998626708984 12.40737819671631 0.4999985098838806 16.74714851379395 0.4999985098838806 C 21.08691787719727 0.4999985098838806 25.16693878173828 2.189998626708984 28.23561859130859 5.258678436279297 C 31.30429840087891 8.327358245849609 32.99429702758789 12.40737819671631 32.99429702758789 16.74714851379395 C 32.99429702758789 21.08691787719727 31.30429840087891 25.16693878173828 28.23561859130859 28.23561859130859 C 25.16693878173828 31.30429840087891 21.08691787719727 32.99429702758789 16.74714851379395 32.99429702758789 Z" stroke="none"/>
      <path d="M 16.74714851379395 1 C 12.54093933105469 1 8.586479187011719 2.637989044189453 5.612237930297852 5.612237930297852 C 2.637989044189453 8.586479187011719 1 12.54093933105469 1 16.74714851379395 C 1 20.9533576965332 2.637989044189453 24.90781784057617 5.612237930297852 27.88205909729004 C 8.586479187011719 30.85630798339844 12.54093933105469 32.49429702758789 16.74714851379395 32.49429702758789 C 20.9533576965332 32.49429702758789 24.90781784057617 30.85630798339844 27.88205909729004 27.88205909729004 C 30.85630798339844 24.90781784057617 32.49429702758789 20.9533576965332 32.49429702758789 16.74714851379395 C 32.49429702758789 12.54093933105469 30.85630798339844 8.586479187011719 27.88205909729004 5.612237930297852 C 24.90781784057617 2.637989044189453 20.9533576965332 1 16.74714851379395 1 M 16.74714851379395 0 C 25.996337890625 0 33.49429702758789 7.497959136962891 33.49429702758789 16.74714851379395 C 33.49429702758789 25.996337890625 25.996337890625 33.49429702758789 16.74714851379395 33.49429702758789 C 7.497959136962891 33.49429702758789 0 25.996337890625 0 16.74714851379395 C 0 7.497959136962891 7.497959136962891 0 16.74714851379395 0 Z" stroke="none" fill="#d85a4b"/>
    </g>
    <g id="user_1_" data-name="user (1)" transform="translate(269.675 614.733)">
      <path id="Path_5456" data-name="Path 5456" d="M11.077,12.073a4.962,4.962,0,0,0,2.936.952,5.122,5.122,0,0,0,5.013-5.013,5.013,5.013,0,1,0-7.949,4.06Z" transform="translate(-4.703 -3)" fill="#fff"/>
      <path id="Path_5457" data-name="Path 5457" d="M16.721,16.55a6.423,6.423,0,0,1-8.822,0,9.323,9.323,0,0,0-4.9,8.2.718.718,0,0,0,.716.716H20.9a.718.718,0,0,0,.716-.716A9.323,9.323,0,0,0,16.721,16.55Z" transform="translate(-3 -6.847)" fill="#fff"/>
    </g>
  </g>
</svg>
