<svg xmlns="http://www.w3.org/2000/svg" width="38" height="38" viewBox="0 0 38 38">
  <g id="Group_9205" data-name="Group 9205" transform="translate(-68 -275)">
    <g id="Group_9181" data-name="Group 9181" transform="translate(67.525 274.853)">
      <g id="Ellipse_4011" data-name="Ellipse 4011" transform="translate(0.475 0.147)" fill="#64b476" stroke="#37b678" stroke-width="1">
        <circle cx="19" cy="19" r="19" stroke="none"/>
        <circle cx="19" cy="19" r="18.5" fill="none"/>
      </g>
    </g>
    <g id="Layer_2" data-name="Layer 2" transform="translate(76.972 282.93)">
      <path id="Path_30371" data-name="Path 30371" d="M22.283,14.044A5.492,5.492,0,0,0,17.477,8.6V5.806a.687.687,0,0,0-.24-.522L12.431,1.165A.687.687,0,0,0,11.985,1h-8.4A2.588,2.588,0,0,0,1,3.581V20.388A2.588,2.588,0,0,0,3.581,22.97H14.9a2.588,2.588,0,0,0,2.581-2.581v-.9A5.492,5.492,0,0,0,22.283,14.044ZM12.671,3.176l2.266,1.943H12.671ZM14.9,21.6H3.581a1.208,1.208,0,0,1-1.208-1.208V3.581A1.208,1.208,0,0,1,3.581,2.373H11.3V5.806a.687.687,0,0,0,.687.687H16.1V8.6a5.492,5.492,0,0,0,0,10.889v.9A1.208,1.208,0,0,1,14.9,21.6Zm1.895-3.433a4.119,4.119,0,1,1,4.119-4.119A4.119,4.119,0,0,1,16.791,18.164Z" transform="translate(-1 -1)" fill="#fff"/>
      <path id="Path_30372" data-name="Path 30372" d="M24.806,18.06H23.433V16.687a.687.687,0,1,0-1.373,0V18.06H20.687a.687.687,0,1,0,0,1.373H22.06v1.373a.687.687,0,1,0,1.373,0V19.433h1.373a.687.687,0,1,0,0-1.373Z" transform="translate(-6.956 -5.702)" fill="#fff"/>
      <path id="Path_30373" data-name="Path 30373" d="M6.687,12.373h6.865a.687.687,0,1,0,0-1.373H6.687a.687.687,0,0,0,0,1.373Z" transform="translate(-2.567 -4.135)" fill="#fff"/>
      <path id="Path_30374" data-name="Path 30374" d="M10.806,15H6.687a.687.687,0,0,0,0,1.373h4.119a.687.687,0,1,0,0-1.373Z" transform="translate(-2.567 -5.388)" fill="#fff"/>
      <path id="Path_30375" data-name="Path 30375" d="M10.806,19H6.687a.687.687,0,0,0,0,1.373h4.119a.687.687,0,0,0,0-1.373Z" transform="translate(-2.567 -6.642)" fill="#fff"/>
      <path id="Path_30376" data-name="Path 30376" d="M10.806,23H6.687a.687.687,0,0,0,0,1.373h4.119a.687.687,0,1,0,0-1.373Z" transform="translate(-2.567 -7.896)" fill="#fff"/>
    </g>
  </g>
</svg>
