<svg xmlns="http://www.w3.org/2000/svg" width="38" height="40" viewBox="0 0 38 40">
  <g id="Group_9209" data-name="Group 9209" transform="translate(-68 -498)">
    <g id="Ellipse_4016" data-name="Ellipse 4016" transform="translate(68 498)" fill="#f34343" stroke="#e52121" stroke-width="1">
      <ellipse cx="19" cy="20" rx="19" ry="20" stroke="none"/>
      <ellipse cx="19" cy="20" rx="18.5" ry="19.5" fill="none"/>
    </g>
    <g id="Resignation_Letter" transform="translate(76.56 506.788)">
      <g id="Group_1807" data-name="Group 1807">
        <path id="Path_5465" data-name="Path 5465" d="M21.728,2.97H9.381a2.43,2.43,0,0,0-1.8.795,2.766,2.766,0,1,0-1.15,5.282A2.685,2.685,0,0,0,6.921,9v7.778h-2.1a1.343,1.343,0,0,0-1.347,1.34v4.549a1.348,1.348,0,0,0,1.347,1.343l16.906-.02a2.459,2.459,0,0,0,2.457-2.457V5.43a2.46,2.46,0,0,0-2.457-2.46Zm1.8,18.565a1.8,1.8,0,0,1-1.8,1.8H12.222a1.316,1.316,0,0,0,.181-.667V19.4h4.72a.328.328,0,1,0,0-.657H12.4a2.676,2.676,0,0,0-.135-1.209h9.5a.328.328,0,1,0,0-.657H11.572a1.331,1.331,0,0,0-.512-.1H7.578V8.8a2.766,2.766,0,0,0,.572-4.681,1.8,1.8,0,0,1,1.232-.489H21.728a1.8,1.8,0,0,1,1.8,1.8v16.1ZM4.822,17.452h6.238a.671.671,0,0,1,.65.519L8.136,20.713a.316.316,0,0,1-.394,0c-4.677-3.589,1.7,1.31-3.574-2.743a.669.669,0,0,1,.654-.519ZM6.372,7.082a.329.329,0,0,1-.463,0l-.565-.565a.327.327,0,0,1,.463-.463l.335.332.907-.906a.331.331,0,0,1,.463,0,.406.406,0,0,1,0,.463Z" transform="translate(-3.475 -2.97)" fill="#fff"/>
        <path id="Path_5466" data-name="Path 5466" d="M27.016,10H34.6a.862.862,0,0,0,0-1.724H27.016a.862.862,0,0,0,0,1.724Z" transform="translate(-18.705 -6.536)" fill="#fff"/>
        <path id="Path_5467" data-name="Path 5467" d="M33.093,16.95H20.673a.328.328,0,1,0,0,.657H33.093a.328.328,0,0,0,0-.657Z" transform="translate(-14.804 -12.358)" fill="#fff"/>
        <path id="Path_5468" data-name="Path 5468" d="M33.093,22.62H20.673a.328.328,0,1,0,0,.657H33.093a.328.328,0,1,0,0-.657Z" transform="translate(-14.804 -16.166)" fill="#fff"/>
        <path id="Path_5469" data-name="Path 5469" d="M33.093,28.3H20.673a.328.328,0,0,0,0,.657H33.093a.328.328,0,0,0,0-.657Z" transform="translate(-14.804 -19.98)" fill="#fff"/>
        <path id="Path_5470" data-name="Path 5470" d="M33.093,33.97H20.673a.328.328,0,1,0,0,.657H33.093a.328.328,0,1,0,0-.657Z" transform="translate(-14.804 -23.788)" fill="#fff"/>
        <path id="Path_5471" data-name="Path 5471" d="M33.093,39.65H20.673a.328.328,0,1,0,0,.657H33.093a.328.328,0,1,0,0-.657Z" transform="translate(-14.804 -27.602)" fill="#fff"/>
        <path id="Path_5472" data-name="Path 5472" d="M49.626,54.039H48.489a1.53,1.53,0,0,0,.207-.332s0-.007.007-.01a.861.861,0,0,0,.368.191.625.625,0,0,0,.555-.151.331.331,0,0,0,.036-.463.32.32,0,0,0-.457-.026,1.617,1.617,0,0,1-.526-.7.33.33,0,0,0-.6.263.773.773,0,0,1,.023.631.974.974,0,0,1-.227.3c.049-.621.016-1.419-.411-1.711a.833.833,0,0,0-.962.072,1.869,1.869,0,0,0-.989,1.938h-.217a.328.328,0,0,0,0,.657h4.332a.328.328,0,0,0,0-.657Zm-2.785-1.376c.158-.1.233-.1.246-.1.138.069.191.726.092,1.472h-1A1.2,1.2,0,0,1,46.841,52.663Z" transform="translate(-31.337 -35.836)" fill="#fff"/>
      </g>
    </g>
  </g>
</svg>
