<svg xmlns="http://www.w3.org/2000/svg" width="39" height="39" viewBox="0 0 39 39">
  <g id="Group_9210" data-name="Group 9210" transform="translate(-259 -492)">
    <g id="Ellipse_4031" data-name="Ellipse 4031" transform="translate(259 492)" fill="#7171f6" stroke="#5d5df1" stroke-width="1">
      <circle cx="19.5" cy="19.5" r="19.5" stroke="none"/>
      <circle cx="19.5" cy="19.5" r="19" fill="none"/>
    </g>
    <g id="Group_9196" data-name="Group 9196" transform="translate(268.729 497.839)">
      <path id="Path_30105" data-name="Path 30105" d="M428.5,48.4c.033.574.062,1.078.062,1.078.014.477.266,1.5,1.976,2.07a2.92,2.92,0,0,0,.782.77,1.217,1.217,0,0,0,.677.205h1.848a1.211,1.211,0,0,0,.675-.205,2.883,2.883,0,0,0,.78-.77c1.7-.565,1.959-1.573,1.978-2.066v0s.031-.5.063-1.078Z" transform="translate(-423.362 -25.278)" fill="#fff"/>
      <path id="Path_30104" data-name="Path 30104" d="M432.856,24.989A9.414,9.414,0,0,0,423.3,34.23a10.991,10.991,0,0,0,2.324,6.715,3.994,3.994,0,0,1,.959,1.965,3.741,3.741,0,0,0,1.148,2.618,1.745,1.745,0,0,0,1.244.527h7.764a1.749,1.749,0,0,0,1.245-.528,3.744,3.744,0,0,0,1.147-2.617,3.957,3.957,0,0,1,.954-1.956,11,11,0,0,0,2.33-6.725,9.414,9.414,0,0,0-9.558-9.241M431.4,30.7a1.456,1.456,0,0,1,2.912,0V32.84a6.868,6.868,0,0,1-.075.864l-.571,4.309c-.072.535-.33.682-.81.682s-.738-.147-.81-.682l-.571-4.309a7.456,7.456,0,0,1-.075-.864Zm1.456,12.213a1.51,1.51,0,1,1,1.511-1.512,1.519,1.519,0,0,1-1.511,1.512" transform="translate(-423.298 -24.989)" fill="#fff"/>
    </g>
  </g>
</svg>
