<svg xmlns="http://www.w3.org/2000/svg" width="39" height="38" viewBox="0 0 39 38">
  <g id="Group_9208" data-name="Group 9208" transform="translate(-259 -387)">
    <g id="Ellipse_4030" data-name="Ellipse 4030" transform="translate(259 387)" fill="#ffbf1e" stroke="#f1bb35" stroke-width="1">
      <ellipse cx="19.5" cy="19" rx="19.5" ry="19" stroke="none"/>
      <ellipse cx="19.5" cy="19" rx="19" ry="18.5" fill="none"/>
    </g>
    <path id="identify" d="M37.424,26.847c0,1.054-1.811,1.608-3.715,1.662a5.305,5.305,0,0,0-2.187-4.41,5.092,5.092,0,0,0-.284-.648,4.025,4.025,0,0,1,6.186,3.395ZM28.4,23.708A4.689,4.689,0,1,0,33.086,28.4,4.689,4.689,0,0,0,28.4,23.708Zm0,8.318A3.628,3.628,0,1,1,32.025,28.4,3.628,3.628,0,0,1,28.4,32.025Zm0-6.632a3,3,0,1,0,3,3A3,3,0,0,0,28.4,25.394Zm4.871,6.948a.6.6,0,0,1,.727.095l3.254,3.254a.6.6,0,0,1,0,.851l-.708.708a.6.6,0,0,1-.851,0l-3.254-3.254a.6.6,0,0,1-.095-.727l-.678-.678a5.348,5.348,0,0,0,.927-.927l.678.678ZM23.254,27.055c-.627-.3-1.025-.713-1.025-1.234a4.484,4.484,0,0,1,8.349-2.272,5.318,5.318,0,0,0-7.324,3.506Zm1.386-8.983A2.072,2.072,0,1,0,26.712,16a2.072,2.072,0,0,0-2.072,2.072Zm-1.54,9.9q.011-.142.03-.282A2.162,2.162,0,0,1,21.6,25.821a5.084,5.084,0,0,1,.582-2.37A4.025,4.025,0,0,0,16,26.847c0,1.747,4.972,2.121,7.1,1.121ZM18.165,19.89a1.86,1.86,0,1,0,1.86-1.86,1.86,1.86,0,0,0-1.86,1.86Zm13.376,0a1.86,1.86,0,1,0,1.86-1.86,1.86,1.86,0,0,0-1.86,1.86Z" transform="translate(250.326 378.943)" fill="#fff" fill-rule="evenodd"/>
  </g>
</svg>
