<svg xmlns="http://www.w3.org/2000/svg" width="38" height="40" viewBox="0 0 38 40">
  <g id="Group_9203" data-name="Group 9203" transform="translate(-68 -165)">
    <g id="Ellipse_4011" data-name="Ellipse 4011" transform="translate(68 165)" fill="#ff891d" stroke="#fc7900" stroke-width="1">
      <ellipse cx="19" cy="20" rx="19" ry="20" stroke="none"/>
      <ellipse cx="19" cy="20" rx="18.5" ry="19.5" fill="none"/>
    </g>
    <g id="_07-Salary" data-name="07-Salary" transform="translate(75.581 173.1)">
      <path id="Path_5462" data-name="Path 5462" d="M19.381,6.5v8.415l-.094.061L16.468,5.024h1.439A1.9,1.9,0,0,0,19.381,6.5ZM16.254,4.268h1.993a.378.378,0,0,1,.378.378,1.135,1.135,0,0,0,1.134,1.134.378.378,0,0,1,.378.378v8.268l1.511-.972V4.646a1.89,1.89,0,0,0-1.889-1.889H15.788a2.562,2.562,0,0,1,.155.412ZM5.608,13.831l1.922,1.235L5.449,7.712a.378.378,0,0,1,.261-.467,1.135,1.135,0,0,0,.782-1.4.378.378,0,0,1,.261-.467l5.09-1.441a.378.378,0,0,1,.467.261,1.133,1.133,0,0,0,1.4.782.378.378,0,0,1,.467.261l3.116,11.011,1.326-.853-3.4-12.023a1.891,1.891,0,0,0-2.331-1.3l-8,2.263a1.891,1.891,0,0,0-1.3,2.331Zm6.363.28a1.889,1.889,0,1,0-2.331-1.3A1.889,1.889,0,0,0,11.971,14.111ZM7.052,7.075a1.906,1.906,0,0,0,.234-1.062l4.436-1.254a1.882,1.882,0,0,0,.756.782,1.906,1.906,0,0,0,1.062.234l3.087,10.9L14.888,17.8l-.654-.419a1.689,1.689,0,0,0-1.8,0l-.654.419L8.491,15.683,6.27,7.835a1.915,1.915,0,0,0,.782-.759Zm1.863,5.94A2.64,2.64,0,1,0,9.149,11a2.646,2.646,0,0,0-.235,2.011Zm15.668-.548-9,5.781,8.738,5.616a1.875,1.875,0,0,0,.345-1.082V13.028a1.891,1.891,0,0,0-.088-.561ZM3.953,10.744l-1.084.7a1.913,1.913,0,0,0-.416.363l2.2,1.413Zm19.848.7-1.4-.9v2.43L24.217,11.8a1.926,1.926,0,0,0-.416-.363ZM12.843,18.015,2.92,24.4a1.869,1.869,0,0,0,.97.276H22.781a1.869,1.869,0,0,0,.971-.277l-9.926-6.38a.925.925,0,0,0-.983,0ZM2.089,12.465A1.891,1.891,0,0,0,2,13.028v9.755a1.875,1.875,0,0,0,.346,1.083l8.738-5.617Z" transform="translate(-2 -2.001)" fill="#fff"/>
    </g>
  </g>
</svg>
