<svg xmlns="http://www.w3.org/2000/svg" width="39" height="38" viewBox="0 0 39 38">
  <g id="Group_9206" data-name="Group 9206" transform="translate(-259 -275)">
    <g id="Ellipse_4028" data-name="Ellipse 4028" transform="translate(259 275)" fill="#1c5cf9" stroke="#1850d9" stroke-width="1">
      <ellipse cx="19.5" cy="19" rx="19.5" ry="19" stroke="none"/>
      <ellipse cx="19.5" cy="19" rx="19" ry="18.5" fill="none"/>
    </g>
    <g id="_x30_6" transform="translate(267.846 282.49)">
      <path id="Path_5458" data-name="Path 5458" d="M9.532,2A6.528,6.528,0,0,0,5.417,3.473a.8.8,0,0,0-.784-.656.817.817,0,0,0-.816.816V5.266a.817.817,0,0,0,.816.816H6.266a.817.817,0,0,0,.816-.816.806.806,0,0,0-.418-.7A4.894,4.894,0,1,1,4.633,8.532.816.816,0,1,0,3,8.532,6.532,6.532,0,1,0,9.532,2Z" transform="translate(-3 -2)" fill="#fff"/>
      <path id="Path_5459" data-name="Path 5459" d="M10.266,10.082a.817.817,0,0,0,.816-.816V6.816a.816.816,0,1,0-1.633,0V8.449H7.816a.816.816,0,0,0,0,1.633Z" transform="translate(-3.734 -2.734)" fill="#fff"/>
      <path id="Path_5460" data-name="Path 5460" d="M24.888,10.633a.816.816,0,0,1,.816.816v14.7h1.633V9.816A.816.816,0,0,0,26.521,9h-6.58a6.944,6.944,0,0,1,0,1.633Z" transform="translate(-6.109 -3.285)" fill="#fff"/>
      <path id="Path_5461" data-name="Path 5461" d="M23.064,26.7V12.816A.816.816,0,0,0,22.247,12H17.976a7.326,7.326,0,0,1-1.7,3.266H19.8a.816.816,0,1,1,0,1.633h-5.63a7.294,7.294,0,0,1-3.351.816A7.386,7.386,0,0,1,10,17.667V26.7Zm-9.8-8.165H19.8a.816.816,0,1,1,0,1.633H13.266a.816.816,0,0,1,0-1.633Zm0,3.266H19.8a.816.816,0,1,1,0,1.633H13.266a.816.816,0,0,1,0-1.633Z" transform="translate(-4.285 -3.835)" fill="#fff"/>
    </g>
  </g>
</svg>
