<svg xmlns="http://www.w3.org/2000/svg" width="38" height="38" viewBox="0 0 38 38">
  <g id="Group_9211" data-name="Group 9211" transform="translate(-68 -609)">
    <g id="Ellipse_4032" data-name="Ellipse 4032" transform="translate(68 609)" fill="#707070" stroke="#615959" stroke-width="1">
      <circle cx="19" cy="19" r="19" stroke="none"/>
      <circle cx="19" cy="19" r="18.5" fill="none"/>
    </g>
    <g id="presentation" transform="translate(75.237 617.605)">
      <path id="Path_5463" data-name="Path 5463" d="M205.212,0H194.951a2.15,2.15,0,0,0-2.15,2.15V7.2l1.675.833.837-1.675A2.053,2.053,0,1,1,198.986,8.2l-1.492,2.985a3.117,3.117,0,0,1-.107,1.179h.985l-2.6,7.144a.684.684,0,1,0,1.286.468l2.768-7.611h.479l2.8,7.614a.684.684,0,0,0,1.285-.472l-2.623-7.142h3.447a2.15,2.15,0,0,0,2.15-2.15V2.15A2.15,2.15,0,0,0,205.212,0Zm-1.466,9.431h-3.07a.684.684,0,0,1,0-1.368h3.07a.684.684,0,1,1,0,1.368Zm0-2.565h-3.07a.684.684,0,0,1,0-1.368h3.07a.684.684,0,1,1,0,1.368Zm0-2.565h-7.329a.684.684,0,0,1,0-1.368h7.329a.684.684,0,1,1,0,1.368Zm0,0" transform="translate(-184.006)" fill="#fff"/>
      <path id="Path_5464" data-name="Path 5464" d="M12.039,40.7a1.769,1.769,0,0,0,.018-1.086l1.7-3.4a.684.684,0,0,0-1.224-.612l-1.448,2.9L7.843,36.89a5.868,5.868,0,0,0-2.889-.93h-.6a2.981,2.981,0,1,0-2.17-.938,2.973,2.973,0,0,0,2.17.938,4.371,4.371,0,0,0-3.074,1.273A4.314,4.314,0,0,0,0,40.309v2.2a2.154,2.154,0,0,0,1.466,2.038v3.825a.684.684,0,0,0,.684.684h4.4a.684.684,0,0,0,.684-.684V40.683l2.191,1.1a1.874,1.874,0,0,0,2.614-1.071l0-.008Zm0,0" transform="translate(0 -28.631)" fill="#fff"/>
    </g>
  </g>
</svg>
