<svg xmlns="http://www.w3.org/2000/svg" width="11.78" height="10.215" viewBox="0 0 11.78 10.215">
  <g id="Layer_x0020_1" transform="translate(-0.003 -2.883)">
    <g id="_553428304" transform="translate(0.003 2.883)">
      <path id="_553428040" d="M5.11,13.1A5.107,5.107,0,1,1,8.828,4.483a.126.126,0,0,1,.012.163l.3.392a.13.13,0,0,1,.177.048,5.052,5.052,0,0,1,.9,2.9A5.112,5.112,0,0,1,5.11,13.1Zm0-1.054A4.053,4.053,0,1,1,7.937,5.087a.127.127,0,0,1,.012.18l.379.471a.133.133,0,0,1,.184.039,4.068,4.068,0,0,1-3.4,6.267Z" transform="translate(-0.003 -2.883)" fill="#545454" fill-rule="evenodd"/>
      <path id="_553427992" d="M12.285,12.153a.136.136,0,0,1-.125-.086,7.165,7.165,0,0,0-2.108-2.951c-.249-.153-.441-.316-.364-.68a.843.843,0,0,1,.747-.652c.767-.163,1.591,1.025,1.9,1.514,1.073-1.562,3.22-4.015,6.343-4.3a.141.141,0,0,1,.067.268,13.3,13.3,0,0,0-6.324,6.813A.153.153,0,0,1,12.285,12.153Z" transform="translate(-7.043 -4.42)" fill="#00b42c" fill-rule="evenodd"/>
    </g>
  </g>
</svg>
