<svg xmlns="http://www.w3.org/2000/svg" width="11" height="11" viewBox="0 0 11 11">
  <g id="cross" transform="translate(-1 -1)">
    <circle id="Ellipse_2979" data-name="Ellipse 2979" cx="5.5" cy="5.5" r="5.5" transform="translate(1 1)" fill="#f74850"/>
    <path id="Path_6343" data-name="Path 6343" d="M21,20.221l1.364,1.364a.259.259,0,0,1,0,.366l-.415.415a.259.259,0,0,1-.366,0L20.221,21l-1.364,1.364a.259.259,0,0,1-.366,0l-.415-.415a.259.259,0,0,1,0-.366l1.364-1.364-1.364-1.364a.259.259,0,0,1,0-.366l.415-.415a.259.259,0,0,1,.366,0l1.364,1.364,1.364-1.364a.259.259,0,0,1,.366,0l.415.415a.259.259,0,0,1,0,.366Z" transform="translate(-13.856 -13.856)" fill="#fff"/>
  </g>
</svg>
