<svg xmlns="http://www.w3.org/2000/svg" width="14.893" height="14.895" viewBox="0 0 14.893 14.895">
  <path id="home_3_" data-name="home (3)" d="M14.493,6.478h0L8.416.4A1.371,1.371,0,0,0,6.477.4L.4,6.474.4,6.48a1.371,1.371,0,0,0,.913,2.336l.042,0h.242v4.471a1.607,1.607,0,0,0,1.6,1.6H5.577a.436.436,0,0,0,.436-.436V10.952a.733.733,0,0,1,.732-.732h1.4a.733.733,0,0,1,.732.732v3.505a.436.436,0,0,0,.436.436h2.377a1.607,1.607,0,0,0,1.6-1.6V8.818h.225a1.371,1.371,0,0,0,.97-2.34Zm0,0" transform="translate(0 0)" fill="#c7cace"/>
</svg>
