<svg xmlns="http://www.w3.org/2000/svg" width="14" height="14" viewBox="0 0 14 14">
  <g id="logout" transform="translate(0 -0.004)">
    <path id="Path_6365" data-name="Path 6365" d="M8.625,7.587a.579.579,0,0,0-.575.583V10.5a.58.58,0,0,1-.575.583H5.75V2.337a1.175,1.175,0,0,0-.783-1.109L4.8,1.17H7.475a.58.58,0,0,1,.575.583V3.5a.575.575,0,1,0,1.15,0V1.754A1.74,1.74,0,0,0,7.475,0H1.294a.446.446,0,0,0-.061.013C1.2.014,1.178,0,1.15,0A1.16,1.16,0,0,0,0,1.17v10.5a1.175,1.175,0,0,0,.783,1.109l3.46,1.17A1.175,1.175,0,0,0,4.6,14a1.16,1.16,0,0,0,1.15-1.167v-.583H7.475A1.74,1.74,0,0,0,9.2,10.5V8.17a.579.579,0,0,0-.575-.583Zm0,0" transform="translate(0 0)" fill="#c7cace"/>
    <path id="Path_6366" data-name="Path 6366" d="M283.489,109.134l-2.3-2.3a.575.575,0,0,0-.981.407v1.725h-2.3a.575.575,0,1,0,0,1.15h2.3v1.725a.575.575,0,0,0,.981.407l2.3-2.3A.574.574,0,0,0,283.489,109.134Zm0,0" transform="translate(-269.657 -103.715)" fill="#c7cace"/>
  </g>
</svg>
