<svg id="synchronize" xmlns="http://www.w3.org/2000/svg" width="15.001" height="15.001" viewBox="0 0 15.001 15.001">
  <path id="Path_6362" data-name="Path 6362" d="M8.594,4.375H8.126V3.125a3.125,3.125,0,0,0-6.251,0v1.25H1.406A1.408,1.408,0,0,0,0,5.782v5.313A1.408,1.408,0,0,0,1.406,12.5H7.532a1.742,1.742,0,0,1,.494-.925,1.867,1.867,0,0,1-.144-1.994A4.515,4.515,0,0,1,10,7.6V5.782A1.408,1.408,0,0,0,8.594,4.375ZM3.125,3.125a1.875,1.875,0,0,1,3.75,0v1.25H3.125Z" fill="#c7cace"/>
  <path id="Path_6363" data-name="Path 6363" d="M19.767,19.831a.625.625,0,0,0-.847.252,2.016,2.016,0,0,1-2.855.764l.3-.3a.469.469,0,0,0-.331-.8H14.469a.469.469,0,0,0-.469.469v1.563a.469.469,0,0,0,.289.433.462.462,0,0,0,.179.036.467.467,0,0,0,.331-.138l.358-.358a3.289,3.289,0,0,0,4.86-1.076A.625.625,0,0,0,19.767,19.831Z" transform="translate(-5.249 -7.405)" fill="#c7cace"/>
  <path id="Path_6364" data-name="Path 6364" d="M20.055,13.692a.468.468,0,0,0-.511.1l-.358.358a3.286,3.286,0,0,0-4.862,1.083.625.625,0,0,0,1.1.592,2.013,2.013,0,0,1,2.853-.768l-.3.3a.469.469,0,0,0,.331.8h1.563a.469.469,0,0,0,.469-.469V14.125A.469.469,0,0,0,20.055,13.692Z" transform="translate(-5.343 -5.062)" fill="#c7cace"/>
</svg>
