<svg xmlns="http://www.w3.org/2000/svg" width="14.121" height="14.12" viewBox="0 0 14.121 14.12">
  <g id="profile-user" transform="translate(0 -0.001)">
    <path id="Path_6361" data-name="Path 6361" d="M7.06,0a7.06,7.06,0,1,0,7.06,7.06A7.06,7.06,0,0,0,7.06,0Zm0,2.111A2.335,2.335,0,1,1,4.725,4.447,2.335,2.335,0,0,1,7.06,2.112Zm0,10.163a5.182,5.182,0,0,1-3.374-1.244,1,1,0,0,1-.349-.756A2.355,2.355,0,0,1,5.7,7.92H8.419a2.352,2.352,0,0,1,2.363,2.354.993.993,0,0,1-.349.756A5.18,5.18,0,0,1,7.059,12.275Z" transform="translate(0)" fill="#c7cace"/>
  </g>
</svg>
