<svg xmlns="http://www.w3.org/2000/svg" width="23.484" height="23.484" viewBox="0 0 23.484 23.484">
  <g id="Group_5820" data-name="Group 5820" transform="translate(-18.719 -27.641)">
    <g id="Group_5818" data-name="Group 5818" transform="translate(18.719 27.641)">
      <g id="telephone">
        <path id="Path_4937" data-name="Path 4937" d="M134.179,128.058a14.4,14.4,0,0,1-6.38-1.459,1.307,1.307,0,0,0-1.748.605l-.939,1.944a18.372,18.372,0,0,1-6.776-6.776l1.947-.939a1.307,1.307,0,0,0,.605-1.748,14.355,14.355,0,0,1-1.461-6.38,1.305,1.305,0,0,0-1.3-1.3H113.3a1.305,1.305,0,0,0-1.3,1.3,22.2,22.2,0,0,0,22.179,22.179,1.305,1.305,0,0,0,1.3-1.3v-4.817A1.305,1.305,0,0,0,134.179,128.058Z" transform="translate(-112 -112)" fill="#fff"/>
      </g>
    </g>
  </g>
</svg>
