<svg xmlns="http://www.w3.org/2000/svg" width="42" height="42" viewBox="0 0 42 42">
  <g id="Group_6531" data-name="Group 6531" transform="translate(-4766 -3075)">
    <g id="_023---Sign-Form" data-name="023---Sign-Form" transform="translate(4766 3075)">
      <g id="Layer_4" transform="translate(0.7 0.7)">
        <path id="Shape" d="M40.6,8V40.2A2.8,2.8,0,0,1,37.8,43H2.8A2.8,2.8,0,0,1,0,40.2V8Z" transform="translate(0 -2.4)" fill="#cad9fc"/>
        <path id="Shape-2" data-name="Shape" d="M38.5,8V40.2A2.8,2.8,0,0,1,35.7,43H2.8A2.8,2.8,0,0,1,0,40.2V8Z" transform="translate(0 -2.4)" fill="#e8edfc"/>
        <path id="Shape-3" data-name="Shape" d="M40.6,2.8V5.6H0V2.8A2.8,2.8,0,0,1,2.8,0h35A2.8,2.8,0,0,1,40.6,2.8Z" fill="#7facfa"/>
        <path id="Shape-4" data-name="Shape" d="M38.5,2.8V5.6H0V2.8A2.8,2.8,0,0,1,2.8,0H35.7A2.8,2.8,0,0,1,38.5,2.8Z" fill="#a4c2f7"/>
        <rect id="Rectangle-path" width="21" height="4" rx="1" transform="translate(3.3 9.3)" fill="#a4c2f7"/>
        <path id="Shape-5" data-name="Shape" d="M38.6,40.7v8.4a.7.7,0,0,1-.7.7H5.7a.7.7,0,0,1-.7-.7V40.7a.7.7,0,0,1,.7-.7H23.991l-.413.777-.609,5.754a.7.7,0,0,0,1.148.609l4.41-3.745L30.326,40H37.9a.7.7,0,0,1,.7.7Z" transform="translate(-1.5 -12)" fill="#cad9fc"/>
        <path id="Shape-6" data-name="Shape" d="M36.5,40.7v8.4a.7.7,0,0,1-.7.7H5.7a.7.7,0,0,1-.7-.7V40.7a.7.7,0,0,1,.7-.7H23.991l-.413.777-.609,5.754a.7.7,0,0,0,1.148.609l4.41-3.745L30.326,40H35.8a.7.7,0,0,1,.7.7Z" transform="translate(-1.5 -12)" fill="#e8edfc"/>
        <path id="Shape-7" data-name="Shape" d="M36.226,43.728l-4.41,3.745a.7.7,0,0,1-1.148-.609l.609-5.754C34.1,41.585,34.049,41.453,36.226,43.728Z" transform="translate(-9.199 -12.333)" fill="#cad9fc"/>
        <path id="Shape-8" data-name="Shape" d="M41.55,22.1,34.347,35.7a8.4,8.4,0,0,0-2.807-.693L39.079,20.78Z" transform="translate(-9.462 -6.234)" fill="#e8edfc"/>
        <path id="Shape-9" data-name="Shape" d="M45.224,23.969,37.692,38.193a8.521,8.521,0,0,0-2.142-1.925l7.2-13.608Z" transform="translate(-10.665 -6.798)" fill="#cad9fc"/>
        <path id="Shape-10" data-name="Shape" d="M50.109,16.738l-.98,1.855L44.18,15.975l.98-1.855A2.1,2.1,0,0,1,48,13.245l1.232.651a2.1,2.1,0,0,1,.875,2.842Z" transform="translate(-13.254 -3.9)" fill="#a4c2f7"/>
        <path id="Shape-11" data-name="Shape" d="M48.568,19.868l-1.316,2.478c-2.966-1.572-1.831-.968-4.942-2.625l1.309-2.471Z" transform="translate(-12.693 -5.175)" fill="#cad9fc"/>
      </g>
      <path id="Shape-12" data-name="Shape" d="M2.8,40.6H4.9a2.8,2.8,0,0,1-2.8-2.8V2.8A2.8,2.8,0,0,1,4.9,0H2.8A2.8,2.8,0,0,0,0,2.8v35A2.8,2.8,0,0,0,2.8,40.6Z" transform="translate(0.7 0.7)" fill="#fff"/>
      <path id="Rectangle-path-2" data-name="Rectangle-path" d="M0,47H1.4v5.6H0Z" transform="translate(0 -14.1)" fill="#fff"/>
      <g id="Group_6404" data-name="Group 6404">
        <path id="Shape-13" data-name="Shape" d="M.718,51.4a.7.7,0,1,0,0-1.4H.711a.7.7,0,1,0,.007,1.4Z" transform="translate(-0.004 -15)" fill="#428dff"/>
        <path id="Shape-14" data-name="Shape" d="M38.5,0H3.5A3.5,3.5,0,0,0,0,3.5V32.9a.7.7,0,1,0,1.4,0V7H40.6V38.5a2.1,2.1,0,0,1-2.1,2.1H3.5a2.1,2.1,0,0,1-2.1-2.1.7.7,0,1,0-1.4,0A3.5,3.5,0,0,0,3.5,42h35A3.5,3.5,0,0,0,42,38.5V3.5A3.5,3.5,0,0,0,38.5,0Zm2.1,5.6H1.4V3.5A2.1,2.1,0,0,1,3.5,1.4h35a2.1,2.1,0,0,1,2.1,2.1Z" fill="#428dff"/>
        <path id="Shape-15" data-name="Shape" d="M54.1,3.7a.7.7,0,0,0-1.4,0,.7.7,0,0,0,0,1.4.7.7,0,0,0,1.4,0,.7.7,0,1,0,0-1.4Z" transform="translate(-15.6 -0.9)" fill="#428dff"/>
        <path id="Shape-16" data-name="Shape" d="M48.1,4H46.7a.7.7,0,0,0,0,1.4h1.4a.7.7,0,1,0,0-1.4Z" transform="translate(-13.8 -1.2)" fill="#428dff"/>
        <path id="Shape-17" data-name="Shape" d="M27.4,14.4A1.4,1.4,0,0,0,26,13H6.4A1.4,1.4,0,0,0,5,14.4v2.8a1.4,1.4,0,0,0,1.4,1.4H26a1.4,1.4,0,0,0,1.4-1.4Zm-21,2.8V14.4H26v2.8Z" transform="translate(-1.5 -3.9)" fill="#428dff"/>
        <path id="Shape-18" data-name="Shape" d="M27.7,23.7A.7.7,0,0,0,27,23H6.7a.7.7,0,1,0,0,1.4H27A.7.7,0,0,0,27.7,23.7Z" transform="translate(-1.8 -6.9)" fill="#428dff"/>
        <path id="Shape-19" data-name="Shape" d="M25.6,27.7a.7.7,0,0,0-.7-.7H6.7a.7.7,0,1,0,0,1.4H24.9A.7.7,0,0,0,25.6,27.7Z" transform="translate(-1.8 -8.1)" fill="#428dff"/>
        <path id="Shape-20" data-name="Shape" d="M24.2,31.7a.7.7,0,0,0-.7-.7H6.7a.7.7,0,0,0,0,1.4H23.5A.7.7,0,0,0,24.2,31.7Z" transform="translate(-1.8 -9.3)" fill="#428dff"/>
        <path id="Shape-21" data-name="Shape" d="M6.7,35a.7.7,0,0,0,0,1.4H22.1a.7.7,0,1,0,0-1.4Z" transform="translate(-1.8 -10.5)" fill="#428dff"/>
        <path id="Shape-22" data-name="Shape" d="M5,41.7a1.4,1.4,0,0,0,1.4,1.4H38.6A1.4,1.4,0,0,0,40,41.7V33.3a1.4,1.4,0,0,0-1.4-1.4H32.191l5.19-9.8.5-.938,1.8-3.392a2.8,2.8,0,0,0-1.164-3.79l-1.24-.655a2.8,2.8,0,0,0-3.78,1.165l-.98,1.856L31.2,18.821,24.271,31.9H6.4A1.4,1.4,0,0,0,5,33.3Zm25.382-9.374-1.316,2.486-.375-.393A4.9,4.9,0,0,0,28,33.828l6.58-12.423,1.238.654Zm4.34-17.181a1.4,1.4,0,0,1,1.89-.582l1.238.655a1.4,1.4,0,0,1,.582,1.89l-.655,1.238-3.71-1.965Zm-1.307,2.474,3.71,1.965-.571,1.079-.084.159-3.71-1.965ZM32.1,20.1l1.238.655L26.766,33.173a4.97,4.97,0,0,0-.876-.237l-.535-.089ZM24.9,34.191l.761.127a3.61,3.61,0,0,1,2.021,1.069l.533.56-3.85,3.264ZM6.4,33.3H23.586v0l-.615,5.757a1.4,1.4,0,0,0,2.3,1.216l4.415-3.744s.008-.012.013-.017l.018-.01a.691.691,0,0,0,.056-.081.757.757,0,0,0,.08-.1l1.6-3.025H38.6v8.4H6.4Z" transform="translate(-1.5 -3.901)" fill="#428dff"/>
        <path id="Shape-23" data-name="Shape" d="M10.1,50H8.7a.7.7,0,1,0,0,1.4h1.4a.7.7,0,1,0,0-1.4Z" transform="translate(-2.4 -15)" fill="#428dff"/>
        <path id="Shape-24" data-name="Shape" d="M16.1,50H14.7a.7.7,0,1,0,0,1.4h1.4a.7.7,0,1,0,0-1.4Z" transform="translate(-4.2 -15)" fill="#428dff"/>
        <path id="Shape-25" data-name="Shape" d="M22.1,50H20.7a.7.7,0,1,0,0,1.4h1.4a.7.7,0,1,0,0-1.4Z" transform="translate(-6 -15)" fill="#428dff"/>
        <path id="Shape-26" data-name="Shape" d="M27.4,50h-.7a.7.7,0,1,0,0,1.4h.7a.7.7,0,0,0,0-1.4Z" transform="translate(-7.8 -15)" fill="#428dff"/>
        <path id="Shape-27" data-name="Shape" d="M38.4,50h-.7a.7.7,0,1,0,0,1.4h.7a.7.7,0,0,0,0-1.4Z" transform="translate(-11.1 -15)" fill="#428dff"/>
        <path id="Shape-28" data-name="Shape" d="M44.1,50H42.7a.7.7,0,1,0,0,1.4h1.4a.7.7,0,1,0,0-1.4Z" transform="translate(-12.6 -15)" fill="#428dff"/>
        <path id="Shape-29" data-name="Shape" d="M50.1,50H48.7a.7.7,0,0,0,0,1.4h1.4a.7.7,0,0,0,0-1.4Z" transform="translate(-14.4 -15)" fill="#428dff"/>
      </g>
    </g>
  </g>
</svg>
