<svg xmlns="http://www.w3.org/2000/svg" width="21" height="21" viewBox="0 0 21 21">
  <path id="phone_3_" data-name="phone (3)" d="M10.752.5A10.5,10.5,0,1,1,.252,11,10.5,10.5,0,0,1,10.752.5Zm3.317,4.848a2.336,2.336,0,0,0-2.176,3.187,1.625,1.625,0,0,1,1.425-.847h.018a1.207,1.207,0,1,1,1.466,0h.018a1.624,1.624,0,0,1,1.425.847,2.336,2.336,0,0,0-2.175-3.187Zm0-.808a3.143,3.143,0,1,0,3.143,3.143A3.143,3.143,0,0,0,14.069,4.54ZM9.088,12.664A6.859,6.859,0,0,1,7.039,9.458.4.4,0,0,1,7.16,9.1l.14-.133L5.874,5.8a3.642,3.642,0,0,0-.531,3.6,10.808,10.808,0,0,0,2.742,4.26,10.8,10.8,0,0,0,4.26,2.742,3.642,3.642,0,0,0,3.6-.531l-3.168-1.426-.134.14a.4.4,0,0,1-.354.121,6.859,6.859,0,0,1-3.206-2.049Zm.1-5.149-1.164-2.5a.82.82,0,0,0-.825-.475,4.218,4.218,0,0,0-1.755.566.4.4,0,0,0-.089.07A3.742,3.742,0,0,0,4.338,7.268a5.439,5.439,0,0,0,.233,2.377,11.61,11.61,0,0,0,2.943,4.594,11.621,11.621,0,0,0,4.594,2.943,5.915,5.915,0,0,0,1.732.279,4.45,4.45,0,0,0,.645-.046A3.744,3.744,0,0,0,16.573,16.4a.4.4,0,0,0,.07-.089,4.221,4.221,0,0,0,.566-1.755.82.82,0,0,0-.475-.825l-2.5-1.164a.816.816,0,0,0-.95.18L12.22,13.871a7.075,7.075,0,0,1-2.56-1.778,7.077,7.077,0,0,1-1.778-2.56L9,8.465a.817.817,0,0,0,.18-.95Z" transform="translate(-0.252 -0.5)" fill="#9c27b0" fill-rule="evenodd"/>
</svg>
