<svg xmlns="http://www.w3.org/2000/svg" width="47.099" height="46.325" viewBox="0 0 47.099 46.325">
  <g id="surface1" transform="translate(0 -0.001)">
    <path id="Path_4786" data-name="Path 4786" d="M78.1,332.836l-3.652-.748-2.113,2.188-7.2-5.685,4.8-3.278,5.108-5.59a1.922,1.922,0,0,1,3.045.272l6.051,6.94a2.231,2.231,0,0,1-.54,3.382l-3.565,2.123A3.316,3.316,0,0,1,78.1,332.836Zm0,0" transform="translate(-59.145 -289.743)" fill="#ffe7cf"/>
    <path id="Path_4787" data-name="Path 4787" d="M118.465,387.585l-1.477-1.694-6.158,3.669a3.317,3.317,0,0,1-1.936.395l-3.2-.344-2.763,2.373,3.726,2.941,2.112-2.189,3.652.749a3.319,3.319,0,0,0,1.936-.395l3.565-2.123A2.231,2.231,0,0,0,118.465,387.585Zm0,0" transform="translate(-93.465 -350.392)" fill="#efd5bd"/>
    <path id="Path_4788" data-name="Path 4788" d="M158.7,296.232c-.713-1.106-1.581-.546-2.294-1.652s.156-1.665-.557-2.771-1.581-.546-2.294-1.652.155-1.666-.558-2.772c-.436-.676-1.225-2.072-1.706-2.264l-3.848,1.9,6.7,10.562a2.183,2.183,0,0,0,3.018.652l1.281-.826a.852.852,0,0,0,.268-1.169Zm0,0" transform="translate(-133.882 -258.892)" fill="#344a5d"/>
    <path id="Path_4789" data-name="Path 4789" d="M84.417,274.607l-3.023,1.865a1.221,1.221,0,0,1-1.68-.4L78,273.305a1.221,1.221,0,0,1,.4-1.68l3.023-1.865a.756.756,0,0,1,1.04.246l2.2,3.561A.755.755,0,0,1,84.417,274.607Zm0,0" transform="translate(-70.664 -244.842)" fill="#344a5d"/>
    <path id="Path_4790" data-name="Path 4790" d="M101.04,63.482,94.9,67.269a1.718,1.718,0,0,0-.56,2.364l3.026,4.9a1.718,1.718,0,0,0,2.364.56l6.136-3.786,19.408-4.225L113.521,48.031Zm0,0" transform="translate(-85.432 -43.612)" fill="#fed066"/>
    <path id="Path_4791" data-name="Path 4791" d="M137.453,206.367l-19.308,4.387-7.6,4.688,1.768,2.865a1.718,1.718,0,0,0,2.364.56l6.136-3.786,19.408-4.225Zm0,0" transform="translate(-100.378 -187.382)" fill="#f5b556"/>
    <path id="Path_4792" data-name="Path 4792" d="M105.868,223.825l-6.136,3.786a1.718,1.718,0,0,1-2.364-.56l-3.026-4.9a1.718,1.718,0,0,1,.56-2.364L101.038,216Zm0,0" transform="translate(-85.431 -196.125)" fill="#fd715c"/>
    <path id="Path_4793" data-name="Path 4793" d="M118.145,254.059l-7.6,4.688,1.768,2.865a1.718,1.718,0,0,0,2.364.56l3.068-1.893,3.068-1.893Zm0,0" transform="translate(-100.378 -230.687)" fill="#d83e3a"/>
    <path id="Path_4794" data-name="Path 4794" d="M298.875,50.813l-.838.517a.924.924,0,0,1-1.271-.3L284.127,30.544a.923.923,0,0,1,.3-1.271l.838-.517a.923.923,0,0,1,1.271.3l12.639,20.484A.924.924,0,0,1,298.875,50.813Zm0,0" transform="translate(-257.865 -25.985)" fill="#fd715c"/>
    <path id="Path_4795" data-name="Path 4795" d="M404.77,222.8l-2.079-3.37-2.41,1.487,2.079,3.37a.924.924,0,0,0,1.271.3l.838-.517A.924.924,0,0,0,404.77,222.8Zm0,0" transform="translate(-363.459 -199.247)" fill="#d83e3a"/>
    <path id="Path_4796" data-name="Path 4796" d="M246.833,398.455a1.586,1.586,0,0,0,2.181.527l2.312-1.414a1.586,1.586,0,0,0-1.654-2.707l-2.313,1.414A1.586,1.586,0,0,0,246.833,398.455Zm0,0" transform="translate(-223.915 -358.326)" fill="#ffe7cf"/>
    <path id="Path_4797" data-name="Path 4797" d="M252,396.5a1.576,1.576,0,0,0-.773-.647,1.586,1.586,0,0,1-.744,1.566l-2.313,1.414a1.583,1.583,0,0,1-1.408.121,1.585,1.585,0,0,0,2.4,1.14l2.312-1.414A1.586,1.586,0,0,0,252,396.5Zm0,0" transform="translate(-224.066 -359.436)" fill="#efd5bd"/>
    <path id="Path_4798" data-name="Path 4798" d="M236.03,364.411a1.61,1.61,0,0,0,2.214.535l2.271-1.388a1.61,1.61,0,1,0-1.679-2.747l-2.272,1.388A1.61,1.61,0,0,0,236.03,364.411Zm0,0" transform="translate(-214.103 -327.403)" fill="#ffe7cf"/>
    <path id="Path_4799" data-name="Path 4799" d="M241.187,362.572a1.6,1.6,0,0,0-.758-.646,1.609,1.609,0,0,1-.756,1.577l-2.272,1.389a1.607,1.607,0,0,1-1.456.112,1.609,1.609,0,0,0,2.436,1.171l2.271-1.388A1.611,1.611,0,0,0,241.187,362.572Zm0,0" transform="translate(-214.24 -328.631)" fill="#efd5bd"/>
    <path id="Path_4800" data-name="Path 4800" d="M217.624,334.731a1.61,1.61,0,0,0,2.214.535l2.272-1.389a1.61,1.61,0,0,0-1.68-2.747l-2.272,1.388A1.61,1.61,0,0,0,217.624,334.731Zm0,0" transform="translate(-197.39 -300.453)" fill="#ffe7cf"/>
    <path id="Path_4801" data-name="Path 4801" d="M222.76,332.967a1.6,1.6,0,0,0-.739-.639,1.609,1.609,0,0,1-.759,1.553l-2.271,1.388a1.607,1.607,0,0,1-1.475.1,1.607,1.607,0,0,0,2.438,1.194l2.272-1.388A1.61,1.61,0,0,0,222.76,332.967Zm0,0" transform="translate(-197.507 -301.756)" fill="#efd5bd"/>
    <path id="Path_4802" data-name="Path 4802" d="M200.274,304.294a1.61,1.61,0,0,0,2.214.534l2.272-1.388a1.61,1.61,0,1,0-1.68-2.748l-2.272,1.389A1.61,1.61,0,0,0,200.274,304.294Zm0,0" transform="translate(-181.636 -272.815)" fill="#ffe7cf"/>
    <path id="Path_4803" data-name="Path 4803" d="M205.66,301.944a1.6,1.6,0,0,0-.9-.7,1.609,1.609,0,0,1-.733,1.71l-2.272,1.389a1.6,1.6,0,0,1-1.312.163,1.606,1.606,0,0,0,2.413,1.038l2.272-1.388A1.61,1.61,0,0,0,205.66,301.944Zm0,0" transform="translate(-182.002 -273.533)" fill="#efd5bd"/>
    <path id="Path_4804" data-name="Path 4804" d="M128.605,303l-.421.257a1.388,1.388,0,0,1-1.914-.434l-.7-1.141a1.2,1.2,0,0,0-1.657-.37c-.574,4.212-6.56,3.831-6.56,3.831l3.71-5.587a2.983,2.983,0,0,1,1.01-1.041l2.094-1.3a2.132,2.132,0,0,1,2.95.658l1.973,3.22A1.39,1.39,0,0,1,128.605,303Zm0,0" transform="translate(-106.559 -269.577)" fill="#ffe7cf"/>
    <path id="Path_4805" data-name="Path 4805" d="M168.905,328.5l-.016-.027a1.431,1.431,0,0,1-.47.466l-.422.258a1.388,1.388,0,0,1-1.914-.434l-.7-1.141a1.2,1.2,0,0,0-1.657-.37,8.333,8.333,0,0,1-2.527,4.619,3.94,3.94,0,0,0,2.527-3.154,1.2,1.2,0,0,1,1.657.37l.7,1.141a1.388,1.388,0,0,0,1.914.434l.422-.258A1.389,1.389,0,0,0,168.905,328.5Zm0,0" transform="translate(-146.374 -296.975)" fill="#efd5bd"/>
    <path id="Path_4806" data-name="Path 4806" d="M86.455,399.909l-5.9-7.011,1.943-1.635a.145.145,0,0,1,.2.018l5.714,6.79a.146.146,0,0,1-.018.2Zm0,0" transform="translate(-73.144 -355.239)" fill="#cdd6df"/>
    <path id="Path_4807" data-name="Path 4807" d="M115.73,429.944l-3.039-3.612-2.054,1.728,3.133,3.723,1.943-1.635A.145.145,0,0,0,115.73,429.944Zm0,0" transform="translate(-100.459 -387.112)" fill="#96a4aa"/>
    <path id="Path_4808" data-name="Path 4808" d="M402.38,91.254a.7.7,0,0,1-.368-1.3l3.8-2.335a.7.7,0,0,1,.734,1.193l-3.8,2.335A.694.694,0,0,1,402.38,91.254Zm0,0" transform="translate(-364.728 -79.467)" fill="#dbd9d1"/>
    <path id="Path_4809" data-name="Path 4809" d="M442.553,171.1c-.023,0-.046,0-.069,0l-5.564-.541a.7.7,0,1,1,.135-1.394l5.564.54a.7.7,0,0,1-.067,1.4Zm0,0" transform="translate(-396.154 -153.599)" fill="#dbd9d1"/>
    <path id="Path_4810" data-name="Path 4810" d="M367.77,6.612a.7.7,0,0,1-.652-.954l2.027-5.21a.7.7,0,0,1,1.305.508l-2.027,5.21A.7.7,0,0,1,367.77,6.612Zm0,0" transform="translate(-333.303)" fill="#dbd9d1"/>
    <path id="Path_4811" data-name="Path 4811" d="M13.732,410.506l-6.377-7.481a.153.153,0,0,0-.2-.027L.359,408.36A.945.945,0,0,0,0,409.1v2.181a.945.945,0,0,0,.945.945h11.11a.946.946,0,0,0,.737-.353l.933-1.162A.154.154,0,0,0,13.732,410.506Zm0,0" transform="translate(0 -365.901)" fill="#3c5666"/>
    <path id="Path_4812" data-name="Path 4812" d="M75.483,449.863l-3.024-3.547-4.452,5.268h5.8a.946.946,0,0,0,.737-.353l.933-1.162A.154.154,0,0,0,75.483,449.863Zm0,0" transform="translate(-61.752 -405.258)" fill="#194451"/>
  </g>
</svg>
