<svg xmlns="http://www.w3.org/2000/svg" width="30.081" height="33.379" viewBox="0 0 30.081 33.379">
  <g id="duties" transform="translate(-25.294)">
    <path id="Path_30721" data-name="Path 30721" d="M92.384,280.7H84.536v1.615l.065.236v12.315h7.718V282.552l.065-.246Z" transform="translate(-55.38 -262.401)" fill="#26a6fe"/>
    <path id="Path_30722" data-name="Path 30722" d="M93.254,295.8V281.7H91.2v11.811a.662.662,0,0,1-.662.662h-5V295.8Z" transform="translate(-56.315 -263.336)" fill="#0593fc"/>
    <path id="Path_30723" data-name="Path 30723" d="M138.2,327.685V316.3a.489.489,0,1,0-.978,0v11.389Z" transform="translate(-104.636 -295.218)" fill="#0182fc"/>
    <path id="Path_30724" data-name="Path 30724" d="M59.574,95.3H52.108a2.466,2.466,0,0,0-2.466,2.466v9.984a1.488,1.488,0,0,0,1.488,1.488h.852v-1.786H59.7v1.786h.852a1.488,1.488,0,0,0,1.488-1.488V97.771A2.465,2.465,0,0,0,59.574,95.3Z" transform="translate(-22.761 -89.092)" fill="#d8ecfe"/>
    <path id="Path_30725" data-name="Path 30725" d="M174.307,95.3h-1.931v12.152h2.056v1.786h.852a1.488,1.488,0,0,0,1.488-1.488V97.771A2.465,2.465,0,0,0,174.307,95.3Z" transform="translate(-137.493 -89.092)" fill="#c4e2ff"/>
    <path id="Path_30726" data-name="Path 30726" d="M206.247,145.19h-.731a.652.652,0,0,1-.652-.652V135.67a.487.487,0,0,0-.459-.493.474.474,0,0,0-.488.474v10.865h.852A1.488,1.488,0,0,0,206.247,145.19Z" transform="translate(-166.977 -126.364)" fill="#b3dafe"/>
    <g id="Group_8798" data-name="Group 8798" transform="translate(43.226 0.819)">
      <g id="Group_8797" data-name="Group 8797" transform="translate(0)">
        <g id="Group_8794" data-name="Group 8794">
          <path id="Path_30727" data-name="Path 30727" d="M307.751,12.684l2.982,2.982a.438.438,0,0,1,.128.309v9.1a.438.438,0,0,1-.438.438H300.8a.438.438,0,0,1-.438-.438V12.994a.438.438,0,0,1,.438-.438h6.645A.437.437,0,0,1,307.751,12.684Z" transform="translate(-300.359 -12.556)" fill="#ffe177"/>
        </g>
        <g id="Group_8795" data-name="Group 8795" transform="translate(0 1.089)">
          <path id="Path_30728" data-name="Path 30728" d="M310.733,31.275l-2.021-2.021a.437.437,0,0,1,.072.24v9.1a.438.438,0,0,1-.438.438h-7.987V40.68a.438.438,0,0,0,.438.438h9.627a.438.438,0,0,0,.438-.438v-9.1A.438.438,0,0,0,310.733,31.275Z" transform="translate(-300.359 -29.254)" fill="#ffd15b"/>
        </g>
        <g id="Group_8796" data-name="Group 8796" transform="translate(7.264 0.041)">
          <path id="Path_30729" data-name="Path 30729" d="M412.22,16.377a.438.438,0,0,1-.438-.438v-2.76a.436.436,0,0,1,.128.087l2.982,2.982a.438.438,0,0,1,.087.128Z" transform="translate(-411.782 -13.179)" fill="#ffc344"/>
        </g>
      </g>
    </g>
    <g id="Group_8804" data-name="Group 8804" transform="translate(29.69 0)">
      <g id="Group_8803" data-name="Group 8803" transform="translate(0 0)">
        <g id="Group_8802" data-name="Group 8802">
          <g id="Group_8801" data-name="Group 8801">
            <g id="Group_8799" data-name="Group 8799">
              <circle id="Ellipse_3897" data-name="Ellipse 3897" cx="3.342" cy="3.342" r="3.342" fill="#ffcebf"/>
            </g>
            <g id="Group_8800" data-name="Group 8800" transform="translate(0.275 0.294)">
              <path id="Path_30730" data-name="Path 30730" d="M101.38,4.5a3.342,3.342,0,0,1-4.436,4.376A3.342,3.342,0,1,0,101.38,4.5Z" transform="translate(-96.944 -4.503)" fill="#ffb09e"/>
            </g>
          </g>
        </g>
      </g>
    </g>
    <g id="Group_8805" data-name="Group 8805" transform="translate(45.212 5.478)">
      <path id="Path_30731" data-name="Path 30731" d="M336.862,85H331.31a.489.489,0,1,1,0-.978h5.552a.489.489,0,1,1,0,.978Z" transform="translate(-330.821 -84.024)" fill="#fff"/>
    </g>
    <g id="Group_8806" data-name="Group 8806" transform="translate(45.212 8.103)">
      <path id="Path_30732" data-name="Path 30732" d="M336.862,125.269H331.31a.489.489,0,1,1,0-.978h5.552a.489.489,0,1,1,0,.978Z" transform="translate(-330.821 -124.291)" fill="#fff"/>
    </g>
    <g id="Group_8807" data-name="Group 8807" transform="translate(45.212 10.728)">
      <path id="Path_30733" data-name="Path 30733" d="M336.862,165.536H331.31a.489.489,0,1,1,0-.978h5.552a.489.489,0,1,1,0,.978Z" transform="translate(-330.821 -164.558)" fill="#fff"/>
    </g>
    <g id="Group_8808" data-name="Group 8808" transform="translate(45.212 3.321)">
      <path id="Path_30734" data-name="Path 30734" d="M333.66,51.926h-2.349a.489.489,0,1,1,0-.978h2.349a.489.489,0,1,1,0,.978Z" transform="translate(-330.822 -50.948)" fill="#fff"/>
    </g>
    <g id="Group_8809" data-name="Group 8809" transform="translate(38.506 17.668)">
      <path id="Path_30735" data-name="Path 30735" d="M267.152,306.222h-4.465a.489.489,0,1,1,0-.978h4.465a.489.489,0,0,1,0,.978Z" transform="translate(-259.966 -303.012)" fill="#05e39c"/>
      <path id="Path_30736" data-name="Path 30736" d="M267.152,271.98h-4.465a.489.489,0,1,1,0-.978h4.465a.489.489,0,0,1,0,.978Z" transform="translate(-259.966 -271.002)" fill="#05e39c"/>
      <path id="Path_30737" data-name="Path 30737" d="M235.141,429.494h-6.7a.489.489,0,0,1,0-.978h6.7a.489.489,0,0,1,0,.978Z" transform="translate(-227.955 -418.247)" fill="#05e39c"/>
      <path id="Path_30738" data-name="Path 30738" d="M235.141,395.251h-6.7a.489.489,0,0,1,0-.978h6.7a.489.489,0,1,1,0,.978Z" transform="translate(-227.955 -386.237)" fill="#05e39c"/>
    </g>
    <path id="Path_30739" data-name="Path 30739" d="M51.625,135.176a.487.487,0,0,0-.459.493v8.867a.652.652,0,0,1-.652.652h-.731a1.488,1.488,0,0,0,1.479,1.325h.852V135.65A.474.474,0,0,0,51.625,135.176Z" transform="translate(-22.892 -126.363)" fill="#c4e2ff"/>
    <path id="Path_30740" data-name="Path 30740" d="M54.886,497.978h-29.1a.489.489,0,0,1,0-.978h29.1a.489.489,0,0,1,0,.978Z" transform="translate(0 -464.599)" fill="#cbc4cc"/>
    <g id="Group_8816" data-name="Group 8816" transform="translate(47.774 16.295)">
      <g id="Group_8810" data-name="Group 8810">
        <circle id="Ellipse_3898" data-name="Ellipse 3898" cx="2.978" cy="2.978" r="2.978" fill="#05e39c"/>
      </g>
      <g id="Group_8811" data-name="Group 8811" transform="translate(0.264 0.264)">
        <path id="Path_30741" data-name="Path 30741" d="M378.1,253.991a2.978,2.978,0,0,1-3.939,3.939,2.978,2.978,0,1,0,3.939-3.939Z" transform="translate(-374.165 -253.991)" fill="#0ed290"/>
      </g>
      <g id="Group_8812" data-name="Group 8812" transform="translate(0 8.037)">
        <circle id="Ellipse_3899" data-name="Ellipse 3899" cx="2.978" cy="2.978" r="2.978" fill="#05e39c"/>
      </g>
      <g id="Group_8813" data-name="Group 8813" transform="translate(0.264 8.3)">
        <path id="Path_30742" data-name="Path 30742" d="M378.1,377.263a2.978,2.978,0,0,1-3.939,3.939,2.978,2.978,0,1,0,3.939-3.939Z" transform="translate(-374.165 -377.263)" fill="#0ed290"/>
      </g>
      <g id="Group_8814" data-name="Group 8814" transform="translate(1.393 1.819)">
        <path id="Path_30743" data-name="Path 30743" d="M392.827,280.16a.489.489,0,0,1-.346-.143l-.851-.851a.489.489,0,1,1,.691-.691l.505.505.995-.995a.489.489,0,0,1,.692.691l-1.341,1.341A.489.489,0,0,1,392.827,280.16Z" transform="translate(-391.487 -277.841)" fill="#fff"/>
      </g>
      <g id="Group_8815" data-name="Group 8815" transform="translate(1.393 9.855)">
        <path id="Path_30744" data-name="Path 30744" d="M392.827,403.432a.489.489,0,0,1-.346-.143l-.851-.851a.489.489,0,1,1,.691-.691l.505.505.995-1a.489.489,0,0,1,.692.692l-1.341,1.341A.489.489,0,0,1,392.827,403.432Z" transform="translate(-391.487 -401.113)" fill="#fff"/>
      </g>
    </g>
    <g id="Group_8817" data-name="Group 8817" transform="translate(37.496 2.853)">
      <path id="Path_30745" data-name="Path 30745" d="M213.879,44.74h-.927a.489.489,0,1,1,0-.978h.927a.489.489,0,1,1,0,.978Z" transform="translate(-212.464 -43.762)" fill="#05e39c"/>
    </g>
    <g id="Group_8818" data-name="Group 8818" transform="translate(40.143 2.853)">
      <path id="Path_30746" data-name="Path 30746" d="M254.483,44.74h-.926a.489.489,0,1,1,0-.978h.926a.489.489,0,1,1,0,.978Z" transform="translate(-253.068 -43.762)" fill="#05e39c"/>
    </g>
  </g>
</svg>
