<svg xmlns="http://www.w3.org/2000/svg" width="23.233" height="26.552" viewBox="0 0 23.233 26.552">
  <g id="Group_5523" data-name="Group 5523" transform="translate(-16.066 -15)">
    <path id="Icon_awesome-calendar-alt" data-name="Icon awesome-calendar-alt" d="M0,24.063a2.49,2.49,0,0,0,2.489,2.489H20.744a2.49,2.49,0,0,0,2.489-2.489V9.957H0ZM16.6,13.9a.624.624,0,0,1,.622-.622h2.074a.624.624,0,0,1,.622.622v2.074a.624.624,0,0,1-.622.622H17.218a.624.624,0,0,1-.622-.622Zm0,6.638a.624.624,0,0,1,.622-.622h2.074a.624.624,0,0,1,.622.622v2.074a.624.624,0,0,1-.622.622H17.218a.624.624,0,0,1-.622-.622ZM9.957,13.9a.624.624,0,0,1,.622-.622h2.074a.624.624,0,0,1,.622.622v2.074a.624.624,0,0,1-.622.622H10.579a.624.624,0,0,1-.622-.622Zm0,6.638a.624.624,0,0,1,.622-.622h2.074a.624.624,0,0,1,.622.622v2.074a.624.624,0,0,1-.622.622H10.579a.624.624,0,0,1-.622-.622ZM3.319,13.9a.624.624,0,0,1,.622-.622H6.016a.624.624,0,0,1,.622.622v2.074a.624.624,0,0,1-.622.622H3.941a.624.624,0,0,1-.622-.622Zm0,6.638a.624.624,0,0,1,.622-.622H6.016a.624.624,0,0,1,.622.622v2.074a.624.624,0,0,1-.622.622H3.941a.624.624,0,0,1-.622-.622ZM20.744,3.319H18.255V.83a.832.832,0,0,0-.83-.83h-1.66a.832.832,0,0,0-.83.83V3.319H8.3V.83A.832.832,0,0,0,7.468,0H5.808a.832.832,0,0,0-.83.83V3.319H2.489A2.49,2.49,0,0,0,0,5.808V8.3H23.233V5.808A2.49,2.49,0,0,0,20.744,3.319Z" transform="translate(16.067 15)" fill="#e1a664"/>
  </g>
</svg>
