<svg xmlns="http://www.w3.org/2000/svg" width="25.853" height="18.244" viewBox="0 0 25.853 18.244">
  <g id="Group_5822" data-name="Group 5822" transform="translate(-27.377 -31.181)">
    <g id="email_3_" data-name="email (3)" transform="translate(0)">
      <path id="Path_4939" data-name="Path 4939" d="M114.363,155.755H93.558a.449.449,0,0,1-.449-.449V142.713l10.206,8.1a1.037,1.037,0,0,0,1.29,0l10.206-8.1v12.593a.449.449,0,0,1-.449.449ZM112.8,141.661H95.122l8.839,7.019Zm1.564-2.075H93.558a2.527,2.527,0,0,0-2.524,2.524v13.2a2.527,2.527,0,0,0,2.524,2.524h20.805a2.527,2.527,0,0,0,2.524-2.524v-13.2A2.527,2.527,0,0,0,114.363,139.586Z" transform="translate(-63.657 -108.405)" fill="#fff" fill-rule="evenodd"/>
    </g>
  </g>
</svg>
