<svg xmlns="http://www.w3.org/2000/svg" width="26.443" height="24.274" viewBox="0 0 26.443 24.274">
  <g id="Group_5519" data-name="Group 5519" transform="translate(-15 -16)">
    <g id="birthday-cake-svgrepo-com" transform="translate(15 16)">
      <path id="Path_4661" data-name="Path 4661" d="M62.035,158.47a3.883,3.883,0,0,0-3.882-3.882H43.573a3.882,3.882,0,0,0-3.882,3.882v2.446H62.035V158.47Z" transform="translate(-37.641 -147.688)" fill="#ffe285"/>
      <path id="Path_4662" data-name="Path 4662" d="M42.434,285.2H39.691v-8.092H62.035V285.2H43.481" transform="translate(-37.641 -263.884)" fill="#d53349"/>
      <g id="Group_5518" data-name="Group 5518" transform="translate(6.698 0.435)">
        <path id="Path_4663" data-name="Path 4663" d="M131.092,29.425a2.516,2.516,0,0,1,1.4,2.069,1.414,1.414,0,1,1-2.8,0A2.516,2.516,0,0,1,131.092,29.425Z" transform="translate(-129.692 -29.425)" fill="#ec6907"/>
        <path id="Path_4664" data-name="Path 4664" d="M230.3,29.425a2.516,2.516,0,0,1,1.4,2.069,1.414,1.414,0,1,1-2.8,0A2.516,2.516,0,0,1,230.3,29.425Z" transform="translate(-223.774 -29.425)" fill="#ec6907"/>
        <path id="Path_4665" data-name="Path 4665" d="M329.5,29.425a2.516,2.516,0,0,1,1.4,2.069,1.414,1.414,0,1,1-2.8,0A2.516,2.516,0,0,1,329.5,29.425Z" transform="translate(-317.856 -29.425)" fill="#ec6907"/>
      </g>
      <path id="Path_4666" data-name="Path 4666" d="M13.05,433.8H33.26v2.562H7.6V433.8H12" transform="translate(-7.209 -412.475)" fill="#2ba5b1"/>
      <path id="Path_4667" data-name="Path 4667" d="M24.786,41.925V31.78A4.28,4.28,0,0,0,20.511,27.5H18.738V25.459a1.972,1.972,0,0,0,1.4-1.956,2.892,2.892,0,0,0-1.623-2.423L18.345,21l-.169.081A2.892,2.892,0,0,0,16.553,23.5a1.972,1.972,0,0,0,1.4,1.956V27.5H13.614V25.459a1.972,1.972,0,0,0,1.4-1.956,2.892,2.892,0,0,0-1.623-2.423L13.222,21l-.169.081A2.892,2.892,0,0,0,11.429,23.5a1.972,1.972,0,0,0,1.4,1.956V27.5H8.491V25.459A1.972,1.972,0,0,0,9.89,23.5a2.892,2.892,0,0,0-1.623-2.423L8.1,21l-.169.081A2.892,2.892,0,0,0,6.306,23.5a1.972,1.972,0,0,0,1.4,1.956V27.5H5.932A4.28,4.28,0,0,0,1.657,31.78V41.925H0v3.347H26.443V41.925H24.786ZM17.338,23.5a2,2,0,0,1,1.007-1.618A2,2,0,0,1,19.353,23.5a1.13,1.13,0,0,1-1.007,1.22A1.131,1.131,0,0,1,17.338,23.5Zm-5.124,0a2,2,0,0,1,1.007-1.618A2,2,0,0,1,14.229,23.5a1.13,1.13,0,0,1-1.007,1.22A1.131,1.131,0,0,1,12.215,23.5Zm-5.124,0A2,2,0,0,1,8.1,21.884,2,2,0,0,1,9.105,23.5,1.13,1.13,0,0,1,8.1,24.723,1.131,1.131,0,0,1,7.091,23.5ZM2.443,31.78a3.494,3.494,0,0,1,3.49-3.49H20.511A3.494,3.494,0,0,1,24,31.78v2.053H2.443V31.78ZM25.658,44.487H.785V42.711H4.793v-.785H2.443V34.618H24V35.4H13.222v.785H24v.785H18.345v.785H24v4.166H5.84v.785H25.658v1.777Z" transform="translate(0 -20.998)" fill="#53180f"/>
    </g>
  </g>
</svg>
