<svg xmlns="http://www.w3.org/2000/svg" width="32.68" height="34.146" viewBox="0 0 32.68 34.146">
  <g id="blood-pressure" transform="translate(-10.998)">
    <path id="Path_6570" data-name="Path 6570" d="M43.368,19.517A16.35,16.35,0,0,0,23.515.451l-8.445,5.1A16.34,16.34,0,1,0,41.222,24.956Z" fill="#49b1f7"/>
    <path id="Path_6571" data-name="Path 6571" d="M131.748,10.075a1.491,1.491,0,0,0,.932.9l.048.02,3.6-1.735a1.239,1.239,0,0,1,.48-.122l-.672-2.378a16.234,16.234,0,0,0-4.161,1.631,2.36,2.36,0,0,0-.23,1.686Z" transform="translate(-112.623 -6.307)" fill="#ffc7ab"/>
    <path id="Path_6572" data-name="Path 6572" d="M77.085,32.458c-1.7-.675-.593-2.555-.578-2.58a16.406,16.406,0,0,0-4.445,3.555,14.21,14.21,0,0,0,.808,1.395,1.239,1.239,0,0,1,.521-.473l3.822-1.84C77.167,32.493,77.123,32.473,77.085,32.458Z" transform="translate(-56.992 -27.885)" fill="#ffaa7b"/>
    <path id="Path_6573" data-name="Path 6573" d="M276.047,210.167a4.949,4.949,0,0,0-.852,2.966,2.761,2.761,0,0,0,1.366,2.04,25.669,25.669,0,0,0,10.414,3.179,6.747,6.747,0,0,0,2.417-.665,16.206,16.206,0,0,0,.536-2.019c-2.449-.525-6.421-1.531-8.653-2.921a27.784,27.784,0,0,0-4.936-2.452A2.823,2.823,0,0,1,276.047,210.167Z" transform="translate(-246.559 -196.15)" fill="#ffc7ab"/>
    <path id="Path_6574" data-name="Path 6574" d="M176.48,205.772a16.263,16.263,0,0,0,1.652-3.549,6.866,6.866,0,0,1-2.46.695,25.69,25.69,0,0,1-10.36-3.163c-2.049-1.321-1.359-3.411-.474-4.876a2.846,2.846,0,0,1-1.26-1.141l-7.156,3.445a1.239,1.239,0,0,1-.5.122,7.468,7.468,0,0,0,2.888,3.367c1.933,1.032,4.636,3.451,10,4.257C171.368,205.314,174.211,205.59,176.48,205.772Z" transform="translate(-135.258 -180.816)" fill="#ffaa7b"/>
    <path id="Path_6575" data-name="Path 6575" d="M204.7,50.886l0,0a2.124,2.124,0,0,0-1.438.934,2,2,0,0,0,.116,1.828c1.029,2.2,1.945,4.276,2,4.394a1.686,1.686,0,0,0,.908.991,2.583,2.583,0,0,0,2.19-.317c-.012-.031-.024-.062-.039-.092l-3.681-7.646C204.736,50.948,204.718,50.917,204.7,50.886Z" transform="translate(-179.28 -47.492)" fill="#3c58a0"/>
    <path id="Path_6576" data-name="Path 6576" d="M152.12,48.594s-.934-2.122-2-4.4a1.691,1.691,0,0,1,1.285-2.628,1.36,1.36,0,0,0-1.81-.634L145.93,42.7a1.36,1.36,0,0,1,1.81.634l3.681,7.646a1.36,1.36,0,0,1-.634,1.81l3.664-1.764a1.36,1.36,0,0,0,.634-1.81C152.682,50.475,152.12,48.594,152.12,48.594Z" transform="translate(-125.933 -38.077)" fill="#2a428c"/>
    <g id="Group_7175" data-name="Group 7175" transform="translate(13.785 14.623)">
      <path id="Path_6577" data-name="Path 6577" d="M61.2,235.587H56.561a3.774,3.774,0,0,1-1.168-7.362l4.94-1.607a2.573,2.573,0,0,0,1.522-3.563l-1.413-2.934a.6.6,0,1,1,1.082-.521l1.413,2.934a3.774,3.774,0,0,1-2.232,5.225l-4.94,1.607a2.573,2.573,0,0,0,.8,5.02H61.2a.6.6,0,0,1,0,1.2Z" transform="translate(-52.787 -219.259)" fill="#deeeff"/>
    </g>
    <path id="Path_6578" data-name="Path 6578" d="M88.614,74.333a.857.857,0,0,1-1.143-.4l-2-4.151a.857.857,0,0,1,.4-1.143l.713-.343-.47-.976a1.36,1.36,0,0,0-1.81-.634l-3.74,1.8a1.36,1.36,0,0,0-.634,1.81l3.681,7.646a1.36,1.36,0,0,0,1.81.634l3.74-1.8a1.36,1.36,0,0,0,.634-1.81l-.47-.976Z" transform="translate(-64.212 -62.114)" fill="#3c58a0"/>
    <path id="Path_6579" data-name="Path 6579" d="M166.557,97.527,163.752,91.7l-.713.343a.932.932,0,0,0-.434,1.241l2,4.151a.932.932,0,0,0,1.241.434Z" transform="translate(-141.41 -85.585)" fill="#6289cc"/>
    <g id="Group_7176" data-name="Group 7176" transform="translate(21.3 29.449)">
      <path id="Path_6580" data-name="Path 6580" d="M171.884,443.373h-5.513a.9.9,0,0,1,0-1.8h5.513a.9.9,0,0,1,0,1.8Z" transform="translate(-165.471 -441.572)" fill="#ff7186"/>
    </g>
    <path id="Path_6581" data-name="Path 6581" d="M313.634,332.6a4.418,4.418,0,0,0-5.932-.127.947.947,0,0,1-1.254,0c-.026-.023-.053-.044-.08-.066l0,.008a2.406,2.406,0,0,0-.659,1.541,2.042,2.042,0,0,0,.671,1.463,7.439,7.439,0,0,1,1.812,2.883,2.277,2.277,0,0,0-.316,1.879,2.93,2.93,0,0,0,1.822,1.652,16.286,16.286,0,0,1,3.049-2.163A4.419,4.419,0,0,0,313.634,332.6Z" transform="translate(-275.053 -309.292)" fill="#ff4155"/>
    <path id="Path_6582" data-name="Path 6582" d="M217.139,338.321a7.353,7.353,0,0,0-1.851-2.971,1.983,1.983,0,0,1,0-2.875,4.418,4.418,0,0,0-5.932.127l-.008.008a4.508,4.508,0,0,0,1,7.117,15.2,15.2,0,0,1,3.757,2.91,2.455,2.455,0,0,0,3.622.009c.282-.309.582-.6.895-.885C215.54,340.488,217.139,338.321,217.139,338.321Z" transform="translate(-183.893 -309.291)" fill="#e80054"/>
    <g id="Group_7177" data-name="Group 7177" transform="translate(22.305 23.432)">
      <path id="Path_6583" data-name="Path 6583" d="M188.131,358.689a.5.5,0,0,1-.483-.371l-1.218-4.555-.226.833a.5.5,0,0,1-.483.369h-4.675a.5.5,0,0,1,0-1h4.292l.612-2.257a.5.5,0,0,1,.483-.369h0a.5.5,0,0,1,.482.371l1.209,4.52.493-1.89a.5.5,0,0,1,.484-.374h1.7a.5.5,0,0,1,0,1h-1.312l-.873,3.349a.5.5,0,0,1-.482.374Z" transform="translate(-180.545 -351.339)" fill="#bec8f7"/>
    </g>
    <g id="Group_7178" data-name="Group 7178" transform="translate(32.06 23.432)">
      <path id="Path_6584" data-name="Path 6584" d="M331.364,358.064h-.01a.5.5,0,0,1-.464-.341l-1.437-4.273-.993,3.136a.5.5,0,0,1-.471.349h-.006a.5.5,0,0,1-.473-.337l-.679-1.971a.5.5,0,0,1,.946-.326l.186.541,1-3.155a.5.5,0,0,1,.472-.349h0a.5.5,0,0,1,.474.341l1.48,4.4.684-1.8a.5.5,0,0,1,.467-.322h3.494a.5.5,0,1,1,0,1H332.89l-1.058,2.777A.5.5,0,0,1,331.364,358.064Z" transform="translate(-326.803 -351.338)" fill="#deeeff"/>
    </g>
  </g>
</svg>
