<svg xmlns="http://www.w3.org/2000/svg" width="46.422" height="46.403" viewBox="0 0 46.422 46.403">
  <g id="businessman" transform="translate(-1 -1.024)">
    <g id="Group_6059" data-name="Group 6059" transform="translate(24.211 30.207)">
      <path id="Path_5282" data-name="Path 5282" d="M53.714,40H32.749a.749.749,0,0,0-.749.749V43a4.492,4.492,0,0,0,4.493,4.493h5.241v-3h3v3H49.97A4.492,4.492,0,0,0,54.463,43V40.749A.749.749,0,0,0,53.714,40Z" transform="translate(-32 -40)" fill="#92c3fe"/>
    </g>
    <path id="Path_5283" data-name="Path 5283" d="M5.379,25.847A5.224,5.224,0,0,0,1,31.018V46.678a.748.748,0,0,0,.749.749H45.924a1.5,1.5,0,0,0,1.5-1.5V30.955a1.5,1.5,0,0,0-1.5-1.5H41.433V27.212a2.249,2.249,0,0,0-2.246-2.246H31.7a2.232,2.232,0,0,0-1.635.716l-8.1-1.35V22.455a7.485,7.485,0,0,0,3.744-6.474h.749a2.246,2.246,0,0,0,0-4.493H26.1l.41-.952a6.048,6.048,0,0,0-3.047-7.9l-2.09-.952a7.675,7.675,0,0,0-7.66.831L12.53,3.4v0a4.659,4.659,0,0,0-3,6.6l.744,1.486H9.985a2.246,2.246,0,1,0,0,4.493h.749a7.485,7.485,0,0,0,3.744,6.474v1.876ZM24.96,45.93v-1.5H45.926v1.5Zm20.966-2.994H24.96V36.862a5.224,5.224,0,0,0,3.744,1.58H33.2v.75a2.246,2.246,0,0,0,4.492,0v-.75h4.493a5.223,5.223,0,0,0,3.745-1.581ZM34.694,39.192V35.448h1.5v3.745a.749.749,0,0,1-1.5,0ZM45.924,33.2a3.747,3.747,0,0,1-3.744,3.743H37.688V34.7a.748.748,0,0,0-.749-.749h-3a.748.748,0,0,0-.749.749v2.246H28.7A3.747,3.747,0,0,1,24.959,33.2V30.955H45.924ZM30.95,27.358a3.744,3.744,0,0,1,2.643,2.1H30.95Zm8.984-.147v2.246H35.194a5.244,5.244,0,0,0-2.425-3h6.418A.749.749,0,0,1,39.934,27.212ZM29.453,29.458H24.96a1.5,1.5,0,0,0-1.5,1.5V45.93H9.985V33.2h-1.5V45.93H2.5V31.018a3.732,3.732,0,0,1,3.128-3.693l9.344-1.557.9.9-.6,1.807a.748.748,0,0,0,.087.652l1.279,1.918L15.279,34.42a.748.748,0,0,0-.034.447L17.491,44.6a.749.749,0,0,0,1.459,0L21.2,34.867a.749.749,0,0,0-.034-.447l-1.351-3.378,1.279-1.918a.748.748,0,0,0,.087-.652l-.6-1.807.9-.9L29.464,27.1c0,.038-.011.074-.011.112ZM17.979,31.7h.484l1.222,3.056L18.221,41.1l-1.465-6.344Zm1.412-3.855.249.75-1.072,1.608h-.7L16.8,28.6l.249-.75.641.641a.75.75,0,0,0,1.059,0Zm7.814-14.114a.749.749,0,0,1-.748.749h-.749v-1.5h.749A.749.749,0,0,1,27.206,13.735ZM10.984,6.287A3.181,3.181,0,0,1,13.7,4.75a3.5,3.5,0,0,1,2.916,1.56l.235.353L18.1,5.832l-.234-.352a4.988,4.988,0,0,0-2.824-2.04,6.158,6.158,0,0,1,5.716-.392L22.843,4a4.552,4.552,0,0,1,2.293,5.944l-.051.118-.952-1.9a.746.746,0,0,0-.5-.394.76.76,0,0,0-.621.13l-1.2.9a5.991,5.991,0,0,1-7.189,0l-1.2-.9a.749.749,0,0,0-1.119.264l-1.015,2.03-.428-.857a3.151,3.151,0,0,1,.118-3.045Zm-1,8.2a.749.749,0,0,1,0-1.5h.749v1.5Zm2.246,1.5V11.665L13.248,9.63l.481.361a7.488,7.488,0,0,0,8.985,0l.48-.36,1.018,2.034v4.317a5.99,5.99,0,1,1-11.98,0Zm5.99,7.488a7.477,7.477,0,0,0,2.246-.345v1.533L18.221,26.9l-2.246-2.246V23.123A7.453,7.453,0,0,0,18.221,23.469Z" transform="translate(0 0)" fill="#57a4ff"/>
  </g>
</svg>
