<svg xmlns="http://www.w3.org/2000/svg" width="511.999" height="379.872" viewBox="0 0 511.999 379.872">
  <g id="Group_8213" data-name="Group 8213" transform="translate(10129 -6770.128)">
    <g id="leave_9_" data-name="leave (9)" transform="translate(-10129 6704.064)">
      <path id="Path_8892" data-name="Path 8892" d="M198.194,66.064H33.032a32.883,32.883,0,0,0-16.516,4.419L9,99.1V405.3a33.032,33.032,0,0,0,33.032,33.032H198.193l28.613-8.914a32.883,32.883,0,0,0,4.419-16.516V99.1a33.031,33.031,0,0,0-33.031-33.033Z" fill="#5d5360"/>
      <path id="Path_8893" data-name="Path 8893" d="M198.194,429.419,16.516,99.1V70.484A33.158,33.158,0,0,0,0,99.1V412.9a33.032,33.032,0,0,0,33.032,33.032H198.193a33.16,33.16,0,0,0,28.614-16.516H198.194Z" fill="#4b3f4e"/>
      <path id="Path_8894" data-name="Path 8894" d="M33.032,82.581H198.193A16.516,16.516,0,0,1,214.709,99.1V264.258a16.516,16.516,0,0,1-16.516,16.516H33.032a16.516,16.516,0,0,1-16.516-16.516V99.1A16.516,16.516,0,0,1,33.032,82.581Z" fill="#95d6a4"/>
      <path id="Path_8895" data-name="Path 8895" d="M198.194,264.258,116.5,279,33.032,264.258V132.129A33.032,33.032,0,0,1,66.064,99.1h99.1a33.032,33.032,0,0,1,33.032,33.032V264.258Z" fill="#b3e59f"/>
      <path id="Path_8896" data-name="Path 8896" d="M123.871,189.935H107.355a41.29,41.29,0,0,0-41.29,41.29V271h99.1V231.226A41.292,41.292,0,0,0,123.871,189.935Z" fill="#6f6571"/>
      <path id="Path_8897" data-name="Path 8897" d="M198.194,429.419H33.032A16.516,16.516,0,0,1,16.516,412.9V264.258H214.71V412.9a16.516,16.516,0,0,1-16.516,16.516Z" fill="#fff5d7"/>
      <path id="Path_8898" data-name="Path 8898" d="M33.032,264.258H198.193V329l-76.86,83.9H66.065a33.032,33.032,0,0,1-33.032-33.032V264.258Z" fill="#fff"/>
      <path id="Path_8899" data-name="Path 8899" d="M115.613,173.419a24.774,24.774,0,0,1-24.774-24.774v-8.258a16.516,16.516,0,0,1,16.516-16.516h16.516a16.516,16.516,0,0,1,16.516,16.516v8.258a24.774,24.774,0,0,1-24.774,24.774Z" fill="#fff5d7"/>
      <path id="Path_8900" data-name="Path 8900" d="M487.226,256H165.161a24.744,24.744,0,0,0-8.256,1.409l-8.572,23.365V395l13.333,10.667H487.225l23.365-9.28A24.73,24.73,0,0,0,512,388.129V280.774A24.773,24.773,0,0,0,487.226,256Z" fill="#f6d190"/>
      <g id="Group_8210" data-name="Group 8210">
        <path id="Path_8906" data-name="Path 8906" d="M107.355,322.065H57.806a8.258,8.258,0,1,1,0-16.516h49.548a8.258,8.258,0,0,1,0,16.516Z" fill="#ecbd83"/>
      </g>
      <g id="Group_8211" data-name="Group 8211">
        <path id="Path_8907" data-name="Path 8907" d="M107.355,355.1H57.806a8.258,8.258,0,1,1,0-16.516h49.548a8.258,8.258,0,0,1,0,16.516Z" fill="#ecbd83"/>
      </g>
      <g id="Group_8212" data-name="Group 8212">
        <path id="Path_8908" data-name="Path 8908" d="M82.581,388.129H57.806a8.258,8.258,0,1,1,0-16.516H82.58a8.258,8.258,0,0,1,0,16.516Z" fill="#ecbd83"/>
      </g>
      <path id="Path_8909" data-name="Path 8909" d="M156.9,371.613V257.406a24.846,24.846,0,0,0-16.516,23.368v99.1l-23.148,23.149a5.79,5.79,0,0,0,4.094,9.884H487.226a24.843,24.843,0,0,0,23.366-16.516H181.677A24.774,24.774,0,0,1,156.9,371.613Z" fill="#ecbd83"/>
      <text id="C-OFF_Balance" data-name="C-OFF Balance" transform="translate(162 341.936)" fill="#fff" stroke="rgba(255,255,255,0)" stroke-width="1" font-size="43" font-family="Tahoma-Bold, Tahoma" font-weight="700"><tspan x="0" y="0">C-OFF BALANCE</tspan></text>
    </g>
  </g>
</svg>
