<svg xmlns="http://www.w3.org/2000/svg" width="21.377" height="21.376" viewBox="0 0 21.377 21.376">
  <g id="Calendar" transform="translate(-2 -2)">
    <path id="Path_33701" data-name="Path 33701" d="M21.595,4.138H19.813V3.425a1.425,1.425,0,1,0-2.85,0v.713h-2.85V3.425a1.425,1.425,0,0,0-2.85,0v.713H8.413V3.425a1.425,1.425,0,0,0-2.85,0v.713H3.781A1.781,1.781,0,0,0,2,5.919V20.17a1.781,1.781,0,0,0,1.781,1.781h9.975a.356.356,0,0,0,0-.713H3.781A1.072,1.072,0,0,1,2.713,20.17V9.125H22.663v6.057a.356.356,0,1,0,.713,0V5.919A1.781,1.781,0,0,0,21.595,4.138Zm-3.919-.713a.713.713,0,1,1,1.425,0V5.563a.713.713,0,1,1-1.425,0Zm-5.7,0a.713.713,0,1,1,1.425,0V5.563a.713.713,0,1,1-1.425,0Zm-5.7,0a.713.713,0,1,1,1.425,0V5.563a.713.713,0,1,1-1.425,0ZM22.663,8.413H2.713V5.919A1.072,1.072,0,0,1,3.781,4.85H5.563v.713a1.425,1.425,0,1,0,2.85,0V4.85h2.85v.713a1.425,1.425,0,1,0,2.85,0V4.85h2.85v.713a1.425,1.425,0,1,0,2.85,0V4.85h1.781a1.072,1.072,0,0,1,1.069,1.069Z" transform="translate(0 0)"/>
    <path id="Path_33702" data-name="Path 33702" d="M24.85,27.713A.713.713,0,0,0,24.138,27H22.713a.713.713,0,0,0-.713.713v1.069a.713.713,0,0,0,.713.713h1.425a.713.713,0,0,0,.713-.713Zm-2.138,1.069V27.713h1.425v1.069Z" transform="translate(-12.875 -16.093)"/>
    <path id="Path_33703" data-name="Path 33703" d="M12.85,27.713A.713.713,0,0,0,12.138,27H10.713a.713.713,0,0,0-.713.713v1.069a.713.713,0,0,0,.713.713h1.425a.713.713,0,0,0,.713-.713Zm-2.138,1.069V27.713h1.425v1.069Z" transform="translate(-5.15 -16.093)"/>
    <path id="Path_33704" data-name="Path 33704" d="M48.138,29.494a.713.713,0,0,0,.713-.713V27.713A.713.713,0,0,0,48.138,27H46.713a.713.713,0,0,0-.713.713v1.069a.713.713,0,0,0,.713.713Zm-1.425-1.781h1.425v1.069H46.713Z" transform="translate(-28.324 -16.093)"/>
    <path id="Path_33705" data-name="Path 33705" d="M24.85,36.713A.713.713,0,0,0,24.138,36H22.713a.713.713,0,0,0-.713.713v1.069a.713.713,0,0,0,.713.713h1.425a.713.713,0,0,0,.713-.713Zm-2.138,1.069V36.713h1.425v1.069Z" transform="translate(-12.875 -21.887)"/>
    <path id="Path_33706" data-name="Path 33706" d="M12.85,36.713A.713.713,0,0,0,12.138,36H10.713a.713.713,0,0,0-.713.713v1.069a.713.713,0,0,0,.713.713h1.425a.713.713,0,0,0,.713-.713Zm-2.138,1.069V36.713h1.425v1.069Z" transform="translate(-5.15 -21.887)"/>
    <path id="Path_33707" data-name="Path 33707" d="M24.138,45H22.713a.713.713,0,0,0-.713.713v1.069a.713.713,0,0,0,.713.713h1.425a.713.713,0,0,0,.713-.713V45.713A.713.713,0,0,0,24.138,45Zm-1.425,1.781V45.713h1.425v1.069Z" transform="translate(-12.875 -27.681)"/>
    <path id="Path_33708" data-name="Path 33708" d="M34.713,29.494h1.425a.713.713,0,0,0,.713-.713V27.713A.713.713,0,0,0,36.138,27H34.713a.713.713,0,0,0-.713.713v1.069A.713.713,0,0,0,34.713,29.494Zm0-1.781h1.425v1.069H34.713Z" transform="translate(-20.599 -16.093)"/>
    <path id="Path_33709" data-name="Path 33709" d="M34,37.781a.713.713,0,0,0,.713.713.356.356,0,0,0,0-.713V36.713h1.425a.356.356,0,0,0,0-.713H34.713a.713.713,0,0,0-.713.713Z" transform="translate(-20.599 -21.887)"/>
    <path id="Path_33710" data-name="Path 33710" d="M12.138,45H10.713a.713.713,0,0,0-.713.713v1.069a.713.713,0,0,0,.713.713h1.425a.713.713,0,0,0,.713-.713V45.713A.713.713,0,0,0,12.138,45Zm-1.425,1.781V45.713h1.425v1.069Z" transform="translate(-5.15 -27.681)"/>
    <path id="Path_33711" data-name="Path 33711" d="M40.631,36a4.631,4.631,0,1,0,4.631,4.631A4.631,4.631,0,0,0,40.631,36Zm0,8.55a3.919,3.919,0,1,1,3.919-3.919A3.919,3.919,0,0,1,40.631,44.55Z" transform="translate(-21.887 -21.887)"/>
    <path id="Path_33712" data-name="Path 33712" d="M46.4,44.619,43.626,47.39l-1.259-1.26a.356.356,0,1,0-.5.5l1.511,1.512a.356.356,0,0,0,.5,0L46.9,45.123a.356.356,0,1,0-.5-.5Z" transform="translate(-25.594 -27.368)"/>
  </g>
</svg>
