<svg xmlns="http://www.w3.org/2000/svg" width="24.928" height="23.267" viewBox="0 0 24.928 23.267">
  <g id="_x31_4_comment" transform="translate(-1 -2)">
    <g id="Group_6084" data-name="Group 6084" transform="translate(1 2)">
      <path id="Path_5301" data-name="Path 5301" d="M6.817,25.267a.831.831,0,0,1-.831-.831V20.281H3.493A2.5,2.5,0,0,1,1,17.788V4.493A2.5,2.5,0,0,1,3.493,2H23.436a2.5,2.5,0,0,1,2.493,2.493v13.3a2.5,2.5,0,0,1-2.493,2.493H13.34l-6,4.8A.829.829,0,0,1,6.817,25.267ZM3.493,3.662a.832.832,0,0,0-.831.831v13.3a.832.832,0,0,0,.831.831H6.817a.83.83,0,0,1,.831.831v3.257L12.529,18.8a.83.83,0,0,1,.519-.182H23.436a.832.832,0,0,0,.831-.831V4.493a.832.832,0,0,0-.831-.831Z" transform="translate(-1 -2)" fill="#fff"/>
    </g>
    <g id="Group_6085" data-name="Group 6085" transform="translate(5.986 8.648)">
      <path id="Path_5302" data-name="Path 5302" d="M21.126,11.662H7.831a.831.831,0,1,1,0-1.662h13.3a.831.831,0,0,1,0,1.662Z" transform="translate(-7 -10)" fill="#fff"/>
    </g>
    <g id="Group_6086" data-name="Group 6086" transform="translate(5.986 11.971)">
      <path id="Path_5303" data-name="Path 5303" d="M14.479,15.662H7.831a.831.831,0,1,1,0-1.662h6.648a.831.831,0,0,1,0,1.662Z" transform="translate(-7 -14)" fill="#fff"/>
    </g>
  </g>
</svg>
