<svg xmlns="http://www.w3.org/2000/svg" width="28.466" height="28.98" viewBox="0 0 28.466 28.98">
  <g id="chat_4_" data-name="chat (4)" transform="translate(0.25 0.25)">
    <g id="Group_7157" data-name="Group 7157" transform="translate(0)">
      <g id="Group_7156" data-name="Group 7156" transform="translate(0)">
        <path id="Path_6551" data-name="Path 6551" d="M17.414,0c-.008.008-.023.008-.046.008A13.971,13.971,0,0,0,6.411,22.685L4.373,27.416a.759.759,0,0,0,.4,1,.776.776,0,0,0,.435.053l7.47-1.312a13.462,13.462,0,0,0,4.655.809A13.983,13.983,0,0,0,17.414,0Zm-.076,26.447a12.249,12.249,0,0,1-4.311-.786.732.732,0,0,0-.4-.038l-6.288,1.1L8,22.853a.767.767,0,0,0-.122-.8,12.2,12.2,0,0,1-2.121-3.525,12.458,12.458,0,1,1,24.059-4.609v.046A12.492,12.492,0,0,1,17.337,26.447Z" transform="translate(-3.366)" fill="#707070" stroke="#707070" stroke-width="0.5"/>
      </g>
    </g>
    <g id="Group_7159" data-name="Group 7159" transform="translate(8.493 11.194)">
      <g id="Group_7158" data-name="Group 7158">
        <path id="Path_6552" data-name="Path 6552" d="M119.55,146.7h-4.12a.763.763,0,0,0,0,1.526h4.12a.763.763,0,0,0,0-1.526Z" transform="translate(-114.666 -146.7)" fill="#707070" stroke="#707070" stroke-width="0.5"/>
      </g>
    </g>
    <g id="Group_7161" data-name="Group 7161" transform="translate(8.493 15.009)">
      <g id="Group_7160" data-name="Group 7160">
        <path id="Path_6553" data-name="Path 6553" d="M124.891,196.7h-9.462a.763.763,0,0,0,0,1.526h9.462a.763.763,0,1,0,0-1.526Z" transform="translate(-114.666 -196.7)" fill="#707070" stroke="#707070" stroke-width="0.5"/>
      </g>
    </g>
  </g>
</svg>
