<svg xmlns="http://www.w3.org/2000/svg" width="11.375" height="13" viewBox="0 0 11.375 13">
  <g id="Group_14109" data-name="Group 14109" transform="translate(-29 -819)">
    <g id="document" transform="translate(28 819)">
      <path id="Path_30459" data-name="Path 30459" d="M5.469,12.188H2.219a.406.406,0,0,1-.406-.406V1.219A.406.406,0,0,1,2.219.813H6.688V2.844A1.22,1.22,0,0,0,7.906,4.063H9.937v.406a.406.406,0,1,0,.812,0V3.993a1.214,1.214,0,0,0-.357-.862L7.619.357A1.211,1.211,0,0,0,6.757,0H2.219A1.22,1.22,0,0,0,1,1.219V11.781A1.22,1.22,0,0,0,2.219,13h3.25a.406.406,0,0,0,0-.812ZM9.363,3.25H7.906A.406.406,0,0,1,7.5,2.844V1.387Z" fill="#707070"/>
      <path id="Path_30460" data-name="Path 30460" d="M9.656,7a3.656,3.656,0,1,0,3.656,3.656A3.661,3.661,0,0,0,9.656,7Zm0,6.5A2.844,2.844,0,1,1,12.5,10.656,2.847,2.847,0,0,1,9.656,13.5Z" transform="translate(-0.938 -1.313)" fill="#707070"/>
      <path id="Path_30461" data-name="Path 30461" d="M11.578,9.7A.407.407,0,0,0,11,9.7l-.862.862L9.279,9.7a.406.406,0,1,0-.574.574l.862.862L8.7,12a.406.406,0,0,0,.575.574l.862-.862.862.862A.406.406,0,1,0,11.579,12l-.864-.862.862-.862a.407.407,0,0,0,0-.574Z" transform="translate(-1.422 -1.797)" fill="#707070"/>
    </g>
    <line id="Line_261" data-name="Line 261" x2="4" transform="translate(30.5 823.5)" fill="none" stroke="#707070" stroke-width="0.5"/>
    <line id="Line_262" data-name="Line 262" x2="3" transform="translate(30.5 824.5)" fill="none" stroke="#707070" stroke-width="0.5"/>
    <line id="Line_263" data-name="Line 263" x2="2" transform="translate(30.5 825.5)" fill="none" stroke="#707070" stroke-width="0.5"/>
  </g>
</svg>
