<svg xmlns="http://www.w3.org/2000/svg" width="21" height="21" viewBox="0 0 21 21">
  <path id="phone_5_" data-name="phone (5)" d="M10.749.5A10.5,10.5,0,1,1,.249,11,10.5,10.5,0,0,1,10.749.5Zm3.318,4.04a3.142,3.142,0,1,0,3.142,3.142A3.142,3.142,0,0,0,14.067,4.54ZM12.342,16.409a3.641,3.641,0,0,0,3.6-.531l-3.168-1.426-.133.14a.4.4,0,0,1-.354.121,6.859,6.859,0,0,1-3.206-2.049A6.859,6.859,0,0,1,7.036,9.458.4.4,0,0,1,7.157,9.1l.14-.133L5.871,5.8a3.641,3.641,0,0,0-.531,3.6,10.808,10.808,0,0,0,2.742,4.26,10.8,10.8,0,0,0,4.26,2.742Zm4.3-.1a4.224,4.224,0,0,0,.566-1.755.82.82,0,0,0-.475-.825l-2.5-1.164a.817.817,0,0,0-.95.18l-1.067,1.122a7.077,7.077,0,0,1-2.56-1.778,7.073,7.073,0,0,1-1.778-2.56L9,8.465a.817.817,0,0,0,.18-.95l-1.165-2.5a.82.82,0,0,0-.825-.475,4.216,4.216,0,0,0-1.755.566.4.4,0,0,0-.089.07A3.742,3.742,0,0,0,4.335,7.268a5.442,5.442,0,0,0,.233,2.377,11.613,11.613,0,0,0,2.943,4.594A11.621,11.621,0,0,0,12.1,17.181a5.916,5.916,0,0,0,1.732.279,4.445,4.445,0,0,0,.645-.046A3.744,3.744,0,0,0,16.57,16.4a.4.4,0,0,0,.07-.089ZM14.067,5.878a.4.4,0,0,0-.4.4v1h-1a.4.4,0,1,0,0,.807h1v1a.4.4,0,1,0,.807,0v-1h1a.4.4,0,1,0,0-.807h-1v-1a.4.4,0,0,0-.4-.4Z" transform="translate(-0.249 -0.5)" fill="#37b678" fill-rule="evenodd"/>
</svg>
