<svg xmlns="http://www.w3.org/2000/svg" width="12.667" height="12.878" viewBox="0 0 12.667 12.878">
  <path id="contractor" d="M19.045,19.751h3.077v-1.18l-.379.175a.476.476,0,0,1-.665-.336l-.293-1.442a3.525,3.525,0,0,0-1.922,2.568A.184.184,0,0,0,19.045,19.751Zm4.428-2.9-.756,1.33.383.177a.053.053,0,0,0,.074-.037Zm-1.524,1.33-.383.177a.053.053,0,0,1-.074-.037l-.3-1.47Zm1.133-1.5-.749,1.319-.749-1.319a3.553,3.553,0,0,1,1.5,0ZM24,15.247a1.78,1.78,0,0,1-3.331,0Zm-3.585-.937a.257.257,0,0,0,0,.515h3.839a.257.257,0,0,0,0-.515Zm1.243,5.842a.211.211,0,0,1,.3.3L20.666,21.74a.211.211,0,1,1-.3-.3Zm1.056.3a.211.211,0,1,1,.3-.3L24.3,21.442a.211.211,0,1,1-.3.3Zm3.844.2a2.111,2.111,0,1,1-2.111,2.111A2.111,2.111,0,0,1,26.556,20.65Zm0,1.368a.743.743,0,1,0,.743.743A.743.743,0,0,0,26.556,22.018Zm.313-.57-.1-.261h-.426l-.1.261a1.343,1.343,0,0,0-.393.163l-.256-.113-.3.3.113.255a1.343,1.343,0,0,0-.163.393l-.261.1v.426l.261.1a1.342,1.342,0,0,0,.163.393l-.113.255.3.3.256-.113a1.343,1.343,0,0,0,.393.163l.1.261h.426l.1-.261a1.343,1.343,0,0,0,.393-.163l.255.113.3-.3-.113-.256a1.342,1.342,0,0,0,.163-.393l.261-.1v-.426l-.261-.1a1.343,1.343,0,0,0-.163-.393l.113-.255-.3-.3-.256.113a1.343,1.343,0,0,0-.393-.163Zm-8.758-.8A2.111,2.111,0,1,1,16,22.761,2.111,2.111,0,0,1,18.111,20.65Zm0,1.368a.743.743,0,1,0,.743.743A.743.743,0,0,0,18.111,22.018Zm.313-.57-.1-.261H17.9l-.1.261a1.343,1.343,0,0,0-.393.163l-.256-.113-.3.3.113.255a1.343,1.343,0,0,0-.163.393l-.261.1v.426l.261.1a1.342,1.342,0,0,0,.163.393l-.113.255.3.3.256-.113a1.343,1.343,0,0,0,.393.163l.1.261h.426l.1-.261a1.343,1.343,0,0,0,.393-.163l.255.113.3-.3-.113-.256a1.342,1.342,0,0,0,.163-.393l.261-.1v-.426l-.261-.1a1.342,1.342,0,0,0-.163-.393l.113-.255-.3-.3-.256.113A1.342,1.342,0,0,0,18.424,21.448Zm5.762-7.56a1.874,1.874,0,0,0-.876-1.323l-.076.588a.21.21,0,0,1-.417-.053l.093-.719c.028-.295-.334-.387-.577-.387s-.605.092-.577.387l.093.719a.21.21,0,0,1-.417.053l-.076-.588a1.874,1.874,0,0,0-.876,1.323h.539v-.515a.211.211,0,1,1,.422,0v.515h1.785v-.515a.211.211,0,1,1,.422,0v.515Zm-1.642,5.863v-1.18l.379.175a.476.476,0,0,0,.665-.336l.293-1.442A3.525,3.525,0,0,1,25.8,19.535a.184.184,0,0,1-.182.216Z" transform="translate(-16 -11.994)" fill="#fff" fill-rule="evenodd"/>
</svg>
