<svg xmlns="http://www.w3.org/2000/svg" width="45.656" height="31.035" viewBox="0 0 45.656 31.035">
  <path id="driving-license-icon" d="M38.49,17.8a6.62,6.62,0,1,1-6.567,6.673A6.62,6.62,0,0,1,38.49,17.8ZM4.854,3.765H40.8a.571.571,0,0,1,.569.57V7.38a.57.57,0,0,1-.569.569H4.854a.57.57,0,0,1-.569-.569V4.335A.571.571,0,0,1,4.854,3.765ZM2.425,0H43.231a2.43,2.43,0,0,1,2.425,2.425V20.386a8.183,8.183,0,0,0-1.379-1.8l-.035-.033V2.425a1.017,1.017,0,0,0-1.01-1.01H2.425a1.007,1.007,0,0,0-.712.294l0,0a1.007,1.007,0,0,0-.294.712V25.846a1.015,1.015,0,0,0,1.01,1.01H30.74a8.111,8.111,0,0,0,.593,1.414H2.425A2.43,2.43,0,0,1,0,25.846V2.425A2.417,2.417,0,0,1,.712.715l0,0A2.418,2.418,0,0,1,2.425,0Zm10.3,18.274c.72.621,2.775.435,3.544.863a2.033,2.033,0,0,1,.644.546,3.024,3.024,0,0,1,.643,1.505.711.711,0,0,1-.744.7H4.711a.711.711,0,0,1-.744-.7,3.024,3.024,0,0,1,.643-1.505,2.012,2.012,0,0,1,.644-.546c.756-.422,2.758-.238,3.507-.833a8.474,8.474,0,0,0,.3-.812l.03-.091c.084-.25-.411-.738-.576-1L7.9,15.424a1.776,1.776,0,0,1-.348-.892.7.7,0,0,1,.06-.319.594.594,0,0,1,.211-.245.769.769,0,0,1,.148-.076A11.274,11.274,0,0,1,7.945,12.4a2.315,2.315,0,0,1,.076-.4,2.574,2.574,0,0,1,1.7-1.653c.383-.132.235-.447.622-.425a4.972,4.972,0,0,1,2.872,1.266c.761.877.564,1.692.539,2.763a.446.446,0,0,1,.324.334,1.381,1.381,0,0,1-.168.839h0a.214.214,0,0,1-.01.021L13.2,16.3a5.72,5.72,0,0,1-.909,1.231l-.054.049c.054.074.115.165.181.261.1.14.2.293.3.433Zm6.758-6.205c-.325,0-.589-.352-.589-.786s.264-.786.589-.786H31.156c.325,0,.589.352.589.786s-.264.786-.589.786Zm0,8.928c-.325,0-.589-.351-.589-.786s.264-.786.589-.786H32.067A8.137,8.137,0,0,0,31.116,21Zm0-4.464c-.325,0-.589-.352-.589-.786s.264-.786.589-.786H37.063c.325,0,.589.352.589.786s-.264.786-.589.786Zm19.032,7.9a.342.342,0,1,1-.241.1.343.343,0,0,1,.241-.1Zm0-.9a1.236,1.236,0,1,1-1.225,1.246A1.235,1.235,0,0,1,38.509,23.537Zm-5.009-.9A5.33,5.33,0,0,1,36.16,19.6a5.248,5.248,0,0,1,5.464.4,5.4,5.4,0,0,1,1.923,2.458c.394.97.079,1.289-1.165.753a8.58,8.58,0,0,0-7.769.062C33.652,23.913,33.106,23.39,33.5,22.639Zm6.641,6.894a5.4,5.4,0,0,0,3.451-3.185.775.775,0,0,0-1.355-.753,4.28,4.28,0,0,1-1.019,1.383c-.663.573-1.63.684-1.772,1.756C39.372,29.29,39.5,29.788,40.141,29.532Zm-3.086.024a5.4,5.4,0,0,1-3.5-3.129.775.775,0,0,1,1.343-.776,4.3,4.3,0,0,0,1.041,1.368c.672.562,1.641.658,1.8,1.726C37.819,29.3,37.7,29.8,37.055,29.557Z" fill="#fff" fill-rule="evenodd"/>
</svg>
