<svg xmlns="http://www.w3.org/2000/svg" width="37.449" height="24.161" viewBox="0 0 37.449 24.161">
  <g id="Group_14196" data-name="Group 14196" transform="translate(-21831 -253.919)">
    <g id="Page-1" transform="translate(21831 253.919)">
      <g id="Logo" transform="translate(0 0)">
        <g id="Aadhaar-English-Logo" transform="translate(0 0)">
          <g id="English-Logo" transform="translate(0 0)">
            <path id="Fill-28" d="M0,18.733a2.682,2.682,0,0,0,.835-.761,7.055,7.055,0,0,1,.973-1.032,3.646,3.646,0,0,1,1.78-.821,15.449,15.449,0,0,0-.225,2.614ZM2.508,9.367h0a2.684,2.684,0,0,0,1.1-.241,7.061,7.061,0,0,1,1.358-.408A3.642,3.642,0,0,1,6.933,8.9,15.364,15.364,0,0,0,4.31,13.427a3.649,3.649,0,0,1-1.132-1.6,7.054,7.054,0,0,1-.326-1.38A2.683,2.683,0,0,0,2.508,9.367ZM9.362,2.51h0a2.681,2.681,0,0,0,1.077.344,7.042,7.042,0,0,1,1.38.326A3.642,3.642,0,0,1,13.427,4.32,15.345,15.345,0,0,0,8.9,6.938a3.644,3.644,0,0,1-.184-1.966,7.045,7.045,0,0,1,.407-1.359A2.68,2.68,0,0,0,9.362,2.51ZM18.725,0h0a2.674,2.674,0,0,0,.76.836,7.072,7.072,0,0,1,1.032.973,3.646,3.646,0,0,1,.823,1.8,15.462,15.462,0,0,0-5.231,0,3.645,3.645,0,0,1,.823-1.8A7.074,7.074,0,0,1,17.964.836,2.675,2.675,0,0,0,18.725,0Zm9.362,2.51h0a2.681,2.681,0,0,0,.241,1.1,7.069,7.069,0,0,1,.407,1.359,3.649,3.649,0,0,1-.184,1.965A15.353,15.353,0,0,0,24.023,4.32a3.642,3.642,0,0,1,1.608-1.14,7.036,7.036,0,0,1,1.38-.327A2.675,2.675,0,0,0,28.087,2.51Zm6.854,6.857h0a2.685,2.685,0,0,0-.343,1.077,7.062,7.062,0,0,1-.326,1.38,3.648,3.648,0,0,1-1.132,1.6A15.356,15.356,0,0,0,30.517,8.9a3.643,3.643,0,0,1,1.963-.184,7.056,7.056,0,0,1,1.358.408A2.678,2.678,0,0,0,34.941,9.366Zm-1.08,6.752a3.648,3.648,0,0,1,1.781.822,7.046,7.046,0,0,1,.973,1.032,2.679,2.679,0,0,0,.835.761H34.087A15.468,15.468,0,0,0,33.862,16.119ZM23.189,5.27a14.241,14.241,0,0,1,9.763,13.464h-2.8A14.917,14.917,0,0,0,23.189,5.27Z" transform="translate(0 0)" fill="#fff" fill-rule="evenodd"/>
            <path id="Fill-29" d="M28.38,23.921h1.454a15.393,15.393,0,0,0-.576-5.088,9.108,9.108,0,0,0-.347-.935,7.993,7.993,0,0,0-1.222-1.937,8.4,8.4,0,0,0-1.951-1.712,7.326,7.326,0,0,0-.68-.378h0a6.86,6.86,0,0,0-.72-.3h0a9.892,9.892,0,0,0-8.1,1.017c-.468.255-.919.532-1.348.823s-.837.6-1.222.908h0a16.631,16.631,0,0,0-1.591,1.475c-.111.118-.221.238-.328.359-.286.324-.726.778-.6,1.248.1.373.584.263.752.134a4.885,4.885,0,0,0,.78-.561c.327-.277.636-.575.959-.856a16.168,16.168,0,0,1,4.018-2.6q.44-.194.879-.348t.868-.266h0a6.691,6.691,0,0,1,6.959,1.812C28.049,18.675,28.355,21.306,28.38,23.921ZM10.34,21.7a4.972,4.972,0,0,0,.481-.547.762.762,0,0,0,.164-.786.541.541,0,0,0-.146-.194.5.5,0,0,0-.21-.1.611.611,0,0,0-.607.258,2.66,2.66,0,0,0-.579,1.116.821.821,0,0,0-.007.216.532.532,0,0,0,.055.187h0a.267.267,0,0,0,.242.148.5.5,0,0,0,.074,0,.673.673,0,0,0,.084-.015h0A1.053,1.053,0,0,0,10.34,21.7Zm15.082,2.222h1.442a9.967,9.967,0,0,0-1-4.985,4.6,4.6,0,0,0-3.451-2.554,9.128,9.128,0,0,0-6.438,1.984,24.332,24.332,0,0,0-5.321,5.555l1.9,0c1.715-2.432,5.659-6.123,8.561-6.148a3.737,3.737,0,0,1,2.56.83,3.092,3.092,0,0,1,1.084,2.031c-.018.42-.39.549-.748.419a1.591,1.591,0,0,1-.668-.622,2.784,2.784,0,0,0-2.7-1.144,8.672,8.672,0,0,0-3.915,2.087,24.989,24.989,0,0,0-2.473,2.549h2.048a10.5,10.5,0,0,1,2.562-2.314,5.735,5.735,0,0,1,1.137-.557c1.053-.362,2.1-.27,2.566,1.041a4.12,4.12,0,0,1,.156,1.8v.034h1.393l0-.042c0-.454-.009-.76.032-1.209.035-.388.156-.789.516-.837C25.444,21.672,25.407,23.374,25.422,23.921Zm-9.816,4.4H14.474l-.28.986h-.9l1.193-3.777h1.143l1.227,3.777h-.941Zm-1-.639h.868q-.342-1.107-.443-1.519h-.011l-.179.717Zm-3.154.639H10.318l-.28.986h-.9l1.193-3.777h1.143L12.7,29.31h-.941Zm-1-.639h.868q-.341-1.107-.442-1.519h-.011l-.179.717Zm7.271,1.609v-3.71a8.113,8.113,0,0,1,1.2-.084A2.447,2.447,0,0,1,20.65,26a1.753,1.753,0,0,1,.525,1.322,1.89,1.89,0,0,1-.6,1.494,2.725,2.725,0,0,1-1.845.529A8.057,8.057,0,0,1,17.718,29.293Zm.868-3.094v2.46a1.772,1.772,0,0,0,.314.017,1.388,1.388,0,0,0,1-.341,1.29,1.29,0,0,0,.354-.976,1.164,1.164,0,0,0-.323-.888A1.307,1.307,0,0,0,19,26.166,2.076,2.076,0,0,0,18.586,26.2Zm3.518-.667h.868v1.451h1.485V25.532h.868V29.31h-.868V27.735H22.972V29.31H22.1Zm6.369,2.791H27.341l-.28.986h-.9l1.193-3.777H28.5l1.227,3.777h-.941Zm-1-.639h.868Q28,26.578,27.9,26.166h-.011l-.179.717Zm5.159.639H31.5l-.28.986h-.9l1.193-3.777h1.143l1.227,3.777h-.941Zm-1-.639h.868q-.342-1.107-.443-1.519h-.011l-.179.717Zm3.114,1.625V25.583a6.9,6.9,0,0,1,1.171-.084,2.081,2.081,0,0,1,1.233.283.953.953,0,0,1,.375.81.924.924,0,0,1-.189.567,1.008,1.008,0,0,1-.489.358v.022a.935.935,0,0,1,.51.695q.288,1.015.314,1.076H36.78a4.352,4.352,0,0,1-.269-.88.99.99,0,0,0-.213-.471.591.591,0,0,0-.432-.135H35.6V29.31Zm.857-3.144V27.2h.359a.81.81,0,0,0,.513-.148.477.477,0,0,0,.188-.4.466.466,0,0,0-.169-.386.751.751,0,0,0-.481-.136A1.9,1.9,0,0,0,35.6,26.166ZM20.224,23.925l1.156,0c.152-.977-.145-1.728-1.133-1.549a5.008,5.008,0,0,0-2.266,1.549l1.524-.007c.17-.112.5-.239.639-.144A.185.185,0,0,1,20.224,23.925Zm11.793,0h.016A.643.643,0,0,0,32.6,23.6a.782.782,0,0,0,.076-.177,1.057,1.057,0,0,0,.04-.231h0v-.018A13.419,13.419,0,0,0,29.5,13.52a10.31,10.31,0,0,0-1.319-1.2,9.943,9.943,0,0,0-1.492-.941h0l-.008,0h0a10.632,10.632,0,0,0-5.731-1.082,11.365,11.365,0,0,0-2.261.425l-.005,0a12.839,12.839,0,0,0-5.433,3.342q-.448.455-.853.95-.2.245-.391.5a19.125,19.125,0,0,1,3.433-2.387q.407-.218.819-.409t.833-.355h0a12.577,12.577,0,0,1,3.166-.8,11.711,11.711,0,0,1,3.169.08,9.607,9.607,0,0,1,2.169.6c.13.054.257.111.382.172s.244.123.363.19h0a10.539,10.539,0,0,1,4.7,6.916,14.891,14.891,0,0,1,.414,3.584h0v.035a.871.871,0,0,0,.312.716.431.431,0,0,0,.114.052h0A.463.463,0,0,0,32.017,23.922Z" transform="translate(-4.623 -5.188)" fill="#fff" fill-rule="evenodd"/>
          </g>
        </g>
      </g>
    </g>
  </g>
</svg>
