<svg xmlns="http://www.w3.org/2000/svg" width="30.004" height="20.396" viewBox="0 0 30.004 20.396">
  <path id="driving-license-icon" d="M25.295,11.7a4.35,4.35,0,1,1-4.315,4.385A4.351,4.351,0,0,1,25.295,11.7ZM3.19,2.474H26.814a.375.375,0,0,1,.374.374v2a.375.375,0,0,1-.374.374H3.19a.375.375,0,0,1-.374-.374v-2A.375.375,0,0,1,3.19,2.474ZM1.593,0H28.411A1.6,1.6,0,0,1,30,1.593V13.4a5.377,5.377,0,0,0-.907-1.181l-.023-.022V1.593a.668.668,0,0,0-.664-.664H1.593a.662.662,0,0,0-.468.193l0,0a.662.662,0,0,0-.193.468V16.986a.667.667,0,0,0,.664.664H20.2a5.33,5.33,0,0,0,.39.929h-19A1.6,1.6,0,0,1,0,16.986V1.593A1.589,1.589,0,0,1,.468.47l0,0A1.589,1.589,0,0,1,1.593,0ZM8.361,12.009c.473.408,1.824.286,2.329.567a1.336,1.336,0,0,1,.423.359,1.987,1.987,0,0,1,.423.989.467.467,0,0,1-.489.457H3.1a.467.467,0,0,1-.489-.457,1.987,1.987,0,0,1,.423-.989,1.322,1.322,0,0,1,.423-.359c.5-.277,1.813-.156,2.3-.547a5.569,5.569,0,0,0,.2-.534l.02-.06c.055-.164-.27-.485-.379-.658l-.4-.642a1.167,1.167,0,0,1-.229-.586A.461.461,0,0,1,5,9.34a.39.39,0,0,1,.139-.161.505.505,0,0,1,.1-.05,7.409,7.409,0,0,1-.019-.979,1.521,1.521,0,0,1,.05-.261A1.692,1.692,0,0,1,6.39,6.8c.251-.087.154-.294.408-.28a3.267,3.267,0,0,1,1.888.832c.5.576.371,1.112.354,1.815a.293.293,0,0,1,.213.22.908.908,0,0,1-.11.551h0a.141.141,0,0,1-.006.013l-.459.757a3.759,3.759,0,0,1-.6.809l-.036.032c.035.049.076.108.119.172.063.092.131.193.2.285ZM12.8,7.931c-.214,0-.387-.231-.387-.516s.173-.517.387-.517h7.673c.214,0,.387.231.387.517s-.173.516-.387.516Zm0,5.867c-.214,0-.387-.231-.387-.516s.173-.516.387-.516h8.271a5.348,5.348,0,0,0-.625,1.033Zm0-2.934c-.214,0-.387-.231-.387-.516s.173-.517.387-.517H24.357c.214,0,.387.231.387.517s-.173.516-.387.516ZM25.31,16.057a.225.225,0,1,1-.159.067.226.226,0,0,1,.159-.067Zm0-.589a.812.812,0,1,1-.805.819A.812.812,0,0,1,25.308,15.468Zm-3.292-.59a3.5,3.5,0,0,1,1.747-2,3.449,3.449,0,0,1,3.591.265,3.548,3.548,0,0,1,1.263,1.615c.259.638.052.847-.765.495a5.639,5.639,0,0,0-5.106.04C22.116,15.715,21.757,15.372,22.016,14.878Zm4.364,4.53a3.547,3.547,0,0,0,2.268-2.093.509.509,0,0,0-.89-.5,2.813,2.813,0,0,1-.67.909c-.435.377-1.071.449-1.164,1.154-.049.366.038.693.457.526Zm-2.028.016a3.548,3.548,0,0,1-2.3-2.056.51.51,0,0,1,.883-.51,2.824,2.824,0,0,0,.684.9c.442.369,1.078.432,1.183,1.135C24.854,19.257,24.774,19.586,24.352,19.424Z" fill="#fff" fill-rule="evenodd"/>
</svg>
