<svg id="_x35_0" xmlns="http://www.w3.org/2000/svg" width="23.373" height="25.7" viewBox="0 0 23.373 25.7">
  <g id="Group_5573" data-name="Group 5573" transform="translate(22.043 2.333)">
    <g id="Group_5572" data-name="Group 5572" transform="translate(0 0)">
      <path id="Path_4731" data-name="Path 4731" d="M46.341,6.463h-1.1V9.117h1.1a.226.226,0,0,0,.226-.226v-2.2a.226.226,0,0,0-.226-.226Z" transform="translate(-45.238 -6.463)" fill="#ff8d8d"/>
    </g>
  </g>
  <g id="Group_5575" data-name="Group 5575" transform="translate(22.041 2.333)">
    <g id="Group_5574" data-name="Group 5574" transform="translate(0 0)">
      <path id="Path_4732" data-name="Path 4732" d="M46.567,6.688v2.2a.227.227,0,0,1-.23.225h-1.1v-.5h.6a.227.227,0,0,0,.225-.23V6.463h.275a.227.227,0,0,1,.23.225Z" transform="translate(-45.235 -6.463)" fill="#ff7b7b"/>
    </g>
  </g>
  <g id="Group_5577" data-name="Group 5577" transform="translate(22.043 4.986)">
    <g id="Group_5576" data-name="Group 5576">
      <path id="Path_4733" data-name="Path 4733" d="M46.341,11.391h-1.1v2.654h1.1a.226.226,0,0,0,.226-.226v-2.2A.226.226,0,0,0,46.341,11.391Z" transform="translate(-45.238 -11.391)" fill="#00d67f"/>
    </g>
  </g>
  <g id="Group_5579" data-name="Group 5579" transform="translate(22.041 4.986)">
    <g id="Group_5578" data-name="Group 5578">
      <path id="Path_4734" data-name="Path 4734" d="M46.567,11.616v2.2a.227.227,0,0,1-.23.225h-1.1v-.5h.6a.227.227,0,0,0,.225-.23V11.391h.275A.227.227,0,0,1,46.567,11.616Z" transform="translate(-45.235 -11.391)" fill="#00c179"/>
    </g>
  </g>
  <g id="Group_5581" data-name="Group 5581" transform="translate(22.043 7.639)">
    <g id="Group_5580" data-name="Group 5580">
      <path id="Path_4735" data-name="Path 4735" d="M46.341,16.32h-1.1v2.654h1.1a.226.226,0,0,0,.226-.226v-2.2A.226.226,0,0,0,46.341,16.32Z" transform="translate(-45.238 -16.32)" fill="#a04747"/>
    </g>
  </g>
  <g id="Group_5583" data-name="Group 5583" transform="translate(22.041 7.639)">
    <g id="Group_5582" data-name="Group 5582">
      <path id="Path_4736" data-name="Path 4736" d="M46.567,16.545v2.2a.227.227,0,0,1-.23.225h-1.1v-.5h.6a.227.227,0,0,0,.225-.23V16.32h.275a.227.227,0,0,1,.23.225Z" transform="translate(-45.235 -16.32)" fill="#7f3939"/>
    </g>
  </g>
  <g id="Group_5585" data-name="Group 5585" transform="translate(22.043 10.292)">
    <g id="Group_5584" data-name="Group 5584">
      <path id="Path_4737" data-name="Path 4737" d="M46.341,21.249h-1.1V23.9h1.1a.226.226,0,0,0,.226-.226v-2.2A.226.226,0,0,0,46.341,21.249Z" transform="translate(-45.238 -21.249)" fill="#a2a2f9"/>
    </g>
  </g>
  <g id="Group_5587" data-name="Group 5587" transform="translate(22.041 10.292)">
    <g id="Group_5586" data-name="Group 5586">
      <path id="Path_4738" data-name="Path 4738" d="M46.567,21.474v2.2a.227.227,0,0,1-.23.225h-1.1v-.5h.6a.227.227,0,0,0,.225-.23V21.249h.275A.227.227,0,0,1,46.567,21.474Z" transform="translate(-45.235 -21.249)" fill="#7979f7"/>
    </g>
  </g>
  <g id="Group_5589" data-name="Group 5589" transform="translate(1.411 0)">
    <g id="Group_5588" data-name="Group 5588">
      <path id="Path_4739" data-name="Path 4739" d="M27.665,3.3V26.666A1.166,1.166,0,0,1,26.5,27.829H8.075a1.166,1.166,0,0,1-1.164-1.164V3.3A1.167,1.167,0,0,1,8.075,2.129H26.5A1.167,1.167,0,0,1,27.665,3.3Z" transform="translate(-6.912 -2.129)" fill="#f9b938"/>
    </g>
  </g>
  <g id="Group_5591" data-name="Group 5591" transform="translate(1.411)">
    <g id="Group_5590" data-name="Group 5590">
      <path id="Path_4740" data-name="Path 4740" d="M27.665,3.3V26.666A1.166,1.166,0,0,1,26.5,27.829H8.075a1.166,1.166,0,0,1-1.164-1.164v-.191H25.147a1.166,1.166,0,0,0,1.164-1.164V2.129H26.5A1.167,1.167,0,0,1,27.665,3.3Z" transform="translate(-6.912 -2.129)" fill="#ecb021"/>
    </g>
  </g>
  <g id="Group_5593" data-name="Group 5593" transform="translate(1.411 0)">
    <g id="Group_5592" data-name="Group 5592">
      <path id="Path_4741" data-name="Path 4741" d="M9.9,2.129v25.7H8.075a1.166,1.166,0,0,1-1.164-1.164V3.3A1.167,1.167,0,0,1,8.075,2.129Z" transform="translate(-6.912 -2.129)" fill="#7979f7"/>
    </g>
  </g>
  <g id="Group_5595" data-name="Group 5595" transform="translate(1.411 0)">
    <g id="Group_5594" data-name="Group 5594">
      <path id="Path_4742" data-name="Path 4742" d="M9.9,2.129v25.7H8.075a1.167,1.167,0,0,1-1.164-1.164v-.039h0a1.782,1.782,0,0,0,1.782-1.782V2.129Z" transform="translate(-6.912 -2.129)" fill="#5e5eef"/>
    </g>
  </g>
  <g id="Group_5630" data-name="Group 5630" transform="translate(6.948 5.419)">
    <g id="Group_5597" data-name="Group 5597">
      <g id="Group_5596" data-name="Group 5596">
        <path id="Path_4743" data-name="Path 4743" d="M28.591,17.9A5.675,5.675,0,0,1,27.3,21.5a5.769,5.769,0,0,1-3.94,2.08h-.039c-.141.011-.287.017-.433.017s-.287-.006-.427-.017h-.034a5.069,5.069,0,0,1-.826-.135,4.626,4.626,0,0,1-.793-.242,5.7,5.7,0,1,1,7.78-5.306Z" transform="translate(-17.197 -12.195)" fill="#fff"/>
      </g>
    </g>
    <g id="Group_5599" data-name="Group 5599" transform="translate(1.315 1.298)">
      <g id="Group_5598" data-name="Group 5598">
        <path id="Path_4744" data-name="Path 4744" d="M29.72,19.009a5.675,5.675,0,0,1-1.287,3.6,5.769,5.769,0,0,1-3.94,2.08h-.039c-.141.011-.287.017-.433.017s-.287-.006-.427-.017h-.034a5.069,5.069,0,0,1-.826-.135,4.625,4.625,0,0,1-.793-.242,5.685,5.685,0,0,1-2.3-1.664,5.785,5.785,0,0,0,1.557.922,4.629,4.629,0,0,0,.793.242,5.065,5.065,0,0,0,.826.135h.034c.141.011.281.017.427.017s.292-.006.433-.017h.039a5.648,5.648,0,0,0,3.94-2.08,5.689,5.689,0,0,0-.045-7.263,5.71,5.71,0,0,1,2.074,4.4Z" transform="translate(-19.641 -14.608)" fill="#e4e3ff"/>
      </g>
    </g>
    <g id="Group_5629" data-name="Group 5629" transform="translate(1.287 0.896)">
      <g id="Group_5601" data-name="Group 5601" transform="translate(6.374 3.165)">
        <g id="Group_5600" data-name="Group 5600">
          <path id="Path_4745" data-name="Path 4745" d="M32.071,20.381a.644.644,0,0,1-.643.643V19.741A.642.642,0,0,1,32.071,20.381Z" transform="translate(-31.428 -19.741)" fill="#f0b68e"/>
        </g>
      </g>
      <g id="Group_5603" data-name="Group 5603" transform="translate(1.8 3.165)">
        <g id="Group_5602" data-name="Group 5602">
          <path id="Path_4746" data-name="Path 4746" d="M22.933,20.381a.644.644,0,0,0,.643.643V19.741A.642.642,0,0,0,22.933,20.381Z" transform="translate(-22.933 -19.741)" fill="#f0b68e"/>
        </g>
      </g>
      <g id="Group_5605" data-name="Group 5605" transform="translate(2.327 6.703)">
        <g id="Group_5604" data-name="Group 5604">
          <path id="Path_4747" data-name="Path 4747" d="M28.313,26.313v3.311a6.118,6.118,0,0,1-1.849.472h-.039c-.141.011-.287.017-.433.017s-.287-.006-.427-.017H25.53a5.069,5.069,0,0,1-.826-.135,4.626,4.626,0,0,1-.793-.242V26.313h4.4Z" transform="translate(-23.912 -26.313)" fill="#fc6559"/>
        </g>
      </g>
      <g id="Group_5607" data-name="Group 5607" transform="translate(3.297 5.494)">
        <g id="Group_5606" data-name="Group 5606">
          <path id="Path_4748" data-name="Path 4748" d="M27.94,24.067v1.242a1.114,1.114,0,0,1-1.114,1.114h0a1.114,1.114,0,0,1-1.114-1.114V24.067Z" transform="translate(-25.712 -24.067)" fill="#f7c9a9"/>
        </g>
      </g>
      <g id="Group_5609" data-name="Group 5609" transform="translate(3.298 5.495)">
        <g id="Group_5608" data-name="Group 5608">
          <path id="Path_4749" data-name="Path 4749" d="M27.941,24.07v1.241a.12.12,0,0,1,0,.035,2.687,2.687,0,0,1-1.113.245h-.031a2.826,2.826,0,0,1-1.075-.228.267.267,0,0,1,0-.052V24.07Z" transform="translate(-25.714 -24.07)" fill="#f0b68e"/>
        </g>
      </g>
      <g id="Group_5611" data-name="Group 5611" transform="translate(2.094 1.377)">
        <g id="Group_5610" data-name="Group 5610">
          <path id="Path_4750" data-name="Path 4750" d="M28.112,16.42v2.9a2.389,2.389,0,0,1-2.348,2.4A2.317,2.317,0,0,1,23.478,19.4V16.42h4.635Z" transform="translate(-23.478 -16.42)" fill="#f7c9a9"/>
        </g>
      </g>
      <g id="Group_5613" data-name="Group 5613" transform="translate(3.643 7.434)">
        <g id="Group_5612" data-name="Group 5612">
          <path id="Path_4751" data-name="Path 4751" d="M27.474,28.542a.375.375,0,0,0-.112.309l.174,1.737h.017l.011.1v.034h-.011c-.141.011-.287.017-.433.017s-.287-.006-.427-.017h-.017l.006-.039.006-.1h.023l.022-.23.146-1.506a.354.354,0,0,0-.107-.309l-.23-.23-.186-.185.2-.2.264-.259.309.017.349.023.219.219.2.2-.186.185Z" transform="translate(-26.355 -27.671)" fill="#474646"/>
        </g>
      </g>
      <g id="Group_5618" data-name="Group 5618" transform="translate(2.804 6.688)">
        <g id="Group_5615" data-name="Group 5615">
          <g id="Group_5614" data-name="Group 5614">
            <path id="Path_4752" data-name="Path 4752" d="M24.8,26.3l.719,1.4a.149.149,0,0,0,.239.036l.649-.691-1.11-.765Z" transform="translate(-24.798 -26.286)" fill="#ff8d8d"/>
          </g>
        </g>
        <g id="Group_5617" data-name="Group 5617" transform="translate(1.606)">
          <g id="Group_5616" data-name="Group 5616">
            <path id="Path_4753" data-name="Path 4753" d="M29.388,26.3l-.719,1.4a.149.149,0,0,1-.239.036l-.649-.691,1.11-.765Z" transform="translate(-27.782 -26.286)" fill="#ff8d8d"/>
          </g>
        </g>
      </g>
      <g id="Group_5620" data-name="Group 5620" transform="translate(4.879 6.703)">
        <g id="Group_5619" data-name="Group 5619">
          <path id="Path_4754" data-name="Path 4754" d="M32.593,28.017a5.769,5.769,0,0,1-3.94,2.08l1.186-3.783h.832a1.935,1.935,0,0,1,1.922,1.7Z" transform="translate(-28.652 -26.313)" fill="#d0d0f7"/>
        </g>
      </g>
      <g id="Group_5622" data-name="Group 5622" transform="translate(0 6.703)">
        <g id="Group_5621" data-name="Group 5621">
          <path id="Path_4755" data-name="Path 4755" d="M22.348,26.313,23.535,30.1a5.069,5.069,0,0,1-.826-.135,4.626,4.626,0,0,1-.793-.242,5.711,5.711,0,0,1-2.327-1.7,1.939,1.939,0,0,1,1.922-1.709Z" transform="translate(-19.588 -26.313)" fill="#d0d0f7"/>
        </g>
      </g>
      <g id="Group_5624" data-name="Group 5624" transform="translate(1.81)">
        <g id="Group_5623" data-name="Group 5623">
          <path id="Path_4756" data-name="Path 4756" d="M23.39,17.245l.454-.651a.333.333,0,0,1,.334-.135,4.931,4.931,0,0,0,2.86-.182.321.321,0,0,1,.435.2c.078.262.18.523.256.7a.09.09,0,0,0,.171-.013l.284-1.114a1.759,1.759,0,0,0-1.865-2.186l-2.062.189a1.438,1.438,0,0,0-1.286,1.677l.255,1.474a.09.09,0,0,0,.163.036Z" transform="translate(-22.95 -13.861)" fill="#474646"/>
        </g>
      </g>
      <g id="Group_5626" data-name="Group 5626" transform="translate(2.039 6.703)">
        <g id="Group_5625" data-name="Group 5625">
          <path id="Path_4757" data-name="Path 4757" d="M25.317,30.1h-.034a5.069,5.069,0,0,1-.826-.135l-.6-.568a.267.267,0,0,1-.034-.242l.152-.427a.284.284,0,0,0-.174-.36l-.141-.062-.1-.045a.291.291,0,0,1-.174-.371l.27-.669.365-.905h.129l.017.062v.006l.006.017,1.124,3.659Z" transform="translate(-23.375 -26.313)" fill="#e4e3ff"/>
        </g>
      </g>
      <g id="Group_5628" data-name="Group 5628" transform="translate(4.84 6.703)">
        <g id="Group_5627" data-name="Group 5627">
          <path id="Path_4758" data-name="Path 4758" d="M30.468,28.146a.32.32,0,0,1-.141.112l-.236.107a.289.289,0,0,0-.174.36l.152.427a.251.251,0,0,1-.034.242l-.59.568a5.755,5.755,0,0,1-.826.135h-.039l.011-.034,1.135-3.693v-.006l.017-.051h.124l.6,1.49.034.084a.269.269,0,0,1-.034.259Z" transform="translate(-28.579 -26.313)" fill="#e4e3ff"/>
        </g>
      </g>
    </g>
  </g>
  <g id="Group_5661" data-name="Group 5661" transform="translate(0 2.877)">
    <g id="Group_5635" data-name="Group 5635">
      <g id="Group_5632" data-name="Group 5632" transform="translate(0)">
        <g id="Group_5631" data-name="Group 5631">
          <path id="Path_4759" data-name="Path 4759" d="M7.2,8.125a.651.651,0,0,1-.652.646H4.937a.649.649,0,0,1,0-1.3H6.545A.653.653,0,0,1,7.2,8.125Z" transform="translate(-4.291 -7.473)" fill="#e4e3ff"/>
        </g>
      </g>
      <g id="Group_5634" data-name="Group 5634" transform="translate(0.006 0.006)">
        <g id="Group_5633" data-name="Group 5633">
          <path id="Path_4760" data-name="Path 4760" d="M7.2,8.13a.651.651,0,0,1-.652.646H4.942A.645.645,0,0,1,4.3,8.209a.346.346,0,0,0,.079.006H5.987a.651.651,0,0,0,.652-.646.425.425,0,0,0-.006-.084A.655.655,0,0,1,7.2,8.13Z" transform="translate(-4.301 -7.483)" fill="#d0d0f7"/>
        </g>
      </g>
    </g>
    <g id="Group_5640" data-name="Group 5640" transform="translate(0 3.73)">
      <g id="Group_5637" data-name="Group 5637" transform="translate(0)">
        <g id="Group_5636" data-name="Group 5636">
          <path id="Path_4761" data-name="Path 4761" d="M7.2,15.053a.651.651,0,0,1-.652.646H4.937a.649.649,0,0,1,0-1.3H6.545A.653.653,0,0,1,7.2,15.053Z" transform="translate(-4.291 -14.401)" fill="#e4e3ff"/>
        </g>
      </g>
      <g id="Group_5639" data-name="Group 5639" transform="translate(0.006 0.006)">
        <g id="Group_5638" data-name="Group 5638">
          <path id="Path_4762" data-name="Path 4762" d="M7.2,15.058a.651.651,0,0,1-.652.646H4.942a.645.645,0,0,1-.641-.568.346.346,0,0,0,.079.006H5.987A.651.651,0,0,0,6.64,14.5a.425.425,0,0,0-.006-.084.655.655,0,0,1,.568.646Z" transform="translate(-4.301 -14.412)" fill="#d0d0f7"/>
        </g>
      </g>
    </g>
    <g id="Group_5645" data-name="Group 5645" transform="translate(0 7.459)">
      <g id="Group_5642" data-name="Group 5642" transform="translate(0 0)">
        <g id="Group_5641" data-name="Group 5641">
          <path id="Path_4763" data-name="Path 4763" d="M7.2,21.982a.651.651,0,0,1-.652.646H4.937a.649.649,0,0,1,0-1.3H6.545A.653.653,0,0,1,7.2,21.982Z" transform="translate(-4.291 -21.33)" fill="#e4e3ff"/>
        </g>
      </g>
      <g id="Group_5644" data-name="Group 5644" transform="translate(0.006 0.006)">
        <g id="Group_5643" data-name="Group 5643">
          <path id="Path_4764" data-name="Path 4764" d="M7.2,21.987a.651.651,0,0,1-.652.646H4.942a.645.645,0,0,1-.641-.568.346.346,0,0,0,.079.006H5.987a.651.651,0,0,0,.652-.646.425.425,0,0,0-.006-.084.655.655,0,0,1,.568.646Z" transform="translate(-4.301 -21.34)" fill="#d0d0f7"/>
        </g>
      </g>
    </g>
    <g id="Group_5650" data-name="Group 5650" transform="translate(0 11.189)">
      <g id="Group_5647" data-name="Group 5647" transform="translate(0)">
        <g id="Group_5646" data-name="Group 5646">
          <path id="Path_4765" data-name="Path 4765" d="M7.2,28.91a.651.651,0,0,1-.652.646H4.937a.649.649,0,0,1,0-1.3H6.545A.653.653,0,0,1,7.2,28.91Z" transform="translate(-4.291 -28.258)" fill="#e4e3ff"/>
        </g>
      </g>
      <g id="Group_5649" data-name="Group 5649" transform="translate(0.006 0.006)">
        <g id="Group_5648" data-name="Group 5648">
          <path id="Path_4766" data-name="Path 4766" d="M7.2,28.915a.651.651,0,0,1-.652.646H4.942a.645.645,0,0,1-.641-.568A.346.346,0,0,0,4.38,29H5.987a.651.651,0,0,0,.652-.646.425.425,0,0,0-.006-.084.655.655,0,0,1,.568.646Z" transform="translate(-4.301 -28.269)" fill="#d0d0f7"/>
        </g>
      </g>
    </g>
    <g id="Group_5655" data-name="Group 5655" transform="translate(0 14.919)">
      <g id="Group_5652" data-name="Group 5652" transform="translate(0)">
        <g id="Group_5651" data-name="Group 5651">
          <path id="Path_4767" data-name="Path 4767" d="M7.2,35.839a.651.651,0,0,1-.652.646H4.937a.649.649,0,0,1,0-1.3H6.545A.653.653,0,0,1,7.2,35.839Z" transform="translate(-4.291 -35.187)" fill="#e4e3ff"/>
        </g>
      </g>
      <g id="Group_5654" data-name="Group 5654" transform="translate(0.006 0.006)">
        <g id="Group_5653" data-name="Group 5653">
          <path id="Path_4768" data-name="Path 4768" d="M7.2,35.843a.651.651,0,0,1-.652.646H4.942a.645.645,0,0,1-.641-.568.346.346,0,0,0,.079.006H5.987a.651.651,0,0,0,.652-.646.425.425,0,0,0-.006-.084.655.655,0,0,1,.568.646Z" transform="translate(-4.301 -35.197)" fill="#d0d0f7"/>
        </g>
      </g>
    </g>
    <g id="Group_5660" data-name="Group 5660" transform="translate(0 18.648)">
      <g id="Group_5657" data-name="Group 5657" transform="translate(0)">
        <g id="Group_5656" data-name="Group 5656">
          <path id="Path_4769" data-name="Path 4769" d="M7.2,42.767a.651.651,0,0,1-.652.646H4.937a.649.649,0,0,1,0-1.3H6.545a.653.653,0,0,1,.652.652Z" transform="translate(-4.291 -42.115)" fill="#e4e3ff"/>
        </g>
      </g>
      <g id="Group_5659" data-name="Group 5659" transform="translate(0.006 0.006)">
        <g id="Group_5658" data-name="Group 5658">
          <path id="Path_4770" data-name="Path 4770" d="M7.2,42.772a.651.651,0,0,1-.652.646H4.942A.645.645,0,0,1,4.3,42.85a.346.346,0,0,0,.079.006H5.987a.651.651,0,0,0,.652-.646.425.425,0,0,0-.006-.084.655.655,0,0,1,.568.646Z" transform="translate(-4.301 -42.125)" fill="#d0d0f7"/>
        </g>
      </g>
    </g>
  </g>
  <g id="Group_5668" data-name="Group 5668" transform="translate(7.125 1.043)" opacity="0.3">
    <g id="Group_5664" data-name="Group 5664" transform="translate(6.066 0)">
      <g id="Group_5663" data-name="Group 5663">
        <g id="Group_5662" data-name="Group 5662">
          <path id="Path_4771" data-name="Path 4771" d="M30.2,5.143h-.865a.538.538,0,0,1,0-1.077H30.2a.538.538,0,1,1,0,1.077Z" transform="translate(-28.795 -4.066)" fill="#fff"/>
        </g>
      </g>
    </g>
    <g id="Group_5667" data-name="Group 5667" transform="translate(0 0)">
      <g id="Group_5666" data-name="Group 5666">
        <g id="Group_5665" data-name="Group 5665">
          <path id="Path_4772" data-name="Path 4772" d="M22.657,5.143H18.065a.538.538,0,1,1,0-1.077h4.592a.538.538,0,1,1,0,1.077Z" transform="translate(-17.527 -4.066)" fill="#fff"/>
        </g>
      </g>
    </g>
  </g>
  <g id="Group_5675" data-name="Group 5675" transform="translate(5.391 15.09)" opacity="0.3">
    <g id="Group_5671" data-name="Group 5671" transform="translate(0 6.066)">
      <g id="Group_5670" data-name="Group 5670">
        <g id="Group_5669" data-name="Group 5669">
          <path id="Path_4773" data-name="Path 4773" d="M14.306,42.833v-.865a.538.538,0,1,1,1.077,0v.865a.538.538,0,1,1-1.077,0Z" transform="translate(-14.306 -41.429)" fill="#fff"/>
        </g>
      </g>
    </g>
    <g id="Group_5674" data-name="Group 5674">
      <g id="Group_5673" data-name="Group 5673">
        <g id="Group_5672" data-name="Group 5672">
          <path id="Path_4774" data-name="Path 4774" d="M14.306,35.291V30.7a.538.538,0,1,1,1.077,0v4.592a.538.538,0,0,1-1.077,0Z" transform="translate(-14.306 -30.161)" fill="#fff"/>
        </g>
      </g>
    </g>
  </g>
</svg>
