<svg id="dish" xmlns="http://www.w3.org/2000/svg" width="81" height="81" viewBox="0 0 81 81">
  <path id="Path_5539" data-name="Path 5539" d="M40.5,0A40.5,40.5,0,1,1,0,40.5,40.5,40.5,0,0,1,40.5,0Z" transform="translate(0)" fill="#f8cf26"/>
  <circle id="Ellipse_500" data-name="Ellipse 500" cx="26.5" cy="26.5" r="26.5" transform="translate(14 14)" fill="#ff931e"/>
  <g id="Group_6330" data-name="Group 6330" transform="translate(22.382 19.576)">
    <path id="Path_5535" data-name="Path 5535" d="M255.677,159.524a4.832,4.832,0,0,1-3.606-1.589,4.43,4.43,0,0,1-1.119-3.444L251.958,132a7.236,7.236,0,0,1-3.727-5.043,16.6,16.6,0,0,1,.463-7.694l.9-2.956a6.421,6.421,0,0,1,12.159,0l.9,2.956a16.6,16.6,0,0,1,.463,7.694A7.235,7.235,0,0,1,259.387,132l1.011,22.58a4.37,4.37,0,0,1-1.119,3.35,4.832,4.832,0,0,1-3.6,1.589Zm0-44.763a3.511,3.511,0,0,0-3.4,2.37l-.9,2.957a13.8,13.8,0,0,0-.385,6.387,4.435,4.435,0,0,0,2.9,3.342,1.4,1.4,0,0,1,.905,1.372l-1.055,23.522a1.679,1.679,0,0,0,.411,1.36,2.161,2.161,0,0,0,3.041,0,1.618,1.618,0,0,0,.42-1.267l-1.063-23.614a1.4,1.4,0,0,1,.905-1.372,4.435,4.435,0,0,0,2.9-3.342,13.81,13.81,0,0,0-.383-6.387l-.9-2.957a3.511,3.511,0,0,0-3.4-2.37Z" transform="translate(-227.001 -111.955)" fill="#f2f2f2"/>
    <path id="Path_5536" data-name="Path 5536" d="M135.694,159.561a4.728,4.728,0,0,1-4.725-4.731q0-.116.006-.231l1.193-23.863-3.757-3.759a1.4,1.4,0,0,1-.41-.989V113.4a1.4,1.4,0,0,1,2.8,0v12.011l3.787,3.787a1.4,1.4,0,0,1,.41,1.059l-1.224,24.48a1.906,1.906,0,0,0,.529,1.425,1.97,1.97,0,0,0,2.785.012l.012-.012a1.906,1.906,0,0,0,.529-1.425l-1.232-24.48a1.4,1.4,0,0,1,.408-1.059l3.788-3.787V113.4a1.4,1.4,0,1,1,2.8,0v12.59a1.4,1.4,0,0,1-.41.989l-3.757,3.759,1.193,23.863a4.728,4.728,0,0,1-4.489,4.956Q135.809,159.561,135.694,159.561Z" transform="translate(-128 -111.992)" fill="#f2f2f2"/>
    <path id="Path_5537" data-name="Path 5537" d="M153.4,125.988a1.4,1.4,0,0,1-1.4-1.4V113.4a1.4,1.4,0,0,1,2.8,0V124.59A1.4,1.4,0,0,1,153.4,125.988Z" transform="translate(-147.803 -111.992)" fill="#f2f2f2"/>
    <path id="Path_5538" data-name="Path 5538" d="M177.4,125.988a1.4,1.4,0,0,1-1.4-1.4V113.4a1.4,1.4,0,1,1,2.8,0V124.59A1.4,1.4,0,0,1,177.4,125.988Z" transform="translate(-167.607 -111.992)" fill="#f2f2f2"/>
  </g>
</svg>
