<svg xmlns="http://www.w3.org/2000/svg" width="28.349" height="29.692" viewBox="0 0 28.349 29.692">
  <g id="Exp-3.-Doodle" transform="translate(-24.477 -19.531)">
    <g id="Group_7181" data-name="Group 7181" transform="translate(24.477 19.531)">
      <path id="Path_6585" data-name="Path 6585" d="M77.213,47.236c.036-.715.2-1.136,1.007-1.175,0,0,3.551-.008,5.2-.137.276-.022,8.482.034,8.482.034s3.438.064,3.889.081c1.5.086,1.73,1.008,1.711,2.1,0,0,.434,5.968-.034,20.682.05,1.746-.706,2.552-2.169,2.533,0,0-7.731.245-15.615.32-2.065-.082-2.895-.924-2.862-2.3,0,0,.381-21.981.387-22.136Z" transform="translate(-69.693 -42.324)" fill="#68a2fe" fill-rule="evenodd"/>
      <path id="Path_6586" data-name="Path 6586" d="M91.707,58.819a40.236,40.236,0,0,1,4.236-.1c.222-.01,8.779-.017,8.779-.017a27.523,27.523,0,0,1,3.615.081c.129.161-.025,21.6-.246,21.751-.4.276-15.626.505-16.1.19S91.4,59.373,91.707,58.819Z" transform="translate(-82.4 -53.347)" fill="#c2c8dd" fill-rule="evenodd"/>
      <path id="Path_6587" data-name="Path 6587" d="M64.3,58.819a40.863,40.863,0,0,1,4.269-.1c.223-.01,8.848-.017,8.848-.017a27.952,27.952,0,0,1,3.643.081,55.61,55.61,0,0,1-.525,13.077,17.946,17.946,0,0,1-3.148,7,50.67,50.67,0,0,1-9.98.242,28.873,28.873,0,0,1-7.436-1.48c-.234-.155,2.621-2.263,3.505-6.88C64.373,66.033,64.138,59.1,64.3,58.819Z" transform="translate(-55.119 -53.347)" fill="#e7f2f7" fill-rule="evenodd"/>
      <path id="Path_6588" data-name="Path 6588" d="M128.265,23.081s-.05-2.1,1.916-1.992c1.806.1,1.689,1.563,1.765,2.219l1.445.045c.645.051.7.528.678,1.273l.04,2.249s.029.378-.4.339c0,0-2.09.094-7.679,0,0,0-.41-.025-.372-.632,0,0-.074-2.1-.022-2.307s.207-1.059,1.033-1.072S128.3,23.29,128.265,23.081Z" transform="translate(-111.835 -20.873)" fill="#ff4962" fill-rule="evenodd"/>
      <path id="Path_6589" data-name="Path 6589" d="M156.3,31.229c.281.033.39.137.428.437a.406.406,0,0,1-.45.43c-.337,0-.476-.164-.48-.433C155.8,31.362,155.982,31.228,156.3,31.229Z" transform="translate(-137.902 -29.635)" fill="#fff" fill-rule="evenodd"/>
      <path id="Path_6590" data-name="Path 6590" d="M171.932,49.992c.281.033.39.136.428.437a.406.406,0,0,1-.45.43c-.337,0-.476-.164-.48-.433C171.437,50.125,171.618,49.991,171.932,49.992Z" transform="translate(-151.408 -45.842)" fill="#79889d" fill-rule="evenodd"/>
      <path id="Path_6591" data-name="Path 6591" d="M138.386,50.181c.281.033.39.137.428.437a.406.406,0,0,1-.45.43c-.336,0-.476-.164-.48-.433C137.891,50.314,138.072,50.18,138.386,50.181Z" transform="translate(-122.432 -46.005)" fill="#79889d" fill-rule="evenodd"/>
      <path id="Path_6592" data-name="Path 6592" d="M110.774,105.826a18.084,18.084,0,0,1,2.219-.051s.084,2.1.05,2.219a8.558,8.558,0,0,1-2.337.118A14.963,14.963,0,0,1,110.774,105.826Z" transform="translate(-98.945 -94.001)" fill="#c2c8dd" fill-rule="evenodd"/>
      <path id="Path_6593" data-name="Path 6593" d="M109.071,134.514a18.087,18.087,0,0,1,2.219-.05s-.185,2.075-.219,2.192a8.407,8.407,0,0,1-2.35-.044A13.653,13.653,0,0,1,109.071,134.514Z" transform="translate(-97.242 -118.78)" fill="#c2c8dd" fill-rule="evenodd"/>
      <path id="Path_6594" data-name="Path 6594" d="M101.558,162.153a18.62,18.62,0,0,1,2.219-.051s-.572,1.866-.605,1.984a8.992,8.992,0,0,1-2.421.017A15.486,15.486,0,0,1,101.558,162.153Z" transform="translate(-90.358 -142.653)" fill="#c2c8dd" fill-rule="evenodd"/>
      <path id="Path_6595" data-name="Path 6595" d="M28.583,57.7s6.731,8.635,7.125,9.194a21.027,21.027,0,0,1,1.1,3c-.017.42-2.535-.822-3.093-1.244,0,0-5.774-6.4-7.4-8.918C25.3,58.372,27.342,56.5,28.583,57.7Z" transform="translate(-25.827 -52.169)" fill="#c5cc1a" fill-rule="evenodd"/>
      <path id="Path_6596" data-name="Path 6596" d="M26.672,60.255c-.133-.187-.253-.362-.355-.521C25.3,58.372,27.342,56.5,28.583,57.7l.443.568s-.118,1.041-.156,1.169c-.031.1-.738-.133-.85-.054s-.056.707-.14.8A6.034,6.034,0,0,1,26.672,60.255Z" transform="translate(-25.827 -52.169)" fill="#ff4962" fill-rule="evenodd"/>
      <path id="Path_6597" data-name="Path 6597" d="M84.3,129.409a15.315,15.315,0,0,1,.932,2.6c-.017.42-2.535-.822-3.093-1.244l-.04-.045s.954.063.994.034c.086-.065-.228-.655-.161-.721s.908.117.979.054c.1-.091-.083-.786-.043-.85S84.3,129.409,84.3,129.409Z" transform="translate(-74.248 -114.28)" fill="#ffc416" fill-rule="evenodd"/>
      <path id="Path_6598" data-name="Path 6598" d="M98.244,142.493a4.093,4.093,0,0,1,.282.974c-.007.179-.467.057-1.036-.175A.7.7,0,0,1,98.244,142.493Z" transform="translate(-87.541 -125.74)" fill="#79889d" fill-rule="evenodd"/>
      <g id="Group_7180" data-name="Group 7180" transform="translate(0 0)">
        <path id="Path_6599" data-name="Path 6599" d="M76.814,141.278c.024-.218.052-.44.07-.67.008-.095.013-.191.016-.287.017-.465.017-.948.02-1.437s.009-.959,0-1.435c0-.1-.006-.192-.012-.287-.014-.227-.036-.448-.052-.67a.125.125,0,0,0-.25,0c-.024.222-.052.443-.071.67q-.012.143-.018.287c-.013.318-.013.639-.016.958,0,.406,0,.81,0,1.207,0,.273,0,.541.007.8,0,.146.015.289.025.431s.025.289.036.431a.125.125,0,0,0,.25,0Z" transform="translate(-69.408 -120.446)" fill="#333e57" fill-rule="evenodd"/>
        <path id="Path_6600" data-name="Path 6600" d="M77.235,52.137c.033-.435.069-.856.1-1.264.029-.441.055-.863.071-1.264.087-2.2.088-3.717.09-3.783a1.2,1.2,0,0,1,.149-.651.635.635,0,0,1,.513-.189c.1,0,1.264.01,2.533-.05.512-.024,1.039-.065,1.523-.111.376-.036.723-.079,1.016-.121a.208.208,0,1,0-.033-.416c-.291,0-.635,0-1.007-.005-.482,0-1.006-.016-1.515-.017-1.322,0-2.526.015-2.526.015H78.13a1.286,1.286,0,0,0-1.055.471,1.874,1.874,0,0,0-.288,1.038v0c0,.041-.056,1.568-.047,3.805,0,.4.012.824.026,1.266.013.409.034.83.052,1.266a.208.208,0,1,0,.417.007Z" transform="translate(-69.619 -40.897)" fill="#333e57" fill-rule="evenodd"/>
        <path id="Path_6601" data-name="Path 6601" d="M188.252,44.843l3.6.205a1.418,1.418,0,0,1,1.126.5,2.112,2.112,0,0,1,.258,1.292c0,.01,0,.02,0,.031s.165,2.5.166,8.247c0,2.339-.048,5.215-.1,8.679-.016,1.173-.017,2.412-.034,3.722,0,.005,0,.011,0,.016a3.521,3.521,0,0,1-.095,1.163,1.656,1.656,0,0,1-.34.65.208.208,0,1,0,.306.284,2.107,2.107,0,0,0,.47-.8,4.047,4.047,0,0,0,.19-1.316v.016c.038-.71.077-1.4.108-2.068q.049-1.068.08-2.069c.072-2.338.1-4.4.108-6.211.049-6.993-.175-10.134-.191-10.355a2.711,2.711,0,0,0-.408-1.673,1.989,1.989,0,0,0-1.623-.709h-.007l-3.612-.025a.208.208,0,0,0-.013.417Z" transform="translate(-165.764 -41.034)" fill="#333e57" fill-rule="evenodd"/>
        <path id="Path_6602" data-name="Path 6602" d="M95,205.448a1.458,1.458,0,0,1-.665.372,2.567,2.567,0,0,1-.8.072h-.012s-.571,0-1.561,0c-.442,0-.967.009-1.561.019-1.643.028-3.819.079-6.244.123-1.966.035-4.1.074-6.237.1a3.709,3.709,0,0,1-1.828-.435,1.64,1.64,0,0,1-.762-1.51v0l-.033-1.981a.209.209,0,1,0-.417-.007l-.1,1.978a2.267,2.267,0,0,0,.584,1.763,3.677,3.677,0,0,0,2.539.885h.017c3.345-.032,6.663-.086,9.374-.155,1.453-.037,2.732-.071,3.748-.113,1.559-.064,2.5-.131,2.5-.131h-.012a3.07,3.07,0,0,0,.95-.153,1.9,1.9,0,0,0,.828-.544.208.208,0,1,0-.306-.284Z" transform="translate(-67.924 -177.135)" fill="#333e57" fill-rule="evenodd"/>
        <path id="Path_6603" data-name="Path 6603" d="M190.961,57.868c.007.135.009.391.012.748.012,1.439,0,4.492-.024,7.829-.017,2.131-.041,4.378-.063,6.4-.011.981-.023,1.908-.03,2.741-.014,1.639-.019,2.912-.049,3.519a2.846,2.846,0,0,1-.028.333v0a.125.125,0,0,0,.18.164.225.225,0,0,0,.071-.144c.017-.1.038-.3.059-.6.043-.622.1-1.654.14-2.939.029-.879.051-1.875.071-2.938.039-2.155.061-4.582.075-6.856.017-2.773.021-5.317,0-6.858-.009-.668-.023-1.149-.037-1.379a1.1,1.1,0,0,0-.058-.258.3.3,0,0,0-.167-.092,4.24,4.24,0,0,0-.687-.052c-1.06-.022-2.909.055-2.909.055a.125.125,0,0,0,.006.25s.905,0,1.81.014c.547.01,1.094.026,1.436.057C190.834,57.866,190.907,57.865,190.961,57.868Z" transform="translate(-165.197 -52.309)" fill="#333e57" fill-rule="evenodd"/>
        <path id="Path_6604" data-name="Path 6604" d="M108.7,206.686c.009.039-.121.02-.233.03-.451.041-1.391.06-2.6.085-.617.013-1.3.031-2.029.045-1.494.03-3.158.056-4.736.069-1.31.01-2.562.011-3.607,0-.588,0-1.111-.013-1.543-.022-.449-.01-.8-.021-1.016-.042-.055-.005-.113-.014-.15-.02-.007-.021-.014-.048-.02-.073-.036-.163-.073-.43-.11-.782-.03-.283-.061-.62-.091-1a.125.125,0,1,0-.25.013c.019.721.046,1.282.084,1.629a1.615,1.615,0,0,0,.082.407.242.242,0,0,0,.084.105.63.63,0,0,0,.226.071,13.677,13.677,0,0,0,1.469.107c.7.025,1.592.035,2.584.038,1.192,0,2.532-.005,3.872-.025,1.717-.025,3.434-.058,4.839-.121,1.1-.049,2.012-.118,2.581-.176a2.49,2.49,0,0,0,.7-.128.125.125,0,0,0-.137-.209Zm0,0h0s0,0,0,0Z" transform="translate(-83.073 -179.606)" fill="#333e57" fill-rule="evenodd"/>
        <path id="Path_6605" data-name="Path 6605" d="M60.121,175.649c.024-.031.05-.065.076-.1.221-.266.6-.687,1.024-1.28.131-.183.269-.382.4-.6.053-.086.106-.175.156-.267.155-.284.3-.595.444-.93a.125.125,0,0,0-.223-.114c-.1.16-.2.31-.294.458s-.205.3-.3.449c-.2.3-.394.582-.577.827-.4.541-.747.935-.955,1.187a2.283,2.283,0,0,0-.194.261.4.4,0,0,0-.055.143.227.227,0,0,0,.1.24,5.534,5.534,0,0,0,1.111.371c.165.042.348.081.546.12.172.034.356.064.55.1a.125.125,0,0,0,.059-.243c-.31-.1-.588-.2-.839-.281-.119-.04-.23-.076-.335-.109-.195-.063-.363-.115-.5-.162l-.2-.071Z" transform="translate(-54.833 -151.481)" fill="#333e57" fill-rule="evenodd"/>
        <path id="Path_6606" data-name="Path 6606" d="M77.527,146.96c.1-.156.208-.328.309-.523.039-.075.076-.153.111-.234a12.136,12.136,0,0,0,.438-1.21c.126-.4.247-.823.333-1.24.018-.085.032-.169.044-.254.029-.2.046-.4.062-.6a.125.125,0,1,0-.246-.047c-.03.1-.063.191-.094.289-.045.143-.093.286-.137.434-.065.224-.123.453-.187.679-.1.344-.2.685-.308,1.01-.065.2-.132.386-.2.569-.046.13-.094.255-.136.377-.078.23-.142.444-.216.633a.125.125,0,1,0,.223.114Z" transform="translate(-70.095 -125.964)" fill="#333e57" fill-rule="evenodd"/>
        <path id="Path_6607" data-name="Path 6607" d="M90.2,57.925H90.2a6.48,6.48,0,0,1,.653-.043c.251-.008.54-.01.844-.015.277,0,.566-.008.848-.014.7-.016,1.366-.04,1.7-.067a.125.125,0,1,0-.011-.25c-.337,0-.993-.034-1.692-.058-.283-.01-.573-.016-.851-.019-.308,0-.6,0-.855.005a4.966,4.966,0,0,0-.8.062.394.394,0,0,0-.169.077.209.209,0,0,0-.046.056.456.456,0,0,0-.043.148c-.018.124-.031.375-.04.729-.017.67-.029,1.719-.057,2.963-.014.617-.037,1.281-.057,1.971-.01.346-.017.7-.026,1.056s-.017.7-.03,1.056a.125.125,0,1,0,.249.019c.045-.393.088-.785.123-1.173s.066-.791.088-1.176c.122-2.159.106-4.043.138-4.938C90.181,58.145,90.187,58.014,90.2,57.925Zm-.051,0c-.018,0-.03,0-.026.014S90.135,57.939,90.144,57.928Z" transform="translate(-80.706 -52.29)" fill="#333e57" fill-rule="evenodd"/>
        <path id="Path_6608" data-name="Path 6608" d="M91.071,132.614a3.873,3.873,0,0,1-.391.062c-.791.1-2.462.219-4.435.261-1.553.033-3.294.018-4.94-.1-.923-.058-1.812-.162-2.633-.282-.986-.144-1.874-.314-2.609-.479a.125.125,0,1,0-.059.243c.735.192,1.625.4,2.614.573.827.145,1.725.266,2.657.347,1.659.128,3.413.153,4.979.123,1.992-.038,3.68-.164,4.479-.264a3.716,3.716,0,0,0,.472-.08.374.374,0,0,0,.107-.047,2.53,2.53,0,0,0,.287-.359,19.123,19.123,0,0,0,1.723-3.061,16.246,16.246,0,0,0,1.184-3.719c.127-.742.231-1.508.31-2.281s.132-1.533.171-2.291a.125.125,0,0,0-.25-.017c-.065.751-.148,1.513-.248,2.27s-.219,1.517-.364,2.249a15.989,15.989,0,0,1-1.181,3.618,19.083,19.083,0,0,1-1.689,2.988C91.172,132.483,91.109,132.567,91.071,132.614Z" transform="translate(-68.9 -107.282)" fill="#333e57" fill-rule="evenodd"/>
        <path id="Path_6609" data-name="Path 6609" d="M132.935,44.048s-.013.562-.02,1.125-.009,1.125-.009,1.125,0,.008,0,.011a.128.128,0,0,1-.043.1.213.213,0,0,1-.15.021h-.027s-.89.032-3.063.031c-1.152,0-2.665-.007-4.6-.038a.207.207,0,0,1-.141-.116.6.6,0,0,1-.047-.3.186.186,0,0,0,0-.019s-.075-1.161-.1-1.839a3.274,3.274,0,0,1,0-.431.125.125,0,0,0-.243-.061,7.469,7.469,0,0,0-.051.955c-.009.6,0,1.272,0,1.375a.881.881,0,0,0,.132.593.582.582,0,0,0,.422.251h.009c1.938.036,3.455.051,4.611.049,2.049,0,2.964-.045,3.07-.05a.572.572,0,0,0,.416-.113.565.565,0,0,0,.182-.442v.011s-.021-.562-.048-1.124-.059-1.124-.059-1.124a.125.125,0,1,0-.25,0Z" transform="translate(-110.825 -40.292)" fill="#333e57" fill-rule="evenodd"/>
        <path id="Path_6610" data-name="Path 6610" d="M127.385,21.654a3.269,3.269,0,0,1-.5.018c-.266,0-.582-.005-.9.006a1.075,1.075,0,0,0-.7.275,1.747,1.747,0,0,0-.449.948.125.125,0,0,0,.243.061,1.645,1.645,0,0,1,.318-.67.745.745,0,0,1,.6-.25c.315,0,.626.021.888.03a2.706,2.706,0,0,0,.65-.032c.206-.053.274-.179.262-.313a2.165,2.165,0,0,1,.446-1.315,1.452,1.452,0,0,1,1.255-.452,1.478,1.478,0,0,1,1.239.575,3.05,3.05,0,0,1,.333,1.456.206.206,0,0,0,.2.182s.361.01.723.014.706,0,.723,0a.555.555,0,0,1,.477.28,1.118,1.118,0,0,1,.123.645.125.125,0,1,0,.248.034,1.313,1.313,0,0,0-.193-.977.878.878,0,0,0-.635-.339h-.008s-.361-.023-.722-.041c-.2-.01-.4-.018-.54-.024a3,3,0,0,0-.377-1.47,2.178,2.178,0,0,0-3.16-.16A2.594,2.594,0,0,0,127.385,21.654Z" transform="translate(-111.158 -19.531)" fill="#333e57" fill-rule="evenodd"/>
        <path id="Path_6611" data-name="Path 6611" d="M154.993,30.242h-.014a.682.682,0,0,0-.472.078.5.5,0,0,0-.2.275.714.714,0,0,0-.033.2s0,.005,0,.008a.624.624,0,0,0,.2.492.712.712,0,0,0,.488.15h0a.655.655,0,0,0,.466-.171.684.684,0,0,0,.181-.452.2.2,0,0,0,0-.044.97.97,0,0,0-.05-.2.508.508,0,0,0-.14-.208A.6.6,0,0,0,154.993,30.242Zm-.022.251a.426.426,0,0,1,.171.093c.024.022.027.055.038.091a.654.654,0,0,1,.022.123.275.275,0,0,1-.067.174.265.265,0,0,1-.184.048.311.311,0,0,1-.207-.049.224.224,0,0,1-.061-.176V30.8a.337.337,0,0,1,.019-.135.177.177,0,0,1,.03-.061.415.415,0,0,1,.237-.116Z" transform="translate(-136.585 -28.772)" fill="#333e57" fill-rule="evenodd"/>
        <path id="Path_6612" data-name="Path 6612" d="M170.629,49h-.014a.682.682,0,0,0-.472.078.5.5,0,0,0-.2.275.716.716,0,0,0-.033.2v.008a.624.624,0,0,0,.2.492.71.71,0,0,0,.488.15h0a.656.656,0,0,0,.466-.171.684.684,0,0,0,.181-.452.2.2,0,0,0,0-.044.971.971,0,0,0-.05-.2.508.508,0,0,0-.14-.208A.594.594,0,0,0,170.629,49Zm-.022.251a.428.428,0,0,1,.171.093c.024.022.027.055.038.091a.625.625,0,0,1,.022.123.274.274,0,0,1-.066.174.265.265,0,0,1-.184.048.312.312,0,0,1-.207-.049.225.225,0,0,1-.061-.176v.008a.342.342,0,0,1,.019-.135.181.181,0,0,1,.03-.061.414.414,0,0,1,.238-.116Z" transform="translate(-150.091 -44.979)" fill="#333e57" fill-rule="evenodd"/>
        <path id="Path_6613" data-name="Path 6613" d="M137.083,49.194h-.014a.683.683,0,0,0-.472.078.5.5,0,0,0-.2.275.71.71,0,0,0-.033.2.071.071,0,0,0,0,.008.623.623,0,0,0,.2.492.711.711,0,0,0,.488.15h0a.656.656,0,0,0,.466-.171.684.684,0,0,0,.181-.452.2.2,0,0,0,0-.044.969.969,0,0,0-.05-.2.508.508,0,0,0-.14-.208.594.594,0,0,0-.425-.125Zm-.022.25a.428.428,0,0,1,.171.093c.024.022.027.055.038.091a.644.644,0,0,1,.022.123.275.275,0,0,1-.066.174.265.265,0,0,1-.184.048.311.311,0,0,1-.207-.049.224.224,0,0,1-.061-.176v.008a.337.337,0,0,1,.019-.135.178.178,0,0,1,.03-.061.416.416,0,0,1,.237-.116Z" transform="translate(-121.115 -45.142)" fill="#333e57" fill-rule="evenodd"/>
        <path id="Path_6614" data-name="Path 6614" d="M129.468,77.258s.223.021.594.043c.17.01.37.022.595.028.328.009.707.007,1.11.006.531,0,1.1-.007,1.665-.02.46-.01.911-.021,1.323-.045.137-.008.27-.019.4-.031.363-.036.678-.082.925-.122a.125.125,0,1,0-.024-.249c-.252.007-.575,0-.945,0-.2,0-.411,0-.631.006-.58.01-1.22.025-1.844.034-.666.01-1.312.014-1.846.027-.14,0-.273.008-.4.015-.563.029-.923.06-.923.06a.125.125,0,1,0,0,.25Z" transform="translate(-115.055 -69.053)" fill="#333e57" fill-rule="evenodd"/>
        <path id="Path_6615" data-name="Path 6615" d="M117.112,86.253s.347,0,.924,0c.264,0,.575,0,.924-.013.508-.012,1.094-.036,1.723-.055.815-.025,1.7-.051,2.583-.07.7-.015,1.4-.021,2.049-.03q.314,0,.614-.011c.524-.011,1.008-.024,1.432-.019a.125.125,0,1,0,.013-.25c-.426-.041-.913-.081-1.441-.1q-.3-.014-.618-.019c-.656-.011-1.356,0-2.058.011-.883.016-1.773.043-2.59.075-.629.025-1.216.048-1.725.08-.348.022-.659.048-.923.071-.576.05-.922.088-.922.088a.125.125,0,1,0,.014.25Z" transform="translate(-104.376 -76.661)" fill="#333e57" fill-rule="evenodd"/>
        <path id="Path_6616" data-name="Path 6616" d="M149.256,107.825a4.509,4.509,0,0,1,.843-.184c.11-.015.224-.028.343-.04.163-.016.335-.029.519-.035a10.766,10.766,0,0,1,1.737.1,4.835,4.835,0,0,0,1.33.169,2.887,2.887,0,0,0,.41-.041,2.978,2.978,0,0,0,.9-.316.125.125,0,1,0-.1-.228,2.972,2.972,0,0,1-.724.158,4.2,4.2,0,0,1-.492.019,5.012,5.012,0,0,1-1.232-.173l-.026-.005a9.631,9.631,0,0,0-2.187-.066,4.4,4.4,0,0,0-.584.1,3.96,3.96,0,0,0-.834.312.125.125,0,0,0,.1.231Z" transform="translate(-132.106 -95.209)" fill="#333e57" fill-rule="evenodd"/>
        <path id="Path_6617" data-name="Path 6617" d="M148.805,118.611s.162-.058.463-.134l.2-.051a6.727,6.727,0,0,1,1.03-.187,10.408,10.408,0,0,1,1.054-.033c.138,0,.279,0,.427,0,.095,0,.189,0,.288,0a.125.125,0,0,0,.036-.248c-.175-.048-.341-.09-.507-.12-.075-.013-.148-.023-.221-.03a5.691,5.691,0,0,0-1.119.015,5.083,5.083,0,0,0-1.1.226,2.258,2.258,0,0,0-.211.083,2.3,2.3,0,0,0-.467.269.125.125,0,0,0,.127.216Z" transform="translate(-131.703 -104.395)" fill="#333e57" fill-rule="evenodd"/>
        <path id="Path_6618" data-name="Path 6618" d="M148.386,136.259a5.647,5.647,0,0,1,.865-.179,5.365,5.365,0,0,1,.582-.049,3.267,3.267,0,0,1,.948.106,5.906,5.906,0,0,0,1.906.084c.192-.017.38-.038.558-.064.129-.019.252-.04.368-.064.535-.108.906-.225.906-.225a.125.125,0,0,0-.053-.245s-.213.026-.545.06c-.159.016-.344.032-.545.052-.332.034-.708.075-1.084.091a4.906,4.906,0,0,1-1.4-.094,3.584,3.584,0,0,0-1.34-.086,3.766,3.766,0,0,0-.521.1,3.818,3.818,0,0,0-.744.281.125.125,0,1,0,.1.229Z" transform="translate(-131.353 -119.802)" fill="#333e57" fill-rule="evenodd"/>
        <path id="Path_6619" data-name="Path 6619" d="M148.046,146.814s.206-.051.581-.112l.252-.041a9.687,9.687,0,0,1,1.271-.134c.384-.014.811,0,1.282.031.167.01.338.016.516.026.114.007.228.01.347.019a.125.125,0,0,0,.046-.246c-.208-.06-.407-.116-.6-.156q-.133-.028-.264-.045a7.8,7.8,0,0,0-1.339-.052,7.224,7.224,0,0,0-1.333.166q-.142.033-.261.071a3.253,3.253,0,0,0-.59.243.125.125,0,0,0,.1.231Z" transform="translate(-131.06 -128.851)" fill="#333e57" fill-rule="evenodd"/>
        <path id="Path_6620" data-name="Path 6620" d="M145.147,163.188a4.654,4.654,0,0,1,.826-.1c.164-.009.352-.019.565-.019a9.276,9.276,0,0,1,1.419.11,9.346,9.346,0,0,0,1.55.119,3.605,3.605,0,0,0,.63-.075,1.412,1.412,0,0,0,.429-.141.125.125,0,0,0-.112-.224,1.825,1.825,0,0,1-.36.045c-.146.008-.338,0-.587,0a11.9,11.9,0,0,1-1.487-.138,8.254,8.254,0,0,0-1.787-.087,4.1,4.1,0,0,0-.478.065,2.672,2.672,0,0,0-.7.221.125.125,0,1,0,.1.231Z" transform="translate(-128.556 -143.154)" fill="#333e57" fill-rule="evenodd"/>
        <path id="Path_6621" data-name="Path 6621" d="M144.463,173.989s.184-.017.513-.042q.1-.008.22-.02c.3-.03.668-.067,1.1-.08.335-.01.707,0,1.107.011.073,0,.147,0,.222,0,.171,0,.343-.007.523,0a.125.125,0,1,0,.034-.248c-.179-.046-.351-.09-.524-.122q-.115-.021-.228-.033a8.173,8.173,0,0,0-1.148-.031,8.318,8.318,0,0,0-1.145.108q-.123.022-.226.048a3.566,3.566,0,0,0-.518.167.125.125,0,1,0,.066.242Z" transform="translate(-127.979 -152.45)" fill="#333e57" fill-rule="evenodd"/>
        <path id="Path_6622" data-name="Path 6622" d="M109.281,106.8a.217.217,0,0,0,.194.28,2.88,2.88,0,0,0,.467.026,14.341,14.341,0,0,0,1.731-.1.786.786,0,0,0,.237-.068.228.228,0,0,0,.11-.138,3.488,3.488,0,0,0,.013-.505c-.013-.651-.063-1.78-.063-1.78a.2.2,0,0,0-.143-.186,3.134,3.134,0,0,0-.73-.025c-.248.011-.528.035-.782.059-.426.041-.777.086-.777.086a.125.125,0,0,0-.07.027.362.362,0,0,0-.1.2,3.828,3.828,0,0,0-.067.572c-.012.2-.018.431-.02.65,0,.239,0,.468,0,.643C109.285,106.649,109.282,106.779,109.281,106.8Zm2.337-.2c-.065,0-.155,0-.235.012-.486.052-1.68.072-1.686.073,0-.019,0-.039,0-.06,0-.181-.017-.446-.033-.727-.014-.243-.03-.5-.038-.717a3.175,3.175,0,0,1,0-.472.08.08,0,0,1,0-.014l.81-.005c.3,0,.625,0,.881,0,.094,0,.178,0,.245.006.01.291.029.9.039,1.381C111.613,106.3,111.619,106.492,111.618,106.6Z" transform="translate(-97.719 -92.741)" fill="#333e57" fill-rule="evenodd"/>
        <path id="Path_6623" data-name="Path 6623" d="M107.221,135.276a.219.219,0,0,0,.172.295,2.83,2.83,0,0,0,.467.061,14.1,14.1,0,0,0,1.743.015.768.768,0,0,0,.244-.054.226.226,0,0,0,.121-.143c.012-.043.046-.333.081-.694.062-.648.137-1.538.137-1.538a.2.2,0,0,0-.142-.213,3.128,3.128,0,0,0-.73-.026c-.248.011-.528.035-.782.059-.426.041-.777.087-.777.087a.125.125,0,0,0-.07.027.4.4,0,0,0-.1.171,3.65,3.65,0,0,0-.136.518c-.067.333-.126.737-.168,1.041-.025.176-.057.395-.057.395Zm2.356-.056c-.065.007-.154.015-.239.018-.491.019-1.689-.044-1.689-.044l0-.032c.018-.167.038-.412.059-.673.018-.225.035-.46.057-.664.019-.181.069-.446.072-.452.181,0,.691-.005,1.173,0,.187,0,.37,0,.527,0,.084,0,.159,0,.221,0-.028.3-.084.879-.131,1.338C109.608,134.924,109.59,135.107,109.577,135.219Z" transform="translate(-95.935 -117.515)" fill="#333e57" fill-rule="evenodd"/>
        <path id="Path_6624" data-name="Path 6624" d="M100.255,160.755a.125.125,0,0,0-.078.027,2.287,2.287,0,0,0-.352.6c-.12.258-.25.563-.354.822-.111.276-.19.5-.207.531a.22.22,0,0,0,.173.316,3.031,3.031,0,0,0,.479.047,15.014,15.014,0,0,0,1.792-.03.811.811,0,0,0,.245-.058.227.227,0,0,0,.12-.143l.6-1.982a.2.2,0,0,0-.119-.249.684.684,0,0,0-.194-.034,5.5,5.5,0,0,0-.552,0c-.247.012-.527.036-.781.06C100.61,160.71,100.267,160.754,100.255,160.755Zm1.437,1.913c-.069,0-.173,0-.266,0a16.712,16.712,0,0,1-1.7,0c.053-.151.123-.354.2-.57.092-.273.185-.568.27-.794a2.718,2.718,0,0,1,.122-.3c.172,0,.7,0,1.193,0,.188,0,.371,0,.527,0h.174Z" transform="translate(-89.055 -141.381)" fill="#333e57" fill-rule="evenodd"/>
        <path id="Path_6625" data-name="Path 6625" d="M118.929,106.541a.48.48,0,0,1-.247.06c-.076-.061-.16-.14-.238-.215-.146-.14-.271-.263-.271-.263a.125.125,0,1,0-.2.146,3.607,3.607,0,0,0,.217.361,1.948,1.948,0,0,0,.181.226.666.666,0,0,0,.36.218.409.409,0,0,0,.2-.047,5.3,5.3,0,0,0,.76-.517c.138-.107.281-.22.414-.333.094-.08.185-.157.265-.235s.146-.149.2-.215c.094-.1.16-.185.2-.233a.125.125,0,1,0-.177-.177c-.06.046-.192.127-.357.241-.074.051-.154.107-.236.17C119.638,106,119.216,106.349,118.929,106.541Z" transform="translate(-105.211 -93.597)" fill="#333e57" fill-rule="evenodd"/>
        <path id="Path_6626" data-name="Path 6626" d="M80.853,108.614c-.011,0-1.1-.382-1.7-.673a9.618,9.618,0,0,1-1.058-.563l-.582-.6a.125.125,0,1,0-.187.166l.544.661a.153.153,0,0,0,.022.021,8.567,8.567,0,0,0,1.205.73,10.115,10.115,0,0,0,1.287.561,1.6,1.6,0,0,0,.634.116.33.33,0,0,0,.2-.1.278.278,0,0,0,.078-.187,3.978,3.978,0,0,0-.275-1c-.329-.9-.848-2.09-.848-2.09a.2.2,0,0,0-.021-.037c-.1-.139-.588-.789-1.29-1.666-.2-.255-.428-.527-.665-.812-.216-.26-.443-.527-.676-.8a.125.125,0,1,0-.2.153c.346.482.673.946.979,1.365.157.215.309.417.451.606.541.717.936,1.229,1.045,1.38.068.158.526,1.227.825,2.049A6.866,6.866,0,0,1,80.853,108.614Z" transform="translate(-70.095 -91.018)" fill="#333e57" fill-rule="evenodd"/>
        <path id="Path_6627" data-name="Path 6627" d="M31.891,66.582c-.31-.363-.729-.86-1.214-1.434-.373-.441-.782-.929-1.21-1.437-.792-.938-1.644-1.947-2.4-2.885-.8-.994-1.5-1.905-1.922-2.557l-.008-.012a1.24,1.24,0,0,1,.256-1.692,1.2,1.2,0,0,1,1.684-.073c.084.108.723.931,1.595,2.038.217.276.45.57.693.874.74.924,1.572,1.945,2.336,2.893a.125.125,0,1,0,.2-.153c-.728-.975-1.512-2.034-2.226-2.978-.235-.311-.463-.608-.677-.886-.923-1.2-1.594-2.057-1.594-2.057a.214.214,0,0,0-.02-.022,1.611,1.611,0,0,0-2.272.052,1.653,1.653,0,0,0-.315,2.253,41.9,41.9,0,0,0,2.634,3.414c.41.492.832.992,1.252,1.477.287.332.573.658.851.97.874.981,1.668,1.835,2.175,2.382a.125.125,0,1,0,.187-.167Z" transform="translate(-24.477 -50.819)" fill="#333e57" fill-rule="evenodd"/>
        <path id="Path_6628" data-name="Path 6628" d="M26.957,58.234c.185.016.492.1.635.1a.267.267,0,0,0,.277-.177c.014-.046.039-.2.064-.38.048-.349.1-.824.1-.824a.211.211,0,0,0-.043-.154l-.442-.568-.02-.022a1.607,1.607,0,0,0-2.269.057,1.851,1.851,0,0,0-.593,1.056,1.461,1.461,0,0,0,.323,1.165l-.006-.009.384.509a.125.125,0,0,0,.1.053s.628.037.989.021a1.022,1.022,0,0,0,.269-.041.228.228,0,0,0,.083-.055.467.467,0,0,0,.094-.24C26.926,58.583,26.93,58.371,26.957,58.234Zm.533-.326c-.147-.019-.355-.068-.5-.081a.464.464,0,0,0-.29.05.43.43,0,0,0-.138.286c-.018.134-.018.325-.027.47,0,.022,0,.047-.006.069a9.572,9.572,0,0,1-.992.084h0l-.292-.478L25.24,58.3a1.153,1.153,0,0,1-.187-.91,1.524,1.524,0,0,1,.484-.819,1.207,1.207,0,0,1,1.687-.068l.381.488c-.017.152-.055.475-.089.73C27.506,57.789,27.5,57.854,27.49,57.907Zm-.582.324H26.9s-.01,0-.01,0S26.9,58.238,26.908,58.231Z" transform="translate(-24.626 -50.826)" fill="#333e57" fill-rule="evenodd"/>
        <path id="Path_6629" data-name="Path 6629" d="M83.35,128.567c-.168-.014-.419-.055-.592-.067a.746.746,0,0,0-.253.014.236.236,0,0,0-.095.057.267.267,0,0,0-.057.246,2.37,2.37,0,0,0,.111.318c.017.041.035.094.051.139-.287.006-.794,0-.794,0a.8.8,0,0,0-.066.233,13.474,13.474,0,0,0,1.215.782c.205.11.419.215.626.309.234.106.461.2.656.263a1.6,1.6,0,0,0,.634.116.329.329,0,0,0,.2-.1.278.278,0,0,0,.078-.187,3.4,3.4,0,0,0-.23-.877c-.211-.593-.526-1.352-.72-1.811a.21.21,0,0,0-.088-.1,2.516,2.516,0,0,0-.455-.2.239.239,0,0,0-.26.1.351.351,0,0,0-.034.2C83.282,128.134,83.339,128.392,83.35,128.567Zm.4-.326s.006.245.009.35a.6.6,0,0,1-.025.213.273.273,0,0,1-.074.112.354.354,0,0,1-.24.065c-.163-.006-.488-.068-.694-.087a3.536,3.536,0,0,1,.146.346.494.494,0,0,1,.015.194.207.207,0,0,1-.079.132.177.177,0,0,1-.078.034.658.658,0,0,1-.122,0c-.087,0-.221-.014-.359-.027l.244.122c.213.1.452.215.695.323.189.084.379.166.561.241a5,5,0,0,0,.837.284l.033,0a6.044,6.044,0,0,0-.19-.594C84.232,129.4,83.944,128.7,83.752,128.24Z" transform="translate(-73.863 -112.958)" fill="#333e57" fill-rule="evenodd"/>
        <path id="Path_6630" data-name="Path 6630" d="M48.04,77.418s.228.348.6.879c.123.175.263.368.417.574.367.492.809,1.06,1.261,1.64.432.553.876,1.115,1.287,1.621.168.207.329.4.485.588.116.136.228.264.335.382.161.179.309.335.438.465a2.426,2.426,0,0,0,.523.448.125.125,0,0,0,.1-.23,3.53,3.53,0,0,1-.49-.57c-.131-.166-.28-.36-.446-.572-.095-.121-.2-.247-.3-.379-.446-.556-.96-1.2-1.466-1.848-.52-.661-1.029-1.318-1.458-1.857-.112-.14-.219-.272-.32-.393-.458-.55-.766-.9-.766-.9a.125.125,0,1,0-.2.152Z" transform="translate(-44.807 -69.358)" fill="#333e57" fill-rule="evenodd"/>
        <path id="Path_6631" data-name="Path 6631" d="M43.018,82.272s.233.334.613.844c.125.168.267.354.423.552.372.473.818,1.018,1.273,1.577.434.533.88,1.074,1.289,1.565.167.2.327.392.48.57.114.133.224.257.329.373a10.414,10.414,0,0,0,.893.911.125.125,0,0,0,.142-.206c-.041-.032-.184-.226-.412-.519-.174-.224-.389-.506-.64-.82-.446-.558-1-1.217-1.54-1.879-.351-.429-.7-.857-1.029-1.251-.29-.35-.559-.677-.8-.951-.491-.565-.831-.923-.831-.923a.125.125,0,1,0-.194.157Z" transform="translate(-40.468 -73.548)" fill="#333e57" fill-rule="evenodd"/>
        <path id="Path_6632" data-name="Path 6632" d="M97.025,141.629a.125.125,0,0,0-.124-.082,1.089,1.089,0,0,0-.5.067.666.666,0,0,0-.207.136.954.954,0,0,0-.249.724.211.211,0,0,0,.131.191,3.524,3.524,0,0,0,.921.273c.276.017.4-.119.4-.285a1.437,1.437,0,0,0-.1-.462c-.033-.089-.075-.185-.125-.287S97.076,141.725,97.025,141.629Zm-.211.194c.028.132.051.255.077.368s.077.331.077.331c-.032-.009-.411-.12-.6-.193a.522.522,0,0,1,.113-.3.544.544,0,0,1,.221-.162C96.736,141.85,96.774,141.836,96.814,141.823Z" transform="translate(-86.205 -124.919)" fill="#333e57" fill-rule="evenodd"/>
      </g>
    </g>
  </g>
</svg>
