<svg id="duty" xmlns="http://www.w3.org/2000/svg" width="29.25" height="25" viewBox="0 0 29.25 25">
  <path id="Path_4670" data-name="Path 4670" d="M240.367,56.182a4.113,4.113,0,1,1,3.146-6.761V37.663a.464.464,0,0,0-.464-.464h-13.86a.464.464,0,0,0-.464.464v3.418a4.851,4.851,0,0,1,.848,2.745v5.222a2.56,2.56,0,0,1-.811,1.865l-.037.035v.066h.224a3.27,3.27,0,0,1,3.266,3.266v3.339h1.856a.232.232,0,0,1,.232.232v.29h8.747a.464.464,0,0,0,.464-.464V54.717a4.1,4.1,0,0,1-3.146,1.465Z" transform="translate(-215.658 -37.199)" fill="#ffe177"/>
  <g id="Group_5528" data-name="Group 5528" transform="translate(25.071 0)">
    <path id="Path_4671" data-name="Path 4671" d="M439.312,37.664V48.04a4.11,4.11,0,0,1,2.32,1.382V37.664a.464.464,0,0,0-.464-.464h-2.32A.464.464,0,0,1,439.312,37.664Z" transform="translate(-438.848 -37.2)" fill="#ffd15b"/>
    <path id="Path_4672" data-name="Path 4672" d="M439.312,345.218v1.577a.464.464,0,0,1-.464.464h2.32a.464.464,0,0,0,.464-.464v-2.959A4.11,4.11,0,0,1,439.312,345.218Z" transform="translate(-438.848 -326.318)" fill="#ffd15b"/>
  </g>
  <g id="Group_5532" data-name="Group 5532" transform="translate(15.005 2.877)">
    <g id="Group_5529" data-name="Group 5529" transform="translate(7.765)">
      <path id="Path_4673" data-name="Path 4673" d="M399.853,90.048a.429.429,0,0,1-.316-.139l-.862-.943a.429.429,0,1,1,.633-.578l.539.59,1.113-1.269a.428.428,0,1,1,.644.565L400.175,89.9a.429.429,0,0,1-.318.146h0Z" transform="translate(-398.563 -87.562)" fill="#0ed290"/>
    </g>
    <g id="Group_5530" data-name="Group 5530" transform="translate(7.765 4.175)">
      <path id="Path_4674" data-name="Path 4674" d="M399.853,163.135a.429.429,0,0,1-.316-.139l-.862-.943a.429.429,0,1,1,.633-.578l.539.59,1.113-1.269a.428.428,0,1,1,.644.565l-1.429,1.629a.429.429,0,0,1-.318.146Z" transform="translate(-398.563 -160.649)" fill="#0ed290"/>
    </g>
    <g id="Group_5531" data-name="Group 5531" transform="translate(0 0.174)">
      <path id="Path_4675" data-name="Path 4675" d="M263.07,91.463h6.263a.428.428,0,1,0,0-.857H263.07a.428.428,0,0,0,0,.857Z" transform="translate(-262.642 -90.606)" fill="#0ed290"/>
      <path id="Path_4676" data-name="Path 4676" d="M269.333,119.122h-6.263a.428.428,0,0,0,0,.857h6.263a.428.428,0,1,0,0-.857Z" transform="translate(-262.641 -117.493)" fill="#0ed290"/>
      <path id="Path_4677" data-name="Path 4677" d="M269.333,163.693h-6.263a.428.428,0,0,0,0,.857h6.263a.428.428,0,1,0,0-.857Z" transform="translate(-262.641 -159.518)" fill="#0ed290"/>
      <path id="Path_4678" data-name="Path 4678" d="M269.333,192.209h-6.263a.428.428,0,0,0,0,.857h6.263a.428.428,0,1,0,0-.857Z" transform="translate(-262.641 -186.404)" fill="#0ed290"/>
      <path id="Path_4679" data-name="Path 4679" d="M266.7,236.78H263.07a.428.428,0,0,0,0,.857H266.7a.428.428,0,0,0,0-.857Z" transform="translate(-262.642 -228.429)" fill="#0ed290"/>
      <path id="Path_4680" data-name="Path 4680" d="M266.7,265.3H263.07a.428.428,0,1,0,0,.857H266.7a.428.428,0,1,0,0-.857Z" transform="translate(-262.642 -255.316)" fill="#0ed290"/>
      <path id="Path_4681" data-name="Path 4681" d="M287.2,310.294a.428.428,0,0,0-.428-.428h-2.62a.426.426,0,0,0-.22.061,3.239,3.239,0,0,1,.272.8h2.568A.428.428,0,0,0,287.2,310.294Z" transform="translate(-282.711 -297.34)" fill="#0ed290"/>
      <path id="Path_4682" data-name="Path 4682" d="M292.313,339.239a.428.428,0,0,0,0-.857h-2.446a.423.423,0,0,0-.058,0v.848a.438.438,0,0,0,.058,0Z" transform="translate(-288.257 -324.227)" fill="#0ed290"/>
    </g>
  </g>
  <g id="Group_5555" data-name="Group 5555" transform="translate(1.458 1.69)">
    <g id="Group_5533" data-name="Group 5533" transform="translate(0 12.066)">
      <path id="Path_4683" data-name="Path 4683" d="M28.675,286.4v-2.689a1.091,1.091,0,0,1,1.09-1.09H30.86a.64.64,0,0,1,.648.586.627.627,0,0,1-.259.551.114.114,0,0,0-.048.093.116.116,0,0,0,.048.094.62.62,0,0,1,.246.634l-.014.068h9.189V281.3a3.324,3.324,0,0,0-3.324-3.324h-.235a2.54,2.54,0,0,1-1.692.644h-.98a1.362,1.362,0,0,1-2.7,0h-.98a2.54,2.54,0,0,1-1.692-.644h-.235a3.324,3.324,0,0,0-3.324,3.324v6.181h4.234A1.091,1.091,0,0,1,28.675,286.4Z" transform="translate(-25.514 -277.981)" fill="#fd4755"/>
    </g>
    <path id="Path_4684" data-name="Path 4684" d="M220.649,281.3v3.281h2.32V281.3a3.324,3.324,0,0,0-3.324-3.324h-.235a2.568,2.568,0,0,1-.553.374A3.323,3.323,0,0,1,220.649,281.3Z" transform="translate(-207.811 -265.913)" fill="#fb2b3a"/>
    <g id="Group_5534" data-name="Group 5534" transform="translate(0 17.734)">
      <path id="Path_4685" data-name="Path 4685" d="M28.677,379.944v-2.556l-.055-.188,0,0-3.1,3.836v.058h4.251l-.017-.059A1.09,1.09,0,0,1,28.677,379.944Z" transform="translate(-25.515 -377.197)" fill="#fe646f"/>
    </g>
    <g id="Group_5535" data-name="Group 5535" transform="translate(1.993 13.932)">
      <path id="Path_4686" data-name="Path 4686" d="M62.656,313.41h.553l-1.517-2.627a.29.29,0,0,0-.4-.106l-.753.435a.29.29,0,0,0-.106.4l1.35,2.338A1.087,1.087,0,0,1,62.656,313.41Z" transform="translate(-60.398 -310.638)" fill="#ffe177"/>
    </g>
    <path id="Path_4687" data-name="Path 4687" d="M60.544,311.693l.51-.295a.29.29,0,0,1,.4.106l1.1,1.911c.034,0,.068-.005.1-.005h.553l-1.517-2.627a.29.29,0,0,0-.4-.106l-.753.435a.29.29,0,0,0-.106.4Z" transform="translate(-58.405 -296.707)" fill="#ffd15b"/>
    <g id="Group_5537" data-name="Group 5537" transform="translate(5.605 18.671)">
      <g id="Group_5536" data-name="Group 5536">
        <path id="Path_4688" data-name="Path 4688" d="M123.747,393.966a.116.116,0,0,0,0,.188.627.627,0,0,1,0,1.016.117.117,0,0,0-.048.094.115.115,0,0,0,.048.094.621.621,0,0,1-.13,1.082v.111h11.64v-2.668a.29.29,0,0,0-.29-.29H123.991A.63.63,0,0,1,123.747,393.966Z" transform="translate(-123.617 -393.594)" fill="#f3eae6"/>
      </g>
    </g>
    <g id="Group_5539" data-name="Group 5539" transform="translate(5.605 20.12)">
      <g id="Group_5538" data-name="Group 5538">
        <path id="Path_4689" data-name="Path 4689" d="M123.747,419.1a.117.117,0,0,0-.048.094.115.115,0,0,0,.048.094.621.621,0,0,1-.13,1.082v.053h11.64v-1.45H123.876A.626.626,0,0,1,123.747,419.1Z" transform="translate(-123.617 -418.97)" fill="#f9f3f1"/>
      </g>
    </g>
    <g id="Group_5540" data-name="Group 5540" transform="translate(15.215 18.671)">
      <path id="Path_4690" data-name="Path 4690" d="M293.578,393.593h-1.74a.29.29,0,0,1,.29.29v2.668h1.74v-2.668A.29.29,0,0,0,293.578,393.593Z" transform="translate(-291.838 -393.593)" fill="#f3eae6"/>
    </g>
    <g id="Group_5542" data-name="Group 5542" transform="translate(15.215 18.671)">
      <g id="Group_5541" data-name="Group 5541">
        <path id="Path_4691" data-name="Path 4691" d="M293.578,393.593h-1.74a.29.29,0,0,1,.29.29v1.16h1.74v-1.16A.29.29,0,0,0,293.578,393.593Z" transform="translate(-291.838 -393.593)" fill="#e1d3ce"/>
      </g>
    </g>
    <g id="Group_5554" data-name="Group 5554" transform="translate(2.278)">
      <g id="Group_5553" data-name="Group 5553">
        <path id="Path_4692" data-name="Path 4692" d="M76.652,66.781a4.977,4.977,0,0,0-4.9,5v5.159a2.609,2.609,0,0,0,2.609,2.609h.989a1.363,1.363,0,0,1-.024-.253V78.04a3.408,3.408,0,0,0,2.726,0V79.3a1.368,1.368,0,0,1-.024.253h.989a2.609,2.609,0,0,0,2.609-2.609V71.718a4.937,4.937,0,0,0-4.975-4.937Z" transform="translate(-71.389 -66.781)" fill="#a44f3e"/>
        <g id="Group_5543" data-name="Group 5543" transform="translate(4.146 0)">
          <path id="Path_4693" data-name="Path 4693" d="M185.173,214.105h-.595a3.41,3.41,0,0,1-.741,1.515,2.607,2.607,0,0,1-1.191,2.014v.163a1.426,1.426,0,0,1-.023.253h.931a2.609,2.609,0,0,0,2.609-2.609v-1.767A1.35,1.35,0,0,1,185.173,214.105Z" transform="translate(-180.073 -205.282)" fill="#883f2e"/>
          <path id="Path_4694" data-name="Path 4694" d="M141.725,71.364a.827.827,0,0,1,.819.827V72.9h.524a1.35,1.35,0,0,1,.991.431v-1.61a4.937,4.937,0,0,0-4.974-4.937,4.868,4.868,0,0,0-1.117.139A4.939,4.939,0,0,1,141.725,71.364Z" transform="translate(-137.967 -66.782)" fill="#883f2e"/>
        </g>
        <g id="Group_5552" data-name="Group 5552" transform="translate(0 4.582)">
          <g id="Group_5544" data-name="Group 5544" transform="translate(3.881 6.589)">
            <path id="Path_4695" data-name="Path 4695" d="M134.735,262.631a3.338,3.338,0,0,1-1.42-.316v1.344a1.42,1.42,0,1,0,2.84,0v-1.344A3.339,3.339,0,0,1,134.735,262.631Z" transform="translate(-133.315 -262.315)" fill="#f89580"/>
          </g>
          <g id="Group_5551" data-name="Group 5551">
            <g id="Group_5547" data-name="Group 5547" transform="translate(0 1.533)">
              <g id="Group_5545" data-name="Group 5545" transform="translate(0 0)">
                <path id="Path_4696" data-name="Path 4696" d="M67.331,175.834v-1.707a.76.76,0,0,1,.064-.305h-.65a1.354,1.354,0,1,0,0,2.708h.66a3.357,3.357,0,0,1-.073-.7Z" transform="translate(-65.39 -173.822)" fill="#ffb09e"/>
              </g>
              <g id="Group_5546" data-name="Group 5546" transform="translate(8.587)">
                <path id="Path_4697" data-name="Path 4697" d="M216.36,173.821h-.587v2.012a3.362,3.362,0,0,1-.073.7h.66a1.354,1.354,0,1,0,0-2.708Z" transform="translate(-215.7 -173.821)" fill="#f89580"/>
              </g>
            </g>
            <g id="Group_5548" data-name="Group 5548" transform="translate(1.878)">
              <path id="Path_4698" data-name="Path 4698" d="M102.452,147.228l-.264.264a1.72,1.72,0,0,1-1.216.5H99.089a.828.828,0,0,0-.828.828v1.707a3.423,3.423,0,0,0,6.845,0v-2.717a.828.828,0,0,0-.828-.828h-1.242A.828.828,0,0,0,102.452,147.228Z" transform="translate(-98.261 -146.986)" fill="#ffcebf"/>
            </g>
            <g id="Group_5549" data-name="Group 5549" transform="translate(4.431 0)">
              <path id="Path_4699" data-name="Path 4699" d="M146.407,146.987h-1.242a.827.827,0,0,0-.248.039.828.828,0,0,1,.578.789v2.717a3.424,3.424,0,0,1-2.553,3.311,3.424,3.424,0,0,0,4.292-3.311v-2.717A.827.827,0,0,0,146.407,146.987Z" transform="translate(-142.942 -146.987)" fill="#ffb09e"/>
            </g>
            <g id="Group_5550" data-name="Group 5550" transform="translate(3.303 1.101)">
              <path id="Path_4700" data-name="Path 4700" d="M137.331,224.385h-1.949a.428.428,0,1,0,0,.857h1.949a.428.428,0,1,0,0-.857Z" transform="translate(-134.282 -221.065)" fill="#ec806b"/>
              <path id="Path_4701" data-name="Path 4701" d="M124.061,167.231v-.539a.428.428,0,1,0-.857,0v.539a.428.428,0,1,0,.857,0Z" transform="translate(-123.204 -166.264)" fill="#ec806b"/>
              <path id="Path_4702" data-name="Path 4702" d="M181.247,166.265a.428.428,0,0,0-.428.428v.539a.428.428,0,1,0,.857,0v-.539A.428.428,0,0,0,181.247,166.265Z" transform="translate(-177.527 -166.265)" fill="#ec806b"/>
              <path id="Path_4703" data-name="Path 4703" d="M146.38,184.95l.041,0a1.846,1.846,0,0,1,.426-1.269.429.429,0,0,0-.467-.386.83.83,0,0,0,0,1.653Z" transform="translate(-144.347 -182.322)" fill="#ec806b"/>
            </g>
          </g>
        </g>
      </g>
    </g>
  </g>
  <g id="Group_5560" data-name="Group 5560" transform="translate(4.562 18.335)">
    <g id="Group_5559" data-name="Group 5559">
      <g id="Group_5558" data-name="Group 5558">
        <g id="Group_5557" data-name="Group 5557">
          <g id="Group_5556" data-name="Group 5556">
            <path id="Path_4704" data-name="Path 4704" d="M82.8,360.028a.684.684,0,0,0-.283-.555.057.057,0,0,1,0-.094.684.684,0,0,0,.282-.6.7.7,0,0,0-.705-.64H80.994a1.147,1.147,0,0,0-1.147,1.147v2.689a1.147,1.147,0,0,0,1.147,1.147h1.095a.7.7,0,0,0,.705-.64.684.684,0,0,0-.282-.6.057.057,0,0,1,0-.094.685.685,0,0,0,0-1.11.058.058,0,0,1,0-.094.685.685,0,0,0,.283-.555Z" transform="translate(-79.847 -358.139)" fill="#ffcebf"/>
          </g>
        </g>
      </g>
    </g>
  </g>
  <path id="Path_4705" data-name="Path 4705" d="M105.76,361.234a.684.684,0,0,0-.283-.555.058.058,0,0,1,0-.094.685.685,0,0,0,0-1.11.057.057,0,0,1,0-.094.684.684,0,0,0,.282-.6.7.7,0,0,0-.705-.64h-.85a1.264,1.264,0,0,1,.5,1.007v2.969a1.264,1.264,0,0,1-.5,1.007h.85a.7.7,0,0,0,.705-.64.684.684,0,0,0-.282-.6.057.057,0,0,1,0-.094A.685.685,0,0,0,105.76,361.234Z" transform="translate(-98.25 -339.805)" fill="#ffb09e"/>
  <g id="Group_5561" data-name="Group 5561" transform="translate(0 23.26)">
    <path id="Path_4706" data-name="Path 4706" d="M28.358,446.087H.464A.464.464,0,0,1,0,445.623v-.812a.464.464,0,0,1,.464-.464H28.358a.464.464,0,0,1,.464.464v.812A.464.464,0,0,1,28.358,446.087Z" transform="translate(0 -444.347)" fill="#01c0fa"/>
  </g>
  <g id="Group_5562" data-name="Group 5562" transform="translate(26.038 23.26)">
    <path id="Path_4707" data-name="Path 4707" d="M458.095,444.347h-2.32a.464.464,0,0,1,.464.464v.812a.464.464,0,0,1-.464.464h2.32a.464.464,0,0,0,.464-.464v-.812A.464.464,0,0,0,458.095,444.347Z" transform="translate(-455.775 -444.347)" fill="#08a9f1"/>
  </g>
  <g id="Group_5567" data-name="Group 5567" transform="translate(20.167 10.328)">
    <g id="Group_5563" data-name="Group 5563" transform="translate(0.428 0.428)">
      <circle id="Ellipse_449" data-name="Ellipse 449" cx="4.113" cy="4.113" r="4.113" fill="#c8effe"/>
    </g>
    <g id="Group_5564" data-name="Group 5564" transform="translate(3.501 0.428)">
      <path id="Path_4708" data-name="Path 4708" d="M415.332,225.483a4.118,4.118,0,0,0-1.04.133,4.114,4.114,0,0,1,0,7.96,4.113,4.113,0,1,0,1.04-8.093Z" transform="translate(-414.292 -225.483)" fill="#99e6fc"/>
    </g>
    <g id="Group_5565" data-name="Group 5565">
      <path id="Path_4709" data-name="Path 4709" d="M357.552,227.067a4.542,4.542,0,1,1,4.542-4.542A4.547,4.547,0,0,1,357.552,227.067Zm0-8.226a3.685,3.685,0,1,0,3.685,3.685A3.689,3.689,0,0,0,357.552,218.841Z" transform="translate(-353.01 -217.984)" fill="#62dbfb"/>
    </g>
    <g id="Group_5566" data-name="Group 5566" transform="translate(4.113 1.433)">
      <path id="Path_4710" data-name="Path 4710" d="M427.676,246.61h-2.244a.428.428,0,0,1-.428-.428V243.5a.428.428,0,0,1,.857,0v2.251h1.815a.428.428,0,1,1,0,.857Z" transform="translate(-425.004 -243.073)" fill="#08a9f1"/>
    </g>
  </g>
</svg>
