<svg xmlns="http://www.w3.org/2000/svg" width="34.344" height="40.357" viewBox="0 0 34.344 40.357">
  <g id="contact" transform="translate(-55.56 -19.5)">
    <path id="Path_33578" data-name="Path 33578" d="M123.511,55.476v-31.6A3.885,3.885,0,0,0,119.63,20H97.151a3.885,3.885,0,0,0-3.881,3.881v.614h.577a2.9,2.9,0,1,1,0,5.8H93.27v2.391h.577a2.9,2.9,0,1,1,0,5.8H93.27v2.391h.577a2.9,2.9,0,1,1,0,5.8H93.27v2.391h.577a2.9,2.9,0,1,1,0,5.8H93.27v.614a3.885,3.885,0,0,0,3.881,3.881H119.63a3.885,3.885,0,0,0,3.881-3.881Zm-10.2-15.583a2.485,2.485,0,0,1,1.769.73l1.867,1.867a2.506,2.506,0,0,1,0,3.539c-.12.12-.226.229-.324.329a5.863,5.863,0,0,1-1.818,1.387,3.728,3.728,0,0,1-1.714.389c-2.706,0-6.092-2.368-8.661-4.937-3.455-3.455-6.335-8.137-4.976-10.8a5.846,5.846,0,0,1,1.387-1.817c.1-.1.209-.2.329-.324a2.508,2.508,0,0,1,3.539,0l1.867,1.867a2.506,2.506,0,0,1,0,3.539l-.446.446a.206.206,0,0,0,0,.289L110.8,41.07a.208.208,0,0,0,.289,0l.446-.446a2.5,2.5,0,0,1,1.771-.73Z" transform="translate(-34.107)" fill="#d4d7da" stroke="#b3b4b6" stroke-width="1" fill-rule="evenodd"/>
    <path id="Path_33579" data-name="Path 33579" d="M192.063,165.242l-4.676-4.676a1.875,1.875,0,0,1,0-2.647l.446-.446a.84.84,0,0,0,0-1.181l-1.867-1.867a.835.835,0,0,0-1.181,0l-.344.339a4.259,4.259,0,0,0-1.065,1.381c-.794,1.559,1.257,5.453,4.669,8.866,3.332,3.331,6.8,5.076,8.438,4.242a4.261,4.261,0,0,0,1.381-1.066c.1-.1.213-.218.339-.344a.839.839,0,0,0,0-1.181l-1.867-1.867a.836.836,0,0,0-1.181,0l-.446.446A1.874,1.874,0,0,1,192.063,165.242Z" transform="translate(-116.544 -122.992)" fill="#b3b4b6" stroke="#b3b4b6" stroke-width="1" fill-rule="evenodd"/>
    <path id="Path_33580" data-name="Path 33580" d="M57.292,96.363h2.449a1.232,1.232,0,1,0,0-2.463H57.292a1.232,1.232,0,1,0,0,2.463Z" transform="translate(0 -67.738)" fill="#b3b4b6" stroke="#b3b4b6" stroke-width="1" fill-rule="evenodd"/>
    <path id="Path_33581" data-name="Path 33581" d="M59.741,192.12H57.292a1.232,1.232,0,1,0,0,2.463h2.449a1.232,1.232,0,1,0,0-2.463Z" transform="translate(0 -157.768)" fill="#b3b4b6" stroke="#b3b4b6" stroke-width="1" fill-rule="evenodd"/>
    <path id="Path_33582" data-name="Path 33582" d="M59.741,290.34H57.292a1.232,1.232,0,1,0,0,2.463h2.449a1.232,1.232,0,1,0,0-2.463Z" transform="translate(0 -247.798)" fill="#b3b4b6" stroke="#b3b4b6" stroke-width="1" fill-rule="evenodd"/>
    <path id="Path_33583" data-name="Path 33583" d="M59.741,388.56H57.292a1.232,1.232,0,1,0,0,2.463h2.449a1.232,1.232,0,1,0,0-2.463Z" transform="translate(0 -337.828)" fill="#b3b4b6" stroke="#b3b4b6" stroke-width="1" fill-rule="evenodd"/>
  </g>
</svg>
