<svg xmlns="http://www.w3.org/2000/svg" width="47.938" height="43.503" viewBox="0 0 47.938 43.503">
  <g id="documentation" transform="translate(0.008 -23.672)">
    <path id="Path_33751" data-name="Path 33751" d="M31.941,34.513H23.274a.655.655,0,0,0,0,1.311h8.668a.655.655,0,1,0,0-1.311Zm5.021,3.19H23.274a.655.655,0,0,0,0,1.311H36.963a.655.655,0,0,0,0-1.311Zm0,3.187H23.274a.656.656,0,0,0,0,1.312H36.963a.656.656,0,0,0,0-1.312Zm0,3.188H23.274a.655.655,0,0,0,0,1.311H36.963a.655.655,0,0,0,0-1.311ZM20.45,57.294H14.056a.656.656,0,1,0,0,1.312H20.45a.656.656,0,0,0,0-1.312ZM31.941,34.513H23.274a.655.655,0,0,0,0,1.311h8.668a.655.655,0,1,0,0-1.311Zm5.021,9.565H23.274a.655.655,0,0,0,0,1.311H36.963a.655.655,0,0,0,0-1.311Zm0-3.188H23.274a.656.656,0,0,0,0,1.312H36.963a.656.656,0,0,0,0-1.312Zm0-3.187H23.274a.655.655,0,0,0,0,1.311H36.963a.655.655,0,0,0,0-1.311Zm2.019,24.068H14.056a.656.656,0,1,0,0,1.312H38.982a.656.656,0,0,0,0-1.312Zm6.043-12.626a.656.656,0,0,0-.927,0L40.532,52.71l-1.256-1.256a.655.655,0,0,0-.927.927l1.72,1.72a.655.655,0,0,0,.927,0l4.029-4.029a.656.656,0,0,0,0-.927Zm0,0a.656.656,0,0,0-.927,0L40.532,52.71l-1.256-1.256a.655.655,0,0,0-.927.927l1.72,1.72a.655.655,0,0,0,.927,0l4.029-4.029a.656.656,0,0,0,0-.927ZM38.982,61.771H14.056a.656.656,0,1,0,0,1.312H38.982a.656.656,0,0,0,0-1.312ZM20.45,57.294H14.056a.656.656,0,1,0,0,1.312H20.45a.656.656,0,0,0,0-1.312ZM36.963,37.7H23.274a.655.655,0,0,0,0,1.311H36.963a.655.655,0,0,0,0-1.311Zm0,3.187H23.274a.656.656,0,0,0,0,1.312H36.963a.656.656,0,0,0,0-1.312Zm0,3.188H23.274a.655.655,0,0,0,0,1.311H36.963a.655.655,0,0,0,0-1.311Zm-5.021-9.565H23.274a.655.655,0,0,0,0,1.311h8.668a.655.655,0,1,0,0-1.311ZM20.45,57.294H14.056a.656.656,0,1,0,0,1.312H20.45a.656.656,0,0,0,0-1.312ZM31.941,34.513H23.274a.655.655,0,0,0,0,1.311h8.668a.655.655,0,1,0,0-1.311Zm5.021,9.565H23.274a.655.655,0,0,0,0,1.311H36.963a.655.655,0,0,0,0-1.311Zm0-3.188H23.274a.656.656,0,0,0,0,1.312H36.963a.656.656,0,0,0,0-1.312Zm0-3.187H23.274a.655.655,0,0,0,0,1.311H36.963a.655.655,0,0,0,0-1.311Zm2.019,24.068H14.056a.656.656,0,1,0,0,1.312H38.982a.656.656,0,0,0,0-1.312Zm6.043-12.626a.656.656,0,0,0-.927,0L40.532,52.71l-1.256-1.256a.655.655,0,0,0-.927.927l1.72,1.72a.655.655,0,0,0,.927,0l4.029-4.029a.656.656,0,0,0,0-.927Zm0,0a.656.656,0,0,0-.927,0L40.532,52.71l-1.256-1.256a.655.655,0,0,0-.927.927l1.72,1.72a.655.655,0,0,0,.927,0l4.029-4.029a.656.656,0,0,0,0-.927ZM38.982,61.771H14.056a.656.656,0,1,0,0,1.312H38.982a.656.656,0,0,0,0-1.312ZM14.056,58.606H20.45a.656.656,0,0,0,0-1.312H14.056a.656.656,0,1,0,0,1.312Zm9.217-19.592H36.963a.655.655,0,0,0,0-1.311H23.274a.655.655,0,0,0,0,1.311ZM36.963,40.89H23.274a.656.656,0,0,0,0,1.312H36.963a.656.656,0,0,0,0-1.312Zm0,3.188H23.274a.655.655,0,0,0,0,1.311H36.963a.655.655,0,0,0,0-1.311ZM23.274,35.824h8.668a.655.655,0,1,0,0-1.311H23.274a.655.655,0,0,0,0,1.311ZM41.687,45.38a6.135,6.135,0,0,0-.855.061V35.9a.659.659,0,0,0-.192-.463L35.412,30.2a.657.657,0,0,0-.463-.192H30.887l-2.575-5.648a.654.654,0,0,0-.868-.325L18.951,27.91l-4.715-4.078a.656.656,0,0,0-.925.066L.15,39.116a.657.657,0,0,0,.067.925l9.02,7.8V63.568a3.611,3.611,0,0,0,3.606,3.607H40.2A3.611,3.611,0,0,0,43.8,63.568V57.5A6.242,6.242,0,0,0,41.687,45.38ZM35.6,32.25l2.99,2.989H36.122a.518.518,0,0,1-.518-.517Zm-1.311-.928v3.4a1.83,1.83,0,0,0,1.828,1.828h3.4v9.217a6.265,6.265,0,0,0-2.8,2.072H24.765c-.586,0-1.026-.387-1.585-.933L20.716,44.5V31.323ZM19.071,29.3a.711.711,0,0,0,.077-.035L27.392,25.5l2.054,4.508H20.06a.656.656,0,0,0-.655.655V43.249a2.98,2.98,0,0,0-1.934-.783H14.457L10.281,33.3ZM9.238,45.545v.563l-7.666-6.63,12.3-14.226,3.765,3.256-8.5,3.874a.656.656,0,0,0-.324.869l4.2,9.215h-.7a3.083,3.083,0,0,0-3.081,3.078ZM42.491,63.568a2.3,2.3,0,0,1-2.3,2.3H12.844a2.3,2.3,0,0,1-2.3-2.3V45.545a1.771,1.771,0,0,1,1.77-1.768H17.47c.586,0,1.009.37,1.588.933l.526.515.035.034,2.645,2.586a3.586,3.586,0,0,0,2.5,1.307H35.956a6.239,6.239,0,0,0,5.731,8.713,6.341,6.341,0,0,0,.8-.053Zm-.8-7.014a4.931,4.931,0,1,1,4.931-4.931,4.931,4.931,0,0,1-4.931,4.931Zm3.338-7.408a.656.656,0,0,0-.927,0L40.532,52.71l-1.256-1.256a.655.655,0,0,0-.927.927l1.72,1.72a.655.655,0,0,0,.927,0l4.029-4.029a.656.656,0,0,0,0-.927ZM38.982,61.771H14.056a.656.656,0,1,0,0,1.312H38.982a.656.656,0,1,0,0-1.312ZM23.274,39.014H36.963a.655.655,0,0,0,0-1.311H23.274a.655.655,0,0,0,0,1.311Zm0,3.188H36.963a.656.656,0,0,0,0-1.312H23.274a.656.656,0,0,0,0,1.312Zm0,3.187H36.963a.655.655,0,0,0,0-1.311H23.274a.655.655,0,0,0,0,1.311Zm0-9.565h8.668a.655.655,0,1,0,0-1.311H23.274a.655.655,0,0,0,0,1.311ZM14.056,58.606H20.45a.656.656,0,0,0,0-1.312H14.056a.656.656,0,1,0,0,1.312ZM31.941,34.513H23.274a.655.655,0,0,0,0,1.311h8.668a.655.655,0,1,0,0-1.311Zm5.021,9.565H23.274a.655.655,0,0,0,0,1.311H36.963a.655.655,0,0,0,0-1.311Zm0-3.188H23.274a.656.656,0,0,0,0,1.312H36.963a.656.656,0,0,0,0-1.312Zm0-3.187H23.274a.655.655,0,0,0,0,1.311H36.963a.655.655,0,0,0,0-1.311ZM20.45,57.294H14.056a.656.656,0,1,0,0,1.312H20.45a.656.656,0,0,0,0-1.312Zm18.532,4.477H14.056a.656.656,0,1,0,0,1.312H38.982a.656.656,0,0,0,0-1.312Zm6.043-12.626a.656.656,0,0,0-.927,0L40.532,52.71l-1.256-1.256a.655.655,0,0,0-.927.927l1.72,1.72a.655.655,0,0,0,.927,0l4.029-4.029a.656.656,0,0,0,0-.927Zm0,0a.656.656,0,0,0-.927,0L40.532,52.71l-1.256-1.256a.655.655,0,0,0-.927.927l1.72,1.72a.655.655,0,0,0,.927,0l4.029-4.029a.656.656,0,0,0,0-.927ZM38.982,61.771H14.056a.656.656,0,1,0,0,1.312H38.982a.656.656,0,0,0,0-1.312ZM36.963,37.7H23.274a.655.655,0,0,0,0,1.311H36.963a.655.655,0,0,0,0-1.311Zm0,3.187H23.274a.656.656,0,0,0,0,1.312H36.963a.656.656,0,0,0,0-1.312Zm0,3.188H23.274a.655.655,0,0,0,0,1.311H36.963a.655.655,0,0,0,0-1.311Zm-5.021-9.565H23.274a.655.655,0,0,0,0,1.311h8.668a.655.655,0,1,0,0-1.311ZM20.45,57.294H14.056a.656.656,0,1,0,0,1.312H20.45a.656.656,0,0,0,0-1.312ZM31.941,34.513H23.274a.655.655,0,0,0,0,1.311h8.668a.655.655,0,1,0,0-1.311Zm5.021,9.565H23.274a.655.655,0,0,0,0,1.311H36.963a.655.655,0,0,0,0-1.311Zm0-3.188H23.274a.656.656,0,0,0,0,1.312H36.963a.656.656,0,0,0,0-1.312Zm0-3.187H23.274a.655.655,0,0,0,0,1.311H36.963a.655.655,0,0,0,0-1.311ZM20.45,57.294H14.056a.656.656,0,1,0,0,1.312H20.45a.656.656,0,0,0,0-1.312Zm18.532,4.477H14.056a.656.656,0,1,0,0,1.312H38.982a.656.656,0,0,0,0-1.312Zm6.043-12.626a.656.656,0,0,0-.927,0L40.532,52.71l-1.256-1.256a.655.655,0,0,0-.927.927l1.72,1.72a.655.655,0,0,0,.927,0l4.029-4.029a.656.656,0,0,0,0-.927Zm0,0a.656.656,0,0,0-.927,0L40.532,52.71l-1.256-1.256a.655.655,0,0,0-.927.927l1.72,1.72a.655.655,0,0,0,.927,0l4.029-4.029a.656.656,0,0,0,0-.927ZM38.982,61.771H14.056a.656.656,0,1,0,0,1.312H38.982a.656.656,0,0,0,0-1.312ZM20.45,57.294H14.056a.656.656,0,1,0,0,1.312H20.45a.656.656,0,0,0,0-1.312Z" transform="translate(0 0)" fill="#b3b4b7"/>
    <path id="Path_33752" data-name="Path 33752" d="M114.067,60.2,109.89,51.04l8.79-4.007a.713.713,0,0,0,.077-.035L127,43.24l2.054,4.508h-9.387a.656.656,0,0,0-.655.655V60.986a2.98,2.98,0,0,0-1.934-.783ZM142.1,75.548V81.3a2.3,2.3,0,0,1-2.3,2.3H112.453a2.3,2.3,0,0,1-2.3-2.3V63.281a1.771,1.771,0,0,1,1.77-1.768h5.151c.586,0,1.009.37,1.588.933l.526.515.035.034,2.645,2.586a3.586,3.586,0,0,0,2.5,1.307h11.191A6.239,6.239,0,0,0,141.3,75.6,6.34,6.34,0,0,0,142.1,75.548Zm-29.09.138a.656.656,0,0,0,.655.656h6.394a.656.656,0,0,0,0-1.312h-6.394A.656.656,0,0,0,113.01,75.685Zm26.237,4.477a.656.656,0,0,0-.656-.655H113.666a.656.656,0,0,0,0,1.312h24.926A.656.656,0,0,0,139.248,80.163Zm-3.517-27.187H138.2l-2.99-2.989v2.473A.518.518,0,0,0,135.731,52.976Z" transform="translate(-99.609 -17.736)" fill="#d4d7da"/>
  </g>
</svg>
