<svg xmlns="http://www.w3.org/2000/svg" width="38.14" height="37.616" viewBox="0 0 38.14 37.616">
  <g id="education" transform="translate(0.25 -0.654)">
    <path id="Path_33596" data-name="Path 33596" d="M34.7,24.576l.118-.157V18.831L25.41,22.6,16,18.831v5.588l.118.157c.1.13,2.46,3.176,9.292,3.176s9.2-3.046,9.292-3.176Z" transform="translate(-6.59 -7.376)" fill="#d4d7da" stroke="#b3b4b6" stroke-width="0.5"/>
    <path id="Path_33597" data-name="Path 33597" d="M36.758,55.234H5a3.235,3.235,0,1,1,0-6.469H36.758a.882.882,0,1,0,0-1.764H5A5,5,0,0,0,5,57H36.758a.882.882,0,1,0,0-1.764Z" transform="translate(0 -18.978)" fill="#d4d7da" stroke="#b3b4b6" stroke-width="0.5"/>
    <path id="Path_33598" data-name="Path 33598" d="M5,54.058a2.058,2.058,0,0,0,2.058,2.058H38.817V52H7.058A2.058,2.058,0,0,0,5,54.058Z" transform="translate(-2.059 -21.037)" fill="#d4d7da" stroke="#b3b4b6" stroke-width="0.5"/>
    <circle id="Ellipse_4085" data-name="Ellipse 4085" cx="1.47" cy="1.47" r="1.47" transform="translate(29.7 13.025)" fill="#d4d7da" stroke="#b3b4b6" stroke-width="0.5"/>
    <path id="Path_33599" data-name="Path 33599" d="M30.39,10.034l-10-3.811.419-1.1L32,9.39l4.879-1.952L20.594.923,4.308,7.438l16.286,6.515Z" transform="translate(-1.774 0)" fill="#d4d7da" stroke="#b3b4b6" stroke-width="0.5"/>
    <path id="Path_33600" data-name="Path 33600" d="M50.622,16.714v1.136a2.47,2.47,0,0,1,1.176,0V15.9l-1.531-.583-1.612.645Z" transform="translate(-20.04 -5.93)" fill="#d4d7da" stroke="#b3b4b6" stroke-width="0.5"/>
    <path id="Path_33601" data-name="Path 33601" d="M9,37.176a1.176,1.176,0,0,0,1.176,1.176H31.725L32.117,36H10.176A1.176,1.176,0,0,0,9,37.176Z" transform="translate(-3.707 -14.447)" fill="#d4d7da" stroke="#b3b4b6" stroke-width="0.5"/>
    <path id="Path_33602" data-name="Path 33602" d="M53.529,33.989l-.955-5.727a2.411,2.411,0,0,1-1.62,0L50,33.989Z" transform="translate(-20.594 -11.26)" fill="#d4d7da" stroke="#b3b4b6" stroke-width="0.5"/>
    <path id="Path_33603" data-name="Path 33603" d="M8.117,39.234H33.7a.882.882,0,1,0,0-1.764H8.117a2.352,2.352,0,0,1,0-4.7H13.81A10.079,10.079,0,0,1,10.9,31H8.117a4.117,4.117,0,1,0,0,8.234Z" transform="translate(-1.648 -12.388)" fill="#d4d7da" stroke="#b3b4b6" stroke-width="0.5"/>
    <path id="Path_33604" data-name="Path 33604" d="M46.743,31h-.515a10.077,10.077,0,0,1-2.907,1.764h3.128Z" transform="translate(-17.843 -12.388)" fill="#d4d7da" stroke="#b3b4b6" stroke-width="0.5"/>
  </g>
</svg>
