<svg xmlns="http://www.w3.org/2000/svg" width="44.095" height="44.122" viewBox="0 0 44.095 44.122">
  <path id="employment" d="M52.179,36.47a1.39,1.39,0,0,1-1.386,1.386H35.261a1.39,1.39,0,0,1-1.386-1.386V32.139a3.3,3.3,0,0,0,1.924.618h5.3v.405a.381.381,0,0,0,.379.379h3.1a.381.381,0,0,0,.379-.379v-.405h5.3a3.3,3.3,0,0,0,1.924-.618Zm-36.53-2.263H32.482q0-4.491,0-8.983a2.19,2.19,0,0,1,.237-.9A11.6,11.6,0,0,0,26.5,22.512,11.734,11.734,0,0,0,14.835,33.33a.813.813,0,0,0,.814.877ZM26.5,21.641a6.321,6.321,0,1,0-6.321-6.321A6.321,6.321,0,0,0,26.5,21.641Zm7.378,7.8V25.318a.816.816,0,0,1,.813-.813h4.04V22.946a1.79,1.79,0,0,1,1.787-1.787h5.021a1.791,1.791,0,0,1,1.787,1.787V24.5h4.04a.816.816,0,0,1,.813.813v4.121a1.93,1.93,0,0,1-1.924,1.924H35.8a1.93,1.93,0,0,1-1.924-1.924ZM40.123,24.5h5.809V22.946a.4.4,0,0,0-.394-.394H40.516a.4.4,0,0,0-.394.394Zm-1.39,4.514a.175.175,0,0,0,.174.174h8.24a.175.175,0,0,0,.174-.174V26.849a.175.175,0,0,0-.174-.174h-8.24a.175.175,0,0,0-.174.174Zm4.146,11.7L33.445,44.2a3.738,3.738,0,0,1-5.277,2.918l-5.131-2.391a.7.7,0,1,1,.588-1.263l5.131,2.391a2.343,2.343,0,0,0,3.108-1.132,3.047,3.047,0,0,0-1.469-4.033l-9.605-4.475A4.208,4.208,0,0,0,17,36.555l-2.628,1.379L15.4,49.129a5.417,5.417,0,0,1,4.165.123l5.544,2.316a5.009,5.009,0,0,0,3.8.15l15.867-5.852a2.744,2.744,0,0,0-1.9-5.149ZM12.9,37.167a.606.606,0,0,0-.657-.547l-2.508.23a.606.606,0,0,0-.547.657l1.246,13.571a.606.606,0,0,0,.657.547l2.508-.23a.606.606,0,0,0,.547-.657Z" transform="translate(-8.634 -8.45)" fill="#d4d7da" stroke="#b3b4b6" stroke-width="1.1"/>
</svg>
