<svg xmlns="http://www.w3.org/2000/svg" width="46.658" height="46.65" viewBox="0 0 46.658 46.65">
  <g id="family" transform="translate(-0.497 -0.4)">
    <path id="Path_33584" data-name="Path 33584" d="M45.285,48.611a.879.879,0,0,1-.285.57L46.068,57.3A2.505,2.505,0,0,1,45,59.649a2,2,0,0,0,2.279-1.78l1.211-9.97a14.473,14.473,0,0,1-3.062-.5Z" transform="translate(-12.667 -13.386)" fill="#d4d7da" stroke="#b3b4b6" stroke-width="1"/>
    <path id="Path_33585" data-name="Path 33585" d="M56.488,46.9a15.231,15.231,0,0,1-3.988.783l1.211,9.97a2.045,2.045,0,0,0,4.059-.5Z" transform="translate(-14.826 -13.242)" fill="#d4d7da" stroke="#b3b4b6" stroke-width="1"/>
    <circle id="Ellipse_4084" data-name="Ellipse 4084" cx="3.917" cy="3.917" r="3.917" transform="translate(7.053 0.9)" fill="#d4d7da" stroke="#b3b4b6" stroke-width="1"/>
    <path id="Path_33586" data-name="Path 33586" d="M15.669,41.217a8.209,8.209,0,0,1-1.282-.712l1-4.985a1.688,1.688,0,0,1-2.492-2.136c0-.071,2.92-5.911,2.706-5.555a1.809,1.809,0,0,1,.926-.855c.071-1.068.427-5.768.427-5.412.071.356.214.641.285,1a2.844,2.844,0,0,1,2.421-1.424,39.241,39.241,0,0,0-1.923-5.27c-1.923-4.2-12.462-3.276-13.886.071A34.225,34.225,0,0,0,1,27.473a1.355,1.355,0,0,0,2.706.142,28.277,28.277,0,0,1,1.068-6.2l1,13.1c0,.214.214.356.427.427L4.7,47.484a2.045,2.045,0,0,0,4.059.5l1.5-13.032H11.4l1.567,12.961a2.034,2.034,0,0,0,3.347,1.282,2,2,0,0,1-.712-1.5v-6.48Z" transform="translate(0 -3.5)" fill="#d4d7da" stroke="#b3b4b6" stroke-width="1"/>
    <path id="Path_33587" data-name="Path 33587" d="M55.586,24.622a16.788,16.788,0,0,0-1.923-5.483v2.777l2.564,12.961a14.781,14.781,0,0,1-11.75,1.638c.071-.855-.214,3.133.641-8.4a7.011,7.011,0,0,0,3.632-5.839,2.037,2.037,0,1,0-4.059-.356,3.2,3.2,0,0,1-.855,2.208c-.285-.142-.641-.285-.926-.427l.285-1.5A3.649,3.649,0,0,0,41.7,17c1.78-3.489,1.353-3.062,2.065-3.489a9.809,9.809,0,0,1,8.688-.356c2.706,1.139,5.483,8.118,5.911,11.038a1.405,1.405,0,0,1-2.777.427Z" transform="translate(-11.717 -3.284)" fill="#d4d7da" stroke="#b3b4b6" stroke-width="1"/>
    <path id="Path_33588" data-name="Path 33588" d="M49.417,8.733a3.905,3.905,0,0,0,3.917-3.917,3.917,3.917,0,0,0-7.833,0A3.951,3.951,0,0,0,49.417,8.733Z" transform="translate(-12.811)" fill="#d4d7da" stroke="#b3b4b6" stroke-width="1"/>
    <path id="Path_33589" data-name="Path 33589" d="M38.22,25.382a2.947,2.947,0,0,0,2.92-2.991,3.1,3.1,0,0,0-1.709-2.706A3.355,3.355,0,0,0,38.22,19.4a2.888,2.888,0,0,0-2.92,2.92,3.012,3.012,0,0,0,2.92,3.062Z" transform="translate(-9.875 -5.326)" fill="#d4d7da" stroke="#b3b4b6" stroke-width="1"/>
    <path id="Path_33590" data-name="Path 33590" d="M41.709,50.689l-1.068-7.9-.071-.641a.306.306,0,0,0,.285-.285c.641-7.549.855-10.753.855-10.682a6.072,6.072,0,0,0,3.561-5.483,1.361,1.361,0,1,0-2.706-.285,3.644,3.644,0,0,1-1.5,2.991,8.845,8.845,0,0,0-2.991-1.068,3.744,3.744,0,0,1-1.709,0,5.341,5.341,0,0,0-2.279.712c-.855.427-2.136,1.353-1.994,2.208a1.411,1.411,0,0,1,.783.783c0,.071,2.92,5.911,2.706,5.555a1.661,1.661,0,0,1-2.136,2.279c0,.071.214,3.133.214,2.92a.306.306,0,0,0,.285.285c-1.282,9.329-1.139,8.546-1.139,8.546a1.687,1.687,0,1,0,3.347.427l.712-5.27.356,2.564.356,2.849A2.38,2.38,0,0,0,41.14,52.9a2.1,2.1,0,0,1-.926-.356,1.616,1.616,0,0,0,1.5-1.852Z" transform="translate(-8.949 -6.705)" fill="#d4d7da" stroke="#b3b4b6" stroke-width="1"/>
    <path id="Path_33591" data-name="Path 33591" d="M22.4,53l.071.427V59.2a1.353,1.353,0,0,0,2.706,0V53.641A9.806,9.806,0,0,1,22.4,53h0Z" transform="translate(-6.161 -14.998)" fill="#d4d7da" stroke="#b3b4b6" stroke-width="1"/>
    <path id="Path_33592" data-name="Path 33592" d="M32.506,61.07c.5-.783.214-1.353.285-5.27l-.5,3.917A3,3,0,0,0,32.506,61.07Z" transform="translate(-9.003 -15.804)" fill="#d4d7da" stroke="#b3b4b6" stroke-width="1"/>
    <path id="Path_33593" data-name="Path 33593" d="M28.3,59.2a1.353,1.353,0,0,0,2.706,0V53a8.835,8.835,0,0,1-2.706.641Z" transform="translate(-7.859 -14.998)" fill="#d4d7da" stroke="#b3b4b6" stroke-width="1"/>
    <path id="Path_33594" data-name="Path 33594" d="M24,27.65c0,3.062,4.7,3.062,4.7,0a2.35,2.35,0,0,0-4.7,0Z" transform="translate(-6.622 -7.024)" fill="#d4d7da" stroke="#b3b4b6" stroke-width="1"/>
    <path id="Path_33595" data-name="Path 33595" d="M29.413,45.817c0-.071-1.638-8.261-1.5-7.762V37.2c0,.071,1.5,3.062,1.5,2.991a1.035,1.035,0,0,0,1.852-.926c-2.92-5.911-2.492-5.911-4.486-6.552-.285-.071-.5-.142-.783-.214a2.952,2.952,0,0,1-2.208,0,8.444,8.444,0,0,0-1.994.712.831.831,0,0,0-.427.427c-4.7,9.542.285-.57-2.706,5.555a.988.988,0,0,0,.285,1.211,1.045,1.045,0,0,0,1.567-.356c.285-.641,1.424-2.92,1.353-2.777v.641c-1.282,6.48-1.567,7.833-1.5,7.762A8.192,8.192,0,0,0,29.413,45.817Z" transform="translate(-5.055 -9.097)" fill="#d4d7da" stroke="#b3b4b6" stroke-width="1"/>
  </g>
</svg>
