<svg xmlns="http://www.w3.org/2000/svg" width="36.103" height="25.788" viewBox="0 0 36.103 25.788">
  <g id="Group_14110" data-name="Group 14110" transform="translate(-56 -204)">
    <rect id="Rectangle_5286" data-name="Rectangle 5286" width="32.745" height="20.99" transform="translate(57.679 206.519)" fill="#d4d7da"/>
    <g id="contact-card" transform="translate(56 204)">
      <g id="Layer2" transform="translate(0 0)">
        <path id="Path_33577" data-name="Path 33577" d="M34.235,68.788H5.868A3.87,3.87,0,0,1,2,64.92V46.868A3.87,3.87,0,0,1,5.868,43H34.235A3.87,3.87,0,0,1,38.1,46.868V64.92a3.87,3.87,0,0,1-3.868,3.868Zm0-2.579a1.29,1.29,0,0,0,1.289-1.289V46.868a1.29,1.29,0,0,0-1.289-1.289H5.868a1.29,1.29,0,0,0-1.289,1.289V64.92a1.29,1.29,0,0,0,1.289,1.289ZM23.92,52.026a1.289,1.289,0,1,1,0-2.579h7.736a1.289,1.289,0,0,1,0,2.579Zm-7.228,4.655a6.449,6.449,0,0,1,3.36,5.661,1.289,1.289,0,0,1-2.579,0,3.868,3.868,0,0,0-7.736,0,1.289,1.289,0,0,1-2.579,0,6.449,6.449,0,0,1,3.36-5.661,4.728,4.728,0,1,1,6.174,0ZM13.6,50.952A2.149,2.149,0,1,0,15.754,53.1,2.149,2.149,0,0,0,13.6,50.952ZM23.92,62.341a1.289,1.289,0,1,1,0-2.579h7.736a1.289,1.289,0,1,1,0,2.579Zm0-5.158a1.289,1.289,0,1,1,0-2.579h7.736a1.289,1.289,0,0,1,0,2.579Z" transform="translate(-2 -43)" fill="#b3b4b6" fill-rule="evenodd"/>
      </g>
    </g>
  </g>
</svg>
