<svg xmlns="http://www.w3.org/2000/svg" width="40.436" height="48.83" viewBox="0 0 40.436 48.83">
  <g id="Group_14112" data-name="Group 14112" transform="translate(-227.555 -337.17)">
    <path id="Path_33619" data-name="Path 33619" d="M0,0H30V20.75h4.625l.875,8.125L28.625,36H0Z" transform="translate(230 340)" fill="#d4d7da"/>
    <g id="certificate" transform="translate(183.544 337.17)">
      <path id="Path_33614" data-name="Path 33614" d="M77.58,20.317v-17A3.317,3.317,0,0,0,74.267,0H47.325a3.317,3.317,0,0,0-3.314,3.314V38.648a3.317,3.317,0,0,0,3.314,3.314H67.662V47.3a1.527,1.527,0,0,0,2.283,1.325l4.584-2.619c5.062,2.893,4.8,2.82,5.341,2.82A1.527,1.527,0,0,0,81.395,47.3V36.9A9.92,9.92,0,0,0,77.58,20.317ZM47.325,38.91a.262.262,0,0,1-.262-.262V3.314a.262.262,0,0,1,.262-.262H74.267a.262.262,0,0,1,.262.262V19.836A9.913,9.913,0,0,0,67.662,36.9V38.91Zm31.019,5.763-3.058-1.747a1.526,1.526,0,0,0-1.514,0l-3.058,1.747V38.909a9.908,9.908,0,0,0,7.629,0v5.763Zm-3.815-8.052a6.866,6.866,0,1,1,6.866-6.866A6.874,6.874,0,0,1,74.529,36.621Z" transform="translate(0 0)" fill="#b3b4b7"/>
      <path id="Path_33615" data-name="Path 33615" d="M319.822,280.628c-.6,0-.672-.141-3.134-1.782a1.526,1.526,0,0,1,1.693-2.539l1.019.68,2.205-3.308a1.526,1.526,0,0,1,2.539,1.693l-3.052,4.578A1.525,1.525,0,0,1,319.822,280.628Z" transform="translate(-246.058 -246.963)" fill="#b3b4b7"/>
      <path id="Path_33616" data-name="Path 33616" d="M138.507,83.052h-12.97a1.526,1.526,0,0,1,0-3.052h12.97a1.526,1.526,0,0,1,0,3.052Z" transform="translate(-72.371 -72.371)" fill="#b3b4b7"/>
      <path id="Path_33617" data-name="Path 33617" d="M138.507,147.052h-12.97a1.526,1.526,0,0,1,0-3.052h12.97a1.526,1.526,0,0,1,0,3.052Z" transform="translate(-72.371 -130.267)" fill="#b3b4b7"/>
      <path id="Path_33618" data-name="Path 33618" d="M133.166,211.052h-7.629a1.526,1.526,0,1,1,0-3.052h7.629a1.526,1.526,0,1,1,0,3.052Z" transform="translate(-72.371 -188.164)" fill="#b3b4b7"/>
    </g>
  </g>
</svg>
