<svg xmlns="http://www.w3.org/2000/svg" width="36.229" height="43.342" viewBox="0 0 36.229 43.342">
  <g id="Group_14115" data-name="Group 14115" transform="translate(-98.35 -439)">
    <g id="Group_14114" data-name="Group 14114" transform="translate(98.35 439)">
      <g id="Layer_x0020_1">
        <path id="Path_33620" data-name="Path 33620" d="M320.231,190.342H290a2.982,2.982,0,0,1-3-2.972V170.424a3,3,0,0,1,1.118-2.337l5.157-5.157V149.922A2.922,2.922,0,0,1,296.2,147h17.835a2.922,2.922,0,0,1,2.922,2.922v13.008l5.132,5.132a3.038,3.038,0,0,1,1.143,2.363V187.37A2.982,2.982,0,0,1,320.231,190.342Zm-13.592-8.765H303.59a.6.6,0,0,1,0-1.194h3.049A.6.6,0,0,1,306.639,181.577Zm1.7-2.388h-6.453a.6.6,0,0,1,0-1.194h6.453A.6.6,0,0,1,308.341,179.189Zm3.531-2.388H298.356a.6.6,0,0,1,0-1.194h13.516A.6.6,0,0,1,311.872,176.8Zm0-2.388H298.356a.584.584,0,1,1,0-1.169h13.516A.584.584,0,0,1,311.872,174.413Zm0-2.363H298.356a.6.6,0,0,1,0-1.194h13.516A.6.6,0,0,1,311.872,172.05Zm-21.417-4.624h2.82v-2.82Zm26.5-2.82v2.82h2.82Zm-22.509-1.5c.127,1.042-.076,11.128.025,11.306l8.816,8.841a2.623,2.623,0,0,0,3.658,0l8.816-8.841c.076-.178-.076-10.086,0-11.331v-13.16a1.735,1.735,0,0,0-1.728-1.753H296.2a1.757,1.757,0,0,0-1.753,1.753Zm10.67,22.1a3.748,3.748,0,0,1-2.668-1.118l-14.176-14.2a1.933,1.933,0,0,0-.076.534v9.6h5.767a.6.6,0,0,1,0,1.194h-5.767v4.014h10.975a.6.6,0,0,1,0,1.194H288.194v.94a1.794,1.794,0,0,0,1.8,1.8h30.233a1.811,1.811,0,0,0,1.8-1.8v-.94H311.059a.6.6,0,0,1,0-1.194h10.975v-4.014h-5.767a.6.6,0,0,1,0-1.194h5.767v-9.6a1.935,1.935,0,0,0-.076-.534l-14.176,14.2A3.748,3.748,0,0,1,305.114,185.21Zm11.839-16.59v4.6l4.294-4.294a1.832,1.832,0,0,0-1.016-.3Zm-27.972.3,4.294,4.319V168.62c-.635,0-3.15-.076-3.684.025A1.675,1.675,0,0,0,288.982,168.925Z" transform="translate(-287 -147)" fill="#b3b4b7" fill-rule="evenodd"/>
        <g id="Group_14113" data-name="Group 14113" transform="translate(1.194 1.169)">
          <path id="Path_33621" data-name="Path 33621" d="M838,908.414h8.257L846.231,906l-8.231.025Z" transform="translate(-825.195 -887.886)" fill="#d4d7da" fill-rule="evenodd"/>
          <path id="Path_33622" data-name="Path 33622" d="M593.051,209.946h1.6a1.182,1.182,0,0,1,1.169,1.169v2.414a1.166,1.166,0,0,1-1.169,1.169h-8.282a1.166,1.166,0,0,1-1.169-1.169v-2.414a1.182,1.182,0,0,1,1.169-1.169h1.575a1.374,1.374,0,0,1,1.092-1.5v-1.905a4.485,4.485,0,0,1-1.6-1.194,5.449,5.449,0,0,1-4.979-5.437v-1.194a1.7,1.7,0,0,1,1.7-1.677h1.372v-.61a1.41,1.41,0,0,1,1.4-1.4l7.164.025a1.366,1.366,0,0,1,1.372,1.372v.61h1.4a1.675,1.675,0,0,1,1.677,1.677v1.194a5.447,5.447,0,0,1-4.954,5.437,4.569,4.569,0,0,1-1.626,1.194v1.905A1.353,1.353,0,0,1,593.051,209.946Zm-9.3,5.742h13.516a.6.6,0,0,1,0,1.194H583.752A.6.6,0,0,1,583.752,215.687Zm0,2.388h13.516a.584.584,0,0,1,0,1.169H583.752A.584.584,0,1,1,583.752,218.075Zm0,2.363h13.516a.6.6,0,0,1,0,1.194H583.752A.6.6,0,0,1,583.752,220.438Zm8.587,7.647,8.816-8.841c.076-.178-.076-10.086,0-11.331v-13.16A1.735,1.735,0,0,0,599.428,193H581.593a1.757,1.757,0,0,0-1.753,1.753v13.186c.127,1.042-.076,11.128.025,11.306l8.816,8.841A2.623,2.623,0,0,0,592.339,228.085Zm-5.056-5.259h6.453a.6.6,0,0,1,0,1.194h-6.453A.6.6,0,0,1,587.284,222.826Zm1.7,2.388h3.049a.6.6,0,0,1,0,1.194h-3.049A.6.6,0,0,1,588.986,225.214Z" transform="translate(-573.59 -193)" fill="#d4d7da" fill-rule="evenodd"/>
          <path id="Path_33623" data-name="Path 33623" d="M948.489,847.33c.178-.025.152-.33-.025-.33h-2.439c-.2,0-.2.279-.025.33Z" transform="translate(-930.324 -830.385)" fill="#d4d7da" fill-rule="evenodd"/>
          <path id="Path_33624" data-name="Path 33624" d="M989.559,735.7V734H989v1.7Z" transform="translate(-972.359 -720.256)" fill="#d4d7da" fill-rule="evenodd"/>
          <path id="Path_33625" data-name="Path 33625" d="M849.005,406.317h1.423c1.829-.559,3.2-3.2,3.2-6.2,0-.381-.026-.762-.051-1.118h-7.723C845.525,401.9,846.668,405.605,849.005,406.317Z" transform="translate(-832.796 -393.766)" fill="#d4d7da" fill-rule="evenodd"/>
          <path id="Path_33626" data-name="Path 33626" d="M1160.991,398.577a10.445,10.445,0,0,1-.991,5.691,4.306,4.306,0,0,0,2.795-4.014C1162.795,398.323,1162.922,398.577,1160.991,398.577Z" transform="translate(-1139.015 -393.343)" fill="#d4d7da" fill-rule="evenodd"/>
          <path id="Path_33627" data-name="Path 33627" d="M732,404.691a10.555,10.555,0,0,1-.991-5.691h-1.3c-.686,0-.508.991-.508,1.677A4.271,4.271,0,0,0,732,404.691Z" transform="translate(-719.144 -393.766)" fill="#d4d7da" fill-rule="evenodd"/>
          <path id="Path_33628" data-name="Path 33628" d="M850.376,320.813h7.571c0-.2.1-.813-.2-.813H850.58C850.275,320,850.376,320.61,850.376,320.813Z" transform="translate(-837.242 -316.773)" fill="#d4d7da" fill-rule="evenodd"/>
          <path id="Path_33629" data-name="Path 33629" d="M1466,840v2.82h2.82Z" transform="translate(-1437.241 -823.563)" fill="#d4d7da" fill-rule="evenodd"/>
          <path id="Path_33630" data-name="Path 33630" d="M1469.277,998H1466v4.6l4.294-4.294A1.833,1.833,0,0,0,1469.277,998Z" transform="translate(-1437.241 -977.548)" fill="#d4d7da" fill-rule="evenodd"/>
          <path id="Path_33631" data-name="Path 33631" d="M367.764,1048l-14.176,14.2a3.742,3.742,0,0,1-5.335,0L334.076,1048a1.934,1.934,0,0,0-.076.533v9.6h5.767a.6.6,0,0,1,0,1.194H334v4.014h10.975a.6.6,0,0,1,0,1.194H334v.94a1.794,1.794,0,0,0,1.8,1.8h30.233a1.811,1.811,0,0,0,1.8-1.8v-.94H356.865a.6.6,0,0,1,0-1.194H367.84v-4.014h-5.767a.6.6,0,0,1,0-1.194h5.767v-9.6A1.934,1.934,0,0,0,367.764,1048Z" transform="translate(-334 -1026.278)" fill="#d4d7da" fill-rule="evenodd"/>
          <path id="Path_33632" data-name="Path 33632" d="M369.294,1001.571v-4.624c-.635,0-3.15-.076-3.684.025a1.675,1.675,0,0,0-.61.28Z" transform="translate(-364.212 -976.496)" fill="#d4d7da" fill-rule="evenodd"/>
          <path id="Path_33633" data-name="Path 33633" d="M423,842.82h2.82V840Z" transform="translate(-420.739 -823.563)" fill="#d4d7da" fill-rule="evenodd"/>
        </g>
      </g>
      <rect id="Rectangle_5293" data-name="Rectangle 5293" width="17.571" height="21.085" transform="translate(8.891 2.109)" fill="#d4d7da"/>
    </g>
    <g id="team" transform="translate(110.138 442.635)">
      <path id="Path_33634" data-name="Path 33634" d="M28.45,33.935A4.852,4.852,0,0,0,25.212,32.7H22.26a4.834,4.834,0,0,0-3.238,1.24l-.01.01-.01.01A4.837,4.837,0,0,0,17.41,37.55v2.809a.433.433,0,0,0,.433.433H29.629a.433.433,0,0,0,.433-.433V37.55A4.844,4.844,0,0,0,28.45,33.935Z" transform="translate(-17.41 -24.538)" fill="#b3b4b7"/>
      <path id="Path_33639" data-name="Path 33639" d="M27.252,21.139a3.635,3.635,0,1,0-3.632-3.633,3.635,3.635,0,0,0,3.632,3.633Z" transform="translate(-20.928 -13.87)" fill="#b3b4b7"/>
    </g>
  </g>
</svg>
