<svg xmlns="http://www.w3.org/2000/svg" xmlns:xlink="http://www.w3.org/1999/xlink" width="45.924" height="45.924" viewBox="0 0 45.924 45.924">
  <defs>
    <clipPath id="clip-path">
      <path id="path465" d="M0-682.665H45.924v45.924H0Z" transform="translate(0 682.665)" fill="#b3b4b7"/>
    </clipPath>
  </defs>
  <g id="Group_14116" data-name="Group 14116" transform="translate(-15224 886.383)">
    <path id="Path_33640" data-name="Path 33640" d="M-10.5,4.011-2-5.5H18.034L23.8,1.417l1.153,34.875h-29.4L-10.5,28.51Z" transform="translate(15239.977 -878.645)" fill="#d4d7da"/>
    <g id="g459" transform="translate(15224 -886.383)">
      <g id="g461">
        <g id="g463" clip-path="url(#clip-path)">
          <g id="g469" transform="translate(3.677 0)">
            <path id="path471" d="M-423.017-20h18.836a4.041,4.041,0,0,1,4.036,4.036V16.506a4.041,4.041,0,0,1-4.036,4.036H-429.3a4.041,4.041,0,0,1-4.036-4.036V-9.685a1.345,1.345,0,0,1,.394-.951l8.969-8.969A1.345,1.345,0,0,1-423.017-20Zm18.836,37.851a1.347,1.347,0,0,0,1.345-1.345V-15.964a1.347,1.347,0,0,0-1.345-1.345H-422.46l-8.181,8.181V16.506a1.347,1.347,0,0,0,1.345,1.345Z" transform="translate(433.332 20)" fill="#b3b4b7"/>
          </g>
          <g id="g473" transform="translate(3.677 0)">
            <path id="path475" d="M-143.018-20a1.343,1.343,0,0,1,.515.1,1.345,1.345,0,0,1,.831,1.243v8.969a1.345,1.345,0,0,1-1.345,1.345h-8.969a1.345,1.345,0,0,1-1.243-.831,1.345,1.345,0,0,1,.292-1.466l8.969-8.969A1.345,1.345,0,0,1-143.018-20Zm-1.346,8.97v-4.376l-4.376,4.376Z" transform="translate(153.334 20.001)" fill="#b3b4b7"/>
          </g>
          <g id="g477" transform="translate(9.059 5.561)">
            <path id="path479" d="M-406.872-20h2.691a4.041,4.041,0,0,1,4.036,4.036v32.29a4.041,4.041,0,0,1-4.036,4.036H-429.3a4.041,4.041,0,0,1-4.036-4.036V13.635a1.345,1.345,0,0,1,1.345-1.345h22.424a1.347,1.347,0,0,0,1.345-1.345v-29.6A1.345,1.345,0,0,1-406.872-20Zm2.691,37.672a1.347,1.347,0,0,0,1.345-1.345v-32.29a1.347,1.347,0,0,0-1.345-1.345h-1.345V10.945a4.041,4.041,0,0,1-4.036,4.036h-21.078v1.345a1.347,1.347,0,0,0,1.345,1.345Z" transform="translate(433.332 20)" fill="#b3b4b7"/>
          </g>
          <g id="g481" transform="translate(19.823 10.046)">
            <path id="path483" d="M-80.836-20a5.837,5.837,0,0,1,5.83,5.83v1.794a1.345,1.345,0,0,1-1.345,1.345h-8.969a1.345,1.345,0,0,1-1.345-1.345V-14.17A5.837,5.837,0,0,1-80.836-20Zm3.139,6.279v-.448a3.143,3.143,0,0,0-3.139-3.139,3.143,3.143,0,0,0-3.139,3.139v.448Z" transform="translate(86.666 20)" fill="#b3b4b7"/>
          </g>
          <g id="g485" transform="translate(21.616 4.664)">
            <path id="path487" d="M-15.964-60a4.041,4.041,0,0,1,4.036,4.036,4.041,4.041,0,0,1-4.036,4.036A4.041,4.041,0,0,1-20-55.964,4.041,4.041,0,0,1-15.964-60Zm0,5.382a1.347,1.347,0,0,0,1.345-1.345,1.347,1.347,0,0,0-1.345-1.345,1.347,1.347,0,0,0-1.345,1.345A1.347,1.347,0,0,0-15.964-54.618Z" transform="translate(20 60)" fill="#b3b4b7"/>
          </g>
          <g id="g489" transform="translate(9.059 16.324)">
            <path id="path491" d="M-105.709-17.309h-6.279a1.345,1.345,0,0,1-1.345-1.345A1.345,1.345,0,0,1-111.988-20h6.279a1.345,1.345,0,0,1,1.345,1.345A1.345,1.345,0,0,1-105.709-17.309Z" transform="translate(113.333 20)" fill="#b3b4b7"/>
          </g>
          <g id="g493" transform="translate(9.059 21.706)">
            <path id="path495" d="M-292.254-17.309h-19.733a1.345,1.345,0,0,1-1.345-1.345A1.345,1.345,0,0,1-311.987-20h19.733a1.345,1.345,0,0,1,1.345,1.345A1.345,1.345,0,0,1-292.254-17.309Z" transform="translate(313.333 20)" fill="#b3b4b7"/>
          </g>
          <g id="g497" transform="translate(9.059 27.088)">
            <path id="path499" d="M-292.254-17.309h-19.733a1.345,1.345,0,0,1-1.345-1.345A1.345,1.345,0,0,1-311.987-20h19.733a1.345,1.345,0,0,1,1.345,1.345A1.345,1.345,0,0,1-292.254-17.309Z" transform="translate(313.333 20)" fill="#b3b4b7"/>
          </g>
          <g id="g501" transform="translate(9.059 32.469)">
            <path id="path503" d="M-292.254-17.309h-19.733a1.345,1.345,0,0,1-1.345-1.345A1.345,1.345,0,0,1-311.987-20h19.733a1.345,1.345,0,0,1,1.345,1.345A1.345,1.345,0,0,1-292.254-17.309Z" transform="translate(313.333 20)" fill="#b3b4b7"/>
          </g>
        </g>
      </g>
    </g>
  </g>
</svg>
