<svg xmlns="http://www.w3.org/2000/svg" width="43.3" height="54.272" viewBox="0 0 43.3 54.272">
  <g id="skill-development" transform="translate(-52.5 -1)">
    <path id="Path_33605" data-name="Path 33605" d="M278.716,122.344a8.926,8.926,0,0,1,.479,2.894.841.841,0,1,0,1.681,0,10.557,10.557,0,0,0-7.023-9.96.841.841,0,1,0-.564,1.586,8.81,8.81,0,0,1,5.427,5.48Z" transform="translate(-196.792 -102.072)" fill="#b3b4b6"/>
    <path id="Path_33606" data-name="Path 33606" d="M86.606,88.89A13.863,13.863,0,0,0,74.73,79.611a1.891,1.891,0,0,0-1.437.49,1.91,1.91,0,0,0-.617,1.4v29.956h-2.33a4.838,4.838,0,0,0,1.2-3.214V84.5a4.889,4.889,0,0,0-9.482-1.681,5.733,5.733,0,0,0-6.044,5.736,5.939,5.939,0,0,0,.3,1.83,6.608,6.608,0,0,0,0,11.982,5.94,5.94,0,0,0-.3,1.83,5.724,5.724,0,0,0,6.044,5.725,4.814,4.814,0,0,0,1.011,1.639,2.989,2.989,0,0,0-2.245,2.884,2.955,2.955,0,0,0,.926,2.16,3,3,0,0,0,2.064,5.161h.894v.17a3.583,3.583,0,0,0,3.576,3.576h6.364a3.583,3.583,0,0,0,3.576-3.576v-.17h.894A3,3,0,0,0,81.19,116.6a2.955,2.955,0,0,0,.926-2.16,2.993,2.993,0,0,0-2.99-2.99h-.16a10.79,10.79,0,0,1,3.639-7.609,13.7,13.7,0,0,0,4.725-9.663c.021-.266.032-.521.032-.787a13.83,13.83,0,0,0-.756-4.5ZM62.758,105.853a3.534,3.534,0,0,0-.968,2.4h-.032a4.057,4.057,0,0,1-3.586-5.949,4.859,4.859,0,0,1,1.149-1.277,4.7,4.7,0,0,1,1.66-.8.84.84,0,0,0-.415-1.628A6.314,6.314,0,0,0,58.3,99.7a6.209,6.209,0,0,0-1.181,1.181,4.931,4.931,0,0,1,.553-9.226,3.076,3.076,0,0,1,1.735-.011,3.216,3.216,0,0,1,1.49.968.86.86,0,0,0,1.192.106.832.832,0,0,0,.106-1.181,4.7,4.7,0,0,0-2.3-1.511,4.862,4.862,0,0,0-1.958-.138A4.134,4.134,0,0,1,57.7,88.55,4.053,4.053,0,0,1,61.758,84.5a3.888,3.888,0,0,1,.766.074h.021a3.7,3.7,0,0,1,1.681.766,3.758,3.758,0,0,1,.883,1.032.843.843,0,0,0,.724.415.781.781,0,0,0,.426-.117.837.837,0,0,0,.3-1.149,5.447,5.447,0,0,0-1.288-1.5,5.392,5.392,0,0,0-1.511-.841,3.2,3.2,0,0,1,6.119,1.33v23.752a3.21,3.21,0,0,1-6.364.607,2.212,2.212,0,0,1,.447-1.82,1.83,1.83,0,0,1,.564-.362.842.842,0,1,0-.6-1.575,3.064,3.064,0,0,0-1.171.745ZM76.55,121.932a1.9,1.9,0,0,1-1.894,1.894H68.292a1.9,1.9,0,0,1-1.894-1.894v-.17H76.55Zm2.575-1.852h-15.3a1.32,1.32,0,0,1,0-2.639h15.3a1.32,1.32,0,0,1,0,2.639Zm0-6.938a1.314,1.314,0,0,1,0,2.628h-15.3a1.314,1.314,0,0,1,0-2.628Zm6.534-19.059a12,12,0,0,1-4.161,8.492,12.453,12.453,0,0,0-4.235,8.875H74.347V81.5a.19.19,0,0,1,.074-.16.172.172,0,0,1,.16-.053A12.159,12.159,0,0,1,85.01,89.443a11.96,11.96,0,0,1,.67,3.969c0,.213-.011.436-.021.67Z" transform="translate(0 -70.236)" fill="#b3b4b6"/>
    <path id="Path_33607" data-name="Path 33607" d="M84.075,98.7v23.752a3.21,3.21,0,0,1-6.364.607,2.212,2.212,0,0,1,.447-1.82,1.83,1.83,0,0,1,.564-.362.842.842,0,0,0-.6-1.575,3.112,3.112,0,0,0-1.149.745,3.534,3.534,0,0,0-.968,2.4h-.032a4.057,4.057,0,0,1-3.586-5.949,4.859,4.859,0,0,1,1.149-1.277,4.7,4.7,0,0,1,1.66-.8.84.84,0,1,0-.415-1.628,6.314,6.314,0,0,0-2.267,1.1,6.209,6.209,0,0,0-1.181,1.181,4.931,4.931,0,0,1,.553-9.226,3.076,3.076,0,0,1,1.735-.011,3.216,3.216,0,0,1,1.49.968.86.86,0,0,0,1.192.106.832.832,0,0,0,.106-1.181,4.718,4.718,0,0,0-4.267-1.639,4.134,4.134,0,0,1-.234-1.341A4.053,4.053,0,0,1,75.966,98.7a3.888,3.888,0,0,1,.766.074h.021a3.7,3.7,0,0,1,1.681.766,3.758,3.758,0,0,1,.883,1.032.843.843,0,0,0,.724.415.781.781,0,0,0,.426-.117.837.837,0,0,0,.3-1.149,5.447,5.447,0,0,0-1.288-1.5,5.392,5.392,0,0,0-1.511-.841,3.195,3.195,0,0,1,6.108,1.32Z" transform="translate(-14.208 -84.443)" fill="#d4d7da"/>
    <path id="Path_33608" data-name="Path 33608" d="M164.52,436.52a1.317,1.317,0,0,1-1.309,1.32h-15.3a1.32,1.32,0,0,1,0-2.639h15.3A1.317,1.317,0,0,1,164.52,436.52Z" transform="translate(-84.086 -387.995)" fill="#d4d7da"/>
    <path id="Path_33609" data-name="Path 33609" d="M164.52,396.109a1.317,1.317,0,0,1-1.309,1.32h-15.3a1.314,1.314,0,0,1,0-2.628h15.3A1.308,1.308,0,0,1,164.52,396.109Z" transform="translate(-84.086 -351.894)" fill="#d4d7da"/>
    <g id="Group_14111" data-name="Group 14111" transform="translate(72.676 1)">
      <path id="Path_33610" data-name="Path 33610" d="M352.207,60.289l-3.884,3.884a.841.841,0,0,0,0,1.192.855.855,0,0,0,.6.245.875.875,0,0,0,.6-.245l3.884-3.884a.841.841,0,0,0,0-1.192A.861.861,0,0,0,352.207,60.289Z" transform="translate(-336.798 -53.766)" fill="#b3b4b6"/>
      <path id="Path_33611" data-name="Path 33611" d="M399.172,203.341a.836.836,0,0,0-.841-.841h-5.491a.841.841,0,1,0,0,1.681h5.491A.836.836,0,0,0,399.172,203.341Z" transform="translate(-376.048 -181.057)" fill="#b3b4b6"/>
      <path id="Path_33612" data-name="Path 33612" d="M349.514,308.822a.843.843,0,0,0-1.192,1.192l3.884,3.884a.855.855,0,0,0,.6.245.875.875,0,0,0,.6-.245.841.841,0,0,0,0-1.192Z" transform="translate(-336.798 -275.844)" fill="#b3b4b6"/>
      <path id="Path_33613" data-name="Path 33613" d="M243.781,7.332V1.841a.841.841,0,1,0-1.681,0V7.332a.841.841,0,1,0,1.681,0Z" transform="translate(-242.1 -1)" fill="#b3b4b6"/>
    </g>
  </g>
</svg>
