<svg xmlns="http://www.w3.org/2000/svg" xmlns:xlink="http://www.w3.org/1999/xlink" width="11" height="11" viewBox="0 0 11 11">
  <defs>
    <clipPath id="clip-path">
      <path id="path1488" d="M0-682.665H11v11H0Z" transform="translate(0 682.665)" fill="#707070"/>
    </clipPath>
  </defs>
  <g id="g1458" transform="translate(0 682.665)">
    <g id="g1460" transform="translate(4.297 -674.931)">
      <path id="path1462" d="M-62.969-25.807h-.6a.43.43,0,0,1-.43-.43.43.43,0,0,1,.43-.43h.6a.43.43,0,0,1,.43.43A.43.43,0,0,1-62.969-25.807Z" transform="translate(64 26.667)" fill="#707070"/>
    </g>
    <g id="g1464" transform="translate(4.297 -677.659)">
      <path id="path1466" d="M-251.874-25.807h-3.7a.43.43,0,0,1-.43-.43.43.43,0,0,1,.43-.43h3.7a.43.43,0,0,1,.43.43A.43.43,0,0,1-251.874-25.807Z" transform="translate(255.999 26.667)" fill="#707070"/>
    </g>
    <g id="g1468" transform="translate(4.297 -680.237)">
      <path id="path1470" d="M-251.874-25.807h-3.7a.43.43,0,0,1-.43-.43.43.43,0,0,1,.43-.43h3.7a.43.43,0,0,1,.43.43A.43.43,0,0,1-251.874-25.807Z" transform="translate(255.999 26.667)" fill="#707070"/>
    </g>
    <g id="g1472" transform="translate(2.148 -674.931)">
      <path id="path1474" d="M-52.474-25.807h-.43a.43.43,0,0,1-.43-.43.43.43,0,0,1,.43-.43h.43a.43.43,0,0,1,.43.43A.43.43,0,0,1-52.474-25.807Z" transform="translate(53.333 26.667)" fill="#707070"/>
    </g>
    <g id="g1476" transform="translate(2.148 -677.659)">
      <path id="path1478" d="M-52.474-25.807h-.43a.43.43,0,0,1-.43-.43.43.43,0,0,1,.43-.43h.43a.43.43,0,0,1,.43.43A.43.43,0,0,1-52.474-25.807Z" transform="translate(53.333 26.667)" fill="#707070"/>
    </g>
    <g id="g1480" transform="translate(2.148 -680.237)">
      <path id="path1482" d="M-52.474-25.807h-.43a.43.43,0,0,1-.43-.43.43.43,0,0,1,.43-.43h.43a.43.43,0,0,1,.43.43A.43.43,0,0,1-52.474-25.807Z" transform="translate(53.333 26.667)" fill="#707070"/>
    </g>
    <g id="g1484" transform="translate(0 -682.665)">
      <g id="g1486" clip-path="url(#clip-path)">
        <g id="g1492" transform="translate(6.617 6.553)">
          <path id="path1494" d="M-118.066-26.667a1.936,1.936,0,0,1,1.934,1.934,1.936,1.936,0,0,1-1.934,1.934A1.936,1.936,0,0,1-120-24.733,1.936,1.936,0,0,1-118.066-26.667Zm0,3.008a1.075,1.075,0,0,0,1.074-1.074,1.075,1.075,0,0,0-1.074-1.074,1.075,1.075,0,0,0-1.074,1.074A1.075,1.075,0,0,0-118.066-23.659Z" transform="translate(120 26.667)" fill="#707070"/>
        </g>
        <g id="g1496" transform="translate(9.217 9.217)">
          <path id="path1498" d="M-25.313-24.883a.428.428,0,0,1-.3-.126l-.924-.924a.43.43,0,0,1,0-.608.43.43,0,0,1,.608,0l.924.924a.43.43,0,0,1,0,.608A.428.428,0,0,1-25.313-24.883Z" transform="translate(26.667 26.667)" fill="#707070"/>
        </g>
        <g id="g1500" transform="translate(0 0)">
          <path id="path1502" d="M-375.188-645h-4.426a1.721,1.721,0,0,1-1.719-1.719v-7.562A1.721,1.721,0,0,1-379.614-656h7.563a1.721,1.721,0,0,1,1.719,1.719v4.254a.43.43,0,0,1-.43.43.43.43,0,0,1-.43-.43v-4.254a.86.86,0,0,0-.859-.859h-7.562a.86.86,0,0,0-.859.859v7.563a.86.86,0,0,0,.859.859h4.426a.43.43,0,0,1,.43.43A.43.43,0,0,1-375.188-645Z" transform="translate(381.332 655.998)" fill="#707070"/>
        </g>
      </g>
    </g>
  </g>
</svg>
