<svg xmlns="http://www.w3.org/2000/svg" width="65.006" height="51" viewBox="0 0 65.006 51">
  <g id="Group_14098" data-name="Group 14098" transform="translate(-295 -99)">
    <g id="folder_1_" data-name="folder (1)" transform="translate(295 48.553)">
      <path id="Path_29894" data-name="Path 29894" d="M4.1,50.447H19.645a2.846,2.846,0,0,1,2.467,1.426l2.559,3.5a2.847,2.847,0,0,0,2.467,1.426H65.006V96.7a3.8,3.8,0,0,1-3.8,3.8H3.8A3.8,3.8,0,0,1,0,96.7V61.222a28.479,28.479,0,0,1,1.344-8.645h0A2.846,2.846,0,0,1,4.1,50.447Z" fill="#f6c358"/>
      <rect id="Rectangle_2533" data-name="Rectangle 2533" width="49.968" height="21.108" transform="translate(5.916 56.142)" fill="#ebf0f3"/>
      <path id="Path_29895" data-name="Path 29895" d="M62.159,64.117H46.493A2.846,2.846,0,0,0,43.9,65.78l-2.681,5.867a2.846,2.846,0,0,1-2.589,1.663H0v36.113a3.8,3.8,0,0,0,3.8,3.8H61.21a3.8,3.8,0,0,0,3.8-3.8V66.963A2.846,2.846,0,0,0,62.159,64.117Z" transform="translate(0 -11.772)" fill="#fcd462"/>
    </g>
  </g>
</svg>
