<svg xmlns="http://www.w3.org/2000/svg" width="69.607" height="75.363" viewBox="0 0 69.607 75.363">
  <g id="Group_13970" data-name="Group 13970" transform="translate(-287.666 -453.3)">
    <path id="Path_33455" data-name="Path 33455" d="M2.063-9.937l9.188-1.205,35.375-.732L48.75,5.875a36.275,36.275,0,0,0,1.5,11.875A101.992,101.992,0,0,0,56.5,32.875l-3.375,13.5L62.5,50.25l1,5.5L0,55,1.125.5Z" transform="translate(291 469)" fill="#d4d7da"/>
    <g id="approved_1_" data-name="approved (1)" transform="translate(268.116 453.3)">
      <g id="Group_13968" data-name="Group 13968" transform="translate(19.55)">
        <path id="Path_33455-2" data-name="Path 33455" d="M56.193,75.363H19.55V10.93L30.48,0h43.3V36.939H69.364V4.416H32.309l-8.344,8.344V70.947H56.193Z" transform="translate(-19.55)" fill="#b3b4b6"/>
        <path id="Path_33456" data-name="Path 33456" d="M42.88,29.4H29.494V24.982h8.97V16.011H42.88Z" transform="translate(-28.03 -13.654)" fill="#b3b4b6"/>
      </g>
      <path id="Path_33457" data-name="Path 33457" d="M155.459,98.825l-6.406-6.406,3.122-3.122,3.283,3.284,8.57-8.57,3.122,3.122Z" transform="translate(-110.441 -71.645)" fill="#b3b4b6"/>
      <path id="Line_264" data-name="Line 264" d="M33.856-10.584H0V-15H33.856Z" transform="translate(29.707 47.37)" fill="#b3b4b6"/>
      <path id="Line_265" data-name="Line 265" d="M33.856-10.584H0V-15H33.856Z" transform="translate(29.707 56.201)" fill="#b3b4b6"/>
      <path id="Line_266" data-name="Line 266" d="M33.856-10.584H0V-15H33.856Z" transform="translate(29.707 65.033)" fill="#b3b4b6"/>
      <g id="Group_13969" data-name="Group 13969" transform="translate(53.986 34.731)">
        <path id="Rectangle_4998" data-name="Rectangle 4998" d="M-15-15H20.172V-1.379H-15Zm30.756,4.416h-26.34V-5.8h26.34Z" transform="translate(15 42.011)" fill="#b3b4b6"/>
        <path id="Path_33458" data-name="Path 33458" d="M310.151,265.606,306.6,247.658a9.8,9.8,0,1,1,19.219,0l-3.552,17.928-4.332-.858,3.552-17.928a5.38,5.38,0,1,0-10.556,0l3.555,17.948Z" transform="translate(-298.62 -235.958)" fill="#b3b4b6"/>
      </g>
    </g>
  </g>
</svg>
