<svg xmlns="http://www.w3.org/2000/svg" xmlns:xlink="http://www.w3.org/1999/xlink" width="30.433" height="27.27" viewBox="0 0 30.433 27.27">
  <defs>
    <linearGradient id="linear-gradient" x1="0.332" y1="0.165" x2="0.995" y2="0.919" gradientUnits="objectBoundingBox">
      <stop offset="0" stop-color="#ffa936"/>
      <stop offset="0.411" stop-color="#ff8548"/>
      <stop offset="0.778" stop-color="#ff6c54"/>
      <stop offset="1" stop-color="#ff6359"/>
    </linearGradient>
    <linearGradient id="linear-gradient-2" x1="0.788" y1="0.473" x2="0.258" y2="0.505" gradientUnits="objectBoundingBox">
      <stop offset="0" stop-color="#f82814" stop-opacity="0"/>
      <stop offset="1" stop-color="#c0272d"/>
    </linearGradient>
    <linearGradient id="linear-gradient-3" x1="0.03" y1="0.171" x2="0.668" y2="0.883" gradientUnits="objectBoundingBox">
      <stop offset="0" stop-color="#cdec7a"/>
      <stop offset="0.216" stop-color="#b0e995"/>
      <stop offset="0.561" stop-color="#87e4bb"/>
      <stop offset="0.835" stop-color="#6ee1d2"/>
      <stop offset="1" stop-color="#65e0db"/>
    </linearGradient>
    <linearGradient id="linear-gradient-4" x1="0.648" y1="0.5" x2="-0.139" y2="0.5" gradientUnits="objectBoundingBox">
      <stop offset="0" stop-color="#cdec7a" stop-opacity="0"/>
      <stop offset="0.235" stop-color="#9ad57d" stop-opacity="0.235"/>
      <stop offset="0.604" stop-color="#51b482" stop-opacity="0.604"/>
      <stop offset="0.868" stop-color="#239f85" stop-opacity="0.867"/>
      <stop offset="1" stop-color="#119786"/>
    </linearGradient>
    <linearGradient id="linear-gradient-5" x1="0.5" y1="0.556" x2="0.5" y2="-0.096" xlink:href="#linear-gradient-4"/>
    <linearGradient id="linear-gradient-6" x1="0.191" y1="0.139" x2="0.903" y2="0.972" gradientUnits="objectBoundingBox">
      <stop offset="0" stop-color="#f8f6fb"/>
      <stop offset="1" stop-color="#efdcfb"/>
    </linearGradient>
    <linearGradient id="linear-gradient-7" x1="0.195" y1="0.036" x2="1.025" y2="1.299" gradientUnits="objectBoundingBox">
      <stop offset="0" stop-color="#18cefb"/>
      <stop offset="0.297" stop-color="#2bb9f9"/>
      <stop offset="0.734" stop-color="#42a0f7"/>
      <stop offset="1" stop-color="#4a97f6"/>
    </linearGradient>
    <linearGradient id="linear-gradient-8" x1="0.175" y1="0.307" x2="0.825" y2="1.563" gradientUnits="objectBoundingBox">
      <stop offset="0" stop-color="#cdec7a"/>
      <stop offset="0.215" stop-color="#b0e995" stop-opacity="0.784"/>
      <stop offset="0.56" stop-color="#87e4bb" stop-opacity="0.439"/>
      <stop offset="0.833" stop-color="#6ee1d2" stop-opacity="0.165"/>
      <stop offset="0.998" stop-color="#65e0db" stop-opacity="0"/>
    </linearGradient>
    <linearGradient id="linear-gradient-9" x1="0.315" y1="0.43" x2="0.833" y2="1.403" xlink:href="#linear-gradient-3"/>
    <linearGradient id="linear-gradient-10" x1="0.252" y1="0.177" x2="0.928" y2="1.056" gradientUnits="objectBoundingBox">
      <stop offset="0" stop-color="#ffd945"/>
      <stop offset="0.304" stop-color="#ffcd3e"/>
      <stop offset="0.856" stop-color="#ffad2b"/>
      <stop offset="1" stop-color="#ffa325"/>
    </linearGradient>
  </defs>
  <g id="picture" transform="translate(0 -26.505)">
    <path id="Path_35702" data-name="Path 35702" d="M34.778,64.988,11.692,62.429A2.022,2.022,0,0,1,9.905,60.2l2.122-19.145a2.022,2.022,0,0,1,2.232-1.787l23.086,2.559a2.022,2.022,0,0,1,1.787,2.232L37.011,63.2a2.022,2.022,0,0,1-2.232,1.787Z" transform="translate(-9.303 -11.986)" fill="url(#linear-gradient)"/>
    <path id="Path_35703" data-name="Path 35703" d="M457.411,82.985l-.837,7.551-1.859-9.884.909.1A2.022,2.022,0,0,1,457.411,82.985Z" transform="translate(-427.581 -50.916)" fill="url(#linear-gradient-2)"/>
    <path id="Path_35704" data-name="Path 35704" d="M28.784,49.445,5.957,53.739A2.022,2.022,0,0,1,3.6,52.126L.035,33.2a2.022,2.022,0,0,1,1.613-2.361L24.475,26.54a2.022,2.022,0,0,1,2.361,1.613L30.4,47.084A2.022,2.022,0,0,1,28.784,49.445Z" transform="translate(0)" fill="url(#linear-gradient-3)"/>
    <path id="Path_35705" data-name="Path 35705" d="M457.9,97.546v18.976l1.461-.275a2.022,2.022,0,0,0,1.613-2.361Z" transform="translate(-430.572 -66.802)" fill="url(#linear-gradient-4)"/>
    <path id="Path_35706" data-name="Path 35706" d="M58.45,446.187l.109.578a2.022,2.022,0,0,0,2.361,1.613l11.647-2.191Z" transform="translate(-54.962 -394.639)" fill="url(#linear-gradient-5)"/>
    <g id="Group_15636" data-name="Group 15636" transform="translate(0.052 28.36)">
      <path id="Path_35707" data-name="Path 35707" d="M26.128,80.895H2.9A2.022,2.022,0,0,1,.879,78.873V59.61A2.022,2.022,0,0,1,2.9,57.588H26.128A2.022,2.022,0,0,1,28.15,59.61V78.873A2.022,2.022,0,0,1,26.128,80.895Z" transform="translate(-0.879 -57.588)" fill="url(#linear-gradient-6)"/>
      <path id="Path_35708" data-name="Path 35708" d="M59.269,108.936H39.828a1.692,1.692,0,0,1-1.692-1.692V91.121a1.692,1.692,0,0,1,1.692-1.692h19.44a1.692,1.692,0,0,1,1.692,1.692v16.122A1.692,1.692,0,0,1,59.269,108.936Z" transform="translate(-35.913 -87.529)" fill="url(#linear-gradient-7)"/>
      <g id="Group_15635" data-name="Group 15635" transform="translate(2.223 8.029)">
        <path id="Path_35709" data-name="Path 35709" d="M50.9,280.868H39.825a1.693,1.693,0,0,1-1.693-1.692v-2.643l2.81-3.415a2.318,2.318,0,0,1,3.581,0l1.749,2.127Z" transform="translate(-38.132 -267.49)" fill="url(#linear-gradient-8)"/>
        <path id="Path_35710" data-name="Path 35710" d="M116.317,199.573v4.25a1.693,1.693,0,0,1-1.693,1.692H97.005l4.627-5.623,5.684-6.909a2.318,2.318,0,0,1,3.581,0Z" transform="translate(-93.492 -192.137)" fill="url(#linear-gradient-9)"/>
      </g>
      <circle id="Ellipse_4159" data-name="Ellipse 4159" cx="2.4" cy="2.4" r="2.4" transform="translate(5.736 3.587)" fill="url(#linear-gradient-10)"/>
    </g>
  </g>
</svg>
