<svg id="Group_6095" data-name="Group 6095" xmlns="http://www.w3.org/2000/svg" width="37.169" height="45.996" viewBox="0 0 37.169 45.996">
  <g id="test">
    <path id="Path_5165" data-name="Path 5165" d="M66.926,26.783l8.834-8.838v7.427a1.411,1.411,0,0,1-1.412,1.411H66.926Zm30.422-5.4V57.731a.313.313,0,0,1-.315.316H71.213V61.33h30.265V21.384Z" transform="translate(-65.394 -16.417)" fill="#92c3fe" fill-rule="evenodd"/>
    <path id="Path_5166" data-name="Path 5166" d="M76.678,8.923a.765.765,0,0,1-.766.767H64.729a.767.767,0,1,1,0-1.533H75.912A.764.764,0,0,1,76.678,8.923Zm0-3.145a.765.765,0,0,1-.766.767H70.318a.767.767,0,0,1,0-1.533h5.594A.764.764,0,0,1,76.678,5.778ZM63.959,16.936a.768.768,0,0,1,.77-.767h5.589a.767.767,0,1,1,0,1.533H64.729A.768.768,0,0,1,63.959,16.936Zm12.719-3.145a.765.765,0,0,1-.766.767H64.729a.767.767,0,1,1,0-1.533H75.912A.764.764,0,0,1,76.678,13.792ZM63.959,24.108a.768.768,0,0,1,.77-.767h5.589a.767.767,0,1,1,0,1.533H64.729A.768.768,0,0,1,63.959,24.108Zm12.719-3.145a.765.765,0,0,1-.766.767H64.729a.767.767,0,1,1,0-1.533H75.912A.764.764,0,0,1,76.678,20.963Zm0,7.171a.764.764,0,0,1-.766.767H64.729a.767.767,0,1,1,0-1.533H75.912A.765.765,0,0,1,76.678,28.134ZM63.959,31.279a.768.768,0,0,1,.77-.766h5.589a.767.767,0,1,1,0,1.533H64.729A.768.768,0,0,1,63.959,31.279Zm12.719,4.027a.764.764,0,0,1-.766.767H64.729a.767.767,0,1,1,0-1.533H75.912A.765.765,0,0,1,76.678,35.306Zm-5.589,3.145a.768.768,0,0,1-.77.767H64.729a.767.767,0,1,1,0-1.533h5.589A.768.768,0,0,1,71.088,38.451Zm14.484,7.011V6.417H82.344v35.9a.764.764,0,0,1-.766.767H56.209v2.382Zm-34.1-33.015v29.1H80.812V2.532H61.39V9.955a2.5,2.5,0,0,1-2.5,2.493Zm8.38-8.831V9.955a.96.96,0,0,1-.961.96H52.559ZM86.338,4.884H82.344V1.766A.765.765,0,0,0,81.578,1H60.624a.774.774,0,0,0-.544.225l-9.915,9.915a.765.765,0,0,0-.225.542V42.313a.767.767,0,0,0,.766.767h3.973v3.148a.767.767,0,0,0,.766.767H86.338a.768.768,0,0,0,.77-.767V5.651a.768.768,0,0,0-.77-.767Z" transform="translate(-49.939 -0.999)" fill="#57a4ff" fill-rule="evenodd"/>
  </g>
  <g id="tick" transform="translate(3.746 14.895)">
    <g id="Group_6043" data-name="Group 6043" transform="translate(0)">
      <path id="Path_5251" data-name="Path 5251" d="M7.376,69.267a.453.453,0,0,0-.641,0L2.859,73.289.773,71.2a.453.453,0,0,0-.641.641L2.539,74.25a.453.453,0,0,0,.641,0l4.2-4.342A.453.453,0,0,0,7.376,69.267Z" transform="translate(0 -69.134)" fill="#57a4ff"/>
      <path id="Path_5252" data-name="Path 5252" d="M7.376,69.267a.453.453,0,0,0-.641,0L2.859,73.289.773,71.2a.453.453,0,0,0-.641.641L2.539,74.25a.453.453,0,0,0,.641,0l4.2-4.342A.453.453,0,0,0,7.376,69.267Z" transform="translate(0 -61.715)" fill="#57a4ff"/>
      <path id="Path_5253" data-name="Path 5253" d="M7.376,69.267a.453.453,0,0,0-.641,0L2.859,73.289.773,71.2a.453.453,0,0,0-.641.641L2.539,74.25a.453.453,0,0,0,.641,0l4.2-4.342A.453.453,0,0,0,7.376,69.267Z" transform="translate(0 -54.296)" fill="#57a4ff"/>
    </g>
  </g>
</svg>
