<svg xmlns="http://www.w3.org/2000/svg" width="51.207" height="51" viewBox="0 0 51.207 51">
  <g id="Group_6073" data-name="Group 6073" transform="translate(-50 -295)">
    <g id="Group_6072" data-name="Group 6072" transform="translate(41.526 41.762)">
      <g id="multiply" transform="translate(37.929 282.637)">
        <ellipse id="Ellipse_472" data-name="Ellipse 472" cx="7.805" cy="7.8" rx="7.805" ry="7.8" transform="translate(0 0)" fill="#9bc9ff"/>
        <g id="Group_6071" data-name="Group 6071" transform="translate(4.122 4.116)">
          <rect id="Rectangle_1301" data-name="Rectangle 1301" width="1.707" height="8.71" transform="translate(0.001 1.208) rotate(-45)" fill="#57a4ff"/>
          <rect id="Rectangle_1302" data-name="Rectangle 1302" width="8.71" height="1.707" transform="translate(0 6.159) rotate(-45)" fill="#57a4ff"/>
        </g>
      </g>
    </g>
    <g id="leave_6_" data-name="leave (6)" transform="translate(50 295)">
      <path id="Path_5137" data-name="Path 5137" d="M28.186,60.935a.31.31,0,1,0-.437-.439l-.82.82-.818-.82a.31.31,0,0,0-.438.439l.819.819-.819.818a.31.31,0,0,0,0,.439.31.31,0,0,0,.438,0l.818-.819.82.819a.31.31,0,1,0,.438-.438l-.818-.818Zm5.485.819.82-.819a.31.31,0,0,0-.439-.439l-.819.82-.819-.82a.31.31,0,0,0-.438.439l.818.819-.818.818a.31.31,0,1,0,.438.438l.819-.819.818.819a.31.31,0,0,0,.438,0,.31.31,0,0,0,0-.438Zm.36-10.618H35.7a1.152,1.152,0,0,0,1.15-1.15V47.16h5.379v2.826a1.151,1.151,0,0,0,1.15,1.15h1.668a1.152,1.152,0,0,0,1.15-1.15V47.16h5.379v2.826a1.152,1.152,0,0,0,1.15,1.15h1.667a1.152,1.152,0,0,0,1.15-1.15V47.16h1.48a3.056,3.056,0,0,1,3.053,3.053v3.666H19V50.213a3.056,3.056,0,0,1,3.053-3.053h1.48v2.826a1.153,1.153,0,0,0,1.151,1.15h1.666a1.152,1.152,0,0,0,1.15-1.15V47.16h5.379v2.826a1.152,1.152,0,0,0,1.15,1.15ZM29.773,64.6H24.087V58.911h5.685Zm.619-5.685h5.684V64.6H30.392Zm6.3,0H42.38V64.6H36.7ZM29.773,70.9H24.087V65.216h5.685Zm.619-5.684h5.684V70.9H30.392Zm6.3,0H42.38V70.9H36.7ZM29.773,77.2H24.087V71.52h5.685Z" transform="translate(-17.866 -43.221)" fill="#9bc9ff" fill-rule="evenodd"/>
      <path id="Path_5138" data-name="Path 5138" d="M21.746,27.08a.826.826,0,1,1,1.168-1.169l.454.454.453-.454A.827.827,0,1,1,24.99,27.08l-.454.454.454.453a.826.826,0,0,1-1.169,1.168l-.453-.454-.454.454a.826.826,0,1,1-1.168-1.168l.453-.453Zm-6.3.907.454-.453-.454-.454a.826.826,0,1,1,1.168-1.169l.453.454.454-.454a.826.826,0,1,1,1.167,1.169l-.453.454.453.453a.826.826,0,1,1-1.167,1.168l-.454-.454-.453.454a.826.826,0,1,1-1.168-1.168ZM45.428,58.35A12.127,12.127,0,1,0,33.3,46.223,12.14,12.14,0,0,0,45.428,58.35ZM39.955,31.512h4.652v.957a13.691,13.691,0,0,0-4.652,1.11Zm-3.933,4.652H33.65V31.512H38.3v2.922A13.889,13.889,0,0,0,36.022,36.164ZM33.65,37.816h.869a13.723,13.723,0,0,0-.869,1.263Zm-6.3,0H32v4.653H27.346Zm-6.3,0h4.652v4.653H21.042Zm-6.3,0H19.39v4.653H14.737Zm0-6.3H19.39v4.652H14.737Zm4.653-1.652V25.207H14.738V29.86Zm6.3,0V25.207H21.042V29.86Zm0,6.3H21.042V31.512h4.652Zm1.652-4.652H32v4.652H27.346ZM32,29.86H27.346V25.207H32Zm6.3,0H33.65V25.207H38.3Zm6.3,0H39.955V25.207h4.652Zm-32.418,17H31.665c-.009-.21-.016-.421-.016-.634a13.885,13.885,0,0,1,.161-2.1h-17.9a.826.826,0,0,1-.826-.826V24.382a.826.826,0,0,1,.826-.826H45.433a.826.826,0,0,1,.826.826v8.089a13.67,13.67,0,0,1,3.434.65V20.8H9.652V44.32a2.539,2.539,0,0,0,2.536,2.536Zm0-33.4h.964v2.309a1.669,1.669,0,0,0,1.668,1.666h1.666a1.668,1.668,0,0,0,1.666-1.666V13.457H22.5v2.309a1.668,1.668,0,0,0,1.666,1.666h1.668A1.668,1.668,0,0,0,27.5,15.766V13.457h4.346v2.309a1.668,1.668,0,0,0,1.666,1.666h1.668a1.668,1.668,0,0,0,1.666-1.666V13.457h4.346v2.309a1.668,1.668,0,0,0,1.666,1.666h1.667a1.668,1.668,0,0,0,1.666-1.666V13.457h.964a2.539,2.539,0,0,1,2.536,2.536v3.15H9.652v-3.15a2.539,2.539,0,0,1,2.536-2.536Zm2.616-2.79v5.1a.017.017,0,0,0,.016.015h1.666a.016.016,0,0,0,.015-.015v-5.1a.017.017,0,0,0-.015-.014H14.82A.018.018,0,0,0,14.8,10.667Zm9.346,0v5.1a.016.016,0,0,0,.014.015h1.668a.016.016,0,0,0,.015-.015v-5.1a.017.017,0,0,0-.015-.014H24.165A.018.018,0,0,0,24.151,10.667Zm9.346,0v5.1a.016.016,0,0,0,.015.015h1.668a.016.016,0,0,0,.015-.015v-5.1a.017.017,0,0,0-.015-.014H33.511A.018.018,0,0,0,33.5,10.667Zm9.346,0v5.1a.016.016,0,0,0,.015.015h1.667a.017.017,0,0,0,.015-.015v-5.1a.018.018,0,0,0-.015-.014H42.858A.018.018,0,0,0,42.843,10.667Zm8.5,23.113V19.97h0V15.993A4.193,4.193,0,0,0,47.156,11.8h-.964V10.667A1.668,1.668,0,0,0,44.525,9H42.858a1.668,1.668,0,0,0-1.666,1.666V11.8H36.845V10.667A1.668,1.668,0,0,0,35.179,9H33.511a1.668,1.668,0,0,0-1.666,1.666V11.8H27.5V10.667A1.668,1.668,0,0,0,25.833,9H24.165A1.668,1.668,0,0,0,22.5,10.667V11.8H18.153V10.667A1.668,1.668,0,0,0,16.486,9H14.82a1.669,1.669,0,0,0-1.668,1.666V11.8h-.964A4.193,4.193,0,0,0,8,15.993V44.32a4.193,4.193,0,0,0,4.188,4.188H31.84a13.779,13.779,0,1,0,19.5-14.728Z" transform="translate(-8 -9.001)" fill="#57a4ff" fill-rule="evenodd"/>
    </g>
  </g>
</svg>
