<svg xmlns="http://www.w3.org/2000/svg" width="30.402" height="30.488" viewBox="0 0 30.402 30.488">
  <g id="Group_7597" data-name="Group 7597" transform="translate(-6233.465 -4843.88)">
    <g id="link_1_" data-name="link (1)" transform="translate(6233.465 4843.88)">
      <path id="Path_5664" data-name="Path 5664" d="M121.685,126.642a1.786,1.786,0,1,1,2.526,2.526l-5.086,5.086a7.385,7.385,0,0,1-2.422,1.613,7.465,7.465,0,0,1-2.863.57v0a7.511,7.511,0,0,1-2.865-.567,7.372,7.372,0,0,1-2.419-1.613,7.44,7.44,0,0,1-2.18-5.284h0a7.543,7.543,0,0,1,.567-2.865,7.459,7.459,0,0,1,1.616-2.419l5.086-5.086a7.46,7.46,0,0,1,2.419-1.616,7.543,7.543,0,0,1,2.865-.567v0a7.44,7.44,0,0,1,5.284,2.18,1.786,1.786,0,0,1-2.526,2.526,3.839,3.839,0,0,0-1.258-.844,3.944,3.944,0,0,0-1.5-.294,3.889,3.889,0,0,0-2.759,1.138l-5.086,5.086a3.841,3.841,0,0,0-.844,1.258,3.979,3.979,0,0,0,0,3,3.915,3.915,0,0,0,2.1,2.1,3.955,3.955,0,0,0,1.5.294,3.894,3.894,0,0,0,2.759-1.138Zm-.222-10.9a1.786,1.786,0,1,1-2.526-2.526l5.086-5.086a7.457,7.457,0,0,1,2.419-1.616,7.52,7.52,0,0,1,5.731,0,7.447,7.447,0,0,1,4.035,4.035,7.486,7.486,0,0,1-1.616,8.15l-5.086,5.086a7.4,7.4,0,0,1-2.419,1.613,7.52,7.52,0,0,1-5.731,0,7.405,7.405,0,0,1-2.419-1.613,1.786,1.786,0,1,1,2.526-2.526,3.787,3.787,0,0,0,1.258.841,3.923,3.923,0,0,0,4.259-.841l5.086-5.086a3.9,3.9,0,0,0,.844-1.258,3.958,3.958,0,0,0,.294-1.5h0a3.958,3.958,0,0,0-.3-1.5,3.883,3.883,0,0,0-.844-1.261,3.83,3.83,0,0,0-1.258-.841,3.969,3.969,0,0,0-1.5-.3v0a3.886,3.886,0,0,0-2.759,1.135Z" transform="translate(-106.373 -105.948)" fill="#fff"/>
    </g>
  </g>
</svg>
