<svg xmlns="http://www.w3.org/2000/svg" width="32.145" height="31.5" viewBox="0 0 32.145 31.5">
  <path id="user_2_" data-name="user (2)" d="M27.6,23.861a.73.73,0,0,1,0,1.032l-4.093,4.093a.73.73,0,0,1-1.032,0L19.985,26.5a.73.73,0,0,1,1.032-1.032l1.972,1.972,3.577-3.577a.73.73,0,0,1,1.032,0Zm3.56,2.563a7.367,7.367,0,0,1-9.51,7.048,20.964,20.964,0,0,1-9.294,2.28q-.66,0-1.318-.046A22.7,22.7,0,0,1,.426,31.952a.73.73,0,0,1-.333-.545,13.792,13.792,0,0,1,1.753-8.416,11.119,11.119,0,0,1,5.886-4.776,9.579,9.579,0,0,1-2.014-4.007,8.217,8.217,0,0,1,.308-4.88,6.564,6.564,0,0,1,6.35-4.078H12.4a6.564,6.564,0,0,1,6.349,4.078,8.216,8.216,0,0,1,.308,4.88,9.579,9.579,0,0,1-2.014,4.007,11.425,11.425,0,0,1,3.21,1.751,7.364,7.364,0,0,1,10.909,6.457ZM9.364,17.838a4.42,4.42,0,0,0,3.021,1.523,4.419,4.419,0,0,0,3.021-1.523,7.62,7.62,0,0,0,1.985-7.963,5.1,5.1,0,0,0-5.006-3.164A5.1,5.1,0,0,0,7.378,9.875,7.62,7.62,0,0,0,9.364,17.838ZM19.9,32.673a7.359,7.359,0,0,1-.91-11.827,10.267,10.267,0,0,0-3.1-1.469,5.417,5.417,0,0,1-3.5,1.444,5.417,5.417,0,0,1-3.5-1.444C3.956,20.8,1.1,25.267,1.515,30.914c6.175,3.841,12.2,4.42,18.381,1.759Zm9.8-6.249a5.907,5.907,0,1,0-5.907,5.907A5.913,5.913,0,0,0,29.7,26.424Z" transform="translate(0.487 -4.751)" fill="#fff" stroke="#fff" stroke-width="1"/>
</svg>
