<svg xmlns="http://www.w3.org/2000/svg" width="24.499" height="22.969" viewBox="0 0 24.499 22.969">
  <g id="history" transform="translate(0.003 -2)">
    <path id="Path_3892" data-name="Path 3892" d="M31.272,21.272l4.593,3.445a.766.766,0,1,0,.919-1.225l-4.253-3.219V13.766a.766.766,0,0,0-1.531,0v6.89a.792.792,0,0,0,.272.616Z" transform="translate(-19.135 -6.789)" fill="#6195e3"/>
    <path id="Path_3893" data-name="Path 3893" d="M13.013,2A11.484,11.484,0,0,0,1.69,11.57L1.4,11.137a.767.767,0,1,0-1.271.857l1.531,2.3a.766.766,0,0,0,.559.341h.077a.764.764,0,0,0,.54-.226l1.914-1.914a.766.766,0,0,0-1.083-1.083l-.475.478a9.952,9.952,0,1,1,9.822,11.549,9.421,9.421,0,0,1-7.8-3.889.766.766,0,0,0-1.248.888,10.936,10.936,0,0,0,9.045,4.532A11.484,11.484,0,1,0,13.013,2Z" fill="#6195e3"/>
  </g>
</svg>
