<svg xmlns="http://www.w3.org/2000/svg" width="32.25" height="32.25" viewBox="0 0 32.25 32.25">
  <g id="holidays" transform="translate(0.5 0.5)">
    <path id="Path_33450" data-name="Path 33450" d="M28.646,2.083H27.6V1.563a1.562,1.562,0,1,0-3.125,0v.521H22.4V1.563a1.563,1.563,0,0,0-3.125,0v.521H17.188V1.563a1.563,1.563,0,0,0-3.125,0v.521H11.979V1.563a1.563,1.563,0,0,0-3.125,0v.521H6.771V1.563a1.562,1.562,0,1,0-3.125,0v.521H2.6A2.607,2.607,0,0,0,0,4.687V24.479a2.607,2.607,0,0,0,2.6,2.6H3.651A7.224,7.224,0,0,0,2.656,30.1a1.057,1.057,0,0,0,.271.806,1.042,1.042,0,0,0,.771.34H27.6a1.042,1.042,0,0,0,.769-.339,1.057,1.057,0,0,0,.271-.806,7.23,7.23,0,0,0-.995-3.021h1a2.607,2.607,0,0,0,2.6-2.6V4.687A2.607,2.607,0,0,0,28.646,2.083Zm-3.125-.521a.521.521,0,0,1,1.042,0V3.646a.521.521,0,0,1-1.042,0Zm-5.208,0a.521.521,0,1,1,1.042,0V3.646a.521.521,0,1,1-1.042,0Zm-5.208,0a.521.521,0,1,1,1.042,0V3.646a.521.521,0,1,1-1.042,0Zm-5.208,0a.521.521,0,1,1,1.042,0V3.646a.521.521,0,1,1-1.042,0Zm-5.208,0a.521.521,0,0,1,1.042,0V3.646a.521.521,0,0,1-1.042,0ZM2.6,3.125H3.646v.521a1.562,1.562,0,1,0,3.125,0V3.125H8.854v.521a1.563,1.563,0,1,0,3.125,0V3.125h2.083v.521a1.563,1.563,0,0,0,3.125,0V3.125h2.083v.521a1.562,1.562,0,0,0,3.125,0V3.125h2.083v.521a1.562,1.562,0,1,0,3.125,0V3.125h1.042a1.563,1.563,0,0,1,1.563,1.562V6.25H1.042V4.687A1.562,1.562,0,0,1,2.6,3.125ZM3.7,30.208l0-.009c.354-3.9,4.573-7.044,9.956-7.679l.582,1.34a.521.521,0,0,0,.478.313.514.514,0,0,0,.208-.043.521.521,0,0,0,.27-.685l-.442-1.019c.3-.016.6-.031.9-.031a15.916,15.916,0,0,1,6.422,1.3l-.469.779H16.969a1.042,1.042,0,0,0-.867.464l-.886,1.33a.521.521,0,1,0,.867.578l.886-1.331H21.62l.885,1.331a.521.521,0,1,0,.867-.578l-.859-1.288.494-.824c2.617,1.421,4.372,3.583,4.6,6.047Zm24.948-4.167H26.921a11.324,11.324,0,0,0-3.382-2.76l.369-.616a.521.521,0,1,0-.893-.536l-.41.683a16.827,16.827,0,0,0-6.955-1.458c-.455,0-.9.018-1.348.052l-1.8-4.152a5.637,5.637,0,0,1,1.875-.33.5.5,0,0,0,.457-.225,3.916,3.916,0,0,1,3.312-1.44.522.522,0,0,0,.478-.848,7.409,7.409,0,0,0-8.687-1.749,7.417,7.417,0,0,0-4.652,7.543.521.521,0,0,0,.394.439.545.545,0,0,0,.122.014.521.521,0,0,0,.429-.226,3.918,3.918,0,0,1,3.315-1.44.526.526,0,0,0,.476-.18,5.691,5.691,0,0,1,1.521-1.146l1.672,3.851a13.759,13.759,0,0,0-8.839,4.523H2.6a1.562,1.562,0,0,1-1.562-1.562V7.292H30.208V24.479a1.563,1.563,0,0,1-1.563,1.563ZM9.832,17.566c-.541-1.641-.352-3,.538-3.9a3.678,3.678,0,0,1,3.219,2.271,7.455,7.455,0,0,0-3.757,1.632Zm4.7-2.069a5.773,5.773,0,0,0-2.25-2.413,6.284,6.284,0,0,1,4.724,1.2A5,5,0,0,0,14.535,15.5ZM8.868,17.958a5.01,5.01,0,0,0-2.576.98A6.281,6.281,0,0,1,8.636,14.67a5.771,5.771,0,0,0,.232,3.288Z" fill="#fff" stroke="#fff" stroke-width="1"/>
    <path id="Path_33451" data-name="Path 33451" d="M44.775,21.6h-.6a2.039,2.039,0,0,0-.221-.531l.421-.421a.521.521,0,1,0-.737-.737l-.421.421a2.039,2.039,0,0,0-.531-.221v-.595a.521.521,0,1,0-1.042,0v.595a2.039,2.039,0,0,0-.531.221l-.421-.421a.521.521,0,1,0-.737.737l.421.421a2.039,2.039,0,0,0-.219.531h-.595a.521.521,0,0,0,0,1.042h.595a2.039,2.039,0,0,0,.221.531l-.421.421a.521.521,0,1,0,.737.737l.421-.421a2.039,2.039,0,0,0,.531.221v.595a.521.521,0,1,0,1.042,0v-.595a2.039,2.039,0,0,0,.531-.221l.421.421a.521.521,0,1,0,.737-.737l-.421-.421a2.039,2.039,0,0,0,.219-.531h.595a.521.521,0,1,0,0-1.042Zm-2.6,1.563a1.042,1.042,0,1,1,1.042-1.042A1.042,1.042,0,0,1,42.171,23.167Z" transform="translate(-18.71 -9.104)" fill="#fff" stroke="#fff" stroke-width="1"/>
  </g>
</svg>
