<svg xmlns="http://www.w3.org/2000/svg" width="29.401" height="29.054" viewBox="0 0 29.401 29.054">
  <path id="home_4_" data-name="home (4)" d="M28.284,12.419l0,0L16.634.769a2.628,2.628,0,0,0-3.718,0L1.275,12.411l-.012.012A2.628,2.628,0,0,0,3.012,16.9c.027,0,.054,0,.081,0h.464v8.572a3.08,3.08,0,0,0,3.077,3.076h4.557a.837.837,0,0,0,.837-.837V21a1.405,1.405,0,0,1,1.4-1.4H16.12a1.405,1.405,0,0,1,1.4,1.4v6.72a.837.837,0,0,0,.837.837h4.557a3.08,3.08,0,0,0,3.077-3.076V16.905h.43a2.629,2.629,0,0,0,1.86-4.486ZM27.1,14.952a.95.95,0,0,1-.676.28H25.157a.836.836,0,0,0-.837.837v9.408a1.405,1.405,0,0,1-1.4,1.4H19.2V21a3.08,3.08,0,0,0-3.077-3.077H13.432A3.08,3.08,0,0,0,10.355,21V26.88H6.634a1.405,1.405,0,0,1-1.4-1.4V16.069a.836.836,0,0,0-.837-.837H3.149l-.039,0a.955.955,0,0,1-.658-1.63h0L14.1,1.952a.955.955,0,0,1,1.351,0L27.1,13.6l.005.005a.958.958,0,0,1,0,1.35Zm0,0" transform="translate(-0.075 0.251)" stroke="#000" stroke-width="0.5"/>
</svg>
