<svg xmlns="http://www.w3.org/2000/svg" width="11.7" height="11.7" viewBox="0 0 11.7 11.7">
  <path id="Icon_material-av-timer" data-name="Icon material-av-timer" d="M9.7,13.6a.65.65,0,1,0,.65-.65A.652.652,0,0,0,9.7,13.6Zm0-9.1V7.1H11V5.852a4.548,4.548,0,1,1-5.2,4.5A4.5,4.5,0,0,1,6.827,7.477L10.35,11l.916-.917-4.42-4.42v.013A5.839,5.839,0,1,0,10.35,4.5Zm4.55,5.85a.65.65,0,1,0-.65.65A.652.652,0,0,0,14.25,10.35Zm-7.8,0A.65.65,0,1,0,7.1,9.7.652.652,0,0,0,6.45,10.35Z" transform="translate(-4.5 -4.5)" fill="#bdcae1"/>
</svg>
