<svg xmlns="http://www.w3.org/2000/svg" width="21" height="21" viewBox="0 0 21 21">
  <g id="pending" transform="translate(-2 -2)">
    <path id="Path_35350" data-name="Path 35350" d="M12.5,2A10.5,10.5,0,1,0,23,12.5,10.5,10.5,0,0,0,12.5,2Zm3,3.5a3.251,3.251,0,1,1-3.251,3.251A3.252,3.252,0,0,1,15.5,5.5Zm3.416,12.978a4.38,4.38,0,0,1-5.887-.245L6.764,11.975a4.375,4.375,0,0,1-.245-5.884,1.113,1.113,0,0,1,1.75-.276L9.84,7.383a1.082,1.082,0,0,1-.171,1.655,1.127,1.127,0,0,0-.326,1.575A20.833,20.833,0,0,0,11.7,13.3a21.218,21.218,0,0,0,2.653,2.335,1.156,1.156,0,0,0,1.624-.3,1.078,1.078,0,0,1,1.648-.161l1.561,1.561a1.087,1.087,0,0,1,.315.8,1.248,1.248,0,0,1-.588.949Z" fill="#ff9304"/>
    <path id="Path_35351" data-name="Path 35351" d="M40.146,17.842h1.429a.3.3,0,1,0,0-.6H40.446V15.163a.3.3,0,0,0-.6,0v2.383A.3.3,0,0,0,40.146,17.842Z" transform="translate(-24.825 -8.478)" fill="#ff9304"/>
  </g>
</svg>
