<svg xmlns="http://www.w3.org/2000/svg" width="20.999" height="20.998" viewBox="0 0 20.999 20.998">
  <path id="incoming-call_1_" data-name="incoming-call (1)" d="M10.747.5A10.5,10.5,0,1,1,.248,11,10.5,10.5,0,0,1,10.747.5ZM11.1,8.838,13.5,10.707a.4.4,0,0,0,.651-.319V9.677A3.513,3.513,0,0,0,17.2,6a.4.4,0,0,0-.758-.17,2.931,2.931,0,0,1-2.288,1.532V6.651a.4.4,0,0,0-.651-.319L11.1,8.2a.4.4,0,0,0,0,.638Zm1.242,7.569a3.641,3.641,0,0,0,3.6-.531l-3.168-1.426-.134.14a.4.4,0,0,1-.354.121,6.858,6.858,0,0,1-3.205-2.049A6.861,6.861,0,0,1,7.034,9.458.4.4,0,0,1,7.155,9.1L7.3,8.97,5.869,5.8a3.641,3.641,0,0,0-.531,3.6,10.808,10.808,0,0,0,2.742,4.259A10.8,10.8,0,0,0,12.34,16.408Zm4.388-2.676-2.5-1.164a.817.817,0,0,0-.95.18L12.215,13.87a7.075,7.075,0,0,1-2.56-1.778,7.075,7.075,0,0,1-1.778-2.56L9,8.465a.817.817,0,0,0,.18-.95l-1.164-2.5a.821.821,0,0,0-.825-.475,4.224,4.224,0,0,0-1.755.566.392.392,0,0,0-.089.07A3.741,3.741,0,0,0,4.333,7.267a5.439,5.439,0,0,0,.233,2.377A11.61,11.61,0,0,0,7.51,14.237,11.62,11.62,0,0,0,12.1,17.18a5.913,5.913,0,0,0,1.732.279,4.447,4.447,0,0,0,.645-.046A3.743,3.743,0,0,0,16.568,16.4a.4.4,0,0,0,.07-.089,4.224,4.224,0,0,0,.566-1.755.82.82,0,0,0-.475-.825Z" transform="translate(-0.248 -0.5)" fill="#2196f3" fill-rule="evenodd"/>
</svg>
