<svg xmlns="http://www.w3.org/2000/svg" width="21" height="21" viewBox="0 0 21 21">
  <g id="incoming-call" transform="translate(-0.644 -0.644)">
    <circle id="Ellipse_4152" data-name="Ellipse 4152" cx="10.5" cy="10.5" r="10.5" transform="translate(0.644 0.644)" fill="#f34343"/>
    <path id="Path_35319" data-name="Path 35319" d="M115.6,109.616a.392.392,0,0,1,.142-.3l1.7-1.405a.393.393,0,1,1,.5.605l-1.334,1.1,1.334,1.1a.393.393,0,1,1-.5.605l-1.7-1.405a.392.392,0,0,1-.143-.3Zm-2.652,0a.393.393,0,0,1,.142-.3l1.7-1.405a.393.393,0,1,1,.5.605l-1.334,1.1,1.334,1.1a.393.393,0,1,1-.5.605l-1.7-1.405a.392.392,0,0,1-.142-.3Zm5.079,5.066-1.926-1.146a1.086,1.086,0,0,0-1.324.165c-.232.232-.417.408-.55.525a.281.281,0,0,1-.222.074,5.063,5.063,0,0,1-3.748-3.748.281.281,0,0,1,.074-.222c.116-.132.293-.317.525-.55a1.086,1.086,0,0,0,.165-1.324l-1.146-1.926a1.085,1.085,0,0,0-1.385-.433l-1.861.849A1.082,1.082,0,0,0,106,108.07a12.649,12.649,0,0,0,10.485,10.485,1.1,1.1,0,0,0,.137.008,1.081,1.081,0,0,0,.986-.636l.849-1.861A1.086,1.086,0,0,0,118.026,114.682Z" transform="translate(-101.131 -101.138)" fill="#fff" fill-rule="evenodd"/>
  </g>
</svg>
