<svg id="job-search_1_" data-name="job-search (1)" xmlns="http://www.w3.org/2000/svg" width="38.884" height="38.884" viewBox="0 0 38.884 38.884">
  <path id="Path_4937" data-name="Path 4937" d="M158.11,148.389a9.721,9.721,0,1,1-9.721-9.721A9.721,9.721,0,0,1,158.11,148.389Zm0,0" transform="translate(-128.137 -128.137)" fill="#fff"/>
  <path id="Path_4938" data-name="Path 4938" d="M136.774,10.668v9.721H118.953a1.625,1.625,0,0,1-1.62-1.62V12.288a1.625,1.625,0,0,1,1.62-1.62Zm0,0" transform="translate(-108.421 -9.858)" fill="#fff"/>
  <path id="Path_4939" data-name="Path 4939" d="M383.053,12.288v6.481a1.625,1.625,0,0,1-1.62,1.62h-8.1V10.668h8.1a1.625,1.625,0,0,1,1.62,1.62Zm-3.24,3.24a1.62,1.62,0,1,0-1.62,1.62A1.62,1.62,0,0,0,379.813,15.528Zm0,0" transform="translate(-344.979 -9.858)" fill="#58abfb"/>
  <path id="Path_4940" data-name="Path 4940" d="M419.241,54.952a1.62,1.62,0,1,1-1.62-1.62A1.62,1.62,0,0,1,419.241,54.952Zm0,0" transform="translate(-384.407 -49.282)" fill="#fff"/>
  <path id="Path_4941" data-name="Path 4941" d="M27.68,239.529v8.1a1.625,1.625,0,0,1-1.62,1.62H12.288a1.625,1.625,0,0,1-1.62-1.62v-6.481a1.625,1.625,0,0,1,1.62-1.62H22.819l4.861-4.861Zm0,0" transform="translate(-9.858 -216.846)" fill="#58abfb"/>
  <path id="Path_4942" data-name="Path 4942" d="M382.575,382.575a1.628,1.628,0,0,1-2.309,0l-6.935-6.934,2.309-2.309,6.934,6.935a1.628,1.628,0,0,1,0,2.309Zm0,0" transform="translate(-344.979 -344.979)" fill="#58abfb"/>
  <g id="Group_5815" data-name="Group 5815" transform="translate(0)">
    <path id="Path_4943" data-name="Path 4943" d="M109.1,11.341h2.43V9.721H109.1a.81.81,0,0,1-.81-.81V2.43a.81.81,0,0,1,.81-.81H126.11v9.721h8.911a2.43,2.43,0,0,0,2.43-2.43V2.43A2.43,2.43,0,0,0,135.021,0H109.1a2.43,2.43,0,0,0-2.43,2.43V8.911A2.43,2.43,0,0,0,109.1,11.341ZM135.831,2.43V8.911a.81.81,0,0,1-.81.81H127.73V1.62h7.291A.81.81,0,0,1,135.831,2.43Zm0,0" transform="translate(-98.567)" fill="#107be8"/>
    <path id="Path_4944" data-name="Path 4944" d="M407.762,47.529a2.389,2.389,0,0,0,1.041-.243l.817.817,1.145-1.145-.816-.817a2.384,2.384,0,0,0,.243-1.041,2.43,2.43,0,1,0-2.43,2.43Zm0-3.24a.81.81,0,1,1-.81.81A.81.81,0,0,1,407.762,44.288Zm0,0" transform="translate(-374.549 -39.428)" fill="#107be8"/>
    <path id="Path_4945" data-name="Path 4945" d="M320,64h1.62v1.62H320Zm0,0" transform="translate(-295.697 -59.139)" fill="#107be8"/>
    <path id="Path_4946" data-name="Path 4946" d="M277.332,64h1.62v1.62h-1.62Zm0,0" transform="translate(-256.27 -59.139)" fill="#107be8"/>
    <path id="Path_4947" data-name="Path 4947" d="M234.668,64h1.62v1.62h-1.62Zm0,0" transform="translate(-216.846 -59.139)" fill="#107be8"/>
    <path id="Path_4948" data-name="Path 4948" d="M192,64h1.62v1.62H192Zm0,0" transform="translate(-177.418 -59.139)" fill="#107be8"/>
    <path id="Path_4949" data-name="Path 4949" d="M149.332,64h1.62v1.62h-1.62Zm0,0" transform="translate(-137.991 -59.139)" fill="#107be8"/>
    <path id="Path_4950" data-name="Path 4950" d="M156.448,153l-6.935-6.934a.81.81,0,0,0-1.145,0l-.581.581-1.267-1.267A10.526,10.526,0,1,0,128,138.539h1.62a8.911,8.911,0,1,1,8.911,8.911v1.62a10.472,10.472,0,0,0,6.843-2.543l1.267,1.267-.581.581a.81.81,0,0,0,0,1.145l6.93,6.93a2.41,2.41,0,0,0,1.72.719h.008a2.449,2.449,0,0,0,2.446-2.453,2.4,2.4,0,0,0-.715-1.717Zm-1.148,2.306a.821.821,0,0,1-.585.243.8.8,0,0,1-.576-.243l-6.362-6.359,1.164-1.163,6.366,6.365a.8.8,0,0,1,.238.573A.818.818,0,0,1,155.3,155.308Zm0,0" transform="translate(-118.279 -118.287)" fill="#107be8"/>
    <path id="Path_4951" data-name="Path 4951" d="M18.133,224.062a.81.81,0,0,0-.883.176l-4.623,4.623H2.43A2.43,2.43,0,0,0,0,231.291v6.481a2.43,2.43,0,0,0,2.43,2.43H16.2a2.43,2.43,0,0,0,2.43-2.43V224.81a.809.809,0,0,0-.5-.749Zm-1.121,13.71a.81.81,0,0,1-.81.81H2.43a.81.81,0,0,1-.81-.81v-6.481a.81.81,0,0,1,.81-.81H12.962a.81.81,0,0,0,.573-.237l3.478-3.477Zm0,0" transform="translate(0 -206.988)" fill="#107be8"/>
    <path id="Path_4952" data-name="Path 4952" d="M42.668,330.668H54.819v1.62H42.668Zm0,0" transform="translate(-39.428 -305.555)" fill="#107be8"/>
    <path id="Path_4953" data-name="Path 4953" d="M42.668,373.332h8.911v1.62H42.668Zm0,0" transform="translate(-39.428 -344.979)" fill="#107be8"/>
    <path id="Path_4954" data-name="Path 4954" d="M181.332,373.332h1.62v1.62h-1.62Zm0,0" transform="translate(-167.561 -344.979)" fill="#107be8"/>
    <path id="Path_4955" data-name="Path 4955" d="M273.959,177.959a7.3,7.3,0,0,0-7.291-7.291v1.62a5.677,5.677,0,0,1,5.67,5.671Zm0,0" transform="translate(-246.416 -157.706)" fill="#107be8"/>
  </g>
</svg>
