<svg xmlns="http://www.w3.org/2000/svg" width="36.414" height="36.827" viewBox="0 0 36.414 36.827">
  <g id="job-description" transform="translate(-2.871)">
    <g id="Group_5997" data-name="Group 5997" transform="translate(7.317 5.263)">
      <path id="Path_5196" data-name="Path 5196" d="M86.159,73.163h-18.4a3.081,3.081,0,0,0-3.081,3.081v25.4a3.081,3.081,0,0,0,3.081,3.081h8.184l5.2-3.133,5,2.424c1.7,0,3.1-.671,3.1-2.373v-25.4A3.081,3.081,0,0,0,86.159,73.163Z" transform="translate(-64.682 -73.163)" fill="#cbd3d8"/>
    </g>
    <g id="Group_5998" data-name="Group 5998" transform="translate(8.041)">
      <path id="Path_5197" data-name="Path 5197" d="M85.679.067,85.512,0H79.586c-1.7,0-4.835,1.379-4.835,3.081v25.4c0,1.7,3.134,3.081,4.835,3.081H91.058a3.081,3.081,0,0,0,3.081-3.081V8.376A15.459,15.459,0,0,0,85.679.067Z" transform="translate(-74.751)" fill="#f2f6fc"/>
    </g>
    <g id="Group_5999" data-name="Group 5999" transform="translate(2.871 0)">
      <path id="Path_5198" data-name="Path 5198" d="M9.8,28.484V3.081A3.081,3.081,0,0,1,12.876,0H5.952A3.081,3.081,0,0,0,2.871,3.081v25.4a3.081,3.081,0,0,0,3.081,3.081h6.924A3.081,3.081,0,0,1,9.8,28.484Z" transform="translate(-2.871 0)" fill="#dce1eb"/>
    </g>
    <g id="Group_6000" data-name="Group 6000" transform="translate(5.835 9.117)">
      <path id="Path_5199" data-name="Path 5199" d="M48.524,132.676H45.56a1.482,1.482,0,0,1-1.482-1.482V128.23a1.482,1.482,0,0,1,1.482-1.482h2.964a1.482,1.482,0,0,1,1.482,1.482v2.964A1.482,1.482,0,0,1,48.524,132.676Z" transform="translate(-44.078 -126.748)" fill="#8dd470"/>
    </g>
    <g id="Group_6001" data-name="Group 6001" transform="translate(5.835 18.009)">
      <path id="Path_5200" data-name="Path 5200" d="M48.524,256.3H45.56a1.482,1.482,0,0,1-1.482-1.482v-2.964a1.482,1.482,0,0,1,1.482-1.482h2.964a1.482,1.482,0,0,1,1.482,1.482v2.964A1.482,1.482,0,0,1,48.524,256.3Z" transform="translate(-44.078 -250.37)" fill="#8dd470"/>
    </g>
    <g id="Group_6002" data-name="Group 6002" transform="translate(18.803)">
      <path id="Path_5201" data-name="Path 5201" d="M232.989,8.376a4.607,4.607,0,0,0-2.779-.934h-1.018A3.992,3.992,0,0,1,225.2,3.45V2.486A4.112,4.112,0,0,0,224.362,0,9.163,9.163,0,0,1,232.989,8.376Z" transform="translate(-224.362)" fill="#dce1eb"/>
    </g>
    <g id="Group_6003" data-name="Group 6003" transform="translate(21.502 13.116)">
      <path id="Path_5202" data-name="Path 5202" d="M261.886,186.788v4.345h2.964v-4.345a1.482,1.482,0,0,1,1.482-1.482H269.3a1.482,1.482,0,0,1,1.482,1.482v4.345h2.964v-4.345a4.446,4.446,0,0,0-4.446-4.446h-2.964A4.446,4.446,0,0,0,261.886,186.788Z" transform="translate(-261.886 -182.342)" fill="#515181"/>
    </g>
    <g id="Group_6004" data-name="Group 6004" transform="translate(21.502 13.116)">
      <path id="Path_5203" data-name="Path 5203" d="M264.85,183.824a1.482,1.482,0,0,1,1.482-1.482,4.446,4.446,0,0,0-4.446,4.446v4.345h2.964v-4.345a1.482,1.482,0,0,1,1.482-1.482,1.482,1.482,0,0,1-1.482-1.482Z" transform="translate(-261.886 -182.342)" fill="#41416b"/>
    </g>
    <g id="Group_6005" data-name="Group 6005" transform="translate(25.207 22.717)">
      <path id="Path_5204" data-name="Path 5204" d="M313.4,315.83v11.248c0,1.581,2.764,2.863,4.345,2.863h1.43l1.853-1.456,1.852,1.456h1.736a2.863,2.863,0,0,0,2.863-2.863V315.83Z" transform="translate(-313.395 -315.83)" fill="#cb5935"/>
    </g>
    <g id="Group_6006" data-name="Group 6006" transform="translate(15.574 22.717)">
      <path id="Path_5205" data-name="Path 5205" d="M190.586,327.078V315.83H179.471v11.248a2.863,2.863,0,0,0,2.863,2.863h1.736l1.853-1.456,1.852,1.456h5.674A2.863,2.863,0,0,1,190.586,327.078Z" transform="translate(-179.471 -315.83)" fill="#b24e2f"/>
    </g>
    <g id="Group_6007" data-name="Group 6007" transform="translate(19.279 19.044)">
      <path id="Path_5206" data-name="Path 5206" d="M248.124,264.757h-12.8c-1.581,0-4.345,1.282-4.345,2.863v1.336a5.528,5.528,0,0,0,3.1,4.866H246.12a4.866,4.866,0,0,0,4.866-4.866V267.62A2.862,2.862,0,0,0,248.124,264.757Z" transform="translate(-230.98 -264.757)" fill="#e37858"/>
    </g>
    <g id="Group_6008" data-name="Group 6008" transform="translate(15.573 19.043)">
      <path id="Path_5207" data-name="Path 5207" d="M186.271,272.574a4.853,4.853,0,0,1-1.615-3.62v-1.336a2.863,2.863,0,0,1,2.863-2.863h-5.187a2.863,2.863,0,0,0-2.863,2.863v1.336a4.866,4.866,0,0,0,4.866,4.866h1.935v-1.247Z" transform="translate(-179.47 -264.756)" fill="#cb5935"/>
    </g>
    <g id="Group_6009" data-name="Group 6009" transform="translate(20.172 24.971)">
      <path id="Path_5208" data-name="Path 5208" d="M247.113,359.027h-3.7v-10a1.852,1.852,0,1,1,3.7,0Z" transform="translate(-243.408 -347.171)" fill="#41416b"/>
    </g>
    <g id="Group_6010" data-name="Group 6010" transform="translate(30.982 24.971)">
      <path id="Path_5209" data-name="Path 5209" d="M393.683,359.027h3.7v-10a1.852,1.852,0,1,0-3.7,0Z" transform="translate(-393.683 -347.171)" fill="#515181"/>
    </g>
    <g id="Group_6023" data-name="Group 6023" transform="translate(5.295 2.424)">
      <g id="Group_6011" data-name="Group 6011" transform="translate(1.853 8.348)">
        <path id="Path_5210" data-name="Path 5210" d="M63.557,152.378a.538.538,0,0,1-.381-.158l-.684-.684a.539.539,0,0,1,.763-.763l.3.3,1.157-1.157a.539.539,0,0,1,.763.763l-1.539,1.539A.538.538,0,0,1,63.557,152.378Z" transform="translate(-62.333 -149.761)" fill="#fff"/>
      </g>
      <g id="Group_6012" data-name="Group 6012" transform="translate(1.853 17.24)">
        <path id="Path_5211" data-name="Path 5211" d="M63.557,276a.539.539,0,0,1-.381-.158l-.684-.685a.539.539,0,1,1,.763-.763l.3.3,1.157-1.157a.539.539,0,0,1,.763.763l-1.539,1.539A.539.539,0,0,1,63.557,276Z" transform="translate(-62.333 -273.383)" fill="#fff"/>
      </g>
      <g id="Group_6016" data-name="Group 6016" transform="translate(16.967 18.468)">
        <g id="Group_6013" data-name="Group 6013">
          <path id="Path_5212" data-name="Path 5212" d="M273.01,292.426a.539.539,0,0,1-.539-.539V291a.539.539,0,1,1,1.079,0v.889A.539.539,0,0,1,273.01,292.426Z" transform="translate(-272.471 -290.458)" fill="#495560"/>
        </g>
        <g id="Group_6014" data-name="Group 6014" transform="translate(9.254)">
          <path id="Path_5213" data-name="Path 5213" d="M401.669,292.426a.539.539,0,0,1-.539-.539V291a.539.539,0,1,1,1.079,0v.889A.539.539,0,0,1,401.669,292.426Z" transform="translate(-401.129 -290.458)" fill="#495560"/>
        </g>
        <g id="Group_6015" data-name="Group 6015" transform="translate(3.407 0.863)">
          <path id="Path_5214" data-name="Path 5214" d="M321.6,304.086a2.158,2.158,0,0,1-1.627-.741.539.539,0,1,1,.813-.709,1.077,1.077,0,0,0,1.626,0,.539.539,0,1,1,.813.709A2.158,2.158,0,0,1,321.6,304.086Z" transform="translate(-319.839 -302.451)" fill="#495560"/>
        </g>
      </g>
      <g id="Group_6019" data-name="Group 6019" transform="translate(8.892 7.635)">
        <g id="Group_6017" data-name="Group 6017">
          <path id="Path_5215" data-name="Path 5215" d="M170.478,140.932h-9.739a.539.539,0,0,1,0-1.079h9.739a.539.539,0,0,1,0,1.079Z" transform="translate(-160.2 -139.853)" fill="#b5babc"/>
        </g>
        <g id="Group_6018" data-name="Group 6018" transform="translate(0 2.964)">
          <path id="Path_5216" data-name="Path 5216" d="M165.609,182.139h-4.869a.539.539,0,1,1,0-1.079h4.869a.539.539,0,1,1,0,1.079Z" transform="translate(-160.2 -181.06)" fill="#b5babc"/>
        </g>
      </g>
      <g id="Group_6022" data-name="Group 6022">
        <g id="Group_6020" data-name="Group 6020">
          <path id="Path_5217" data-name="Path 5217" d="M45.374,34.786H37.117a.539.539,0,1,1,0-1.079h8.257a.539.539,0,1,1,0,1.079Z" transform="translate(-36.578 -33.707)" fill="#b5babc"/>
        </g>
        <g id="Group_6021" data-name="Group 6021" transform="translate(0 2.964)">
          <path id="Path_5218" data-name="Path 5218" d="M42.728,75.993h-5.61a.539.539,0,1,1,0-1.079h5.61a.539.539,0,1,1,0,1.079Z" transform="translate(-36.578 -74.914)" fill="#b5babc"/>
        </g>
      </g>
    </g>
  </g>
</svg>
