<svg height="512" viewBox="0 0 64 64" width="512" xmlns="http://www.w3.org/2000/svg" xmlns:xlink="http://www.w3.org/1999/xlink"><linearGradient id="linear-gradient" gradientUnits="userSpaceOnUse" x1="7.293" x2="45.707" y1="15.293" y2="53.707"><stop offset="0" stop-color="#eef2f3"/><stop offset="1" stop-color="#c0cdfb"/></linearGradient><linearGradient id="linear-gradient-2" gradientUnits="userSpaceOnUse" x1="28.293" x2="36.707" y1="22.543" y2="30.957"><stop offset="0" stop-color="#596c76"/><stop offset="1" stop-color="#2c3e50"/></linearGradient><linearGradient id="linear-gradient-3" x1="28.293" x2="36.707" xlink:href="#linear-gradient-2" y1="32.543" y2="40.957"/><linearGradient id="linear-gradient-4" x1="15.755" x2="19.108" xlink:href="#linear-gradient-2" y1="22.787" y2="26.14"/><linearGradient id="linear-gradient-5" x1="15.755" x2="19.108" xlink:href="#linear-gradient-2" y1="32.787" y2="36.14"/><linearGradient id="linear-gradient-6" x1="16.755" x2="20.108" xlink:href="#linear-gradient-2" y1="43.787" y2="47.14"/><linearGradient id="linear-gradient-7" x1="28.293" x2="36.707" xlink:href="#linear-gradient-2" y1="43.043" y2="51.457"/><linearGradient id="linear-gradient-8" gradientUnits="userSpaceOnUse" x1="20.293" x2="32.707" y1="6.293" y2="18.707"><stop offset="0" stop-color="#20aaf7"/><stop offset=".25806" stop-color="#278ceb"/><stop offset=".59352" stop-color="#276dd3"/><stop offset="1" stop-color="#2432ce"/></linearGradient><linearGradient id="linear-gradient-9" x1="25.793" x2="27.207" xlink:href="#linear-gradient" y1="8.543" y2="9.957"/><linearGradient id="linear-gradient-10" x1="37.434" x2="51.576" xlink:href="#linear-gradient-8" y1="41.424" y2="55.566"/><linearGradient id="linear-gradient-11" x1="42.025" x2="46.975" xlink:href="#linear-gradient" y1="44.775" y2="49.725"/><linearGradient id="linear-gradient-12" x1="41.08" x2="47.92" xlink:href="#linear-gradient" y1="52.37" y2="59.21"/><g id="Registration_Form" data-name="Registration Form"><rect fill="url(#linear-gradient)" height="44" rx="1" width="34" x="9.5" y="12.5"/><path d="m39.5 27.75h-14a1 1 0 0 1 0-2h14a1 1 0 0 1 0 2z" fill="url(#linear-gradient-2)"/><path d="m39.5 37.75h-14a1 1 0 0 1 0-2h14a1 1 0 0 1 0 2z" fill="url(#linear-gradient-3)"/><path d="m14.70361 28.32715-1.46777-1.73828a1.00035 1.00035 0 0 1 1.52832-1.291l1.05225 1.24707 4.481-4.42383a1.00031 1.00031 0 0 1 1.40528 1.42383l-4.94292 4.87986a1.39077 1.39077 0 0 1 -1.96685.00057q-.04692-.04695-.08931-.09822z" fill="url(#linear-gradient-4)"/><path d="m14.70361 38.32715-1.46777-1.73828a1.00035 1.00035 0 0 1 1.52832-1.291l1.05225 1.24707 4.481-4.42383a1.00031 1.00031 0 0 1 1.40528 1.42383l-4.94292 4.87986a1.39077 1.39077 0 0 1 -1.96685.00057q-.04692-.04695-.08931-.09822z" fill="url(#linear-gradient-5)"/><path d="m15.70361 49.32715-1.46777-1.73828a1.00035 1.00035 0 0 1 1.52832-1.291l1.05225 1.24707 4.481-4.42383a1.00031 1.00031 0 0 1 1.40528 1.42383l-4.94292 4.87986a1.39077 1.39077 0 0 1 -1.96685.00057q-.04692-.04695-.08931-.09822z" fill="url(#linear-gradient-6)"/><path d="m39.5 48.25h-14a1 1 0 0 1 0-2h14a1 1 0 0 1 0 2z" fill="url(#linear-gradient-7)"/><path d="m32.15829 9.49915 3.34171.00085a1 1 0 0 1 1 1v4a1 1 0 0 1 -1 1h-18a1 1 0 0 1 -1-1v-4a1 1 0 0 1 1-1h3.3417a6.00225 6.00225 0 0 1 11.31659-.00085z" fill="url(#linear-gradient-8)"/><circle cx="26.5" cy="9.25" fill="url(#linear-gradient-9)" r="1"/><path d="m54.5 48.5a9.96377 9.96377 0 1 1 0-.07259q.00014.0363 0 .07259z" fill="url(#linear-gradient-10)"/><circle cx="44.5" cy="47.25" fill="url(#linear-gradient-11)" r="3.5"/><path d="m51.34 55.79a9.98705 9.98705 0 0 1 -13.68006 0 9.77965 9.77965 0 0 1 13.68006 0z" fill="url(#linear-gradient-12)"/><path d="m51.34 55.79a9.90426 9.90426 0 0 1 -5.74 2.64 6.85891 6.85891 0 0 0 5.17-3.17 5.69054 5.69054 0 0 1 .57.53z" fill="#bcbbbb"/></g></svg>