<svg xmlns="http://www.w3.org/2000/svg" width="36.2" height="36.2" viewBox="0 0 36.2 36.2">
  <path id="link_2_" data-name="link (2)" d="M18.1,0A18.1,18.1,0,1,0,36.2,18.1,18.1,18.1,0,0,0,18.1,0Zm2.4,23.688-1.606,1.606a5.544,5.544,0,0,1-3.982,1.652,5.647,5.647,0,0,1-4-9.638L12.512,15.7a1.093,1.093,0,0,1,1.584,0,1.12,1.12,0,0,1,0,1.606l-1.606,1.584a3.408,3.408,0,0,0-.973,2.4,3.331,3.331,0,0,0,.973,2.4,3.4,3.4,0,0,0,4.819,0L18.892,22.1a1.12,1.12,0,0,1,1.606,0,1.093,1.093,0,0,1,0,1.584Zm.792-7.195-4.8,4.8a1.12,1.12,0,1,1-1.584-1.584l4.8-4.8a1.12,1.12,0,1,1,1.584,1.584Zm4,2.4L23.688,20.5a1.061,1.061,0,0,1-.792.339A1.1,1.1,0,0,1,22.1,20.5a1.12,1.12,0,0,1,0-1.606l1.606-1.584a3.408,3.408,0,0,0,.973-2.4,3.331,3.331,0,0,0-.973-2.4,3.4,3.4,0,0,0-4.819,0L17.308,14.1a1.12,1.12,0,0,1-1.606,0,1.093,1.093,0,0,1,0-1.584l1.606-1.606a5.647,5.647,0,1,1,7.987,7.987Z" fill="#2196f3"/>
</svg>
