<svg xmlns="http://www.w3.org/2000/svg" width="35.146" height="35.733" viewBox="0 0 35.146 35.733">
  <g id="link_1_" data-name="link (1)" transform="translate(0)">
    <path id="Path_5663" data-name="Path 5663" d="M12.723,0H30.847a8.536,8.536,0,0,1,8.511,8.511V27.225a8.536,8.536,0,0,1-8.511,8.511H12.723a8.536,8.536,0,0,1-8.511-8.511V8.514A8.536,8.536,0,0,1,12.723,0Z" transform="translate(-4.212 -0.003)" fill="#4cd3aa" fill-rule="evenodd"/>
    <path id="Path_5664" data-name="Path 5664" d="M116.892,120.165a1.227,1.227,0,1,1,1.735,1.735l-3.494,3.494a5.074,5.074,0,0,1-1.664,1.108,5.129,5.129,0,0,1-1.967.392v0a5.16,5.16,0,0,1-1.969-.39,5.064,5.064,0,0,1-1.662-1.108,5.111,5.111,0,0,1-1.5-3.63h0a5.182,5.182,0,0,1,.39-1.968,5.124,5.124,0,0,1,1.11-1.662l3.494-3.494a5.125,5.125,0,0,1,1.662-1.11,5.182,5.182,0,0,1,1.969-.39v0a5.111,5.111,0,0,1,3.63,1.5,1.227,1.227,0,0,1-1.735,1.735,2.638,2.638,0,0,0-.865-.58,2.71,2.71,0,0,0-1.031-.2,2.672,2.672,0,0,0-1.9.781l-3.494,3.494a2.639,2.639,0,0,0-.58.865,2.734,2.734,0,0,0,0,2.062,2.69,2.69,0,0,0,1.444,1.444,2.717,2.717,0,0,0,1.031.2,2.675,2.675,0,0,0,1.9-.781Zm-.152-7.488A1.227,1.227,0,1,1,115,110.941l3.494-3.494a5.122,5.122,0,0,1,1.662-1.11,5.166,5.166,0,0,1,3.937,0,5.115,5.115,0,0,1,2.772,2.772,5.143,5.143,0,0,1-1.11,5.6l-3.494,3.494a5.087,5.087,0,0,1-1.662,1.108,5.166,5.166,0,0,1-3.937,0A5.087,5.087,0,0,1,115,118.2a1.227,1.227,0,1,1,1.735-1.735,2.6,2.6,0,0,0,.865.578,2.7,2.7,0,0,0,2.926-.578l3.494-3.494a2.681,2.681,0,0,0,.58-.865,2.719,2.719,0,0,0,.2-1.031h0a2.72,2.72,0,0,0-.2-1.031,2.668,2.668,0,0,0-.58-.867,2.632,2.632,0,0,0-.865-.578,2.727,2.727,0,0,0-1.031-.2v0a2.669,2.669,0,0,0-1.9.779Z" transform="translate(-99.243 -98.554)" fill="#fff"/>
  </g>
</svg>
