<svg xmlns="http://www.w3.org/2000/svg" width="87" height="126.482" viewBox="0 0 87 126.482">
  <g id="Tap" transform="translate(-15.001 -7.57)">
    <path id="Path_33555" data-name="Path 33555" d="M98.6,65.22a9.857,9.857,0,0,0-7.313-2.815,10.08,10.08,0,0,0-2.405.415,11.023,11.023,0,0,0-3.071-5.289,9.844,9.844,0,0,0-7.318-2.8,10.079,10.079,0,0,0-2.405.415,11.023,11.023,0,0,0-3.071-5.289,10.03,10.03,0,0,0-5.32-2.689A23.029,23.029,0,0,0,62.017,7.788,2.559,2.559,0,1,0,60.1,12.529a17.878,17.878,0,0,1,3.518,31.263V27.017a10.463,10.463,0,0,0-9.69-10.655,10.169,10.169,0,0,0-7.589,2.8,10.286,10.286,0,0,0-3.191,7.421v17.21a17.878,17.878,0,0,1,3.518-31.263,2.559,2.559,0,1,0-1.919-4.741,22.981,22.981,0,0,0-1.6,41.916V79.578c-.7.847-1.361,1.712-1.965,2.6L32.949,74.1a10.7,10.7,0,0,0-13.321-1.5,10.235,10.235,0,0,0-4.583,7.574,10.12,10.12,0,0,0,3.025,8.209l3.411,3.326A102.784,102.784,0,0,1,39.5,116.593a33.408,33.408,0,0,0,29.3,17.459c.7,0,1.4-.02,2.1-.066A33.776,33.776,0,0,0,102,99.9V73.127a10.982,10.982,0,0,0-3.4-7.907ZM96.881,99.9a28.659,28.659,0,0,1-26.3,28.973,28.3,28.3,0,0,1-26.586-14.7,107.654,107.654,0,0,0-18.935-26.1l-3.408-3.326a5.095,5.095,0,0,1,3.616-8.7,5.9,5.9,0,0,1,4.094,1.717L39.889,88.086a2.559,2.559,0,0,0,4.045-.614,28.338,28.338,0,0,1,3.685-5.248,2.559,2.559,0,0,0,.64-1.691V48.076h0V26.582a5.118,5.118,0,0,1,5.4-5.118A5.422,5.422,0,0,1,58.5,27.017V48.076h0v3.516a2.332,2.332,0,0,0,.049.33c0,.082-.049.154-.049.238V67.513a2.559,2.559,0,1,0,5.118,0V52.9a4.89,4.89,0,0,1,2.323-.727,4.747,4.747,0,0,1,3.539,1.392,5.862,5.862,0,0,1,1.814,4.212v1.5a2.33,2.33,0,0,0,.049.33c0,.082-.049.154-.049.238V70.082a2.559,2.559,0,0,0,5.118,0V60.573a4.89,4.89,0,0,1,2.323-.727,4.821,4.821,0,0,1,3.539,1.392,5.862,5.862,0,0,1,1.814,4.212v1.5a2.33,2.33,0,0,0,.049.33c0,.082-.049.154-.049.238V75.2a2.559,2.559,0,1,0,5.118,0V68.25a4.888,4.888,0,0,1,2.321-.727h0a4.765,4.765,0,0,1,3.539,1.392,5.862,5.862,0,0,1,1.817,4.212Z" transform="translate(0)" fill="#57a4ff"/>
  </g>
</svg>
