<svg xmlns="http://www.w3.org/2000/svg" width="41.672" height="44.163" viewBox="0 0 41.672 44.163">
  <g id="registered-document" transform="translate(-3.057 -1.257)">
    <path id="Path_33573" data-name="Path 33573" d="M13.13,11.114a1.635,1.635,0,0,0,1.73-1.523A1.644,1.644,0,0,0,13.13,8,1.635,1.635,0,0,0,11.4,9.523,1.644,1.644,0,0,0,13.13,11.114Z" transform="translate(-2.456 -1.964)" fill="#d4d7da" stroke="#b3b4b6" stroke-width="0.7"/>
    <path id="Path_33573_-_Outline" data-name="Path 33573 - Outline" d="M13.137,11.428A1.951,1.951,0,0,1,11.1,9.53,1.944,1.944,0,0,1,13.137,7.7a1.951,1.951,0,0,1,2.037,1.9A1.944,1.944,0,0,1,13.137,11.428Zm0-3.114A1.333,1.333,0,0,0,11.714,9.53a1.345,1.345,0,0,0,1.423,1.285A1.333,1.333,0,0,0,14.56,9.6,1.345,1.345,0,0,0,13.137,8.314Z" transform="translate(-2.463 -1.971)" fill="#b3b4b6"/>
    <path id="Path_33574" data-name="Path 33574" d="M29.838,22.309H18.972a.692.692,0,1,1,0-1.384H29.146a10.653,10.653,0,0,1-2.353-1.938H18.972a.694.694,0,0,1-.692-.692.744.744,0,0,1,.692-.692h6.713a11.2,11.2,0,0,1-1.8-6.021A10.923,10.923,0,0,1,28.108,3H5.753A2.334,2.334,0,0,0,3.4,5.353V43.072a2.439,2.439,0,0,0,2.353,2.422H32.26a2.393,2.393,0,0,0,2.353-2.422V22.517a10.063,10.063,0,0,1-4.083-.9.744.744,0,0,1-.692.692ZM6.514,14.973c.069-.346-.554-3.253,2.145-4.706A2.938,2.938,0,0,1,7.622,8.052a3.018,3.018,0,0,1,3.114-2.907,3.018,3.018,0,0,1,3.114,2.907,2.938,2.938,0,0,1-1.038,2.215c2.7,1.523,2.076,4.36,2.145,4.706a.654.654,0,0,1-.692.692H7.345A.736.736,0,0,1,6.514,14.973Zm9.9,25.4a.694.694,0,0,1-.692.692H11.774a.694.694,0,0,1-.692-.692V35.943a.654.654,0,0,1,.692-.692h3.945a.654.654,0,0,1,.692.692Zm0-9.136a.654.654,0,0,1-.692.692H11.774a.654.654,0,0,1-.692-.692V26.808a.694.694,0,0,1,.692-.692h3.945a.694.694,0,0,1,.692.692Zm0-9.066a.694.694,0,0,1-.692.692H11.774a.694.694,0,0,1-.692-.692V17.741a.654.654,0,0,1,.692-.692h3.945a.654.654,0,0,1,.692.692Zm13.427,18.34H18.972a.694.694,0,0,1-.692-.692.744.744,0,0,1,.692-.692H29.838a.692.692,0,0,1,0,1.384Zm0-3.322H18.972a.692.692,0,1,1,0-1.384H29.838a.654.654,0,0,1,.692.692A.694.694,0,0,1,29.838,37.189Zm0-5.814H18.972a.744.744,0,0,1-.692-.692.694.694,0,0,1,.692-.692H29.838a.654.654,0,0,1,.692.692A.694.694,0,0,1,29.838,31.376Zm0-3.253H18.972a.744.744,0,0,1-.692-.692.694.694,0,0,1,.692-.692H29.838a.654.654,0,0,1,.692.692A.744.744,0,0,1,29.838,28.123Z" transform="translate(0.007 -0.424)" fill="#d4d7da" stroke="#b3b4b6" stroke-width="0.7"/>
    <path id="Path_33574_-_Outline" data-name="Path 33574 - Outline" d="M5.76,2.7H29l-.7.549a10.556,10.556,0,0,0-4.1,8.34,10.866,10.866,0,0,0,1.751,5.856l.3.472H18.979a.443.443,0,0,0-.385.385.386.386,0,0,0,.385.385h7.956l.091.1a10.28,10.28,0,0,0,2.287,1.883l.916.564v-.083l.432.192a9.714,9.714,0,0,0,3.959.873h.307V43.079a2.7,2.7,0,0,1-2.66,2.729H5.76A2.64,2.64,0,0,1,3.9,45a2.733,2.733,0,0,1-.8-1.919V5.36A2.632,2.632,0,0,1,5.76,2.7Zm21.517.614H5.76A2.024,2.024,0,0,0,3.714,5.36V43.079A2.136,2.136,0,0,0,5.76,45.194H32.267a2.084,2.084,0,0,0,2.046-2.115V22.826a10.3,10.3,0,0,1-3.576-.783,1.054,1.054,0,0,1-.893.58H18.979a1,1,0,1,1,0-2h9.17A10.792,10.792,0,0,1,26.665,19.3H18.979a1,1,0,0,1-1-1,1.052,1.052,0,0,1,1-1h6.167a11.421,11.421,0,0,1-1.56-5.714,10.974,10.974,0,0,1,1.183-4.974A11.471,11.471,0,0,1,27.277,3.314ZM30.23,21.239H18.979a.385.385,0,1,0,0,.77H29.845a.443.443,0,0,0,.385-.385ZM10.743,4.845a3.326,3.326,0,0,1,3.421,3.214,3.2,3.2,0,0,1-.852,2.158,4.7,4.7,0,0,1,1.961,4.468c0,.1-.01.2-.007.24l0,.025v.03a.956.956,0,0,1-1,1H7.352a1.037,1.037,0,0,1-1.137-1v-.03l0-.025c0-.035,0-.146-.007-.244a4.666,4.666,0,0,1,1.956-4.47,3.2,3.2,0,0,1-.847-2.152A3.326,3.326,0,0,1,10.743,4.845ZM14.658,15a2.293,2.293,0,0,1,0-.345,4.052,4.052,0,0,0-1.992-4.115l-.374-.211.321-.286a2.632,2.632,0,0,0,.935-1.985,2.713,2.713,0,0,0-2.807-2.6,2.713,2.713,0,0,0-2.807,2.6,2.632,2.632,0,0,0,.935,1.985l.328.292-.386.208a4,4,0,0,0-1.986,4.108,2.369,2.369,0,0,1,0,.346c.01.185.173.366.523.366h6.921A.348.348,0,0,0,14.658,15Zm-2.876,1.749h3.945a.956.956,0,0,1,1,1v4.429a1,1,0,0,1-1,1H11.781a1,1,0,0,1-1-1V17.748A.956.956,0,0,1,11.781,16.749Zm3.945,5.814a.386.386,0,0,0,.385-.385V17.748a.351.351,0,0,0-.385-.385H11.781a.351.351,0,0,0-.385.385v4.429a.386.386,0,0,0,.385.385Zm-3.945,3.253h3.945a1,1,0,0,1,1,1v4.429a.956.956,0,0,1-1,1H11.781a.956.956,0,0,1-1-1V26.815A1,1,0,0,1,11.781,25.816Zm3.945,5.814a.351.351,0,0,0,.385-.385V26.815a.386.386,0,0,0-.385-.385H11.781a.386.386,0,0,0-.385.385v4.429a.351.351,0,0,0,.385.385Zm3.253-5.191H29.845a.956.956,0,0,1,1,1,1.052,1.052,0,0,1-1,1H18.979a1.052,1.052,0,0,1-1-1A1,1,0,0,1,18.979,26.439Zm10.866,1.384a.443.443,0,0,0,.385-.385.351.351,0,0,0-.385-.385H18.979a.386.386,0,0,0-.385.385.443.443,0,0,0,.385.385ZM18.979,29.691H29.845a.956.956,0,0,1,1,1,1,1,0,0,1-1,1H18.979a1.052,1.052,0,0,1-1-1A1,1,0,0,1,18.979,29.691Zm10.866,1.384a.386.386,0,0,0,.385-.385.351.351,0,0,0-.385-.385H18.979a.386.386,0,0,0-.385.385.443.443,0,0,0,.385.385ZM11.781,34.951h3.945a.956.956,0,0,1,1,1V40.38a1,1,0,0,1-1,1H11.781a1,1,0,0,1-1-1V35.95A.956.956,0,0,1,11.781,34.951Zm3.945,5.814a.386.386,0,0,0,.385-.385V35.95a.351.351,0,0,0-.385-.385H11.781a.351.351,0,0,0-.385.385V40.38a.386.386,0,0,0,.385.385Zm3.253-5.26H29.845a.956.956,0,0,1,1,1,1,1,0,0,1-1,1H18.979a1,1,0,1,1,0-2Zm10.866,1.384a.386.386,0,0,0,.385-.385.351.351,0,0,0-.385-.385H18.979a.385.385,0,1,0,0,.77ZM18.979,38.827H29.845a1,1,0,0,1,0,2H18.979a1,1,0,0,1-1-1A1.052,1.052,0,0,1,18.979,38.827Zm10.866,1.384a.385.385,0,1,0,0-.77H18.979a.443.443,0,0,0-.385.385.386.386,0,0,0,.385.385Z" transform="translate(0 -0.431)" fill="#b3b4b6"/>
    <path id="Path_33575" data-name="Path 33575" d="M12.668,14.6A2.776,2.776,0,0,0,9.9,17.368v.415h5.537v-.415A2.776,2.776,0,0,0,12.668,14.6Z" transform="translate(-1.994 -3.996)" fill="#d4d7da" stroke="#b3b4b6" stroke-width="0.7"/>
    <path id="Path_33575_-_Outline" data-name="Path 33575 - Outline" d="M12.675,14.3a3.079,3.079,0,0,1,3.075,3.075V18.1H9.6v-.722A3.079,3.079,0,0,1,12.675,14.3Zm2.461,3.184v-.108a2.461,2.461,0,0,0-4.923,0v.108Z" transform="translate(-2.001 -4.003)" fill="#b3b4b6"/>
    <path id="Path_33576" data-name="Path 33576" d="M44.551,1.6A9.551,9.551,0,1,0,54.1,11.151,9.57,9.57,0,0,0,44.551,1.6Zm3.46,14.6H41.16a.654.654,0,0,1-.692-.692V6.791A.654.654,0,0,1,41.16,6.1h6.852a.692.692,0,0,1,0,1.384h-6.16v7.336h6.16a.692.692,0,1,1,0,1.384Zm.761-6.229-3.184,3.184a.669.669,0,0,1-.969,0L43.167,11.7a.685.685,0,0,1,.969-.969l.969.969,2.7-2.7a.685.685,0,1,1,.969.969Z" transform="translate(-9.723 0.007)" fill="#d4d7da" stroke="#b3b4b6" stroke-width="0.7"/>
    <path id="Path_33576_-_Outline" data-name="Path 33576 - Outline" d="M44.558,1.3A9.858,9.858,0,1,1,34.7,11.158,9.869,9.869,0,0,1,44.558,1.3Zm0,19.1a9.244,9.244,0,1,0-9.244-9.244A9.254,9.254,0,0,0,44.558,20.4ZM41.167,5.8h6.852a1,1,0,0,1,0,2H42.166v6.722h5.853a1,1,0,0,1,0,2H41.167a.956.956,0,0,1-1-1V6.8A.956.956,0,0,1,41.167,5.8Zm6.852,1.384a.385.385,0,0,0,0-.77H41.167a.351.351,0,0,0-.385.385v8.72a.351.351,0,0,0,.385.385h6.852a.385.385,0,0,0,0-.77H41.552V7.183ZM48.3,8.5a.987.987,0,0,1,.687.283.863.863,0,0,1,.31.618,1.039,1.039,0,0,1-.3.8l-3.184,3.184a.976.976,0,0,1-1.4,0l-1.453-1.453a.992.992,0,1,1,1.4-1.4l.752.752L47.594,8.8A.989.989,0,0,1,48.3,8.5Zm-3.184,4.568a.375.375,0,0,0,.267-.118l3.184-3.184a.423.423,0,0,0,.117-.322.249.249,0,0,0-.084-.185l-.017-.013-.015-.015a.363.363,0,0,0-.535,0l-2.916,2.916L43.925,10.96a.363.363,0,0,0-.535,0,.362.362,0,0,0,0,.535l1.453,1.453A.375.375,0,0,0,45.111,13.066Z" transform="translate(-9.73 0)" fill="#b3b4b6"/>
  </g>
</svg>
