<svg id="request_2_" data-name="request (2)" xmlns="http://www.w3.org/2000/svg" width="37.267" height="43" viewBox="0 0 37.267 43">
  <path id="Path_33556" data-name="Path 33556" d="M1,1V42.567H31.1V1Z" transform="translate(-0.283 -0.283)" fill="#d4d7da"/>
  <path id="Path_33557" data-name="Path 33557" d="M40.052,51.592l-2.465,2.071L36.92,50.51Z" transform="translate(-10.461 -14.311)" fill="#f8f8f8"/>
  <path id="Path_33558" data-name="Path 33558" d="M49.51,22.906a1.583,1.583,0,0,1-.093.545l-.537,1.569L45.74,23.938l.545-1.57a1.658,1.658,0,0,1,3.225.538Z" transform="translate(-12.96 -6.021)" fill="#f8f8f8"/>
  <path id="Path_33559" data-name="Path 33559" d="M46.38,26.082l-5.1,14.742-1.225,3.54L36.92,43.282l.867-2.516.624-1.8,2.867-8.292L43.241,25Z" transform="translate(-10.461 -7.083)" fill="#c9cacb"/>
  <path id="Path_33560" data-name="Path 33560" d="M29.367,29V40.1l-.623,1.8H5V29Z" transform="translate(-1.417 -8.217)" fill="#fff"/>
  <path id="Path_33561" data-name="Path 33561" d="M5,17h6.45v2.867H5Z" transform="translate(-1.417 -4.817)" fill="#fff"/>
  <path id="Path_33562" data-name="Path 33562" d="M5,9h6.45v2.867H5Z" transform="translate(-1.417 -2.55)" fill="#fff"/>
  <path id="Path_33563" data-name="Path 33563" d="M18,9H33.05v2.867H18Z" transform="translate(-5.1 -2.55)" fill="#fff"/>
  <path id="Path_33564" data-name="Path 33564" d="M18,17H33.05v2.867H18Z" transform="translate(-5.1 -4.817)" fill="#fff"/>
  <g id="Group_14108" data-name="Group 14108" transform="translate(0 0)">
    <path id="Path_33565" data-name="Path 33565" d="M4,4h7.883V5.433H4Z" transform="translate(-1.133 -1.133)" fill="#b3b4b6"/>
    <path id="Path_33566" data-name="Path 33566" d="M4.717,20.3h6.45a.717.717,0,0,0,.717-.717V16.717A.717.717,0,0,0,11.167,16H4.717A.717.717,0,0,0,4,16.717v2.867A.717.717,0,0,0,4.717,20.3Zm.717-2.867H10.45v1.433H5.433Z" transform="translate(-1.133 -4.533)" fill="#b3b4b6"/>
    <path id="Path_33567" data-name="Path 33567" d="M17.717,20.3h15.05a.717.717,0,0,0,.717-.717V16.717A.717.717,0,0,0,32.767,16H17.717a.717.717,0,0,0-.717.717v2.867A.717.717,0,0,0,17.717,20.3Zm.717-2.867H32.05v1.433H18.433Z" transform="translate(-4.817 -4.533)" fill="#b3b4b6"/>
    <path id="Path_33568" data-name="Path 33568" d="M4.717,12.3h6.45a.717.717,0,0,0,.717-.717V8.717A.717.717,0,0,0,11.167,8H4.717A.717.717,0,0,0,4,8.717v2.867A.717.717,0,0,0,4.717,12.3Zm.717-2.867H10.45v1.433H5.433Z" transform="translate(-1.133 -2.267)" fill="#b3b4b6"/>
    <path id="Path_33569" data-name="Path 33569" d="M17.717,12.3h15.05a.717.717,0,0,0,.717-.717V8.717A.717.717,0,0,0,32.767,8H17.717A.717.717,0,0,0,17,8.717v2.867A.717.717,0,0,0,17.717,12.3Zm.717-2.867H32.05v1.433H18.433Z" transform="translate(-4.817 -2.267)" fill="#b3b4b6"/>
    <path id="Path_33570" data-name="Path 33570" d="M4,24h8.6v1.433H4Z" transform="translate(-1.133 -6.8)" fill="#b3b4b6"/>
    <path id="Path_33571" data-name="Path 33571" d="M35.667,14.645a2.373,2.373,0,0,0-3.019,1.467l-.545,1.57h0l-.57,1.648V.717A.717.717,0,0,0,30.817,0H.717A.717.717,0,0,0,0,.717V42.283A.716.716,0,0,0,.717,43h30.1a.716.716,0,0,0,.717-.717V33.86L36.6,19.233h0l.534-1.559a2.288,2.288,0,0,0,.135-.787,2.371,2.371,0,0,0-1.6-2.24Zm-1.187,1.4A.926.926,0,0,1,35.2,16a.937.937,0,0,1,.634.884.876.876,0,0,1-.054.312l-.3.89-.891-.307-.891-.307.31-.892a.938.938,0,0,1,.478-.541ZM27.233,31.761l-.417,1.206H4.3V21.5H27.233ZM30.1,41.567H1.433V1.433H30.1V23.472l-1.433,4.144V20.783a.717.717,0,0,0-.717-.717H3.583a.717.717,0,0,0-.717.717v12.9a.716.716,0,0,0,.717.717H26.321l-.54,1.565a.7.7,0,0,0-.011.381l-.013,0,.664,3.153a.717.717,0,0,0,1.162.4l2.47-2.07-.006-.008c.017-.014.037-.024.053-.04Zm-2.68-4.278.745.257-.587.492Zm1.728-.919-1.778-.614,5.854-16.928,1.784.615Z" transform="translate(0 0)" fill="#b3b4b6"/>
    <path id="Path_33572" data-name="Path 33572" d="M5,50H20.767v1.433H5Z" transform="translate(-1.417 -14.167)" fill="#b3b4b6"/>
  </g>
</svg>
