<svg xmlns="http://www.w3.org/2000/svg" width="28.008" height="28.017" viewBox="0 0 28.008 28.017">
  <g id="map" transform="translate(-0.083)">
    <path id="Path_34513" data-name="Path 34513" d="M28.059,328.357l-4.037-9.774a.409.409,0,0,0-.378-.254H4.529a.409.409,0,0,0-.378.254L.114,328.357a.414.414,0,0,0,.037.387.408.408,0,0,0,.34.183h27.19a.408.408,0,0,0,.34-.183A.415.415,0,0,0,28.059,328.357Z" transform="translate(0 -300.911)" fill="#a8eefc"/>
    <path id="Path_34514" data-name="Path 34514" d="M405.017,328.928h1.3a.408.408,0,0,0,.34-.183.415.415,0,0,0,.037-.387l-4.037-9.774a.409.409,0,0,0-.378-.254h-1.643Z" transform="translate(-378.638 -300.911)" fill="#7ee5f2"/>
    <g id="Group_14920" data-name="Group 14920" transform="translate(2.704 17.41)">
      <path id="Path_34515" data-name="Path 34515" d="M52.1,321.858l1.393-3.7H49.784a.409.409,0,0,0-.378.254l-1.422,3.441Z" transform="translate(-47.985 -318.163)" fill="#4ce166"/>
      <path id="Path_34516" data-name="Path 34516" d="M207.787,318.163H194.912l3.755,3.274h10.745l-1.248-3.021A.409.409,0,0,0,207.787,318.163Z" transform="translate(-186.872 -318.163)" fill="#4ce166"/>
      <path id="Path_34517" data-name="Path 34517" d="M461.655,382.269l.077.187h0Z" transform="translate(-439.019 -378.761)" fill="#4ce166"/>
    </g>
    <path id="Path_34518" data-name="Path 34518" d="M53.322,324.443l-1.242-3.006H41.336l-3.755-3.274h-2.84l-1.359,3.274H29.715l-.824,1.994-.418,1.013h3.671l-1.784,4.318H33.7l2.865-7.014,8.261,7.014H49.7l-4.937-4.318Z" transform="translate(-26.837 -300.753)" fill="#ffdb56"/>
    <path id="Path_34519" data-name="Path 34519" d="M102.9,0a8.879,8.879,0,0,0-8.835,8.9,12.229,12.229,0,0,0,1.359,5.336,22.529,22.529,0,0,0,2.95,4.461,30.861,30.861,0,0,0,4.277,4.239.407.407,0,0,0,.5,0,30.868,30.868,0,0,0,4.277-4.239,22.524,22.524,0,0,0,2.95-4.461A12.229,12.229,0,0,0,111.734,8.9,8.879,8.879,0,0,0,102.9,0Zm0,5.516A3.386,3.386,0,1,1,99.538,8.9,3.374,3.374,0,0,1,102.9,5.516Z" transform="translate(-88.838)" fill="#ff4a4a"/>
    <path id="Path_34520" data-name="Path 34520" d="M240.64,0c-.291,0-.578.015-.862.042A8.889,8.889,0,0,1,247.752,8.9a12.229,12.229,0,0,1-1.359,5.336,22.529,22.529,0,0,1-2.95,4.461,32.251,32.251,0,0,1-3.665,3.732c.36.31.584.485.611.507a.407.407,0,0,0,.5,0,30.866,30.866,0,0,0,4.277-4.239,22.525,22.525,0,0,0,2.95-4.461A12.229,12.229,0,0,0,249.475,8.9,8.879,8.879,0,0,0,240.64,0Z" transform="translate(-226.579)" fill="#e7343f"/>
    <path id="Path_34521" data-name="Path 34521" d="M123.941,390.672h11.126l-8.261-7.014Z" transform="translate(-117.081 -362.664)" fill="#4ce166"/>
    <path id="Path_34522" data-name="Path 34522" d="M424.884,378l1.242,3.006h1.916L426.8,378Z" transform="translate(-401.556 -357.317)" fill="#ffbb24"/>
    <path id="Path_34523" data-name="Path 34523" d="M401.519,321.438h1.916l-1.248-3.021a.409.409,0,0,0-.378-.254h-1.643Z" transform="translate(-378.191 -300.754)" fill="#44c868"/>
  </g>
</svg>
