<svg xmlns="http://www.w3.org/2000/svg" width="11.543" height="14.429" viewBox="0 0 11.543 14.429">
  <path id="lock" d="M8.164,8.772V6.607a3.607,3.607,0,0,1,7.215,0V8.772H16.1a1.443,1.443,0,0,1,1.443,1.443v5.772A1.443,1.443,0,0,1,16.1,17.429H7.443A1.443,1.443,0,0,1,6,15.986V10.215A1.443,1.443,0,0,1,7.443,8.772Zm-.721,1.443v5.772H16.1V10.215ZM9.607,8.772h4.329V6.607a2.164,2.164,0,1,0-4.329,0Zm3.607,2.886h1.443v2.886H13.215Z" transform="translate(-6 -3)" fill="#217bff" fill-rule="evenodd" opacity="0.3"/>
</svg>
