<svg xmlns="http://www.w3.org/2000/svg" width="10.268" height="10.268" viewBox="0 0 10.268 10.268">
  <path id="menu" d="M9.4,5.5H6.372a.873.873,0,0,0-.872.872V9.4a.873.873,0,0,0,.872.872H9.4a.873.873,0,0,0,.872-.872V6.372A.873.873,0,0,0,9.4,5.5ZM7.884,4.765A2.381,2.381,0,1,0,5.5,2.384,2.381,2.381,0,0,0,7.884,4.765Zm-7.012,5.5H3.9A.873.873,0,0,0,4.768,9.4V6.372A.873.873,0,0,0,3.9,5.5H.872A.873.873,0,0,0,0,6.372V9.4A.873.873,0,0,0,.872,10.268Zm0-5.5H3.9A.873.873,0,0,0,4.768,3.9V.872A.873.873,0,0,0,3.9,0H.872A.873.873,0,0,0,0,.872V3.9a.873.873,0,0,0,.872.872Z" fill="#fff" fill-rule="evenodd"/>
</svg>
