<svg xmlns="http://www.w3.org/2000/svg" width="31.159" height="31.158" viewBox="0 0 31.159 31.158">
  <g id="users-267" transform="translate(0.5 0.5)">
    <path id="Path_33480" data-name="Path 33480" d="M91.89,57.635h0a4.693,4.693,0,0,1-4.679-4.679V51.278A4.693,4.693,0,0,1,91.89,46.6h0a4.693,4.693,0,0,1,4.679,4.679v1.678A4.693,4.693,0,0,1,91.89,57.635Z" transform="translate(-76.811 -41.041)" fill="#d4d7da" stroke="#babbbd" stroke-width="1"/>
    <path id="Path_33481" data-name="Path 33481" d="M63.287,144.541a5.7,5.7,0,0,1-5.27,0,7.384,7.384,0,0,0-6.274,7.276v4.84a.808.808,0,0,0,.805.805H68.755a.808.808,0,0,0,.805-.805v-4.84A7.383,7.383,0,0,0,63.287,144.541Z" transform="translate(-45.573 -127.304)" fill="#d4d7da" stroke="#babbbd" stroke-width="1"/>
    <path id="Path_33482" data-name="Path 33482" d="M168.439,97.94a5.714,5.714,0,0,1-2.635.646h0a6.162,6.162,0,0,1-1.674,3.83,8.931,8.931,0,0,1,5.924,8.358v.088h3.857a.808.808,0,0,0,.806-.806v-4.84A7.384,7.384,0,0,0,168.439,97.94Z" transform="translate(-144.554 -86.26)" fill="#d4d7da" stroke="#babbbd" stroke-width="1"/>
    <path id="Path_33483" data-name="Path 33483" d="M143.8,0a4.694,4.694,0,0,0-4.657,4.245,6.193,6.193,0,0,1,4.674,5.992v.8a4.692,4.692,0,0,0,4.663-4.678V4.679A4.693,4.693,0,0,0,143.8,0Z" transform="translate(-122.547)" fill="#d4d7da" stroke="#babbbd" stroke-width="1"/>
    <path id="Path_33484" data-name="Path 33484" d="M4.663,110.773a8.931,8.931,0,0,1,5.924-8.358,6.161,6.161,0,0,1-1.674-3.83h0a5.715,5.715,0,0,1-2.635-.646A7.384,7.384,0,0,0,0,105.216v4.84a.808.808,0,0,0,.806.806H4.663Z" transform="translate(0 -86.26)" fill="#d4d7da" stroke="#babbbd" stroke-width="1"/>
    <path id="Path_33485" data-name="Path 33485" d="M40.13,11.035v-.8A6.192,6.192,0,0,1,44.8,4.244a4.678,4.678,0,0,0-9.336.435V6.357A4.692,4.692,0,0,0,40.13,11.035Z" transform="translate(-31.238)" fill="#d4d7da" stroke="#babbbd" stroke-width="1"/>
  </g>
</svg>
