<svg xmlns="http://www.w3.org/2000/svg" width="11.2" height="11.2" viewBox="0 0 11.2 11.2">
  <g id="decrease-loan" transform="translate(-2 -2)">
    <path id="Path_30463" data-name="Path 30463" d="M12.8,6a.4.4,0,0,0-.4.4v4a2,2,0,0,1-2,2H4.8a2,2,0,0,1-2-2V4.8a2,2,0,0,1,2-2h4a.4.4,0,1,0,0-.8h-4A2.8,2.8,0,0,0,2,4.8v5.6a2.8,2.8,0,0,0,2.8,2.8h5.6a2.8,2.8,0,0,0,2.8-2.8v-4A.4.4,0,0,0,12.8,6Z" transform="translate(0 0)" fill="#707070"/>
    <path id="Path_30464" data-name="Path 30464" d="M22.259,5.426c.01.01.023.014.033.022a.385.385,0,0,0,.612,0c.01-.009.024-.013.033-.022l1.143-1.143a.4.4,0,0,0-.566-.566L23,4.234V2.4a.4.4,0,1,0-.8,0V4.234l-.517-.517a.4.4,0,0,0-.566.566l1.143,1.143Z" transform="translate(-11.399)" fill="#707070"/>
    <path id="Path_30465" data-name="Path 30465" d="M12.126,8a2.435,2.435,0,0,0-2.161,2H9.4a.4.4,0,0,0,0,.8h.419c-.012.131-.019.264-.019.4H9.4a.4.4,0,0,0,0,.8h.473c.252,1.394,1.15,2.4,2.253,2.4a2.026,2.026,0,0,0,1.59-.854.4.4,0,1,0-.631-.491,1.249,1.249,0,0,1-.958.546c-.65,0-1.218-.679-1.433-1.6H12.6a.4.4,0,1,0,0-.8h-2a3.551,3.551,0,0,1,.024-.4H13a.4.4,0,1,0,0-.8H10.814c.268-.71.761-1.2,1.312-1.2a1,1,0,0,1,.459.115,1.527,1.527,0,0,1,.5.431.4.4,0,0,0,.63-.492,2.321,2.321,0,0,0-.764-.65A1.79,1.79,0,0,0,12.126,8Z" transform="translate(-4.2 -3.6)" fill="#707070"/>
  </g>
</svg>
