<svg xmlns="http://www.w3.org/2000/svg" width="37.5" height="45.563" viewBox="0 0 37.5 45.563">
  <g id="no-data" transform="translate(-7.3 -1.25)">
    <path id="Path_5139" data-name="Path 5139" d="M38.509,5.97V41.707H12.04v2.841H41.4V5.97Z" transform="translate(-1.236 -1.231)" fill="#b9d7ff"/>
    <path id="Path_5140" data-name="Path 5140" d="M15.664,2.04,8.11,9.336V40.618H37.972V2.04Z" transform="translate(-0.211 -0.206)" fill="#fff"/>
    <circle id="Ellipse_470" data-name="Ellipse 470" cx="10.696" cy="10.696" r="10.696" transform="translate(14.197 16.425)" fill="#b9d7ff"/>
    <path id="Path_5141" data-name="Path 5141" d="M34.1,40.128a7.641,7.641,0,1,1,0-10.806A7.651,7.651,0,0,1,34.1,40.128Z" transform="translate(-3.812 -7.564)" fill="#ddebfd"/>
    <path id="Path_5142" data-name="Path 5142" d="M43.637,47.875,42.121,46.36a10.158,10.158,0,0,1-1.781,1.781l1.515,1.515a2.377,2.377,0,0,0,.628,2.2l6.822,6.822a2.368,2.368,0,0,0,3.348-3.348L45.832,48.5a2.377,2.377,0,0,0-2.2-.628Z" transform="translate(-9.118 -13.132)" fill="#7cb7ff"/>
    <path id="Path_5143" data-name="Path 5143" d="M15.614,9.544V1.99L8.06,9.544Z" transform="translate(-0.198 -0.193)" fill="#7cb7ff"/>
    <g id="Group_5970" data-name="Group 5970" transform="translate(7.3 1.25)">
      <path id="Path_5144" data-name="Path 5144" d="M34.277,28.722a8.2,8.2,0,1,0,0,11.6,8.157,8.157,0,0,0,0-11.6Zm-.784,10.821a7.1,7.1,0,1,1,0-10.038A7.05,7.05,0,0,1,33.493,39.543Z" transform="translate(-10.905 -8.619)" fill="#1576ed"/>
      <path id="Path_5145" data-name="Path 5145" d="M46.742,48.658l-6.83-6.837a2.932,2.932,0,0,0-2.4-.835L36.527,40a11.267,11.267,0,1,0-2.565,2.565l.983.983a2.885,2.885,0,0,0,.835,2.395l6.83,6.837a2.927,2.927,0,0,0,5-2.07,2.949,2.949,0,0,0-.865-2.055ZM20.214,40.623a10.15,10.15,0,1,1,14.354,0,10.167,10.167,0,0,1-14.354,0ZM45.959,52.006a1.811,1.811,0,0,1-2.565,0l-6.83-6.83a1.81,1.81,0,0,1-.48-1.685.543.543,0,0,0-.148-.51l-1.087-1.087a.155.155,0,0,0,.03-.044c.163-.148.333-.281.488-.443s.288-.318.436-.48c.015-.015.037-.022.044-.037l1.087,1.087a.543.543,0,0,0,.51.148,1.816,1.816,0,0,1,1.685.48l6.83,6.837a1.811,1.811,0,0,1,0,2.565Z" transform="translate(-10.107 -8.076)" fill="#1576ed"/>
      <path id="Path_5146" data-name="Path 5146" d="M33.394,33a.558.558,0,0,0-.784,0l-2.432,2.432L27.747,33a.554.554,0,0,0-.784.784L29.4,36.226l-2.432,2.432a.558.558,0,0,0,0,.784.553.553,0,0,0,.784,0l2.432-2.432,2.432,2.432a.553.553,0,0,0,.784,0,.558.558,0,0,0,0-.784l-2.432-2.432,2.432-2.439A.558.558,0,0,0,33.394,33Z" transform="translate(-12.618 -10.285)" fill="#1576ed"/>
      <path id="Path_5147" data-name="Path 5147" d="M23.724,6.809H37.731a.554.554,0,0,0,0-1.109H23.724a.554.554,0,0,0,0,1.109Z" transform="translate(-11.696 -2.411)" fill="#1576ed"/>
      <path id="Path_5148" data-name="Path 5148" d="M37.736,9.67H23.714a.554.554,0,0,0,0,1.109H37.736a.554.554,0,0,0,0-1.109Z" transform="translate(-11.693 -3.446)" fill="#1576ed"/>
      <path id="Path_5149" data-name="Path 5149" d="M40.086,13.68H32.724a.554.554,0,0,0,0,1.109h7.362a.554.554,0,0,0,0-1.109Z" transform="translate(-14.099 -4.766)" fill="#1576ed"/>
      <path id="Path_5150" data-name="Path 5150" d="M40.086,17.68H32.724a.554.554,0,1,0,0,1.109h7.362a.554.554,0,1,0,0-1.109Z" transform="translate(-14.099 -5.898)" fill="#1576ed"/>
      <path id="Path_5151" data-name="Path 5151" d="M34.945,42.856H11.3V41.08H32.046a.537.537,0,1,0,0-1.074H8.392V9.651h6.9a.546.546,0,0,0,.546-.537V2.324H36.758V33.409a.546.546,0,0,0,1.092,0V5.175h1.806V35.994a.546.546,0,0,0,1.092,0V4.638A.546.546,0,0,0,40.2,4.1H37.851V1.787A.546.546,0,0,0,37.3,1.25h-22a.55.55,0,0,0-.386.158L7.46,8.735a.532.532,0,0,0-.16.38V40.535a.546.546,0,0,0,.546.537H10.2v2.313a.546.546,0,0,0,.546.537H34.938a.546.546,0,0,0,.546-.537A.533.533,0,0,0,34.945,42.856ZM14.757,3.084V8.577H9.164Z" transform="translate(-7.3 -1.25)" fill="#1576ed"/>
    </g>
  </g>
</svg>
