<svg id="Page-1" xmlns="http://www.w3.org/2000/svg" width="40.603" height="46.85" viewBox="0 0 40.603 46.85">
  <g id="_050---Tap-Phone" data-name="050---Tap-Phone" transform="translate(0 0)">
    <path id="Shape" d="M23.83,22.863c3.123-.781,4.685-1.562,5.466-.781V33.795a1.566,1.566,0,0,1-1.562,1.562H8.994a1.476,1.476,0,0,1-.921-.312,2.642,2.642,0,0,0,.141-.859A2.733,2.733,0,0,0,5.48,31.452a2.733,2.733,0,1,0,0-5.466H5.41v-.016a3.123,3.123,0,0,0,0-6.215V19.74h.07a2.733,2.733,0,0,0,2.733-2.733A2.7,2.7,0,0,0,7.432,15.1V2.562A1.566,1.566,0,0,1,8.994,1h3.123V2.562a1.566,1.566,0,0,0,1.562,1.562h9.37a1.566,1.566,0,0,0,1.562-1.562V1h3.123A1.566,1.566,0,0,1,29.3,2.562V14.274c-3.123,0-4.576,2.709-9.37,3.9C16.8,18.959,17.583,24.425,23.83,22.863Z" transform="translate(-1.186 -0.219)" fill="#e8edfc"/>
    <path id="Shape-2" data-name="Shape" d="M36,28a11.422,11.422,0,0,1,2.342,3.9" transform="translate(-7.89 -6.137)" fill="#e8edfc"/>
    <path id="Shape-3" data-name="Shape" d="M43.11,35.178c0,5.5-4.646,8.285-6.942,9.456A5.778,5.778,0,0,0,33.9,46.813c-.843,1.374-2.8,3.2-7.191,3.2C18.9,50.014,15,42.206,15,42.206H29.836A1.566,1.566,0,0,0,31.4,40.644V25.808c-.781-.781-2.342,0-5.466.781-6.247,1.562-7.027-3.9-3.9-4.685,4.794-1.195,6.247-3.9,9.37-3.9s4.685,2.342,7.027,5.466S43.11,27.37,43.11,35.178Z" transform="translate(-3.288 -3.945)" fill="#e8edfc"/>
    <path id="Shape-4" data-name="Shape" d="M41.4,23.466C39.062,20.342,37.5,18,34.377,18a5.1,5.1,0,0,0-1.147.13c2.367.528,3.81,2.638,5.832,5.335,2.342,3.123,4.685,3.9,4.685,11.712,0,5.5-4.646,8.285-6.942,9.456a5.778,5.778,0,0,0-2.264,2.179c-.758,1.236-2.421,2.834-5.945,3.144.358.034.721.058,1.093.058,4.4,0,6.348-1.827,7.191-3.2a5.778,5.778,0,0,1,2.264-2.179c2.3-1.171,6.945-3.959,6.945-9.456,0-7.808-2.342-8.589-4.685-11.712Z" transform="translate(-6.267 -3.945)" fill="#cad9fc"/>
    <path id="Shape-5" data-name="Shape" d="M7.456,20.733a2.733,2.733,0,0,1-2.733,2.733h-.07a2.733,2.733,0,1,1,2.8-2.733Z" transform="translate(-0.428 -3.945)" fill="#e8edfc"/>
    <path id="Shape-6" data-name="Shape" d="M7.123,18.828A2.689,2.689,0,0,0,4,18.273a2.655,2.655,0,0,1,.781.554A2.716,2.716,0,0,1,4,23.193a2.7,2.7,0,0,0,1.1.273h.07A2.733,2.733,0,0,0,7.9,20.733a2.7,2.7,0,0,0-.781-1.905Z" transform="translate(-0.877 -3.945)" fill="#cad9fc"/>
    <path id="Shape-7" data-name="Shape" d="M7.247,28.123a3.123,3.123,0,0,1-2.8,3.108c-.109.008-.211.016-.32.016a3.123,3.123,0,0,1,0-6.247c.109,0,.211.008.32.016A3.123,3.123,0,0,1,7.247,28.123Z" transform="translate(-0.219 -5.479)" fill="#e8edfc"/>
    <path id="Shape-8" data-name="Shape" d="M4.987,25.016c-.109-.008-.211-.016-.32-.016a3.116,3.116,0,0,0-1.185.234,3.1,3.1,0,0,1,0,5.778,3.116,3.116,0,0,0,1.185.234c.109,0,.211-.008.32-.016a3.123,3.123,0,0,0,0-6.215Z" transform="translate(-0.763 -5.479)" fill="#cad9fc"/>
    <path id="Shape-9" data-name="Shape" d="M7.466,35.733A2.733,2.733,0,1,1,4.663,33h.07a2.733,2.733,0,0,1,2.733,2.733Z" transform="translate(-0.438 -7.233)" fill="#e8edfc"/>
    <path id="Shape-10" data-name="Shape" d="M5.171,33H5.1a2.7,2.7,0,0,0-1.1.273,2.717,2.717,0,0,1,0,4.919,2.7,2.7,0,0,0,1.171.274,2.733,2.733,0,0,0,0-5.466Z" transform="translate(-0.877 -7.233)" fill="#cad9fc"/>
    <path id="Shape-11" data-name="Shape" d="M29.863,43v3.123A1.566,1.566,0,0,1,28.3,47.685H9.562A1.566,1.566,0,0,1,8,46.123V45.3a2.672,2.672,0,0,0,.64-1.046,1.476,1.476,0,0,0,.921.312H28.3A1.566,1.566,0,0,0,29.863,43Z" transform="translate(-1.753 -9.424)" fill="#a4c2f7"/>
    <path id="Shape-12" data-name="Shape" d="M33.342,44.562h-.781v1.562A1.566,1.566,0,0,1,31,47.685h2.342A1.566,1.566,0,0,0,34.9,46.123V43A1.566,1.566,0,0,1,33.342,44.562Z" transform="translate(-6.794 -9.424)" fill="#7facfa"/>
    <path id="Shape-13" data-name="Shape" d="M7.466,42.733a2.642,2.642,0,0,1-.141.859,2.725,2.725,0,1,1,.141-.859Z" transform="translate(-0.438 -8.767)" fill="#e8edfc"/>
    <path id="Shape-14" data-name="Shape" d="M5.171,40A2.7,2.7,0,0,0,4,40.274a2.733,2.733,0,0,1,1.562,2.459,2.642,2.642,0,0,1-.141.859A2.726,2.726,0,0,1,4,45.193a2.732,2.732,0,0,0,3.764-1.6,2.642,2.642,0,0,0,.141-.859A2.733,2.733,0,0,0,5.171,40Z" transform="translate(-0.877 -8.767)" fill="#cad9fc"/>
    <path id="Shape-15" data-name="Shape" d="M26.493,1V2.562a1.566,1.566,0,0,1-1.562,1.562h-9.37A1.566,1.566,0,0,1,14,2.562V1Z" transform="translate(-3.068 -0.219)" fill="#a4c2f7"/>
    <path id="Shape-16" data-name="Shape" d="M26.562,1V2.562A1.566,1.566,0,0,1,25,4.123h2.342A1.566,1.566,0,0,0,28.9,2.562V1Z" transform="translate(-5.479 -0.219)" fill="#7facfa"/>
    <path id="Shape-17" data-name="Shape" d="M3.881,35.256a2.731,2.731,0,0,0,0,5.307.145.145,0,0,1,.03.009,2.738,2.738,0,0,0,.6.072,2.7,2.7,0,0,0,1.171-.273,2.721,2.721,0,0,1,.536-5.111l.03-.009a2.693,2.693,0,0,1,.605-.073,2.694,2.694,0,0,1-.6-.073l-.03-.009a2.726,2.726,0,0,1-.029-5.3l.02-.007a2.756,2.756,0,0,1,.572-.078V29.7c-.109.008-.211.016-.32.016a3.124,3.124,0,0,1,0-6.247c.109,0,.211.008.32.016v-.016a2.771,2.771,0,0,1-.572-.078L6.2,23.381a2.72,2.72,0,0,1-.5-5.105A2.7,2.7,0,0,0,4.514,18a2.738,2.738,0,0,0-.6.072.145.145,0,0,0-.03.009,2.726,2.726,0,0,0-.028,5.3l.018.006a2.771,2.771,0,0,0,.572.078v.016c-.109-.007-.211-.015-.32-.015a3.123,3.123,0,0,0,0,6.247c.109,0,.211-.008.32-.016v.016a2.756,2.756,0,0,0-.572.078l-.02.007a2.726,2.726,0,0,0,.029,5.3l.03.009a2.694,2.694,0,0,0,.6.069,2.694,2.694,0,0,0-.6.073Z" transform="translate(-0.22 -3.945)" fill="#fff"/>
    <path id="Shape-18" data-name="Shape" d="M8,45v1.562a1.566,1.566,0,0,0,1.562,1.562H11.9a1.566,1.566,0,0,1-1.562-1.562v-.828Z" transform="translate(-1.753 -9.863)" fill="#fff"/>
    <path id="Shape-19" data-name="Shape" d="M8.287,15.15a1.562,1.562,0,0,0,2.056-1.481V2.562A1.566,1.566,0,0,1,11.9,1H9.562A1.566,1.566,0,0,0,8,2.562V15.055Z" transform="translate(-1.753 -0.219)" fill="#fff"/>
    <path id="Shape-20" data-name="Shape" d="M26.712,56.808c.442,0,.853-.023,1.249-.058C20.883,56.07,17.342,49,17.342,49H15S18.9,56.808,26.712,56.808Z" transform="translate(-3.288 -10.739)" fill="#fff"/>
    <path id="Rectangle-path" d="M7,11.06H8.562v6.247H7Z" transform="translate(-1.534 -2.424)" fill="#fff"/>
    <g id="Group_6405" data-name="Group 6405">
      <circle id="Oval" cx="0.781" cy="0.781" r="0.781" transform="translate(5.466 10.978)" fill="#428dff"/>
      <path id="Shape-21" data-name="Shape" d="M0,22.644a3.894,3.894,0,0,0,1.874,3.319,3.477,3.477,0,0,0,.24,5.27,3.5,3.5,0,0,0,3.422,6.012,2.342,2.342,0,0,0,2.272,1.8h3.44c.979,1.71,4.975,7.808,12.176,7.808,4.671,0,6.849-1.943,7.855-3.573a5.014,5.014,0,0,1,1.958-1.893c4.887-2.5,7.366-5.912,7.366-10.151,0-6.583-1.636-8.445-3.529-10.6-.429-.49-.875-1-1.312-1.58l-.39-.52c-2.015-2.7-3.644-4.871-6.481-5.207V2.342A2.342,2.342,0,0,0,26.548,0H7.808A2.342,2.342,0,0,0,5.466,2.342V8.636a.781.781,0,0,0,1.562,0V2.342a.781.781,0,0,1,.781-.781h2.342v.781a2.342,2.342,0,0,0,2.342,2.342h9.37a2.342,2.342,0,0,0,2.342-2.342V1.562h2.342a.781.781,0,0,1,.781.781V13.331a9.689,9.689,0,0,0-3.786,1.621,16.717,16.717,0,0,1-4.992,2.25,3.029,3.029,0,0,0-2.282,3.738,3.527,3.527,0,0,0,2.093,2.347,7.072,7.072,0,0,0,4.47.115c.795-.2,1.488-.4,2.1-.571a8.465,8.465,0,0,1,2.4-.5V33.576a.781.781,0,0,1-.781.781H7.808c-.014,0-.025-.005-.039-.006a3.2,3.2,0,0,0-1.294-3.117,3.479,3.479,0,0,0-.126-5.57,3.852,3.852,0,0,0,0-6.037,3.514,3.514,0,1,0-4.475-.3A3.894,3.894,0,0,0,0,22.644Zm22.644-20.3a.781.781,0,0,1-.781.781h-9.37a.781.781,0,0,1-.781-.781V1.562H22.644ZM24.5,21.329c-.592.169-1.269.364-2.043.558a5.579,5.579,0,0,1-3.474-.034,1.956,1.956,0,0,1-1.2-1.292,1.484,1.484,0,0,1,1.145-1.844,18.262,18.262,0,0,0,5.428-2.432,7.092,7.092,0,0,1,3.753-1.449c2.555,0,3.931,1.842,6.012,4.631l.39.522c.474.632.937,1.161,1.388,1.673,1.755,2,3.14,3.577,3.14,9.571,0,3.6-2.192,6.551-6.514,8.758a6.559,6.559,0,0,0-2.577,2.466c-.8,1.291-2.574,2.831-6.525,2.831-5.466,0-8.942-4.181-10.328-6.247H26.548A2.342,2.342,0,0,0,28.891,36.7V24.231a11.864,11.864,0,0,1,.821,1.784.782.782,0,1,0,1.484-.494,12.117,12.117,0,0,0-2.531-4.209c-.916-.913-2.209-.541-4.167.018ZM7.808,35.918h18.74a2.316,2.316,0,0,0,.781-.144V36.7a.781.781,0,0,1-.781.781H7.808a.781.781,0,0,1-.781-.781v-.551a3.74,3.74,0,0,0,.226-.3A2.287,2.287,0,0,0,7.808,35.918ZM6.247,33.966a1.952,1.952,0,1,1-1.952-1.952A1.952,1.952,0,0,1,6.247,33.966ZM2.342,28.5a1.952,1.952,0,1,1,1.952,1.952A1.952,1.952,0,0,1,2.342,28.5ZM4.295,14.836a1.952,1.952,0,1,1-1.952,1.952A1.952,1.952,0,0,1,4.295,14.836ZM3.9,20.3a2.342,2.342,0,1,1-2.342,2.342A2.342,2.342,0,0,1,3.9,20.3Z" transform="translate(0 0)" fill="#428dff"/>
      <path id="Shape-22" data-name="Shape" d="M25.562,17.123V14.781a.781.781,0,1,0-1.562,0v2.342a.781.781,0,1,0,1.562,0Z" transform="translate(-5.26 -3.068)" fill="#428dff"/>
      <path id="Shape-23" data-name="Shape" d="M14.863,20.956l2.03,1.171a.781.781,0,1,0,.781-1.352L15.644,19.6a.781.781,0,1,0-.781,1.352Z" transform="translate(-3.171 -4.273)" fill="#428dff"/>
      <path id="Shape-24" data-name="Shape" d="M14.578,31.342a.781.781,0,0,0,1.067.286l2.03-1.171a.781.781,0,1,0-.781-1.352l-2.03,1.171a.781.781,0,0,0-.287,1.067Z" transform="translate(-3.172 -6.355)" fill="#428dff"/>
      <path id="Shape-25" data-name="Shape" d="M25.562,36.123V33.781a.781.781,0,1,0-1.562,0v2.342a.781.781,0,1,0,1.562,0Z" transform="translate(-5.26 -7.233)" fill="#428dff"/>
    </g>
  </g>
</svg>
