<svg xmlns="http://www.w3.org/2000/svg" width="25.789" height="29.342" viewBox="0 0 25.789 29.342">
  <g id="notification_02" data-name="notification 02" transform="translate(-31)">
    <path id="Path_35692" data-name="Path 35692" d="M215.3,5.343a.86.86,0,0,1-.86-.86v-1.9a.86.86,0,0,0-1.719,0v1.9a.86.86,0,0,1-1.719,0v-1.9a2.579,2.579,0,0,1,5.158,0v1.9A.86.86,0,0,1,215.3,5.343Z" transform="translate(-169.684)" fill="#ffb454"/>
    <path id="Path_35693" data-name="Path 35693" d="M256.86,2.579v1.9a.86.86,0,1,0,1.719,0v-1.9A2.582,2.582,0,0,0,256,0V1.719A.861.861,0,0,1,256.86,2.579Z" transform="translate(-212.106)" fill="#ff8e00"/>
    <path id="Path_35694" data-name="Path 35694" d="M185.3,427.158a4.3,4.3,0,0,1-4.3-4.3.86.86,0,0,1,.86-.86h6.877a.86.86,0,0,1,.86.86A4.3,4.3,0,0,1,185.3,427.158Z" transform="translate(-141.404 -397.815)" fill="#ffb454"/>
    <path id="Path_35695" data-name="Path 35695" d="M259.439,422H256v5.158a4.3,4.3,0,0,0,4.3-4.3A.86.86,0,0,0,259.439,422Z" transform="translate(-212.106 -397.815)" fill="#ff8e00"/>
    <path id="Path_35696" data-name="Path 35696" d="M55.929,82.465H31.859a.86.86,0,0,1-.62-1.455,13.5,13.5,0,0,0,3.772-9.385V68.883a8.883,8.883,0,1,1,17.766,0v2.743a13.5,13.5,0,0,0,3.772,9.385.86.86,0,0,1-.62,1.455Z" transform="translate(0 -56.561)" fill="#ffe278"/>
    <path id="Path_35697" data-name="Path 35697" d="M268.035,82.465a.86.86,0,0,0,.62-1.455,13.5,13.5,0,0,1-3.773-9.385V68.883A8.893,8.893,0,0,0,256,60V82.465Z" transform="translate(-212.106 -56.561)" fill="#ffb454"/>
    <path id="Path_35698" data-name="Path 35698" d="M393.877,61.737a.86.86,0,0,1-.86-.86,11.1,11.1,0,0,0-3.273-7.9.86.86,0,1,1,1.216-1.216,12.81,12.81,0,0,1,3.777,9.118A.86.86,0,0,1,393.877,61.737Z" transform="translate(-337.948 -48.556)" fill="#08475e"/>
    <path id="Path_35699" data-name="Path 35699" d="M31.86,61.737a.86.86,0,0,1-.86-.86,12.81,12.81,0,0,1,3.777-9.118.86.86,0,0,1,1.216,1.216,11.1,11.1,0,0,0-3.273,7.9A.86.86,0,0,1,31.86,61.737Z" transform="translate(0 -48.556)" fill="#0a789b"/>
  </g>
</svg>
