<svg xmlns="http://www.w3.org/2000/svg" width="21" height="21" viewBox="0 0 21 21">
  <path id="phone_4_" data-name="phone (4)" d="M10.751.5A10.5,10.5,0,1,1,.251,11,10.5,10.5,0,0,1,10.751.5Zm1.593,15.909a3.642,3.642,0,0,0,3.6-.531L12.78,14.452l-.133.14a.4.4,0,0,1-.354.121,6.859,6.859,0,0,1-3.206-2.05A6.86,6.86,0,0,1,7.038,9.458.4.4,0,0,1,7.159,9.1l.14-.133L5.873,5.8a3.641,3.641,0,0,0-.531,3.6,10.8,10.8,0,0,0,2.742,4.26,10.8,10.8,0,0,0,4.26,2.742ZM7.265,5.348a3.329,3.329,0,0,0-.655.126L7.919,8.381l.527-.5a.016.016,0,0,0,0-.024L7.286,5.36c-.005-.011-.009-.013-.021-.012Zm6.605,7.957-.5.527,2.907,1.309a3.332,3.332,0,0,0,.126-.655c0-.012,0-.016-.012-.021l-2.5-1.164a.016.016,0,0,0-.024,0Zm2.862.428-2.5-1.164a.817.817,0,0,0-.951.18l-1.067,1.122a7.078,7.078,0,0,1-2.56-1.778A7.077,7.077,0,0,1,7.88,9.533L9,8.466a.817.817,0,0,0,.18-.95l-1.164-2.5a.821.821,0,0,0-.824-.475,4.223,4.223,0,0,0-1.755.566.39.39,0,0,0-.089.07A3.742,3.742,0,0,0,4.337,7.268,5.439,5.439,0,0,0,4.57,9.644a11.614,11.614,0,0,0,2.943,4.594,11.619,11.619,0,0,0,4.594,2.943,5.914,5.914,0,0,0,1.732.279,4.449,4.449,0,0,0,.645-.046A3.743,3.743,0,0,0,16.572,16.4a.4.4,0,0,0,.07-.089,4.221,4.221,0,0,0,.566-1.755.82.82,0,0,0-.475-.825Z" transform="translate(-0.251 -0.5)" fill="#f44336" fill-rule="evenodd"/>
</svg>
