<svg xmlns="http://www.w3.org/2000/svg" width="50.5" height="57.714" viewBox="0 0 50.5 57.714">
  <g id="Group_14099" data-name="Group 14099" transform="translate(-48 -100)">
    <g id="Group_8734" data-name="Group 8734" transform="translate(1)">
      <path id="Path_29896" data-name="Path 29896" d="M99.607,0A3.618,3.618,0,0,0,96,3.607v50.5a3.618,3.618,0,0,0,3.607,3.607h36.071a3.618,3.618,0,0,0,3.607-3.607V14.429L124.857,0Z" transform="translate(-41.786 100)" fill="#e2e5e7"/>
      <path id="Path_29897" data-name="Path 29897" d="M355.607,14.429h10.821L352,0V10.821A3.618,3.618,0,0,0,355.607,14.429Z" transform="translate(-268.928 100)" fill="#b0b7bd"/>
      <path id="Path_29898" data-name="Path 29898" d="M394.821,138.821,384,128h10.821Z" transform="translate(-297.321 -13.572)" fill="#cad1d8"/>
      <path id="Path_29899" data-name="Path 29899" d="M75.286,259.839a1.809,1.809,0,0,1-1.8,1.8H33.8a1.809,1.809,0,0,1-1.8-1.8V241.8a1.809,1.809,0,0,1,1.8-1.8H73.482a1.809,1.809,0,0,1,1.8,1.8Z" transform="translate(15 -112.947)" fill="#f15642"/>
      <g id="Group_8730" data-name="Group 8730" transform="translate(54.862 133.177)">
        <path id="Path_29900" data-name="Path 29900" d="M101.744,295.316a.992.992,0,0,1,.979-1h3.331a3.606,3.606,0,0,1,0,7.211h-2.408v1.9a.905.905,0,0,1-.923.994.972.972,0,0,1-.979-.994Zm1.9.821v3.593h2.408a1.8,1.8,0,0,0,0-3.593Z" transform="translate(-101.744 -294.32)" fill="#fff"/>
        <path id="Path_29901" data-name="Path 29901" d="M188.82,305.451a.9.9,0,0,1-1-.893v-8.192a.981.981,0,0,1,1-.895h3.3c6.59,0,6.446,9.979.13,9.979Zm.909-8.219v6.46h2.393c3.894,0,4.067-6.46,0-6.46h-2.393Z" transform="translate(-178.121 -295.342)" fill="#fff"/>
        <path id="Path_29902" data-name="Path 29902" d="M289.023,297.333v2.292H292.7a1.115,1.115,0,0,1,1.039,1.023,1,1,0,0,1-1.039.866h-3.677v3.028a.854.854,0,0,1-.864.893.916.916,0,0,1-1.023-.893v-8.192a.911.911,0,0,1,1.023-.895h5.063a.9.9,0,0,1,1.01.895,1,1,0,0,1-1.01.981h-4.2Z" transform="translate(-266.238 -295.328)" fill="#fff"/>
      </g>
      <path id="Path_29903" data-name="Path 29903" d="M130.268,417.8H96v1.8h34.268a1.809,1.809,0,0,0,1.8-1.8V416A1.809,1.809,0,0,1,130.268,417.8Z" transform="translate(-41.786 -269.107)" fill="#cad1d8"/>
    </g>
  </g>
</svg>
