<svg xmlns="http://www.w3.org/2000/svg" width="48.101" height="48.048" viewBox="0 0 48.101 48.048">
  <g id="clock" transform="translate(-10.3 -10.35)">
    <g id="Group_6784" data-name="Group 6784" transform="translate(10.3 10.35)">
      <g id="Group_6781" data-name="Group 6781">
        <path id="Path_5961" data-name="Path 5961" d="M55.441,39.648a22.693,22.693,0,0,0,.891-6.282,23.087,23.087,0,1,0-16.66,22.093A11.175,11.175,0,0,0,55.441,39.648Zm-22.125,14.6A20.888,20.888,0,1,1,54.21,33.366a20.5,20.5,0,0,1-.541,4.711,11.96,11.96,0,0,0-1.931-1.1,19.43,19.43,0,0,0,.35-3.608A18.771,18.771,0,1,0,33.316,52.127a18.259,18.259,0,0,0,3.672-.371A10.971,10.971,0,0,0,38.1,53.7a21.222,21.222,0,0,1-4.786.552ZM48.851,33.313a.8.8,0,0,1-.8.8h-1.7a.8.8,0,1,1,0-1.592h1.7A.8.8,0,0,1,48.851,33.313ZM44.3,23.466l-1.2,1.2a.787.787,0,0,1-.562.233.77.77,0,0,1-.562-.233.782.782,0,0,1,0-1.125l1.2-1.2A.8.8,0,0,1,44.3,23.466ZM33.327,36.942a3.581,3.581,0,0,1-1.677-.435L28.1,40.062a1.076,1.076,0,0,1-1.507,0,1.07,1.07,0,0,1,0-1.507L30.143,35a3.553,3.553,0,0,1,2.122-5.115V23.964a1.061,1.061,0,1,1,2.122,0v5.921a3.606,3.606,0,0,1-1.061,7.057Zm.806,9.412v1.7a.8.8,0,1,1-1.592,0v-1.7a.8.8,0,1,1,1.592,0ZM32.52,20.293V18.6a.8.8,0,1,1,1.592,0v1.7a.8.8,0,1,1-1.592,0ZM22.354,43.182l1.2-1.2a.791.791,0,0,1,1.125,0,.782.782,0,0,1,0,1.125l-1.2,1.2a.753.753,0,0,1-.562.233.787.787,0,0,1-.562-.233.8.8,0,0,1,0-1.125Zm-.011-20.83a.8.8,0,0,1,1.125,0l1.2,1.2a.8.8,0,0,1,0,1.125.77.77,0,0,1-.562.233.787.787,0,0,1-.562-.233l-1.2-1.2a.8.8,0,0,1,0-1.125ZM21.092,33.334a.8.8,0,0,1-.8.8H18.6a.8.8,0,1,1,0-1.592h1.7A.8.8,0,0,1,21.092,33.334ZM47.206,56.276A9.073,9.073,0,1,1,56.279,47.2,9.082,9.082,0,0,1,47.206,56.276Z" transform="translate(-10.3 -10.35)" fill="#57a4ff"/>
      </g>
      <g id="Group_6782" data-name="Group 6782" transform="translate(21.53 21.477)">
        <path id="Path_5962" data-name="Path 5962" d="M33.582,32.086a1.5,1.5,0,1,1-1.5-1.5A1.494,1.494,0,0,1,33.582,32.086Z" transform="translate(-30.59 -30.59)" fill="#57a4ff"/>
      </g>
      <g id="Group_6783" data-name="Group 6783" transform="translate(32.019 32.014)">
        <path id="Path_5963" data-name="Path 5963" d="M49.935,40.831a1.06,1.06,0,0,0-1.5,0L45.36,43.906l-3.074-3.075a1.061,1.061,0,0,0-1.5,1.5l3.075,3.075-2.975,2.975a1.061,1.061,0,1,0,1.5,1.5l2.975-2.975,2.975,2.975a1.061,1.061,0,0,0,1.5-1.5l-2.975-2.975,3.075-3.075A1.064,1.064,0,0,0,49.935,40.831Z" transform="translate(-40.475 -40.52)" fill="#57a4ff"/>
      </g>
    </g>
  </g>
</svg>
