<svg xmlns="http://www.w3.org/2000/svg" width="46.667" height="46.674" viewBox="0 0 46.667 46.674">
  <g id="Analysis-report-document-develop-infromation" transform="translate(-2.009 -2)">
    <path id="Path_5968" data-name="Path 5968" d="M50,10a1.56,1.56,0,0,0,1.556,1.556h7L50,3Z" transform="translate(-10.659 -0.222)" fill="#bddbff"/>
    <circle id="Ellipse_2790" data-name="Ellipse 2790" cx="6.5" cy="6.5" r="6.5" transform="translate(32.009 32)" fill="#bddbff"/>
    <path id="Path_5969" data-name="Path 5969" d="M27,8V23.558H42.558A15.553,15.553,0,0,0,27,8Z" transform="translate(-5.551 -1.333)" fill="#bddbff"/>
    <path id="Path_5970" data-name="Path 5970" d="M3,27.558a15.558,15.558,0,1,0,31.116,0H18.558V12A15.553,15.553,0,0,0,3,27.558Z" transform="translate(-0.22 -2.221)" fill="#bddbff"/>
    <g id="Group_6785" data-name="Group 6785" transform="translate(2.009 2)">
      <path id="Path_5971" data-name="Path 5971" d="M48.45,10.782,39.893,2.226A.8.8,0,0,0,39.341,2H19.894A2.341,2.341,0,0,0,17.56,4.334V9.04a16.315,16.315,0,0,0,0,32.594V46.34a2.341,2.341,0,0,0,2.334,2.334H46.342a2.341,2.341,0,0,0,2.334-2.334V11.335a.8.8,0,0,0-.226-.552Zm-8.331-6.13,5.9,5.9H40.9a.778.778,0,0,1-.778-.778ZM3.558,25.337a14.8,14.8,0,0,1,14-14.757V25.018L7.369,35.208a14.686,14.686,0,0,1-3.812-9.872ZM8.466,36.305l10.19-10.19H33.095A14.751,14.751,0,0,1,8.466,36.305ZM47.12,46.34a.778.778,0,0,1-.778.778H19.894a.778.778,0,0,1-.778-.778V41.634a16.347,16.347,0,0,0,15.558-16.3.778.778,0,0,0-.778-.778H19.116V4.334a.778.778,0,0,1,.778-.778h18.67V9.779A2.341,2.341,0,0,0,40.9,12.113H47.12Z" transform="translate(-2.009 -2)" fill="#57a4ff"/>
      <path id="Path_5972" data-name="Path 5972" d="M26.778,7A.778.778,0,0,0,26,7.778V23.336a.778.778,0,0,0,.778.778H42.336a.778.778,0,0,0,.778-.778A16.354,16.354,0,0,0,26.778,7Zm.778,15.558V8.579A14.793,14.793,0,0,1,41.535,22.558Z" transform="translate(-7.337 -3.111)" fill="#57a4ff"/>
      <path id="Path_5973" data-name="Path 5973" d="M47,40a7,7,0,1,0,7,7,7,7,0,0,0-7-7Zm0,12.446A5.445,5.445,0,1,1,52.446,47,5.445,5.445,0,0,1,47,52.446Z" transform="translate(-10.447 -10.44)" fill="#57a4ff"/>
      <path id="Path_5974" data-name="Path 5974" d="M46.177,49.41l-1.784-1.784-1.1,1.1,2.334,2.334a.778.778,0,0,0,1.1,0l4.667-4.667-1.1-1.1Z" transform="translate(-11.178 -11.616)" fill="#57a4ff"/>
      <path id="Path_5975" data-name="Path 5975" d="M50,19h6.223v1.556H50Z" transform="translate(-12.668 -5.776)" fill="#57a4ff"/>
      <path id="Path_5976" data-name="Path 5976" d="M50,25h6.223v1.556H50Z" transform="translate(-12.668 -7.108)" fill="#57a4ff"/>
      <path id="Path_5977" data-name="Path 5977" d="M50,31h6.223v1.556H50Z" transform="translate(-12.668 -8.441)" fill="#57a4ff"/>
    </g>
  </g>
</svg>
