<svg xmlns="http://www.w3.org/2000/svg" width="30.749" height="30.749" viewBox="0 0 30.749 30.749">
  <path id="user_1_" data-name="user (1)" d="M25.819,4.43a15.125,15.125,0,0,0-21.39,21.39A15.125,15.125,0,0,0,25.819,4.43ZM6.564,25.363a8.653,8.653,0,0,1,8.561-7.615,8.621,8.621,0,0,1,8.561,7.615,13.324,13.324,0,0,1-17.121,0Zm8.561-9.44a4.594,4.594,0,1,1,4.594-4.594A4.6,4.6,0,0,1,15.124,15.923ZM25.21,23.865A10.419,10.419,0,0,0,18.688,16.6a6.366,6.366,0,1,0-7.126,0,10.41,10.41,0,0,0-6.525,7.26,13.352,13.352,0,1,1,20.174,0Zm0,0" transform="translate(0.251 0.25)" fill="#707070" stroke="#707070" stroke-width="0.5"/>
</svg>
