<svg xmlns="http://www.w3.org/2000/svg" width="35.433" height="47.243" viewBox="0 0 35.433 47.243">
  <g id="Group_14655" data-name="Group 14655" transform="translate(-4911 1080.243)">
    <g id="Group_14653" data-name="Group 14653" transform="translate(-44 -20.243)">
      <rect id="Rectangle_5415" data-name="Rectangle 5415" width="30.371" height="43.869" rx="8" transform="translate(4955 -1056.625)" fill="#d4d7da"/>
      <g id="message" transform="translate(4955 -1060)">
        <path id="Path_34379" data-name="Path 34379" d="M32.738,30.644h5.167a.738.738,0,0,0,.738-.738V24.738A.738.738,0,0,0,37.905,24H32.738a.738.738,0,0,0-.738.738v5.167a.738.738,0,0,0,.738.738Zm.738-5.167h3.691v.1a.738.738,0,0,0-.106.072L35.78,26.727a.738.738,0,1,0-.934,1.144l.459.386a.738.738,0,0,0,.95,0l.912-.767v1.678H33.476Z" transform="translate(-26.095 -15.142)" fill="#b3b4b6"/>
        <path id="Path_34380" data-name="Path 34380" d="M64.334,27.738A.738.738,0,0,0,63.6,27H54.738a.738.738,0,1,0,0,1.476H63.6a.738.738,0,0,0,.738-.738Z" transform="translate(-39.975 -17.035)" fill="#b3b4b6"/>
        <path id="Path_34381" data-name="Path 34381" d="M54.738,36.476h5.167a.738.738,0,0,0,0-1.476H54.738a.738.738,0,1,0,0,1.476Z" transform="translate(-39.975 -22.082)" fill="#b3b4b6"/>
        <path id="Path_34382" data-name="Path 34382" d="M32,51.905a.738.738,0,0,0,.738.738h5.167a.738.738,0,0,0,.738-.738V46.738A.738.738,0,0,0,37.905,46H32.738a.738.738,0,0,0-.738.738Zm1.476-4.429h3.691v.1a.738.738,0,0,0-.106.072L35.78,48.727a.738.738,0,1,0-.934,1.144l.459.386a.738.738,0,0,0,.95,0l.912-.767v1.678H33.476Z" transform="translate(-26.095 -29.022)" fill="#b3b4b6"/>
        <path id="Path_34383" data-name="Path 34383" d="M32,73.905a.738.738,0,0,0,.738.738h5.167a.738.738,0,0,0,.738-.738V68.738A.738.738,0,0,0,37.905,68H32.738a.738.738,0,0,0-.738.738Zm1.476-4.429h3.691v.1a.737.737,0,0,0-.106.072L35.78,70.727a.738.738,0,1,0-.934,1.144l.459.386a.738.738,0,0,0,.95,0l.912-.767v1.678H33.476Z" transform="translate(-26.095 -42.902)" fill="#b3b4b6"/>
        <path id="Path_34384" data-name="Path 34384" d="M59.905,80.476a.738.738,0,0,0,0-1.476H54.738a.738.738,0,1,0,0,1.476Z" transform="translate(-39.975 -49.842)" fill="#b3b4b6"/>
        <path id="Path_34385" data-name="Path 34385" d="M49.716,90H32.738a.738.738,0,0,0,0,1.476H49.716a.738.738,0,0,0,0-1.476Z" transform="translate(-26.095 -56.782)" fill="#b3b4b6"/>
        <path id="Path_34386" data-name="Path 34386" d="M57.918,98H45.738a.738.738,0,1,0,0,1.476h12.18a.738.738,0,1,0,0-1.476Z" transform="translate(-34.296 -61.829)" fill="#b3b4b6"/>
        <path id="Path_34387" data-name="Path 34387" d="M64.227,106H55.738a.738.738,0,1,0,0,1.476h8.489a.738.738,0,0,0,0-1.476Z" transform="translate(-40.606 -66.877)" fill="#b3b4b6"/>
        <path id="Path_34388" data-name="Path 34388" d="M36.669,0H25.6a2.217,2.217,0,0,0-2.215,2.215v.738H18.215A2.217,2.217,0,0,0,16,5.167V45.029a2.217,2.217,0,0,0,2.215,2.215H44.051a2.217,2.217,0,0,0,2.215-2.215V31.755a4.389,4.389,0,0,1-1.476.641V45.029a.739.739,0,0,1-.738.738H18.215a.739.739,0,0,1-.738-.738V5.167a.739.739,0,0,1,.738-.738h5.167v.738a2.2,2.2,0,0,0,.129.738h-3.82a.738.738,0,0,0-.738.738V38.537a.739.739,0,0,0,.232.538l5.33,5.016a.738.738,0,0,0,.506.2H42.574a.738.738,0,0,0,.738-.738V32.4a4.388,4.388,0,0,1-1.476-.641v11.06H25.759V39.275A1.478,1.478,0,0,0,24.282,37.8H20.429V7.382H41.836v8.107a4.389,4.389,0,0,1,1.476-.641v-8.2a.738.738,0,0,0-.738-.738h-3.82a2.2,2.2,0,0,0,.129-.738V4.429h5.167a.739.739,0,0,1,.738.738v9.68a4.388,4.388,0,0,1,1.476.641V5.167a2.217,2.217,0,0,0-2.215-2.215H38.883V2.215A2.217,2.217,0,0,0,36.669,0ZM24.282,39.275v2.569l-.41-.386-2.32-2.184ZM37.407,5.167a.739.739,0,0,1-.738.738H25.6a.739.739,0,0,1-.738-.738V2.215a.739.739,0,0,1,.738-.738H36.669a.739.739,0,0,1,.738.738Z" transform="translate(-16)" fill="#b3b4b6"/>
        <path id="Path_34389" data-name="Path 34389" d="M60.52,71.519c-.027-.049-.181-.258-.255-.359L60.148,71H54.738a.738.738,0,1,0,0,1.476h5.956c-.031-.164-.058-.321-.08-.461a4.768,4.768,0,0,0-.094-.5Z" transform="translate(-39.975 -44.795)" fill="#b3b4b6"/>
        <path id="Path_34390" data-name="Path 34390" d="M54.738,58.476H59.35a5.263,5.263,0,0,1,.771-1.44A.731.731,0,0,0,59.905,57H54.738a.738.738,0,1,0,0,1.476Z" transform="translate(-39.975 -35.962)" fill="#b3b4b6"/>
        <path id="Path_34391" data-name="Path 34391" d="M61.209,49H54.738a.738.738,0,1,0,0,1.476h5.956A4.7,4.7,0,0,1,61.209,49Z" transform="translate(-39.975 -30.915)" fill="#b3b4b6"/>
        <path id="Path_34392" data-name="Path 34392" d="M82.75,57.335a2.508,2.508,0,0,0,2.585-2.585,3.909,3.909,0,0,1,.186-.825,3.7,3.7,0,0,1,.433-.675,3.207,3.207,0,0,0,.81-1.869,3.2,3.2,0,0,0-.81-1.868,3.711,3.711,0,0,1-.433-.675,3.919,3.919,0,0,1-.186-.825,2.507,2.507,0,0,0-2.585-2.585,3.932,3.932,0,0,1-.825-.186,3.715,3.715,0,0,1-.675-.433,2.56,2.56,0,0,0-3.737,0,3.714,3.714,0,0,1-.674.433,3.93,3.93,0,0,1-.825.186,2.508,2.508,0,0,0-2.585,2.585,3.91,3.91,0,0,1-.186.825,3.7,3.7,0,0,1-.433.675A3.206,3.206,0,0,0,72,51.382a3.2,3.2,0,0,0,.81,1.868,3.712,3.712,0,0,1,.433.675,3.919,3.919,0,0,1,.186.825,2.507,2.507,0,0,0,2.585,2.585,3.932,3.932,0,0,1,.825.186,3.715,3.715,0,0,1,.675.433,2.56,2.56,0,0,0,3.737,0,3.714,3.714,0,0,1,.674-.433,3.93,3.93,0,0,1,.825-.186Zm-2.375-.57a2.1,2.1,0,0,1-.993.522,2.1,2.1,0,0,1-.993-.522,4.767,4.767,0,0,0-.984-.608,5.025,5.025,0,0,0-1.16-.281,2.169,2.169,0,0,1-1.039-.319,2.169,2.169,0,0,1-.319-1.038,5.012,5.012,0,0,0-.28-1.16A4.786,4.786,0,0,0,74,52.375a2.1,2.1,0,0,1-.522-.993A2.1,2.1,0,0,1,74,50.389a4.786,4.786,0,0,0,.608-.985,5.007,5.007,0,0,0,.28-1.159,2.167,2.167,0,0,1,.319-1.039,2.166,2.166,0,0,1,1.038-.319,5.024,5.024,0,0,0,1.16-.281A4.765,4.765,0,0,0,78.388,46a2.1,2.1,0,0,1,.993-.522,2.1,2.1,0,0,1,.993.522,4.767,4.767,0,0,0,.984.608,5.025,5.025,0,0,0,1.16.281,2.169,2.169,0,0,1,1.039.319,2.17,2.17,0,0,1,.319,1.038,5.011,5.011,0,0,0,.28,1.16,4.787,4.787,0,0,0,.608.985,2.1,2.1,0,0,1,.522.993,2.1,2.1,0,0,1-.522.993,4.786,4.786,0,0,0-.608.985,5.006,5.006,0,0,0-.28,1.159,2.167,2.167,0,0,1-.319,1.039,2.166,2.166,0,0,1-1.038.319,5.024,5.024,0,0,0-1.16.281A4.765,4.765,0,0,0,80.375,56.765Z" transform="translate(-51.331 -27.76)" fill="#b3b4b6"/>
        <path id="Path_34393" data-name="Path 34393" d="M89.427,57.216a.738.738,0,0,0-1.044,0l-3.162,3.168-.961-.962a.738.738,0,1,0-1.045,1.043L84.7,61.95a.738.738,0,0,0,1.045,0l3.684-3.691A.738.738,0,0,0,89.427,57.216Z" transform="translate(-58.271 -35.962)" fill="#b3b4b6"/>
      </g>
    </g>
  </g>
</svg>
