<svg xmlns="http://www.w3.org/2000/svg" width="17.12" height="17.12" viewBox="0 0 17.12 17.12">
  <g id="refresh" transform="translate(-0.005)">
    <path id="Path_4454" data-name="Path 4454" d="M0,8.56a8.56,8.56,0,1,1,8.56,8.56A8.56,8.56,0,0,1,0,8.56Z" fill="#2f7ef6"/>
    <path id="Path_4455" data-name="Path 4455" d="M87.579,44.653a.88.88,0,0,0-1.217-.2A.845.845,0,0,0,86,45.566a4.1,4.1,0,1,1-4.117-2.282v1.063a.123.123,0,0,0,.063.1.134.134,0,0,0,.132,0l3.4-2a.147.147,0,0,0,.076-.119c0-.065-.076-.111-.076-.111l-3.39-1.993a.177.177,0,0,0-.146-.029c-.069.027-.06.12-.06.12v1.138a5.921,5.921,0,1,0,5.7,3.2Z" transform="translate(-73.744 -38.802)" fill="#f7f7f7"/>
  </g>
</svg>
