<svg xmlns="http://www.w3.org/2000/svg" width="11.834" height="11.834" viewBox="0 0 11.834 11.834">
  <g id="Quote_request" transform="translate(0 0.001)">
    <g id="Quote_Request-2" data-name="Quote_Request" transform="translate(0 -0.001)">
      <path id="Path_30468" data-name="Path 30468" d="M211.761,218.25a.462.462,0,0,1-.453-.553l.217-1.085a2.3,2.3,0,0,1,.632-1.181l4-4a.462.462,0,0,1,.654,0l1.307,1.307a.462.462,0,0,1,0,.654l-4,4a2.3,2.3,0,0,1-1.181.632l-1.085.217A.463.463,0,0,1,211.761,218.25Zm4.718-5.834-3.668,3.668a1.382,1.382,0,0,0-.379.709l-.081.405.405-.081a1.382,1.382,0,0,0,.709-.379l3.668-3.668Z" transform="translate(-206.415 -206.416)" fill="#707070"/>
      <path id="Line_264" data-name="Line 264" d="M-19.538-18.3A.462.462,0,0,1-20-18.761v-.777A.462.462,0,0,1-19.538-20a.462.462,0,0,1,.462.462v.777A.462.462,0,0,1-19.538-18.3Z" transform="translate(28.32 22.773)" fill="#707070"/>
      <path id="Path_30469" data-name="Path 30469" d="M3.461,11.834H1.387A1.388,1.388,0,0,1,0,10.447V1.387A1.388,1.388,0,0,1,1.387,0H6.009a.462.462,0,1,1,0,.924H1.387a.463.463,0,0,0-.462.462v9.06a.463.463,0,0,0,.462.462H3.461a.462.462,0,0,1,0,.924Z" transform="translate(0 0)" fill="#707070"/>
      <path id="Path_30470" data-name="Path 30470" d="M243.236,3.7h-1.849A1.388,1.388,0,0,1,240,2.311V.462a.462.462,0,0,1,.789-.327l2.773,2.773a.462.462,0,0,1-.327.789Zm-2.311-2.12v.733a.463.463,0,0,0,.462.462h.733Z" transform="translate(-234.453 0.001)" fill="#707070"/>
    </g>
    <path id="Line_265" data-name="Line 265" d="M-14.915-19.076h-4.622A.462.462,0,0,1-20-19.538.462.462,0,0,1-19.538-20h4.622a.462.462,0,0,1,.462.462A.462.462,0,0,1-14.915-19.076Z" transform="translate(21.849 24.437)" fill="#707070"/>
    <path id="Line_266" data-name="Line 266" d="M-15.8-19.076h-3.735A.462.462,0,0,1-20-19.538.462.462,0,0,1-19.538-20H-15.8a.462.462,0,0,1,.462.462A.462.462,0,0,1-15.8-19.076Z" transform="translate(21.849 26.286)" fill="#707070"/>
    <path id="Line_267" data-name="Line 267" d="M-17.551-19.076h-1.987A.462.462,0,0,1-20-19.538.462.462,0,0,1-19.538-20h1.987a.462.462,0,0,1,.462.462A.462.462,0,0,1-17.551-19.076Z" transform="translate(21.849 28.135)" fill="#707070"/>
  </g>
</svg>
