<svg xmlns="http://www.w3.org/2000/svg" width="58.716" height="69.141" viewBox="0 0 58.716 69.141">
  <g id="Group_13999" data-name="Group 13999" transform="translate(-134.284 -359.859)">
    <path id="Path_33472" data-name="Path 33472" d="M402.89,223.75m4.469,0h10.427q4.469,0,4.469,4.469h0q0,4.469-4.469,4.469H407.359q-4.469,0-4.469-4.469h0Q402.89,223.75,407.359,223.75Z" transform="translate(-253.152 136.109)" fill="#b3b4b6"/>
    <path id="Path_33473" data-name="Path 33473" d="M324.767,306.245a15.089,15.089,0,0,1,3.9.51V275.9a6.167,6.167,0,0,0-6.148-6.147H316.56a6.213,6.213,0,0,1-6.193,6.082H296.688a6.213,6.213,0,0,1-6.193-6.082h-5.958a6.166,6.166,0,0,0-6.147,6.147v45.432a6.166,6.166,0,0,0,6.147,6.147h26.451a15.089,15.089,0,0,1,13.779-21.226Zm-36.442-20.73h30.412a1.862,1.862,0,0,1,0,3.724H288.324a1.862,1.862,0,0,1,0-3.724ZM286.462,298.6a1.693,1.693,0,0,1,1.686-1.689h24.686a1.693,1.693,0,0,1,1.688,1.689v.35a1.693,1.693,0,0,1-1.688,1.688H288.148a1.693,1.693,0,0,1-1.688-1.688Zm18.009,11.668a1.77,1.77,0,0,1-1.765,1.765H288.222a1.769,1.769,0,0,1-1.764-1.765v-.194a1.769,1.769,0,0,1,1.764-1.765H302.7a1.77,1.77,0,0,1,1.765,1.765Z" transform="translate(-144.106 95.819)" fill="#d4d7da"/>
    <g id="Ellipse_4083" data-name="Ellipse 4083" transform="translate(167 404)" fill="#d4d7da" stroke="#b3b4b6" stroke-width="2">
      <ellipse cx="13" cy="12.5" rx="13" ry="12.5" stroke="none"/>
      <ellipse cx="13" cy="12.5" rx="12" ry="11.5" fill="none"/>
    </g>
    <g id="Group_13998" data-name="Group 13998" transform="translate(173.791 409.221)">
      <path id="Path_33477" data-name="Path 33477" d="M31.5,19.264a1.043,1.043,0,0,0,.309.123.472.472,0,0,0,.309-.123A13.906,13.906,0,0,0,38.533,7.6V7.535a.609.609,0,0,0-.556-.617,9.846,9.846,0,0,1-2.346-.432,13.031,13.031,0,0,1-3.4-1.543.669.669,0,0,0-.679,0A11.625,11.625,0,0,1,28.1,6.486a10.446,10.446,0,0,1-2.346.432c-.309,0-.556.37-.556.679a13.645,13.645,0,0,0,6.3,11.667ZM28.409,7.659a14.25,14.25,0,0,0,3.457-1.482,11.483,11.483,0,0,0,3.457,1.482c.679.185,1.358.309,2.037.432a12.752,12.752,0,0,1-5.432,9.939A12.488,12.488,0,0,1,26.5,8.091c.556-.123,1.235-.247,1.914-.432Z" transform="translate(-25.198 -4.85)" fill="#b3b4b6"/>
      <path id="Path_33476" data-name="Path 33476" d="M32.952,16.453a.56.56,0,0,0,.432-.185L36.9,12.749a.611.611,0,1,0-.864-.864l-3.087,3.087-.8-.8a.611.611,0,1,0-.864.864l1.235,1.235a.667.667,0,0,0,.432.185Z" transform="translate(-27.456 -7.471)" fill="#b3b4b6"/>
    </g>
    <path id="Path_33475" data-name="Path 33475" d="M276.435,269.373a2.784,2.784,0,0,1-.932-.121.192.192,0,0,1-.147-.225c0-.141.225-.346.578-.346h2.027v-1.316h-1.119v-.948h-1.316v.988a1.73,1.73,0,0,0-1.486,1.622,1.486,1.486,0,0,0,.934,1.43,3.586,3.586,0,0,0,1.46.232c.353,0,.578.2.578.346,0,.16-.253.346-.578.346h-2.229V272.7h1.321v.948h1.316v-.988a1.73,1.73,0,0,0,1.486-1.622A1.791,1.791,0,0,0,276.435,269.373Z" transform="translate(-116.762 94.296)" fill="#d4d7da"/>
  </g>
</svg>
