<svg id="wages" xmlns="http://www.w3.org/2000/svg" width="34.5" height="28.763" viewBox="0 0 34.5 28.763">
  <path id="Path_4711" data-name="Path 4711" d="M459.251,313.275h2.813v7.687h-2.813Z" transform="translate(-428.305 -295.034)" fill="#e24242"/>
  <path id="Path_4712" data-name="Path 4712" d="M0,0H10.037V3.125H0Z" transform="matrix(0.413, -0.911, 0.911, 0.413, 0.832, 9.963)" fill="#23a7f1"/>
  <path id="Path_4713" data-name="Path 4713" d="M233.854,338.2c-1.26,0-2.534-.634-5.073-1.9l-.02-.01c-.636-.316-1.357-.675-2.171-1.07a1.325,1.325,0,0,1,.143-2.444,1.335,1.335,0,0,1,.438-.074,1.309,1.309,0,0,1,.576.133l4.492,2.177.031.049c.036.057.067.1.1.142a1.849,1.849,0,0,0,1.239.71,1.934,1.934,0,0,0,.244.016,1.834,1.834,0,0,0,1.132-.387l3.226-2.487-.329-.427-3.226,2.488a1.3,1.3,0,0,1-.8.275h0a1.372,1.372,0,0,1-.174-.011,1.316,1.316,0,0,1-.881-.505,1.3,1.3,0,0,1-.139-.223l-.015-.032c-.009-.019-.018-.039-.026-.059a1.333,1.333,0,0,1,.421-1.544l4.483-3.46.055-.042h3.458v5.6l-.108.057c-.526.275-1.015.534-1.454.766l-.016.009c-2.781,1.47-4.177,2.208-5.48,2.25Z" transform="translate(-210.625 -310.184)" fill="#ffcebf"/>
  <path id="Path_4714" data-name="Path 4714" d="M82.157,113.1a3.515,3.515,0,0,1-1.607-.673,8.7,8.7,0,0,0-2.334-1.063l-.455-.115-.055-.014c-2.071-.522-3.707-.934-4.341-2.156a7.93,7.93,0,0,0-2.871-2.548l-.16-.091,2.877-6.338.171.055c.964.308,1.92.572,2.845.827a19.846,19.846,0,0,1,6.119,2.371,6.793,6.793,0,0,1,2.833,5.619l.012.214-3.718-.005-.041-.019a7.821,7.821,0,0,1-.891-.488l-.21-.135.176-.178a6.354,6.354,0,0,0,1.083-1.474l-.483-.241a5.787,5.787,0,0,1-1.074,1.424l-.137.132-.14-.129a4.262,4.262,0,0,1-1.293-2.154l-.525.12a5.456,5.456,0,0,0,3.325,3.638l.015.007.014.009c.672.456,1.956,1.544,2.01,2.393a.761.761,0,0,1-.3.647,1.266,1.266,0,0,1-.85.364Z" transform="translate(-65.595 -96.229)" fill="#ffcebf"/>
  <path id="Path_4715" data-name="Path 4715" d="M174.278,251.221l.009-5.445.085-.06c.359-.253.639-.472.742-.554l.084-.067.1.032a9.048,9.048,0,0,1,1.915.925,4.056,4.056,0,0,0,1.9.746,1.775,1.775,0,0,0,1.187-.495,1.3,1.3,0,0,0,.479-1.088,3.484,3.484,0,0,0-1.224-1.982l-.372-.35,11.614.017-.007,5.281h-1.4a.271.271,0,0,0-.165.056l-3.832,2.957-.055.042Zm8.53-1.77v-.673l.164-.032a1.045,1.045,0,0,0,.9-.965,1.084,1.084,0,0,0-1.156-.99,2.065,2.065,0,0,1-.749-.1.333.333,0,0,1-.226-.347c0-.218.248-.45.617-.45h1.251v-.539h-.8v-.68h-.539v.673l-.164.032a1.045,1.045,0,0,0-.9.965.863.863,0,0,0,.549.84,2.391,2.391,0,0,0,.966.149c.369,0,.617.233.617.45,0,.244-.282.45-.617.45h-1.4v.539h.947v.68Z" transform="translate(-162.535 -229.386)" fill="#2fcc63"/>
  <path id="Path_4716" data-name="Path 4716" d="M130.408,264.167a.393.393,0,0,1-.154-.026l-.006,0-.006,0a.818.818,0,0,1-.349-.716,1.884,1.884,0,0,1,.56-1.385l.092-.087.119.044a20.438,20.438,0,0,0,2.067.608l.42.107-.351.253c-.256.185-.5.352-.736.5A3.585,3.585,0,0,1,130.408,264.167Z" transform="translate(-121.139 -247.164)" fill="#ffb09e"/>
  <path id="Path_4717" data-name="Path 4717" d="M143.483,297.911a.7.7,0,0,1-.18-.021c-.186-.049-.331-.275-.388-.6a2.142,2.142,0,0,1,.865-2.037l.694-.476,0,2.826-.113.055A2.108,2.108,0,0,1,143.483,297.911Z" transform="translate(-133.263 -277.78)" fill="#ffb09e"/>
  <path id="Path_4718" data-name="Path 4718" d="M34.031,60.076H30.679a.472.472,0,0,0-.472.472v.623H29l.007-5.347a.472.472,0,0,0-.471-.472l-8.206-.012a7.517,7.517,0,0,0-2.971-6.11C15.625,47.941,13.3,47.3,10.832,46.62c-.886-.244-1.8-.5-2.711-.785l.49-1.079a.472.472,0,0,0-.235-.625L5.039,42.619a.472.472,0,0,0-.624.235L.045,52.482a.472.472,0,0,0,.235.625l3.337,1.513a.472.472,0,0,0,.624-.235l.369-.813a7.025,7.025,0,0,1,2.505,2.2,3.392,3.392,0,0,0,1.443,1.414,2.665,2.665,0,0,0-.542,1.678A1.53,1.53,0,0,0,8.75,60.2a1.063,1.063,0,0,0,.519.123h.017a2.915,2.915,0,0,0-.361,1.889A1.388,1.388,0,0,0,9.854,63.4a1.419,1.419,0,0,0,.365.046,2.375,2.375,0,0,0,.788-.155l0,1.387a.472.472,0,0,0,.471.473l3.439.005a2.071,2.071,0,0,0,.73,3.13c.818.4,1.542.757,2.181,1.075,2.616,1.3,3.973,1.977,5.4,1.977l.148,0c1.474-.048,2.92-.813,5.8-2.336l1.031-.544v.317a.472.472,0,0,0,.472.472h3.352a.472.472,0,0,0,.472-.472V60.548A.472.472,0,0,0,34.031,60.076ZM3.577,53.565,1.1,52.442l3.98-8.769L7.557,44.8Zm4.376,1.772A8.029,8.029,0,0,0,5,52.707L7.729,46.7c.966.309,1.923.573,2.853.829,4.727,1.3,8.488,2.339,8.8,7.807l-2.941,0h-.518a7.584,7.584,0,0,1-.868-.476,6.587,6.587,0,0,0,1.213-1.705l-.844-.421A5.618,5.618,0,0,1,14.3,54.277a4.141,4.141,0,0,1-1.28-2.247l-.92.211a5.617,5.617,0,0,0,3.486,3.973c.731.5,1.876,1.525,1.922,2.239a.549.549,0,0,1-.227.482c-.646.562-1.119.32-2.221-.331a8.864,8.864,0,0,0-2.387-1.085l-.51-.129C10.141,56.881,8.544,56.478,7.953,55.337Zm3.056,6.933a1.418,1.418,0,0,1-.913.22c-.083-.022-.194-.17-.241-.442a1.931,1.931,0,0,1,.78-1.836l.377-.258Zm-.19-3.572c-1.263.8-1.614.672-1.616.671a.638.638,0,0,1-.244-.547,1.683,1.683,0,0,1,.5-1.23,20.442,20.442,0,0,0,2.089.615C11.331,58.361,11.081,58.534,10.819,58.7Zm1.13,5.511.008-5.138c.349-.246.624-.46.751-.561a8.878,8.878,0,0,1,1.873.906,4.184,4.184,0,0,0,2,.774,1.965,1.965,0,0,0,1.32-.545,1.5,1.5,0,0,0,.548-1.253,3.624,3.624,0,0,0-1.288-2.116l10.9.016-.006,4.877h-1.2a.472.472,0,0,0-.288.1l-3.832,2.957Zm9.664.958a2.068,2.068,0,0,0-.455,1.2l-2.48-1.2Zm8.595,2.224c-.533.279-1.028.54-1.472.775-2.754,1.455-4.136,2.186-5.392,2.227s-2.533-.6-5.1-1.876c-.641-.319-1.368-.681-2.19-1.079a1.124,1.124,0,0,1,.981-2.022l4.44,2.152c.034.054.07.107.109.158a2.049,2.049,0,0,0,1.372.786,2.113,2.113,0,0,0,.27.017,2.042,2.042,0,0,0,1.256-.429L27.87,65.49l-.576-.747-3.386,2.611a1.126,1.126,0,0,1-1.575-.2,1.1,1.1,0,0,1-.118-.189l-.013-.027c-.008-.017-.015-.034-.022-.051a1.125,1.125,0,0,1,.357-1.309l4.483-3.46h3.187v5.278Zm3.352.91H31.151V61.019h2.408Z" transform="translate(-0.003 -42.577)"/>
  <path id="Path_4719" data-name="Path 4719" d="M275.758,268.537a2,2,0,0,1-.668-.087.138.138,0,0,1-.105-.161c0-.1.161-.248.414-.248h1.453V267.1h-.8v-.68h-.944v.708a1.241,1.241,0,0,0-1.066,1.163,1.066,1.066,0,0,0,.67,1.026,2.572,2.572,0,0,0,1.047.166c.253,0,.414.147.414.248s-.181.248-.414.248h-1.6v.944h.947v.68h.943v-.709a1.241,1.241,0,0,0,1.066-1.163A1.284,1.284,0,0,0,275.758,268.537Z" transform="translate(-255.575 -251.334)"/>
</svg>
