<svg xmlns="http://www.w3.org/2000/svg" width="52.284" height="52.284" viewBox="0 0 52.284 52.284">
  <g id="Group_15566" data-name="Group 15566" transform="translate(-246.521 -496)">
    <path id="Path_35311" data-name="Path 35311" d="M-7336.076,1451.693s1.942-1.9,3.454-2.113,20.508,0,20.508,0l1.365,2.144v8.657l1.572,5.964,2.358,9.234-3.931-1.635v8.561l-3.93.577s-1.081.385-1.081,2.116v8.368h-18.767s-1.77-1.731-1.572-2.4,3.536-2.309,4.323-4.713a8.483,8.483,0,0,0-3.341-8.849c-3.243-2.308-.982-.481-.982-.481V1467.5l2.849,2.116v-4.232h2.948a2.242,2.242,0,0,0,2.063-1.731c.49-1.731,0-9.138,0-9.138s.1-2.6-2.063-2.79A56.829,56.829,0,0,0-7336.076,1451.693Z" transform="translate(7596.325 -950.975)" fill="#d4d7da"/>
    <path id="Path_35312" data-name="Path 35312" d="M-7115.866,1288.088l-7.943,2.7-.4,1.667,1.032,3.1,2.7.476,7.3-1.985h-.711Z" transform="translate(7390.538 -771.507)" fill="#fff"/>
    <path id="content-marketing" d="M40.259,60.294a.534.534,0,0,1-.534.534H35.3a.534.534,0,0,1,0-1.067h4.421A.534.534,0,0,1,40.259,60.294ZM22.865,25.838a.534.534,0,0,0-.534-.534H15.439a.534.534,0,0,0,0,1.067h6.891A.534.534,0,0,0,22.865,25.838Zm-7.425-2.471H28.7a.534.534,0,0,0,0-1.067H15.439a.534.534,0,1,0,0,1.067Zm0-3H28.7a.534.534,0,0,0,0-1.067H15.439a.534.534,0,1,0,0,1.067Zm47.844,28.8V57.9a2.671,2.671,0,0,1-2.668,2.668H51.864A5.222,5.222,0,0,1,47.3,63.284H26.983a5.2,5.2,0,0,1-5.2-5.2V55.8a7.631,7.631,0,0,1,0-15.224V30.066H14.264A3.268,3.268,0,0,1,11,26.8V18.864A3.268,3.268,0,0,1,14.264,15.6h7.555A5.222,5.222,0,0,1,26.983,11H47.3a5.2,5.2,0,0,1,5.2,5.2v7.624l1.222,4.559,2.228.02a.534.534,0,0,1,.511.4l.8,3a.533.533,0,0,1-.245.6L55.1,33.521l1.671,6.235a1.8,1.8,0,1,1-3.482.933L53.1,40q-.291-.178-.6-.339v6.837h8.118a2.67,2.67,0,0,1,2.667,2.667ZM51.432,39.174a13.157,13.157,0,0,0-1.369-.448v7.767h1.369ZM46.72,46.493H49V38.481a21.327,21.327,0,0,0-8.14.15l-1.477.4L42.14,43.81a1.962,1.962,0,0,1-3.4,1.962l-3.287-5.693-.2.054a3.783,3.783,0,0,1-4.672-2.8,3.948,3.948,0,0,1,.351-2.97,3.717,3.717,0,0,1,2.3-1.788l5.6-1.5c6.538-2.2,9.124-5.861,9.922-7.3l-.186-.693a1.79,1.79,0,0,1,.181-1.367A1.824,1.824,0,0,1,49,21.382V16.317A1.816,1.816,0,0,0,47.182,14.5H27.1a1.823,1.823,0,0,0-1.663,1.1h4.434a3.268,3.268,0,0,1,3.264,3.264V26.8a3.268,3.268,0,0,1-3.264,3.264H28.1v3.77a.534.534,0,0,1-.872.412l-1.937-1.593v8.5a7.633,7.633,0,0,1,0,14.063v.273A1.816,1.816,0,0,0,27.1,57.305h16.95V49.161A2.671,2.671,0,0,1,46.72,46.493ZM22.852,30.652v9.922a7.6,7.6,0,0,1,1.369.219V31.778Zm13.67,9.14,3.144,5.446a.895.895,0,0,0,1.549-.895l-2.9-5.031Zm3.558-2.058-1.472-5.493-5.1,1.367a2.658,2.658,0,0,0-1.642,1.279,2.886,2.886,0,0,0-.251,2.172A2.755,2.755,0,0,0,34.978,39.1Zm12.639.841L49.135,25.2c-1.9,2.8-5.326,5.24-9.505,6.733l1.491,5.564A19.381,19.381,0,0,1,52.719,38.575Zm3.018,1.456L51.019,22.423A.735.735,0,0,0,49.6,22.8l4.718,17.608a.735.735,0,0,0,1.421-.381Zm-1.73-10.58.8,3,1.315-.775-.593-2.211ZM22.9,15.6h1.416A2.9,2.9,0,0,1,27.1,13.436h20.08a2.884,2.884,0,0,1,2.881,2.881v4.512a1.8,1.8,0,0,1,1.369.378V16.2A4.136,4.136,0,0,0,47.3,12.067H26.983A4.15,4.15,0,0,0,22.9,15.6ZM14.264,29h8.067a.533.533,0,0,1,.339.121l4.36,3.586V29.533A.534.534,0,0,1,27.563,29h2.31a2.2,2.2,0,0,0,2.2-2.2V18.864a2.2,2.2,0,0,0-2.2-2.2H14.264a2.2,2.2,0,0,0-2.2,2.2V26.8A2.2,2.2,0,0,0,14.264,29Zm8.054,25.753a6.566,6.566,0,1,0-6.566-6.566A6.573,6.573,0,0,0,22.318,54.752ZM50.6,60.57H46.719a2.671,2.671,0,0,1-2.625-2.2H27.1a2.884,2.884,0,0,1-2.879-2.793,7.6,7.6,0,0,1-1.371.22v2.287a4.136,4.136,0,0,0,4.131,4.131H47.3A4.148,4.148,0,0,0,50.6,60.57Zm11.62-11.409a1.6,1.6,0,0,0-1.6-1.6H46.72a1.6,1.6,0,0,0-1.6,1.6V57.9a1.6,1.6,0,0,0,1.6,1.6h13.9a1.6,1.6,0,0,0,1.6-1.6V49.161Zm-5.552,4.371a1.268,1.268,0,0,1-.641,1.109l-3.431,1.981a1.279,1.279,0,0,1-1.921-1.109V51.551a1.279,1.279,0,0,1,1.921-1.109l3.431,1.981A1.268,1.268,0,0,1,56.665,53.532Zm-1.067,0a.207.207,0,0,0-.108-.185l-3.431-1.981a.206.206,0,0,0-.214,0,.207.207,0,0,0-.106.186v3.962a.212.212,0,0,0,.32.185l3.431-1.981A.207.207,0,0,0,55.6,53.532Zm3.25-23.77a.533.533,0,0,0,.653.377l3.387-.907a.534.534,0,0,0-.276-1.031l-3.387.907A.534.534,0,0,0,58.848,29.762Zm-2.39-3.115a.533.533,0,0,0,.729-.2l1.753-3.037a.533.533,0,1,0-.924-.534l-1.753,3.037A.533.533,0,0,0,56.458,26.647Zm2.606,6.812a.533.533,0,1,0-.534.924l3.037,1.753a.533.533,0,1,0,.534-.924ZM22.318,52.484a.917.917,0,0,1-.67-.3c-.148-.16-.35-.363-.582-.6-1.469-1.479-2.789-2.9-2.789-4.059a2.463,2.463,0,0,1,2.376-2.537,2.31,2.31,0,0,1,1.665.729,2.309,2.309,0,0,1,1.665-.729,2.463,2.463,0,0,1,2.376,2.537c0,1.157-1.319,2.58-2.789,4.059-.233.234-.434.437-.582.6A.917.917,0,0,1,22.318,52.484Zm-.5-1.646c.187.189.355.357.5.5.141-.148.309-.316.5-.5.866-.872,2.478-2.494,2.478-3.307a1.4,1.4,0,0,0-1.309-1.47,1.315,1.315,0,0,0-1.176.826.534.534,0,0,1-.978,0,1.314,1.314,0,0,0-1.176-.826,1.4,1.4,0,0,0-1.309,1.47C19.344,48.344,20.956,49.967,21.822,50.839Z" transform="translate(235.521 485)" fill="#b3b4b6"/>
  </g>
</svg>
