<svg xmlns="http://www.w3.org/2000/svg" width="46" height="44.996" viewBox="0 0 46 44.996">
  <g id="survey" transform="translate(-9.215 -15.296)">
    <g id="Group_6041" data-name="Group 6041" transform="translate(9.215 15.296)">
      <path id="Path_5240" data-name="Path 5240" d="M53.6,58.8a7.614,7.614,0,0,0-7.443-6.018h0A7.614,7.614,0,0,0,38.714,58.8Zm-32.986,0H37.2a9.24,9.24,0,0,1,.306-1.219H21.374a.744.744,0,0,1-.742-.747v-6.71l-.219-.127a.741.741,0,0,1-.272-.273l-.721-1.258V57.6A1.2,1.2,0,0,0,20.616,58.8ZM10.878,30.582l.841,1.467,3.031-1.762-.841-1.466a1.331,1.331,0,0,0-1.823-.492l-.719.418a1.353,1.353,0,0,0-.489,1.835Zm8.543,4.861,1.211,2.113V22.471a.744.744,0,0,1,.742-.747h5.96V20.5H20.616a1.2,1.2,0,0,0-1.2,1.2V35.443ZM30.512,51.751H25.843v-4.7h4.669Zm-6.153-3.617v2.429l-2.09-1.214ZM15.492,31.58l8.6,14.986-3.031,1.762-8.6-14.986ZM28.076,24.4H43a.744.744,0,0,0,.742-.747v-.432h5.218V43.645a4.92,4.92,0,0,0-2.8-.871,4.987,4.987,0,0,0-4.89,4.114H35.141a.747.747,0,0,0,0,1.494h6.084a4.989,4.989,0,0,0,.716,2.04h-6.8a.747.747,0,0,0,0,1.494h7.69a9.11,9.11,0,0,0-4.684,4.171H22.116v-5.1l2.33,1.354a1.38,1.38,0,0,0,1.291.906h4.879A1.385,1.385,0,0,0,32,51.857V46.946a1.385,1.385,0,0,0-1.379-1.388H25.738a1.356,1.356,0,0,0-.468.084l-3.154-5.5V23.217h5.218v.432A.744.744,0,0,0,28.076,24.4Zm.742-1.494H42.254V19.325H38.738a.743.743,0,0,1-.721-.572,2.549,2.549,0,0,0-4.962,0,.743.743,0,0,1-.721.572H28.818ZM46.159,51.286a3.509,3.509,0,1,0-3.487-3.509,3.5,3.5,0,0,0,3.487,3.509h0ZM43.738,20.5h6.718a1.2,1.2,0,0,1,1.2,1.2V53.134a9.078,9.078,0,0,0-2.521-1.35,5.017,5.017,0,0,0,1.309-6.543V22.471a.744.744,0,0,0-.742-.747h-5.96V20.5Zm11.287,39.54a.74.74,0,0,1-.552.248H20.616a2.692,2.692,0,0,1-2.679-2.7V45.877L9.593,31.329a2.852,2.852,0,0,1,1.032-3.876l.719-.418a2.812,2.812,0,0,1,3.85,1.038l2.743,4.783V21.708a2.692,2.692,0,0,1,2.679-2.7h6.718v-.432a.744.744,0,0,1,.742-.747h3.718a4.028,4.028,0,0,1,7.483,0H43a.744.744,0,0,1,.742.747v.432h6.718a2.692,2.692,0,0,1,2.68,2.7V54.553a9.153,9.153,0,0,1,2.075,4.913A.749.749,0,0,1,55.025,60.045Zm-27.6-18.915a.739.739,0,0,0,.525.219h.039a.741.741,0,0,0,.538-.276l1.526-1.9a.751.751,0,0,0-.11-1.051.739.739,0,0,0-1.043.111l-1.008,1.254L27.4,39a.738.738,0,0,0-1.049,0,.75.75,0,0,0,0,1.056Zm2.517,6.742a.75.75,0,0,1,.11,1.05l-1.526,1.9a.739.739,0,0,1-.538.276h-.039a.74.74,0,0,1-.525-.218L26.355,49.8a.75.75,0,0,1,0-1.056.739.739,0,0,1,1.049,0l.487.49L28.9,47.982A.739.739,0,0,1,29.942,47.871Zm5.2-18.989h10.83a.747.747,0,0,0,0-1.494H35.141a.747.747,0,0,0,0,1.494Zm0,3.533h10.83a.747.747,0,0,0,0-1.494H35.141a.747.747,0,0,0,0,1.494Zm-5.2-4.043a.75.75,0,0,1,.11,1.05l-1.526,1.9a.74.74,0,0,1-.538.276h-.039a.739.739,0,0,1-.525-.219L26.355,30.3a.75.75,0,0,1,0-1.056.738.738,0,0,1,1.049,0l.487.49L28.9,28.483A.738.738,0,0,1,29.942,28.372Zm-4.1,3.88v-4.7h4.669v4.7Zm-.1-6.193h4.879A1.385,1.385,0,0,1,32,27.446v4.911a1.385,1.385,0,0,1-1.379,1.388H25.738a1.385,1.385,0,0,1-1.379-1.388V27.446a1.385,1.385,0,0,1,1.379-1.388Zm9.4,16.106h10.83a.747.747,0,0,0,0-1.494H35.141a.747.747,0,0,0,0,1.494Zm0-3.533h10.83a.747.747,0,0,0,0-1.494H35.141a.747.747,0,0,0,0,1.494Zm-4.63-1.33V42H25.843V37.3ZM32,37.2v4.911a1.385,1.385,0,0,1-1.379,1.388H25.738a1.385,1.385,0,0,1-1.379-1.388V37.2a1.385,1.385,0,0,1,1.379-1.388h4.879A1.385,1.385,0,0,1,32,37.2Zm4.412-18.435a.871.871,0,1,1-.871-.877A.874.874,0,0,1,36.408,18.761Z" transform="translate(-9.215 -15.296)" fill="#57a4ff" fill-rule="evenodd"/>
    </g>
    <g id="Group_6042" data-name="Group 6042" transform="translate(10.742 16.823)">
      <path id="Path_5241" data-name="Path 5241" d="M220.6,37.546h13.82V33.891H230.8a.763.763,0,0,1-.742-.584,2.626,2.626,0,0,0-5.1,0,.763.763,0,0,1-.742.584H220.6Zm7.806-4.232a.9.9,0,1,1-.9-.9A.9.9,0,0,1,228.4,33.314Z" transform="translate(-202.824 -31.3)" fill="#9bc9ff" fill-rule="evenodd"/>
      <path id="Path_5242" data-name="Path 5242" d="M381.473,71.087V72.3h6.13a.752.752,0,0,1,.763.741V95.619a4.821,4.821,0,0,1,.708,2.515,4.911,4.911,0,0,1-2.055,3.974,9.452,9.452,0,0,1,2.593,1.339V72.281a1.214,1.214,0,0,0-1.23-1.194Z" transform="translate(-348.805 -67.292)" fill="#9bc9ff" fill-rule="evenodd"/>
      <path id="Path_5243" data-name="Path 5243" d="M120.51,88.511V73.1a.763.763,0,0,1,.763-.763h6.13V71.087h-6.91a1.231,1.231,0,0,0-1.23,1.23V86.352Z" transform="translate(-110.641 -67.292)" fill="#9bc9ff" fill-rule="evenodd"/>
      <path id="Path_5244" data-name="Path 5244" d="M120.51,372.295a1.146,1.146,0,0,1-.5-.41l-.742-1.285v9.331a1.231,1.231,0,0,0,1.23,1.229h17.061a9.4,9.4,0,0,1,.315-1.246h-16.6a.763.763,0,0,1-.763-.763v-6.856Z" transform="translate(-110.795 -339.217)" fill="#9bc9ff" fill-rule="evenodd"/>
      <path id="Path_5245" data-name="Path 5245" d="M369.974,329.235a3.586,3.586,0,1,0,3.586-3.586A3.59,3.59,0,0,0,369.974,329.235Z" transform="translate(-338.403 -298.343)" fill="#9bc9ff" fill-rule="evenodd"/>
      <path id="Path_5246" data-name="Path 5246" d="M190.615,357.7l1.037-1.281a.763.763,0,1,1,1.186.96l-1.57,1.941a.764.764,0,0,1-1.133.06l-1.1-1.1a.763.763,0,0,1,1.079-1.079Zm2.7,2.57v-4.8h-4.8v4.8Z" transform="translate(-173.482 -325.342)" fill="#9bc9ff" fill-rule="evenodd"/>
      <path id="Path_5247" data-name="Path 5247" d="M188.509,255.828h4.8v-4.8h-4.8Zm2.76-.951a.763.763,0,0,1-1.133.06l-1.1-1.1a.763.763,0,1,1,1.079-1.079l.5.5,1.037-1.281a.763.763,0,1,1,1.187.96Z" transform="translate(-173.482 -230.607)" fill="#9bc9ff" fill-rule="evenodd"/>
      <path id="Path_5248" data-name="Path 5248" d="M188.509,151.387h4.8v-4.8h-4.8Zm4.33-2.891-1.57,1.941a.763.763,0,0,1-1.133.06l-1.1-1.1a.763.763,0,1,1,1.079-1.079l.5.5,1.037-1.281a.763.763,0,0,1,1.187.96Z" transform="translate(-173.482 -135.871)" fill="#9bc9ff" fill-rule="evenodd"/>
      <path id="Path_5249" data-name="Path 5249" d="M29.39,155.164l-.865-1.5a1.374,1.374,0,0,0-1.875-.5l-.74.427a1.377,1.377,0,0,0-.5,1.875l.865,1.5Z" transform="translate(-25.224 -141.665)" fill="#9bc9ff" fill-rule="evenodd"/>
      <path id="Path_5250" data-name="Path 5250" d="M152.118,367.061l-2.15,1.241,2.15,1.241Z" transform="translate(-138.46 -335.811)" fill="#9bc9ff" fill-rule="evenodd"/>
    </g>
  </g>
</svg>
