<svg xmlns="http://www.w3.org/2000/svg" width="49.5" height="49.504" viewBox="0 0 49.5 49.504">
  <g id="businessman" transform="translate(-1 -0.978)">
    <path id="Path_33766" data-name="Path 33766" d="M18.348,44.594a.383.383,0,0,0-.383.383v3.089a.382.382,0,0,0,.383.382H32.531a.382.382,0,0,0,.382-.382V44.977a.383.383,0,0,0-.382-.383ZM44.11,29.925a8.5,8.5,0,1,1,8.5-8.5A8.512,8.512,0,0,1,44.11,29.925Zm-.631,5.657-4.131,3.5-3.2-6.262.34-.184q.658-.356,1.346-.652l.2-.085Zm6.916-3.6q.686.295,1.342.652l.339.184-3.2,6.267-4.13-3.5L50.2,31.9Zm-4.246,5.8L44.11,36.049l-2.04,1.73,1.367,2.2h1.344Zm-.1,8.586h-3.87l1.352-5.62h1.166ZM31.731,39.136v2.176H29.777V39.136a.406.406,0,0,0-.4-.4H21.507a.406.406,0,0,0-.406.4v2.176H19.148V39.136a2.362,2.362,0,0,1,2.359-2.359h7.865A2.362,2.362,0,0,1,31.731,39.136Zm5.441,2.941a.768.768,0,0,1,.763.762v5.8a2.329,2.329,0,0,1-2.326,2.328H15.269a2.33,2.33,0,0,1-2.328-2.328v-5.8a.768.768,0,0,1,.763-.762ZM27.3,51.731v1.941H23.58V51.731Z" transform="translate(-10.782 -10.781)" fill="#d4d7da" fill-rule="evenodd"/>
    <path id="Path_33767" data-name="Path 33767" d="M20.971,36.507H8.343V34.973H20.971Zm.778-3.089H7.566a.778.778,0,0,0-.778.778v3.089a.778.778,0,0,0,.778.777H21.749a.778.778,0,0,0,.777-.777V34.2A.778.778,0,0,0,21.749,33.418Zm27.1,1.653a.362.362,0,0,1-.27.117H36.36l-1.316-5.472,1.007-1.621L37.707,29.5a.777.777,0,0,0,.5.185.821.821,0,0,0,.152-.016.778.778,0,0,0,.54-.408l3.2-6.248a15.7,15.7,0,0,1,6.85,11.779.366.366,0,0,1-.1.278ZM26.39,30.136H22.107V28.355a3.5,3.5,0,0,0-.87-2.312,15.8,15.8,0,0,1,3.325-3.025l3.191,6.244a.776.776,0,0,0,.538.408.835.835,0,0,0,.154.016.782.782,0,0,0,.5-.185L30.605,28.1l1.007,1.62L30.3,35.187H28.312v-3.13a1.924,1.924,0,0,0-1.922-1.921ZM24.827,39.79a1.934,1.934,0,0,0,1.931-1.933v-5.8a.373.373,0,0,0-.368-.367H2.922a.373.373,0,0,0-.368.367v5.8A1.935,1.935,0,0,0,4.487,39.79ZM13.194,41.345h2.927V42.5H13.194Zm12.391,7.582a1.175,1.175,0,0,0,1.174-1.174V40.759a3.463,3.463,0,0,1-1.931.586H17.676v1.322a1.382,1.382,0,0,1-1.38,1.382H13.019a1.383,1.383,0,0,1-1.38-1.382V41.345H4.487a3.468,3.468,0,0,1-1.933-.586v6.995a1.175,1.175,0,0,0,1.173,1.174ZM17.835,30.136H11.477V29.11h6.358ZM8.761,28.355v1.781H9.923V28.355a.8.8,0,0,1,.8-.8H18.59a.8.8,0,0,1,.8.8v1.781h1.164V28.355a1.967,1.967,0,0,0-1.964-1.963H10.724A1.966,1.966,0,0,0,8.761,28.355Zm28.88-7.439a15.4,15.4,0,0,0-8.618.006l4.305,2.908ZM25.219,10.642a8.108,8.108,0,1,1,8.109,8.107A8.118,8.118,0,0,1,25.219,10.642Zm9.393,14.2,3.352,2.843,2.8-5.48q-.638-.347-1.309-.636ZM33.78,28.8h-.9L31.8,27.079l1.524-1.293,1.523,1.292Zm-.724,1.555H33.6l1.162,4.829H31.894ZM28.691,27.68l3.353-2.843L27.208,21.57q-.671.288-1.314.637Zm21.8,6.994A17.3,17.3,0,0,0,37.618,19.3a9.663,9.663,0,1,0-8.577,0,17.12,17.12,0,0,0-3.523,1.337,17.481,17.481,0,0,0-5.537,4.489,3.51,3.51,0,0,0-1.39-.287H10.724a3.521,3.521,0,0,0-3.518,3.518v1.781H2.922A1.924,1.924,0,0,0,1,32.058v15.7a2.732,2.732,0,0,0,2.727,2.729H25.584a2.731,2.731,0,0,0,2.727-2.729V36.741H48.581a1.915,1.915,0,0,0,1.914-2.067Z" transform="translate(0)" fill="#b3b4b6" fill-rule="evenodd"/>
  </g>
</svg>
