<svg xmlns="http://www.w3.org/2000/svg" width="41.489" height="47.743" viewBox="0 0 41.489 47.743">
  <g id="test" transform="translate(-33.97 -0.501)">
    <path id="Path_33776" data-name="Path 33776" d="M85.7,52.639a2.431,2.431,0,1,1-2.431-2.432A2.432,2.432,0,0,1,85.7,52.639Zm-2.431-6.71a10.11,10.11,0,0,0-1.682.141l-.327.055V24.24h2.113A1.258,1.258,0,0,1,84.632,25.5V46.016l-.309-.032A10.117,10.117,0,0,0,83.27,45.929ZM73.184,56.771a10.008,10.008,0,0,0,.586,2.742l.138.377H58.97a1.261,1.261,0,0,1-1.258-1.259V56.51H73.166ZM54.054,27.925l7.355-7.355v6.264a1.093,1.093,0,0,1-1.093,1.091Z" transform="translate(-18.208 -18.194)" fill="#d4d7da" fill-rule="evenodd"/>
    <path id="Path_33777" data-name="Path 33777" d="M69.621,41.96a4.617,4.617,0,0,0-9.112,0ZM65.063,36.6a2.151,2.151,0,1,0-2.151-2.151A2.152,2.152,0,0,0,65.063,36.6Zm6.11,6.111a.746.746,0,0,1-.747.747H59.7a.746.746,0,0,1-.747-.747,6.12,6.12,0,0,1,3.638-5.587,3.644,3.644,0,1,1,4.949,0A6.117,6.117,0,0,1,71.173,42.708Zm2.791-4.859a8.9,8.9,0,1,1-8.9-8.9A8.911,8.911,0,0,1,73.964,37.849ZM55.3,41.415a10.275,10.275,0,0,1-.6-2.819H39.785v1.84a.981.981,0,0,0,.977.978ZM36.443,37.1H54.7a10.355,10.355,0,0,1,2.622-6.179H47.153a.747.747,0,1,1,0-1.495H58.975a10.408,10.408,0,0,1,2.863-1.461V2.975A.982.982,0,0,0,60.857,2H44.416V8.64a2.31,2.31,0,0,1-2.308,2.306H35.465V36.123a.98.98,0,0,0,.977.978Zm.081-27.65,6.4-6.4V8.64a.812.812,0,0,1-.813.811H36.523ZM63.334,6.327V27.6a10.374,10.374,0,0,1,2.81-.089V7.3a.978.978,0,0,0-.978-.978ZM75.459,37.849a10.392,10.392,0,0,1-19.47,5.061H40.763a2.477,2.477,0,0,1-2.473-2.473V38.6H36.443a2.477,2.477,0,0,1-2.473-2.473V10.914a2.435,2.435,0,0,1,.724-1.749l7.939-7.939A2.43,2.43,0,0,1,44.382.5H60.858a2.478,2.478,0,0,1,2.476,2.474V4.832h1.832A2.475,2.475,0,0,1,67.639,7.3V27.778A10.415,10.415,0,0,1,75.459,37.849ZM42.676,29.725a.747.747,0,1,1,1.062,1.052l-3.151,3.182a.749.749,0,0,1-1.054.009l-1.759-1.714a.749.749,0,0,1,1.047-1.071l1.227,1.2ZM39.532,18.765l-1.759-1.714a.748.748,0,0,1,1.047-1.07l1.227,1.2,2.63-2.655a.747.747,0,1,1,1.062,1.052l-3.151,3.182a.749.749,0,0,1-1.054.009Zm3.143,3.359a.747.747,0,1,1,1.062,1.052l-3.151,3.182a.75.75,0,0,1-1.054.009l-1.759-1.714a.749.749,0,0,1,1.047-1.071l1.227,1.2ZM53.08,8.118a.747.747,0,1,1,0-1.495h5.927a.747.747,0,1,1,0,1.495Zm-5.927,3.334a.747.747,0,1,1,0-1.495H59.006a.747.747,0,1,1,0,1.495Zm0,4.268a.748.748,0,0,1,0-1.5H59.006a.748.748,0,0,1,0,1.5Zm0,3.333a.748.748,0,0,1,0-1.5H53.08a.748.748,0,0,1,0,1.5Zm0,4.268a.747.747,0,1,1,0-1.495H59.006a.747.747,0,1,1,0,1.495Zm0,3.334a.748.748,0,0,1,0-1.5H53.08a.748.748,0,0,1,0,1.5Zm6.674,6.855a.746.746,0,0,1-.747.747H47.153a.747.747,0,1,1,0-1.495H53.08A.747.747,0,0,1,53.827,33.509Z" fill="#b3b4b6" fill-rule="evenodd"/>
  </g>
</svg>
