<svg xmlns="http://www.w3.org/2000/svg" width="43.496" height="43.754" viewBox="0 0 43.496 43.754">
  <g id="register" transform="translate(-2.501 -1)">
    <path id="Path_33770" data-name="Path 33770" d="M42.148,25.073H34.757l8.823-8.823v7.39A1.434,1.434,0,0,1,42.148,25.073ZM51.925,27.6a.794.794,0,0,1,.788-.789h2.752a.794.794,0,0,1,.789.789v4.979H51.925Zm1.76-9.706.027-.02a.639.639,0,0,1,.754,0l7.655,5.562a.64.64,0,1,1-.752,1.036l-7.128-5.179a.26.26,0,0,0-.3,0l-7.127,5.178a.638.638,0,0,1-.894-.14.64.64,0,0,1,.141-.894Zm10.914.7h.579a1.616,1.616,0,0,1,1.614,1.614V31.118l-2.192,3.8ZM66.792,40.53V56.138a1.615,1.615,0,0,1-1.614,1.614H38.713A1.614,1.614,0,0,1,37.1,56.138V55.56H62.471A2.131,2.131,0,0,0,64.6,53.432V44.327Zm.795-9.761.949-1.643a.7.7,0,0,1,.95-.255l1.98,1.144a.7.7,0,0,1,.254.949l-.948,1.644ZM61.6,48.194,58.674,46.5l-.334,3.958ZM49.209,49.7H31.771v1.508H49.209ZM35.361,45.341H45.62v-.926a.693.693,0,0,0-.689-.689H36.05a.693.693,0,0,0-.689.689v.926Zm4.307-6.808V40.7a1.663,1.663,0,0,1-.745,1.4,2.8,2.8,0,0,0-.447.379l-.7.726H43.2l-.7-.726a2.8,2.8,0,0,0-.447-.379,1.665,1.665,0,0,1-.745-1.4V38.534c0-.09,0-.18.01-.27v-.011c0-.01,0-.019,0-.029v-.015a3.483,3.483,0,0,1,1.261-2.428,3.243,3.243,0,1,0-4.194,0,3.5,3.5,0,0,1,1.275,2.753Z" transform="translate(-26.759 -13.942)" fill="#d4d7da" fill-rule="evenodd"/>
    <path id="Path_33771" data-name="Path 33771" d="M44.589,16.809l-.734,1.272-2.442-1.41.734-1.271a.269.269,0,0,1,.364-.1l1.98,1.144A.266.266,0,0,1,44.589,16.809ZM39.6,42.2a1.186,1.186,0,0,1-1.185,1.185H11.954A1.185,1.185,0,0,1,10.77,42.2v-.149H35.712a2.56,2.56,0,0,0,2.557-2.557V30.5L39.6,28.189ZM8.063,39.49a1.186,1.186,0,0,0,1.185,1.185H35.712A1.186,1.186,0,0,0,36.9,39.49V32.877l-.98,1.7a.679.679,0,0,1-.2.22l-3.074,2.14a1.242,1.242,0,0,1-1.921-.748H23.394v.662a1.362,1.362,0,0,1-1.361,1.361H8.063Zm-2.622-3.3v.651h16.58v-.651Zm-1.567-3.18v1.807H23.588V33.006a.663.663,0,0,0-.662-.662H4.536a.663.663,0,0,0-.662.662ZM16.392,3.344V9.7a1,1,0,0,1-1,1H9.033Zm19.32-.971H17.854c-.031,0-.06,0-.089,0V9.7a2.378,2.378,0,0,1-2.376,2.376H8.066c0,.029,0,.058,0,.088V29.4a1.626,1.626,0,0,1,1.228-.56h1.078a3.775,3.775,0,0,1,1.266-1.458.712.712,0,0,0,.331-.622V24.592a2.56,2.56,0,0,0-.941-2.033,4.187,4.187,0,1,1,5.415,0,2.607,2.607,0,0,0-.774,1.074H33.127a.686.686,0,0,1,0,1.372H15.5v1.755a.713.713,0,0,0,.329.622,3.772,3.772,0,0,1,1.267,1.458h1.078a1.624,1.624,0,0,1,1.047.382H32.581L36.9,21.749V3.558a1.186,1.186,0,0,0-1.185-1.185Zm2.707,2.707A1.186,1.186,0,0,1,39.6,6.264v10.8l-1.334,2.31V5.079ZM32.286,33.272l-.2,2.376,1.957-1.362ZM18.172,30.213H9.291a.264.264,0,0,0-.26.26v.5h9.4v-.5a.264.264,0,0,0-.26-.26Zm-6.261-8.7a3.926,3.926,0,0,1,1.426,3.08v2.169A2.092,2.092,0,0,1,12.4,28.52a2.38,2.38,0,0,0-.378.321h3.411a2.382,2.382,0,0,0-.378-.321,2.093,2.093,0,0,1-.934-1.759V24.592c0-.1,0-.2.011-.3,0-.021,0-.042,0-.063a3.911,3.911,0,0,1,1.411-2.72,2.814,2.814,0,1,0-3.639,0Zm13.049,13.3h5.818l.231-2.736a.692.692,0,0,1,.089-.285l.691-1.2H19.8v.375h3.121a2.037,2.037,0,0,1,2.035,2.035v1.807ZM35.071,33.3l8.1-14.026L40.727,17.86l-8.1,14.026ZM45.178,15.256,43.2,14.114a1.639,1.639,0,0,0-2.222.573V6.265a2.56,2.56,0,0,0-2.557-2.558h-.15V3.558A2.561,2.561,0,0,0,35.712,1H17.854a2.508,2.508,0,0,0-1.809.749L7.439,10.355a2.508,2.508,0,0,0-.749,1.808V30.971H4.536A2.037,2.037,0,0,0,2.5,33.006V35.5a.686.686,0,0,0,.686.686h.881v.662a1.362,1.362,0,0,0,1.36,1.361H6.69V39.49a2.56,2.56,0,0,0,2.558,2.557H9.4V42.2a2.56,2.56,0,0,0,2.557,2.557H38.419A2.56,2.56,0,0,0,40.976,42.2V25.812l4.8-8.317A1.641,1.641,0,0,0,45.178,15.256ZM19.552,9.843,27.2,4.287a.064.064,0,0,0,.011-.008.211.211,0,0,1,.245,0L35.11,9.843a.212.212,0,0,1,.047.294.21.21,0,0,1-.294.047L27.734,5a.689.689,0,0,0-.807,0L19.8,10.184a.2.2,0,0,1-.156.038.207.207,0,0,1-.137-.085.21.21,0,0,1,.047-.294Zm13.14,8.368H30.439V13.66a1.735,1.735,0,0,0-1.733-1.733H25.955a1.735,1.735,0,0,0-1.732,1.733v4.55H21.97a.048.048,0,0,1-.047-.048V10.338l5.408-3.93,5.409,3.93v7.824a.049.049,0,0,1-.047.048Zm-3.626,0H25.6V13.66a.364.364,0,0,1,.359-.36h2.752a.365.365,0,0,1,.36.36Zm-9.64-6.634a1.57,1.57,0,0,1-1.034-.635,1.587,1.587,0,0,1,.352-2.211L26.387,3.18a1.59,1.59,0,0,1,1.874-.01l7.655,5.562a1.584,1.584,0,0,1-.933,2.866,1.562,1.562,0,0,1-.871-.265v6.831a1.422,1.422,0,0,1-1.42,1.421H21.97a1.422,1.422,0,0,1-1.42-1.421V11.331a1.573,1.573,0,0,1-1.123.246Z" transform="translate(0)" fill="#b3b4b6" fill-rule="evenodd"/>
  </g>
</svg>
