<svg xmlns="http://www.w3.org/2000/svg" width="58.666" height="41.76" viewBox="0 0 58.666 41.76">
  <g id="queue" transform="translate(-0.5 -74.127)">
    <path id="Path_33774" data-name="Path 33774" d="M72.176,111.321a.574.574,0,0,0,.574.574h3.87a.959.959,0,0,1,0,1.917h-3.87a.574.574,0,0,0-.574.574v3.87a.959.959,0,1,1-1.917,0v-3.87a.573.573,0,0,0-.574-.574h-3.87a.959.959,0,1,1,0-1.917h3.87a.574.574,0,0,0,.574-.574v-3.87a.959.959,0,1,1,1.917,0Zm-.959-9.683a11.215,11.215,0,1,0,11.215,11.215A11.228,11.228,0,0,0,71.218,101.638Zm16.026-8.255a3.015,3.015,0,1,1-3.015-3.016A3.019,3.019,0,0,1,87.244,93.382Zm3.955,8.776a3.984,3.984,0,1,1-3.984,3.982,3.988,3.988,0,0,1,3.984-3.982Zm-6.929,10.7A13.052,13.052,0,1,0,71.218,125.9,13.066,13.066,0,0,0,84.27,112.853ZM71.218,93.159a3.015,3.015,0,1,1,3.015-3.015A3.017,3.017,0,0,1,71.218,93.159ZM58.207,96.4a3.015,3.015,0,1,1,3.016-3.015A3.019,3.019,0,0,1,58.207,96.4Zm-2.986,9.743a3.984,3.984,0,1,1-3.984-3.982A3.989,3.989,0,0,1,55.221,106.14Z" transform="translate(-41.385 -11.51)" fill="#d4d7da" fill-rule="evenodd"/>
    <path id="Path_33775" data-name="Path 33775" d="M35.236,101.957h-3.87a.918.918,0,0,0-.919.918v3.87a.614.614,0,1,1-1.229,0v-3.87a.918.918,0,0,0-.918-.918H24.43a.614.614,0,0,1,0-1.229H28.3a.919.919,0,0,0,.918-.918V95.94a.614.614,0,1,1,1.229,0v3.87a.919.919,0,0,0,.919.918h3.87a.614.614,0,0,1,0,1.229Zm0-3.065H32.285V95.94a2.451,2.451,0,1,0-4.9,0v2.952H24.43a2.451,2.451,0,1,0,0,4.9h2.952v2.952a2.451,2.451,0,0,0,4.9,0v-2.952h2.952a2.451,2.451,0,0,0,0-4.9Zm-5.4,12.173a9.722,9.722,0,1,0-9.723-9.722,9.733,9.733,0,0,0,9.723,9.722Zm0-21.282a11.559,11.559,0,1,0,11.56,11.56A11.573,11.573,0,0,0,29.833,89.783ZM43.354,106.7a14.435,14.435,0,0,0,.977-4.2,7.5,7.5,0,0,1,12.942,4.2H43.354ZM29.833,114.05a12.707,12.707,0,1,0-12.708-12.707A12.722,12.722,0,0,0,29.833,114.05ZM2.394,106.7a7.5,7.5,0,0,1,12.942-4.2,14.425,14.425,0,0,0,.977,4.2H2.394ZM9.852,90.992a3.639,3.639,0,1,1-3.64,3.638A3.643,3.643,0,0,1,9.852,90.992Zm5.494,9.074a9.413,9.413,0,0,0-2.09-1.15,5.468,5.468,0,0,0,1.831-5.9h2.826A14.44,14.44,0,0,0,15.346,100.066Zm1.476-13.687a5.711,5.711,0,0,1,4.952,2.862,14.616,14.616,0,0,0-2.337,1.943H14.1a5.5,5.5,0,0,0-2.365-1.695A5.789,5.789,0,0,1,16.822,86.379Zm-2.67-4.507a2.671,2.671,0,1,1,2.67,2.67A2.675,2.675,0,0,1,14.152,81.872Zm15.681,1.27a5.732,5.732,0,0,1,5.647,4.8,14.542,14.542,0,0,0-11.295,0A5.732,5.732,0,0,1,29.833,83.142Zm-2.67-4.507a2.67,2.67,0,1,1,2.67,2.67A2.673,2.673,0,0,1,27.163,78.635Zm15.681,7.745a5.788,5.788,0,0,1,5.084,3.11,5.5,5.5,0,0,0-2.365,1.695H40.23a14.555,14.555,0,0,0-2.338-1.942A5.711,5.711,0,0,1,42.844,86.379Zm-2.672-4.507a2.671,2.671,0,1,1,2.672,2.67A2.675,2.675,0,0,1,40.173,81.872Zm4.148,18.194a14.444,14.444,0,0,0-2.567-7.046H44.58a5.465,5.465,0,0,0,1.831,5.9,9.4,9.4,0,0,0-2.091,1.15Zm9.133-5.436a3.639,3.639,0,1,0-3.64,3.641A3.643,3.643,0,0,0,53.454,94.63Zm-.233,4.285a5.473,5.473,0,0,0-3.407-9.759H49.8a7.54,7.54,0,0,0-3.9-3.972,4.508,4.508,0,1,0-6.106,0,7.553,7.553,0,0,0-2.61,1.908,7.589,7.589,0,0,0-4.3-5.145,4.507,4.507,0,1,0-6.1,0,7.591,7.591,0,0,0-4.3,5.145,7.548,7.548,0,0,0-2.61-1.908,4.508,4.508,0,1,0-6.105,0,7.533,7.533,0,0,0-3.9,3.972H9.852a5.472,5.472,0,0,0-3.406,9.759A9.366,9.366,0,0,0,.5,107.621a.918.918,0,0,0,.919.919H17.2a14.537,14.537,0,0,0,25.269,0h15.78a.918.918,0,0,0,.918-.919,9.366,9.366,0,0,0-5.946-8.707Z" fill="#b3b4b6" fill-rule="evenodd"/>
  </g>
</svg>
