<svg xmlns="http://www.w3.org/2000/svg" width="45.666" height="48.059" viewBox="0 0 45.666 48.059">
  <g id="job-vacancy" transform="translate(-13.689 -0.994)">
    <path id="Path_33762" data-name="Path 33762" d="M47.329,34.591a2.8,2.8,0,1,1-2.805,2.8A2.807,2.807,0,0,1,47.329,34.591Zm-8.722,4.04a8.721,8.721,0,1,0,8.722-8.721A8.731,8.731,0,0,0,38.607,38.631ZM34.8,30.775v-5.3a.37.37,0,0,1,.371-.371H59.487a.37.37,0,0,1,.37.371v5.3a.37.37,0,0,1-.37.371H56.293l.447.61a11.624,11.624,0,0,1,1.886,3.986l.074.289h6.064a4.277,4.277,0,0,0,4.273-4.271V21.815a1.593,1.593,0,0,0-1.591-1.592H27.212a1.593,1.593,0,0,0-1.592,1.592v9.943a4.277,4.277,0,0,0,4.273,4.273h6.064l.074-.289a11.624,11.624,0,0,1,1.887-3.986l.447-.61H35.171a.371.371,0,0,1-.371-.371Zm12.529-3.064a10.92,10.92,0,1,0,10.92,10.92A10.932,10.932,0,0,0,47.329,27.711Zm-9,22.765-1.648,1.648-2.848-2.848,1.648-1.648ZM36.16,52.647,33.312,49.8l-5.5,5.5a2.014,2.014,0,0,0,2.848,2.848Zm4.425-37.589a.42.42,0,0,0-.409.409v4.016H38.038V15.467a2.55,2.55,0,0,1,2.547-2.547H54.073a2.549,2.549,0,0,1,2.546,2.547v4.016H54.482V15.467a.42.42,0,0,0-.409-.409Z" transform="translate(-10.807 -10.802)" fill="#d4d7da" fill-rule="evenodd"/>
    <path id="Path_33763" data-name="Path 33763" d="M57.085,39.748a2.571,2.571,0,0,1-1.828.761H28.279l.16-.16a.957.957,0,0,0,0-1.352l-.057-.057L29.625,37.7a12.039,12.039,0,0,0,18.94-9.869,12.155,12.155,0,0,0-.09-1.476h5.482a5.377,5.377,0,0,0,3.889-1.661V37.919a2.567,2.567,0,0,1-.762,1.828Zm-37.5,7.322a1.63,1.63,0,0,1-2.306-2.306l5.224-5.224,2.3,2.306Zm-1.8-6.56H19.4l4.6-4.6a.956.956,0,0,1,1.352,0l.057.056,1.244-1.244a12.024,12.024,0,0,1-2.085-8.373H19.086a5.381,5.381,0,0,1-3.889-1.66V37.919a2.6,2.6,0,0,0,2.589,2.59Zm27.149-21.29a12.022,12.022,0,0,0-16.827,0H25.118V15.43H47.926v3.788Zm-18.95,8.61A10.536,10.536,0,1,0,36.522,17.292,10.547,10.547,0,0,0,25.986,27.828Zm.49,9.206.84.841,1.124-1.124q-.441-.4-.84-.84Zm.507,2.639-2.306-2.306-1.105,1.105,2.306,2.306ZM15.2,11.013v9.943a3.893,3.893,0,0,0,3.889,3.889h5.766A12,12,0,0,1,26.8,20.727H24.364a.754.754,0,0,1-.754-.754v-5.3a.754.754,0,0,1,.754-.754H48.68a.754.754,0,0,1,.754.754v5.3a.754.754,0,0,1-.754.754H46.243a12,12,0,0,1,1.948,4.118h5.766a3.893,3.893,0,0,0,3.889-3.887V11.013A1.209,1.209,0,0,0,56.639,9.8H16.4A1.21,1.21,0,0,0,15.2,11.013ZM42.551,8.3H30.493V5.38H42.551V8.3ZM27.615,4.665V8.3h1.371V4.665a.8.8,0,0,1,.793-.792H43.266a.8.8,0,0,1,.792.792V8.3h1.37V4.665A2.165,2.165,0,0,0,43.266,2.5H29.778A2.166,2.166,0,0,0,27.615,4.665Zm31.74,6.348A2.719,2.719,0,0,0,56.639,8.3h-9.7V4.665A3.675,3.675,0,0,0,43.266.994H29.778a3.675,3.675,0,0,0-3.671,3.671V8.3H16.4a2.719,2.719,0,0,0-2.716,2.716V37.919a4.108,4.108,0,0,0,4.1,4.1H17.9L16.216,43.7a3.138,3.138,0,0,0,4.437,4.437l6.118-6.118H55.257a4.108,4.108,0,0,0,4.1-4.1ZM31.769,33.748a7.575,7.575,0,0,0,9.508,0,5.116,5.116,0,0,0-9.508,0ZM34.1,26.593a2.421,2.421,0,1,0,2.422-2.421A2.424,2.424,0,0,0,34.1,26.593Zm-5.176,1.235a7.562,7.562,0,0,0,1.705,4.79,6.712,6.712,0,0,1,3.307-3.07,3.929,3.929,0,1,1,5.17,0,6.7,6.7,0,0,1,3.307,3.07,7.6,7.6,0,1,0-13.489-4.79Zm16.7,0a9.105,9.105,0,1,0-9.1,9.1A9.115,9.115,0,0,0,45.627,27.828Z" transform="translate(0)" fill="#b3b4b6" fill-rule="evenodd"/>
  </g>
</svg>
