<svg xmlns="http://www.w3.org/2000/svg" width="38.633" height="52.16" viewBox="0 0 38.633 52.16">
  <g id="idea" transform="translate(-67.13 -0.999)">
    <path id="Path_33778" data-name="Path 33778" d="M95.267,289.109a1.153,1.153,0,0,1-1.152-1.152v-1.322h8.133v1.322a1.153,1.153,0,0,1-1.151,1.152Zm5.522.613v.748a1.847,1.847,0,0,1-1.845,1.845H97.418a1.846,1.846,0,0,1-1.844-1.845v-.748ZM83.863,307.76l-2.826.756L77.55,295.5l2.825-.757Z" transform="translate(-9.354 -256.423)" fill="#d4d7da" fill-rule="evenodd"/>
    <path id="Path_33779" data-name="Path 33779" d="M102.207,40.8,88.3,48.833a3.954,3.954,0,0,1-2.99.382L79.749,47.94a5.949,5.949,0,0,0-4.771.8l-2.3-8.573,2.941-2.251a3.719,3.719,0,0,1,2.833-.776l9.654,2.626a2.064,2.064,0,1,1-1.084,3.983L81.838,42.34a.818.818,0,0,0-.429,1.579l5.186,1.411A3.7,3.7,0,0,0,91,43.149l9.425-5.442a1.8,1.8,0,0,1,2.441.655,1.789,1.789,0,0,1-.655,2.441ZM72.045,51.467l1.838-.492L70.66,38.948l-1.837.492ZM102.2,35.951a3.4,3.4,0,0,0-2.6.34l-8.391,4.844a3.7,3.7,0,0,0-2.673-2.945l-9.71-2.642a.949.949,0,0,0-.107-.022,5.357,5.357,0,0,0-4.1,1.094l-2.4,1.84-.045-.171a1.4,1.4,0,0,0-1.7-.985l-2.311.62a1.394,1.394,0,0,0-.985,1.7l3.35,12.5a1.394,1.394,0,0,0,1.7.985l2.31-.62a1.393,1.393,0,0,0,.984-1.705l-.1-.372a4.447,4.447,0,0,1,3.956-.88l5.562,1.275a6.5,6.5,0,0,0,1.445.17,5.38,5.38,0,0,0,2.729-.73l13.907-8.03a3.42,3.42,0,0,0-.826-6.269ZM94.781,5.945l1.376-2.383a.818.818,0,1,1,1.417.818L96.2,6.763a.818.818,0,1,1-1.416-.818ZM78,24.147a.818.818,0,0,1-.3,1.118L75.313,26.64a.818.818,0,0,1-.818-1.416l2.383-1.377a.819.819,0,0,1,1.118.3Zm-6.064-6.253a.819.819,0,0,1,.818-.818H75.5a.818.818,0,1,1,0,1.636H72.75A.818.818,0,0,1,71.932,17.894ZM74.2,9.447a.818.818,0,0,1,1.118-.3L77.7,10.523a.818.818,0,1,1-.818,1.417L74.5,10.564A.818.818,0,0,1,74.2,9.447ZM80.08,4.38A.818.818,0,0,1,81.5,3.562l1.376,2.383a.818.818,0,1,1-1.418.818Zm7.929.188V1.818a.818.818,0,1,1,1.636,0V4.569a.818.818,0,1,1-1.636,0Zm11.65,19.578a.819.819,0,0,1,1.117-.3l2.383,1.377a.818.818,0,1,1-.818,1.416l-2.383-1.375a.819.819,0,0,1-.3-1.118Zm6.1-6.241a.818.818,0,0,1-.818.818h-2.751a.818.818,0,0,1,0-1.637h2.751A.818.818,0,0,1,105.763,17.906Zm-6.1-6.265a.819.819,0,0,1,.3-1.118l2.383-1.375a.818.818,0,1,1,.819,1.416l-2.383,1.376a.81.81,0,0,1-.408.11.818.818,0,0,1-.709-.409Zm-8.789,8.712V18.508a1.127,1.127,0,0,1,2.254,0C93.123,19.2,92.235,19.958,90.869,20.353ZM83.822,26.4a2.907,2.907,0,0,1,1.45,2.552v.139h1.514V22.045c-2.292-.517-3.891-1.886-3.891-3.537a2.763,2.763,0,0,1,5.527,0v2.111c.266.014.545.014.811,0V18.508a2.763,2.763,0,1,1,5.527,0c0,1.651-1.6,3.02-3.89,3.537v7.042h1.513v-.139a2.909,2.909,0,0,1,1.45-2.552,9.792,9.792,0,1,0-10.009,0Zm5.767,8.985H88.064a1.334,1.334,0,0,1-1.333-1.334v-.236h4.192v.236a1.335,1.335,0,0,1-1.334,1.334Zm-.357-6.294h-.811V22.258c.267.011.543.011.811,0Zm-2.447-8.734c-1.368-.395-2.254-1.149-2.254-1.844a1.127,1.127,0,0,1,2.254,0ZM85.272,30.723h7.11v.811a.641.641,0,0,1-.64.64H85.913a.641.641,0,0,1-.641-.64Zm2.792,6.293H89.59a2.973,2.973,0,0,0,2.97-2.97v-.388a2.28,2.28,0,0,0,1.458-2.124V28.948a1.287,1.287,0,0,1,.651-1.146,11.429,11.429,0,1,0-11.684,0,1.288,1.288,0,0,1,.65,1.146v2.586a2.28,2.28,0,0,0,1.46,2.124v.388A2.972,2.972,0,0,0,88.064,37.017Z" fill="#b3b4b6" fill-rule="evenodd"/>
  </g>
</svg>
