<svg xmlns="http://www.w3.org/2000/svg" width="39.321" height="42.583" viewBox="0 0 39.321 42.583">
  <g id="document_2_" data-name="document (2)" transform="translate(-20.532 -0.999)">
    <path id="Path_33764" data-name="Path 33764" d="M69.179,44.406a4.131,4.131,0,0,1-4.126,4.127h0a4.127,4.127,0,1,1,4.128-4.127Zm-3.031-4.5a4.65,4.65,0,0,0-1.1-.132,4.589,4.589,0,0,0-1.481.245l-.552.188V20.033H65.2a1.461,1.461,0,0,1,1.459,1.459V40.035ZM57.79,52.765a8.273,8.273,0,0,0-.963,2.674l-.06.346H41.021a1.461,1.461,0,0,1-1.459-1.459V52.14H58.146ZM48.723,24.449V20.419h9.73v4.031Zm-6.236-.2H35.77l8.01-8.01v6.717A1.294,1.294,0,0,1,42.486,24.251Z" transform="translate(-13.966 -13.969)" fill="#d4d7da" fill-rule="evenodd"/>
    <path id="Path_33765" data-name="Path 33765" d="M43.684,42.247a7.442,7.442,0,0,1,7.4-6.764h0a7.442,7.442,0,0,1,7.4,6.764ZM27.055,41.4a1.043,1.043,0,0,1-1.042-1.042V38.589H43.462A8.684,8.684,0,0,0,42.45,41.4ZM21.868,36.21a1.043,1.043,0,0,0,1.042,1.042H44.4a8.805,8.805,0,0,1,3.738-2.594v-.133a5.038,5.038,0,0,1,0-8.177V3.377a1.043,1.043,0,0,0-1.042-1.042H30.774l-.041,0V8.989A2.214,2.214,0,0,1,28.521,11.2H21.869c0,.013,0,.026,0,.04V36.21ZM29.4,3.28V8.989a.876.876,0,0,1-.876.875H22.812Zm21.841,3.2A1.043,1.043,0,0,1,52.28,7.523V25.535a5.06,5.06,0,0,0-1.194-.144,5,5,0,0,0-1.616.267V6.481ZM54.8,30.437a3.714,3.714,0,0,1-3.709,3.71h0a3.71,3.71,0,1,1,3.71-3.71Zm-.883,4.177a5.042,5.042,0,0,0-.3-8.54V7.523a2.38,2.38,0,0,0-2.378-2.378H49.47V3.377A2.381,2.381,0,0,0,47.092,1H30.774a2.332,2.332,0,0,0-1.682.7L21.228,9.559a2.329,2.329,0,0,0-.7,1.681V36.21a2.381,2.381,0,0,0,2.378,2.378h1.768v1.767a2.381,2.381,0,0,0,2.378,2.378H42.32c0,.06,0,.12,0,.18a.668.668,0,0,0,.668.668h16.2a.668.668,0,0,0,.668-.668,8.784,8.784,0,0,0-5.941-8.3ZM24.6,15.262a.668.668,0,0,1,.668-.668H44.738a.668.668,0,1,1,0,1.336H25.264A.668.668,0,0,1,24.6,15.262Zm0,4.532a.668.668,0,0,1,.668-.668H44.738a.668.668,0,0,1,0,1.336H25.264A.668.668,0,0,1,24.6,19.793Zm0,9.063a.668.668,0,0,1,.668-.668H44.738a.668.668,0,1,1,0,1.336H25.264A.668.668,0,0,1,24.6,28.857Zm.668,5.2a.668.668,0,0,1,0-1.336H44.738a.668.668,0,0,1,0,1.336ZM24.6,24.325a.668.668,0,0,1,.668-.668H44.738a.668.668,0,0,1,0,1.336H25.264A.668.668,0,0,1,24.6,24.325ZM35.175,6.867h8.895v3.2H35.175ZM34.507,11.4a.668.668,0,0,1-.668-.668V6.2a.668.668,0,0,1,.668-.668H44.738a.669.669,0,0,1,.668.668V10.73a.668.668,0,0,1-.668.668Z" fill="#b3b4b6" fill-rule="evenodd"/>
  </g>
</svg>
