<svg xmlns="http://www.w3.org/2000/svg" width="45.666" height="45.928" viewBox="0 0 45.666 45.928">
  <g id="calendar_5_" data-name="calendar (5)" transform="translate(-2.455 -1.002)">
    <path id="Path_33768" data-name="Path 33768" d="M29.991,18.946a2.936,2.936,0,1,0,2.936-2.936,2.94,2.94,0,0,0-2.936,2.936Zm-14.339,3.6,17.275-9.033L50.2,22.547l-.482,1.062H16.135Zm4.291,4.16h3.286L23.862,42.3H19.31Zm7.561,0H30.79l.28,6.9-.064.1a1.252,1.252,0,0,0-.21.7v7.9H26.872Zm7.56,0h3.287l.26,6.431H36.587V31.861a.927.927,0,0,0-.925-.925h-.77Zm7.561,0h3.287l.261,6.431H43.394V31.861a.925.925,0,0,0-.667-.887l-.271-.079ZM30.8,45.352v1.521H15.678l.487-1.521ZM34.111,41.3h2.334v2.334H34.111Zm-2.595-3.594V34.4a.545.545,0,0,1,.542-.542h1.5v1.276a.927.927,0,0,0,.925.925h1.184a.926.926,0,0,0,.925-.925V33.859h3.775v1.276a.926.926,0,0,0,.925.925H42.47a.926.926,0,0,0,.925-.925V33.859h3.775v1.276a.927.927,0,0,0,.926.925h1.183a.926.926,0,0,0,.925-.925V33.859h3.775v1.276a.926.926,0,0,0,.925.925h1.182a.927.927,0,0,0,.925-.925V33.859h1.5a.545.545,0,0,1,.542.542v3.308ZM41.447,41.3v2.334H39.113V41.3Zm2.667,0h2.334v2.334H44.115Zm5,0h2.334v2.334H49.117Zm5,0h2.334v2.334H54.12Zm2.334,5.362V49H54.12V46.665Zm0,5.363v2.334H54.12V52.027ZM49.117,49V46.665h2.334V49Zm2.334,3.028v2.334H49.117V52.027ZM44.115,49V46.665h2.334V49Zm2.334,3.028v2.334H44.115V52.027Zm-5-3.028H39.113V46.665h2.334V49Zm0,3.028v2.334H39.113V52.027Zm-5-3.028H34.111V46.665h2.334Zm0,3.028v2.334H34.111V52.027Z" transform="translate(-12.008 -11.385)" fill="#d4d7da" fill-rule="evenodd"/>
    <path id="Path_33769" data-name="Path 33769" d="M39.083,42.616H37.469V41h1.614Zm.72-3.055H36.749a.72.72,0,0,0-.72.721v3.055a.72.72,0,0,0,.72.72H39.8a.72.72,0,0,0,.72-.72V40.282A.72.72,0,0,0,39.8,39.561Zm-5.723,3.055H32.467V41h1.614Zm.72-3.055H31.746a.721.721,0,0,0-.72.721v3.055a.721.721,0,0,0,.72.72H34.8a.72.72,0,0,0,.72-.72V40.282A.72.72,0,0,0,34.8,39.561Zm-5.722,3.055H27.465V41h1.614Zm.72-3.055H26.745a.72.72,0,0,0-.72.721v3.055a.72.72,0,0,0,.72.72H29.8a.72.72,0,0,0,.72-.72V40.282A.72.72,0,0,0,29.8,39.561Zm-5.723,3.055H22.463V41h1.614Zm.72-3.055H21.742a.72.72,0,0,0-.72.721v3.055a.72.72,0,0,0,.72.72H24.8a.72.72,0,0,0,.72-.72V40.282a.72.72,0,0,0-.72-.721Zm14.286-2.308H37.469V35.639h1.614ZM39.8,34.2H36.749a.721.721,0,0,0-.72.72v3.055a.72.72,0,0,0,.72.72H39.8a.72.72,0,0,0,.72-.72V34.919A.721.721,0,0,0,39.8,34.2Zm-5.723,3.055H32.467V35.639h1.614ZM34.8,34.2H31.746a.721.721,0,0,0-.72.72v3.055a.721.721,0,0,0,.72.72H34.8a.72.72,0,0,0,.72-.72V34.919A.721.721,0,0,0,34.8,34.2Zm-5.722,3.055H27.465V35.639h1.614ZM29.8,34.2H26.745a.721.721,0,0,0-.72.72v3.055a.72.72,0,0,0,.72.72H29.8a.72.72,0,0,0,.72-.72V34.919A.721.721,0,0,0,29.8,34.2Zm-5.723,3.055H22.463V35.639h1.614ZM24.8,34.2H21.742a.721.721,0,0,0-.72.72v3.055a.72.72,0,0,0,.72.72H24.8a.72.72,0,0,0,.72-.72V34.919a.721.721,0,0,0-.72-.72Zm19.289-2.307H42.472V30.277h1.614Zm.72-3.055H41.751a.72.72,0,0,0-.72.721v3.055a.721.721,0,0,0,.72.72h3.055a.721.721,0,0,0,.72-.72V29.557a.72.72,0,0,0-.72-.721Zm-.72,8.417H42.472V35.639h1.614Zm.72-3.055H41.751a.721.721,0,0,0-.72.72v3.055a.72.72,0,0,0,.72.72h3.055a.72.72,0,0,0,.72-.72V34.919A.721.721,0,0,0,44.806,34.2Zm-5.723-2.307H37.469V30.277h1.614Zm.72-3.055H36.749a.72.72,0,0,0-.72.721v3.055a.721.721,0,0,0,.72.72H39.8a.721.721,0,0,0,.72-.72V29.557a.72.72,0,0,0-.72-.721Zm-5.723,3.055H32.467V30.277h1.614Zm.72-3.055H31.746a.721.721,0,0,0-.72.721v3.055a.721.721,0,0,0,.72.72H34.8a.721.721,0,0,0,.72-.72V29.557a.72.72,0,0,0-.72-.721Zm-5.722,3.055H27.465V30.277h1.614Zm.72-3.055H26.745a.72.72,0,0,0-.72.721v3.055a.721.721,0,0,0,.72.72H29.8a.721.721,0,0,0,.72-.72V29.557a.72.72,0,0,0-.72-.721ZM44.086,42.616H42.472V41h1.614Zm.72-3.055H41.751a.72.72,0,0,0-.72.721v3.055a.72.72,0,0,0,.72.72h3.055a.72.72,0,0,0,.72-.72V40.282A.72.72,0,0,0,44.806,39.561Zm-20.73-7.67H22.463V30.277h1.614Zm.72-3.055H21.742a.72.72,0,0,0-.72.721v3.055a.721.721,0,0,0,.72.72H24.8a.721.721,0,0,0,.72-.72V29.557a.72.72,0,0,0-.72-.721ZM46.5,45.489a.185.185,0,0,0,.182-.182V27.4H19.868v17.9a.185.185,0,0,0,.182.182H46.5ZM4.163,35.127l.257-.8H18.427v.8ZM6.472,32H18.427v.888H6.1ZM8.281,15.682h2.594l.6,14.874h-3.8ZM6.415,13.3H35.424l-.409.937H6.823Zm-2.3-1.981L20.919,2.535l16.807,8.788-.245.54H4.359ZM33.79,21.393H31.746v-.917a1.285,1.285,0,0,0-.927-1.233l.144-3.561h2.6ZM21.811,19.376a1.282,1.282,0,0,0-.625,1.1v.917H20.109l-.231-5.71H21.96Zm.816,1.255H23.5v2.962h-.872ZM26,15.682H23.4l-.142,3.509h.395a1.287,1.287,0,0,1,1.285,1.285v.917h1.289Zm3.381,3.509h-.1a1.287,1.287,0,0,0-1.285,1.285v.917h-.323l-.231-5.71h2.082Zm.927,1.441h-.871v2.962h.871ZM15.842,15.682h2.595l.261,6.439a1.612,1.612,0,0,0-.27.894v7.541H15.238ZM12.92,30.557l-.6-14.874H14.4l-.6,14.874ZM37.27,25.034H36.087A1.287,1.287,0,0,1,34.8,23.749v-.916H31.746v.916a1.286,1.286,0,0,1-1.285,1.285H29.279a1.286,1.286,0,0,1-1.285-1.285v-.916H24.939v.916a1.286,1.286,0,0,1-1.285,1.285H22.47a1.287,1.287,0,0,1-1.285-1.285v-.916H20.05a.184.184,0,0,0-.182.182v2.947H46.68V23.015a.184.184,0,0,0-.182-.182H45.362v.916a1.287,1.287,0,0,1-1.286,1.285H42.894a1.286,1.286,0,0,1-1.285-1.285v-.916H38.554v.916A1.286,1.286,0,0,1,37.27,25.034Zm-1.028-4.4h.872v2.962h-.872Zm6.808,0h.872v2.962H43.05Zm3.448.761H45.363v-.917a1.288,1.288,0,0,0-1.286-1.285H42.894a1.287,1.287,0,0,0-1.285,1.285v.917H38.554v-.917a1.287,1.287,0,0,0-1.285-1.285H36.087a1.281,1.281,0,0,0-.928.4L35,15.682h.487a.719.719,0,0,0,.66-.432L37,13.3h.948a.72.72,0,0,0,.656-.422l.719-1.584A.721.721,0,0,0,39,10.362L21.253,1.083a.724.724,0,0,0-.667,0L2.842,10.362a.72.72,0,0,0-.322.936l.719,1.584a.718.718,0,0,0,.655.422h.949l.847,1.946a.72.72,0,0,0,.661.432h.486l-.6,14.874H5.992A.72.72,0,0,0,5.327,31l-.785,1.885H3.894a.721.721,0,0,0-.686.5L2.49,35.628a.719.719,0,0,0,.685.94H18.427v8.739a1.624,1.624,0,0,0,1.623,1.623H46.5a1.625,1.625,0,0,0,1.623-1.623V23.015A1.624,1.624,0,0,0,46.5,21.393ZM20.919,5.7A1.855,1.855,0,1,0,22.774,7.56,1.857,1.857,0,0,0,20.919,5.7Zm0,5.151a3.3,3.3,0,1,0-3.3-3.3A3.3,3.3,0,0,0,20.919,10.856Z" fill="#b3b4b6" fill-rule="evenodd"/>
  </g>
</svg>
