<svg xmlns="http://www.w3.org/2000/svg" width="43.665" height="53.711" viewBox="0 0 43.665 53.711">
  <g id="customer-loyalty" transform="translate(-48.69 -0.999)">
    <path id="Path_33772" data-name="Path 33772" d="M86.916,40.317a2.053,2.053,0,1,1,2.053-2.052A2.055,2.055,0,0,1,86.916,40.317Zm-15.029-.872,1.031,1.7-1.936-.455a.421.421,0,0,0-.415.135l-1.3,1.506L69.1,40.35A.421.421,0,0,0,68.846,40l-1.834-.769,1.834-.772A.422.422,0,0,0,69.1,38.1l.165-1.981,1.3,1.5a.421.421,0,0,0,.415.136l1.937-.455-1.032,1.7A.422.422,0,0,0,71.887,39.445Zm31.378-1.818,1.3-1.5.166,1.981a.421.421,0,0,0,.257.353l1.83.771-1.83.77a.421.421,0,0,0-.257.353l-.166,1.982-1.3-1.507a.422.422,0,0,0-.415-.135l-1.935.455,1.029-1.7a.422.422,0,0,0,0-.437l-1.031-1.7,1.936.455A.422.422,0,0,0,103.265,37.627Zm-6.118-10.7a.42.42,0,0,0,.2-.388L97.2,24.553l1.517,1.285a.421.421,0,0,0,.431.068l1.84-.752-.75,1.841a.422.422,0,0,0,.069.432l1.283,1.517L99.607,28.8a.421.421,0,0,0-.389.2l-1.046,1.687L97.7,28.756a.422.422,0,0,0-.308-.31l-1.932-.474ZM85.316,22.878l-1.505-1.3,1.98-.168a.42.42,0,0,0,.353-.256l.771-1.832.77,1.833a.42.42,0,0,0,.353.256l1.98.168-1.5,1.3a.421.421,0,0,0-.135.415l.454,1.936-1.7-1.031a.422.422,0,0,0-.436,0L85,25.23l.455-1.936a.422.422,0,0,0-.135-.415ZM74.239,28.8h-.005l-1.991.145,1.282-1.517a.423.423,0,0,0,.068-.432l-.75-1.841,1.84.753a.422.422,0,0,0,.432-.069l1.519-1.282-.146,1.983a.421.421,0,0,0,.2.388l1.69,1.047-1.93.475a.421.421,0,0,0-.309.308l-.474,1.928L74.613,29a.422.422,0,0,0-.357-.2ZM86.916,46.156a6.929,6.929,0,1,0-6.929-6.929A6.937,6.937,0,0,0,86.916,46.156Zm8.353-2.308A2.416,2.416,0,0,0,96.39,40.4a2.023,2.023,0,0,1,0-2.342A2.417,2.417,0,0,0,95.268,34.6a2.022,2.022,0,0,1-1.376-1.894,2.419,2.419,0,0,0-2.936-2.133,2.028,2.028,0,0,1-2.226-.723,2.417,2.417,0,0,0-3.629,0,2.029,2.029,0,0,1-2.226.723,2.419,2.419,0,0,0-2.936,2.132A2.023,2.023,0,0,1,78.562,34.6a2.42,2.42,0,0,0-1.121,3.451,2.026,2.026,0,0,1,0,2.342,2.417,2.417,0,0,0,1.121,3.45,2.024,2.024,0,0,1,1.377,1.895,2.419,2.419,0,0,0,2.936,2.133,2.1,2.1,0,0,1,.607-.092,2.022,2.022,0,0,1,1.62.815,2.42,2.42,0,0,0,3.629,0,2.027,2.027,0,0,1,2.226-.723,2.419,2.419,0,0,0,2.936-2.134A2.022,2.022,0,0,1,95.269,43.848ZM73.008,69.3l-2.085.558L68.049,59.133l2.085-.558Z" transform="translate(-16.392 -16.395)" fill="#d4d7da" fill-rule="evenodd"/>
    <path id="Path_33773" data-name="Path 33773" d="M88.431,23.214a.841.841,0,0,0-.514.706l-.082.982-.643-.747a.844.844,0,0,0-.638-.292.854.854,0,0,0-.193.022l-.96.225.511-.844a.843.843,0,0,0,0-.873l-.511-.842.96.225a.846.846,0,0,0,.831-.271l.643-.746.082.982a.841.841,0,0,0,.514.706l.908.383Zm3.409-1.159-2.287-.961-.208-2.471a.842.842,0,0,0-1.477-.48l-1.62,1.877-2.413-.566a.842.842,0,0,0-.913,1.256l1.284,2.121-1.284,2.121a.842.842,0,0,0,.913,1.256l2.413-.566,1.62,1.878a.846.846,0,0,0,.638.292.831.831,0,0,0,.26-.041.842.842,0,0,0,.579-.731l.208-2.471,2.287-.962a.843.843,0,0,0,0-1.553ZM80.976,10.887a.839.839,0,0,0,.4-.777L81.3,9.127l.752.637a.843.843,0,0,0,.862.136l.912-.373-.372.913a.841.841,0,0,0,.137.863l.636.752-.984-.072a.84.84,0,0,0-.777.4l-.519.837-.236-.956a.844.844,0,0,0-.617-.618l-.958-.235Zm-3.186,1.678,2.408.592.592,2.408a.843.843,0,0,0,.685.632.921.921,0,0,0,.133.009.842.842,0,0,0,.716-.4L83.63,13.7l2.473.181a.843.843,0,0,0,.706-1.384l-1.6-1.893.937-2.3a.842.842,0,0,0-1.1-1.1l-2.3.937-1.894-1.6a.843.843,0,0,0-1.385.706l.182,2.473-2.108,1.306a.842.842,0,0,0,.243,1.534ZM52.616,22.45a.844.844,0,0,0,.513-.706l.082-.982.644.746a.842.842,0,0,0,.83.271l.96-.225-.511.842a.845.845,0,0,0,0,.873l.511.844-.96-.225a.842.842,0,0,0-.83.27l-.644.747-.082-.982a.846.846,0,0,0-.513-.707l-.909-.381ZM51.7,27.04a.843.843,0,0,0,1.478.48l1.62-1.878,2.414.566a.842.842,0,0,0,.913-1.256L56.84,22.833l1.284-2.121a.842.842,0,0,0-.913-1.256l-2.414.566-1.62-1.877a.843.843,0,0,0-1.478.48l-.207,2.471-2.286.961a.842.842,0,0,0,0,1.553l2.286.962Zm5.89-16.6-.372-.913.912.373a.842.842,0,0,0,.863-.137l.753-.636-.072.983a.84.84,0,0,0,.4.777l.838.52-.958.236a.841.841,0,0,0-.617.617l-.235.956-.52-.837a.842.842,0,0,0-.715-.4.527.527,0,0,0-.062,0l-.982.072.636-.752A.843.843,0,0,0,57.59,10.44Zm-2.648,3.442,2.473-.181,1.307,2.107a.841.841,0,0,0,.715.4.907.907,0,0,0,.133-.009.842.842,0,0,0,.685-.632l.592-2.408,2.409-.592a.842.842,0,0,0,.242-1.534L61.391,9.725l.182-2.473a.843.843,0,0,0-1.385-.706l-1.893,1.6L56,7.21a.842.842,0,0,0-1.1,1.1l.937,2.3-1.6,1.893a.842.842,0,0,0,.705,1.384ZM69.435,5.437a.84.84,0,0,0,.706-.513l.383-.909.382.909a.84.84,0,0,0,.706.513l.982.083-.747.644a.843.843,0,0,0-.27.831l.225.96-.842-.511a.843.843,0,0,0-.873,0l-.844.511.225-.96a.844.844,0,0,0-.27-.831l-.747-.644ZM67.712,7.107l-.567,2.414a.843.843,0,0,0,1.256.913L70.523,9.15l2.121,1.284A.842.842,0,0,0,73.9,9.521l-.565-2.414,1.876-1.621a.842.842,0,0,0-.48-1.477L72.261,3.8,71.3,1.516a.842.842,0,0,0-1.553,0L68.785,3.8l-2.471.207a.842.842,0,0,0-.48,1.477ZM80.221,43.957,68.429,50.765A3.172,3.172,0,0,1,66,51.073l-4.715-1.082a5.232,5.232,0,0,0-3.984.6l-1.872-6.984,2.413-1.848a3.017,3.017,0,0,1,2.283-.63L68.3,43.353a1.6,1.6,0,0,1-.84,3.091l-4.4-1.2a.842.842,0,0,0-.443,1.625l4.4,1.2A3.28,3.28,0,0,0,70.9,46.18l7.949-4.59a1.366,1.366,0,0,1,1.367,2.367ZM54.828,52.945,56.1,52.6,53.444,42.7l-1.272.34Zm25.5-13.115a3.031,3.031,0,0,0-2.315.3l-6.936,4a3.3,3.3,0,0,0-.345-.867,3.26,3.26,0,0,0-1.986-1.542l-8.23-2.24a.956.956,0,0,0-.112-.022,4.684,4.684,0,0,0-3.582.956l-1.863,1.427a1.33,1.33,0,0,0-1.606-.872l-1.959.524a1.333,1.333,0,0,0-.939,1.628l2.839,10.6a1.33,1.33,0,0,0,1.628.939l1.958-.524a1.33,1.33,0,0,0,.94-1.627L57.76,52.3a3.613,3.613,0,0,1,3.151-.661l4.715,1.081a5.62,5.62,0,0,0,1.26.148,4.7,4.7,0,0,0,2.387-.64l11.791-6.806a3.049,3.049,0,0,0-.737-5.587ZM67.131,27.366a3.73,3.73,0,0,1,6.786,0,5.654,5.654,0,0,1-6.786,0ZM70.523,23.5a1.631,1.631,0,1,1,1.632-1.631A1.634,1.634,0,0,1,70.523,23.5Zm0-6.334A5.66,5.66,0,0,0,65.9,26.1a5.5,5.5,0,0,1,2.168-2,3.317,3.317,0,1,1,4.909,0,5.5,5.5,0,0,1,2.167,2,5.66,5.66,0,0,0-4.622-8.934Zm7.35,5.665a7.35,7.35,0,1,1-7.35-7.35,7.359,7.359,0,0,1,7.35,7.35Zm-.221,11.261a.842.842,0,0,0-.941.543L75.752,37.3,73.29,33.035c.018-.023.037-.046.055-.069a.756.756,0,0,1,.851-.277,3.524,3.524,0,0,0,3.06-.59,3.8,3.8,0,0,0,1.062-1.176l2.117,3.668ZM70.523,32.6a1.837,1.837,0,0,1-1.479-.652,2.442,2.442,0,0,0-1.956-.982,2.514,2.514,0,0,0-.729.11,2,2,0,0,1-2.393-1.738,2.445,2.445,0,0,0-1.66-2.285,2,2,0,0,1-.913-2.811,2.447,2.447,0,0,0,0-2.824,2,2,0,0,1,.913-2.812,2.443,2.443,0,0,0,1.66-2.284,2,2,0,0,1,2.393-1.737,2.445,2.445,0,0,0,2.685-.872,2,2,0,0,1,2.957,0,2.444,2.444,0,0,0,2.685.872,2,2,0,0,1,2.393,1.737,2.443,2.443,0,0,0,1.66,2.284,2,2,0,0,1,.913,2.812,2.445,2.445,0,0,0,0,2.824,2,2,0,0,1-.913,2.811,2.445,2.445,0,0,0-1.66,2.285,2,2,0,0,1-2.393,1.738A2.442,2.442,0,0,0,72,31.95,1.837,1.837,0,0,1,70.523,32.6Zm-5.229,4.7,2.461-4.263-.055-.069a.756.756,0,0,0-.851-.277,3.524,3.524,0,0,1-3.06-.59,3.8,3.8,0,0,1-1.062-1.176L60.61,34.592l2.783-.5a.842.842,0,0,1,.942.543Zm13.739-8.505a.838.838,0,0,1,.256-.146,3.674,3.674,0,0,0,1.744-5.367.758.758,0,0,1,0-.9,3.676,3.676,0,0,0-1.744-5.369.753.753,0,0,1-.525-.723A3.677,3.677,0,0,0,74.2,12.974a.754.754,0,0,1-.851-.276,3.675,3.675,0,0,0-5.645,0,.756.756,0,0,1-.851.276,3.675,3.675,0,0,0-4.566,3.319.756.756,0,0,1-.527.723,3.676,3.676,0,0,0-1.744,5.369.758.758,0,0,1,0,.9,3.675,3.675,0,0,0,1.744,5.367.836.836,0,0,1,.256.146l-3.476,6.022a1.114,1.114,0,0,0,1.16,1.654l3.295-.591,1.135,3.149a1.105,1.105,0,0,0,.95.732c.034,0,.067,0,.1,0a1.1,1.1,0,0,0,.961-.557l2.99-5.178a3.872,3.872,0,0,0,2.789,0l2.99,5.178a1.1,1.1,0,0,0,.962.557c.034,0,.068,0,.1,0a1.106,1.106,0,0,0,.95-.732l1.136-3.149,3.294.591a1.114,1.114,0,0,0,1.161-1.654Z" fill="#b3b4b6" fill-rule="evenodd"/>
  </g>
</svg>
