<svg id="Page-1" xmlns="http://www.w3.org/2000/svg" width="36.095" height="25.267" viewBox="0 0 36.095 25.267">
  <g id="_019---Business-Card" data-name="019---Business-Card">
    <rect id="Rectangle-path" width="36" height="24" rx="4" fill="#e8edfc"/>
    <path id="Shape" d="M53.8,1H52a2.406,2.406,0,0,1,2.406,2.406V22.657A2.406,2.406,0,0,1,52,25.063h1.8a2.406,2.406,0,0,0,2.406-2.406V3.406A2.406,2.406,0,0,0,53.8,1Z" transform="translate(-20.718 -0.398)" fill="#cad9fc"/>
    <path id="Shape-2" data-name="Shape" d="M21.641,7.2V22.844a1.193,1.193,0,0,1-.018.211,5.736,5.736,0,0,0-.926-1.967,4.822,4.822,0,0,0-3.8-1.853h-.914a4.2,4.2,0,0,0,2.045-3.61v.6h.3a1.5,1.5,0,0,0,0-3.008h-.3v-.6a4.211,4.211,0,1,0-8.422,0v.6h-.3a1.5,1.5,0,0,0,0,3.008h.3v-.6a4.2,4.2,0,0,0,2.045,3.61H10.74a4.822,4.822,0,0,0-3.8,1.853,5.736,5.736,0,0,0-.926,1.967A1.193,1.193,0,0,1,6,22.844V7.2A1.207,1.207,0,0,1,7.2,6H20.438A1.207,1.207,0,0,1,21.641,7.2Z" transform="translate(-2.39 -2.39)" fill="#c6d8fb"/>
    <path id="Shape-3" data-name="Shape" d="M28.8,6H27a1.207,1.207,0,0,1,1.2,1.2V20.242a4.83,4.83,0,0,1,.86.846,5.736,5.736,0,0,1,.926,1.967,1.193,1.193,0,0,0,.018-.211V7.2A1.207,1.207,0,0,0,28.8,6Z" transform="translate(-10.757 -2.39)" fill="#a4c3fd"/>
    <path id="Shape-4" data-name="Shape" d="M13.833,30.406v2.406H7.215a1.213,1.213,0,0,1-1.185-.987V31.82a5.735,5.735,0,0,1,.926-1.967A4.822,4.822,0,0,1,10.752,28h.072v1.54a1.2,1.2,0,0,0,1.438,1.179Z" transform="translate(-2.402 -11.156)" fill="#e8edfc"/>
    <path id="Shape-5" data-name="Shape" d="M16.235,32.313a1.16,1.16,0,0,1-.235.02v2.074h1.8V32Z" transform="translate(-6.375 -12.749)" fill="#cad9fc"/>
    <path id="Shape-6" data-name="Shape" d="M26.8,31.82v.006a1.213,1.213,0,0,1-1.185.987H19V30.406l1.57.313a1.2,1.2,0,0,0,1.438-1.179V28h.072a4.822,4.822,0,0,1,3.8,1.853A5.736,5.736,0,0,1,26.8,31.82Z" transform="translate(-7.57 -11.156)" fill="#e8edfc"/>
    <path id="Shape-7" data-name="Shape" d="M27.868,29.853A4.822,4.822,0,0,0,24.072,28H24v.328a4.84,4.84,0,0,1,2.063,1.524,5.735,5.735,0,0,1,.926,1.967v.006a1.213,1.213,0,0,1-1.185.987h1.8a1.213,1.213,0,0,0,1.185-.987V31.82a5.735,5.735,0,0,0-.926-1.967Z" transform="translate(-9.562 -11.156)" fill="#cad9fc"/>
    <path id="Shape-8" data-name="Shape" d="M10.8,18v3.008h-.3A1.5,1.5,0,1,1,10.5,18Z" transform="translate(-3.586 -7.171)" fill="#cad9fc"/>
    <path id="Shape-9" data-name="Shape" d="M27.8,19.5a1.5,1.5,0,0,1-1.5,1.5H26V18h.3a1.5,1.5,0,0,1,1.5,1.5Z" transform="translate(-10.359 -7.171)" fill="#cad9fc"/>
    <path id="Shape-10" data-name="Shape" d="M20.422,14.211v1.2a3.21,3.21,0,0,1-3.008-2.406c0,2.406-5.414,1.8-5.414,1.8v-.6a4.211,4.211,0,0,1,8.422,0Z" transform="translate(-4.781 -3.984)" fill="#c6d8fb"/>
    <path id="Shape-11" data-name="Shape" d="M21.38,11.233A4.186,4.186,0,0,0,18.4,10a4.239,4.239,0,0,0-.9.1,4.211,4.211,0,0,1,3.309,4.112v.611a2.873,2.873,0,0,0,1.8.592v-1.2A4.186,4.186,0,0,0,21.38,11.233Z" transform="translate(-6.972 -3.984)" fill="#a4c3fd"/>
    <path id="Shape-12" data-name="Shape" d="M20.422,17.406v1.8a4.211,4.211,0,0,1-8.422,0V16.8s5.414.6,5.414-1.8A3.21,3.21,0,0,0,20.422,17.406Z" transform="translate(-4.781 -5.976)" fill="#e8edfc"/>
    <path id="Shape-13" data-name="Shape" d="M19.606,15a1.526,1.526,0,0,1-1.05,1.391,2.868,2.868,0,0,0,2.253,1.015v1.8a4.2,4.2,0,0,1-2.045,3.61,4.1,4.1,0,0,1-1.263.5,4.2,4.2,0,0,0,.9.106,4.14,4.14,0,0,0,2.166-.6,4.2,4.2,0,0,0,2.045-3.61v-1.8A3.21,3.21,0,0,1,19.606,15Z" transform="translate(-6.972 -5.976)" fill="#cad9fc"/>
    <path id="Shape-14" data-name="Shape" d="M22.008,28v1.54a1.2,1.2,0,0,1-1.438,1.179L19,30.406V28.6a4.14,4.14,0,0,0,2.166-.6Z" transform="translate(-7.57 -11.156)" fill="#e8edfc"/>
    <path id="Shape-15" data-name="Shape" d="M17.008,28.6v1.8l-1.57.313A1.2,1.2,0,0,1,14,29.54V28h.842a4.14,4.14,0,0,0,2.166.6Z" transform="translate(-5.578 -11.156)" fill="#e8edfc"/>
    <path id="Shape-16" data-name="Shape" d="M3.406,25.063h1.8A2.406,2.406,0,0,1,2.8,22.657V3.406A2.406,2.406,0,0,1,5.211,1h-1.8A2.406,2.406,0,0,0,1,3.406V22.657A2.406,2.406,0,0,0,3.406,25.063Z" transform="translate(-0.398 -0.398)" fill="#fff"/>
    <path id="Rectangle-path-2" data-name="Rectangle-path" d="M0,5H1.2V9.813H0Z" transform="translate(0 -1.992)" fill="#fff"/>
    <g id="Group_6512" data-name="Group 6512">
      <circle id="Oval" cx="0.5" cy="0.5" r="0.5" transform="translate(0 5)" fill="#428dff"/>
      <path id="Shape-17" data-name="Shape" d="M33.087,0H3.008A3.012,3.012,0,0,0,0,3.008a.6.6,0,1,0,1.2,0,1.8,1.8,0,0,1,1.8-1.8H33.087a1.8,1.8,0,0,1,1.8,1.8V22.259a1.8,1.8,0,0,1-1.8,1.8H3.008a1.8,1.8,0,0,1-1.8-1.8V7.821a.6.6,0,1,0-1.2,0V22.259a3.012,3.012,0,0,0,3.008,3.008H33.087A3.012,3.012,0,0,0,36.1,22.259V3.008A3.012,3.012,0,0,0,33.087,0Z" fill="#428dff"/>
      <path id="Shape-18" data-name="Shape" d="M20.04,24.251a1.8,1.8,0,0,0,1.8-1.8V6.8A1.8,1.8,0,0,0,20.04,5H6.8A1.8,1.8,0,0,0,5,6.8V22.446a1.8,1.8,0,0,0,1.8,1.8Zm-1.8-10.777a.9.9,0,0,1,0,1.7ZM9.813,15.227V13.47c1.192.065,3.6.054,4.747-.975.026-.022.051-.046.075-.069a3.572,3.572,0,0,0,2.4,1.547v1.254a3.61,3.61,0,1,1-7.219,0ZM14.024,20a4.768,4.768,0,0,0,1.723-.56h.082v.939a.6.6,0,0,1-.722.59l-1.083-.217Zm3.008-7.249a2.713,2.713,0,0,1-1.823-1.879.6.6,0,0,0-1.185.146.731.731,0,0,1-.267.584c-.707.633-2.608.745-3.945.667v-.048a3.61,3.61,0,0,1,7.219,0Zm-6.016,6.689H11.1a4.768,4.768,0,0,0,1.723.56v.751l-1.083.217a.6.6,0,0,1-.722-.59Zm9.024,3.61H14.024V21.977l.849.17a1.8,1.8,0,0,0,2.159-1.769v-.9a4.2,4.2,0,0,1,2.8,1.592,4.888,4.888,0,0,1,.768,1.605A.6.6,0,0,1,20.04,23.048ZM6.8,6.2H20.04a.6.6,0,0,1,.6.6V20.17a5.384,5.384,0,0,0-3.5-1.9,4.79,4.79,0,0,0,.936-1.858,2.095,2.095,0,0,0,.155-4.165v-.031a4.813,4.813,0,1,0-9.625,0v.031a2.095,2.095,0,0,0,.155,4.165A4.79,4.79,0,0,0,9.7,18.273a5.378,5.378,0,0,0-3.5,1.9V6.8a.6.6,0,0,1,.6-.6Zm1.8,8.973a.9.9,0,0,1,0-1.7ZM6.248,22.67a4.888,4.888,0,0,1,.771-1.608,4.2,4.2,0,0,1,2.793-1.589v.9a1.8,1.8,0,0,0,2.159,1.769l.849-.168v1.071H6.8A.6.6,0,0,1,6.248,22.67Z" transform="translate(-1.992 -1.992)" fill="#428dff"/>
      <path id="Shape-19" data-name="Shape" d="M47.032,8H35.6a.6.6,0,0,0,0,1.2h11.43a.6.6,0,0,0,0-1.2Z" transform="translate(-13.944 -3.187)" fill="#428dff"/>
      <path id="Shape-20" data-name="Shape" d="M35.6,13.2h4.813a.6.6,0,1,0,0-1.2H35.6a.6.6,0,0,0,0,1.2Z" transform="translate(-13.944 -4.781)" fill="#428dff"/>
      <path id="Shape-21" data-name="Shape" d="M35.6,23.2H38.61a.6.6,0,1,0,0-1.2H35.6a.6.6,0,0,0,0,1.2Z" transform="translate(-13.944 -8.765)" fill="#428dff"/>
      <path id="Shape-22" data-name="Shape" d="M50.617,22H44.6a.6.6,0,0,0,0,1.2h6.016a.6.6,0,1,0,0-1.2Z" transform="translate(-17.53 -8.765)" fill="#428dff"/>
      <path id="Shape-23" data-name="Shape" d="M35.6,27.2h11.43a.6.6,0,1,0,0-1.2H35.6a.6.6,0,1,0,0,1.2Z" transform="translate(-13.944 -10.359)" fill="#428dff"/>
      <path id="Shape-24" data-name="Shape" d="M35.6,31.2h4.211a.6.6,0,0,0,0-1.2H35.6a.6.6,0,0,0,0,1.2Z" transform="translate(-13.944 -11.952)" fill="#428dff"/>
    </g>
  </g>
</svg>
