<svg xmlns="http://www.w3.org/2000/svg" width="30.407" height="40.5" viewBox="0 0 30.407 40.5">
  <g id="tap" transform="translate(-0.284)">
    <path id="Path_3888" data-name="Path 3888" d="M27.419,48.31h-.057a3.123,3.123,0,0,0-2.105.8,3.283,3.283,0,0,0-3.049-2.225,3.163,3.163,0,0,0-2.259.972,3.236,3.236,0,0,0-2.888-1.847H17a2.965,2.965,0,0,0-1.859.619V38.785a3.367,3.367,0,0,0-3.271-3.438,3.361,3.361,0,0,0-3.263,3.436L8.593,54.348l-.881-1.07a4.443,4.443,0,0,0-3.14-1.649A4.372,4.372,0,0,0,1.3,52.788l-.766.635a.681.681,0,0,0-.17.839L7.813,68.586a7.683,7.683,0,0,0,6.766,4.251h8.4V72.83A8,8,0,0,0,30.691,64.6c0-2.03-.006-3.543,0-4.769,0-3.281,0-4.491-.007-8.106a3.344,3.344,0,0,0-3.26-3.413Zm1.895,11.514c0,1.227,0,2.745-.005,4.775a6.652,6.652,0,0,1-6.372,6.874H14.579a6.326,6.326,0,0,1-5.557-3.517l-7.2-13.832.355-.3.026-.024a3.024,3.024,0,0,1,2.271-.816,3.092,3.092,0,0,1,2.181,1.155l2.085,2.538A.681.681,0,0,0,9.95,56.25l.012-17.466a2.005,2.005,0,0,1,1.909-2.074,2.006,2.006,0,0,1,1.908,2.076V49.316c0,.037,0,.074,0,.111,0,.016,0,.032,0,.048v4.5a.681.681,0,1,0,1.363,0V49.339A1.91,1.91,0,0,1,17,47.374h.061a1.989,1.989,0,0,1,1.912,2.054v4.12a.681.681,0,1,0,1.363,0V50.315a1.883,1.883,0,1,1,3.747,0v3.05a.681.681,0,1,0,1.363,0V51.713a1.979,1.979,0,0,1,1.916-2.041h.057a1.977,1.977,0,0,1,1.893,2.052c.008,3.612.007,4.821,0,8.1Zm0,0" transform="translate(0 -32.337)" fill="#fff"/>
    <path id="Path_3889" data-name="Path 3889" d="M65.291,6.742a.681.681,0,0,0,.681-.681,4.721,4.721,0,0,1,9.442,0,.681.681,0,0,0,1.363,0,6.084,6.084,0,0,0-12.167,0A.681.681,0,0,0,65.291,6.742Zm0,0" transform="translate(-58.847 0)" fill="#fff"/>
  </g>
</svg>
