<svg xmlns="http://www.w3.org/2000/svg" width="34.372" height="30.64" viewBox="0 0 34.372 30.64">
  <g id="team" transform="translate(0 -27.795)">
    <g id="Group_6142" data-name="Group 6142" transform="translate(5.863 43.011)">
      <path id="Path_5353" data-name="Path 5353" d="M94.026,264.736a.518.518,0,0,1-.432-.231l-6.166-9.244a.519.519,0,0,1,.863-.575l6.166,9.244a.519.519,0,0,1-.431.806Z" transform="translate(-87.341 -254.455)" fill="#336f87"/>
      <path id="Path_5354" data-name="Path 5354" d="M304.594,267.845a.519.519,0,0,1-.431-.806l6.167-9.273a.519.519,0,1,1,.863.575l-6.167,9.273A.518.518,0,0,1,304.594,267.845Z" transform="translate(-289.526 -257.328)" fill="#336f87"/>
    </g>
    <path id="Path_5355" data-name="Path 5355" d="M350.045,29.861v3.793a1.483,1.483,0,0,0,1.483,1.483H355.6a1.483,1.483,0,0,0,1.483-1.483V29.861a2.163,2.163,0,0,0-.043-.43,1.992,1.992,0,0,0-1.922-1.636H352.01A2.018,2.018,0,0,0,350.045,29.861Z" transform="translate(-326.545)" fill="#528aa0"/>
    <g id="Group_6143" data-name="Group 6143" transform="translate(22.797 31.855)">
      <circle id="Ellipse_478" data-name="Ellipse 478" cx="0.931" cy="0.931" r="0.931" transform="translate(0 0)" fill="#ffbe92"/>
      <circle id="Ellipse_479" data-name="Ellipse 479" cx="0.931" cy="0.931" r="0.931" transform="translate(6.586 0)" fill="#ffbe92"/>
    </g>
    <path id="Path_5356" data-name="Path 5356" d="M322.619,157.279a6.221,6.221,0,0,0-4.651-5.472q-.1-.026-.2-.048a6.282,6.282,0,0,0-2.682,0c-.068.015-.135.031-.2.048a6.224,6.224,0,0,0-4.651,5.473h12.387Z" transform="translate(-289.405 -115.507)" fill="#c9ecf7"/>
    <path id="Path_5357" data-name="Path 5357" d="M386.558,170.73l-.743-4.7h-.985l-.743,4.7Z" transform="translate(-358.302 -128.958)" fill="#f44d4d"/>
    <path id="Path_5358" data-name="Path 5358" d="M391.341,151.848h.466a.552.552,0,0,0,.552-.552v-.8h-1.571v.8A.552.552,0,0,0,391.341,151.848Z" transform="translate(-364.554 -114.464)" fill="#ce2e2e"/>
    <path id="Path_5359" data-name="Path 5359" d="M361.893,74.734a1.443,1.443,0,0,0,1.443,1.443H365.9a1.443,1.443,0,0,0,1.443-1.443V70.455a15.711,15.711,0,0,1-3.152.482.454.454,0,0,1-.472-.5h0a4.485,4.485,0,0,1-1.827.4Z" transform="translate(-337.598 -39.781)" fill="#ffcfae"/>
    <path id="Path_5360" data-name="Path 5360" d="M393.784,90.426h-.354a.519.519,0,0,1-.519-.519V88.18a.519.519,0,0,1,1.037,0v1.236a.519.519,0,0,1-.165,1.011Z" transform="translate(-366.534 -55.847)" fill="#f4a773"/>
    <g id="Group_6144" data-name="Group 6144" transform="translate(25.041 31.814)">
      <path id="Path_5361" data-name="Path 5361" d="M373.5,88.7a.519.519,0,0,0,0-1.037.519.519,0,0,0,0,1.037Z" transform="translate(-373 -87.661)" fill="#336f87"/>
      <path id="Path_5362" data-name="Path 5362" d="M417.8,88.7a.519.519,0,0,0,0-1.037.519.519,0,0,0,0,1.037Z" transform="translate(-414.326 -87.661)" fill="#336f87"/>
    </g>
    <path id="Path_5363" data-name="Path 5363" d="M307.678,222.587V224.9a.553.553,0,0,1-.553.553h-13.6a.553.553,0,0,1-.553-.553v-2.309a.553.553,0,0,1,.553-.553h13.6A.553.553,0,0,1,307.678,222.587Z" transform="translate(-273.306 -181.199)" fill="#ff5f5f"/>
    <g id="Group_6145" data-name="Group 6145" transform="translate(19.668 41.092)">
      <path id="Path_5364" data-name="Path 5364" d="M294.67,228.614v.411h-1.142a.553.553,0,0,1-.553-.553v-2.309a.548.548,0,0,1,.086-.3,3.094,3.094,0,0,1,1.546,2.112A3.188,3.188,0,0,1,294.67,228.614Z" transform="translate(-292.974 -225.867)" fill="#f44d4d"/>
      <path id="Path_5365" data-name="Path 5365" d="M345.1,240.78h-7.783a.519.519,0,1,1,0-1.037H345.1a.519.519,0,0,1,0,1.037Z" transform="translate(-333.852 -238.811)" fill="#f44d4d"/>
    </g>
    <path id="Path_5366" data-name="Path 5366" d="M57.069,29.861v3.793a1.483,1.483,0,0,0,1.483,1.483h4.076a1.483,1.483,0,0,0,1.483-1.483V29.861a2.166,2.166,0,0,0-.043-.43,1.992,1.992,0,0,0-1.922-1.636H59.034A2.017,2.017,0,0,0,57.069,29.861Z" transform="translate(-53.238)" fill="#528aa0"/>
    <g id="Group_6146" data-name="Group 6146" transform="translate(3.128 31.855)">
      <circle id="Ellipse_480" data-name="Ellipse 480" cx="0.931" cy="0.931" r="0.931" transform="translate(0 0)" fill="#ffbe92"/>
      <circle id="Ellipse_481" data-name="Ellipse 481" cx="0.931" cy="0.931" r="0.931" transform="translate(6.586 0)" fill="#ffbe92"/>
    </g>
    <path id="Path_5367" data-name="Path 5367" d="M29.643,157.279a6.221,6.221,0,0,0-4.651-5.472q-.1-.026-.2-.048a6.282,6.282,0,0,0-2.682,0c-.068.015-.135.031-.2.048a6.224,6.224,0,0,0-4.651,5.473H29.643Z" transform="translate(-16.098 -115.507)" fill="#c9ecf7"/>
    <path id="Path_5368" data-name="Path 5368" d="M93.582,170.73l-.743-4.7h-.985l-.743,4.7Z" transform="translate(-84.994 -128.958)" fill="#73d7ff"/>
    <path id="Path_5369" data-name="Path 5369" d="M98.364,151.848h.466a.552.552,0,0,0,.552-.552v-.8H97.812v.8A.552.552,0,0,0,98.364,151.848Z" transform="translate(-91.246 -114.464)" fill="#42c6f4"/>
    <path id="Path_5370" data-name="Path 5370" d="M68.917,74.734a1.443,1.443,0,0,0,1.443,1.443h2.564a1.443,1.443,0,0,0,1.443-1.443V70.455a15.711,15.711,0,0,1-3.152.482.454.454,0,0,1-.472-.5h0a4.485,4.485,0,0,1-1.827.4Z" transform="translate(-64.29 -39.781)" fill="#ffcfae"/>
    <path id="Path_5371" data-name="Path 5371" d="M100.809,90.426h-.354a.519.519,0,0,1-.519-.519V88.18a.519.519,0,0,1,1.037,0v1.236a.519.519,0,0,1-.165,1.011Z" transform="translate(-93.228 -55.847)" fill="#f4a773"/>
    <g id="Group_6147" data-name="Group 6147" transform="translate(5.372 31.814)">
      <path id="Path_5372" data-name="Path 5372" d="M80.524,88.7a.519.519,0,0,0,0-1.037.519.519,0,0,0,0,1.037Z" transform="translate(-80.023 -87.661)" fill="#336f87"/>
      <path id="Path_5373" data-name="Path 5373" d="M124.825,88.7a.519.519,0,0,0,0-1.037.519.519,0,0,0,0,1.037Z" transform="translate(-121.35 -87.661)" fill="#336f87"/>
    </g>
    <path id="Path_5374" data-name="Path 5374" d="M14.7,222.587V224.9a.553.553,0,0,1-.553.553H.553A.553.553,0,0,1,0,224.9v-2.309a.553.553,0,0,1,.553-.553h13.6a.553.553,0,0,1,.553.553Z" transform="translate(0 -181.199)" fill="#42c6f4"/>
    <g id="Group_6148" data-name="Group 6148" transform="translate(2.942 40.876)">
      <path id="Path_5375" data-name="Path 5375" d="M184.9,223.154v2.309a.553.553,0,0,1-.553.553h-1.9V225.6a3.1,3.1,0,0,1,2.111-2.963A.553.553,0,0,1,184.9,223.154Z" transform="translate(-173.138 -222.641)" fill="#32a2c9"/>
      <path id="Path_5376" data-name="Path 5376" d="M52.12,240.78H44.337a.519.519,0,0,1,0-1.037H52.12a.519.519,0,1,1,0,1.037Z" transform="translate(-43.818 -238.595)" fill="#32a2c9"/>
    </g>
    <path id="Path_5377" data-name="Path 5377" d="M197.9,241.163v3.793a1.483,1.483,0,0,0,1.483,1.483h4.076a1.483,1.483,0,0,0,1.483-1.483v-3.793a2.166,2.166,0,0,0-.043-.43,1.992,1.992,0,0,0-1.922-1.636H199.86A2.017,2.017,0,0,0,197.9,241.163Z" transform="translate(-184.61 -197.117)" fill="#528aa0"/>
    <g id="Group_6149" data-name="Group 6149" transform="translate(12.582 46.04)">
      <circle id="Ellipse_482" data-name="Ellipse 482" cx="0.931" cy="0.931" r="0.931" fill="#ffbe92"/>
      <circle id="Ellipse_483" data-name="Ellipse 483" cx="0.931" cy="0.931" r="0.931" transform="translate(6.586)" fill="#ffbe92"/>
    </g>
    <path id="Path_5378" data-name="Path 5378" d="M170.469,368.581a6.221,6.221,0,0,0-4.651-5.472q-.1-.027-.2-.048a6.283,6.283,0,0,0-2.682,0c-.068.015-.135.031-.2.048a6.224,6.224,0,0,0-4.651,5.473h12.387Z" transform="translate(-147.469 -312.623)" fill="#c9ecf7"/>
    <path id="Path_5379" data-name="Path 5379" d="M234.408,382.032l-.743-4.7h-.985l-.743,4.7Z" transform="translate(-216.366 -326.074)" fill="#76d3dd"/>
    <path id="Path_5380" data-name="Path 5380" d="M239.191,363.15h.466a.552.552,0,0,0,.552-.552v-.8h-1.571v.8A.552.552,0,0,0,239.191,363.15Z" transform="translate(-222.618 -311.58)" fill="#57b8bc"/>
    <path id="Path_5381" data-name="Path 5381" d="M209.743,286.036a1.443,1.443,0,0,0,1.443,1.443h2.564a1.443,1.443,0,0,0,1.443-1.443v-4.278a15.712,15.712,0,0,1-3.152.482.454.454,0,0,1-.472-.5h0a4.485,4.485,0,0,1-1.827.4v3.891Z" transform="translate(-195.662 -236.898)" fill="#ffcfae"/>
    <path id="Path_5382" data-name="Path 5382" d="M241.635,301.728h-.354a.519.519,0,0,1-.519-.519v-1.728a.519.519,0,1,1,1.037,0v1.236a.519.519,0,0,1-.165,1.011Z" transform="translate(-224.6 -252.964)" fill="#f4a773"/>
    <g id="Group_6150" data-name="Group 6150" transform="translate(14.826 45.999)">
      <path id="Path_5383" data-name="Path 5383" d="M221.351,300a.519.519,0,0,0,0-1.037.519.519,0,0,0,0,1.037Z" transform="translate(-220.85 -298.963)" fill="#336f87"/>
      <path id="Path_5384" data-name="Path 5384" d="M265.651,300a.519.519,0,0,0,0-1.037.519.519,0,0,0,0,1.037Z" transform="translate(-262.176 -298.963)" fill="#336f87"/>
    </g>
    <path id="Path_5385" data-name="Path 5385" d="M154.977,436.751h-13.6a.553.553,0,0,1-.553-.553v-2.309a.553.553,0,0,1,.553-.553h13.6a.553.553,0,0,1,.553.553V436.2A.553.553,0,0,1,154.977,436.751Z" transform="translate(-131.373 -378.316)" fill="#59e5ef"/>
    <path id="Path_5386" data-name="Path 5386" d="M192.946,452.081h-7.783a.519.519,0,1,1,0-1.037h7.783a.519.519,0,0,1,0,1.037Z" transform="translate(-172.248 -394.835)" fill="#57b8bc"/>
  </g>
</svg>
