<svg xmlns="http://www.w3.org/2000/svg" width="370" height="97" viewBox="0 0 370 97">
  <g id="Group_13895" data-name="Group 13895" transform="translate(-2358 3222)">
    <rect id="Rectangle_4977" data-name="Rectangle 4977" width="370" height="97" rx="20" transform="translate(2358 -3222)" fill="#fff"/>
    <g id="Group_13894" data-name="Group 13894" transform="translate(1141.5 1673.25)">
      <g id="E730_x2C__Nature_x2C__night_x2C__night_stars_x2C__planets_x2C__sky" transform="translate(1527.5 -4855.5)">
        <g id="Group_9249" data-name="Group 9249" transform="translate(26 26)">
          <g id="Group_9248" data-name="Group 9248">
            <path id="Path_30439" data-name="Path 30439" d="M382.281,118.481l-1.6.877-.877,1.6-.877-1.6-1.6-.877,1.6-.877.877-1.6.877,1.6Z" transform="translate(-361.281 -111.891)" fill="#f7d694"/>
            <path id="Path_30440" data-name="Path 30440" d="M82.281,368.481l-1.6.877-.877,1.6-.877-1.6-1.6-.877,1.6-.877L79.8,366l.877,1.6Z" transform="translate(-74.977 -350.478)" fill="#f7d694"/>
            <path id="Path_30441" data-name="Path 30441" d="M154.614,150.307l-2.784,1.523-1.523,2.784-1.523-2.784L146,150.307l2.784-1.523L150.307,146l1.523,2.784Z" transform="translate(-140.522 -140.522)" fill="#f98918"/>
            <g id="Group_9247" data-name="Group 9247">
              <path id="Path_30442" data-name="Path 30442" d="M312.281,379.8l-1.6.877-.877,1.6-.877-1.6-1.6-.877,1.6-.877.877-1.6.877,1.6Z" transform="translate(-294.477 -361.281)" fill="#ffcd02"/>
              <path id="Path_30443" data-name="Path 30443" d="M30.961,28.481l-1.6.877-.877,1.6-.877-1.6L26,28.481l1.6-.877.877-1.6.877,1.6Z" transform="translate(-26 -26)" fill="#ffcd02"/>
            </g>
          </g>
        </g>
      </g>
      <g id="E730_x2C__Nature_x2C__night_x2C__night_stars_x2C__planets_x2C__sky-2" data-name="E730_x2C__Nature_x2C__night_x2C__night_stars_x2C__planets_x2C__sky" transform="translate(1202.5 -4911)">
        <g id="Group_9249-2" data-name="Group 9249" transform="translate(26 26)">
          <g id="Group_9248-2" data-name="Group 9248">
            <path id="Path_30439-2" data-name="Path 30439" d="M382.281,118.481l-1.6.877-.877,1.6-.877-1.6-1.6-.877,1.6-.877.877-1.6.877,1.6Z" transform="translate(-361.281 -111.891)" fill="#f7d694"/>
            <path id="Path_30440-2" data-name="Path 30440" d="M82.281,368.481l-1.6.877-.877,1.6-.877-1.6-1.6-.877,1.6-.877L79.8,366l.877,1.6Z" transform="translate(-74.977 -350.478)" fill="#f7d694"/>
            <path id="Path_30441-2" data-name="Path 30441" d="M154.614,150.307l-2.784,1.523-1.523,2.784-1.523-2.784L146,150.307l2.784-1.523L150.307,146l1.523,2.784Z" transform="translate(-140.522 -140.522)" fill="#f98918"/>
            <g id="Group_9247-2" data-name="Group 9247">
              <path id="Path_30442-2" data-name="Path 30442" d="M312.281,379.8l-1.6.877-.877,1.6-.877-1.6-1.6-.877,1.6-.877.877-1.6.877,1.6Z" transform="translate(-294.477 -361.281)" fill="#ffcd02"/>
              <path id="Path_30443-2" data-name="Path 30443" d="M30.961,28.481l-1.6.877-.877,1.6-.877-1.6L26,28.481l1.6-.877.877-1.6.877,1.6Z" transform="translate(-26 -26)" fill="#ffcd02"/>
            </g>
          </g>
        </g>
      </g>
    </g>
  </g>
</svg>
