<svg id="time" xmlns="http://www.w3.org/2000/svg" width="22.776" height="22.776" viewBox="0 0 22.776 22.776">
  <g id="Group_5181" data-name="Group 5181">
    <path id="Path_3890" data-name="Path 3890" d="M11.388,22.776A11.388,11.388,0,1,0,0,11.388,11.4,11.4,0,0,0,11.388,22.776Zm0-21.258a9.87,9.87,0,1,1-9.87,9.87,9.879,9.879,0,0,1,9.87-9.87Z" fill="#6195e3"/>
    <path id="Path_3891" data-name="Path 3891" d="M171.748,82.32a.747.747,0,0,0,.475.167.759.759,0,0,0,.474-1.351l-3.511-2.809V72.617a.759.759,0,0,0-1.518,0v6.074a.762.762,0,0,0,.285.592Z" transform="translate(-157.038 -67.303)" fill="#6195e3"/>
  </g>
</svg>
