<svg width="75" height="74" viewBox="0 0 75 74" fill="none" xmlns="http://www.w3.org/2000/svg">
<ellipse cx="59.2106" cy="44.7895" rx="6.90789" ry="6.81579" fill="white"/>
<path d="M7.04297 17.7939C5.51668 16.6052 4.87553 15.2127 4.6875 17.898V51.4986C4.69038 51.9499 4.77775 52.3968 4.94521 52.8167C5.09248 52.6811 25.735 35.4179 26.6367 34.6405C21.0904 29.87 12.0654 22.0639 7.04297 17.7939Z" fill="white"/>
<path d="M9.38662 16.7417C16.0496 22.4324 26.3437 31.3406 32.9882 36.9992C37.3317 33.3853 54.888 18.5312 59.3319 14.7992C58.8456 14.555 58.3074 14.4282 57.7616 14.4293L8.20303 14.4294C5.50222 14.398 8.4254 15.6224 9.38662 16.7417Z" fill="white"/>
<path d="M61.2773 34.2126C52.9196 31.2693 43.6349 37.993 43.8635 46.5962C44.5683 63.8632 69.572 63.9295 70.3125 46.5959C70.3111 43.8581 69.4382 41.1899 67.817 38.968C66.1958 36.746 63.9083 35.0827 61.2773 34.2126ZM62.2031 47.7523H57.082C56.7715 47.7514 56.474 47.6293 56.2544 47.4127C56.0348 47.196 55.9111 46.9024 55.9102 46.5961V39.6354C55.9147 39.3318 56.0402 39.042 56.2595 38.8289C56.4787 38.6157 56.7742 38.4962 57.082 38.4962C57.3899 38.4962 57.6853 38.6157 57.9046 38.8289C58.1239 39.042 58.2493 39.3318 58.2539 39.6354V45.4398H62.2031C62.5106 45.4447 62.8039 45.5687 63.0196 45.785C63.2353 46.0013 63.3562 46.2926 63.3562 46.596C63.3562 46.8995 63.2353 47.1908 63.0196 47.4071C62.8039 47.6234 62.5106 47.7474 62.2031 47.7523Z" fill="white"/>
<path d="M43.875 38.4792C45.2781 36.2699 47.2248 34.4466 49.5339 33.1791C51.843 31.9116 54.4396 31.2409 57.082 31.2295C58.4998 31.2329 59.9108 31.4235 61.2773 31.7961V17.8979C61.2799 17.4029 61.1719 16.9133 60.9609 16.4641C61.2872 16.1941 39.9377 34.182 39.3398 34.6866L43.875 38.4792Z" fill="white"/>
<path d="M42.7617 40.572L37.5351 36.2014L33.7383 39.4042C33.5241 39.5856 33.2507 39.6843 32.9685 39.6822C32.6863 39.6801 32.4144 39.5772 32.2031 39.3926C32.2031 39.3926 30.7265 38.1207 28.4298 36.1667C27.2417 37.1483 7.07845 54.0905 6.51562 54.5395C7.03275 54.8197 7.61313 54.9669 8.20313 54.9673H44.039C42.6494 52.8538 41.8063 50.4363 41.5836 47.9266C41.3609 45.4169 41.7654 42.8916 42.7617 40.572Z" fill="white"/>
<path d="M56.6077 47.2347L51.5764 42.2527C51.2287 41.9084 51.2287 41.3516 51.5764 41.0109L52.4125 40.183C52.7603 39.8386 53.3226 39.8386 53.6666 40.183L57.2367 43.7107L60.803 40.1793C61.1507 39.835 61.7131 39.835 62.0571 40.1793L62.8969 41.0072C63.2447 41.3516 63.2447 41.9084 62.8969 42.2491L57.8656 47.231C57.5178 47.579 56.9555 47.579 56.6077 47.2347ZM57.8656 54.2681L62.8969 49.2861C63.2447 48.9418 63.2447 48.3849 62.8969 48.0443L62.0608 47.2164C61.7131 46.872 61.1507 46.872 60.8067 47.2164L57.2404 50.7477L53.674 47.2164C53.3263 46.872 52.764 46.872 52.4199 47.2164L51.5838 48.0443C51.2361 48.3886 51.2361 48.9454 51.5838 49.2861L56.6151 54.2681C56.9555 54.6124 57.5178 54.6124 57.8656 54.2681Z" fill="#E7695B"/>
</svg>
