<svg width="58" height="58" viewBox="0 0 58 58" fill="none" xmlns="http://www.w3.org/2000/svg">
<path fill-rule="evenodd" clip-rule="evenodd" d="M6.98098 4.98489H27.4366C29.3999 4.98489 31.0895 5.68471 32.4778 7.07309L39.6902 14.2855C41.0784 15.6737 41.7784 17.3634 41.7784 19.3267V28.2811C43.0978 27.865 44.5021 27.6402 45.9591 27.6402C46.2291 27.6402 46.4971 27.6487 46.7633 27.6639V12.217C46.7633 10.4064 45.0123 8.86329 43.2553 8.86329H38.82C38.2703 8.86329 37.8218 8.41485 37.8218 7.86517V3.42982C37.8218 1.67883 36.3398 0 34.5463 0H6.98113L6.98098 4.98489ZM39.8179 6.86719H43.2552C43.7786 6.86719 44.2944 6.9489 44.7879 7.09976L39.5888 1.9007C39.7375 2.39163 39.8178 2.90609 39.8178 3.42996L39.8179 6.86719ZM36.2742 15.2386C36.9321 15.2386 37.5779 15.3675 38.1825 15.6009L31.0894 8.50782C31.3198 9.10869 31.4466 9.75247 31.4466 10.4111V15.2386H36.2742ZM39.7822 53.969V57.7744H0V6.98113H26.1749C27.9683 6.98113 29.4505 8.6601 29.4505 10.4111V16.2367C29.4505 16.7864 29.8988 17.2348 30.4486 17.2348H36.2742C38.0312 17.2348 39.782 18.7779 39.7822 20.5885V29.0873C36.4298 30.755 33.8485 33.7381 32.7098 37.3604H6.27189C5.72064 37.3604 5.27377 37.8073 5.27377 38.3585C5.27377 38.9098 5.72064 39.3567 6.27189 39.3567H32.2421C32.1309 40.0645 32.0713 40.7892 32.0713 41.5283C32.0713 42.143 32.1133 42.7476 32.1907 43.3411H6.27203C5.72079 43.3411 5.27392 43.788 5.27392 44.3393C5.27392 44.8905 5.72079 45.3374 6.27203 45.3374H32.602C33.6792 49.1214 36.3197 52.2467 39.7822 53.969ZM5.27363 14.4358C5.27363 14.987 5.7205 15.4339 6.27175 15.4339H22.1418C22.6931 15.4339 23.1399 14.987 23.1399 14.4358C23.1399 13.8845 22.6931 13.4377 22.1418 13.4377H6.27175C5.7205 13.4377 5.27363 13.8845 5.27363 14.4358ZM5.27363 20.4164C5.27363 20.9676 5.7205 21.4145 6.27175 21.4145H22.1418C22.6931 21.4145 23.1399 20.9676 23.1399 20.4164C23.1399 19.8651 22.6931 19.4183 22.1418 19.4183H6.27175C5.7205 19.4183 5.27363 19.8651 5.27363 20.4164ZM5.27363 26.397C5.27363 26.9482 5.7205 27.3951 6.27175 27.3951H33.5103C34.0615 27.3951 34.5084 26.9482 34.5084 26.397C34.5084 25.8457 34.0615 25.3988 33.5103 25.3988H6.27175C5.7205 25.3988 5.27363 25.8457 5.27363 26.397ZM5.27363 32.3775C5.27363 32.9288 5.7205 33.3756 6.27175 33.3756H33.5103C34.0615 33.3756 34.5084 32.9288 34.5084 32.3775C34.5084 31.8263 34.0615 31.3794 33.5103 31.3794H6.27175C5.7205 31.3794 5.27363 31.8263 5.27363 32.3775ZM34.5084 50.3196C34.5084 49.7683 34.0615 49.3215 33.5103 49.3215H6.27175C5.7205 49.3215 5.27363 49.7683 5.27363 50.3196C5.27363 50.8708 5.7205 51.3177 6.27175 51.3177H33.5103C34.0615 51.3177 34.5084 50.8708 34.5084 50.3196ZM57.8507 41.528C57.8507 48.0777 52.5087 53.4197 45.9589 53.4197C39.4091 53.4197 34.0672 48.0778 34.0672 41.528C34.0672 34.9782 39.4091 29.6363 45.9589 29.6363C52.5087 29.6363 57.8507 34.9782 57.8507 41.528ZM52.2963 36.1392C51.7171 35.56 50.7693 35.56 50.1901 36.1392L42.9825 43.3466L40.9485 39.8235C40.539 39.1141 39.6234 38.8689 38.9139 39.2784C38.2046 39.688 37.9593 40.6035 38.3688 41.3128L41.4651 46.6759C41.6817 47.051 42.0273 47.282 42.4568 47.3385C42.8863 47.3949 43.28 47.2613 43.5863 46.9551L52.2961 38.2453C52.8753 37.6661 52.8755 36.7183 52.2963 36.1392Z" fill="white"/>
<circle cx="46.0718" cy="41.5889" r="8.6109" fill="white"/>
<path d="M46.059 41.253L51.1059 46.2569C51.4547 46.6028 51.4547 47.162 51.1059 47.5042L50.2672 48.3358C49.9184 48.6816 49.3543 48.6816 49.0092 48.3358L45.4281 44.7926L41.8508 48.3394C41.502 48.6853 40.9379 48.6853 40.5928 48.3394L39.7504 47.5079C39.4016 47.162 39.4016 46.6028 39.7504 46.2606L44.7973 41.2567C45.1461 40.9072 45.7102 40.9072 46.059 41.253ZM44.7973 34.1887L39.7504 39.1926C39.4016 39.5384 39.4016 40.0977 39.7504 40.4399L40.5891 41.2714C40.9379 41.6173 41.502 41.6173 41.8471 41.2714L45.4244 37.7245L49.0018 41.2714C49.3506 41.6173 49.9147 41.6173 50.2598 41.2714L51.0985 40.4399C51.4473 40.094 51.4473 39.5348 51.0985 39.1926L46.0516 34.1887C45.7102 33.8428 45.1461 33.8428 44.7973 34.1887Z" fill="#F48B60"/>
</svg>
