<svg width="76" height="76" viewBox="0 0 76 76" fill="none" xmlns="http://www.w3.org/2000/svg">
<circle cx="60" cy="46" r="7" fill="white"/>
<path d="M7.13688 18.2748C5.59024 17.054 4.94053 15.6238 4.75 18.3817V52.8904C4.75292 53.3539 4.84146 53.8129 5.01114 54.2442C5.16038 54.1049 26.0781 36.3751 26.9919 35.5767C21.3716 30.6773 12.2263 22.6602 7.13688 18.2748Z" fill="white"/>
<path d="M9.51202 17.1942C16.2638 23.0387 26.6951 32.1877 33.4283 37.9992C37.8297 34.2876 55.6201 19.032 60.1233 15.1992C59.6304 14.9483 59.085 14.8181 58.532 14.8192L8.31265 14.8194C5.57583 14.7871 8.53799 16.0446 9.51202 17.1942Z" fill="white"/>
<path d="M62.0945 35.1373C53.6254 32.1144 44.2169 39.0198 44.4485 47.8555C45.1627 65.5892 70.4998 65.6574 71.2502 47.8552C71.2487 45.0434 70.3642 42.3031 68.7214 40.0211C67.0786 37.7392 64.7606 36.0308 62.0945 35.1373ZM63.0327 49.0429H57.8433C57.5286 49.042 57.2271 48.9166 57.0046 48.6941C56.7821 48.4716 56.6567 48.1701 56.6558 47.8554V40.7067C56.6604 40.3948 56.7876 40.0972 57.0098 39.8783C57.232 39.6594 57.5314 39.5366 57.8433 39.5366C58.1552 39.5366 58.4546 39.6594 58.6768 39.8783C58.899 40.0972 59.0262 40.3948 59.0308 40.7067V46.6679H63.0327C63.3443 46.6729 63.6414 46.8003 63.86 47.0224C64.0786 47.2446 64.2011 47.5437 64.2011 47.8554C64.2011 48.167 64.0786 48.4662 63.86 48.6884C63.6414 48.9105 63.3443 49.0379 63.0327 49.0429Z" fill="white"/>
<path d="M44.4599 39.5192C45.8817 37.2501 47.8543 35.3776 50.1942 34.0758C52.5342 32.774 55.1654 32.0852 57.843 32.0735C59.2797 32.077 60.7095 32.2727 62.0943 32.6554V18.3817C62.0969 17.8732 61.9874 17.3704 61.7736 16.9091C62.1042 16.6318 40.4701 35.1058 39.8643 35.6241L44.4599 39.5192Z" fill="white"/>
<path d="M43.3319 41.6685L38.0356 37.1798L34.1881 40.4692C33.9712 40.6555 33.6941 40.7569 33.4081 40.7547C33.1221 40.7525 32.8466 40.6469 32.6325 40.4573C32.6325 40.4573 31.1363 39.151 28.8089 37.1442C27.6049 38.1523 7.17287 55.5524 6.60254 56.0135C7.12656 56.3014 7.71467 56.4525 8.31254 56.4529H44.6263C43.2181 54.2823 42.3638 51.7994 42.1381 49.2219C41.9124 46.6444 42.3223 44.0508 43.3319 41.6685Z" fill="white"/>
<path d="M58.6373 47.4887L63.7357 52.6053C64.0881 52.959 64.0881 53.5309 63.7357 53.8807L62.8885 54.731C62.5361 55.0847 61.9663 55.0847 61.6176 54.731L58 51.108L54.3861 54.7348C54.0337 55.0884 53.4639 55.0884 53.1153 54.7348L52.2643 53.8845C51.9119 53.5309 51.9119 52.959 52.2643 52.6091L57.3627 47.4925C57.7151 47.1351 58.2849 47.1351 58.6373 47.4887ZM57.3627 40.2652L52.2643 45.3819C51.9119 45.7355 51.9119 46.3074 52.2643 46.6573L53.1115 47.5075C53.4639 47.8612 54.0337 47.8612 54.3824 47.5075L57.9963 43.8807L61.6101 47.5075C61.9625 47.8612 62.5323 47.8612 62.881 47.5075L63.7282 46.6573C64.0806 46.3036 64.0806 45.7318 63.7282 45.3819L58.6298 40.2652C58.2849 39.9116 57.7151 39.9116 57.3627 40.2652Z" fill="#55A795"/>
</svg>
