<svg xmlns="http://www.w3.org/2000/svg" width="23.386" height="24.268" viewBox="0 0 23.386 24.268">
  <g id="verified_1_" data-name="verified (1)" transform="translate(-9.026)">
    <path id="Path_5512" data-name="Path 5512" d="M102.909.3v.972l-3.625.245-3.848-.245V.3a.3.3,0,0,1,.3-.3H102.6A.3.3,0,0,1,102.909.3Z" transform="translate(-82.191)" fill="#7ca1b1"/>
    <path id="Path_5513" data-name="Path 5513" d="M212.108.3v.972l-1.562.1V.3a.3.3,0,0,0-.305-.3H211.8A.3.3,0,0,1,212.108.3Z" transform="translate(-191.389)" fill="#678d98"/>
    <path id="Path_5514" data-name="Path 5514" d="M24.937,27.618V47.268a1.478,1.478,0,0,1-1.478,1.478H10.5a1.478,1.478,0,0,1-1.479-1.478V27.618A1.478,1.478,0,0,1,10.5,26.14h.78l5.7.376,5.566-.376h.911A1.478,1.478,0,0,1,24.937,27.618Z" transform="translate(0 -24.864)" fill="#5986cb"/>
    <path id="Path_5515" data-name="Path 5515" d="M288.34,27.614V47.263a1.478,1.478,0,0,1-1.478,1.478h-.912a1.478,1.478,0,0,0,1.478-1.478V27.614a1.3,1.3,0,0,0-1.309-1.478h.742A1.478,1.478,0,0,1,288.34,27.614Z" transform="translate(-263.402 -24.86)" fill="#4278c3"/>
    <path id="Path_5516" data-name="Path 5516" d="M52.265,26.882V45.523a.742.742,0,0,1-.742.742H40.052a.742.742,0,0,1-.742-.742V26.882a.742.742,0,0,1,.742-.742h11.47A.742.742,0,0,1,52.265,26.882Z" transform="translate(-28.805 -24.864)" fill="#c8effe"/>
    <path id="Path_5517" data-name="Path 5517" d="M264.652,26.882V45.523a.742.742,0,0,1-.742.742H262.6a.742.742,0,0,0,.742-.742V26.882a.742.742,0,0,0-.742-.742h1.31A.742.742,0,0,1,264.652,26.882Z" transform="translate(-241.192 -24.864)" fill="#99e6fc"/>
    <path id="Path_5518" data-name="Path 5518" d="M87.475,102.623H78.7a.291.291,0,0,1-.291-.291v-.882a.291.291,0,0,1,.291-.291h8.777a.291.291,0,0,1,.291.291v.882A.291.291,0,0,1,87.475,102.623Z" transform="translate(-65.993 -96.219)" fill="#7ca1b1"/>
    <g id="Group_6310" data-name="Group 6310" transform="translate(13.866 1.276)">
      <path id="Path_5519" data-name="Path 5519" d="M113.649,26.14v.686a.843.843,0,0,1-.842.842h-3.083a.843.843,0,0,1-.842-.842V26.14h-.732v.686a1.576,1.576,0,0,0,1.574,1.575h3.083a1.576,1.576,0,0,0,1.574-1.575V26.14Z" transform="translate(-108.15 -26.14)" fill="#eaf6ff"/>
    </g>
    <g id="Group_6311" data-name="Group 6311" transform="translate(12.414 8.455)">
      <path id="Path_5520" data-name="Path 5520" d="M80.814,173.88H78.772a.366.366,0,0,1,0-.732h2.042a.366.366,0,0,1,0,.732Z" transform="translate(-78.406 -173.148)" fill="#7ca1b1"/>
    </g>
    <g id="Group_6312" data-name="Group 6312" transform="translate(12.414 10.871)">
      <path id="Path_5521" data-name="Path 5521" d="M85.289,223.371H78.772a.366.366,0,1,1,0-.732h6.517a.366.366,0,0,1,0,.732Z" transform="translate(-78.406 -222.639)" fill="#7ca1b1"/>
    </g>
    <g id="Group_6313" data-name="Group 6313" transform="translate(12.414 13.288)">
      <path id="Path_5522" data-name="Path 5522" d="M84.642,272.861h-5.87a.366.366,0,1,1,0-.732h5.87a.366.366,0,0,1,0,.732Z" transform="translate(-78.406 -272.129)" fill="#7ca1b1"/>
    </g>
    <g id="Group_6314" data-name="Group 6314" transform="translate(12.414 15.704)">
      <path id="Path_5523" data-name="Path 5523" d="M83.994,322.352H78.772a.366.366,0,0,1,0-.732h5.222a.366.366,0,0,1,0,.732Z" transform="translate(-78.406 -321.62)" fill="#7ca1b1"/>
    </g>
    <g id="Group_6315" data-name="Group 6315" transform="translate(12.414 18.121)">
      <path id="Path_5524" data-name="Path 5524" d="M80.814,371.843H78.772a.366.366,0,0,1,0-.732h2.042a.366.366,0,0,1,0,.732Z" transform="translate(-78.406 -371.111)" fill="#7ca1b1"/>
    </g>
    <path id="Path_5525" data-name="Path 5525" d="M207.789,141.1l-9.616-2.577a.511.511,0,0,0-.625.361l-3.726,13.907a.511.511,0,0,0,.361.625L203.8,156a.511.511,0,0,0,.625-.361l3.726-13.907A.511.511,0,0,0,207.789,141.1Z" transform="translate(-175.756 -131.745)" fill="#99e6fc"/>
    <path id="Path_5526" data-name="Path 5526" d="M183.477,99,179.751,112.9a.511.511,0,0,1-.625.361l-9.616-2.577a.511.511,0,0,1-.361-.626l3.726-13.906a.511.511,0,0,1,.626-.361l9.616,2.577A.51.51,0,0,1,183.477,99Z" transform="translate(-152.287 -91.1)" fill="#eaf6ff"/>
    <path id="Path_5527" data-name="Path 5527" d="M348.162,141.517l-3.726,13.907a.511.511,0,0,1-.625.361l-1.541-.413a.511.511,0,0,0,.625-.361l3.726-13.906a.51.51,0,0,0-.356-.624l1.536.412A.51.51,0,0,1,348.162,141.517Z" transform="translate(-316.972 -133.621)" fill="#c8effe"/>
    <circle id="Ellipse_498" data-name="Ellipse 498" cx="3.599" cy="3.599" r="3.599" transform="translate(19.797 12.177)" fill="#46cc8d"/>
    <path id="Path_5528" data-name="Path 5528" d="M268.8,145.306l-6.419-1.72a.277.277,0,0,1-.2-.339l.6-2.255a.277.277,0,0,1,.339-.2l6.419,1.72a.277.277,0,0,1,.2.339l-.6,2.255A.277.277,0,0,1,268.8,145.306Z" transform="translate(-240.791 -133.913)" fill="#80b4fb"/>
    <g id="Group_6316" data-name="Group 6316" transform="translate(21.648 14.101)">
      <path id="Path_5529" data-name="Path 5529" d="M269.075,291.573a.366.366,0,0,1-.317-.183l-1.184-2.05a.366.366,0,1,1,.634-.366l1,1.733,3.234-1.867a.366.366,0,0,1,.366.634l-3.551,2.05A.365.365,0,0,1,269.075,291.573Z" transform="translate(-267.525 -288.791)" fill="#b0e7c9"/>
    </g>
  </g>
</svg>
