<svg id="work-schedule" xmlns="http://www.w3.org/2000/svg" width="7.582" height="7.582" viewBox="0 0 7.582 7.582">
  <path id="Path_8493" data-name="Path 8493" d="M21.24,23.48A2.24,2.24,0,1,0,19,21.24,2.24,2.24,0,0,0,21.24,23.48Zm0-4.135a1.9,1.9,0,1,1-1.9,1.9,1.9,1.9,0,0,1,1.9-1.9Z" transform="translate(-17.449 -17.449)" fill="#fff"/>
  <path id="Path_8494" data-name="Path 8494" d="M38.172,31.345h.172a.172.172,0,0,0,0-.345h-.172a.172.172,0,0,0,0,.345Z" transform="translate(-33.175 -27.381)" fill="#fff"/>
  <path id="Path_8495" data-name="Path 8495" d="M23.517,31.172A.172.172,0,0,0,23.345,31h-.172a.172.172,0,1,0,0,.345h.172A.172.172,0,0,0,23.517,31.172Z" transform="translate(-20.76 -27.381)" fill="#fff"/>
  <path id="Path_8496" data-name="Path 8496" d="M31.172,38.517a.172.172,0,0,0,.172-.172v-.172a.172.172,0,0,0-.345,0v.172A.172.172,0,0,0,31.172,38.517Z" transform="translate(-27.381 -33.175)" fill="#fff"/>
  <path id="Path_8497" data-name="Path 8497" d="M31.261,24.7l.862-.517a.172.172,0,1,0-.177-.3l-.6.36V23.172a.172.172,0,1,0-.345,0v1.378a.172.172,0,0,0,.261.148Z" transform="translate(-27.381 -20.76)" fill="#fff"/>
  <path id="Path_8498" data-name="Path 8498" d="M10.138,13.105a.172.172,0,0,0-.138.169v1.034a.172.172,0,0,0,.138.169l.66.132a3.024,3.024,0,0,0,.3.719l-.373.561a.172.172,0,0,0,.022.217l.731.73a.172.172,0,0,0,.217.022l.561-.374a3.025,3.025,0,0,0,.719.3l.132.66a.172.172,0,0,0,.169.139h1.034a.172.172,0,0,0,.169-.138l.132-.66a3.025,3.025,0,0,0,.719-.3l.561.373a.172.172,0,0,0,.217-.022l.731-.73a.172.172,0,0,0,.022-.217l-.374-.561a3.024,3.024,0,0,0,.3-.719l.66-.132a.172.172,0,0,0,.139-.169V13.274a.172.172,0,0,0-.138-.169l-.66-.132a3.024,3.024,0,0,0-.3-.719l.373-.561a.172.172,0,0,0-.022-.217l-.731-.73a.172.172,0,0,0-.217-.022l-.561.374a3.025,3.025,0,0,0-.719-.3l-.132-.661A.172.172,0,0,0,14.308,10H13.274a.172.172,0,0,0-.169.138l-.132.66a3.025,3.025,0,0,0-.719.3l-.561-.373a.172.172,0,0,0-.217.022l-.731.73a.172.172,0,0,0-.022.217l.375.563a3.035,3.035,0,0,0-.3.717Zm1.481-2.016.534.356a.172.172,0,0,0,.187,0,2.689,2.689,0,0,1,.819-.34.172.172,0,0,0,.13-.134l.126-.629h.751l.126.628a.172.172,0,0,0,.13.134,2.689,2.689,0,0,1,.819.34.172.172,0,0,0,.187,0l.534-.356.531.531-.356.534a.172.172,0,0,0,0,.187,2.69,2.69,0,0,1,.34.82.172.172,0,0,0,.134.13l.628.125v.751l-.628.126a.172.172,0,0,0-.134.13,2.69,2.69,0,0,1-.34.819.172.172,0,0,0,0,.187l.356.534-.531.53-.534-.356a.172.172,0,0,0-.187,0,2.689,2.689,0,0,1-.819.34.172.172,0,0,0-.13.134l-.125.628h-.751l-.126-.628a.172.172,0,0,0-.13-.134,2.689,2.689,0,0,1-.819-.34.172.172,0,0,0-.187,0l-.534.356-.531-.531.356-.534a.172.172,0,0,0,0-.187,2.69,2.69,0,0,1-.34-.82.172.172,0,0,0-.134-.13l-.628-.125v-.751l.628-.126a.177.177,0,0,0,.134-.13,2.69,2.69,0,0,1,.34-.82.183.183,0,0,0,0-.187l-.356-.534Z" transform="translate(-10 -10)" fill="#fff"/>
</svg>
