<svg xmlns="http://www.w3.org/2000/svg" width="48.911" height="39.95" viewBox="0 0 48.911 39.95">
  <g id="Group_6788" data-name="Group 6788" transform="translate(2673.5 -3941)">
    <g id="work-from-home" transform="translate(-2673.5 3941)">
      <path id="Path_5829" data-name="Path 5829" d="M11.24,15.27,9,16.681V13.694L29.162,1,49.323,13.694v2.987l-2.24-1.411L29.162,3.987Z" transform="translate(-1.159 -0.253)" fill="#94c1ff"/>
      <path id="Path_5830" data-name="Path 5830" d="M29,19h2.24v2.24H29Z" transform="translate(-6.225 -4.812)" fill="#d7e9ff"/>
      <path id="Path_5831" data-name="Path 5831" d="M42.415,31v7.467a2.247,2.247,0,0,1-2.24,2.24H25.24A2.247,2.247,0,0,1,23,38.467V31h8.214v2.24H34.2V31Z" transform="translate(-4.705 -7.851)" fill="#94c1ff"/>
      <path id="Path_5832" data-name="Path 5832" d="M40,19h2.24v2.24H40Z" transform="translate(-9.011 -4.812)" fill="#d7e9ff"/>
      <path id="Path_5833" data-name="Path 5833" d="M42.908,24.24v4.48H33.948V26.48H30.961v2.24H22V24.24A2.247,2.247,0,0,1,24.24,22H40.668A2.247,2.247,0,0,1,42.908,24.24Z" transform="translate(-4.452 -5.572)" fill="#94c1ff"/>
      <path id="Path_5834" data-name="Path 5834" d="M39.454,16v2.24H29V16Z" transform="translate(-6.225 -4.052)" fill="#94c1ff"/>
      <path id="Path_5835" data-name="Path 5835" d="M36.987,30.24v2.24H34V28h2.987Z" transform="translate(-7.491 -7.091)" fill="#d7e9ff"/>
      <path id="Path_5837" data-name="Path 5837" d="M32,19h5.974v2.24H32Z" transform="translate(-6.985 -4.812)" fill="#fff"/>
      <path id="Path_5838" data-name="Path 5838" d="M39.362,24.415v-4.48a2.247,2.247,0,0,0-2.24-2.24H34.135v-4.48H23.681v4.48H20.694a2.247,2.247,0,0,0-2.24,2.24v4.48H19.2v7.467a2.247,2.247,0,0,0,2.24,2.24H36.376a2.247,2.247,0,0,0,2.24-2.24V24.415Zm7.467-8.132V39.349H18.454V37.863H13.227v-1.5H8a5.223,5.223,0,0,0,5.227-5.227V28.148a5.219,5.219,0,0,0-2.24-4.294V16.283L28.908,5Z" transform="translate(-0.906 -1.266)" fill="#fff"/>
      <path id="Path_5846" data-name="Path 5846" d="M12.808,30.342A7.521,7.521,0,1,1,8.514,29a7.521,7.521,0,0,1,4.294,1.342Z" transform="translate(0.074 -5.151)" fill="#d7e9ff"/>
      <g id="Group_6777" data-name="Group 6777" transform="translate(0 0)">
        <path id="Path_5847" data-name="Path 5847" d="M8.747,14.188a.747.747,0,0,1-.4-1.379L28.51.115a.747.747,0,1,1,.8,1.264L9.145,14.073a.747.747,0,0,1-.4.115Z" transform="translate(-0.906 0)" fill="#116fff"/>
        <path id="Path_5848" data-name="Path 5848" d="M55.907,14.188a.747.747,0,0,1-.4-.115L35.348,1.379a.747.747,0,0,1,.8-1.264L56.306,12.809a.747.747,0,0,1-.4,1.379Z" transform="translate(-7.744 0)" fill="#116fff"/>
        <path id="Path_5849" data-name="Path 5849" d="M8.747,18.188a.747.747,0,0,1-.4-1.379L28.51,4.115a.747.747,0,1,1,.8,1.264L9.145,18.073a.747.747,0,0,1-.4.115Z" transform="translate(-0.906 -1.013)" fill="#116fff"/>
        <path id="Path_5850" data-name="Path 5850" d="M55.907,18.188a.747.747,0,0,1-.4-.115L35.348,5.379a.747.747,0,1,1,.8-1.264L56.306,16.809a.747.747,0,0,1-.4,1.379Z" transform="translate(-7.744 -1.013)" fill="#116fff"/>
        <path id="Path_5851" data-name="Path 5851" d="M8.747,21.48A.747.747,0,0,1,8,20.734V17.747a.747.747,0,1,1,1.493,0v2.987a.747.747,0,0,1-.747.747Z" transform="translate(-0.906 -4.305)" fill="#116fff"/>
        <path id="Path_5852" data-name="Path 5852" d="M62.747,21.48A.747.747,0,0,1,62,20.734V17.747a.747.747,0,1,1,1.493,0v2.987a.747.747,0,0,1-.747.747Z" transform="translate(-14.583 -4.305)" fill="#116fff"/>
        <path id="Path_5853" data-name="Path 5853" d="M11.747,29.009A.783.783,0,0,1,11,28.194V19.926a.75.75,0,1,1,1.493,0v8.268a.783.783,0,0,1-.747.815Z" transform="translate(-1.666 -4.84)" fill="#116fff"/>
        <path id="Path_5854" data-name="Path 5854" d="M59.747,43.67A.746.746,0,0,1,59,42.923V19.858a.747.747,0,1,1,1.493,0V42.923a.746.746,0,0,1-.747.747Z" transform="translate(-13.823 -4.84)" fill="#116fff"/>
        <path id="Path_5855" data-name="Path 5855" d="M16.771,51.5a.747.747,0,1,1,0-1.493l33.144,0a.747.747,0,1,1,0,1.493Z" transform="translate(-4.015 -12.664)" fill="#116fff"/>
        <path id="Path_5863" data-name="Path 5863" d="M8.588,45.175a8.587,8.587,0,1,1,8.587-8.587,8.587,8.587,0,0,1-8.587,8.587Zm0-15.028a6.44,6.44,0,1,0,6.44,6.44,6.44,6.44,0,0,0-6.44-6.44Z" transform="translate(0 -5.225)" fill="#116fff"/>
        <path id="Path_5868" data-name="Path 5868" d="M39.92,43.734H24.986A2.99,2.99,0,0,1,22,40.747a.747.747,0,1,1,1.493,0,1.5,1.5,0,0,0,1.493,1.493H39.92a1.5,1.5,0,0,0,1.493-1.493.747.747,0,0,1,1.493,0A2.99,2.99,0,0,1,39.92,43.734Z" transform="translate(-4.452 -10.131)" fill="#116fff"/>
        <path id="Path_5869" data-name="Path 5869" d="M42.654,24.734a.747.747,0,0,1-.747-.747,1.5,1.5,0,0,0-1.493-1.493H23.986a1.5,1.5,0,0,0-1.493,1.493.747.747,0,0,1-1.493,0A2.99,2.99,0,0,1,23.986,21H40.414A2.99,2.99,0,0,1,43.4,23.987a.747.747,0,0,1-.747.747Z" transform="translate(-4.198 -5.319)" fill="#116fff"/>
        <path id="Path_5870" data-name="Path 5870" d="M30.706,31.493H21.746a.747.747,0,1,1,0-1.493h8.961a.747.747,0,1,1,0,1.493Z" transform="translate(-4.198 -7.598)" fill="#116fff"/>
        <path id="Path_5871" data-name="Path 5871" d="M21.746,29.974A.747.747,0,0,1,21,29.227v-4.48a.747.747,0,1,1,1.493,0v4.48a.747.747,0,0,1-.747.747Z" transform="translate(-4.198 -6.078)" fill="#116fff"/>
        <path id="Path_5872" data-name="Path 5872" d="M22.746,38.961A.746.746,0,0,1,22,38.214V30.747a.747.747,0,1,1,1.493,0v7.467a.746.746,0,0,1-.747.747Z" transform="translate(-4.452 -7.598)" fill="#116fff"/>
        <path id="Path_5873" data-name="Path 5873" d="M49.746,29.974A.747.747,0,0,1,49,29.227v-4.48a.747.747,0,1,1,1.493,0v4.48a.747.747,0,0,1-.747.747Z" transform="translate(-11.29 -6.078)" fill="#116fff"/>
        <path id="Path_5874" data-name="Path 5874" d="M48.746,38.961A.746.746,0,0,1,48,38.214V30.747a.747.747,0,1,1,1.493,0v7.467a.746.746,0,0,1-.747.747Z" transform="translate(-11.037 -7.598)" fill="#116fff"/>
        <path id="Path_5875" data-name="Path 5875" d="M36.733,32.974H33.746A.746.746,0,0,1,33,32.227v-4.48A.747.747,0,0,1,33.746,27h2.987a.747.747,0,0,1,.747.747v4.48a.746.746,0,0,1-.747.747Zm-2.24-1.493h1.493V28.493H34.492Z" transform="translate(-7.238 -6.838)" fill="#116fff"/>
        <path id="Path_5876" data-name="Path 5876" d="M46.706,31.493H37.746a.747.747,0,0,1,0-1.493h8.961a.747.747,0,0,1,0,1.493Z" transform="translate(-8.251 -7.598)" fill="#116fff"/>
        <path id="Path_5877" data-name="Path 5877" d="M30.986,21.734h-2.24A.747.747,0,0,1,28,20.987v-2.24A.747.747,0,0,1,28.746,18h2.24a.747.747,0,0,1,.747.747v2.24A.747.747,0,0,1,30.986,21.734ZM29.492,20.24h.747v-.747h-.747Z" transform="translate(-5.971 -4.559)" fill="#116fff"/>
        <path id="Path_5878" data-name="Path 5878" d="M41.986,21.734h-2.24A.747.747,0,0,1,39,20.987v-2.24A.747.747,0,0,1,39.746,18h2.24a.747.747,0,0,1,.747.747v2.24A.747.747,0,0,1,41.986,21.734ZM40.492,20.24h.747v-.747h-.747Z" transform="translate(-8.757 -4.559)" fill="#116fff"/>
        <path id="Path_5879" data-name="Path 5879" d="M39.2,18.734H28.746A.747.747,0,0,1,28,17.987v-2.24A.747.747,0,0,1,28.746,15H39.2a.747.747,0,0,1,.747.747v2.24a.747.747,0,0,1-.747.747ZM29.492,17.24h8.961v-.747H29.492Z" transform="translate(-5.971 -3.799)" fill="#116fff"/>
        <path id="close_5_" data-name="close (5)" d="M4.093,12.061a.291.291,0,0,0,.412,0L8.083,8.483l3.58,3.578a.291.291,0,1,0,.412-.412L8.5,8.071l3.578-3.58a.291.291,0,0,0-.412-.412L8.083,7.659,4.5,4.081a.291.291,0,0,0-.411.411l3.578,3.58-3.578,3.58a.291.291,0,0,0,0,.411Z" transform="translate(0.503 23.292)" fill="#116fff"/>
      </g>
    </g>
  </g>
</svg>
