<svg xmlns="http://www.w3.org/2000/svg" width="47.795" height="43.798" viewBox="0 0 47.795 43.798">
  <g id="communication" transform="translate(-7.995 -28.734)">
    <path id="Path_5966" data-name="Path 5966" d="M45.971,115.655a9.673,9.673,0,0,1,2.915,1.667l.463.386-.544.259a11.058,11.058,0,0,1-1.212.489l-.287.1-.162-.256a12.354,12.354,0,0,0-1.579-2.01l-1.159-1.193Zm.019,3.231.574-.116-.333-.481a11.327,11.327,0,0,0-2.488-2.589l-.618-.467V119.2l.4-.019A16.181,16.181,0,0,0,45.99,118.885Zm-4.04.3a16.053,16.053,0,0,1-2.458-.3l-.573-.117.333-.481a11.4,11.4,0,0,1,2.483-2.588l.618-.469V119.2Zm-4.061-.731.289.1.162-.258a12.131,12.131,0,0,1,1.578-2.008l1.155-1.19-1.561.558a9.634,9.634,0,0,0-2.915,1.667l-.461.384.54.26A10.65,10.65,0,0,0,37.89,118.455Zm.44,12.68a12.146,12.146,0,0,0,1.574,2l1.167,1.2-1.573-.565a9.6,9.6,0,0,1-2.9-1.662l-.462-.385.542-.259a10.967,10.967,0,0,1,1.2-.487l.288-.1Zm1.166-.593-.572.116.332.48a11.334,11.334,0,0,0,2.479,2.588l.618.468v-3.972l-.4.019A16.053,16.053,0,0,0,39.5,130.542Zm4.031-.3a15.911,15.911,0,0,1,2.454.3l.57.117-.329.479a11.234,11.234,0,0,1-2.48,2.589l-.618.468v-3.972Zm4.069.733-.288-.1-.161.258a11.888,11.888,0,0,1-1.573,2l-1.167,1.2,1.573-.565a9.621,9.621,0,0,0,2.906-1.662l.462-.385-.542-.259a10.688,10.688,0,0,0-1.209-.487Zm14.739-3.2a8.874,8.874,0,0,1,.38,1.829,7.662,7.662,0,0,1-.141,2.6l-.3,1.187-.734-1.917a.374.374,0,0,0-.208-.215.382.382,0,0,0-.147-.029.388.388,0,0,0-.159.034,6.222,6.222,0,0,1-3.025.253,7.167,7.167,0,0,1-2.242-.641.386.386,0,0,0-.31-.016.392.392,0,0,0-.225.22l-.671,1.7-.429-1.753a1.565,1.565,0,0,1,.229-1.364,1.9,1.9,0,0,1,1.515-.633h.268a.385.385,0,0,0,.386-.386.958.958,0,0,1,.05-.316l.091-.256h3.646a2.328,2.328,0,0,0,1.413-.477l.435-.352ZM23.75,127.59a2.346,2.346,0,0,0,1.414.478h3.651l.091.256a.958.958,0,0,1,.05.316.385.385,0,0,0,.386.386H29.6a1.9,1.9,0,0,1,1.519.632,1.559,1.559,0,0,1,.23,1.366l-.429,1.753-.671-1.7a.389.389,0,0,0-.535-.2,7.188,7.188,0,0,1-2.241.64,6.224,6.224,0,0,1-3.024-.253.387.387,0,0,0-.306,0,.4.4,0,0,0-.215.22l-.722,1.913-.3-1.186a7.546,7.546,0,0,1-.141-2.6,9.218,9.218,0,0,1,.374-1.826l.17-.536Zm3.056,14.081v7.743H23.44v-4.7a.386.386,0,0,0-.771,0v4.7H20v-6.2c0-1.589,1.594-2.362,2.918-2.692q.6-.15,1.217-.26l.215-.039.144.164a3.725,3.725,0,0,0,2.009,1.223Zm1.075-.065a3.748,3.748,0,0,0,2.009-1.23l.144-.165.215.04c.406.075.81.162,1.21.265,1.33.342,2.915,1.1,2.915,2.693v6.2H31.709v-4.7a.386.386,0,0,0-.771,0v4.7H27.577v-7.742Zm26.142-1.09q.6-.154,1.211-.265l.216-.039.144.166a3.714,3.714,0,0,0,2.008,1.229l.3.066v7.742H54.545v-4.7a.386.386,0,0,0-.771,0v4.7H51.1v-6.2C51.1,141.613,52.691,140.858,54.023,140.516Zm4.958,1.09a3.759,3.759,0,0,0,2.01-1.224l.144-.163.214.039q.612.111,1.217.26c1.325.329,2.914,1.1,2.914,2.692v6.2H62.809v-4.7a.386.386,0,0,0-.771,0v4.7H58.677v-7.742Z" transform="translate(-10.846 -78.037)" fill="#9bc9ff" fill-rule="evenodd"/>
    <path id="Path_5967" data-name="Path 5967" d="M25.57,31.536a.771.771,0,0,1,.771-.771h8.6l-.916-.622a.771.771,0,0,1,.866-1.276l2.993,2.03a.774.774,0,0,1,0,1.276L34.891,34.2a.771.771,0,0,1-.866-1.276l.916-.622h-8.6a.771.771,0,0,1-.771-.771ZM38.22,61.9a.771.771,0,0,1-.771.771h-8.6l.916.622A.771.771,0,0,1,29.33,64.7a.761.761,0,0,1-.431-.133l-2.993-2.031a.774.774,0,0,1,0-1.276L28.9,59.226a.771.771,0,0,1,.866,1.276l-.916.622h8.6A.771.771,0,0,1,38.22,61.9Zm-15.076,9.1h-1.9V66.673a.771.771,0,1,0-1.542,0v4.318h-2.59V63.945a4.126,4.126,0,0,0,2.218-1.353c.395.073.794.159,1.184.259,1.2.308,2.626.962,2.626,2.32v5.819ZM9.537,65.172c0-1.451,1.646-2.075,2.626-2.318.395-.1.8-.184,1.193-.255a4.1,4.1,0,0,0,2.218,1.346v7.046H12.979V66.673a.771.771,0,0,0-1.542,0v4.318h-1.9Zm6.808-3.883a3.747,3.747,0,0,0,1.079-.159v.52a.761.761,0,0,0,.15.455,2.174,2.174,0,0,1-2.458,0,.777.777,0,0,0,.145-.45V61.13a3.732,3.732,0,0,0,1.084.159Zm-3.034-5.182.594-1.575a8.237,8.237,0,0,0,2.875.088,9.1,9.1,0,0,0,1.837-.428l.762,1.919c-.227,2.052-1.538,3.636-3.034,3.636S13.533,58.161,13.311,56.107ZM12.3,51.6a8.849,8.849,0,0,1,.358-1.749,2.737,2.737,0,0,0,1.655.563H17.7a.578.578,0,0,1,.027.186.771.771,0,0,0,.771.771h.263a1.52,1.52,0,0,1,1.215.485,1.2,1.2,0,0,1,.159,1.036l-.141.575-.227-.576a.774.774,0,0,0-1.066-.4,6.819,6.819,0,0,1-2.118.6,5.628,5.628,0,0,1-2.817-.222.773.773,0,0,0-1.039.429l-.29.769A7.279,7.279,0,0,1,12.3,51.6ZM20.9,61.359c-.581-.15-1.878-.381-1.932-.389v-.706a6.182,6.182,0,0,0,1.959-4.131l.7-2.87a2.682,2.682,0,0,0-.445-2.355,2.93,2.93,0,0,0-2.05-1.057,1.482,1.482,0,0,0-1.447-.976h-3.37a1.135,1.135,0,0,1-.744-.273.429.429,0,0,1-.109-.36.771.771,0,0,0-1.216-.676c-.73.518-1.247,2.147-1.438,3.532a7.413,7.413,0,0,0,.966,5.2,6.14,6.14,0,0,0,1.941,3.971v.713c-.054.008-1.338.234-1.928.38-2.408.6-3.8,1.988-3.8,3.815v6.59a.774.774,0,0,0,.771.771H23.915a.771.771,0,0,0,.771-.771v-6.59C24.686,63.341,23.343,61.987,20.9,61.359Zm33.35,9.632h-1.9V66.673a.771.771,0,0,0-1.542,0v4.318h-2.59V63.945A4.136,4.136,0,0,0,50.434,62.6c.395.071.794.156,1.193.255.98.243,2.622.867,2.622,2.318v5.819ZM40.642,65.172c0-1.358,1.429-2.011,2.631-2.32q.585-.151,1.184-.259a4.094,4.094,0,0,0,2.218,1.352v7.046h-2.59V66.673a.771.771,0,0,0-1.542,0v4.318h-1.9Zm6.8-3.883a3.778,3.778,0,0,0,1.084-.159v.527a.777.777,0,0,0,.145.45,2.174,2.174,0,0,1-2.458,0,.792.792,0,0,0,.15-.455v-.52A3.723,3.723,0,0,0,47.445,61.289Zm-3.034-5.177.762-1.919a9.039,9.039,0,0,0,1.837.428,8.207,8.207,0,0,0,2.871-.088l.6,1.575c-.222,2.055-1.533,3.641-3.034,3.641S44.637,58.164,44.411,56.112Zm-.594-4.253a1.51,1.51,0,0,1,1.211-.485h.268a.771.771,0,0,0,.771-.771.578.578,0,0,1,.027-.186h3.374a2.719,2.719,0,0,0,1.655-.563,8.511,8.511,0,0,1,.363,1.749,7.4,7.4,0,0,1-.132,2.465L51.06,53.3a.761.761,0,0,0-.422-.438.776.776,0,0,0-.612.009,5.635,5.635,0,0,1-2.817.222,6.786,6.786,0,0,1-2.118-.6.774.774,0,0,0-1.066.4l-.227.576-.141-.575a1.2,1.2,0,0,1,.159-1.036ZM52,61.357c-.59-.146-1.873-.371-1.928-.38v-.713a6.139,6.139,0,0,0,1.941-3.97,7.416,7.416,0,0,0,.966-5.2c-.191-1.385-.712-3.014-1.438-3.531a.771.771,0,0,0-1.216.677.443.443,0,0,1-.109.359,1.139,1.139,0,0,1-.748.273H46.1a1.478,1.478,0,0,0-1.447.976,2.93,2.93,0,0,0-2.05,1.057,2.682,2.682,0,0,0-.445,2.355l.7,2.87a6.162,6.162,0,0,0,1.959,4.131v.706c-.059.008-1.352.239-1.932.389-2.445.628-3.792,1.982-3.792,3.813v6.59a.771.771,0,0,0,.771.771H55.019a.771.771,0,0,0,.771-.771v-6.59C55.79,63.346,54.407,61.955,52,61.357ZM40.252,31.565a.774.774,0,0,1,.848-.689,9.018,9.018,0,0,1,8.069,10.872.772.772,0,0,1-.757.624.783.783,0,0,1-.145-.014.773.773,0,0,1-.612-.9,7.475,7.475,0,0,0-6.713-9.044.774.774,0,0,1-.689-.845Zm-.494,2.544a.775.775,0,0,0,.689.845,5.154,5.154,0,0,1,4.631,6.236.77.77,0,0,0,.608.9.794.794,0,0,0,.15.014.764.764,0,0,0,.753-.624,6.689,6.689,0,0,0-5.982-8.064.772.772,0,0,0-.848.688Zm-.494,2.544a.774.774,0,0,0,.689.845A2.825,2.825,0,0,1,42.5,40.928a.773.773,0,0,0,.612.9.747.747,0,0,0,.145.015.773.773,0,0,0,.757-.624,4.368,4.368,0,0,0-3.9-5.257.773.773,0,0,0-.848.689ZM25.289,47.447a12.383,12.383,0,0,0,1.125,4.477,11.318,11.318,0,0,0-1.569.7,9.177,9.177,0,0,1-2.15-5.182h2.594Zm1.129-6.017a12.434,12.434,0,0,0-1.134,4.475h-2.59a9.178,9.178,0,0,1,2.15-5.182A11.617,11.617,0,0,0,26.418,41.43Zm.748-1.378A10.326,10.326,0,0,1,26,39.58a9.242,9.242,0,0,1,2.8-1.6A12.509,12.509,0,0,0,27.167,40.053Zm9.457,0a12.734,12.734,0,0,0-1.628-2.072,9.286,9.286,0,0,1,2.8,1.6,10.677,10.677,0,0,1-1.17.472ZM38.5,45.906H41.1a9.209,9.209,0,0,0-2.15-5.182,11.631,11.631,0,0,1-1.574.707A12.334,12.334,0,0,1,38.5,45.906Zm-1.125,6.019A12.476,12.476,0,0,0,38.5,47.447H41.1a9.208,9.208,0,0,1-2.15,5.182A11.546,11.546,0,0,0,37.376,51.924ZM36.628,53.3a10.324,10.324,0,0,1,1.166.469A9.232,9.232,0,0,1,35,55.368,12.273,12.273,0,0,0,36.628,53.3Zm-7.846,2.065A9.207,9.207,0,0,1,26,53.772a10.6,10.6,0,0,1,1.161-.469,12.5,12.5,0,0,0,1.624,2.065Zm2.34-2.779a15.713,15.713,0,0,0-2.395.293,10.935,10.935,0,0,0,2.395,2.5Zm0-5.142v3.589a16.74,16.74,0,0,0-3.216.44,10.968,10.968,0,0,1-1.075-4.029Zm0-5.131v3.589H26.831a10.806,10.806,0,0,1,1.07-4.03A16.661,16.661,0,0,0,31.121,42.317Zm0-1.553V37.97a11.005,11.005,0,0,0-2.4,2.5A15.7,15.7,0,0,0,31.121,40.763Zm1.542,0a15.829,15.829,0,0,0,2.4-.293,10.928,10.928,0,0,0-2.4-2.5Zm0,5.142V42.317a16.709,16.709,0,0,0,3.225-.441,10.805,10.805,0,0,1,1.07,4.03Zm0,5.131V47.447h4.291a10.878,10.878,0,0,1-1.075,4.029A16.643,16.643,0,0,0,32.664,51.036Zm0,1.553v2.793a10.842,10.842,0,0,0,2.395-2.5A15.586,15.586,0,0,0,32.664,52.59Zm-.771,4.86A10.773,10.773,0,1,1,42.669,46.677,10.787,10.787,0,0,1,31.893,57.45Z" transform="translate(0 0)" fill="#57a4ff" fill-rule="evenodd"/>
  </g>
</svg>
