<svg xmlns="http://www.w3.org/2000/svg" width="27.383" height="42.215" viewBox="0 0 27.383 42.215">
  <g id="_x33_2_Hourglass" transform="translate(-89.957 -0.02)">
    <g id="Group_6771" data-name="Group 6771" transform="translate(89.957 0.02)">
      <path id="Path_5807" data-name="Path 5807" d="M115.247,38h-.557V35.62a15.944,15.944,0,0,0-6.55-12.773,2.124,2.124,0,0,1,0-3.438A15.958,15.958,0,0,0,114.69,6.635V4.25h.557a2.115,2.115,0,0,0,0-4.23H92.05a2.115,2.115,0,0,0,0,4.23h.557V6.635a15.946,15.946,0,0,0,6.545,12.773,2.126,2.126,0,0,1,0,3.438,15.944,15.944,0,0,0-6.55,12.773V38H92.05a2.115,2.115,0,0,0,0,4.23h23.2a2.115,2.115,0,0,0,0-4.23ZM93.913,35.62A14.627,14.627,0,0,1,99.932,23.9a3.435,3.435,0,0,0,0-5.545,14.635,14.635,0,0,1-6.015-11.72V4.25h19.471V6.635a14.635,14.635,0,0,1-6.015,11.72,3.435,3.435,0,0,0,0,5.545,14.627,14.627,0,0,1,6.019,11.72V38H93.913Z" transform="translate(-89.957 -0.02)" fill="#b3b4b6"/>
      <path id="Path_5808" data-name="Path 5808" d="M172.192,193a7.826,7.826,0,0,0-.849-.609,7.434,7.434,0,0,1-3.6-6.294v-4.715a1.832,1.832,0,0,1,1.232-1.755,6.072,6.072,0,0,0,2.452-1.519c.271-.275.522-.565.765-.86h-10.2c.243.3.494.585.765.86a6.071,6.071,0,0,0,2.452,1.519,1.832,1.832,0,0,1,1.232,1.755v4.715a7.434,7.434,0,0,1-3.6,6.294,7.808,7.808,0,0,0-.849.608,7.1,7.1,0,0,0-2.887,5.428v.4h15.98v-.4A7.1,7.1,0,0,0,172.192,193Z" transform="translate(-153.399 -162.631)" fill="#d4d7da"/>
    </g>
  </g>
</svg>
