<svg xmlns="http://www.w3.org/2000/svg" width="40.033" height="40.033" viewBox="0 0 40.033 40.033">
  <g id="remove" transform="translate(0 0)">
    <path id="Path_5826" data-name="Path 5826" d="M222.468,171.044h-2.4v-3.959h-2.346v6.305h4.746Z" transform="translate(-200.698 -154.021)" fill="#b3b4b6"/>
    <path id="Path_5827" data-name="Path 5827" d="M35.358,24.266A18.171,18.171,0,1,0,24.266,35.358,8.3,8.3,0,1,0,35.358,24.266ZM18.2,34.047a15.85,15.85,0,1,1,14.921-10.5,8.311,8.311,0,0,0-2.506-.04,13.513,13.513,0,1,0-7.1,7.1,8.314,8.314,0,0,0,.04,2.506,15.774,15.774,0,0,1-5.351.93ZM17.024,26.23v3.064a11.108,11.108,0,0,1-5.841-2.425l2.163-2.163-1.659-1.659L9.524,25.211A11.107,11.107,0,0,1,7.1,19.369h3.064V17.024H7.1a11.108,11.108,0,0,1,2.425-5.841l2.162,2.163,1.659-1.659L11.183,9.524A11.108,11.108,0,0,1,17.024,7.1v3.064h2.346V7.1a11.108,11.108,0,0,1,5.841,2.425l-2.162,2.163,1.659,1.659,2.162-2.163a11.108,11.108,0,0,1,2.425,5.841H26.231v2.346h3.064A11.1,11.1,0,0,1,27.2,24.78q-.229.15-.448.314l-2.046-2.046-1.659,1.659,2.046,2.046q-.164.219-.314.448a11.1,11.1,0,0,1-5.411,2.093V26.23ZM31.732,37.687a5.955,5.955,0,1,1,5.955-5.955A5.962,5.962,0,0,1,31.732,37.687Z" transform="translate(0)" fill="#b3b4b6"/>
    <path id="Path_5828" data-name="Path 5828" d="M365.807,390.833h6.259v2.346h-6.259Z" transform="translate(-337.205 -360.274)" fill="#b3b4b6"/>
  </g>
</svg>
