<svg xmlns="http://www.w3.org/2000/svg" width="47.514" height="52.54" viewBox="0 0 47.514 52.54">
  <g id="remote-working_1_" data-name="remote-working (1)" transform="translate(-31.825 -8.115)">
    <path id="Path_5964" data-name="Path 5964" d="M164.164,108.474a2.677,2.677,0,0,0,1.716-.593,1.649,1.649,0,0,0,0-2.646,2.781,2.781,0,0,0-3.433,0,1.649,1.649,0,0,0,0,2.646A2.677,2.677,0,0,0,164.164,108.474Zm9.683-6.875-1,9.655H155.484l-1-9.655Zm-5.359-29.148c-.153-.055-.3-.116-.455-.18l-.843-.358.731-.552a7.8,7.8,0,0,1,1.087-.686l2.239-1.17-1.58,1.971q-.3.369-.555.766l-.229.352Zm3.814-2.608-.871.734A9.263,9.263,0,0,0,170,72.092l-.52.691.852.149a13.065,13.065,0,0,0,1.411.166l.564.036Zm1.507.734a9.254,9.254,0,0,1,1.436,1.515l.52.691-.852.149a13.064,13.064,0,0,1-1.411.166l-.564.036V69.843Zm2.423.1L174,69.5l1.578,1.971q.3.37.555.767l.229.352.395-.143c.153-.056.3-.116.455-.18l.844-.358-.732-.552A7.82,7.82,0,0,0,176.233,70.674Zm.517,12.094c.155.056.307.117.458.181l.845.358-.733.553a7.827,7.827,0,0,1-1.094.689L174,85.709l1.566-1.96q.3-.372.558-.771l.229-.352Zm-3.811,2.609.871-.735a9.2,9.2,0,0,0,1.433-1.516l.518-.691-.851-.148a13.1,13.1,0,0,0-1.407-.165l-.564-.036v3.292Zm-1.508-.735A9.2,9.2,0,0,1,170,83.127l-.518-.691.851-.148a13.128,13.128,0,0,1,1.407-.165l.564-.036v3.292Zm-2.417-.093,2.232,1.166-1.573-1.966q-.3-.372-.558-.771l-.229-.352-.4.143c-.154.056-.307.117-.458.181l-.845.359.733.552A7.873,7.873,0,0,0,169.014,84.549Zm-10.048,7.557a5.2,5.2,0,1,1,5.2,5.2h-.006A5.2,5.2,0,0,1,158.967,92.106Z" transform="translate(-109.657 -54.883)" fill="#d4d7da" fill-rule="evenodd"/>
    <path id="Path_5965" data-name="Path 5965" d="M54.506,52.424c-.7,0-1.215-.4-1.215-.75s.52-.75,1.215-.75,1.215.4,1.215.75S55.2,52.424,54.506,52.424ZM70.8,8.115h-.463a.848.848,0,0,0,.116,1.667,7.827,7.827,0,0,1,7.031,9.471.847.847,0,0,0,.671.994.862.862,0,0,0,.163.016.848.848,0,0,0,.831-.686A9.515,9.515,0,0,0,70.8,8.115ZM54.506,49.228a2.483,2.483,0,1,0,2.911,2.446,2.712,2.712,0,0,0-2.911-2.446Zm14.666-37.7a.848.848,0,0,1,.93-.757,7.075,7.075,0,0,1,6.33,8.528.849.849,0,0,1-.831.686.864.864,0,0,1-.163-.016.848.848,0,0,1-.671-.994,5.381,5.381,0,0,0-4.838-6.517.848.848,0,0,1-.757-.93Zm-.52,2.677a.847.847,0,0,1,.929-.757,4.629,4.629,0,0,1,4.138,5.574.848.848,0,0,1-.831.686.864.864,0,0,1-.163-.015.848.848,0,0,1-.67-.994,2.936,2.936,0,0,0-2.645-3.564A.847.847,0,0,1,68.652,14.206ZM71.08,30.524h2.563L70.166,28.1a8.984,8.984,0,0,1-14.73-10.276l-.93-.649L35.37,30.524h2.563a.848.848,0,0,1,.848.848V58.959h3.44V56.688a.848.848,0,0,1,.848-.848H44.6l-.262-2.52h-.676a.848.848,0,0,1-.843-.938,11.655,11.655,0,0,1,1.037-3.708l-.227-2.189a.848.848,0,0,1,.843-.935h1.514a11.773,11.773,0,0,1,4.913-3.09,6.363,6.363,0,1,1,7.217,0,11.773,11.773,0,0,1,4.913,3.09h1.514a.848.848,0,0,1,.843.935l-.227,2.189a11.655,11.655,0,0,1,1.037,3.708.848.848,0,0,1-.843.938h-.677l-.262,2.52h1.531a.848.848,0,0,1,.848.848v2.271h3.44V31.372a.848.848,0,0,1,.848-.848ZM65.1,57.535v1.424H43.916V57.535Zm-10.59-13.95h0a10.067,10.067,0,0,1,5.966,1.964H48.537A10.07,10.07,0,0,1,54.5,43.586Zm-4.668-6.363a4.667,4.667,0,1,1,4.67,4.667H54.5A4.673,4.673,0,0,1,49.839,37.223ZM45.411,47.245l.893,8.6h16.4l.893-8.6ZM70.205,21.879H68.547a10.3,10.3,0,0,0-.821-3.3,9.682,9.682,0,0,0,.92-.414A7.255,7.255,0,0,1,70.205,21.879Zm-1.559,5.412a9.512,9.512,0,0,0-.924-.415,10.384,10.384,0,0,0,.823-3.3h1.66A7.256,7.256,0,0,1,68.646,27.291Zm-1.734,1.092c.147.053.291.111.432.171a7.294,7.294,0,0,1-1.02.642Q66.638,28.8,66.912,28.383Zm-7.9,0q.273.42.588.813a7.328,7.328,0,0,1-1.02-.642C58.723,28.494,58.867,28.437,59.014,28.383Zm-1.633-4.809a10.39,10.39,0,0,0,.823,3.3,9.517,9.517,0,0,0-.924.415,7.259,7.259,0,0,1-1.559-3.716Zm1.63-6.506c-.146-.053-.288-.11-.428-.169a7.25,7.25,0,0,1,1.014-.639Q59.283,16.651,59.011,17.069Zm7.319-.809a7.294,7.294,0,0,1,1.014.639c-.14.059-.282.116-.428.169Q66.643,16.652,66.33,16.261Zm-2.519,1.426V16.1a8.723,8.723,0,0,1,1.354,1.429A12.545,12.545,0,0,1,63.811,17.686Zm0,4.193v-2.49a13.768,13.768,0,0,0,2.279-.314,8.6,8.6,0,0,1,.757,2.8H63.811Zm0,4.185v-2.49h3.033a8.678,8.678,0,0,1-.759,2.8A13.877,13.877,0,0,0,63.811,26.064Zm0,3.29V27.767a12.592,12.592,0,0,1,1.35.159A8.656,8.656,0,0,1,63.811,29.354Zm-1.7-1.587v1.587a8.665,8.665,0,0,1-1.35-1.429,12.62,12.62,0,0,1,1.35-.159Zm0-4.192v2.49a13.882,13.882,0,0,0-2.274.313,8.679,8.679,0,0,1-.759-2.8Zm0-4.185v2.49H59.08a8.6,8.6,0,0,1,.757-2.8A13.782,13.782,0,0,0,62.115,19.389Zm0-1.7a12.543,12.543,0,0,1-1.354-.159A8.723,8.723,0,0,1,62.115,16.1Zm-4.835.477a9.673,9.673,0,0,0,.92.414,10.3,10.3,0,0,0-.821,3.3H55.721A7.259,7.259,0,0,1,57.28,18.163ZM76.825,30.676,71.05,26.648A8.983,8.983,0,0,0,56.5,16.494l-1.5-1.049a.847.847,0,0,0-.97,0L32.188,30.676a.848.848,0,0,0,.485,1.543h4.413V59.807a.848.848,0,0,0,.848.847H71.08a.848.848,0,0,0,.848-.847V32.22H76.34a.848.848,0,0,0,.485-1.543Z" transform="translate(0)" fill="#b3b4b6" fill-rule="evenodd"/>
  </g>
</svg>
