<svg xmlns="http://www.w3.org/2000/svg" width="44.329" height="44.15" viewBox="0 0 44.329 44.15">
  <g id="leave_6_" data-name="leave (6)" transform="translate(0 0)">
    <path id="Path_5137" data-name="Path 5137" d="M26.953,59.085a.268.268,0,1,0-.378-.38l-.71.71-.709-.71a.268.268,0,0,0-.379.38l.709.709-.709.709a.268.268,0,0,0,0,.38.268.268,0,0,0,.379,0l.708-.709.71.709a.268.268,0,1,0,.379-.379l-.708-.708Zm4.748.709.71-.709a.269.269,0,0,0-.38-.38l-.709.71-.709-.71a.268.268,0,0,0-.379.38l.708.709-.708.708a.268.268,0,1,0,.379.38l.709-.709.709.709a.269.269,0,0,0,.379,0,.269.269,0,0,0,0-.379Zm.311-9.192h1.444a1,1,0,0,0,1-1V47.16h4.656v2.446a1,1,0,0,0,1,1h1.444a1,1,0,0,0,1-1V47.16H47.2v2.446a1,1,0,0,0,1,1h1.443a1,1,0,0,0,1-1V47.16h1.282A2.645,2.645,0,0,1,54.558,49.8v3.174H19V49.8a2.645,2.645,0,0,1,2.643-2.643h1.282v2.446a1,1,0,0,0,1,1h1.442a1,1,0,0,0,1-1V47.16h4.656v2.446a1,1,0,0,0,1,1ZM28.326,62.254H23.4V57.332h4.922Zm.536-4.922h4.921v4.922H28.862Zm5.457,0H39.24v4.922H34.319ZM28.326,67.711H23.4V62.791h4.922Zm.536-4.921h4.921v4.921H28.862Zm5.457,0H39.24v4.921H34.319ZM28.326,73.169H23.4V68.248h4.922ZM42.753,71.5h3.255v1.667a1.016,1.016,0,0,0,1.014,1.013h6.8a1.016,1.016,0,0,0,1.014-1.013V71.5h3.255v3.158a1.669,1.669,0,0,1-.944,1.366c-1.116.707-3.445.95-4.744,1.036l-.3.02-.133-.267a1.729,1.729,0,0,0-3.1,0l-.132.266-.3-.019c-1.3-.085-3.626-.329-4.744-1.037a1.667,1.667,0,0,1-.943-1.366V71.5Zm7.667,4.887a1.194,1.194,0,1,0,1.194,1.194A1.2,1.2,0,0,0,50.42,76.385Z" transform="translate(-18.019 -43.75)" fill="#d4d7da" fill-rule="evenodd"/>
    <path id="Path_5138" data-name="Path 5138" d="M19.9,24.652a.715.715,0,0,1,1.011-1.012l.393.393.393-.393a.716.716,0,0,1,1.012,1.012l-.393.393.393.393A.715.715,0,0,1,21.7,26.449l-.393-.393-.393.393A.715.715,0,1,1,19.9,25.438l.393-.393Zm-5.458.785.393-.393-.393-.393a.715.715,0,1,1,1.011-1.012l.393.393.393-.393a.715.715,0,0,1,1.011,1.012l-.393.393.393.393a.715.715,0,1,1-1.011,1.011l-.393-.393-.393.393a.715.715,0,1,1-1.011-1.011ZM46.468,46.909H34.335a.453.453,0,0,1-.447-.447V42.471a15.92,15.92,0,0,0,4.384.816,2.178,2.178,0,0,0,4.26,0,15.964,15.964,0,0,0,4.383-.815v3.992A.452.452,0,0,1,46.468,46.909Zm-5.32-4.079a.748.748,0,1,0-.747.748A.748.748,0,0,0,41.148,42.831ZM33.181,37.2h2.361v1.221A1.463,1.463,0,0,0,37,39.877h6.8a1.463,1.463,0,0,0,1.461-1.46V37.2h2.361v2.711c0,.243-.084.576-.736.989a11.342,11.342,0,0,1-4.534.968,2.176,2.176,0,0,0-3.9,0,11.31,11.31,0,0,1-4.534-.969c-.653-.413-.735-.746-.735-.989V37.2Zm4.837-1.959a.528.528,0,0,1,.528-.527h3.711a.529.529,0,0,1,.528.527v.528H38.018v-.528ZM36.972,37.2v1.221a.033.033,0,0,0,.031.03h6.8a.033.033,0,0,0,.031-.03V37.2Zm12.08-.12a1.312,1.312,0,0,0-1.31-1.31H44.215v-.528a1.96,1.96,0,0,0-1.958-1.957H38.546a1.96,1.96,0,0,0-1.958,1.957v.528H33.061a1.311,1.311,0,0,0-1.31,1.31v2.831a2.289,2.289,0,0,0,.707,1.645v4.91a1.879,1.879,0,0,0,1.877,1.877H46.468a1.878,1.878,0,0,0,1.876-1.877v-4.91a2.289,2.289,0,0,0,.708-1.645V37.077ZM40.4,51.721a10.5,10.5,0,1,0-10.5-10.5A10.51,10.51,0,0,0,40.4,51.721ZM35.663,28.489H39.69v.828a11.852,11.852,0,0,0-4.027.961Zm-3.4,4.027H30.2V28.489h4.028v2.529A12.024,12.024,0,0,0,32.258,32.516ZM30.2,33.946h.753a11.88,11.88,0,0,0-.753,1.093Zm-5.457,0h4.027v4.028H24.748Zm-5.457,0h4.027v4.028H19.29Zm-5.458,0h4.028v4.028H13.833Zm0-5.457h4.028v4.027H13.833Zm4.028-1.43V23.031H13.833v4.028Zm5.457,0V23.031H19.29v4.028Zm0,5.457H19.29V28.489h4.027Zm1.43-4.027h4.027v4.027H24.748Zm4.027-1.43H24.748V23.031h4.027Zm5.458,0H30.2V23.031h4.028Zm5.457,0H35.663V23.031H39.69ZM11.626,41.772h16.86c-.008-.182-.013-.365-.013-.549a12.02,12.02,0,0,1,.139-1.82H13.118a.715.715,0,0,1-.715-.715V22.316a.715.715,0,0,1,.715-.715H40.405a.715.715,0,0,1,.715.715v7a11.833,11.833,0,0,1,2.972.563V19.211H9.43V39.577a2.2,2.2,0,0,0,2.2,2.2Zm0-28.914h.835v2A1.445,1.445,0,0,0,13.9,16.3h1.442a1.444,1.444,0,0,0,1.443-1.443v-2h3.763v2A1.444,1.444,0,0,0,21.994,16.3h1.444a1.444,1.444,0,0,0,1.443-1.443v-2h3.763v2A1.444,1.444,0,0,0,30.085,16.3h1.444a1.444,1.444,0,0,0,1.442-1.443v-2h3.763v2A1.444,1.444,0,0,0,38.176,16.3h1.443a1.444,1.444,0,0,0,1.443-1.443v-2H41.9a2.2,2.2,0,0,1,2.2,2.2v2.727H9.43V15.054a2.2,2.2,0,0,1,2.2-2.2Zm2.265-2.415v4.414a.014.014,0,0,0,.013.013h1.442a.014.014,0,0,0,.013-.013V10.443a.014.014,0,0,0-.013-.012H13.9A.015.015,0,0,0,13.891,10.443Zm8.091,0v4.414a.014.014,0,0,0,.012.013h1.444a.014.014,0,0,0,.013-.013V10.443a.014.014,0,0,0-.013-.012H21.994A.015.015,0,0,0,21.982,10.443Zm8.091,0v4.414a.014.014,0,0,0,.013.013h1.444a.014.014,0,0,0,.013-.013V10.443a.014.014,0,0,0-.013-.012H30.085A.015.015,0,0,0,30.072,10.443Zm8.091,0v4.414a.014.014,0,0,0,.013.013h1.443a.014.014,0,0,0,.013-.013V10.443a.015.015,0,0,0-.013-.012H38.176A.015.015,0,0,0,38.163,10.443Zm7.359,20.009V18.5h0V15.054A3.63,3.63,0,0,0,41.9,11.428h-.835v-.985A1.444,1.444,0,0,0,39.619,9H38.176a1.444,1.444,0,0,0-1.443,1.442v.985H32.971v-.985A1.444,1.444,0,0,0,31.528,9H30.085a1.444,1.444,0,0,0-1.442,1.442v.985H24.88v-.985A1.444,1.444,0,0,0,23.437,9H21.994a1.444,1.444,0,0,0-1.442,1.442v.985H16.789v-.985A1.444,1.444,0,0,0,15.346,9H13.9a1.445,1.445,0,0,0-1.444,1.442v.985h-.835A3.63,3.63,0,0,0,8,15.054V39.577A3.63,3.63,0,0,0,11.626,43.2H28.638a11.928,11.928,0,1,0,16.884-12.75Z" transform="translate(-8 -9.001)" fill="#b3b4b6" fill-rule="evenodd"/>
  </g>
</svg>
