<svg xmlns="http://www.w3.org/2000/svg" width="42.797" height="52" viewBox="0 0 42.797 52">
  <g id="Group_6094" data-name="Group 6094" transform="translate(-54.776 -130)">
    <g id="Group_6040" data-name="Group 6040" transform="translate(54.776 130)">
      <path id="Path_5139" data-name="Path 5139" d="M42.248,5.97V46.756H12.04V50H45.55V5.97Z" transform="translate(-8.041 -1.988)" fill="#d4d7da"/>
      <path id="Path_5140" data-name="Path 5140" d="M16.731,2.04,8.11,10.367v35.7H42.19V2.04Z" transform="translate(-7.427 -1.374)" fill="#fff"/>
      <ellipse id="Ellipse_470" data-name="Ellipse 470" cx="12.206" cy="12.207" rx="12.206" ry="12.207" transform="translate(7.871 17.319)" fill="#d4d7da"/>
      <path id="Path_5141" data-name="Path 5141" d="M35.94,41.97a8.721,8.721,0,1,1,0-12.333A8.732,8.732,0,0,1,35.94,41.97Z" transform="translate(-9.708 -6.232)" fill="#d4d7da"/>
      <path id="Path_5142" data-name="Path 5142" d="M44.1,48.089,42.373,46.36a11.594,11.594,0,0,1-2.033,2.033l1.729,1.729a2.713,2.713,0,0,0,.717,2.505l7.786,7.786a2.7,2.7,0,1,0,3.821-3.821l-7.786-7.786a2.713,2.713,0,0,0-2.505-.717Z" transform="translate(-13.039 -9.865)" fill="#d4d7da"/>
      <path id="Path_5143" data-name="Path 5143" d="M16.681,10.611V1.99L8.06,10.611Z" transform="translate(-7.419 -1.366)" fill="#d4d7da"/>
      <path id="Path_5144" data-name="Path 5144" d="M36.256,29.062a9.364,9.364,0,1,0,0,13.244,9.31,9.31,0,0,0,0-13.244Zm-.894,12.35a8.1,8.1,0,1,1,0-11.456A8.046,8.046,0,0,1,35.361,41.412Z" transform="translate(-9.583 -6.118)" fill="#b3b4b6"/>
      <path id="Path_5145" data-name="Path 5145" d="M51.065,52.4l-7.795-7.8a3.346,3.346,0,0,0-2.742-.953l-1.122-1.122a12.858,12.858,0,1,0-2.927,2.927L37.6,46.568a3.293,3.293,0,0,0,.953,2.733l7.795,7.8a3.341,3.341,0,0,0,5.7-2.362,3.366,3.366,0,0,0-.987-2.345Zm-30.276-9.17a11.584,11.584,0,1,1,16.382,0,11.6,11.6,0,0,1-16.382,0ZM50.17,56.219a2.067,2.067,0,0,1-2.927,0l-7.795-7.795A2.066,2.066,0,0,1,38.9,46.5a.62.62,0,0,0-.169-.582l-1.24-1.24a.177.177,0,0,0,.034-.051c.186-.169.38-.321.557-.506s.329-.363.5-.548c.017-.017.042-.025.051-.042l1.24,1.24a.62.62,0,0,0,.582.169,2.072,2.072,0,0,1,1.923.548l7.795,7.8a2.067,2.067,0,0,1,0,2.927Z" transform="translate(-9.255 -6.083)" fill="#b3b4b6"/>
      <path id="Path_5147" data-name="Path 5147" d="M23.8,6.965H39.788a.633.633,0,0,0,0-1.265H23.8a.633.633,0,1,0,0,1.265Z" transform="translate(-10.075 -1.946)" fill="#b3b4b6"/>
      <path id="Path_5148" data-name="Path 5148" d="M39.8,9.67h-16a.633.633,0,0,0,0,1.265h16a.633.633,0,0,0,0-1.265Z" transform="translate(-10.074 -2.567)" fill="#b3b4b6"/>
      <path id="Path_5149" data-name="Path 5149" d="M41.2,13.68H32.8a.633.633,0,0,0,0,1.265h8.4a.633.633,0,0,0,0-1.265Z" transform="translate(-11.546 -3.507)" fill="#b3b4b6"/>
      <path id="Path_5150" data-name="Path 5150" d="M41.2,17.68H32.8a.633.633,0,1,0,0,1.265h8.4a.633.633,0,1,0,0-1.265Z" transform="translate(-11.546 -4.233)" fill="#b3b4b6"/>
      <path id="Path_5151" data-name="Path 5151" d="M38.85,48.734H11.863V46.707H35.542a.613.613,0,1,0,0-1.226h-27V10.838h7.879a.623.623,0,0,0,.623-.613V2.476H40.92V37.952a.623.623,0,0,0,1.247,0V5.729h2.061V40.9a.623.623,0,0,0,1.247,0V5.116a.623.623,0,0,0-.623-.613H42.167V1.863a.623.623,0,0,0-.623-.613H16.434a.628.628,0,0,0-.441.18L7.483,9.792a.607.607,0,0,0-.183.433v35.86a.623.623,0,0,0,.623.613h2.685v2.64a.623.623,0,0,0,.623.613H38.842a.623.623,0,0,0,.623-.613A.609.609,0,0,0,38.85,48.734ZM15.811,3.343v6.27H9.428Z" transform="translate(-7.3 -1.25)" fill="#b3b4b6"/>
      <g id="tick" transform="translate(14.379 25.097)">
        <g id="Group_6039" data-name="Group 6039" transform="translate(0)">
          <path id="Path_5239" data-name="Path 5239" d="M11.192,69.081a.7.7,0,0,0-.993,0L4.433,76.117,1.2,72.883a.7.7,0,0,0-.993.993l3.731,3.731a.7.7,0,0,0,.993,0l6.263-7.533A.7.7,0,0,0,11.192,69.081Z" transform="translate(0 -68.875)" fill="#b3b4b6"/>
        </g>
      </g>
    </g>
  </g>
</svg>
