<svg xmlns="http://www.w3.org/2000/svg" width="44.08" height="48" viewBox="0 0 44.08 48">
  <g id="Group_14663" data-name="Group 14663" transform="translate(6981 -857.9)">
    <g id="Group_14662" data-name="Group 14662" transform="translate(-4 -119.351)">
      <g id="Group_14661" data-name="Group 14661">
        <path id="Path_34417" data-name="Path 34417" d="M6-5.714H31.429L32.286,37H0V0Z" transform="translate(-6976 984)" fill="#d4d7da"/>
        <g id="validity" transform="translate(-6979.96 976.251)">
          <path id="Path_34399" data-name="Path 34399" d="M13.12,17.44H31.67a.75.75,0,0,0,0-1.5H13.12a.75.75,0,0,0,0,1.5Z" fill="#b3b4b6"/>
          <path id="Path_34400" data-name="Path 34400" d="M7.85,17.44H9.58a.75.75,0,0,0,0-1.5H7.85a.75.75,0,0,0,0,1.5Z" fill="#b3b4b6"/>
          <path id="Path_34401" data-name="Path 34401" d="M13.12,21.59H31.67a.75.75,0,0,0,0-1.5H13.12a.75.75,0,1,0,0,1.5Z" fill="#b3b4b6"/>
          <path id="Path_34402" data-name="Path 34402" d="M7.85,21.59H9.58a.75.75,0,0,0,0-1.5H7.85a.755.755,0,0,0-.75.75A.743.743,0,0,0,7.85,21.59Z" fill="#b3b4b6"/>
          <path id="Path_34403" data-name="Path 34403" d="M32.37,24.25H13.12a.75.75,0,1,0,0,1.5H32.37a.75.75,0,0,0,0-1.5Z" fill="#b3b4b6"/>
          <path id="Path_34404" data-name="Path 34404" d="M7.85,25.75H9.58a.75.75,0,0,0,0-1.5H7.85a.75.75,0,0,0,0,1.5Z" fill="#b3b4b6"/>
          <path id="Path_34405" data-name="Path 34405" d="M29.24,28.4H13.12a.75.75,0,0,0,0,1.5H29.24a.75.75,0,0,0,0-1.5Z" fill="#b3b4b6"/>
          <path id="Path_34406" data-name="Path 34406" d="M7.85,29.9H9.58a.75.75,0,0,0,0-1.5H7.85a.755.755,0,0,0-.75.75A.743.743,0,0,0,7.85,29.9Z" fill="#b3b4b6"/>
          <path id="Path_34407" data-name="Path 34407" d="M13.12,34.06H27.51a.75.75,0,1,0,0-1.5H13.12a.75.75,0,0,0,0,1.5Z" fill="#b3b4b6"/>
          <path id="Path_34408" data-name="Path 34408" d="M7.85,34.06H9.58a.75.75,0,0,0,0-1.5H7.85a.75.75,0,0,0,0,1.5Z" fill="#b3b4b6"/>
          <path id="Path_34409" data-name="Path 34409" d="M13.12,38.21H28.03a.75.75,0,1,0,0-1.5H13.12a.75.75,0,0,0,0,1.5Z" fill="#b3b4b6"/>
          <path id="Path_34410" data-name="Path 34410" d="M7.85,38.21H9.58a.75.75,0,0,0,0-1.5H7.85a.75.75,0,0,0,0,1.5Z" fill="#b3b4b6"/>
          <path id="Path_34411" data-name="Path 34411" d="M13.12,40.86a.75.75,0,0,0,0,1.5H29.24a.75.75,0,0,0,0-1.5Z" fill="#b3b4b6"/>
          <path id="Path_34412" data-name="Path 34412" d="M7.85,42.36H9.58a.75.75,0,0,0,0-1.5H7.85a.755.755,0,0,0-.75.75A.743.743,0,0,0,7.85,42.36Z" fill="#b3b4b6"/>
          <path id="Path_34413" data-name="Path 34413" d="M32.19,4.59H12.46a.749.749,0,0,0-.75.75v8.43a.755.755,0,0,0,.75.75H32.19a.749.749,0,0,0,.75-.75V5.34A.743.743,0,0,0,32.19,4.59Zm-2.68,7.14H15.15a.75.75,0,0,1,0-1.5H29.51a.75.75,0,0,1,0,1.5Zm0-2.86H15.15a.75.75,0,0,1,0-1.5H29.51a.75.75,0,1,1,0,1.5Z" fill="#b3b4b6"/>
          <path id="Path_34414" data-name="Path 34414" d="M40.12,25.64V6.59a2.544,2.544,0,0,0-2.54-2.54h-.5V3.54A2.544,2.544,0,0,0,34.54,1H9.63c-.01,0-.03.01-.04.01a.779.779,0,0,0-.21.04c-.02.01-.04.01-.06.02a.7.7,0,0,0-.21.14L3.19,6.89V6.9a.138.138,0,0,0-.03.04.657.657,0,0,0-.12.17c-.01.03-.02.05-.03.08a.647.647,0,0,0-.04.2c0,.01-.01.02-.01.04V43.41A2.544,2.544,0,0,0,5.5,45.95H6v.51A2.544,2.544,0,0,0,8.54,49H37.58a2.544,2.544,0,0,0,2.54-2.54V42.9a8.841,8.841,0,0,0,0-17.26ZM35.58,43.41a1.046,1.046,0,0,1-1.04,1.04H5.5a1.046,1.046,0,0,1-1.04-1.04V8.18H9.63a.749.749,0,0,0,.75-.75V2.5H34.54a1.046,1.046,0,0,1,1.04,1.04V25.82a8.846,8.846,0,0,0,0,16.9Z" fill="#b3b4b6"/>
          <path id="Path_34415" data-name="Path 34415" d="M42.65,31.67l-5.74,5.74a.375.375,0,0,1-.55,0l-2.62-2.62a.392.392,0,0,1,0-.55.415.415,0,0,1,.27-.11.386.386,0,0,1,.27.11l1.82,1.83a.767.767,0,0,0,1.07,0l4.94-4.95a.38.38,0,0,1,.54,0,.392.392,0,0,1,0,.55Z" fill="#b3b4b6"/>
        </g>
        <path id="Path_34416" data-name="Path 34416" d="M16.248,28.959h.347a.175.175,0,0,1,.175.175v.886a.175.175,0,0,1-.175.175h-.347a.175.175,0,0,1-.175-.175v-.886a.175.175,0,0,1,.175-.175Zm5.836,0h.347a.175.175,0,0,1,.175.175v.886a.175.175,0,0,1-.175.175h-.347a.175.175,0,0,1-.175-.175v-.886a.175.175,0,0,1,.175-.175Zm-1.945,0h.347a.175.175,0,0,1,.175.175v.886a.175.175,0,0,1-.175.175h-.347a.175.175,0,0,1-.175-.175v-.886a.175.175,0,0,1,.175-.175Zm-1.945,0h.347a.175.175,0,0,1,.175.175v.886a.175.175,0,0,1-.175.175h-.347a.175.175,0,0,1-.175-.175v-.886a.175.175,0,0,1,.175-.175Zm2.492,7.879H15.7a.7.7,0,0,1-.7-.7v-4.9h8.678v2.911a2.268,2.268,0,0,0-2.993,2.694Zm-4.566-4.727a.082.082,0,0,0-.082.082v.613a.082.082,0,0,0,.082.082h.613a.082.082,0,0,0,.082-.082v-.613a.082.082,0,0,0-.082-.082Zm5.827,0a.082.082,0,0,0-.082.082v.613a.082.082,0,0,0,.082.082h.613a.082.082,0,0,0,.082-.082v-.613a.082.082,0,0,0-.082-.082Zm-4.37,1.457a.082.082,0,0,0-.082.082v.613a.082.082,0,0,0,.082.082h.613a.082.082,0,0,0,.082-.082V33.65a.082.082,0,0,0-.082-.082Zm1.457-1.457a.082.082,0,0,0-.082.082v.613a.082.082,0,0,0,.082.082h.613a.082.082,0,0,0,.082-.082v-.613a.082.082,0,0,0-.082-.082Zm-1.457,0a.082.082,0,0,0-.082.082v.613a.082.082,0,0,0,.082.082h.613a.082.082,0,0,0,.082-.082v-.613a.082.082,0,0,0-.082-.082Zm-1.457,2.913a.082.082,0,0,0-.082.082v.613a.082.082,0,0,0,.082.082h.613a.082.082,0,0,0,.082-.082v-.613a.082.082,0,0,0-.082-.082Zm1.457,0a.082.082,0,0,0-.082.082v.613a.082.082,0,0,0,.082.082h.613a.082.082,0,0,0,.082-.082v-.613a.082.082,0,0,0-.082-.082Zm1.457,0a.082.082,0,0,0-.082.082v.613a.082.082,0,0,0,.082.082h.613a.082.082,0,0,0,.082-.082v-.613a.082.082,0,0,0-.082-.082Zm-2.914-1.457a.082.082,0,0,0-.082.082v.613a.082.082,0,0,0,.082.082h.613a.082.082,0,0,0,.082-.082V33.65a.082.082,0,0,0-.082-.082Zm4.37-1.457a.082.082,0,0,0-.082.082v.613a.082.082,0,0,0,.082.082H21.1a.082.082,0,0,0,.082-.082v-.613a.082.082,0,0,0-.082-.082Zm0,1.457a.082.082,0,0,0-.082.082v.613a.082.082,0,0,0,.082.082H21.1a.082.082,0,0,0,.082-.082V33.65a.082.082,0,0,0-.082-.082Zm-1.457,0a.082.082,0,0,0-.082.082v.613a.082.082,0,0,0,.082.082h.613a.082.082,0,0,0,.082-.082V33.65a.082.082,0,0,0-.082-.082Zm3.9-4.026h.045a.7.7,0,0,1,.7.7v.664H15v-.664a.7.7,0,0,1,.7-.7h.045v.478a.5.5,0,0,0,.5.5h.347a.5.5,0,0,0,.5-.5v-.478h.594v.478a.5.5,0,0,0,.5.5h.347a.5.5,0,0,0,.5-.5v-.478h.594v.478a.5.5,0,0,0,.5.5h.347a.5.5,0,0,0,.5-.5v-.478h.594v.478a.5.5,0,0,0,.5.5h.347a.5.5,0,0,0,.5-.5Zm-.053,8.665a1.94,1.94,0,1,1,1.94-1.94A1.944,1.944,0,0,1,22.88,38.208Zm-.255-1.769L22.191,36a.288.288,0,0,0-.407.407l.637.638a.288.288,0,0,0,.407,0c.384-.384.764-.773,1.147-1.159a.287.287,0,1,0-.408-.405Z" transform="translate(-6960.91 977.292)" fill="#d4d7da" fill-rule="evenodd"/>
      </g>
    </g>
  </g>
</svg>
