<svg xmlns="http://www.w3.org/2000/svg" width="60.01" height="46.58" viewBox="0 0 60.01 46.58">
  <g id="Group_14069" data-name="Group 14069" transform="translate(-17470 1714)">
    <g id="work-schedule" transform="translate(17468 -1722.71)">
      <path id="Path_33498" data-name="Path 33498" d="M57.83,35.85H53.85V33.26a2.58,2.58,0,0,0-2.58-2.58H44.29a2.586,2.586,0,0,0-2.58,2.58v2.59H37.72a4.17,4.17,0,0,0-4.16,4.16v2.23l2,.48,8.94,2.15v-.06a1.8,1.8,0,0,1,1.79-1.79h2.99a1.8,1.8,0,0,1,1.79,1.79v.05l8.94-2.14,2-.48V40.01a4.172,4.172,0,0,0-4.17-4.16ZM44.28,32.67h6.98a.58.58,0,0,1,.58.58v2.59H43.69V33.25a.58.58,0,0,1,.58-.58Z" fill="#b3b4b6"/>
      <path id="Path_33499" data-name="Path 33499" d="M51.06,46.93v1.62a1.8,1.8,0,0,1-1.79,1.8H46.28a1.8,1.8,0,0,1-1.79-1.8V46.93l-8.94-2.15-2-.48v6.83a4.17,4.17,0,0,0,4.16,4.16H57.83A4.172,4.172,0,0,0,62,51.13V44.3l-2,.48Z" fill="#b3b4b6"/>
      <path id="Path_33500" data-name="Path 33500" d="M46.49,45.02h2.57v3.33H46.49Z" fill="#b3b4b6"/>
      <path id="Path_33501" data-name="Path 33501" d="M30.55,45.68H7a3,3,0,0,1-3-3V23.7H46.77v3.97a1,1,0,0,0,2,0v-10a5,5,0,0,0-5-5H37.48V12a3.285,3.285,0,1,0-6.57,0v.67H19.86V12a3.285,3.285,0,1,0-6.57,0v.67H7a5,5,0,0,0-5,5V42.68a5,5,0,0,0,5,5H30.55a1,1,0,0,0,0-2ZM32.91,12a1.285,1.285,0,1,1,2.57,0v3.33a1.285,1.285,0,1,1-2.57,0ZM15.29,12a1.285,1.285,0,1,1,2.57,0v3.33a1.285,1.285,0,1,1-2.57,0Z" fill="#b3b4b6"/>
    </g>
    <text id="C-OFF" transform="translate(17473 -1686)" fill="#b3b4b6" font-size="11" font-family="Roboto-Bold, Roboto" font-weight="700"><tspan x="0" y="0">C-OFF</tspan></text>
  </g>
</svg>
