<svg xmlns="http://www.w3.org/2000/svg" width="40.328" height="49" viewBox="0 0 40.328 49">
  <g id="no-data" transform="translate(-7.3 -1.25)">
    <path id="Path_5139" data-name="Path 5139" d="M40.506,5.97V44.4H12.04v3.056H43.616V5.97Z" transform="translate(-0.972 -0.968)" fill="#d4d7da"/>
    <path id="Path_5140" data-name="Path 5140" d="M16.234,2.04,8.11,9.886V43.528H40.224V2.04Z" transform="translate(-0.166 -0.162)" fill="#fff"/>
    <circle id="Ellipse_470" data-name="Ellipse 470" cx="11.502" cy="11.502" r="11.502" transform="translate(14.717 17.57)" fill="#d4d7da"/>
    <path id="Path_5141" data-name="Path 5141" d="M35.082,41.112a8.218,8.218,0,1,1,0-11.622A8.228,8.228,0,0,1,35.082,41.112Z" transform="translate(-3.062 -6.185)" fill="#d4d7da"/>
    <path id="Path_5142" data-name="Path 5142" d="M43.885,47.99l-1.63-1.63a10.925,10.925,0,0,1-1.916,1.916l1.63,1.63a2.557,2.557,0,0,0,.676,2.361L49.982,59.6a2.546,2.546,0,0,0,3.6-3.6l-7.337-7.337a2.557,2.557,0,0,0-2.361-.676Z" transform="translate(-7.314 -10.72)" fill="#d4d7da"/>
    <path id="Path_5143" data-name="Path 5143" d="M16.184,10.114V1.99L8.06,10.114Z" transform="translate(-0.156 -0.152)" fill="#d4d7da"/>
    <g id="Group_5970" data-name="Group 5970" transform="translate(7.3 1.25)">
      <path id="Path_5144" data-name="Path 5144" d="M35.333,28.9a8.823,8.823,0,1,0,0,12.48,8.773,8.773,0,0,0,0-12.48Zm-.843,11.637a7.631,7.631,0,1,1,0-10.795A7.581,7.581,0,0,1,34.491,40.541Z" transform="translate(-10.199 -7.283)" fill="#b3b4b6"/>
      <path id="Path_5145" data-name="Path 5145" d="M49.05,50.655,41.705,43.3a3.153,3.153,0,0,0-2.583-.9l-1.057-1.057A12.116,12.116,0,1,0,35.306,44.1l1.057,1.057a3.1,3.1,0,0,0,.9,2.575l7.345,7.353a3.148,3.148,0,0,0,5.374-2.226,3.172,3.172,0,0,0-.93-2.21ZM20.521,42.014a10.916,10.916,0,1,1,15.437,0,10.934,10.934,0,0,1-15.437,0ZM48.207,54.255a1.948,1.948,0,0,1-2.758,0L38.1,46.911a1.947,1.947,0,0,1-.517-1.812.584.584,0,0,0-.159-.548L36.26,43.381a.166.166,0,0,0,.032-.048c.175-.159.358-.3.525-.477s.31-.342.469-.517c.016-.016.04-.024.048-.04L38.5,43.469a.584.584,0,0,0,.548.159,1.953,1.953,0,0,1,1.812.517L48.207,51.5a1.948,1.948,0,0,1,0,2.758Z" transform="translate(-9.652 -7.012)" fill="#b3b4b6"/>
      <path id="Path_5146" data-name="Path 5146" d="M33.891,33.015a.6.6,0,0,0-.843,0l-2.615,2.615-2.615-2.615a.6.6,0,0,0-.843.843l2.615,2.623L26.975,39.1a.6.6,0,0,0,0,.843.595.595,0,0,0,.843,0l2.615-2.615,2.615,2.615a.595.595,0,0,0,.843,0,.6.6,0,0,0,0-.843l-2.615-2.615,2.615-2.623A.6.6,0,0,0,33.891,33.015Z" transform="translate(-11.548 -8.583)" fill="#b3b4b6"/>
      <path id="Path_5147" data-name="Path 5147" d="M23.766,6.892H38.83a.6.6,0,0,0,0-1.192H23.766a.6.6,0,0,0,0,1.192Z" transform="translate(-10.83 -2.163)" fill="#b3b4b6"/>
      <path id="Path_5148" data-name="Path 5148" d="M38.836,9.67H23.756a.6.6,0,0,0,0,1.192H38.836a.6.6,0,1,0,0-1.192Z" transform="translate(-10.828 -2.977)" fill="#b3b4b6"/>
      <path id="Path_5149" data-name="Path 5149" d="M40.683,13.68H32.766a.6.6,0,1,0,0,1.192h7.917a.6.6,0,0,0,0-1.192Z" transform="translate(-12.735 -4.094)" fill="#b3b4b6"/>
      <path id="Path_5150" data-name="Path 5150" d="M40.683,17.68H32.766a.6.6,0,1,0,0,1.192h7.917a.6.6,0,0,0,0-1.192Z" transform="translate(-12.735 -5.009)" fill="#b3b4b6"/>
      <path id="Path_5151" data-name="Path 5151" d="M37.03,45.994H11.6v-1.91H33.913a.578.578,0,1,0,0-1.155H8.475V10.285H15.9a.587.587,0,0,0,.587-.578v-7.3H38.98V35.835a.587.587,0,0,0,1.175,0V5.471H42.1V38.615a.587.587,0,0,0,1.175,0V4.893a.587.587,0,0,0-.587-.578h-2.53V1.828a.587.587,0,0,0-.587-.578H15.907a.592.592,0,0,0-.415.169L7.472,9.3a.572.572,0,0,0-.172.408V43.5a.587.587,0,0,0,.587.578h2.53v2.488a.587.587,0,0,0,.587.578H37.022a.587.587,0,0,0,.587-.578A.574.574,0,0,0,37.03,45.994ZM15.32,3.222V9.13H9.3Z" transform="translate(-7.3 -1.25)" fill="#b3b4b6"/>
    </g>
  </g>
</svg>
