<svg xmlns="http://www.w3.org/2000/svg" width="48.249" height="46.887" viewBox="0 0 48.249 46.887">
  <g id="Group_6066" data-name="Group 6066" transform="translate(-169 -278)">
    <g id="survey" transform="translate(169 278)">
      <g id="Group_5971" data-name="Group 5971" transform="translate(0 0)">
        <path id="Path_5152" data-name="Path 5152" d="M55.772,60.626a7.974,7.974,0,0,0-7.807-6.271h0a7.974,7.974,0,0,0-7.807,6.271Zm-34.6,0h17.4a9.577,9.577,0,0,1,.321-1.271H21.969a.778.778,0,0,1-.778-.778V51.586l-.229-.133a.775.775,0,0,1-.285-.285l-.756-1.31v9.515A1.255,1.255,0,0,0,21.174,60.626Zm-10.215-29.4.882,1.528,3.179-1.836-.882-1.528a1.4,1.4,0,0,0-1.912-.512l-.755.435a1.4,1.4,0,0,0-.513,1.912ZM19.92,36.29l1.271,2.2V22.772a.778.778,0,0,1,.778-.778H28.22V20.723H21.174a1.256,1.256,0,0,0-1.254,1.254V36.29ZM31.553,53.283h-4.9v-4.9h4.9ZM25.1,49.513v2.531l-2.193-1.266ZM15.8,32.265,24.814,47.88l-3.179,1.836L12.619,34.1ZM29,24.779H44.648A.778.778,0,0,0,45.426,24v-.45H50.9V44.836a5.208,5.208,0,0,0-8.064,3.379H36.409a.778.778,0,0,0,0,1.557H42.79a5.177,5.177,0,0,0,.751,2.125H36.409a.778.778,0,1,0,0,1.556h8.066A9.535,9.535,0,0,0,39.561,57.8H22.747V52.484L25.191,53.9a1.447,1.447,0,0,0,1.354.944h5.117a1.448,1.448,0,0,0,1.446-1.446V48.275a1.447,1.447,0,0,0-1.446-1.446H26.546a1.43,1.43,0,0,0-.49.087l-3.308-5.73V23.55H28.22V24A.778.778,0,0,0,29,24.779Zm.778-1.556H43.869V19.495H40.181a.778.778,0,0,1-.756-.6,2.678,2.678,0,0,0-5.2,0,.778.778,0,0,1-.756.6H29.777ZM47.965,52.8a3.657,3.657,0,1,0-3.658-3.656A3.661,3.661,0,0,0,47.965,52.8h0ZM45.426,20.723h7.046a1.256,1.256,0,0,1,1.254,1.254V54.724a9.543,9.543,0,0,0-2.644-1.407A5.2,5.2,0,0,0,52.455,46.5V22.772a.778.778,0,0,0-.778-.778H45.426V20.723Zm11.839,41.2a.779.779,0,0,1-.579.258H21.174a2.814,2.814,0,0,1-2.81-2.81V47.162L9.611,32a2.961,2.961,0,0,1,1.082-4.039l.755-.435a2.96,2.96,0,0,1,4.039,1.082l2.877,4.984V21.977a2.814,2.814,0,0,1,2.81-2.81H28.22v-.451A.778.778,0,0,1,29,17.938h3.9a4.236,4.236,0,0,1,7.849,0h3.9a.778.778,0,0,1,.778.778v.451h7.046a2.814,2.814,0,0,1,2.811,2.81V56.2a9.506,9.506,0,0,1,2.176,5.12.777.777,0,0,1-.195.6Zm-28.95-19.71a.778.778,0,0,0,.55.228h.041a.778.778,0,0,0,.564-.288l1.6-1.979a.778.778,0,1,0-1.21-.979L28.8,40.5l-.51-.51a.778.778,0,0,0-1.1,1.1Zm2.64,7.025a.778.778,0,0,1,.116,1.094l-1.6,1.979a.777.777,0,0,1-.564.288h-.041a.779.779,0,0,1-.55-.228l-1.122-1.122a.778.778,0,0,1,1.1-1.1l.51.51,1.057-1.306A.778.778,0,0,1,30.955,49.24Zm5.454-19.787h11.36a.778.778,0,1,0,0-1.556H36.409a.778.778,0,1,0,0,1.556Zm0,3.682h11.36a.778.778,0,1,0,0-1.556H36.409a.778.778,0,1,0,0,1.556Zm-9.753-.17v-4.9h4.9v4.9Zm-.11-6.453h5.117a1.448,1.448,0,0,1,1.446,1.446v5.117a1.448,1.448,0,0,1-1.446,1.446H26.546A1.448,1.448,0,0,1,25.1,33.074V27.957a1.448,1.448,0,0,1,1.446-1.446Zm9.863,16.783h11.36a.778.778,0,1,0,0-1.556H36.409a.778.778,0,1,0,0,1.556Zm0-3.682h11.36a.778.778,0,0,0,0-1.557H36.409a.778.778,0,0,0,0,1.557Zm-4.856-1.386v4.9h-4.9v-4.9Zm1.556-.11v5.117a1.448,1.448,0,0,1-1.446,1.446H26.546A1.448,1.448,0,0,1,25.1,43.233V38.116a1.448,1.448,0,0,1,1.446-1.446h5.117A1.448,1.448,0,0,1,33.109,38.116Zm4.628-19.209a.914.914,0,1,1-.914-.914A.914.914,0,0,1,37.737,18.907Z" transform="translate(-9.215 -15.296)" fill="#b3b4b6" fill-rule="evenodd"/>
      </g>
      <g id="Group_5972" data-name="Group 5972" transform="translate(1.557 1.557)">
        <path id="Path_5153" data-name="Path 5153" d="M220.6,37.67h14.093V33.942H231a.778.778,0,0,1-.756-.6,2.678,2.678,0,0,0-5.2,0,.778.778,0,0,1-.756.6H220.6Zm7.96-4.316a.914.914,0,1,1-.914-.914A.914.914,0,0,1,228.555,33.354Z" transform="translate(-201.591 -31.3)" fill="#d4d7da" fill-rule="evenodd"/>
        <path id="Path_5154" data-name="Path 5154" d="M381.473,71.087v1.271h6.251a.778.778,0,0,1,.778.778V96.863a5.2,5.2,0,0,1-1.373,6.818,9.541,9.541,0,0,1,2.645,1.407V72.341a1.256,1.256,0,0,0-1.254-1.254Z" transform="translate(-346.819 -67.217)" fill="#d4d7da" fill-rule="evenodd"/>
        <path id="Path_5155" data-name="Path 5155" d="M120.535,88.855V73.136a.778.778,0,0,1,.778-.778h6.251V71.087h-7.046a1.256,1.256,0,0,0-1.254,1.254V86.654Z" transform="translate(-110.116 -67.217)" fill="#d4d7da" fill-rule="evenodd"/>
        <path id="Path_5156" data-name="Path 5156" d="M120.535,372.328a1.169,1.169,0,0,1-.514-.418l-.756-1.31v9.515a1.255,1.255,0,0,0,1.254,1.254h17.4a9.57,9.57,0,0,1,.321-1.271H121.313a.778.778,0,0,1-.778-.778v-6.992Z" transform="translate(-110.116 -337.595)" fill="#d4d7da" fill-rule="evenodd"/>
        <path id="Path_5157" data-name="Path 5157" d="M369.974,329.306a3.657,3.657,0,1,0,3.657-3.657A3.66,3.66,0,0,0,369.974,329.306Z" transform="translate(-336.439 -297.017)" fill="#d4d7da" fill-rule="evenodd"/>
        <path id="Path_5158" data-name="Path 5158" d="M190.657,357.743l1.057-1.306a.778.778,0,1,1,1.21.978l-1.6,1.979a.779.779,0,0,1-1.155.061l-1.122-1.122a.778.778,0,1,1,1.1-1.1Zm2.749,2.621v-4.9h-4.9v4.9Z" transform="translate(-172.626 -323.934)" fill="#d4d7da" fill-rule="evenodd"/>
        <path id="Path_5159" data-name="Path 5159" d="M188.509,255.923h4.9v-4.9h-4.9Zm2.814-.97a.778.778,0,0,1-1.155.061l-1.122-1.122a.778.778,0,0,1,1.1-1.1l.51.51L191.714,252a.778.778,0,1,1,1.21.979Z" transform="translate(-172.626 -229.652)" fill="#d4d7da" fill-rule="evenodd"/>
        <path id="Path_5160" data-name="Path 5160" d="M188.509,151.482h4.9v-4.9h-4.9Zm4.415-2.949-1.6,1.979a.779.779,0,0,1-1.155.061l-1.122-1.122a.778.778,0,1,1,1.1-1.1l.51.51,1.057-1.307a.778.778,0,0,1,1.21.979Z" transform="translate(-172.626 -135.371)" fill="#d4d7da" fill-rule="evenodd"/>
        <path id="Path_5161" data-name="Path 5161" d="M29.472,155.207l-.882-1.528a1.4,1.4,0,0,0-1.912-.512l-.755.435a1.4,1.4,0,0,0-.512,1.913l.882,1.528Z" transform="translate(-25.224 -141.143)" fill="#d4d7da" fill-rule="evenodd"/>
        <path id="Path_5162" data-name="Path 5162" d="M152.161,367.061l-2.193,1.266,2.193,1.266Z" transform="translate(-137.834 -334.4)" fill="#d4d7da" fill-rule="evenodd"/>
      </g>
    </g>
    <g id="Close" transform="translate(186.192 290.469)">
      <path id="Path_5163" data-name="Path 5163" d="M12.828,8H8.69A.69.69,0,0,0,8,8.69v4.138a.69.69,0,0,0,.69.69h4.138a.69.69,0,0,0,.69-.69V8.69A.69.69,0,0,0,12.828,8Zm-.757,3.746a.229.229,0,1,1-.324.324l-.987-.986-.987.986a.229.229,0,0,1-.324-.324l.986-.987-.986-.987a.229.229,0,1,1,.324-.324l.987.986.987-.986a.229.229,0,0,1,.324.324l-.986.987Z" transform="translate(-8 -8)" fill="#d4d7da"/>
      <path id="Path_5164" data-name="Path 5164" d="M22.7,22.372a.229.229,0,1,1-.324.324l-.987-.986L20.4,22.7a.229.229,0,1,1-.324-.324l.986-.987-.986-.987a.229.229,0,1,1,.324-.324l.987.986.987-.986a.229.229,0,0,1,.324.324l-.986.987Z" transform="translate(-18.626 -18.626)" fill="#b3b4b6"/>
    </g>
    <g id="Close-2" data-name="Close" transform="translate(186.192 300.63)">
      <path id="Path_5163-2" data-name="Path 5163" d="M12.828,8H8.69A.69.69,0,0,0,8,8.69v4.138a.69.69,0,0,0,.69.69h4.138a.69.69,0,0,0,.69-.69V8.69A.69.69,0,0,0,12.828,8Zm-.757,3.746a.229.229,0,1,1-.324.324l-.987-.986-.987.986a.229.229,0,0,1-.324-.324l.986-.987-.986-.987a.229.229,0,1,1,.324-.324l.987.986.987-.986a.229.229,0,0,1,.324.324l-.986.987Z" transform="translate(-8 -8)" fill="#d4d7da"/>
      <path id="Path_5164-2" data-name="Path 5164" d="M22.7,22.372a.229.229,0,1,1-.324.324l-.987-.986L20.4,22.7a.229.229,0,1,1-.324-.324l.986-.987-.986-.987a.229.229,0,1,1,.324-.324l.987.986.987-.986a.229.229,0,0,1,.324.324l-.986.987Z" transform="translate(-18.626 -18.626)" fill="#b3b4b6"/>
    </g>
    <g id="Close-3" data-name="Close" transform="translate(186.192 310.792)">
      <path id="Path_5163-3" data-name="Path 5163" d="M12.828,8H8.69A.69.69,0,0,0,8,8.69v4.138a.69.69,0,0,0,.69.69h4.138a.69.69,0,0,0,.69-.69V8.69A.69.69,0,0,0,12.828,8Zm-.757,3.746a.229.229,0,1,1-.324.324l-.987-.986-.987.986a.229.229,0,0,1-.324-.324l.986-.987-.986-.987a.229.229,0,1,1,.324-.324l.987.986.987-.986a.229.229,0,0,1,.324.324l-.986.987Z" transform="translate(-8 -8)" fill="#d4d7da"/>
      <path id="Path_5164-3" data-name="Path 5164" d="M22.7,22.372a.229.229,0,1,1-.324.324l-.987-.986L20.4,22.7a.229.229,0,1,1-.324-.324l.986-.987-.986-.987a.229.229,0,1,1,.324-.324l.987.986.987-.986a.229.229,0,0,1,.324.324l-.986.987Z" transform="translate(-18.626 -18.626)" fill="#b3b4b6"/>
    </g>
  </g>
</svg>
