<svg xmlns="http://www.w3.org/2000/svg" width="45.038" height="45.048" viewBox="0 0 45.038 45.048">
  <g id="Group_6780" data-name="Group 6780" transform="translate(2647 -3963)">
    <g id="calendar_5_" data-name="calendar (5)" transform="translate(-2647 3963)">
      <path id="Path_5880" data-name="Path 5880" d="M321.161,323.145a6.348,6.348,0,0,1,5.484-3.168h.027a6.335,6.335,0,1,1-5.5,9.517h-.007a6.311,6.311,0,0,1-.859-3.175v-.007A6.278,6.278,0,0,1,321.161,323.145Zm0,0" transform="translate(-292.166 -291.821)" fill="#fff"/>
      <path id="Path_5881" data-name="Path 5881" d="M300.019,289.832a9.855,9.855,0,0,1-18.746,4.252,9.448,9.448,0,0,1-.733-2.127,9.587,9.587,0,0,1-.232-2.126,9.812,9.812,0,0,1,.408-2.816c.092-.3.191-.592.31-.88a9.894,9.894,0,0,1,4.048-4.752,9.753,9.753,0,0,1,2.3-1.007,9.873,9.873,0,0,1,2.788-.4h.014A9.854,9.854,0,0,1,300.019,289.832Zm-15.332,3.182h.007a6.332,6.332,0,1,0,5.5-9.517h-.028a6.342,6.342,0,0,0-6.335,6.335v.007A6.315,6.315,0,0,0,284.687,293.014Zm0,0" transform="translate(-255.685 -255.341)" fill="#d4d7da"/>
      <path id="Path_5882" data-name="Path 5882" d="M40.477,135.977h2.816v2.816H40.477Zm0,0" transform="translate(-36.957 -124.012)" fill="#fff"/>
      <path id="Path_5883" data-name="Path 5883" d="M40.477,199.977h2.816v2.816H40.477Zm0,0" transform="translate(-36.957 -182.381)" fill="#fff"/>
      <path id="Path_5884" data-name="Path 5884" d="M40.477,263.977h2.816v2.816H40.477Zm0,0" transform="translate(-36.957 -240.749)" fill="#fff"/>
      <path id="Path_5885" data-name="Path 5885" d="M40.477,327.977h2.816v2.816H40.477Zm0,0" transform="translate(-36.957 -299.117)" fill="#fff"/>
      <path id="Path_5886" data-name="Path 5886" d="M33.36,418.263H8.476v-2.126H32.628a9.453,9.453,0,0,0,.732,2.126Zm0,0" transform="translate(-7.772 -379.52)" fill="#fff"/>
      <path id="Path_5887" data-name="Path 5887" d="M32.628,394.1H8.476v-2.126H32.4a9.631,9.631,0,0,0,.232,2.126Zm0,0" transform="translate(-7.772 -357.486)" fill="#fff"/>
      <path id="Path_5888" data-name="Path 5888" d="M112.477,327.977h2.816v2.816h-2.816Zm0,0" transform="translate(-102.622 -299.117)" fill="#fff"/>
      <path id="Path_5889" data-name="Path 5889" d="M112.477,263.977h2.816v2.816h-2.816Zm0,0" transform="translate(-102.622 -240.749)" fill="#fff"/>
      <path id="Path_5890" data-name="Path 5890" d="M112.477,199.977h2.816v2.816h-2.816Zm0,0" transform="translate(-102.622 -182.381)" fill="#fff"/>
      <path id="Path_5891" data-name="Path 5891" d="M112.477,135.977h2.816v2.816h-2.816Zm0,0" transform="translate(-102.622 -124.012)" fill="#fff"/>
      <path id="Path_5892" data-name="Path 5892" d="M184.477,135.977h2.816v2.816h-2.816Zm0,0" transform="translate(-168.286 -124.012)" fill="#fff"/>
      <path id="Path_5893" data-name="Path 5893" d="M184.477,199.977h2.816v2.816h-2.816Zm0,0" transform="translate(-168.286 -182.381)" fill="#fff"/>
      <path id="Path_5894" data-name="Path 5894" d="M184.477,263.977h2.816v2.816h-2.816Zm0,0" transform="translate(-168.286 -240.749)" fill="#fff"/>
      <path id="Path_5895" data-name="Path 5895" d="M184.477,327.977h2.816v2.816h-2.816Zm0,0" transform="translate(-168.286 -299.117)" fill="#fff"/>
      <path id="Path_5896" data-name="Path 5896" d="M259.293,327.977v1.936a9.282,9.282,0,0,0-.31.88h-2.506v-2.816Zm0,0" transform="translate(-233.951 -299.117)" fill="#fff"/>
      <path id="Path_5897" data-name="Path 5897" d="M256.477,135.977h2.816v2.816h-2.816Zm0,0" transform="translate(-233.951 -124.012)" fill="#fff"/>
      <path id="Path_5898" data-name="Path 5898" d="M256.477,199.977h2.816v2.816h-2.816Zm0,0" transform="translate(-233.951 -182.381)" fill="#fff"/>
      <path id="Path_5899" data-name="Path 5899" d="M256.637,263.977h2.816v2.816h-2.816Zm0,0" transform="translate(-234.097 -240.749)" fill="#fff"/>
      <path id="Path_5900" data-name="Path 5900" d="M331.445,263.977v1.809a9.754,9.754,0,0,0-2.3,1.007h-.514v-2.816Zm0,0" transform="translate(-299.754 -240.749)" fill="#fff"/>
      <path id="Path_5901" data-name="Path 5901" d="M328.477,199.977h2.816v2.816h-2.816Zm0,0" transform="translate(-299.615 -182.381)" fill="#fff"/>
      <path id="Path_5902" data-name="Path 5902" d="M328.477,135.977h2.816v2.816h-2.816Zm0,0" transform="translate(-299.615 -124.012)" fill="#fff"/>
      <path id="Path_5903" data-name="Path 5903" d="M42.266,103.977v15.487h-.014a9.848,9.848,0,0,0-2.788.4v-1.809H36.648v2.816h.514a9.9,9.9,0,0,0-4.048,4.752v-1.936H30.3V126.5H32.8a9.812,9.812,0,0,0-.408,2.816H8.477V103.977ZM39.45,115.24v-2.816H36.635v2.816Zm0-5.632v-2.816H36.635v2.816Zm-6.321,11.263v-2.816H30.313v2.816Zm-.014-5.632v-2.816H30.3v2.816Zm0-5.632v-2.816H30.3v2.816ZM26.78,126.5v-2.816H23.964V126.5Zm0-5.632v-2.816H23.964v2.816Zm0-5.632v-2.816H23.964v2.816Zm0-5.632v-2.816H23.964v2.816ZM20.444,126.5v-2.816H17.628V126.5Zm0-5.632v-2.816H17.628v2.816Zm0-5.632v-2.816H17.628v2.816Zm0-5.632v-2.816H17.628v2.816ZM14.109,126.5v-2.816H11.293V126.5Zm0-5.632v-2.816H11.293v2.816Zm0-5.632v-2.816H11.293v2.816Zm0-5.632v-2.816H11.293v2.816Zm0,0" transform="translate(-7.773 -94.828)" fill="#fff"/>
      <path id="Path_5904" data-name="Path 5904" d="M322.589,10.792v1.76a1.056,1.056,0,0,1-2.112,0V9.033a1.056,1.056,0,0,1,2.112,0Zm0,0" transform="translate(-292.319 -7.275)" fill="#fff"/>
      <path id="Path_5905" data-name="Path 5905" d="M234.589,10.792v1.76a1.056,1.056,0,0,1-2.112,0V9.033a1.056,1.056,0,0,1,2.112,0Zm0,0" transform="translate(-212.063 -7.275)" fill="#fff"/>
      <path id="Path_5906" data-name="Path 5906" d="M58.588,10.792v1.76a1.056,1.056,0,0,1-2.112,0V9.033a1.056,1.056,0,0,1,2.112,0Zm0,0" transform="translate(-51.549 -7.275)" fill="#fff"/>
      <path id="Path_5907" data-name="Path 5907" d="M146.589,10.792v1.76a1.056,1.056,0,1,1-2.112,0V9.033a1.056,1.056,0,1,1,2.112,0Zm0,0" transform="translate(-131.806 -7.275)" fill="#fff"/>
      <path id="Path_5908" data-name="Path 5908" d="M42.266,41.384v4.224H8.477V41.384a1.408,1.408,0,0,1,1.408-1.408H12.7v1.76a1.056,1.056,0,0,0,2.112,0v-1.76h5.632v1.76a1.056,1.056,0,1,0,2.112,0v-1.76h5.632v1.76a1.056,1.056,0,1,0,2.112,0v-1.76h5.632v1.76a1.056,1.056,0,0,0,2.112,0v-1.76h2.816A1.408,1.408,0,0,1,42.266,41.384Zm0,0" transform="translate(-7.773 -36.459)" fill="#d4d7da"/>
      <g id="Group_6779" data-name="Group 6779" transform="translate(0)">
        <path id="Path_5909" data-name="Path 5909" d="M1.181,34.816a.7.7,0,0,1-.7-.7A2.114,2.114,0,0,1,2.588,32a.7.7,0,0,1,0,1.408.7.7,0,0,0-.7.7.7.7,0,0,1-.7.7Zm0,0" transform="translate(-0.477 -29.184)" fill="#b3b4b6"/>
        <path id="Path_5910" data-name="Path 5910" d="M370.589,34.816a.7.7,0,0,1-.7-.7.7.7,0,0,0-.7-.7.7.7,0,1,1,0-1.408,2.115,2.115,0,0,1,2.112,2.112A.7.7,0,0,1,370.589,34.816Zm0,0" transform="translate(-336.096 -29.184)" fill="#b3b4b6"/>
        <path id="Path_5911" data-name="Path 5911" d="M34.97,97.408H1.181a.7.7,0,0,1,0-1.408H34.97a.7.7,0,0,1,0,1.408Zm0,0" transform="translate(-0.477 -87.553)" fill="#b3b4b6"/>
        <path id="Path_5912" data-name="Path 5912" d="M385.181,69.117a.7.7,0,0,1-.7-.7V48.7a.7.7,0,0,1,1.408,0V68.413A.7.7,0,0,1,385.181,69.117Zm0,0" transform="translate(-350.688 -43.776)" fill="#b3b4b6"/>
        <path id="Path_5913" data-name="Path 5913" d="M1.181,83.22a.7.7,0,0,1-.7-.7V48.7a.7.7,0,1,1,1.408,0V82.517a.7.7,0,0,1-.7.7Zm0,0" transform="translate(-0.477 -43.776)" fill="#b3b4b6"/>
        <path id="Path_5914" data-name="Path 5914" d="M25.115,385.408H1.181a.7.7,0,0,1,0-1.408H25.115a.7.7,0,0,1,0,1.408Zm0,0" transform="translate(-0.477 -350.211)" fill="#b3b4b6"/>
        <path id="Path_5915" data-name="Path 5915" d="M25.328,409.545H1.18a.7.7,0,0,1,0-1.408H25.328a.7.7,0,1,1,0,1.408Zm0,0" transform="translate(-0.476 -372.224)" fill="#b3b4b6"/>
        <path id="Path_5916" data-name="Path 5916" d="M26.061,433.674H1.18a.7.7,0,0,1,0-1.408H26.061a.7.7,0,1,1,0,1.408Zm0,0" transform="translate(-0.476 -394.23)" fill="#b3b4b6"/>
        <path id="Path_5917" data-name="Path 5917" d="M50.236,7.039a1.761,1.761,0,0,1-1.76-1.76V1.76a1.76,1.76,0,0,1,3.52,0V5.28A1.761,1.761,0,0,1,50.236,7.039Zm0-5.632a.353.353,0,0,0-.352.352V5.28a.352.352,0,0,0,.7,0V1.76A.353.353,0,0,0,50.236,1.408Zm0,0" transform="translate(-44.253)" fill="#b3b4b6"/>
        <path id="Path_5918" data-name="Path 5918" d="M138.237,7.039a1.761,1.761,0,0,1-1.76-1.76V1.76a1.76,1.76,0,1,1,3.52,0V5.28A1.761,1.761,0,0,1,138.237,7.039Zm0-5.632a.353.353,0,0,0-.352.352V5.28a.352.352,0,0,0,.7,0V1.76A.353.353,0,0,0,138.237,1.408Zm0,0" transform="translate(-124.51)" fill="#b3b4b6"/>
        <path id="Path_5919" data-name="Path 5919" d="M226.237,7.039a1.761,1.761,0,0,1-1.76-1.76V1.76a1.76,1.76,0,1,1,3.52,0V5.28A1.761,1.761,0,0,1,226.237,7.039Zm0-5.632a.353.353,0,0,0-.352.352V5.28a.352.352,0,1,0,.7,0V1.76A.353.353,0,0,0,226.237,1.408Zm0,0" transform="translate(-204.767)" fill="#b3b4b6"/>
        <path id="Path_5920" data-name="Path 5920" d="M314.237,7.039a1.761,1.761,0,0,1-1.76-1.76V1.76a1.76,1.76,0,0,1,3.52,0V5.28A1.761,1.761,0,0,1,314.237,7.039Zm0-5.632a.353.353,0,0,0-.352.352V5.28a.352.352,0,1,0,.7,0V1.76A.353.353,0,0,0,314.237,1.408Zm0,0" transform="translate(-285.023)" fill="#b3b4b6"/>
        <path id="Path_5921" data-name="Path 5921" d="M20,33.408H17.181a.7.7,0,0,1,0-1.408H20a.7.7,0,0,1,0,1.408Zm0,0" transform="translate(-15.069 -29.184)" fill="#b3b4b6"/>
        <path id="Path_5922" data-name="Path 5922" d="M78.812,33.408H73.181a.7.7,0,0,1,0-1.408h5.632a.7.7,0,0,1,0,1.408Zm0,0" transform="translate(-66.141 -29.184)" fill="#b3b4b6"/>
        <path id="Path_5923" data-name="Path 5923" d="M166.812,33.408h-5.632a.7.7,0,1,1,0-1.408h5.632a.7.7,0,0,1,0,1.408Zm0,0" transform="translate(-146.398 -29.184)" fill="#b3b4b6"/>
        <path id="Path_5924" data-name="Path 5924" d="M254.812,33.408h-5.632a.7.7,0,1,1,0-1.408h5.632a.7.7,0,0,1,0,1.408Zm0,0" transform="translate(-226.655 -29.184)" fill="#b3b4b6"/>
        <path id="Path_5925" data-name="Path 5925" d="M340,33.408h-2.816a.7.7,0,1,1,0-1.408H340a.7.7,0,1,1,0,1.408Zm0,0" transform="translate(-306.911 -29.184)" fill="#b3b4b6"/>
        <path id="Path_5926" data-name="Path 5926" d="M36,132.224H33.181a.7.7,0,0,1-.7-.7V128.7a.7.7,0,0,1,.7-.7H36a.7.7,0,0,1,.7.7v2.816A.7.7,0,0,1,36,132.224Zm-2.112-1.408h1.408v-1.408H33.884Zm0,0" transform="translate(-29.661 -116.737)" fill="#b3b4b6"/>
        <path id="Path_5927" data-name="Path 5927" d="M108,132.224h-2.816a.7.7,0,0,1-.7-.7V128.7a.7.7,0,0,1,.7-.7H108a.7.7,0,0,1,.7.7v2.816A.7.7,0,0,1,108,132.224Zm-2.112-1.408h1.408v-1.408h-1.408Zm0,0" transform="translate(-95.326 -116.737)" fill="#b3b4b6"/>
        <path id="Path_5928" data-name="Path 5928" d="M180,132.224h-2.816a.7.7,0,0,1-.7-.7V128.7a.7.7,0,0,1,.7-.7H180a.7.7,0,0,1,.7.7v2.816A.7.7,0,0,1,180,132.224Zm-2.112-1.408h1.408v-1.408h-1.408Zm0,0" transform="translate(-160.99 -116.737)" fill="#b3b4b6"/>
        <path id="Path_5929" data-name="Path 5929" d="M252,132.224h-2.816a.7.7,0,0,1-.7-.7V128.7a.7.7,0,0,1,.7-.7H252a.7.7,0,0,1,.7.7v2.816A.7.7,0,0,1,252,132.224Zm-2.112-1.408h1.408v-1.408h-1.408Zm0,0" transform="translate(-226.655 -116.737)" fill="#b3b4b6"/>
        <path id="Path_5930" data-name="Path 5930" d="M36,196.224H33.181a.7.7,0,0,1-.7-.7V192.7a.7.7,0,0,1,.7-.7H36a.7.7,0,0,1,.7.7v2.816A.7.7,0,0,1,36,196.224Zm-2.112-1.408h1.408v-1.408H33.884Zm0,0" transform="translate(-29.661 -175.105)" fill="#b3b4b6"/>
        <path id="Path_5931" data-name="Path 5931" d="M108,196.224h-2.816a.7.7,0,0,1-.7-.7V192.7a.7.7,0,0,1,.7-.7H108a.7.7,0,0,1,.7.7v2.816A.7.7,0,0,1,108,196.224Zm-2.112-1.408h1.408v-1.408h-1.408Zm0,0" transform="translate(-95.326 -175.105)" fill="#b3b4b6"/>
        <path id="Path_5932" data-name="Path 5932" d="M180,196.224h-2.816a.7.7,0,0,1-.7-.7V192.7a.7.7,0,0,1,.7-.7H180a.7.7,0,0,1,.7.7v2.816A.7.7,0,0,1,180,196.224Zm-2.112-1.408h1.408v-1.408h-1.408Zm0,0" transform="translate(-160.99 -175.105)" fill="#b3b4b6"/>
        <path id="Path_5933" data-name="Path 5933" d="M36,260.224H33.181a.7.7,0,0,1-.7-.7V256.7a.7.7,0,0,1,.7-.7H36a.7.7,0,0,1,.7.7v2.816A.7.7,0,0,1,36,260.224Zm-2.112-1.408h1.408v-1.408H33.884Zm0,0" transform="translate(-29.661 -233.474)" fill="#b3b4b6"/>
        <path id="Path_5934" data-name="Path 5934" d="M108,260.224h-2.816a.7.7,0,0,1-.7-.7V256.7a.7.7,0,0,1,.7-.7H108a.7.7,0,0,1,.7.7v2.816A.7.7,0,0,1,108,260.224Zm-2.112-1.408h1.408v-1.408h-1.408Zm0,0" transform="translate(-95.326 -233.474)" fill="#b3b4b6"/>
        <path id="Path_5935" data-name="Path 5935" d="M180,260.224h-2.816a.7.7,0,0,1-.7-.7V256.7a.7.7,0,0,1,.7-.7H180a.7.7,0,0,1,.7.7v2.816A.7.7,0,0,1,180,260.224Zm-2.112-1.408h1.408v-1.408h-1.408Zm0,0" transform="translate(-160.99 -233.474)" fill="#b3b4b6"/>
        <path id="Path_5936" data-name="Path 5936" d="M252.118,260.224H249.3a.7.7,0,0,1-.7-.7V256.7a.7.7,0,0,1,.7-.7h2.816a.7.7,0,0,1,.7.7v2.816A.7.7,0,0,1,252.118,260.224Zm-2.112-1.408h1.408v-1.408h-1.408Zm0,0" transform="translate(-226.765 -233.474)" fill="#b3b4b6"/>
        <path id="Path_5937" data-name="Path 5937" d="M321.829,260.224h-.519a.7.7,0,0,1-.7-.7V256.7a.7.7,0,0,1,.7-.7h2.816a.7.7,0,0,1,.7.7v1.8a.7.7,0,1,1-1.408,0v-1.1h-1.408v1.432a.7.7,0,0,1-.185,1.384Zm0,0" transform="translate(-292.437 -233.474)" fill="#b3b4b6"/>
        <path id="Path_5938" data-name="Path 5938" d="M36,324.224H33.181a.7.7,0,0,1-.7-.7V320.7a.7.7,0,0,1,.7-.7H36a.7.7,0,0,1,.7.7v2.816A.7.7,0,0,1,36,324.224Zm-2.112-1.408h1.408v-1.408H33.884Zm0,0" transform="translate(-29.661 -291.842)" fill="#b3b4b6"/>
        <path id="Path_5939" data-name="Path 5939" d="M108,324.224h-2.816a.7.7,0,0,1-.7-.7V320.7a.7.7,0,0,1,.7-.7H108a.7.7,0,0,1,.7.7v2.816A.7.7,0,0,1,108,324.224Zm-2.112-1.408h1.408v-1.408h-1.408Zm0,0" transform="translate(-95.326 -291.842)" fill="#b3b4b6"/>
        <path id="Path_5940" data-name="Path 5940" d="M180,324.224h-2.816a.7.7,0,0,1-.7-.7V320.7a.7.7,0,0,1,.7-.7H180a.7.7,0,0,1,.7.7v2.816A.7.7,0,0,1,180,324.224Zm-2.112-1.408h1.408v-1.408h-1.408Zm0,0" transform="translate(-160.99 -291.842)" fill="#b3b4b6"/>
        <path id="Path_5941" data-name="Path 5941" d="M251.685,324.224h-2.5a.7.7,0,0,1-.7-.7V320.7a.7.7,0,0,1,.7-.7H252a.7.7,0,0,1,.7.7v1.93a.706.706,0,0,0-.311.885A.7.7,0,0,1,251.685,324.224Zm-1.8-1.408h1.431a.733.733,0,0,1-.023-.182v-1.226h-1.408Zm0,0" transform="translate(-226.654 -291.842)" fill="#b3b4b6"/>
        <path id="Path_5942" data-name="Path 5942" d="M252,196.224h-2.816a.7.7,0,0,1-.7-.7V192.7a.7.7,0,0,1,.7-.7H252a.7.7,0,0,1,.7.7v2.816A.7.7,0,0,1,252,196.224Zm-2.112-1.408h1.408v-1.408h-1.408Zm0,0" transform="translate(-226.655 -175.105)" fill="#b3b4b6"/>
        <path id="Path_5943" data-name="Path 5943" d="M324,196.224h-2.816a.7.7,0,0,1-.7-.7V192.7a.7.7,0,0,1,.7-.7H324a.7.7,0,0,1,.7.7v2.816A.7.7,0,0,1,324,196.224Zm-2.112-1.408h1.408v-1.408h-1.408Zm0,0" transform="translate(-292.319 -175.105)" fill="#b3b4b6"/>
        <path id="Path_5944" data-name="Path 5944" d="M324,132.224h-2.816a.7.7,0,0,1-.7-.7V128.7a.7.7,0,0,1,.7-.7H324a.7.7,0,0,1,.7.7v2.816A.7.7,0,0,1,324,132.224Zm-2.112-1.408h1.408v-1.408h-1.408Zm0,0" transform="translate(-292.319 -116.737)" fill="#b3b4b6"/>
        <path id="Path_5945" data-name="Path 5945" d="M319.355,326.032a7.039,7.039,0,1,1,7.039-7.039A7.047,7.047,0,0,1,319.355,326.032Zm0-12.671a5.632,5.632,0,1,0,5.632,5.632A5.638,5.638,0,0,0,319.355,313.361Zm0,0" transform="translate(-284.876 -284.503)" fill="#b3b4b6"/>
        <path id="Path_5948" data-name="Path 5948" d="M282.875,293.071a10.559,10.559,0,1,1,10.559-10.559A10.571,10.571,0,0,1,282.875,293.071Zm0-19.71a9.151,9.151,0,1,0,9.151,9.151A9.162,9.162,0,0,0,282.875,273.361Zm0,0" transform="translate(-248.396 -248.023)" fill="#b3b4b6"/>
        <path id="Path_5949" data-name="Path 5949" d="M385.3,298.936a.7.7,0,0,1-.7-.7v-1.392a.7.7,0,1,1,1.408,0v1.392A.7.7,0,0,1,385.3,298.936Zm0,0" transform="translate(-350.798 -270.079)" fill="#b3b4b6"/>
        <path id="Path_5950" data-name="Path 5950" d="M385.3,459.015a.7.7,0,0,1-.7-.7v-1.392a.7.7,0,0,1,1.408,0v1.392A.7.7,0,0,1,385.3,459.015Zm0,0" transform="translate(-350.798 -416.071)" fill="#b3b4b6"/>
        <path id="Path_5951" data-name="Path 5951" d="M342.02,310.534a.7.7,0,0,1-.61-.352l-.7-1.205a.7.7,0,1,1,1.219-.7l.7,1.205a.7.7,0,0,1-.609,1.056Zm0,0" transform="translate(-310.69 -280.826)" fill="#b3b4b6"/>
        <path id="Path_5952" data-name="Path 5952" d="M422.059,449.165a.7.7,0,0,1-.61-.352l-.7-1.206a.7.7,0,0,1,1.22-.7l.7,1.206a.7.7,0,0,1-.609,1.056Zm0,0" transform="translate(-383.686 -407.258)" fill="#b3b4b6"/>
        <path id="Path_5953" data-name="Path 5953" d="M310.331,342.227a.7.7,0,0,1-.351-.094l-1.2-.695a.7.7,0,1,1,.7-1.219l1.2.7a.7.7,0,0,1-.353,1.313Zm0,0" transform="translate(-281.326 -310.196)" fill="#b3b4b6"/>
        <path id="Path_5954" data-name="Path 5954" d="M448.955,422.261a.7.7,0,0,1-.351-.094l-1.206-.7a.7.7,0,0,1,.7-1.219l1.206.7a.7.7,0,0,1-.353,1.313Zm0,0" transform="translate(-407.751 -383.186)" fill="#b3b4b6"/>
        <path id="Path_5955" data-name="Path 5955" d="M297.349,385.506a.7.7,0,0,1,0-1.408h1.392a.7.7,0,0,1,0,1.408Zm0,0" transform="translate(-270.584 -350.299)" fill="#b3b4b6"/>
        <path id="Path_5956" data-name="Path 5956" d="M458.818,385.506h-1.392a.7.7,0,0,1,0-1.408h1.392a.7.7,0,0,1,0,1.408Zm0,0" transform="translate(-416.576 -350.299)" fill="#b3b4b6"/>
        <path id="Path_5957" data-name="Path 5957" d="M309.134,422.269a.7.7,0,0,1-.353-1.313l1.206-.7a.7.7,0,0,1,.7,1.219l-1.206.7A.7.7,0,0,1,309.134,422.269Zm0,0" transform="translate(-281.332 -383.194)" fill="#b3b4b6"/>
        <path id="Path_5958" data-name="Path 5958" d="M447.773,342.243a.7.7,0,0,1-.353-1.313l1.2-.7a.7.7,0,0,1,.7,1.219l-1.2.7A.7.7,0,0,1,447.773,342.243Zm0,0" transform="translate(-407.771 -310.211)" fill="#b3b4b6"/>
        <path id="Path_5959" data-name="Path 5959" d="M341.326,449.165a.7.7,0,0,1-.609-1.056l.7-1.206a.7.7,0,0,1,1.219.7l-.7,1.206A.7.7,0,0,1,341.326,449.165Zm0,0" transform="translate(-310.692 -407.257)" fill="#b3b4b6"/>
        <path id="Path_5960" data-name="Path 5960" d="M421.357,310.551a.7.7,0,0,1-.351-.095.7.7,0,0,1-.258-.961l.7-1.2a.7.7,0,1,1,1.219.7l-.7,1.2A.7.7,0,0,1,421.357,310.551Zm0,0" transform="translate(-383.681 -280.843)" fill="#b3b4b6"/>
      </g>
    </g>
    <path id="close_6_" data-name="close (6)" d="M4.544,3.976,7.534.985a.5.5,0,0,0-.7-.7L3.84,3.272.85.282a.5.5,0,0,0-.7.7l2.99,2.991L.146,6.967a.5.5,0,1,0,.7.7L3.84,4.68,6.831,7.67a.5.5,0,0,0,.7-.7Zm0,0" transform="translate(-2616.146 3993.846)" fill="#b3b4b6"/>
  </g>
</svg>
