<svg xmlns="http://www.w3.org/2000/svg" width="36.34" height="44.971" viewBox="0 0 36.34 44.971">
  <g id="Group_6068" data-name="Group 6068" transform="translate(-310.94 -282.145)">
    <g id="test" transform="translate(310.94 282.145)">
      <g id="Group_6067" data-name="Group 6067" transform="translate(0 0)">
        <path id="Path_5165" data-name="Path 5165" d="M66.926,26.586l8.637-8.641v7.262a1.38,1.38,0,0,1-1.381,1.379H66.926Zm29.743-5.278V56.844a.306.306,0,0,1-.308.309H71.117v3.21h29.59V21.307Z" transform="translate(-65.428 -16.451)" fill="#d4d7da" fill-rule="evenodd"/>
        <path id="Path_5166" data-name="Path 5166" d="M76.081,8.746a.748.748,0,0,1-.749.75H64.4a.75.75,0,1,1,0-1.5H75.333A.747.747,0,0,1,76.081,8.746Zm0-3.075a.748.748,0,0,1-.749.75H69.864a.749.749,0,0,1,0-1.5h5.469A.747.747,0,0,1,76.081,5.671ZM63.647,16.581a.751.751,0,0,1,.753-.75h5.465a.749.749,0,1,1,0,1.5H64.4A.751.751,0,0,1,63.647,16.581Zm12.435-3.075a.748.748,0,0,1-.749.749H64.4a.75.75,0,1,1,0-1.5H75.333A.747.747,0,0,1,76.081,13.506ZM63.647,23.593a.751.751,0,0,1,.753-.749h5.465a.749.749,0,1,1,0,1.5H64.4A.751.751,0,0,1,63.647,23.593Zm12.435-3.075a.748.748,0,0,1-.749.75H64.4a.75.75,0,1,1,0-1.5H75.333A.747.747,0,0,1,76.081,20.518Zm0,7.011a.747.747,0,0,1-.749.749H64.4a.749.749,0,1,1,0-1.5H75.333A.748.748,0,0,1,76.081,27.529ZM63.647,30.6a.751.751,0,0,1,.753-.749h5.465a.749.749,0,1,1,0,1.5H64.4A.751.751,0,0,1,63.647,30.6Zm12.435,3.937a.747.747,0,0,1-.749.749H64.4a.749.749,0,1,1,0-1.5H75.333A.748.748,0,0,1,76.081,34.541Zm-5.465,3.075a.75.75,0,0,1-.753.749H64.4a.749.749,0,1,1,0-1.5h5.465A.751.751,0,0,1,70.617,37.615ZM84.777,44.47V6.3H81.621v35.1a.747.747,0,0,1-.749.75h-24.8V44.47ZM51.44,12.192V40.643H80.124V2.5H61.135V9.755a2.441,2.441,0,0,1-2.441,2.437Zm8.193-8.634v6.2a.939.939,0,0,1-.94.938H52.5ZM85.526,4.8H81.621V1.748A.748.748,0,0,0,80.872,1H60.386a.756.756,0,0,0-.532.22l-9.694,9.694a.748.748,0,0,0-.22.53V41.392a.75.75,0,0,0,.749.75h3.884V45.22a.75.75,0,0,0,.749.75H85.526a.751.751,0,0,0,.753-.75V5.547a.751.751,0,0,0-.753-.749Z" transform="translate(-49.939 -0.999)" fill="#b3b4b6" fill-rule="evenodd"/>
      </g>
    </g>
    <path id="close_3_" data-name="close (3)" d="M3.5,3.091,5.8.79A.383.383,0,1,0,5.257.248l-2.3,2.3L.654.248A.383.383,0,0,0,.112.79l2.3,2.3-2.3,2.3a.383.383,0,1,0,.541.541l2.3-2.3,2.3,2.3A.383.383,0,0,0,5.8,5.393Zm0,0" transform="translate(314.743 294.563)" fill="#b3b4b6"/>
    <path id="close_3_2" data-name="close (3)" d="M3.5,3.091,5.8.79A.383.383,0,1,0,5.257.248l-2.3,2.3L.654.248A.383.383,0,0,0,.112.79l2.3,2.3-2.3,2.3a.383.383,0,1,0,.541.541l2.3-2.3,2.3,2.3A.383.383,0,0,0,5.8,5.393Zm0,0" transform="translate(314.743 303.026)" fill="#b3b4b6"/>
    <path id="close_3_3" data-name="close (3)" d="M3.5,3.091,5.8.79A.383.383,0,1,0,5.257.248l-2.3,2.3L.654.248A.383.383,0,0,0,.112.79l2.3,2.3-2.3,2.3a.383.383,0,1,0,.541.541l2.3-2.3,2.3,2.3A.383.383,0,0,0,5.8,5.393Zm0,0" transform="translate(314.743 311.488)" fill="#b3b4b6"/>
  </g>
</svg>
