<svg xmlns="http://www.w3.org/2000/svg" width="63.208" height="41.198" viewBox="0 0 63.208 41.198">
  <g id="deal" transform="translate(0.001 -178.3)">
    <path id="Path_6074" data-name="Path 6074" d="M39.821,218.082h.007a3.269,3.269,0,0,0,2.687-3.778l-.025-.144h.144a3.27,3.27,0,0,0,2.685-3.778l-.021-.123.123-.02a3.266,3.266,0,0,0,2.75-3.192v-.078l4.8-2.2.711,1.106a.861.861,0,0,0,1.193.261l8.691-5.584a.867.867,0,0,0,.259-1.195L53.152,182.743a.868.868,0,0,0-1.195-.26l-8.69,5.584a.862.862,0,0,0-.259,1.193l.4.626H31.021a6.973,6.973,0,0,0-5.083,2.094l-1.048,1.042-3.9-2.251.969-1.51a.865.865,0,0,0-.26-1.193l-8.69-5.584a.868.868,0,0,0-1.2.26L1.14,199.357a.868.868,0,0,0,.261,1.195l8.69,5.584a.862.862,0,0,0,1.194-.261l.7-1.084,2.506,2.5-.068.086a3.272,3.272,0,0,0,2.568,5.306h.137v.123A3.27,3.27,0,0,0,20.4,216.1h.136v.123a3.271,3.271,0,0,0,3.267,3.286h.144v.123a3.276,3.276,0,0,0,5.59,2.332l1.474-1.476a3.281,3.281,0,0,0,.66-.947l.062-.136,2.846,2.036a3.242,3.242,0,0,0,1.9.61,3.324,3.324,0,0,0,.547-.045,3.265,3.265,0,0,0,2.691-3.765l0-.01-.029-.147Z" transform="translate(-0.881 -3.547)" fill="#d4d7da" fill-rule="evenodd"/>
    <path id="Path_6075" data-name="Path 6075" d="M31.6,182.068Zm0,1.976c7.664,0-7.661-.009,0,0Zm0-5.743Zm0,.525Zm0,1.975c5.872,0-5.871-.007,0,0ZM9.381,200.5l-7.029-4.516,9.608-14.953,7.028,4.515Zm13.157-9.734-3.322-1.918-7,10.895,2.606,2.607.893-.893a3.4,3.4,0,0,1,5.6,1.238,3.4,3.4,0,0,1,5.275,4.074,3.4,3.4,0,0,1,2.14,4.588,3.385,3.385,0,0,1,2.374,2.415.872.872,0,0,1,.079.05l3.6,2.571a1.423,1.423,0,1,0,1.654-2.316l-3.66-2.617a.988.988,0,0,1,1.149-1.607l3.661,2.617a1.424,1.424,0,1,0,1.656-2.316l-5.487-3.925a.988.988,0,1,1,1.148-1.606l5.487,3.923a1.425,1.425,0,1,0,1.658-2.317h0l0,0-7.279-5.205a.988.988,0,0,1,1.149-1.607l7.281,5.206h0a1.424,1.424,0,1,0,1.656-2.317l-9.99-7.146a2.986,2.986,0,0,0-3.5-.036l-3.663,2.506a5.51,5.51,0,0,1-5.843.3l-1.007-.547a2.718,2.718,0,0,1-.617-4.318l2.312-2.3Zm3.825-1.015a5.122,5.122,0,0,1,3.778-1.557H43.572l7.395,11.51-4.115,1.885a3.386,3.386,0,0,0-.858-.892L36,193.549a4.982,4.982,0,0,0-5.764-.06L26.576,196a3.533,3.533,0,0,1-3.784.194l-1.006-.549a.744.744,0,0,1-.168-1.182l4.745-4.712Zm24.885-8.72,9.609,14.953L53.827,200.5l-9.609-14.954Zm-22.428,34.6-1.476,1.475a1.424,1.424,0,0,1-2.015-2.013s0,0,0,0l1.476-1.475a1.424,1.424,0,0,1,2.013,2.014Zm-5.892-1.521a1.421,1.421,0,0,1-1.006-2.428l2.671-2.673h0a1.424,1.424,0,1,1,2.013,2.014L23.933,213.7a1.418,1.418,0,0,1-1.007.414Zm-4.418-3.824a1.427,1.427,0,0,1,0-2.015l4.025-4.025a1.424,1.424,0,1,1,2.015,2.013h0l-4.025,4.025a1.426,1.426,0,0,1-2.013,0Zm-2.4-3a1.41,1.41,0,0,1-1.006-.414,1.424,1.424,0,0,1,0-2.013l2.012-2.012a1.423,1.423,0,1,1,2.013,2.012l-2.012,2.012a1.414,1.414,0,0,1-1.007.414Zm-5.275-28.16L.156,195.744a.988.988,0,0,0,.3,1.365l8.69,5.584a.986.986,0,0,0,1.364-.3l.613-.955,2.319,2.319a3.4,3.4,0,0,0,2.665,5.506h.013a3.394,3.394,0,0,0,3.4,3.412h.012a3.394,3.394,0,0,0,3.4,3.41h.013a3.4,3.4,0,0,0,5.8,2.418l1.474-1.476a3.378,3.378,0,0,0,.685-.982L33.624,218a3.366,3.366,0,0,0,1.967.632,3.529,3.529,0,0,0,.567-.047,3.389,3.389,0,0,0,2.793-3.908.077.077,0,0,0,0-.014l.014,0a3.392,3.392,0,0,0,2.793-3.922h.012a3.393,3.393,0,0,0,2.792-3.921,3.389,3.389,0,0,0,2.853-3.312l4.632-2.121L52.7,202.4a.984.984,0,0,0,1.363.3l8.691-5.584a.989.989,0,0,0,.3-1.365L52.376,179.129a.989.989,0,0,0-1.365-.3l-8.69,5.584a.985.985,0,0,0-.3,1.363l.279.436H30.14a7.1,7.1,0,0,0-5.17,2.13l-.981.975-3.706-2.139.9-1.4a.988.988,0,0,0-.3-1.363l-8.69-5.584a.99.99,0,0,0-1.366.3Z" transform="translate(0)" fill="#b3b4b6" fill-rule="evenodd"/>
  </g>
</svg>
