<svg xmlns="http://www.w3.org/2000/svg" width="46.056" height="46.292" viewBox="0 0 46.056 46.292">
  <g id="search-analysis" transform="translate(-2.15 -1.987)">
    <g id="Group_6846" data-name="Group 6846" transform="translate(2.15 1.991)">
      <path id="Path_6027" data-name="Path 6027" d="M40.318,1.992a3.761,3.761,0,0,0-3.76,3.76V46.1a2.166,2.166,0,0,1-2.169,2.169H4.319A2.166,2.166,0,0,1,2.15,46.1V5.752a3.761,3.761,0,0,1,3.76-3.76H40.318Z" transform="translate(-2.15 -1.992)" fill="#d4d7da"/>
    </g>
    <g id="Group_6847" data-name="Group 6847" transform="translate(36.558 1.987)">
      <path id="Path_6028" data-name="Path 6028" d="M57.266,5.917V22.322A2.171,2.171,0,0,1,55.1,24.491H49.74V5.75a3.764,3.764,0,0,1,4.136-3.745,3.878,3.878,0,0,1,3.391,3.911Z" transform="translate(-49.74 -1.987)" fill="#b3b4b6"/>
    </g>
    <g id="Group_6853" data-name="Group 6853" transform="translate(9.144 5.605)">
      <g id="Group_6852" data-name="Group 6852">
        <g id="Group_6848" data-name="Group 6848">
          <path id="Path_6029" data-name="Path 6029" d="M22.032,6.991a10.2,10.2,0,0,0-5.074,19.06L22.032,17.2V6.991Z" transform="translate(-11.823 -6.991)" fill="#b3b4b6"/>
        </g>
        <g id="Group_6849" data-name="Group 6849" transform="translate(10.209 0)" opacity="0.68">
          <path id="Path_6030" data-name="Path 6030" d="M36.152,17.2A10.209,10.209,0,0,0,25.943,6.991V17.2Z" transform="translate(-25.943 -6.991)" fill="#b3b4b6"/>
        </g>
        <g id="Group_6850" data-name="Group 6850" transform="translate(10.209 10.209)">
          <path id="Path_6031" data-name="Path 6031" d="M36.152,21.111H25.943L31.612,29.6a10.2,10.2,0,0,0,4.541-8.489Z" transform="translate(-25.943 -21.111)" fill="#fff"/>
        </g>
        <g id="Group_6851" data-name="Group 6851" transform="translate(5.135 10.209)">
          <path id="Path_6032" data-name="Path 6032" d="M18.926,29.962A10.181,10.181,0,0,0,29.668,29.6L24,21.111Z" transform="translate(-18.926 -21.111)" fill="#b9b9b9"/>
        </g>
      </g>
    </g>
    <g id="Group_6855" data-name="Group 6855" transform="translate(5.401 37.369)">
      <g id="Group_6854" data-name="Group 6854" transform="translate(0)">
        <path id="Path_6033" data-name="Path 6033" d="M10.984,51.647H7.008a.362.362,0,0,1,0-.723h3.976a.362.362,0,1,1,0,.723Z" transform="translate(-6.646 -50.924)" fill="#b3b4b6"/>
      </g>
    </g>
    <g id="Group_6857" data-name="Group 6857" transform="translate(13.052 37.369)">
      <g id="Group_6856" data-name="Group 6856">
        <path id="Path_6034" data-name="Path 6034" d="M29.881,51.647H17.59a.362.362,0,0,1,0-.723H29.881a.362.362,0,1,1,0,.723Z" transform="translate(-17.229 -50.924)" fill="#b3b4b6"/>
      </g>
    </g>
    <g id="Group_6859" data-name="Group 6859" transform="translate(27.331 37.369)">
      <g id="Group_6858" data-name="Group 6858">
        <path id="Path_6035" data-name="Path 6035" d="M42.589,51.647H37.34a.362.362,0,0,1,0-.723h5.249a.362.362,0,0,1,0,.723Z" transform="translate(-36.979 -50.924)"/>
      </g>
    </g>
    <g id="Group_6861" data-name="Group 6861" transform="translate(16.245 40.828)">
      <g id="Group_6860" data-name="Group 6860">
        <path id="Path_6036" data-name="Path 6036" d="M38.341,56.431H22.007a.362.362,0,1,1,0-.723H38.341a.362.362,0,0,1,0,.723Z" transform="translate(-21.645 -55.708)" fill="#b3b4b6"/>
      </g>
    </g>
    <g id="Group_6863" data-name="Group 6863" transform="translate(5.401 40.828)">
      <g id="Group_6862" data-name="Group 6862">
        <path id="Path_6037" data-name="Path 6037" d="M14.96,56.431H7.008a.362.362,0,0,1,0-.723H14.96a.362.362,0,0,1,0,.723Z" transform="translate(-6.647 -55.708)" fill="#b3b4b6"/>
      </g>
    </g>
    <g id="Group_6865" data-name="Group 6865" transform="translate(5.401 44.287)">
      <g id="Group_6864" data-name="Group 6864">
        <path id="Path_6038" data-name="Path 6038" d="M20.6,61.216H7.008a.362.362,0,1,1,0-.723H20.6a.362.362,0,0,1,0,.723Z" transform="translate(-6.646 -60.493)" fill="#b3b4b6"/>
      </g>
    </g>
    <g id="Group_6867" data-name="Group 6867" transform="translate(28.657 33.91)">
      <g id="Group_6866" data-name="Group 6866">
        <path id="Path_6039" data-name="Path 6039" d="M43.1,46.863H39.174a.362.362,0,0,1,0-.723H43.1a.362.362,0,0,1,0,.723Z" transform="translate(-38.812 -46.14)"/>
      </g>
    </g>
    <g id="Group_6869" data-name="Group 6869" transform="translate(16.245 33.91)">
      <g id="Group_6868" data-name="Group 6868">
        <path id="Path_6040" data-name="Path 6040" d="M31.888,46.863H22.007a.362.362,0,1,1,0-.723h9.881a.362.362,0,0,1,0,.723Z" transform="translate(-21.645 -46.14)" fill="#b3b4b6"/>
      </g>
    </g>
    <g id="Group_6871" data-name="Group 6871" transform="translate(5.401 33.91)">
      <g id="Group_6870" data-name="Group 6870">
        <path id="Path_6041" data-name="Path 6041" d="M14.96,46.863H7.008a.362.362,0,1,1,0-.723H14.96a.362.362,0,1,1,0,.723Z" transform="translate(-6.647 -46.14)" fill="#b3b4b6"/>
      </g>
    </g>
    <g id="Group_6873" data-name="Group 6873" transform="translate(12.196 30.452)">
      <g id="Group_6872" data-name="Group 6872">
        <path id="Path_6042" data-name="Path 6042" d="M36.79,42.079H16.406a.362.362,0,1,1,0-.723H36.79a.362.362,0,1,1,0,.723Z" transform="translate(-16.045 -41.356)" fill="#b3b4b6"/>
      </g>
    </g>
    <g id="Group_6875" data-name="Group 6875" transform="translate(5.401 30.452)">
      <g id="Group_6874" data-name="Group 6874">
        <path id="Path_6043" data-name="Path 6043" d="M10.389,42.079H7.008a.362.362,0,0,1,0-.723h3.381a.362.362,0,1,1,0,.723Z" transform="translate(-6.647 -41.356)" fill="#b3b4b6"/>
      </g>
    </g>
    <g id="Group_6882" data-name="Group 6882" transform="translate(17.195 17.601)">
      <g id="Group_6876" data-name="Group 6876" transform="translate(16.417 16.344)">
        <path id="Path_6044" data-name="Path 6044" d="M0,0H3.494V3.975H0Z" transform="translate(0 2.484) rotate(-45.324)" fill="#b3b4b6"/>
      </g>
      <g id="Group_6877" data-name="Group 6877" transform="translate(18.768 18.483)">
        <path id="Path_6045" data-name="Path 6045" d="M53.445,49.389l7.465,7.382a.835.835,0,0,1,.009,1.184l-3.1,3.137a.838.838,0,0,1-1.186.007l-7.465-7.382a.835.835,0,0,1,0-1.184l3.1-3.137a.833.833,0,0,1,1.182-.007Z" transform="translate(-48.917 -49.146)" fill="#d4d7da"/>
      </g>
      <g id="Group_6879" data-name="Group 6879" transform="translate(20.462 20.159)">
        <g id="Group_6878" data-name="Group 6878" transform="translate(0 0)">
          <path id="Path_6046" data-name="Path 6046" d="M0,0H6.086V6.415H0Z" transform="translate(0 4.327) rotate(-45.324)" fill="#b3b4b6"/>
        </g>
      </g>
      <g id="Group_6880" data-name="Group 6880">
        <circle id="Ellipse_2792" data-name="Ellipse 2792" cx="10.894" cy="10.894" r="10.894" fill="#b3b4b6"/>
      </g>
      <g id="Group_6881" data-name="Group 6881" transform="translate(3.361 3.361)">
        <circle id="Ellipse_2793" data-name="Ellipse 2793" cx="7.533" cy="7.533" r="7.533" fill="#fff"/>
      </g>
    </g>
  </g>
</svg>
