<svg xmlns="http://www.w3.org/2000/svg" width="48.333" height="48.138" viewBox="0 0 48.333 48.138">
  <g id="Group_6844" data-name="Group 6844" transform="translate(-50 -295)">
    <g id="Group_6072" data-name="Group 6072" transform="translate(77.802 322.75)">
      <g id="multiply" transform="translate(0 0)">
        <ellipse id="Ellipse_472" data-name="Ellipse 472" cx="7.367" cy="7.363" rx="7.367" ry="7.363" transform="translate(0 0)" fill="#d4d7da"/>
        <g id="Group_6071" data-name="Group 6071" transform="translate(3.891 3.885)">
          <rect id="Rectangle_1301" data-name="Rectangle 1301" width="1.611" height="8.221" transform="translate(0.001 1.14) rotate(-45)" fill="#b3b4b6"/>
          <rect id="Rectangle_1302" data-name="Rectangle 1302" width="8.221" height="1.611" transform="translate(0 5.813) rotate(-45)" fill="#b3b4b6"/>
        </g>
      </g>
    </g>
    <g id="leave_6_" data-name="leave (6)" transform="translate(50 295)">
      <path id="Path_5137" data-name="Path 5137" d="M27.671,60.162a.292.292,0,1,0-.413-.414l-.774.774-.773-.774a.293.293,0,0,0-.413.415l.773.773-.773.773a.293.293,0,0,0,0,.414.292.292,0,0,0,.413,0l.772-.773.774.773a.292.292,0,1,0,.413-.414l-.772-.772Zm5.177.773.774-.773a.293.293,0,0,0-.414-.414l-.773.774-.773-.774a.293.293,0,0,0-.413.415l.772.773-.772.772a.292.292,0,1,0,.413.414l.773-.773.773.773a.293.293,0,0,0,.414,0,.293.293,0,0,0,0-.414Zm.34-10.022h1.574a1.087,1.087,0,0,0,1.086-1.086V47.16h5.077v2.667a1.087,1.087,0,0,0,1.085,1.086h1.574a1.087,1.087,0,0,0,1.085-1.086V47.16h5.077v2.667a1.087,1.087,0,0,0,1.086,1.086h1.573a1.087,1.087,0,0,0,1.086-1.086V47.16h1.4a2.884,2.884,0,0,1,2.881,2.881V53.5H19V50.041a2.884,2.884,0,0,1,2.881-2.881h1.4v2.667a1.088,1.088,0,0,0,1.087,1.086H25.94a1.087,1.087,0,0,0,1.086-1.086V47.16H32.1v2.667a1.087,1.087,0,0,0,1.085,1.086Zm-4.019,12.7H23.8V58.251h5.366Zm.584-5.366h5.365v5.366H29.753Zm5.95,0h5.365v5.366H35.7ZM29.168,69.568H23.8V64.2h5.366Zm.584-5.365h5.365v5.365H29.753Zm5.95,0h5.365v5.365H35.7ZM29.168,75.519H23.8V70.153h5.366Z" transform="translate(-17.93 -43.442)" fill="#d4d7da" fill-rule="evenodd"/>
      <path id="Path_5138" data-name="Path 5138" d="M20.975,26.066a.78.78,0,0,1,1.1-1.1l.428.429.428-.429a.78.78,0,0,1,1.1,1.1l-.429.428.429.428a.78.78,0,0,1-1.1,1.1l-.428-.428-.428.428a.78.78,0,0,1-1.1-1.1l.428-.428Zm-5.951.856.428-.428-.428-.428a.78.78,0,0,1,1.1-1.1l.428.429.429-.429a.78.78,0,0,1,1.1,1.1l-.428.428.428.428a.779.779,0,1,1-1.1,1.1l-.429-.428-.428.428a.78.78,0,1,1-1.1-1.1Zm28.3,28.658A11.446,11.446,0,1,0,31.881,44.134,11.459,11.459,0,0,0,43.328,55.581ZM38.162,30.249h4.391v.9A12.923,12.923,0,0,0,38.162,32.2ZM34.45,34.64H32.211V30.249H36.6v2.758A13.11,13.11,0,0,0,34.45,34.64ZM32.211,36.2h.821a12.954,12.954,0,0,0-.821,1.192Zm-5.95,0h4.391v4.392H26.26Zm-5.95,0H24.7v4.392H20.31Zm-5.951,0h4.392v4.392H14.359Zm0-5.95h4.392V34.64H14.359Zm4.392-1.559V24.3H14.36V28.69Zm5.95,0V24.3H20.31V28.69Zm0,5.95H20.31V30.249H24.7Zm1.559-4.391h4.391V34.64H26.26Zm4.391-1.559H26.26V24.3h4.391Zm5.951,0H32.211V24.3H36.6Zm5.95,0H38.162V24.3h4.391Zm-30.6,16.043H30.337c-.009-.2-.015-.4-.015-.6a13.106,13.106,0,0,1,.152-1.984H13.58a.779.779,0,0,1-.78-.779V23.519a.78.78,0,0,1,.78-.779H43.332a.78.78,0,0,1,.779.779v7.635a12.9,12.9,0,0,1,3.241.614V20.134H9.559V42.339a2.4,2.4,0,0,0,2.394,2.394Zm0-31.526h.91v2.18a1.575,1.575,0,0,0,1.574,1.573H16.01a1.575,1.575,0,0,0,1.573-1.573v-2.18h4.1v2.18a1.575,1.575,0,0,0,1.573,1.573h1.574A1.575,1.575,0,0,0,26.4,15.387v-2.18h4.1v2.18A1.574,1.574,0,0,0,32.08,16.96h1.574a1.575,1.575,0,0,0,1.573-1.573v-2.18h4.1v2.18A1.575,1.575,0,0,0,40.9,16.96h1.573a1.575,1.575,0,0,0,1.573-1.573v-2.18h.91A2.4,2.4,0,0,1,47.353,15.6v2.973H9.559V15.6a2.4,2.4,0,0,1,2.394-2.394Zm2.469-2.633v4.813a.016.016,0,0,0,.015.014H16.01a.015.015,0,0,0,.014-.014V10.574a.016.016,0,0,0-.014-.013H14.437A.017.017,0,0,0,14.423,10.574Zm8.822,0v4.813a.016.016,0,0,0,.013.014h1.574a.015.015,0,0,0,.014-.014V10.574a.016.016,0,0,0-.014-.013H23.258A.017.017,0,0,0,23.245,10.574Zm8.821,0v4.813a.016.016,0,0,0,.014.014h1.574a.015.015,0,0,0,.014-.014V10.574a.016.016,0,0,0-.014-.013H32.08A.017.017,0,0,0,32.066,10.574Zm8.822,0v4.813a.016.016,0,0,0,.014.014h1.573a.016.016,0,0,0,.014-.014V10.574a.017.017,0,0,0-.014-.013H40.9A.017.017,0,0,0,40.888,10.574ZM48.912,32.39V19.355h0V15.6a3.958,3.958,0,0,0-3.953-3.953h-.91V10.574A1.575,1.575,0,0,0,42.475,9H40.9a1.575,1.575,0,0,0-1.573,1.573v1.074h-4.1V10.574A1.575,1.575,0,0,0,33.654,9H32.08a1.574,1.574,0,0,0-1.572,1.573v1.074H26.4V10.574A1.575,1.575,0,0,0,24.832,9H23.258a1.575,1.575,0,0,0-1.573,1.573v1.074h-4.1V10.574A1.575,1.575,0,0,0,16.01,9H14.437a1.575,1.575,0,0,0-1.574,1.573v1.074h-.91A3.958,3.958,0,0,0,8,15.6V42.339a3.958,3.958,0,0,0,3.953,3.953H30.5a13.005,13.005,0,1,0,18.409-13.9Z" transform="translate(-8 -9.001)" fill="#b3b4b6" fill-rule="evenodd"/>
    </g>
  </g>
</svg>
