<svg xmlns="http://www.w3.org/2000/svg" width="50.833" height="50.323" viewBox="0 0 50.833 50.323">
  <g id="calendar_6_" data-name="calendar (6)" transform="translate(-7.115 -7.57)">
    <path id="Path_6091" data-name="Path 6091" d="M18.6,65.463H53.8a2.914,2.914,0,0,0,2.99-2.839V45.059A2.92,2.92,0,0,0,53.8,42.22H18.6a2.92,2.92,0,0,0-2.99,2.839V62.624a2.925,2.925,0,0,0,2.99,2.839Zm-1.821-2.839v-.95A17.674,17.674,0,0,1,35.386,60.7a16.111,16.111,0,0,0-4.014,3.657H18.6a1.781,1.781,0,0,1-1.821-1.734Zm-.006-17.565A1.782,1.782,0,0,1,18.6,43.325H53.8a1.782,1.782,0,0,1,1.827,1.734V61.547a17.588,17.588,0,0,0-19.135-1.5,17.947,17.947,0,0,0-2.583-1.281H33.9a.488.488,0,0,0-.013-.057l-2.7-5.747h0l4.718-1.779a.981.981,0,0,0,.553-1.375,7.1,7.1,0,0,0-8.727-3.193.53.53,0,0,0-.1.044,6.479,6.479,0,0,0-3.956,7.954,1.058,1.058,0,0,0,1.39.646l5.036-1.888,2.284,4.865h0a18.858,18.858,0,0,0-15.621,2.1V45.059Zm15.9,6.153a11.945,11.945,0,0,0-2.717-3.944A5.839,5.839,0,0,1,35.369,50.2Zm-6.086-1.878a12.453,12.453,0,0,0,.873,3.833l-2.7,1.016A5.317,5.317,0,0,1,26.6,48.522a6.084,6.084,0,0,0-.017.812Z" transform="translate(-3.666 -13.299)" fill="#707070"/>
    <path id="Path_6092" data-name="Path 6092" d="M51.655,13.34H47.9V10.764a2.89,2.89,0,1,0-5.78,0V13.34H22.951V10.764a2.89,2.89,0,1,0-5.78,0V13.34H13.408a6,6,0,0,0-5.993,5.995V51.6a6,6,0,0,0,5.993,5.989H51.655A6,6,0,0,0,57.648,51.6V19.335a6,6,0,0,0-5.993-5.995ZM27.573,16.978a.578.578,0,0,1,.576-.576h4.04a.576.576,0,0,1,0,1.153h-4.04A.578.578,0,0,1,27.573,16.978Zm6.379,0a.578.578,0,0,1,.576-.576h.663a.576.576,0,0,1,0,1.153h-.663A.578.578,0,0,1,33.952,16.978Zm9.318-6.214a1.737,1.737,0,1,1,3.475,0v5.891a1.737,1.737,0,1,1-3.475,0Zm-24.946,0a1.737,1.737,0,1,1,3.475,0v5.891a1.737,1.737,0,1,1-3.475,0V10.764ZM56.5,51.6a4.847,4.847,0,0,1-4.841,4.836H13.408A4.847,4.847,0,0,1,8.568,51.6V23.912H56.5Z" transform="translate(0 0)" fill="#d4d7da" stroke="#707070" stroke-width="0.6"/>
    <circle id="Ellipse_2795" data-name="Ellipse 2795" cx="3.126" cy="3.126" r="3.126" transform="translate(35.313 36.595) rotate(-45)" fill="#b3b4b6"/>
    <path id="Path_6093" data-name="Path 6093" d="M62.946,48.992a.552.552,0,0,0,.552-.552v-.924a.552.552,0,0,0-1.1,0v.924A.552.552,0,0,0,62.946,48.992Z" transform="translate(-23.266 -16.517)" fill="#707070"/>
    <path id="Path_6094" data-name="Path 6094" d="M56.365,51.394a.552.552,0,1,0,.781-.781l-.654-.653a.552.552,0,0,0-.781.781Z" transform="translate(-20.353 -17.721)" fill="#707070"/>
    <path id="Path_6095" data-name="Path 6095" d="M53.266,57.746h.925a.552.552,0,0,0,0-1.1h-.925a.552.552,0,1,0,0,1.1Z" transform="translate(-19.147 -20.63)" fill="#707070"/>
    <path id="Path_6096" data-name="Path 6096" d="M56.365,62.464l-.654.654a.552.552,0,1,0,.781.781l.654-.654a.552.552,0,0,0-.781-.781Z" transform="translate(-20.353 -23.006)" fill="#707070"/>
    <path id="Path_6097" data-name="Path 6097" d="M62.946,64.647a.552.552,0,0,0-.552.552v.925a.552.552,0,0,0,1.1,0V65.2A.552.552,0,0,0,62.946,64.647Z" transform="translate(-23.266 -23.988)" fill="#707070"/>
    <path id="Path_6098" data-name="Path 6098" d="M69,62.464a.552.552,0,0,0-.781.781l.654.654a.552.552,0,1,0,.781-.781Z" transform="translate(-25.64 -23.006)" fill="#707070"/>
    <path id="Path_6099" data-name="Path 6099" d="M70.4,57.194a.552.552,0,0,0,.552.552h.925a.552.552,0,1,0,0-1.1h-.925A.552.552,0,0,0,70.4,57.194Z" transform="translate(-26.622 -20.63)" fill="#707070"/>
    <path id="Path_6100" data-name="Path 6100" d="M69,51.394l.654-.653a.552.552,0,0,0-.781-.781l-.654.653a.552.552,0,0,0,.781.781Z" transform="translate(-25.64 -17.721)" fill="#707070"/>
  </g>
</svg>
