<svg xmlns="http://www.w3.org/2000/svg" width="39.38" height="48.292" viewBox="0 0 39.38 48.292">
  <g id="directory_1_" data-name="directory (1)" transform="translate(-18.502 -11.374)">
    <path id="Path_6047" data-name="Path 6047" d="M77.815,21.015h-3.67a.674.674,0,0,0-.674.674v9.106a.674.674,0,0,0,.674.674h3.67a.674.674,0,0,0,.674-.674V21.689A.674.674,0,0,0,77.815,21.015Z" transform="translate(-20.607 -3.615)" fill="#b3b4b6"/>
    <path id="Path_6048" data-name="Path 6048" d="M77.815,41.639h-3.67a.674.674,0,0,0-.674.674v9.106a.674.674,0,0,0,.674.674h3.67a.674.674,0,0,0,.674-.674V42.313A.674.674,0,0,0,77.815,41.639Z" transform="translate(-20.607 -11.346)" fill="#b3b4b6"/>
    <path id="Path_6049" data-name="Path 6049" d="M77.815,62.262h-3.67a.674.674,0,0,0-.674.674v9.106a.674.674,0,0,0,.674.674h3.67a.674.674,0,0,0,.674-.674V62.936a.674.674,0,0,0-.674-.674Z" transform="translate(-20.607 -19.077)" fill="#b3b4b6"/>
    <path id="Path_6050" data-name="Path 6050" d="M53.462,11.374h-32.4A2.559,2.559,0,0,0,18.5,13.933V57.106a2.559,2.559,0,0,0,2.559,2.559h32.4a2.559,2.559,0,0,0,2.559-2.559V13.933a2.559,2.559,0,0,0-2.559-2.559Z" transform="translate(0 0)" fill="#d4d7da"/>
    <path id="Path_6051" data-name="Path 6051" d="M24.217,11.374H21.061A2.559,2.559,0,0,0,18.5,13.933V57.106a2.559,2.559,0,0,0,2.559,2.559h3.156Z" transform="translate(0 0)" fill="#b3b4b6"/>
    <g id="Group_6883" data-name="Group 6883" transform="translate(28.896 19.022)">
      <path id="Path_6052" data-name="Path 6052" d="M54.688,38.141a2.987,2.987,0,0,0-1.857-2.963L50.548,34.4l-.97-.329.005-.016-.721-.985,0,0v-.7a4.1,4.1,0,0,0,.788-1.223.309.309,0,0,0,.062.023c.321.051.66-.409.758-1.027a1.738,1.738,0,0,0-.057-.848c.009-.07.018-.14.026-.212.039-.286.074-.694.164-1.241a3.135,3.135,0,0,0-.862-3.048c-.241-.217-.556-.063-.763.087a.9.9,0,0,0-.5-.905c-.938-.523-5.547-1.239-5.647,3.866h0c-.02.215-.031.441-.031.682a4.937,4.937,0,0,0,.061.781,1.762,1.762,0,0,0-.052.839c.1.621.439,1.083.761,1.031a.307.307,0,0,0,.05-.018,4.045,4.045,0,0,0,.923,1.354v.565l-.717.98,0,.015-3.255,1.108a2.993,2.993,0,0,0-1.857,2.963c-.037,1.266-.037,3.9-.028,4.778a1.355,1.355,0,0,0,1.355,1.336H53.366a1.351,1.351,0,0,0,1.35-1.336c.009-.882.014-3.512-.028-4.778Z" transform="translate(-36.461 -23.609)" fill="#b3b4b6"/>
      <path id="Path_6053" data-name="Path 6053" d="M35.129,63.113H55.611v2.022H35.129Z" transform="translate(-35.129 -38.418)" fill="#b3b4b6"/>
      <path id="Path_6054" data-name="Path 6054" d="M35.129,71.972H55.611v2.022H35.129Z" transform="translate(-35.129 -41.74)" fill="#b3b4b6"/>
    </g>
  </g>
</svg>
