<svg xmlns="http://www.w3.org/2000/svg" width="48.522" height="46.541" viewBox="0 0 48.522 46.541">
  <g id="systems_2_" data-name="systems (2)" transform="translate(-12.99 -28.44)">
    <path id="Path_5995" data-name="Path 5995" d="M181.024,407.422l2.675,1.389.216.111a4.024,4.024,0,0,1,.758.452.755.755,0,0,1,.3.6,1.132,1.132,0,0,1-1.132,1.132H168.7a1.132,1.132,0,0,1-1.132-1.132.755.755,0,0,1,.3-.6,3.992,3.992,0,0,1,.758-.452l.216-.111,2.675-1.389a.3.3,0,0,0,.162-.269V403.2h9.185v3.953A.3.3,0,0,0,181.024,407.422Z" transform="translate(-139.019 -337.034)" fill="#d4d7da" fill-rule="evenodd"/>
    <path id="Path_5996" data-name="Path 5996" d="M23.174,347.648a1.184,1.184,0,0,1-1.184-1.184V342.1H68.7v4.364a1.185,1.185,0,0,1-1.184,1.184Z" transform="translate(-8.094 -282.085)" fill="#d4d7da" fill-rule="evenodd"/>
    <path id="Path_5997" data-name="Path 5997" d="M21.99,67.505V38.624a1.185,1.185,0,0,1,1.184-1.184H67.516A1.185,1.185,0,0,1,68.7,38.624V67.505Z" transform="translate(-8.094 -8.094)" fill="#f1f1f2" fill-rule="evenodd"/>
    <path id="Path_5998" data-name="Path 5998" d="M119.34,66.921V61.87l.338.04a5.363,5.363,0,0,1,4.674,4.673l.04.338Z" transform="translate(-95.644 -30.065)" fill="#f1f1f2" fill-rule="evenodd"/>
    <path id="Path_5999" data-name="Path 5999" d="M119.3,62.147a.3.3,0,0,0,.214-.089.307.307,0,0,0,.088-.215,5.963,5.963,0,0,0-5.953-5.953h0a.3.3,0,0,0-.3.3v5.653a.3.3,0,0,0,.3.3Z" transform="translate(-90.248 -24.687)" fill="#d4d7da" fill-rule="evenodd"/>
    <path id="Path_6000" data-name="Path 6000" d="M47.961,93.146a5.352,5.352,0,0,1-.64-10.666l.338-.04v5.353a.3.3,0,0,0,.3.3h5.354l-.04.338A5.361,5.361,0,0,1,47.961,93.146Z" transform="translate(-26.638 -48.564)" fill="#f1f1f2" fill-rule="evenodd"/>
    <path id="Path_6001" data-name="Path 6001" d="M48.52,82.414a.3.3,0,0,0-.3-.3H42.867V76.8c0-.011,0-.023,0-.034a.3.3,0,0,0-.3-.3h0a5.956,5.956,0,1,0,5.954,5.954Z" transform="translate(-21.242 -43.186)" fill="#d4d7da" fill-rule="evenodd"/>
    <path id="Path_6002" data-name="Path 6002" d="M342.17,60.233a6.373,6.373,0,1,1,6.373,6.373A6.38,6.38,0,0,1,342.17,60.233Z" transform="translate(-296.042 -22.861)" fill="#f1f1f2" fill-rule="evenodd"/>
    <path id="Path_6003" data-name="Path 6003" d="M343.147,61.814a6.977,6.977,0,1,0-6.977-6.977A6.986,6.986,0,0,0,343.147,61.814Z" transform="translate(-290.646 -17.465)" fill="#d4d7da" fill-rule="evenodd"/>
    <path id="Path_6004" data-name="Path 6004" d="M146.386,237.773H142.07v-3.654a3.085,3.085,0,0,1,2.094-2.919.352.352,0,0,0,.037-.016l4.646-2.323,2.033,3.552a.3.3,0,0,0,.218.149c.012,0,.028,0,.043,0a.3.3,0,0,0,.213-.088l1.981-1.98,1.98,1.98a.3.3,0,0,0,.213.088c.016,0,.031,0,.043,0a.3.3,0,0,0,.218-.149l2.033-3.552,4.646,2.323a.205.205,0,0,0,.034.014,3.087,3.087,0,0,1,2.1,2.92v3.654h-4.316V234.81a.3.3,0,1,0-.6,0v2.962H146.989V234.81a.3.3,0,0,0-.6,0v2.963Z" transform="translate(-116.086 -180.244)" fill="#f1f1f2" fill-rule="evenodd"/>
    <path id="Path_6005" data-name="Path 6005" d="M136.061,79.4a.3.3,0,0,0,.3.3H159.5a.3.3,0,0,0,.3-.3V75.441a3.689,3.689,0,0,0-2.469-3.479l-.018-.006-6.555-3.278V66.314l.127-.091a4.9,4.9,0,0,0,1.957-2.915l.054-.235h.7a1.252,1.252,0,0,0,1.25-1.251v-.5a1.253,1.253,0,0,0-1.014-1.227l-.292-.056.052-.293a6.744,6.744,0,0,0-1.393-5.3,6.039,6.039,0,0,0-9.028,0,6.155,6.155,0,0,0-1.315,2.574,4.7,4.7,0,0,0,.079,2.76l.106.273-.269.115a1.253,1.253,0,0,0-.764,1.153v.5a1.252,1.252,0,0,0,1.25,1.251H143l.055.232a5.043,5.043,0,0,0,1.928,2.87l.122.091V68.68l-6.555,3.278-.018.006a3.688,3.688,0,0,0-2.468,3.479V79.4Z" transform="translate(-110.681 -21.566)" fill="#d4d7da" fill-rule="evenodd"/>
    <path id="Path_6006" data-name="Path 6006" d="M369.093,76.71a4.073,4.073,0,1,1-4.073,4.073A4.076,4.076,0,0,1,369.093,76.71Z" transform="translate(-316.592 -43.411)" fill="#f1f1f2" fill-rule="evenodd"/>
    <path id="Path_6007" data-name="Path 6007" d="M363.7,70.71a4.677,4.677,0,1,0,4.677,4.677A4.682,4.682,0,0,0,363.7,70.71Z" transform="translate(-311.196 -38.015)" fill="#f1f1f2" fill-rule="evenodd"/>
    <path id="Path_6008" data-name="Path 6008" d="M214.77,220.1l1.362-.681,2.158,2.159-1.7,1.7Z" transform="translate(-181.467 -171.755)" fill="#d1d1d6" fill-rule="evenodd"/>
    <path id="Path_6009" data-name="Path 6009" d="M259.654,219.38l1.369.685-1.82,3.179-1.783-1.783Z" transform="translate(-219.824 -171.719)" fill="#d1d1d6" fill-rule="evenodd"/>
    <path id="Path_6010" data-name="Path 6010" d="M234.091,194.43l.038,0a6.648,6.648,0,0,0,1.8-.452l.417-.171v2.051L234.042,198,231.9,195.86v-2.09l.422.182a6.4,6.4,0,0,0,1.733.473Z" transform="translate(-196.873 -148.687)" fill="#fff" fill-rule="evenodd"/>
    <path id="Path_6011" data-name="Path 6011" d="M214.461,120.428a5.329,5.329,0,0,1-3.127-1.547,4.378,4.378,0,0,1-1.224-3.049V114.17l.136-.09a2.01,2.01,0,0,0,.808-1.175l.092-.317.308.12a5.53,5.53,0,0,0,3.7-.173,5.9,5.9,0,0,1,2.019-.359,2.333,2.333,0,0,1,1.741,1.131l.054.079v2.446a4.379,4.379,0,0,1-1.232,3.095,5.311,5.311,0,0,1-3.2,1.5l-.04.005Z" transform="translate(-177.277 -75.299)" fill="#fff" fill-rule="evenodd"/>
    <path id="Path_6012" data-name="Path 6012" d="M200.156,63.491a.3.3,0,0,0-.465.232,1.677,1.677,0,0,1-.993,1.669l-.239.081-.122-.219a3.728,3.728,0,0,1-.222-2.565,5.6,5.6,0,0,1,1.21-2.442,5.433,5.433,0,0,1,8.124,0,6.035,6.035,0,0,1,1.333,3.851v.821l-.532-.627c-1.234-1.455-2.57-1.135-4.16-.671C202.7,64.024,201.476,64.338,200.156,63.491Z" transform="translate(-166.379 -26.962)" fill="#d4d7da" fill-rule="evenodd"/>
    <path id="Path_6013" data-name="Path 6013" d="M192.554,135.835c0,.023,0,.045,0,.068v.3h-.648a.652.652,0,0,1-.646-.647v-.5a.651.651,0,0,1,.646-.646h.286l.026.005a.3.3,0,0,0,.042,0l.292.009v1.407Z" transform="translate(-160.324 -95.302)" fill="#f6dccd" fill-rule="evenodd"/>
    <path id="Path_6014" data-name="Path 6014" d="M304.112,134.41h.621a.651.651,0,0,1,.646.646v.5a.652.652,0,0,1-.646.647h-.623v-.3c0-.023,0-.046,0-.068Z" transform="translate(-261.814 -95.302)" fill="#f6dccd" fill-rule="evenodd"/>
    <path id="Path_6015" data-name="Path 6015" d="M58.778,56.83a.6.6,0,0,1-.6.6H53.8a.6.6,0,0,1,0-1.208h4.372A.6.6,0,0,1,58.778,56.83Zm0-2.671a.6.6,0,0,1-.6.6H51.106a.6.6,0,1,1,0-1.208h7.069A.6.6,0,0,1,58.778,54.159Zm0-2.671a.6.6,0,0,1-.6.6h-5.76a.6.6,0,1,1,0-1.208h5.76A.6.6,0,0,1,58.778,51.489Zm0-2.671a.6.6,0,0,1-.6.6H49.429a.6.6,0,0,1,0-1.208h8.745A.6.6,0,0,1,58.778,48.818ZM15.036,57.375a.6.6,0,0,1,.6-.6h4.967a.6.6,0,0,1,0,1.208H15.64A.6.6,0,0,1,15.036,57.375Zm0-3.034a.6.6,0,0,1,.6-.6h8.031a.6.6,0,1,1,0,1.208H15.64A.6.6,0,0,1,15.036,54.341Zm0-3.034a.6.6,0,0,1,.6-.6h6.543a.6.6,0,0,1,0,1.208H15.64A.6.6,0,0,1,15.036,51.307Zm0-3.034a.6.6,0,0,1,.6-.6h9.935a.6.6,0,1,1,0,1.208H15.64A.6.6,0,0,1,15.036,48.272ZM51.9,37.372v-2.58a.6.6,0,0,1,1.208,0v1.976h1.163a.6.6,0,0,1,0,1.208H52.5A.6.6,0,0,1,51.9,37.372Zm.6-6.071a6.071,6.071,0,1,0,6.071,6.071A6.078,6.078,0,0,0,52.5,31.3Zm0,13.35a7.279,7.279,0,1,0-7.279-7.279A7.288,7.288,0,0,0,52.5,44.651Zm0-11.05a3.771,3.771,0,1,0,3.771,3.771A3.775,3.775,0,0,0,52.5,33.6Zm0,8.75a4.979,4.979,0,1,0-4.979-4.979A4.985,4.985,0,0,0,52.5,42.351ZM24,32.146a5.062,5.062,0,0,1,4.41,4.409H24Zm-.6,5.617h5.653a.6.6,0,0,0,.6-.606A6.265,6.265,0,0,0,23.4,30.9h0a.6.6,0,0,0-.6.6v5.653A.6.6,0,0,0,23.394,37.763Zm-2.675-3.547a5.05,5.05,0,1,0,5.618,5.617H21.323a.6.6,0,0,1-.6-.6Zm.6,11.272a6.265,6.265,0,0,0,6.257-6.259.6.6,0,0,0-.6-.6H21.927v-5c0-.016,0-.032,0-.049a.6.6,0,0,0-.6-.6h0a6.258,6.258,0,0,0,0,12.516Zm11.85-12a5.132,5.132,0,0,1,7.673,0A5.728,5.728,0,0,1,42.1,37.133c-1.408-1.66-3.021-1.19-4.475-.766-1.254.364-2.438.71-3.686-.092a.6.6,0,0,0-.929.463c-.068.9-.357,1.26-.788,1.405-.7-1.267-.125-3.452.949-4.66Zm10.091,6.773a.35.35,0,0,1-.344.345H42.6c0-.023,0-.045,0-.068V39.41h.319a.349.349,0,0,1,.344.344Zm-6.036,4.574a4.371,4.371,0,0,0,4.165-4.3V38.182c-.961-1.372-1.945-1.087-3.428-.655a5.84,5.84,0,0,1-3.9.165,2.3,2.3,0,0,1-.933,1.343v1.5A4.447,4.447,0,0,0,37.228,44.831Zm1.946,2.2-2,1.86-1.848-1.847v-1.5a6.793,6.793,0,0,0,1.815.5l.072.009.073-.008a7.02,7.02,0,0,0,1.884-.473Zm7.149,4.2a2.784,2.784,0,0,1,1.893,2.634v3.352H44.5v-2.66a.6.6,0,0,0-1.208,0v2.66H31.206v-2.66a.6.6,0,1,0-1.208,0v2.66H26.286V53.875a2.784,2.784,0,0,1,1.893-2.634.607.607,0,0,0,.076-.032l4.387-2.194,1.892,3.3a.6.6,0,0,0,.444.3.721.721,0,0,0,.081.005.6.6,0,0,0,.427-.176l1.767-1.767,1.767,1.767a.6.6,0,0,0,.427.176.721.721,0,0,0,.081-.005.6.6,0,0,0,.444-.3l1.892-3.3,4.387,2.194A.607.607,0,0,0,46.323,51.24ZM36.4,49.825l-1.791-1.792-.882.441,1.465,2.559Zm3.486-1.8L38.031,49.75l1.283,1.283,1.465-2.559Zm-8.3-7.424a.35.35,0,0,1-.344-.345v-.5a.349.349,0,0,1,.344-.344h.26a.6.6,0,0,0,.086.009v1.114c0,.023,0,.045,0,.068Zm0,1.208h.5a5.342,5.342,0,0,0,2.042,3.041v2.074l-6.371,3.186a3.991,3.991,0,0,0-2.671,3.764v3.956a.6.6,0,0,0,.6.6H48.819a.6.6,0,0,0,.6-.6V53.875a3.991,3.991,0,0,0-2.671-3.764l-6.371-3.186V44.9a5.2,5.2,0,0,0,2.076-3.094h.462a1.555,1.555,0,0,0,1.552-1.553v-.5a1.555,1.555,0,0,0-1.258-1.524,7.045,7.045,0,0,0-1.465-5.55,6.342,6.342,0,0,0-9.479,0,6,6,0,0,0-1.292,5.643,1.556,1.556,0,0,0-.948,1.43v.5A1.555,1.555,0,0,0,31.582,41.81ZM59.422,65.261H15.08a.883.883,0,0,1-.882-.882V60.317H60.3v4.062a.883.883,0,0,1-.882.882Zm-17.555,5.4,2.675,1.389c.072.038.146.076.219.113.677.342.888.494.888.785a.83.83,0,0,1-.83.829H29.683a.83.83,0,0,1-.829-.829c0-.291.21-.443.888-.785.073-.037.147-.074.219-.113l2.675-1.389a.6.6,0,0,0,.325-.537V66.469h8.581V70.12a.6.6,0,0,0,.325.537ZM15.08,29.648a.883.883,0,0,0-.882.882V59.109H60.3V30.53a.883.883,0,0,0-.882-.882ZM59.422,28.44H15.08a2.092,2.092,0,0,0-2.09,2.09V64.379a2.092,2.092,0,0,0,2.09,2.09H31.752v3.285L29.4,70.975l-.207.106c-.654.33-1.551.783-1.551,1.863a2.04,2.04,0,0,0,2.038,2.038H44.819a2.04,2.04,0,0,0,2.038-2.038c0-1.08-.9-1.533-1.551-1.863l-.207-.106-2.349-1.221V66.469H59.422a2.092,2.092,0,0,0,2.09-2.09V30.53a2.092,2.092,0,0,0-2.09-2.09Z" transform="translate(0 0)" fill="#b3b4b6" fill-rule="evenodd"/>
  </g>
</svg>
