<svg id="Diagram_00000028295717109678401650000002762400942346442430_" xmlns="http://www.w3.org/2000/svg" width="43.8" height="43.8" viewBox="0 0 43.8 43.8">
  <g id="Group_6843" data-name="Group 6843">
    <path id="Path_6016" data-name="Path 6016" d="M31.481,9.581V39.009a3.423,3.423,0,0,1-3.422,3.422H3.422A3.423,3.423,0,0,1,0,39.009V3.422A3.423,3.423,0,0,1,3.422,0H21.9V8.212a1.373,1.373,0,0,0,1.369,1.369Z" fill="#d4d7da"/>
    <g id="Group_6842" data-name="Group 6842" transform="translate(4.106 16.425)">
      <path id="Path_6017" data-name="Path 6017" d="M14.9,52.737H7.369a1.369,1.369,0,0,1,0-2.737H14.9a1.369,1.369,0,1,1,0,2.737Z" transform="translate(-6 -32.206)" fill="#b3b4b6"/>
      <path id="Path_6018" data-name="Path 6018" d="M16.95,34.737H7.369a1.369,1.369,0,0,1,0-2.737H16.95a1.369,1.369,0,1,1,0,2.737Z" transform="translate(-6 -26.525)" fill="#b3b4b6"/>
      <path id="Path_6019" data-name="Path 6019" d="M23.794,26.737H7.369a1.369,1.369,0,1,1,0-2.737H23.794a1.369,1.369,0,1,1,0,2.737Z" transform="translate(-6 -24)" fill="#b3b4b6"/>
    </g>
    <path id="Path_6020" data-name="Path 6020" d="M19.687,9.369v5.475a1.373,1.373,0,0,1-1.369,1.369H7.369A1.373,1.373,0,0,1,6,14.844V9.369A1.373,1.373,0,0,1,7.369,8h10.95A1.373,1.373,0,0,1,19.687,9.369Z" transform="translate(-1.894 -2.525)" fill="#b3b4b6"/>
    <path id="Path_6021" data-name="Path 6021" d="M41.581,9.581H33.369A1.368,1.368,0,0,1,32,8.212V0a1.345,1.345,0,0,1,.965.4l8.213,8.212A1.346,1.346,0,0,1,41.581,9.581Z" transform="translate(-10.1)" fill="#b3b4b6"/>
    <path id="Path_6022" data-name="Path 6022" d="M38.9,40.852a1.367,1.367,0,0,1-.777-.833L34.427,28.936A12.314,12.314,0,1,0,49.7,45.3Z" transform="translate(-8.206 -9.133)" fill="#b3b4b6"/>
    <path id="Path_6023" data-name="Path 6023" d="M54.318,38.042a12.334,12.334,0,0,1-.725,6.964L42.784,40.558a1.367,1.367,0,0,1-.777-.833l-3.7-11.088A12.016,12.016,0,0,1,42,28,12.359,12.359,0,0,1,54.318,38.042Z" transform="translate(-12.092 -8.837)" fill="#d4d7da"/>
    <path id="Path_6024" data-name="Path 6024" d="M53.367,23.791a1.369,1.369,0,0,1-1.137-2.128L53.6,19.61A1.368,1.368,0,0,1,54.738,19h4.106a1.369,1.369,0,1,1,0,2.737H55.47l-.962,1.443a1.366,1.366,0,0,1-1.14.61Z" transform="translate(-16.413 -5.997)" fill="#b3b4b6"/>
  </g>
</svg>
