<svg xmlns="http://www.w3.org/2000/svg" width="50.064" height="50.198" viewBox="0 0 50.064 50.198">
  <g id="medical-report" transform="translate(-1 -0.834)">
    <g id="Group_6895" data-name="Group 6895" transform="translate(1.807 1.776)">
      <g id="Group_6887" data-name="Group 6887" transform="translate(19.38)">
        <path id="Path_6076" data-name="Path 6076" d="M35.69,6.845V8.46H32.46V6.845a1.615,1.615,0,1,0-3.23,0V8.46H26V6.845a4.845,4.845,0,0,1,9.69,0Z" transform="translate(-26 -2)" fill="#d4d7da"/>
      </g>
      <g id="Group_6888" data-name="Group 6888" transform="translate(6.46 6.46)">
        <path id="Path_6077" data-name="Path 6077" d="M44.722,51.989H10.807A.808.808,0,0,1,10,51.182V10.807A.808.808,0,0,1,10.807,10H45.529V51.182A.808.808,0,0,1,44.722,51.989Z" transform="translate(-10 -10)" fill="#e6e9ed"/>
      </g>
      <g id="Group_6889" data-name="Group 6889" transform="translate(9.69 9.69)">
        <path id="Path_6078" data-name="Path 6078" d="M14,14H43.069V49.529H14Z" transform="translate(-14 -14)" fill="#d4d7da"/>
      </g>
      <g id="Group_6890" data-name="Group 6890" transform="translate(27.454 32.299)">
        <path id="Path_6079" data-name="Path 6079" d="M44.075,43.211v6.864H36V42h8.075Z" transform="translate(-36 -42)" fill="#d4d7da"/>
      </g>
      <g id="Group_6891" data-name="Group 6891" transform="translate(30.684 22.61)">
        <circle id="Ellipse_2794" data-name="Ellipse 2794" cx="1.615" cy="1.615" r="1.615" fill="#e6e9ed"/>
      </g>
      <g id="Group_6892" data-name="Group 6892" transform="translate(0 14.535)">
        <path id="Path_6080" data-name="Path 6080" d="M23.939,29.69a7.212,7.212,0,0,1-1.494,2.164L13.3,40.995,11.69,39.38,8.46,36.15l-4.3-4.3A7.376,7.376,0,0,1,2,26.629v-.024a7.282,7.282,0,0,1,1.607-4.57A5.39,5.39,0,0,1,7.83,20a5.5,5.5,0,0,1,.63.04,5.367,5.367,0,0,1,3.2,1.542l.032.032L13.3,23.23l1.647-1.647A5.4,5.4,0,0,1,23,22.035a7.282,7.282,0,0,1,1.607,4.57v.024A7.229,7.229,0,0,1,23.939,29.69Z" transform="translate(-2 -20)" fill="#d4d7da"/>
      </g>
      <g id="Group_6893" data-name="Group 6893" transform="translate(32.299 0)">
        <path id="Path_6081" data-name="Path 6081" d="M58.15,4.422v6.1a11.319,11.319,0,0,1-6.46,10.231,12.141,12.141,0,0,1-1.615.622,12.14,12.14,0,0,1-1.615-.622,11.293,11.293,0,0,1-6.4-9.076A9.14,9.14,0,0,1,42,10.527v-6.1a14.326,14.326,0,0,0,3.892-.533A14.654,14.654,0,0,0,49.5,2.347L50.075,2l.573.347A14.621,14.621,0,0,0,58.15,4.422Z" transform="translate(-42 -2)" fill="#d4d7da"/>
      </g>
      <g id="Group_6894" data-name="Group 6894" transform="translate(35.529 4.845)">
        <path id="Path_6082" data-name="Path 6082" d="M55.69,12.037v1.615a.81.81,0,0,1-.807.807H52.46v2.422a.81.81,0,0,1-.807.807H50.037a.81.81,0,0,1-.807-.807V14.46H46.807A.81.81,0,0,1,46,13.652V12.037a.81.81,0,0,1,.807-.807H49.23V8.807A.81.81,0,0,1,50.037,8h1.615a.81.81,0,0,1,.807.807V11.23h2.422A.81.81,0,0,1,55.69,12.037Z" transform="translate(-46 -8)" fill="#d4d7da"/>
      </g>
    </g>
    <g id="Group_6896" data-name="Group 6896" transform="translate(1 0.834)">
      <path id="Path_6083" data-name="Path 6083" d="M48.23,8.615V10.23H46.615A1.617,1.617,0,0,0,45,11.845V13.46a1.617,1.617,0,0,0,1.615,1.615H48.23V16.69A1.617,1.617,0,0,0,49.845,18.3H51.46a1.617,1.617,0,0,0,1.615-1.615V15.075H54.69A1.617,1.617,0,0,0,56.3,13.46V11.845A1.617,1.617,0,0,0,54.69,10.23H53.075V8.615A1.617,1.617,0,0,0,51.46,7H49.845A1.617,1.617,0,0,0,48.23,8.615Zm6.46,3.229V13.46H51.46v3.23H49.845V13.46h-3.23V11.845h3.23V8.615H51.46v3.23Z" transform="translate(-9.471 -2.021)" fill="#b3b4b6"/>
      <path id="Path_6084" data-name="Path 6084" d="M50.257,3.39a13.763,13.763,0,0,1-7.083-1.962L42.182.834l-.992.594A13.763,13.763,0,0,1,34.107,3.39H33.3V7.428H31.684V6.62a5.652,5.652,0,1,0-11.3,0v.807H9.075A1.617,1.617,0,0,0,7.46,9.043v6.47a6.181,6.181,0,0,0-4.679,2.326,8.2,8.2,0,0,0,.619,10.9L7.46,32.794V49.417a1.617,1.617,0,0,0,1.615,1.615H42.989A1.617,1.617,0,0,0,44.6,49.417V21.026A12.044,12.044,0,0,0,51.064,10.3V3.39Zm-10.5,27.955-1.708,1.922h-9.6v9.69h9.69V35.593l1.615-1.817V46.187H12.3V37.639l.807.807,9.712-9.712a8.2,8.2,0,0,0,1.433-1.927h7.576a2.422,2.422,0,1,0,0-1.615H24.9a8.3,8.3,0,0,0,.32-2.276,8.158,8.158,0,0,0-1.781-5.078,6.221,6.221,0,0,0-9.258-.513L13.112,18.4l-.807-.807V12.273H33.457a12.018,12.018,0,0,0,6.3,8.753ZM34.142,40.1l2.388-2.687v3.932h-6.46v-6.46h6.46v.1l-2.457,2.764-1.817-1.817-1.142,1.142ZM33.3,26a.807.807,0,1,1,.807.807A.808.808,0,0,1,33.3,26ZM21.995,6.62a4.037,4.037,0,1,1,8.075,0v.807H28.454V6.62a2.422,2.422,0,0,0-4.845,0v.807H21.995Zm4.845.807H25.225V6.62a.807.807,0,0,1,1.615,0ZM33.3,9.043V10.3c0,.12.01.237.015.355H10.69V16.3a6.12,6.12,0,0,0-1.615-.63V9.043ZM2.615,22.916a6.536,6.536,0,0,1,1.428-4.07,4.606,4.606,0,0,1,6.854-.38l2.215,2.215,2.215-2.215a4.606,4.606,0,0,1,6.854.38,6.556,6.556,0,0,1,1.026,6.346H15.843L14.07,28.741l-2.5-7.51-2.23,5.576H7.46v1.615h2.969l1-2.5,2.341,7.025,3.072-6.142h5.5a6.7,6.7,0,0,1-.663.786l-8.57,8.57-8.57-8.57A6.553,6.553,0,0,1,2.615,22.916Zm40.374,26.5H9.075V34.409l1.615,1.615V47.8H41.374V21.731c.191.068.38.14.576.2l.232.069.232-.069c.2-.059.384-.131.576-.2ZM49.449,10.3A10.456,10.456,0,0,1,42.182,20.31,10.456,10.456,0,0,1,34.914,10.3V4.984a15.388,15.388,0,0,0,7.107-2.171l.16-.1.16.1a15.377,15.377,0,0,0,7.107,2.171Z" transform="translate(-1 -0.834)" fill="#b3b4b6"/>
      <path id="Path_6085" data-name="Path 6085" d="M31,51h1.615v1.615H31Z" transform="translate(-6.775 -10.492)" fill="#b3b4b6"/>
      <path id="Path_6086" data-name="Path 6086" d="M27,51h1.615v1.615H27Z" transform="translate(-6.005 -10.492)" fill="#b3b4b6"/>
      <path id="Path_6087" data-name="Path 6087" d="M23,51h1.615v1.615H23Z" transform="translate(-5.235 -10.492)" fill="#b3b4b6"/>
      <path id="Path_6088" data-name="Path 6088" d="M33,25h4.845v1.615H33Z" transform="translate(-7.16 -5.486)" fill="#b3b4b6"/>
      <path id="Path_6089" data-name="Path 6089" d="M33,21h4.845v1.615H33Z" transform="translate(-7.16 -4.716)" fill="#b3b4b6"/>
      <path id="Path_6090" data-name="Path 6090" d="M33,17h4.845v1.615H33Z" transform="translate(-7.16 -3.946)" fill="#b3b4b6"/>
    </g>
  </g>
</svg>
