<svg xmlns="http://www.w3.org/2000/svg" width="48.267" height="48.292" viewBox="0 0 48.267 48.292">
  <g id="notice_2_" data-name="notice (2)" transform="translate(-2.268 -2.25)">
    <g id="Group_6886" data-name="Group 6886" transform="translate(2.268 2.25)">
      <g id="Group_6885" data-name="Group 6885">
        <path id="Path_6055" data-name="Path 6055" d="M58.4,26.249a.553.553,0,1,0,1.106,0V17.674a.553.553,0,1,0-1.106,0Z" transform="translate(-17.014 -6.157)" fill="#b3b4b6"/>
        <path id="Path_6056" data-name="Path 6056" d="M58.95,14.555A.553.553,0,0,0,59.5,14V13.47a.553.553,0,1,0-1.106,0V14A.553.553,0,0,0,58.95,14.555Z" transform="translate(-17.014 -5.052)" fill="#b3b4b6"/>
        <path id="Path_6057" data-name="Path 6057" d="M3.374,39.946a.553.553,0,1,0-1.106,0V41a.553.553,0,1,0,1.106,0Z" transform="translate(-2.268 -12.008)" fill="#b3b4b6"/>
        <path id="Path_6058" data-name="Path 6058" d="M2.821,45.2a.553.553,0,0,0-.553.553v7.693a.553.553,0,0,0,1.106,0V45.751a.553.553,0,0,0-.553-.553Z" transform="translate(-2.268 -13.533)" fill="#b3b4b6"/>
        <path id="Path_6059" data-name="Path 6059" d="M14.964,24.118H39.519a.553.553,0,1,0,0-1.106H14.964a.553.553,0,1,0,0,1.106Z" transform="translate(-5.458 -7.704)" fill="#b3b4b6"/>
        <path id="Path_6060" data-name="Path 6060" d="M41.562,8.19H28.578a.548.548,0,0,0-.553.553v4.018a.552.552,0,0,0,.553.553H41.562a.552.552,0,0,0,.553-.553V8.743A.548.548,0,0,0,41.562,8.19Zm-.553,4.018H29.131V9.3H41.009Z" transform="translate(-9.035 -3.811)" fill="#b3b4b6"/>
        <path id="Path_6061" data-name="Path 6061" d="M14.964,29.858H39.519a.553.553,0,1,0,0-1.106H14.964a.553.553,0,1,0,0,1.106Z" transform="translate(-5.458 -9.212)" fill="#b3b4b6"/>
        <path id="Path_6062" data-name="Path 6062" d="M14.964,35.6H26.528a.553.553,0,0,0,0-1.106H14.964a.553.553,0,0,0,0,1.106Z" transform="translate(-5.458 -10.72)" fill="#b3b4b6"/>
        <path id="Path_6063" data-name="Path 6063" d="M14.964,41.337H26.528a.553.553,0,0,0,0-1.106H14.964a.553.553,0,0,0,0,1.106Z" transform="translate(-5.458 -12.228)" fill="#b3b4b6"/>
        <path id="Path_6064" data-name="Path 6064" d="M64.631,47.813l-1.549-.826a.554.554,0,0,0-.521.977l1.55.826a4.532,4.532,0,0,1,1.225.95A.553.553,0,1,0,66.153,49a5.66,5.66,0,0,0-1.522-1.182Z" transform="translate(-18.031 -13.986)" fill="#b3b4b6"/>
        <path id="Path_6065" data-name="Path 6065" d="M59.11,46.122l.595.318a.553.553,0,0,0,.521-.975l-.595-.318a.553.553,0,0,0-.521.975Z" transform="translate(-17.124 -13.502)" fill="#b3b4b6"/>
        <path id="Path_6066" data-name="Path 6066" d="M48.534,38.679l-5.677-3.023V4.558A2.306,2.306,0,0,0,40.549,2.25H16.521a2.416,2.416,0,0,0-1.548.6L6.995,10.139a2.254,2.254,0,0,0-.73,1.674V48.235a2.316,2.316,0,0,0,2.308,2.308H43.616a.557.557,0,0,0,.553-.553V46.111a1.435,1.435,0,0,0-1.312-1.423V41.857l3.1,1.652a2.736,2.736,0,0,0,2.573-4.829ZM15.71,3.673a1.579,1.579,0,0,1,.14-.1v6.96a.461.461,0,0,1-.457.464H7.7C7.946,10.751,12.267,6.821,15.71,3.673Zm5.508,42.438v3.325H8.573a1.207,1.207,0,0,1-1.2-1.2V12.108h8.022a1.57,1.57,0,0,0,1.563-1.57V3.356H40.549a1.2,1.2,0,0,1,1.2,1.2v30.6a1.022,1.022,0,0,0-.951.479l-2.286-1.217a11.159,11.159,0,0,0,.56-2.109.9.9,0,0,0,.973-.457l.737-1.393a.9.9,0,0,0-.369-1.224l-7.911-4.217a.9.9,0,0,0-1.224.369l-.745,1.393a.893.893,0,0,0,.17,1.054,12.181,12.181,0,0,0-3.679,6.9.961.961,0,0,0-.435.015.881.881,0,0,0-.538.435l-.737,1.393a.907.907,0,0,0,.369,1.224L33.6,42.027a.907.907,0,0,0,1.224-.369l.745-1.393a.868.868,0,0,0-.17-1.054,11.248,11.248,0,0,0,1.452-1.652l2.278,1.217a1.014,1.014,0,0,0,.442,1.327l2.182,1.165v3.406h-19.1A1.438,1.438,0,0,0,21.217,46.111Zm13.19-7.491-6.348-3.384a11.259,11.259,0,0,1,3.627-6.805l6.355,3.384a11.32,11.32,0,0,1-3.635,6.805Zm.081,1.3-.546,1.04-7.557-4.026.553-1.04ZM31.613,27.133l.546-1.04,7.557,4.026-.553,1.04Zm6.5,8.331,2.153,1.15-.627,1.18-2.16-1.15c.192-.332.413-.737.634-1.18Zm4.955,10.646v3.325H22.323V46.111a.323.323,0,0,1,.324-.324h2.286c2.617-.007,7.882-.007,17.8-.007a.33.33,0,0,1,.332.332Zm5.618-4.254a1.624,1.624,0,0,1-2.2.671l-6.311-3.362,1.526-2.875c.074.037,5.95,3.163,6.319,3.362a1.639,1.639,0,0,1,.671,2.2Z" transform="translate(-3.318 -2.25)" fill="#b3b4b6"/>
      </g>
      <path id="Path_6067" data-name="Path 6067" d="M48.785,61.622v3.325H28.045V61.622a.323.323,0,0,1,.324-.324h2.286c2.617-.007,7.882-.007,17.8-.007A.33.33,0,0,1,48.785,61.622Z" transform="translate(-9.04 -17.761)" fill="#d4d7da"/>
      <path id="Path_6068" data-name="Path 6068" d="M29.525,9.69H41.4V12.6H29.525Z" transform="translate(-9.429 -4.205)" fill="#d4d7da"/>
      <path id="Path_6069" data-name="Path 6069" d="M16.362,4.05v6.96a.461.461,0,0,1-.457.464H8.215c.243-.251,4.564-4.18,8.007-7.329A1.579,1.579,0,0,1,16.362,4.05Z" transform="translate(-3.83 -2.723)" fill="#d4d7da"/>
      <path id="Path_6070" data-name="Path 6070" d="M18.763,47.41a4.645,4.645,0,1,0,4.645,4.645A4.648,4.648,0,0,0,18.763,47.41Zm0,8.184A3.539,3.539,0,1,1,22.3,52.055,3.538,3.538,0,0,1,18.763,55.594Z" transform="translate(-5.383 -14.114)" fill="#b3b4b6"/>
      <path id="Path_6071" data-name="Path 6071" d="M19.157,48.91A3.539,3.539,0,1,0,22.7,52.449,3.538,3.538,0,0,0,19.157,48.91Zm1.644,3.3-1.954,1.386a.55.55,0,0,1-.782-.14l-.693-1.04a.553.553,0,1,1,.922-.612l.376.56,1.489-1.054a.555.555,0,0,1,.774.133A.545.545,0,0,1,20.8,52.206Z" transform="translate(-5.777 -14.508)" fill="#d4d7da"/>
      <path id="Path_6072" data-name="Path 6072" d="M21.391,53.023l-1.954,1.386a.55.55,0,0,1-.782-.14l-.693-1.04a.553.553,0,1,1,.922-.612l.376.56,1.489-1.054a.555.555,0,0,1,.774.133A.545.545,0,0,1,21.391,53.023Z" transform="translate(-6.367 -15.326)" fill="#b3b4b6"/>
    </g>
  </g>
</svg>
