<svg xmlns="http://www.w3.org/2000/svg" width="49.985" height="52.284" viewBox="0 0 49.985 52.284">
  <g id="leave_8_" data-name="leave (8)" transform="translate(-18.904 -8)">
    <path id="Path_6101" data-name="Path 6101" d="M44.179,59.857l-.82-.815a.318.318,0,0,0-.447,0,.311.311,0,0,0,0,.444l.814.82-.811.815a.314.314,0,0,0,0,.448.31.31,0,0,0,.223.093.319.319,0,0,0,.224-.093l.821-.817.814.82a.316.316,0,0,0,.443-.45l-.811-.815.814-.82a.311.311,0,0,0,0-.444.316.316,0,0,0-.445,0Zm-5.509-.817-.813.819-.821-.817a.317.317,0,0,0-.447,0,.311.311,0,0,0,0,.444l.814.82-.811.815a.314.314,0,0,0,0,.448.31.31,0,0,0,.223.093.319.319,0,0,0,.224-.093l.821-.817.814.82a.316.316,0,0,0,.443-.45l-.811-.815.814-.82a.311.311,0,0,0,0-.444A.315.315,0,0,0,38.669,59.041Zm-8.76-10.307a3.059,3.059,0,0,1,3.053-3.055h1.48v2.827a1.162,1.162,0,0,0,1.16,1.159h1.672a1.162,1.162,0,0,0,1.16-1.159V45.679h5.381v2.827a1.159,1.159,0,0,0,1.16,1.159h1.667a1.159,1.159,0,0,0,1.16-1.159V45.679h5.381v2.827a1.162,1.162,0,0,0,1.16,1.159h1.672a1.162,1.162,0,0,0,1.16-1.159V45.679h5.381v2.827a1.159,1.159,0,0,0,1.16,1.159H65.39a1.158,1.158,0,0,0,1.155-1.159V45.679h1.48a3.06,3.06,0,0,1,3.058,3.055V52.4H29.909ZM53.338,63.15H47.649V57.461h5.689Zm0,.632v5.689H47.649V63.782Zm-6.322,5.689H41.327V63.782h5.689v5.689ZM41.327,63.15V57.461h5.689V63.15Zm-.628,0H35.01V57.461H40.7Zm0,.632v5.689H35.01V63.782Zm0,6.321v5.689H35.01V70.1ZM56.747,90.729a2.1,2.1,0,1,1-2.1-2.1,2.106,2.106,0,0,1,2.1,2.1Zm15.233-2.1a2.1,2.1,0,1,1-2.105,2.1A2.105,2.105,0,0,1,71.98,88.629Zm-8.669-3.11A15.484,15.484,0,0,1,53.6,82.208a11.78,11.78,0,0,1-4.518-8.16l-.047-.57H77.584l-.047.57a11.781,11.781,0,0,1-4.518,8.16A15.484,15.484,0,0,1,63.311,85.519Z" transform="translate(-9.845 -33.707)" fill="#d4d7da" fill-rule="evenodd"/>
    <path id="Path_6102" data-name="Path 6102" d="M63.708,57.022A1.576,1.576,0,1,0,62.135,58.6,1.578,1.578,0,0,0,63.708,57.022ZM53.466,51.285c7.245,0,13.195-4.855,13.7-10.987h-27.4C40.272,46.429,46.221,51.285,53.466,51.285ZM39.949,45.958H23.117a2.532,2.532,0,0,1-2.526-2.528V19.856h40.12v7.668A16.714,16.714,0,0,0,57.3,26.359V23.437a.844.844,0,0,0-.844-.843h-31.6a.844.844,0,0,0-.844.843V42.4a.843.843,0,0,0,.844.843H38.664A12.581,12.581,0,0,0,39.949,45.958ZM20.591,15.026V18.17h40.12V15.026A2.533,2.533,0,0,0,58.18,12.5h-.953v2.3a1.685,1.685,0,0,1-1.682,1.686H53.873A1.686,1.686,0,0,1,52.186,14.8V12.5H47.859v2.3a1.69,1.69,0,0,1-1.687,1.686H44.5A1.69,1.69,0,0,1,42.812,14.8V12.5H38.485v2.3A1.686,1.686,0,0,1,36.8,16.484H35.131A1.686,1.686,0,0,1,33.443,14.8V12.5H29.116v2.3a1.69,1.69,0,0,1-1.687,1.686H25.757A1.69,1.69,0,0,1,24.07,14.8V12.5h-.953a2.532,2.532,0,0,0-2.526,2.528Zm5.166-5.34h1.672V14.8H25.757V9.686Zm9.374,0H36.8V14.8H35.131V9.686Zm9.369,0h1.672V14.8H44.5V9.686Zm9.374,0H55.54l0,1.966,0,0s0,0,0,0V14.8H53.873V9.686Zm.437,17.96v4.776a26.83,26.83,0,0,1,9.8,1.952,13.16,13.16,0,0,1,2.377,1.313c-1.747-4.463-6.5-7.744-12.177-8.042Zm0,10.965H66.979a7.119,7.119,0,0,0-3.538-2.69,25.13,25.13,0,0,0-9.131-1.812v4.5Zm-3.335,0h1.647V36.924H50.975Zm-6.322,0h4.635V36.924H44.653Zm-5.766,0h4.079V36.924H38.331v1.9A.842.842,0,0,1,38.887,38.611Zm-6.878,2.947h4.635V36.924H32.009Zm-6.317,0h4.635V36.924H25.692Zm0-6.322h4.635V30.6H25.692Zm4.635-10.956H25.692v4.635h4.635Zm6.317,0H32.009v4.635h4.635Zm6.322,0H38.331v4.635h4.635Zm6.322,0H44.653v4.635h4.635Zm1.687,10.956h1.647V30.6H50.975Zm-6.322,0h4.635V30.6H44.653ZM36.644,30.6H32.009v4.635h4.635Zm1.687,4.635h4.635V30.6H38.331ZM55.61,24.281H50.975v4.635h1.647V26.781a.843.843,0,0,1,.844-.843,17.66,17.66,0,0,1,2.144.131V24.281ZM46.375,57.022A1.576,1.576,0,1,0,44.8,58.6,1.578,1.578,0,0,0,46.375,57.022Zm19.021,0a3.263,3.263,0,1,1-5.568-2.3L58.409,52.26a17.521,17.521,0,0,1-9.885,0L47.1,54.718a3.256,3.256,0,1,1-1.459-.844l1.26-2.187a15.358,15.358,0,0,1-5.7-4.042H23.117A4.219,4.219,0,0,1,18.9,43.43v-28.4a4.219,4.219,0,0,1,4.213-4.214h.953V9.686A1.69,1.69,0,0,1,25.757,8h1.672a1.69,1.69,0,0,1,1.687,1.686v1.126h4.327V9.686A1.687,1.687,0,0,1,35.131,8H36.8a1.687,1.687,0,0,1,1.687,1.686v1.126h4.327V9.686A1.69,1.69,0,0,1,44.5,8h1.672a1.69,1.69,0,0,1,1.687,1.686v1.126h4.327V9.686A1.687,1.687,0,0,1,53.873,8h1.672a1.686,1.686,0,0,1,1.682,1.686v1.126h.953a4.219,4.219,0,0,1,4.213,4.214V28.439a13.1,13.1,0,0,1,6.5,11.016c0,5.4-3.632,10.067-8.863,12.232l1.26,2.187A3.262,3.262,0,0,1,65.4,57.022ZM33.136,26.6l-.442.444a.843.843,0,1,0,1.191,1.193l.447-.445.442.445a.842.842,0,0,0,.6.247.843.843,0,0,0,.6-1.44l-.442-.444.442-.445a.843.843,0,0,0-1.191-1.192l-.442.444-.447-.444a.843.843,0,0,0-1.191,1.192Zm-6.764.444a.843.843,0,1,0,1.191,1.193l.447-.445.442.445a.843.843,0,1,0,1.191-1.193L29.2,26.6l.442-.445a.843.843,0,0,0-1.191-1.192l-.442.445-.447-.445a.843.843,0,0,0-1.191,1.192l.442.445Z" transform="translate(0)" fill="#b3b4b6" fill-rule="evenodd"/>
  </g>
</svg>
