<svg xmlns="http://www.w3.org/2000/svg" width="47.304" height="44.292" viewBox="0 0 47.304 44.292">
  <g id="salary_1_" data-name="salary (1)" transform="translate(0.035 -12.791)">
    <path id="Path_6025" data-name="Path 6025" d="M189.708,52.659a2.059,2.059,0,0,0-1.387-1.224l-.278-.077v-.446a.379.379,0,1,0-.757,0v.45l-.274.079a1.769,1.769,0,0,0-1.379,1.778c.053,1.083,1.023,1.531,1.976,1.688.613.1,1.427.308,1.516,1.039a.723.723,0,0,1-.167.591,1.767,1.767,0,0,1-1.226.465,1.455,1.455,0,0,1-1.545-.992.378.378,0,1,0-.735.183A2.062,2.062,0,0,0,187,57.677l.285.073v.445a.379.379,0,1,0,.757,0v-.441l.3-.066a1.708,1.708,0,0,0,1.537-1.833c-.136-1.123-1.143-1.531-2.145-1.695-.549-.09-1.31-.3-1.342-.978a1.049,1.049,0,0,1,.923-1.036,1.442,1.442,0,0,1,1.7.806.378.378,0,0,0,.7-.293Zm-17.467,19.9a1.594,1.594,0,0,1-.083-.506v-16.9L184,63.647l-11.587,9.428Zm19.088-8.909,11.843-8.5v16.9a1.6,1.6,0,0,1-.082.506l-.173.52Zm-3.664-3.718a5.375,5.375,0,1,1,5.375-5.376A5.381,5.381,0,0,1,187.666,59.929Zm-4.73-14.1,3.148-2.562a2.516,2.516,0,0,1,3.164,0l3.148,2.562Zm16.581,5.793v5.223l3.411-2.446Zm-23.7,5.223V51.62L172.4,54.4Zm7.061-26.387,3.71,3.71h-3.71Z" transform="translate(-155.903 -15.993)" fill="#d4d7da" fill-rule="evenodd"/>
    <path id="Path_6026" data-name="Path 6026" d="M25.733,37.568a4.8,4.8,0,1,0,4.8-4.8A4.81,4.81,0,0,0,25.733,37.568Zm-1.456,0a6.26,6.26,0,1,1,6.26,6.26,6.266,6.266,0,0,1-6.26-6.26Zm6.315,1.991a1.347,1.347,0,0,0,.913-.322.327.327,0,0,0,.075-.286c-.018-.151-.061-.5-1.155-.684-1.85-.3-2.175-1.361-2.2-1.964a2.057,2.057,0,0,1,1.589-2.077v-.158a.728.728,0,1,1,1.456,0v.152a2.342,2.342,0,0,1,1.572,1.386.728.728,0,0,1-1.342.563,1.033,1.033,0,0,0-1.216-.561c-.147.034-.626.177-.6.624.005.109.021.44.986.6,1.441.237,2.236.891,2.364,1.945a1.778,1.778,0,0,1-.419,1.414,2.481,2.481,0,0,1-1.341.747v.133a.728.728,0,0,1-1.456,0v-.145a2.344,2.344,0,0,1-1.753-1.691.728.728,0,1,1,1.412-.352,1.052,1.052,0,0,0,1.123.678Zm13.18,16.069h.007L33.2,47.02h-5.33L17.3,55.627H43.772ZM14.537,51.265H1.42V14.246H24.84v4.083a.728.728,0,0,0,.728.728h4.082V25.2a3.479,3.479,0,0,0-1.322.668l-3.62,2.946h-5.2a.728.728,0,0,0-.728.728v.335H6.75a.728.728,0,0,0,0,1.456H18.779v2.3l-1.741,1.417H6.75a.728.728,0,1,0,0,1.455h8.5l-.444.361a.725.725,0,0,0-.269.564v2.8H6.75a.728.728,0,0,0,0,1.455h7.787v3.722H6.75a.728.728,0,1,0,0,1.455h7.787ZM26.3,17.6H28.62L26.3,15.276ZM31.83,27a2.056,2.056,0,0,0-2.583,0l-2.233,1.817h7.049Zm-13.05,8.517-1.019.829h0l-1.3,1.055,2.317,1.662Zm7.637,10.816L16.053,54.762a1.168,1.168,0,0,1-.061-.371V38.852ZM40.84,30.269V40.1l-7.613,5.461h-5.38L20.235,40.1V30.269ZM42.3,35.512v3.548L44.613,37.4Zm2.787,3.34V54.39a1.175,1.175,0,0,1-.06.371L34.659,46.329ZM46.538,54.39a2.733,2.733,0,0,1-2.765,2.692H17.3a2.733,2.733,0,0,1-2.765-2.692V52.72H.693a.728.728,0,0,1-.728-.728V13.519a.728.728,0,0,1,.728-.728H25.568a.727.727,0,0,1,.515.213l4.81,4.81a.727.727,0,0,1,.213.515v6.8a3.485,3.485,0,0,1,1.643.735l3.62,2.946h5.2a.728.728,0,0,1,.728.728v4.1L46.27,36.87a.727.727,0,0,1,.268.564V54.39ZM6.75,20.975H19.362a.728.728,0,0,0,0-1.456H6.75a.728.728,0,0,0,0,1.456Zm-.728,4.45a.728.728,0,0,0,.728.728H24.319a.728.728,0,1,0,0-1.455H6.75A.728.728,0,0,0,6.023,25.425Z" fill="#b3b4b6" fill-rule="evenodd"/>
  </g>
</svg>
