<svg xmlns="http://www.w3.org/2000/svg" width="39.259" height="48.075" viewBox="0 0 39.259 48.075">
  <g id="Blue" transform="translate(-7.003 -2)">
    <rect id="Rectangle_1288" data-name="Rectangle 1288" width="22" height="44" rx="4" transform="translate(13.003 3)" fill="#b3b4b6" opacity="0.7"/>
    <path id="Path_5254" data-name="Path 5254" d="M37,6h1.6V7.6H37Z" transform="translate(-5.962 -0.795)" fill="#4f83d1"/>
    <path id="Path_5255" data-name="Path 5255" d="M42.422,28.6l1.6,8.814-.8,5.609,1.6,6.41,4.807,4.807H31.2l-3.2-3.2h8.012a3.2,3.2,0,0,0,3.2-3.2V28.6a1.6,1.6,0,0,1,1.6-1.6A1.756,1.756,0,0,1,42.422,28.6Z" transform="translate(-4.173 -4.969)" fill="#d4d7da"/>
    <path id="Path_5256" data-name="Path 5256" d="M14,49H36.435v3.2a3.2,3.2,0,0,1-3.2,3.2H17.2A3.2,3.2,0,0,1,14,52.2Z" transform="translate(-1.391 -9.341)" fill="#d4d7da"/>
    <path id="Path_5257" data-name="Path 5257" d="M26,52h3.2v1.6H26Z" transform="translate(-3.776 -9.938)" fill="#4f83d1"/>
    <path id="Path_5258" data-name="Path 5258" d="M23,44h1.6v1.6H23Z" transform="translate(-3.18 -8.348)" fill="#4f83d1"/>
    <path id="Path_5259" data-name="Path 5259" d="M27,44h1.6v1.6H27Z" transform="translate(-3.975 -8.348)" fill="#4f83d1"/>
    <path id="Path_5260" data-name="Path 5260" d="M31,44h1.6v1.6H31Z" transform="translate(-4.77 -8.348)" fill="#4f83d1"/>
    <path id="Path_5261" data-name="Path 5261" d="M22,3h9.615V6.2H22Z" transform="translate(-2.981 -0.199)" fill="#d4d7da"/>
    <rect id="Rectangle_1289" data-name="Rectangle 1289" width="4.533" height="9.065" rx="2.266" transform="translate(7.003 36.451) rotate(-45)" fill="#d4d7da"/>
    <rect id="Rectangle_1290" data-name="Rectangle 1290" width="4.533" height="9.065" rx="2.266" transform="translate(7.004 30.041) rotate(-45)" fill="#d4d7da"/>
    <path id="Path_5262" data-name="Path 5262" d="M13.014,20.8l.026.023v6.41L9.821,24.019a2.306,2.306,0,0,1,.909-3.794,2.2,2.2,0,0,1,2.284.576Z" transform="translate(-0.43 -3.6)" fill="#d4d7da"/>
    <path id="Path_5263" data-name="Path 5263" d="M23,12h1.6v1.6H23Z" transform="translate(-3.18 -1.988)" fill="#4f83d1"/>
    <path id="Path_5264" data-name="Path 5264" d="M27,12h1.6v1.6H27Z" transform="translate(-3.975 -1.988)" fill="#4f83d1"/>
    <path id="Path_5265" data-name="Path 5265" d="M31,12h1.6v1.6H31Z" transform="translate(-4.77 -1.988)" fill="#4f83d1"/>
    <path id="Path_5266" data-name="Path 5266" d="M20,21h4.807v4.807H20Z" transform="translate(-2.583 -3.776)" fill="#fff"/>
    <path id="Path_5267" data-name="Path 5267" d="M30,21h4.807v4.807H30Z" transform="translate(-4.571 -3.776)" fill="#fff"/>
    <path id="Path_5268" data-name="Path 5268" d="M20,31h4.807v4.807H20Z" transform="translate(-2.583 -5.764)" fill="#fff"/>
    <path id="Path_5269" data-name="Path 5269" d="M30,31h4.807v4.807H30Z" transform="translate(-4.571 -5.764)" fill="#fff"/>
    <rect id="Rectangle_1291" data-name="Rectangle 1291" width="4.533" height="9.065" rx="2.266" transform="translate(9.407 26.053) rotate(-45)" fill="#d4d7da"/>
    <g id="Group_6058" data-name="Group 6058" transform="translate(7.142 2)">
      <path id="Path_5270" data-name="Path 5270" d="M23,12h1.6v1.6H23Z" transform="translate(-10.322 -3.988)" fill="#d4d7da"/>
      <path id="Path_5271" data-name="Path 5271" d="M27,12h1.6v1.6H27Z" transform="translate(-11.117 -3.988)" fill="#d4d7da"/>
      <path id="Path_5272" data-name="Path 5272" d="M31,12h1.6v1.6H31Z" transform="translate(-11.912 -3.988)" fill="#d4d7da"/>
      <path id="Path_5273" data-name="Path 5273" d="M37,6h1.6V7.6H37Z" transform="translate(-13.104 -2.795)" fill="#d4d7da"/>
      <path id="Path_5274" data-name="Path 5274" d="M46.235,49.58a.8.8,0,0,0-.174-.873L41.414,44.06,39.9,38.018l.779-5.448a.815.815,0,0,0,0-.257l-1.6-8.791a2.535,2.535,0,0,0-2.394-2.291,2.372,2.372,0,0,0-.8.147V6.006A4.011,4.011,0,0,0,31.878,2H15.849a4.011,4.011,0,0,0-4.006,4.006v9.83a2.815,2.815,0,0,0-1.784.036,3.108,3.108,0,0,0-2.018,2.271,3.066,3.066,0,0,0,.819,2.842l2.368,2.368a3,3,0,0,0-1.473,3.673,3.058,3.058,0,0,0-1.678,5.186l1.311,1.311a3.03,3.03,0,0,0-1.312.761,3.07,3.07,0,0,0,0,4.338l3.2,3.2a3.064,3.064,0,0,0,.561.434v.6a4.011,4.011,0,0,0,4.006,4.006h7.681l2.97,2.97a.8.8,0,0,0,.568.235H45.495a.8.8,0,0,0,.74-.494ZM19.855,3.6h8.012V5.2H19.855Zm-6.41,13.621V6.006a2.4,2.4,0,0,1,2.4-2.4h2.4v2.4a.8.8,0,0,0,.8.8h9.615a.8.8,0,0,0,.8-.8V3.6h2.4a2.4,2.4,0,0,1,2.4,2.4V38.857H16.4a3.036,3.036,0,0,0-.777-1.368L14.3,36.174a3.008,3.008,0,0,0,2.217-2.925,3.045,3.045,0,0,0-.173-.969,2.991,2.991,0,0,0,2.127-1.435h3.783a.8.8,0,0,0,.8-.8V25.236a.8.8,0,0,0-.8-.8H17.451a.8.8,0,0,0-.8.8v.481l-1.835-1.834a3.089,3.089,0,0,0-1.37-.776Zm4.807,10.144v-1.33h3.2v3.2H18.924a3.053,3.053,0,0,0-.671-1.873Zm-8.26-7.516a1.472,1.472,0,0,1-.387-1.362,1.512,1.512,0,0,1,1.006-1.111A1.137,1.137,0,0,1,11,17.311a1.469,1.469,0,0,1,.842.28V21.7Zm1.623,5.166a1.532,1.532,0,0,1,1.042-.422,1.462,1.462,0,0,1,1.033.422l3.2,3.2a1.483,1.483,0,0,1,.436,1.042,1.465,1.465,0,0,1-.1.519,1.386,1.386,0,0,1-.332.516,1.47,1.47,0,0,1-1.942.123l-3.335-3.328a1.454,1.454,0,0,1-.43-1.035,1.478,1.478,0,0,1,.427-1.036Zm-2.4,6.062a1.465,1.465,0,0,1,1.95-2.182l3.324,3.315a1.465,1.465,0,1,1-2.072,2.072Zm3.2,9.615-3.2-3.2a1.465,1.465,0,0,1,2.07-2.072l3.2,3.2a1.465,1.465,0,1,1-2.072,2.072Zm3.432,4.573a2.4,2.4,0,0,1-2.4-2.4v-.14h.006A3.022,3.022,0,0,0,16.4,40.46h17.88v2.4a2.4,2.4,0,0,1-2.4,2.4Zm11.549,3.2-1.6-1.6h6.078a4.011,4.011,0,0,0,4.006-4.006V23.629a.8.8,0,0,1,.8-.8c.418,0,.741.47.814.945l1.579,8.686-.783,5.479a.812.812,0,0,0,.016.308l1.6,6.41a.8.8,0,0,0,.211.373l3.44,3.44Z" transform="translate(-7.177 -2)" fill="#b3b4b6"/>
      <path id="Path_5275" data-name="Path 5275" d="M26,52h3.2v1.6H26Z" transform="translate(-10.918 -11.938)" fill="#b3b4b6"/>
      <path id="Path_5276" data-name="Path 5276" d="M19.8,26.41h4.807a.8.8,0,0,0,.8-.8V20.8a.8.8,0,0,0-.8-.8H19.8a.8.8,0,0,0-.8.8v4.807A.8.8,0,0,0,19.8,26.41Zm.8-4.807h3.2v3.2H20.6Z" transform="translate(-9.527 -5.578)" fill="#b3b4b6"/>
      <path id="Path_5277" data-name="Path 5277" d="M29,25.609a.8.8,0,0,0,.8.8h4.807a.8.8,0,0,0,.8-.8V20.8a.8.8,0,0,0-.8-.8H29.8a.8.8,0,0,0-.8.8ZM30.6,21.6h3.2v3.2H30.6Z" transform="translate(-11.514 -5.578)" fill="#b3b4b6"/>
      <path id="Path_5278" data-name="Path 5278" d="M34.609,30H29.8a.8.8,0,0,0-.8.8v4.807a.8.8,0,0,0,.8.8h4.807a.8.8,0,0,0,.8-.8V30.8A.8.8,0,0,0,34.609,30Zm-.8,4.807H30.6V31.6h3.2Z" transform="translate(-11.514 -7.565)" fill="#b3b4b6"/>
      <path id="Path_5279" data-name="Path 5279" d="M23,44h1.6v1.6H23Z" transform="translate(-10.322 -10.348)" fill="#d4d7da"/>
      <path id="Path_5280" data-name="Path 5280" d="M27,44h1.6v1.6H27Z" transform="translate(-11.117 -10.348)" fill="#d4d7da"/>
      <path id="Path_5281" data-name="Path 5281" d="M31,44h1.6v1.6H31Z" transform="translate(-11.912 -10.348)" fill="#d4d7da"/>
    </g>
  </g>
</svg>
