<svg xmlns="http://www.w3.org/2000/svg" width="46.2" height="46.2" viewBox="0 0 46.2 46.2">
  <g id="management" transform="translate(0 0)">
    <path id="Path_5614" data-name="Path 5614" d="M207.7,195.85a3.85,3.85,0,1,1-3.85-3.85A3.85,3.85,0,0,1,207.7,195.85Zm0,0" transform="translate(-180.75 -173.52)" fill="#d4d7da"/>
    <path id="Path_5615" data-name="Path 5615" d="M343.7,227.85a3.85,3.85,0,1,1-3.85-3.85A3.85,3.85,0,0,1,343.7,227.85Zm0,0" transform="translate(-303.66 -202.44)" fill="#d4d7da"/>
    <path id="Path_5616" data-name="Path 5616" d="M71.7,227.85A3.85,3.85,0,1,1,67.85,224,3.85,3.85,0,0,1,71.7,227.85Zm0,0" transform="translate(-57.84 -202.44)" fill="#d4d7da"/>
    <path id="Path_5617" data-name="Path 5617" d="M150.16,296h6.16a6.16,6.16,0,0,1,6.16,6.16v7.7a3.08,3.08,0,0,1-3.08,3.08H147.08a3.08,3.08,0,0,1-3.08-3.08v-7.7A6.16,6.16,0,0,1,150.16,296Zm0,0" transform="translate(-130.14 -267.51)" fill="#d4d7da"/>
    <path id="Path_5618" data-name="Path 5618" d="M286.16,328h6.16a6.16,6.16,0,0,1,6.16,6.16v3.08a4.62,4.62,0,0,1-4.62,4.62H280v-7.7A6.16,6.16,0,0,1,286.16,328Zm0,0" transform="translate(-253.05 -296.43)" fill="#d4d7da"/>
    <path id="Path_5619" data-name="Path 5619" d="M26.48,341.86H12.62A4.62,4.62,0,0,1,8,337.24v-3.08A6.16,6.16,0,0,1,14.16,328h6.16a6.16,6.16,0,0,1,6.16,6.16Zm0,0" transform="translate(-7.23 -296.43)" fill="#d4d7da"/>
    <g id="Group_6394" data-name="Group 6394" transform="translate(0 0)">
      <path id="Path_5620" data-name="Path 5620" d="M63.27,25.41V23.87a.77.77,0,0,0,.77-.77V18.48a.77.77,0,0,0-.77-.77H59.112l-.149-.578a14.227,14.227,0,0,0-1.571-3.762l-.308-.515L60.036,9.9a.763.763,0,0,0,0-1.078l-3.27-3.275a.781.781,0,0,0-1.078,0L52.73,8.5l-.515-.308a14.257,14.257,0,0,0-3.767-1.572l-.578-.15V2.31a.77.77,0,0,0-.77-.77H42.48a.77.77,0,0,0-.77.77V6.468l-.578.15a14.256,14.256,0,0,0-3.763,1.57l-.515.308L33.9,5.544a.781.781,0,0,0-1.082,0l-3.271,3.27a.764.764,0,0,0,0,1.083L32.5,12.854l-.308.515a14.227,14.227,0,0,0-1.571,3.762l-.151.578H26.31a.77.77,0,0,0-.77.77V23.1a.77.77,0,0,0,.77.77v1.54A2.31,2.31,0,0,1,24,23.1V18.48a2.31,2.31,0,0,1,2.31-2.31h2.979A15.73,15.73,0,0,1,30.571,13.1l-2.118-2.118a2.3,2.3,0,0,1,0-3.26l3.273-3.273a2.358,2.358,0,0,1,3.261,0L37.1,6.57A15.735,15.735,0,0,1,40.17,5.29V2.31A2.31,2.31,0,0,1,42.48,0H47.1a2.31,2.31,0,0,1,2.31,2.31V5.29a15.728,15.728,0,0,1,3.067,1.281l2.118-2.118a2.359,2.359,0,0,1,3.261,0l3.272,3.272a2.3,2.3,0,0,1,0,3.26L59.01,13.1a15.768,15.768,0,0,1,1.281,3.068H63.27a2.31,2.31,0,0,1,2.31,2.31V23.1a2.31,2.31,0,0,1-2.31,2.31Zm0,0" transform="translate(-21.69 0)" fill="#b3b4b6"/>
      <path id="Path_5621" data-name="Path 5621" d="M149.56,114.78h-1.54a9.24,9.24,0,1,0-18.48,0H128a10.78,10.78,0,1,1,21.56,0Zm0,0" transform="translate(-115.68 -93.99)" fill="#b3b4b6"/>
      <path id="Path_5622" data-name="Path 5622" d="M196.62,193.24a4.62,4.62,0,1,1,4.62-4.62A4.62,4.62,0,0,1,196.62,193.24Zm0-7.7a3.08,3.08,0,1,0,3.08,3.08A3.08,3.08,0,0,0,196.62,185.54Zm0,0" transform="translate(-173.52 -166.29)" fill="#b3b4b6"/>
      <path id="Path_5623" data-name="Path 5623" d="M332.62,225.24a4.62,4.62,0,1,1,4.62-4.62A4.62,4.62,0,0,1,332.62,225.24Zm0-7.7a3.08,3.08,0,1,0,3.08,3.08A3.08,3.08,0,0,0,332.62,217.54Zm0,0" transform="translate(-296.43 -195.21)" fill="#b3b4b6"/>
      <path id="Path_5624" data-name="Path 5624" d="M60.62,225.24a4.62,4.62,0,1,1,4.62-4.62A4.62,4.62,0,0,1,60.62,225.24Zm0-7.7a3.08,3.08,0,1,0,3.08,3.08A3.08,3.08,0,0,0,60.62,217.54Zm0,0" transform="translate(-50.61 -195.21)" fill="#b3b4b6"/>
      <path id="Path_5625" data-name="Path 5625" d="M43.171,292.285a6.854,6.854,0,0,0-3.9-1.206H33.11a6.872,6.872,0,0,0-1.117.1,6.9,6.9,0,0,0-1.886-1.957,2.974,2.974,0,0,0-.355-.231A6.876,6.876,0,0,0,26.18,288H20.02a6.853,6.853,0,0,0-5.81,3.181,6.9,6.9,0,0,0-1.12-.1H6.93a6.853,6.853,0,0,0-3.9,1.2A6.93,6.93,0,0,0,0,298.009v3.08a5.4,5.4,0,0,0,3.136,4.893,5.221,5.221,0,0,0,2.254.5h7.7v-1.54H6.16v-8.47H4.62v8.393a3.616,3.616,0,0,1-.838-.279,3.856,3.856,0,0,1-2.242-3.494v-3.08A5.4,5.4,0,0,1,3.9,293.554a5.328,5.328,0,0,1,3.029-.935h6.16c.136,0,.267.015.4.024a6.927,6.927,0,0,0-.4,2.286v7.7a3.855,3.855,0,0,0,3.85,3.85h2.31v-12.32H17.71v10.78h-.77a2.31,2.31,0,0,1-2.31-2.31v-7.7a5.39,5.39,0,0,1,5.39-5.39h6.16a5.382,5.382,0,0,1,2.807.792,1.953,1.953,0,0,1,.225.144,5.454,5.454,0,0,1,1.726,1.925,5.378,5.378,0,0,1,.632,2.529v7.7a2.31,2.31,0,0,1-2.31,2.31h-.77v-10.78H26.95v12.32h2.31a3.855,3.855,0,0,0,3.85-3.85v-7.7a6.938,6.938,0,0,0-.4-2.286c.133-.009.264-.024.4-.024h6.16a5.33,5.33,0,0,1,3.032.936,5.4,5.4,0,0,1,2.359,4.454v3.08a3.855,3.855,0,0,1-2.254,3.5,3.552,3.552,0,0,1-.826.273v-8.393H40.04v8.47H33.11v1.54h7.7a5.2,5.2,0,0,0,2.242-.491,5.4,5.4,0,0,0,3.148-4.9v-3.08a6.93,6.93,0,0,0-3.029-5.724Zm0,0" transform="translate(0 -260.279)" fill="#b3b4b6"/>
      <path id="Path_5626" data-name="Path 5626" d="M208,464h6.16v1.54H208Zm0,0" transform="translate(-187.98 -419.34)" fill="#b3b4b6"/>
    </g>
  </g>
</svg>
