<svg xmlns="http://www.w3.org/2000/svg" width="25.98" height="33.133" viewBox="0 0 25.98 33.133">
  <g id="Group_6518" data-name="Group 6518" transform="translate(-302.352 -336.133)">
    <g id="Group_6515" data-name="Group 6515" transform="translate(303.258 337.029)">
      <path id="Path_5634" data-name="Path 5634" d="M189.376,8.429V34.4H170.57a.9.9,0,0,1-.9-.9V8.429a.9.9,0,0,1,.9-.9h17.91A.9.9,0,0,1,189.376,8.429Z" transform="translate(-169.675 -7.534)" fill="#d4d7da"/>
      <path id="Path_5635" data-name="Path 5635" d="M186.689,8.429V34.4H170.57a.9.9,0,0,1-.9-.9V8.429a.9.9,0,0,1,.9-.9h15.223A.9.9,0,0,1,186.689,8.429Z" transform="translate(-169.675 -7.534)" fill="#d4d7da"/>
      <path id="Path_5636" data-name="Path 5636" d="M231.957,51.181V69.987l-7.164,7.164H213.151a.9.9,0,0,1-.9-.9V51.181a.9.9,0,0,1,.9-.9h17.91A.9.9,0,0,1,231.957,51.181Z" transform="translate(-207.788 -45.8)" fill="#d4d7da"/>
      <path id="Path_5637" data-name="Path 5637" d="M229.279,51.181V69.987l-7.164,7.164h-8.964a.9.9,0,0,1-.9-.9V51.181a.9.9,0,0,1,.9-.9h15.232A.9.9,0,0,1,229.279,51.181Z" transform="translate(-207.788 -45.8)" fill="#d4d7da"/>
      <path id="Path_5638" data-name="Path 5638" d="M338.972,237.933l-7.164,7.164v-6.268a.9.9,0,0,1,.9-.9h6.268Z" transform="translate(-314.794 -213.755)" fill="#d4d7da"/>
      <circle id="Ellipse_507" data-name="Ellipse 507" cx="2.686" cy="2.686" r="2.686" transform="translate(8.059 8.955)" fill="#f5f5f5"/>
    </g>
    <g id="Group_6517" data-name="Group 6517" transform="translate(302.352 336.133)">
      <path id="Path_5644" data-name="Path 5644" d="M163.932,17.067V42.141h-1.791V17.067Z" transform="translate(-162.13 -15.276)" fill="#fff"/>
      <g id="Group_6516" data-name="Group 6516" transform="translate(0)">
        <path id="Path_5645" data-name="Path 5645" d="M162.946,78.591a.9.9,0,0,0,.636-1.531l-.134-.108a.682.682,0,0,0-.161-.081.566.566,0,0,0-.161-.053,1.307,1.307,0,0,0-.179-.018.94.94,0,0,0-.636.26.883.883,0,0,0,.3,1.46A.9.9,0,0,0,162.946,78.591Z" transform="translate(-162.04 -68.741)" fill="#b3b4b6"/>
        <path id="Path_5647" data-name="Path 5647" d="M163.932,28.656h2.686v2.686a1.793,1.793,0,0,0,1.791,1.791h11.641a.9.9,0,0,0,.633-.263l7.163-7.163v0a.886.886,0,0,0,.172-.256,1.157,1.157,0,0,0,.078-.321c0-.019.011-.036.011-.055V6.269a1.793,1.793,0,0,0-1.791-1.791h-2.686V1.791A1.793,1.793,0,0,0,181.842,0h-17.91a1.793,1.793,0,0,0-1.791,1.791V5.373a.9.9,0,0,0,1.791,0V1.791h17.91V4.477H168.409a1.793,1.793,0,0,0-1.791,1.791v20.6h-2.686V12.537a.9.9,0,0,0-1.791,0V26.865A1.793,1.793,0,0,0,163.932,28.656Zm17.014,1.42V25.969h4.107ZM168.41,6.268h17.91v17.91h-5.373a1.793,1.793,0,0,0-1.791,1.791v5.373H168.41Z" transform="translate(-162.13)" fill="#b3b4b6"/>
        <path id="Path_5648" data-name="Path 5648" d="M242.524,92.5a3.582,3.582,0,1,0-3.582-3.582A3.582,3.582,0,0,0,242.524,92.5Zm0-5.373a1.791,1.791,0,1,1-1.791,1.791A1.791,1.791,0,0,1,242.524,87.125Z" transform="translate(-230.872 -76.379)" fill="#b3b4b6"/>
        <path id="Path_5649" data-name="Path 5649" d="M325.171,87.125h3.582a.9.9,0,1,0,0-1.791h-3.582a.9.9,0,0,0,0,1.791Z" transform="translate(-307.25 -76.379)" fill="#b3b4b6"/>
        <path id="Path_5650" data-name="Path 5650" d="M325.171,112.725h3.582a.9.9,0,1,0,0-1.791h-3.582a.9.9,0,0,0,0,1.791Z" transform="translate(-307.25 -99.293)" fill="#b3b4b6"/>
        <path id="Path_5651" data-name="Path 5651" d="M325.171,138.325h3.582a.9.9,0,1,0,0-1.791h-3.582a.9.9,0,0,0,0,1.791Z" transform="translate(-307.25 -122.206)" fill="#b3b4b6"/>
        <path id="Path_5652" data-name="Path 5652" d="M239.837,172.458h12.537a.9.9,0,1,0,0-1.791H239.837a.9.9,0,0,0,0,1.791Z" transform="translate(-230.872 -152.757)" fill="#b3b4b6"/>
      </g>
    </g>
  </g>
</svg>
