<svg xmlns="http://www.w3.org/2000/svg" width="22.3" height="30.826" viewBox="0 0 22.3 30.826">
  <g id="pin_1_" data-name="pin (1)" transform="translate(-52)">
    <path id="Path_5629" data-name="Path 5629" d="M80.988,18.494a10.438,10.438,0,0,1-1.4,5.247l-9.09,13.773L61.4,23.741a10.495,10.495,0,1,1,19.584-5.247Zm-5.247,0a5.247,5.247,0,1,0-5.247,5.247A5.246,5.246,0,0,0,75.741,18.494Z" transform="translate(-7.344 -7.344)" fill="#d4d7da"/>
    <g id="Group_6513" data-name="Group 6513" transform="translate(52)">
      <path id="Path_5630" data-name="Path 5630" d="M53.512,16.758,62.6,30.532a.656.656,0,0,0,1.1,0l9.111-13.806a11.15,11.15,0,1,0-19.317,0C53.5,16.737,53.5,16.748,53.512,16.758ZM63.15,1.312a9.843,9.843,0,0,1,8.543,14.724L63.15,28.98,54.618,16.053A9.842,9.842,0,0,1,63.15,1.312Z" transform="translate(-52)" fill="#b3b4b6"/>
      <path id="Path_5631" data-name="Path 5631" d="M121.9,75.806a5.9,5.9,0,1,0-5.9-5.9A5.91,5.91,0,0,0,121.9,75.806Zm0-10.494a4.591,4.591,0,1,1-4.591,4.591A4.6,4.6,0,0,1,121.9,65.312Z" transform="translate(-110.753 -58.753)" fill="#b3b4b6"/>
    </g>
  </g>
</svg>
