<svg xmlns="http://www.w3.org/2000/svg" width="39.18" height="40.374" viewBox="0 0 39.18 40.374">
  <g id="document_4_" data-name="document (4)" transform="translate(-11.447 -4)">
    <g id="Group_14656" data-name="Group 14656" transform="translate(12.569 5.914)">
      <path id="Path_34394" data-name="Path 34394" d="M433.476,27.9v3.459h3.459Z" transform="translate(-400.79 -27.899)" fill="#d4d7da"/>
      <path id="Path_34395" data-name="Path 34395" d="M40.165,317.65a7.367,7.367,0,0,0-7.357-7.358h0a7.358,7.358,0,1,0,7.359,7.358Zm-2.8-1.289-4.751,4.75a1.766,1.766,0,0,1-1.265.531,1.911,1.911,0,0,1-.249-.017,1.772,1.772,0,0,1-1.33-.889L28,317.669a1.585,1.585,0,1,1,2.745-1.585l.885,1.533,3.5-3.5a1.585,1.585,0,0,1,2.241,2.241Z" transform="translate(-25.449 -287.67)" fill="#d4d7da"/>
      <path id="Path_34396" data-name="Path 34396" d="M214.789,71.4a7.893,7.893,0,1,0,7.893,7.893A7.9,7.9,0,0,0,214.789,71.4Zm0,15.2a7.306,7.306,0,1,1,7.305-7.305A7.314,7.314,0,0,1,214.789,86.6Z" transform="translate(-192.361 -67.916)" fill="#d4d7da"/>
    </g>
    <path id="Path_34397" data-name="Path 34397" d="M50.463,9.537,45.09,4.164a.561.561,0,0,0-.4-.164H19.927a.561.561,0,0,0-.561.561V27.433a8.479,8.479,0,0,0,.561,16.94h30.14a.561.561,0,0,0,.561-.561V9.934a.561.561,0,0,0-.164-.4ZM45.254,5.914l3.459,3.459H45.254ZM12.569,35.894a7.366,7.366,0,0,1,7.357-7.358h0a7.358,7.358,0,1,1-7.359,7.358Zm11.569,7.358a8.542,8.542,0,0,0,3.2-3.236H46.2a.561.561,0,0,0,0-1.121H27.857a8.408,8.408,0,0,0,.487-1.975H46.2a.561.561,0,0,0,0-1.121h-17.8a8.461,8.461,0,0,0-.255-1.975H46.2a.561.561,0,0,0,0-1.121H27.782a8.5,8.5,0,0,0-7.294-5.268V5.121H44.133V9.934a.561.561,0,0,0,.561.561h4.812V43.252ZM35,8.278a9.014,9.014,0,1,0,9.014,9.014A9.025,9.025,0,0,0,35,8.278Zm0,16.907a7.893,7.893,0,1,1,7.893-7.893A7.9,7.9,0,0,1,35,25.185Zm0-15.2A7.305,7.305,0,1,0,42.3,17.292,7.314,7.314,0,0,0,35,9.987Zm0,13.49a6.184,6.184,0,1,1,6.184-6.184A6.191,6.191,0,0,1,35,23.476Zm5.668,6.689a.561.561,0,0,1-.561.561H29.89a.561.561,0,0,1,0-1.121H40.1A.561.561,0,0,1,40.664,30.165Zm-16.18,2.2a1.587,1.587,0,0,0-2.241,0l-3.5,3.5-.885-1.533a1.585,1.585,0,0,0-2.745,1.585l1.772,3.069a1.772,1.772,0,0,0,1.33.889,1.9,1.9,0,0,0,.249.017,1.766,1.766,0,0,0,1.265-.531l4.751-4.75a1.587,1.587,0,0,0,0-2.241Zm-.793,1.448-4.751,4.75a.686.686,0,0,1-1.08-.142l-1.772-3.069a.462.462,0,0,1,.4-.694.471.471,0,0,1,.122.016.459.459,0,0,1,.281.215l1.25,2.166a.561.561,0,0,0,.882.116l4.013-4.013a.463.463,0,1,1,.655.655Z" transform="translate(0 0)" fill="#b3b4b6"/>
    <text id="H" transform="translate(34.644 20)" fill="#707070" font-size="9" font-family="Roboto-Regular, Roboto"><tspan x="-3.208" y="0">H</tspan></text>
  </g>
</svg>
