<svg xmlns="http://www.w3.org/2000/svg" width="27.008" height="45.487" viewBox="0 0 27.008 45.487">
  <g id="Group_14654" data-name="Group 14654" transform="translate(-4870.992 1078.487)">
    <g id="security_1_" data-name="security (1)" transform="translate(4840.992 -1078.487)">
      <path id="Path_34365" data-name="Path 34365" d="M33.116,32.642l-.009-.026a7.069,7.069,0,0,1-.325-1.248c0-.016-.006-.033-.008-.049a5.289,5.289,0,0,1-.055-.562c0-.021,0-.042,0-.063a4.547,4.547,0,0,1,.012-.5c0-.017,0-.034,0-.05a4.1,4.1,0,0,1,.076-.488c.007-.034.016-.067.024-.1a3.906,3.906,0,0,1,.142-.467,4,4,0,0,1,3.8-2.416,4.2,4.2,0,0,1,1.422.241c.07.025.138-.294.208-.266V13.026h9.95v7.709h0c.062.013.122.029.183.044s.107.027.16.042.118.036.176.056.112.04.167.062l.024.012c.044.017.089.031.133.051.1.044.2.09.293.142.032.017.063.037.1.056.073.042.144.085.214.131.036.024.072.049.108.074q.1.071.2.148c.03.024.061.048.09.073.092.078.181.158.267.244a4.045,4.045,0,0,1,.6.776q.208-.021.418-.021a4.262,4.262,0,0,1,2.947,1.221c.052.052.1-.6.144-.546V3.312a1.777,1.777,0,0,0-1.777-1.777H33.78A1.777,1.777,0,0,0,32,3.312V34.037h1.732a10.93,10.93,0,0,1-.62-1.4Z" transform="translate(-1.291 -0.99)" fill="#c9cacb"/>
      <path id="Path_34366" data-name="Path 34366" d="M60.758,17.921a.711.711,0,1,0,0-1.421h-4.8a.711.711,0,1,0,0,1.421Z" transform="translate(-16.277 -10.637)" fill="#677584" opacity="0.3"/>
      <path id="Path_34367" data-name="Path 34367" d="M46.906,42.558l-.415,16.051s-3.484-4.681-5.212-3.968-1.421,2.665.533,6.16,6.219,10.957,6.219,10.957H61s3.257-12.023,1.777-17.827c0,0-1.7-2.91-4.005-.333,0,0-.111-4.4-3.842-2.532,0,0-1.044-4-4.131-1.732V43.091s-1.583-3.221-3.894-.533Z" transform="translate(-6.541 -26.745)" fill="#d4d7da"/>
      <path id="Path_34368" data-name="Path 34368" d="M60,120h9.239a.711.711,0,1,1,0,1.421H60Z" transform="translate(-19.339 -77.357)" fill="#91969b" opacity="0.4"/>
      <path id="Path_34369" data-name="Path 34369" d="M33.25,4H55.282V5.421H33.25Z" transform="translate(-2.095 -2.579)" fill="#cfe6ff" opacity="0.3"/>
      <path id="Path_34370" data-name="Path 34370" d="M60.758,15.921a.711.711,0,1,0,0-1.421h-4.8a.711.711,0,1,0,0,1.421Z" transform="translate(-16.277 -9.347)" fill="#b3b4b6"/>
      <path id="Path_34371" data-name="Path 34371" d="M52.743,22.516V2.132a.713.713,0,0,0-.711-.711h-19.9a.713.713,0,0,0-.711.711V32.338a.711.711,0,0,1-1.421,0V2.132A2.134,2.134,0,0,1,32.132,0h19.9a2.134,2.134,0,0,1,2.132,2.132V23.6c-.146.007-.291.021-.43.039a4.2,4.2,0,0,0-.6-.778c-.064-.068-.131-.128-.2-.192Z" transform="translate(0)" fill="#b3b4b6"/>
      <g id="Group_14650" data-name="Group 14650" transform="translate(33.613 15.281)">
        <path id="Path_34372" data-name="Path 34372" d="M47.35,85.266a.716.716,0,0,1-1.357.231c-.448-1.023-1.951-3.809-3.5-4.364a1.411,1.411,0,0,0-1.535.38c-.2-.686-.849-1.429-.785-1.617.121-.352,1.19-.54,1.567-.6a.032.032,0,0,1,.018,0,2.41,2.41,0,0,1,.423-.007,1.35,1.35,0,0,1,.313.068c1.549.554,3.408,3.34,3.856,4.364.284.647.949.487,1-.231Z" transform="translate(-40.168 -66.389)" fill="#fff" opacity="0.8"/>
        <path id="Path_34373" data-name="Path 34373" d="M62.125,43.007a1.219,1.219,0,0,0-.263,0A1.253,1.253,0,0,0,60.7,44.215v1.777a1.263,1.263,0,0,1,1.294-1.215,1.291,1.291,0,0,1,.927.38,1.185,1.185,0,0,1,.338.693l.007-1.638a1.164,1.164,0,0,0-.345-.832A1.277,1.277,0,0,0,62.125,43.007Z" transform="translate(-53.404 -43)" fill="#fff" opacity="0.8"/>
        <path id="Path_34374" data-name="Path 34374" d="M73.419,62.336a.817.817,0,0,0-.131-.007,1.266,1.266,0,0,0-1.3,1.215v1.777a1.266,1.266,0,0,1,1.3-1.215,1.3,1.3,0,0,1,.928.377,1.17,1.17,0,0,1,.334.693l.011-1.635a1.181,1.181,0,0,0-.345-.835A1.292,1.292,0,0,0,73.419,62.336Z" transform="translate(-60.682 -55.46)" fill="#fff" opacity="0.8"/>
        <path id="Path_34375" data-name="Path 34375" d="M84.6,67.886a.838.838,0,0,0-.135-.007,1.27,1.27,0,0,0-1.286,1.137v1.777a1.273,1.273,0,0,1,1.29-1.137,1.3,1.3,0,0,1,.927.38,1.158,1.158,0,0,1,.334.7l.011-1.645a1.187,1.187,0,0,0-.345-.835,1.3,1.3,0,0,0-.8-.373Z" transform="translate(-67.895 -59.038)" fill="#fff" opacity="0.8"/>
        <path id="Path_34376" data-name="Path 34376" d="M96.995,73.76a1.3,1.3,0,0,0-.8-.373.817.817,0,0,0-.131-.007,1.269,1.269,0,0,0-1.3,1.219v1.777a1.269,1.269,0,0,1,1.3-1.219,1.306,1.306,0,0,1,.928.38,1.175,1.175,0,0,1,.338.693l.007-1.635A1.166,1.166,0,0,0,96.995,73.76Z" transform="translate(-75.366 -62.583)" fill="#fff" opacity="0.8"/>
      </g>
      <ellipse id="Ellipse_4145" data-name="Ellipse 4145" cx="0.491" cy="0.982" rx="0.491" ry="0.982" transform="translate(30 34.373)" fill="#b3b4b6"/>
      <path id="Path_34377" data-name="Path 34377" d="M48,33.132V45.214a.711.711,0,1,0,1.421,0V33.132a.688.688,0,0,1,.662-.711h7.205a.688.688,0,0,1,.662.711v6.519a4.181,4.181,0,0,1,1.421.293V33.132A2.11,2.11,0,0,0,57.288,31H50.083A2.11,2.11,0,0,0,48,33.132Z" transform="translate(-11.603 -19.984)" fill="#b3b4b6"/>
      <path id="Path_34378" data-name="Path 34378" d="M57.283,49.643a2.71,2.71,0,0,0-1.938-.8,2.748,2.748,0,0,0-1.3.324,2.577,2.577,0,0,0-.733-1.5,2.709,2.709,0,0,0-1.938-.8,2.747,2.747,0,0,0-1.351.355l.031-4.58A2.575,2.575,0,0,0,49.3,40.8a2.726,2.726,0,0,0-4.655,1.828l-.088,13.133a6.872,6.872,0,0,0-2.979-2.711,2.732,2.732,0,0,0-3.409,1.344c-.476,1.249.075,3.048,1.64,5.348l6.173,11.152a.711.711,0,0,0,.622.366h8.337a.711.711,0,0,0,0-1.421H47.024L41.038,59.024c-.011-.019-.023-.038-.035-.057-1.744-2.554-1.64-3.676-1.515-4.04.207-.6,1.1-.724,1.61-.54,1.547.554,3.051,3.339,3.5,4.365a.716.716,0,0,0,1.357-.231c0-.016.112-15.885.112-15.885a1.265,1.265,0,0,1,1.3-1.217,1.3,1.3,0,0,1,.929.38,1.166,1.166,0,0,1,.344.832L48.53,58.469a.749.749,0,0,0,1.492-.064l.061-8.9a1.265,1.265,0,0,1,1.3-1.217,1.3,1.3,0,0,1,.927.379,1.166,1.166,0,0,1,.344.833l-.071,8.991A.711.711,0,0,0,54,58.5l.059-7.1a1.269,1.269,0,0,1,1.288-1.136,1.3,1.3,0,0,1,.927.381,1.168,1.168,0,0,1,.346.834l-.048,6.937a.785.785,0,0,0,1.566.058l.04-5.037a1.265,1.265,0,0,1,1.3-1.217,1.3,1.3,0,0,1,.927.379,1.166,1.166,0,0,1,.344.833L60.7,60.238a49.093,49.093,0,0,1-1.661,10.122.711.711,0,1,0,1.364.4,49.505,49.505,0,0,0,1.711-10.319c0-.02.032-1.574.017-1.632l.036-5.369A2.576,2.576,0,0,0,61.41,51.6a2.708,2.708,0,0,0-1.937-.8,2.75,2.75,0,0,0-1.447.411,2.582,2.582,0,0,0-.744-1.566Z" transform="translate(-5.16 -25.785)" fill="#b3b4b6"/>
    </g>
  </g>
</svg>
