<svg xmlns="http://www.w3.org/2000/svg" width="71.051" height="71.028" viewBox="0 0 71.051 71.028">
  <g id="approval" transform="translate(0 -0.501)">
    <path id="Path_29875" data-name="Path 29875" d="M106.74,69.871H144.2a3.33,3.33,0,0,0,3.329-3.329V13.825A3.33,3.33,0,0,0,144.2,10.5h-36.9a3.33,3.33,0,0,0-3.329,3.329V67.1a2.775,2.775,0,0,0,2.775,2.775Zm0,0" transform="translate(-89.538 -8.608)" fill="#d4d7da" opacity="0.39"/>
    <path id="Path_29876" data-name="Path 29876" d="M54.39,74.477H13.326A3.33,3.33,0,0,0,10,77.806v52.716a3.33,3.33,0,0,0,3.329,3.329H54.39a3.33,3.33,0,0,0,3.329-3.329V77.806A3.33,3.33,0,0,0,54.39,74.477Zm0,0" transform="translate(-8.61 -63.71)" fill="#fff"/>
    <path id="Path_29877" data-name="Path 29877" d="M382.021,322.9l10.825,10.825a3.857,3.857,0,0,1-5.455,5.455l-10.825-10.825Zm0,0" transform="translate(-324.31 -277.658)" fill="#d4d7da"/>
    <path id="Path_29878" data-name="Path 29878" d="M237.241,168a15.575,15.575,0,1,1-15.575-15.575A15.575,15.575,0,0,1,237.241,168Zm0,0" transform="translate(-177.492 -130.839)" fill="#d4d7da"/>
    <path id="Path_29879" data-name="Path 29879" d="M272.223,216.43l-5.845,5.844L263.5,219.4l-3.77,3.771,2.877,2.877,3.77,3.771,9.615-9.615Zm0,0" transform="translate(-223.687 -185.964)" fill="#d4d7da"/>
    <path id="Path_29880" data-name="Path 29880" d="M69.517,55.085,59.289,44.857a17.04,17.04,0,0,0,.086-15.228V5.217A4.722,4.722,0,0,0,54.658.5h-36.9A4.722,4.722,0,0,0,13.04,5.217V9.379H4.716A4.722,4.722,0,0,0,0,14.1V66.812a4.722,4.722,0,0,0,4.717,4.717H45.78A4.722,4.722,0,0,0,50.5,66.812V62.65h4.162A4.724,4.724,0,0,0,59.1,59.505l3,3a5.244,5.244,0,0,0,7.417-7.416ZM15.815,5.217a1.944,1.944,0,0,1,1.942-1.942h36.9A1.944,1.944,0,0,1,56.6,5.217v20.4c-.141-.152-.284-.3-.432-.45A16.876,16.876,0,0,0,50.5,21.419V14.1A4.722,4.722,0,0,0,45.78,9.379H15.815Zm-.07,4.162h-.019C15.733,9.361,15.738,9.363,15.744,9.379Zm-2.616,0h-.018C13.117,9.364,13.123,9.362,13.129,9.379ZM47.721,66.812a1.944,1.944,0,0,1-1.942,1.942H4.716a1.944,1.944,0,0,1-1.942-1.942V14.1a1.944,1.944,0,0,1,1.942-1.942H45.78A1.944,1.944,0,0,1,47.721,14.1v6.481A16.956,16.956,0,0,0,29.269,29.06H8.878a1.387,1.387,0,1,0,0,2.774H28.072a17.078,17.078,0,0,0-.744,7.232H8.878a1.387,1.387,0,1,0,0,2.774h19a16.934,16.934,0,0,0,16.3,12.272,17.107,17.107,0,0,0,3.547-.373ZM34.142,47.19a14.188,14.188,0,1,1,20.064,0A14.2,14.2,0,0,1,34.142,47.19ZM56.6,57.933a1.944,1.944,0,0,1-1.942,1.942H50.5V52.9q.7-.28,1.376-.624L56.6,57Zm10.955,2.606a2.469,2.469,0,0,1-3.493,0l-9.769-9.768a17,17,0,0,0,3.493-3.493l9.768,9.768a2.473,2.473,0,0,1,0,3.493Zm0,0" fill="#b3b4b6"/>
    <path id="Path_29881" data-name="Path 29881" d="M264.591,206.838a1.388,1.388,0,0,0-1.962,0l-4.864,4.864-1.9-1.9a1.388,1.388,0,0,0-1.962,0l-3.771,3.77a1.387,1.387,0,0,0,0,1.962l6.648,6.647a1.387,1.387,0,0,0,1.962,0l9.615-9.615a1.388,1.388,0,0,0,0-1.962Zm-6.825,12.4-4.686-4.686,1.808-1.808,1.9,1.9a1.388,1.388,0,0,0,1.962,0l4.863-4.864,1.808,1.809Zm0,0" transform="translate(-215.075 -177.354)" fill="#b3b4b6"/>
    <path id="Path_29882" data-name="Path 29882" d="M55.372,353.028H74.782a1.387,1.387,0,1,0,0-2.774H55.372a1.387,1.387,0,0,0,0,2.774Zm0,0" transform="translate(-46.493 -301.217)" fill="#b3b4b6"/>
    <path id="Path_29883" data-name="Path 29883" d="M247.438,422.363a1.388,1.388,0,1,0,.981.407A1.4,1.4,0,0,0,247.438,422.363Zm0,0" transform="translate(-211.906 -363.32)" fill="#b3b4b6"/>
    <path id="Path_29884" data-name="Path 29884" d="M76.449,422.363H55.371a1.387,1.387,0,0,0,0,2.774H76.449a1.387,1.387,0,1,0,0-2.774Zm0,0" transform="translate(-46.493 -363.32)" fill="#b3b4b6"/>
    <path id="Path_29885" data-name="Path 29885" d="M55.372,137.231H76.413a1.387,1.387,0,1,0,0-2.774H55.372a1.387,1.387,0,0,0,0,2.774Zm0,0" transform="translate(-46.493 -115.367)" fill="#b3b4b6"/>
  </g>
</svg>
