<svg xmlns="http://www.w3.org/2000/svg" width="41.6" height="49.916" viewBox="0 0 41.6 49.916">
  <g id="Group_13912" data-name="Group 13912" transform="translate(-106 -222.75)">
    <g id="_032---Employee-Details" data-name="032---Employee-Details" transform="translate(106 222.75)">
      <g id="Layer_4" transform="translate(0.832 0.832)">
        <path id="Shape" d="M34.925,2.495v29.52A11.226,11.226,0,1,0,22.452,43.165c1.414.176,4.929.075-19.957.075A2.5,2.5,0,0,1,0,40.746V2.495A2.5,2.5,0,0,1,2.495,0H32.43A2.5,2.5,0,0,1,34.925,2.495Z" transform="translate(0 0)" fill="#d4d7da"/>
        <path id="Shape-2" data-name="Shape" d="M32.43,2.495V24.963A11.226,11.226,0,1,0,21.437,43.007l-.233.233H2.495A2.5,2.5,0,0,1,0,40.745V2.495A2.5,2.5,0,0,1,2.495,0H29.935A2.5,2.5,0,0,1,32.43,2.495Z" transform="translate(0 0)" fill="#d4d7da"/>
        <path id="Shape-3" data-name="Shape" d="M41.95,49.588l-6.694-6.7a11.249,11.249,0,1,0-2.268,2.268l-.083.083,6.7,6.694a1.658,1.658,0,0,0,2.345-2.345Z" transform="translate(-2.527 -4.194)" fill="#d4d7da"/>
        <path id="Shape-4" data-name="Shape" d="M15.392,20.711a.8.8,0,0,1-.491.541,15.27,15.27,0,0,1-10.161,0,.8.8,0,0,1-.491-.541A7.034,7.034,0,0,1,7.184,12.87a4.168,4.168,0,0,0,5.272,0A6.993,6.993,0,0,1,15.392,20.711Z" transform="translate(-0.673 -2.168)" fill="#d4d7da"/>
        <ellipse id="Oval" cx="9.978" cy="11.151" rx="9.978" ry="11.151" transform="translate(12.473 20.863)" fill="#d4d7da"/>
        <path id="Shape-5" data-name="Shape" d="M31.88,30.772A7.9,7.9,0,1,0,34.8,36.9a7.9,7.9,0,0,0-2.919-6.128Z" transform="translate(-3.201 -4.886)" fill="#d4d7da"/>
        <path id="Oval-2" data-name="Oval" d="M4.158,0A4.158,4.158,0,1,1,0,4.158,4.158,4.158,0,0,1,4.158,0Z" transform="translate(4.989 3.326)" fill="#d4d7da"/>
      </g>
      <path id="Shape-6" data-name="Shape" d="M2.495,40.746V2.495A2.5,2.5,0,0,1,4.989,0H2.495A2.5,2.5,0,0,0,0,2.495V40.746A2.5,2.5,0,0,0,2.495,43.24H4.989A2.5,2.5,0,0,1,2.495,40.746Z" transform="translate(0.832 0.832)" fill="#fff"/>
      <path id="Rectangle-path" d="M0,4H1.663v6.652H0Z" transform="translate(0 -0.674)" fill="#fff"/>
      <g id="Group_13911" data-name="Group 13911">
        <path id="Shape-7" data-name="Shape" d="M.851,8.663A.832.832,0,0,0,.851,7H.842A.832.832,0,0,0,.851,8.663Z" transform="translate(-0.003 -1.179)" fill="#b3b4b6"/>
        <path id="Shape-8" data-name="Shape" d="M5.626,13.228l-.036.043A8.238,8.238,0,0,0,4.409,20.7a.933.933,0,0,0,.232.339,1.061,1.061,0,0,0,.309.188,14.872,14.872,0,0,0,5.7,1.064,14.872,14.872,0,0,0,5.7-1.061,1.068,1.068,0,0,0,.309-.188A.981.981,0,0,0,16.9,20.7a8.217,8.217,0,0,0-1.138-7.359.87.87,0,0,0-.051-.077,6.87,6.87,0,0,0-1.147-1.185,4.989,4.989,0,1,0-7.812,0,6.849,6.849,0,0,0-1.123,1.145Zm5.026-7.567A3.326,3.326,0,1,1,7.326,8.987,3.326,3.326,0,0,1,10.652,5.661ZM6.9,14.309l.031-.038A5.14,5.14,0,0,1,8,13.208a4.95,4.95,0,0,0,5.3,0,5.144,5.144,0,0,1,1.027,1,.85.85,0,0,0,.049.072,6.4,6.4,0,0,1,1.028,5.529,13.413,13.413,0,0,1-4.756.822A13.413,13.413,0,0,1,5.9,19.808a6.4,6.4,0,0,1-.234-1.674A6.313,6.313,0,0,1,6.9,14.309Z" transform="translate(-0.674 -0.672)" fill="#b3b4b6"/>
        <path id="Shape-9" data-name="Shape" d="M22.832,7.663h3.326a.832.832,0,0,0,0-1.663H22.832a.832.832,0,0,0,0,1.663Z" transform="translate(-3.706 -1.011)" fill="#b3b4b6"/>
        <path id="Shape-10" data-name="Shape" d="M36.652,7.663a.832.832,0,1,0,0-1.663H30.832a.832.832,0,1,0,0,1.663Z" transform="translate(-5.054 -1.011)" fill="#b3b4b6"/>
        <path id="Shape-11" data-name="Shape" d="M37.158,16H33.832a.832.832,0,1,0,0,1.663h3.326a.832.832,0,0,0,0-1.663Z" transform="translate(-5.559 -2.695)" fill="#b3b4b6"/>
        <path id="Shape-12" data-name="Shape" d="M22.832,17.663h5.821a.832.832,0,1,0,0-1.663H22.832a.832.832,0,0,0,0,1.663Z" transform="translate(-3.706 -2.695)" fill="#b3b4b6"/>
        <path id="Shape-13" data-name="Shape" d="M22.832,12.663H35.3A.832.832,0,0,0,35.3,11H22.832a.832.832,0,0,0,0,1.663Z" transform="translate(-3.706 -1.853)" fill="#b3b4b6"/>
        <path id="Shape-14" data-name="Shape" d="M22.832,22.663H35.3A.832.832,0,0,0,35.3,21H22.832a.832.832,0,1,0,0,1.663Z" transform="translate(-3.706 -3.538)" fill="#b3b4b6"/>
        <path id="Shape-15" data-name="Shape" d="M27.731,29a8.731,8.731,0,1,0,8.731,8.731A8.731,8.731,0,0,0,27.731,29Zm0,15.8A7.068,7.068,0,1,1,34.8,37.731,7.068,7.068,0,0,1,27.731,44.8Z" transform="translate(-3.201 -4.885)" fill="#b3b4b6"/>
        <path id="Shape-16" data-name="Shape" d="M34.628,39.415a11.982,11.982,0,0,0,1.96-6.569V3.326A3.326,3.326,0,0,0,33.262,0H3.326A3.326,3.326,0,0,0,0,3.326a.832.832,0,1,0,1.663,0A1.663,1.663,0,0,1,3.326,1.663H33.262a1.663,1.663,0,0,1,1.663,1.663V26.766A12.047,12.047,0,1,0,18.449,43.24H3.326a1.663,1.663,0,0,1-1.663-1.663V9.978A.832.832,0,0,0,0,9.978v31.6A3.326,3.326,0,0,0,3.326,44.9h21.2a11.982,11.982,0,0,0,6.569-1.96l6.218,6.212a2.49,2.49,0,1,0,3.526-3.517ZM24.53,43.24A10.394,10.394,0,1,1,34.925,32.846,10.394,10.394,0,0,1,24.53,43.24Zm15.134,4.746a.832.832,0,0,1-1.164,0l-6.061-6.054a12.089,12.089,0,0,0,1.177-1.177l6.055,6.06a.813.813,0,0,1-.007,1.17Z" fill="#b3b4b6"/>
        <path id="Shape-17" data-name="Shape" d="M13.315,30.832A.832.832,0,0,0,12.484,30H5.832a.832.832,0,1,0,0,1.663h6.652A.832.832,0,0,0,13.315,30.832Z" transform="translate(-0.842 -5.054)" fill="#b3b4b6"/>
        <path id="Shape-18" data-name="Shape" d="M5.832,46.663h5.821a.832.832,0,1,0,0-1.663H5.832a.832.832,0,1,0,0,1.663Z" transform="translate(-0.842 -7.581)" fill="#b3b4b6"/>
        <path id="Shape-19" data-name="Shape" d="M5.832,36.663h4.989a.832.832,0,1,0,0-1.663H5.832a.832.832,0,1,0,0,1.663Z" transform="translate(-0.842 -5.896)" fill="#b3b4b6"/>
        <path id="Shape-20" data-name="Shape" d="M5.832,41.663h4.989a.832.832,0,1,0,0-1.663H5.832a.832.832,0,1,0,0,1.663Z" transform="translate(-0.842 -6.738)" fill="#b3b4b6"/>
      </g>
    </g>
  </g>
</svg>
