<svg id="job-search_1_" data-name="job-search (1)" xmlns="http://www.w3.org/2000/svg" width="41.844" height="41.844" viewBox="0 0 41.844 41.844">
  <path id="Path_4937" data-name="Path 4937" d="M159.59,149.129a10.461,10.461,0,1,1-10.461-10.461A10.461,10.461,0,0,1,159.59,149.129Zm0,0" transform="translate(-127.335 -127.335)" fill="#fff"/>
  <path id="Path_4938" data-name="Path 4938" d="M138.254,10.668V21.129H119.076a1.749,1.749,0,0,1-1.744-1.744V12.411a1.749,1.749,0,0,1,1.744-1.743Zm0,0" transform="translate(-107.743 -9.796)" fill="#fff"/>
  <path id="Path_4939" data-name="Path 4939" d="M383.793,12.411v6.974a1.749,1.749,0,0,1-1.743,1.744h-8.718V10.668h8.718a1.749,1.749,0,0,1,1.743,1.743ZM380.306,15.9a1.744,1.744,0,1,0-1.744,1.743A1.744,1.744,0,0,0,380.306,15.9Zm0,0" transform="translate(-342.821 -9.796)" fill="#d4d7da"/>
  <path id="Path_4940" data-name="Path 4940" d="M419.487,55.076a1.744,1.744,0,1,1-1.744-1.744A1.744,1.744,0,0,1,419.487,55.076Zm0,0" transform="translate(-382.002 -48.973)" fill="#fff"/>
  <path id="Path_4941" data-name="Path 4941" d="M28.975,239.9v8.717a1.749,1.749,0,0,1-1.744,1.744H12.411a1.749,1.749,0,0,1-1.743-1.744v-6.974a1.749,1.749,0,0,1,1.743-1.743H23.744l5.231-5.231Zm0,0" transform="translate(-9.796 -215.489)" fill="#d4d7da"/>
  <path id="Path_4942" data-name="Path 4942" d="M383.279,383.279a1.752,1.752,0,0,1-2.484,0l-7.462-7.462,2.485-2.485,7.462,7.462a1.752,1.752,0,0,1,0,2.484Zm0,0" transform="translate(-342.821 -342.821)" fill="#d4d7da"/>
  <g id="Group_5815" data-name="Group 5815" transform="translate(0)">
    <path id="Path_4943" data-name="Path 4943" d="M109.283,12.2H111.9V10.461h-2.615a.872.872,0,0,1-.872-.872V2.615a.872.872,0,0,1,.872-.872H127.59V12.2h9.589a2.615,2.615,0,0,0,2.615-2.615V2.615A2.615,2.615,0,0,0,137.179,0h-27.9a2.615,2.615,0,0,0-2.615,2.615V9.589A2.615,2.615,0,0,0,109.283,12.2Zm28.768-9.589V9.589a.872.872,0,0,1-.872.872h-7.846V1.743h7.846A.872.872,0,0,1,138.051,2.615Zm0,0" transform="translate(-97.95)" fill="#b3b4b6"/>
    <path id="Path_4944" data-name="Path 4944" d="M407.947,47.9a2.571,2.571,0,0,0,1.12-.262l.879.879,1.233-1.233-.878-.88a2.566,2.566,0,0,0,.261-1.12,2.615,2.615,0,1,0-2.615,2.615Zm0-3.487a.872.872,0,1,1-.872.872A.872.872,0,0,1,407.947,44.411Zm0,0" transform="translate(-372.205 -39.181)" fill="#b3b4b6"/>
    <path id="Path_4945" data-name="Path 4945" d="M320,64h1.743v1.743H320Zm0,0" transform="translate(-293.847 -58.769)" fill="#b3b4b6"/>
    <path id="Path_4946" data-name="Path 4946" d="M277.332,64h1.744v1.743h-1.744Zm0,0" transform="translate(-254.667 -58.769)" fill="#b3b4b6"/>
    <path id="Path_4947" data-name="Path 4947" d="M234.668,64h1.743v1.743h-1.743Zm0,0" transform="translate(-215.489 -58.769)" fill="#b3b4b6"/>
    <path id="Path_4948" data-name="Path 4948" d="M192,64h1.743v1.743H192Zm0,0" transform="translate(-176.308 -58.769)" fill="#b3b4b6"/>
    <path id="Path_4949" data-name="Path 4949" d="M149.332,64h1.744v1.743h-1.744Zm0,0" transform="translate(-137.128 -58.769)" fill="#b3b4b6"/>
    <path id="Path_4950" data-name="Path 4950" d="M158.613,154.9l-7.462-7.462a.872.872,0,0,0-1.233,0l-.626.626-1.363-1.363A11.327,11.327,0,1,0,128,139.341h1.743a9.589,9.589,0,1,1,9.59,9.589v1.743a11.27,11.27,0,0,0,7.364-2.736l1.363,1.363-.626.626a.872.872,0,0,0,0,1.233l7.458,7.458a2.593,2.593,0,0,0,1.851.774h.009a2.635,2.635,0,0,0,2.632-2.64,2.588,2.588,0,0,0-.77-1.847Zm-1.236,2.482a.884.884,0,0,1-.629.262.866.866,0,0,1-.62-.262l-6.846-6.843,1.252-1.252,6.85,6.849a.861.861,0,0,1,.256.616A.88.88,0,0,1,157.378,157.386Zm0,0" transform="translate(-117.539 -117.547)" fill="#b3b4b6"/>
    <path id="Path_4951" data-name="Path 4951" d="M19.513,224.067a.872.872,0,0,0-.95.189l-4.975,4.975H2.615A2.615,2.615,0,0,0,0,231.846v6.974a2.615,2.615,0,0,0,2.615,2.615h14.82a2.615,2.615,0,0,0,2.615-2.615V224.872a.871.871,0,0,0-.538-.805ZM18.307,238.82a.872.872,0,0,1-.872.872H2.615a.872.872,0,0,1-.872-.872v-6.974a.872.872,0,0,1,.872-.872H13.948a.871.871,0,0,0,.616-.255l3.743-3.742Zm0,0" transform="translate(0 -205.693)" fill="#b3b4b6"/>
    <path id="Path_4952" data-name="Path 4952" d="M42.668,330.668H55.744v1.743H42.668Zm0,0" transform="translate(-39.181 -303.644)" fill="#b3b4b6"/>
    <path id="Path_4953" data-name="Path 4953" d="M42.668,373.332h9.589v1.744H42.668Zm0,0" transform="translate(-39.181 -342.821)" fill="#b3b4b6"/>
    <path id="Path_4954" data-name="Path 4954" d="M181.332,373.332h1.744v1.744h-1.744Zm0,0" transform="translate(-166.512 -342.821)" fill="#b3b4b6"/>
    <path id="Path_4955" data-name="Path 4955" d="M274.514,178.514a7.855,7.855,0,0,0-7.846-7.846v1.743a6.109,6.109,0,0,1,6.1,6.1Zm0,0" transform="translate(-244.874 -156.72)" fill="#b3b4b6"/>
  </g>
</svg>
