<svg id="curriculum" xmlns="http://www.w3.org/2000/svg" width="38.383" height="42.354" viewBox="0 0 38.383 42.354">
  <path id="Path_4956" data-name="Path 4956" d="M41.089,49.03H15.941L8,41.089V8H41.089Zm0,0" transform="translate(-7.338 -7.338)" fill="#fff"/>
  <path id="Path_4957" data-name="Path 4957" d="M15.941,408H8l7.941,7.941Zm0,0" transform="translate(-7.338 -374.249)" fill="#d4d7da"/>
  <path id="Path_4958" data-name="Path 4958" d="M107.853,49.927A9.927,9.927,0,1,1,97.927,40,9.927,9.927,0,0,1,107.853,49.927Zm0,0" transform="translate(-80.72 -36.691)" fill="#fff"/>
  <path id="Path_4959" data-name="Path 4959" d="M134.559,79.28A7.28,7.28,0,1,1,127.28,72,7.28,7.28,0,0,1,134.559,79.28Zm0,0" transform="translate(-110.073 -66.044)" fill="#d4d7da"/>
  <path id="Path_4960" data-name="Path 4960" d="M133.177,344H117.294L112,345.985l5.294,1.985h19.192V344Zm0,0" transform="translate(-102.735 -315.543)" fill="#d4d7da"/>
  <path id="Path_4961" data-name="Path 4961" d="M176,320h1.985v3.971H176Zm0,0" transform="translate(-161.441 -293.529)" fill="#d4d7da"/>
  <path id="Path_4962" data-name="Path 4962" d="M375.28,320v3.971H368V320Zm0,0" transform="translate(-337.558 -293.529)" fill="#d4d7da"/>
  <path id="Path_4963" data-name="Path 4963" d="M117.294,320v3.971L112,321.985Zm0,0" transform="translate(-102.735 -293.529)" fill="#d4d7da"/>
  <path id="Path_4964" data-name="Path 4964" d="M200,320h13.9v3.971H200Zm0,0" transform="translate(-183.456 -293.529)" fill="#d4d7da"/>
  <path id="Path_4965" data-name="Path 4965" d="M176,344h1.985v1.985H176Zm0,0" transform="translate(-161.441 -315.543)" fill="#fff"/>
  <path id="Path_4966" data-name="Path 4966" d="M368,344v1.985h7.28V344Zm0,0" transform="translate(-337.558 -315.543)" fill="#fff"/>
  <path id="Path_4967" data-name="Path 4967" d="M112,344l5.294,1.985V344Zm0,0" transform="translate(-102.735 -315.543)" fill="#fff"/>
  <path id="Path_4968" data-name="Path 4968" d="M200,344h13.9v1.985H200Zm0,0" transform="translate(-183.456 -315.543)" fill="#fff"/>
  <path id="Path_4969" data-name="Path 4969" d="M154.589,88l-1.324,2.647,1.324.662-1.324,1.985h-3.309l-2.647-2.647-1.985,1.985L144,91.309V89.985L145.985,88Zm0,0" transform="translate(-132.088 -80.72)" fill="#d4d7da"/>
  <path id="Path_4970" data-name="Path 4970" d="M158.258,88h-8.6L148,89.654h8.6L155.28,92.3l1.324.662-.22.331h.551l1.324-1.985-1.324-.662Zm0,0" transform="translate(-135.757 -80.72)" fill="#d4d7da"/>
  <path id="Path_4971" data-name="Path 4971" d="M137.985,160v3.309a3.569,3.569,0,0,0,.059.655l-.059.006a1.985,1.985,0,0,1,0-3.971Zm0,0" transform="translate(-124.75 -146.764)" fill="#d4d7da"/>
  <path id="Path_4972" data-name="Path 4972" d="M257.326,161.985a1.985,1.985,0,0,1-1.985,1.985l-.059-.006a3.571,3.571,0,0,0,.059-.655V160A1.985,1.985,0,0,1,257.326,161.985Zm0,0" transform="translate(-234.164 -146.764)" fill="#d4d7da"/>
  <path id="Path_4973" data-name="Path 4973" d="M165.956,130.053a3.965,3.965,0,0,1-5.9-2.779,3.566,3.566,0,0,1-.059-.655v-4.632L161.985,120l2.647,2.647h3.309v3.971a3.563,3.563,0,0,1-.059.655,3.881,3.881,0,0,1-1.105,2.151A3.815,3.815,0,0,1,165.956,130.053Zm0,0" transform="translate(-146.764 -110.074)" fill="#fff"/>
  <path id="Path_4974" data-name="Path 4974" d="M164.632,122.647,161.985,120,160,121.985v1.985l1.985-1.985,2.647,2.647h3.309v-1.985Zm0,0" transform="translate(-146.764 -110.073)" fill="#d4d7da"/>
  <g id="Group_5816" data-name="Group 5816">
    <path id="Path_4975" data-name="Path 4975" d="M33.089,41.03H9.265v-7.28a.662.662,0,0,0-.662-.662H1.324V1.324H33.089V22.5h1.324V.662A.662.662,0,0,0,33.751,0H.662A.662.662,0,0,0,0,.662V33.751c0,.014.007.026.008.041a.645.645,0,0,0,.034.171c.007.021.013.042.022.062a.657.657,0,0,0,.132.194L8.138,42.16a.665.665,0,0,0,.465.194H33.751a.662.662,0,0,0,.662-.662V32.427H33.089ZM2.259,34.413H7.941v5.682Zm0,0" fill="#b3b4b6"/>
    <path id="Path_4976" data-name="Path 4976" d="M130.83,80.194l-1.985,1.985a.662.662,0,0,0-.194.468v1.324a.662.662,0,0,0,.194.468l1.13,1.13v.482a2.638,2.638,0,0,0,.183,5.152,4.628,4.628,0,0,0,8.9,0,2.636,2.636,0,0,0,.241-5.133l1.154-1.73a.662.662,0,0,0-.255-.96l-.731-.365,1.031-2.056a.662.662,0,0,0-.6-.957h-8.6A.662.662,0,0,0,130.83,80.194ZM129.312,88.6a1.319,1.319,0,0,1,.662-1.14v2.279A1.319,1.319,0,0,1,129.312,88.6Zm8.6,1.324a3.309,3.309,0,0,1-6.618,0V85.568l1.324-1.324,2.179,2.179a.662.662,0,0,0,.468.194h2.647ZM139.9,88.6a1.319,1.319,0,0,1-.662,1.14V87.463a1.319,1.319,0,0,1,.662,1.14Zm-1.071-7.28-.848,1.69a.662.662,0,0,0,.3.888l.653.326-.708,1.067h-2.681l-2.453-2.453a.662.662,0,0,0-.936,0l-1.517,1.517-.662-.662v-.776l1.6-1.6Zm0,0" transform="translate(-117.4 -73.382)" fill="#b3b4b6"/>
    <path id="Path_4977" data-name="Path 4977" d="M80,42.588A10.588,10.588,0,1,0,90.589,32,10.589,10.589,0,0,0,80,42.588Zm19.853,0a9.265,9.265,0,1,1-9.265-9.265A9.265,9.265,0,0,1,99.853,42.588Zm0,0" transform="translate(-73.382 -29.353)" fill="#b3b4b6"/>
    <path id="Path_4978" data-name="Path 4978" d="M125.784,289.985h-.662v-1.324a.662.662,0,0,0-.662-.662h-7.28v1.324H123.8v.662H101.96a.659.659,0,0,0-.231.046v0l-5.294,1.985a.662.662,0,0,0,0,1.24l5.294,1.985v0a.658.658,0,0,0,.231.046h23.824a.662.662,0,0,0,.662-.662v-3.971A.662.662,0,0,0,125.784,289.985Zm-8.6,1.324v2.647H104.607v-2.647ZM101.3,291.6v2.061l-2.748-1.031Zm1.324-.293h.662v2.647h-.662Zm22.5,2.647H118.5v-2.647h6.618Zm0,0" transform="translate(-88.062 -264.176)" fill="#b3b4b6"/>
    <path id="Path_4979" data-name="Path 4979" d="M136,400h1.324v1.324H136Zm0,0" transform="translate(-124.75 -366.911)" fill="#b3b4b6"/>
    <path id="Path_4980" data-name="Path 4980" d="M168,400h17.206v1.324H168Zm0,0" transform="translate(-154.103 -366.911)" fill="#b3b4b6"/>
    <path id="Path_4981" data-name="Path 4981" d="M136,432h19.853v1.324H136Zm0,0" transform="translate(-124.75 -396.264)" fill="#b3b4b6"/>
  </g>
</svg>
