<svg xmlns="http://www.w3.org/2000/svg" width="43" height="43" viewBox="0 0 43 43">
  <g id="Icons" transform="translate(-8 -8)">
    <g id="Group_8938" data-name="Group 8938" transform="translate(8 8)">
      <g id="Group_8929" data-name="Group 8929">
        <g id="Group_8898" data-name="Group 8898">
          <g id="Group_8873" data-name="Group 8873" transform="translate(0 1.832)">
            <g id="Group_8872" data-name="Group 8872">
              <path id="Path_30076" data-name="Path 30076" d="M39.143,11.832V48.471A1.837,1.837,0,0,1,37.311,50.3H9.832A1.837,1.837,0,0,1,8,48.471V11.832A1.837,1.837,0,0,1,9.832,10H37.311A1.837,1.837,0,0,1,39.143,11.832Z" transform="translate(-8 -10)" fill="#b3b4b6"/>
            </g>
          </g>
          <g id="Group_8875" data-name="Group 8875" transform="translate(2.748 7.328)">
            <g id="Group_8874" data-name="Group 8874">
              <path id="Path_30077" data-name="Path 30077" d="M36.647,36.391V16.916A.919.919,0,0,0,35.731,16H11.916a.919.919,0,0,0-.916.916V47.143a.919.919,0,0,0,.916.916H33.922a9.579,9.579,0,0,0,1.956,2.748h1.685A1.837,1.837,0,0,0,39.4,48.975V34.869A9.593,9.593,0,0,0,36.647,36.391Z" transform="translate(-11 -16)" fill="#d4d7da"/>
            </g>
          </g>
          <g id="Group_8877" data-name="Group 8877" transform="translate(11.45)">
            <g id="Group_8876" data-name="Group 8876">
              <path id="Path_30078" data-name="Path 30078" d="M28.744,9.832v1.832H20.5V9.832A1.837,1.837,0,0,1,22.332,8h4.58A1.837,1.837,0,0,1,28.744,9.832Z" transform="translate(-20.5 -8)" fill="#d4d7da"/>
            </g>
          </g>
          <g id="Group_8879" data-name="Group 8879" transform="translate(2.748 6.412)">
            <g id="Group_8878" data-name="Group 8878">
              <path id="Path_30079" data-name="Path 30079" d="M36.647,15.916V46.143a.919.919,0,0,1-.916.916H11.916A.919.919,0,0,1,11,46.143V15.916A.919.919,0,0,1,11.916,15H35.731A.919.919,0,0,1,36.647,15.916Z" transform="translate(-11 -15)" fill="#f0f0f0"/>
            </g>
          </g>
          <g id="Group_8881" data-name="Group 8881" transform="translate(24.731 27.717)">
            <g id="Group_8880" data-name="Group 8880">
              <path id="Path_30080" data-name="Path 30080" d="M38.664,38.26V48.1a.919.919,0,0,1-.916.916h-2.2A9.611,9.611,0,0,1,38.664,38.26Z" transform="translate(-35 -38.26)" fill="#d2d2d2"/>
            </g>
          </g>
          <g id="Group_8883" data-name="Group 8883" transform="translate(7.328 6.412)">
            <g id="Group_8882" data-name="Group 8882">
              <path id="Path_30081" data-name="Path 30081" d="M32.488,15v1.832a.919.919,0,0,1-.916.916H16.916A.919.919,0,0,1,16,16.832V15Z" transform="translate(-16 -15)" fill="#d2d2d2"/>
            </g>
          </g>
          <g id="Group_8885" data-name="Group 8885" transform="translate(7.328 3.664)">
            <g id="Group_8884" data-name="Group 8884">
              <path id="Path_30082" data-name="Path 30082" d="M31.572,16.58H16.916A.916.916,0,0,1,16,15.664V12.916A.916.916,0,0,1,16.916,12H31.572a.916.916,0,0,1,.916.916v2.748A.916.916,0,0,1,31.572,16.58Z" transform="translate(-16 -12)" fill="#d4d7da"/>
            </g>
          </g>
          <g id="Group_8887" data-name="Group 8887" transform="translate(11.45 2.748)">
            <g id="Group_8886" data-name="Group 8886">
              <path id="Path_30083" data-name="Path 30083" d="M20.5,11h8.244v.916H20.5Z" transform="translate(-20.5 -11)" fill="#b3b4b6"/>
            </g>
          </g>
          <g id="Group_8889" data-name="Group 8889" transform="translate(9.16 5.038)">
            <g id="Group_8888" data-name="Group 8888">
              <circle id="Ellipse_3994" data-name="Ellipse 3994" cx="0.916" cy="0.916" r="0.916" fill="#b3b4b6"/>
            </g>
          </g>
          <g id="Group_8891" data-name="Group 8891" transform="translate(20.151 5.038)">
            <g id="Group_8890" data-name="Group 8890">
              <circle id="Ellipse_3995" data-name="Ellipse 3995" cx="0.916" cy="0.916" r="0.916" fill="#b3b4b6"/>
            </g>
          </g>
          <g id="Group_8894" data-name="Group 8894" transform="translate(8.702 29.197)">
            <g id="Group_8893" data-name="Group 8893">
              <g id="Group_8892" data-name="Group 8892">
                <path id="Path_30084" data-name="Path 30084" d="M30.324,41.707H18.416a.916.916,0,0,1,0-1.832H30.324a.916.916,0,1,1,0,1.832Z" transform="translate(-17.5 -39.875)" fill="#b3b4b6"/>
              </g>
            </g>
          </g>
          <g id="Group_8897" data-name="Group 8897" transform="translate(8.702 32.861)">
            <g id="Group_8896" data-name="Group 8896">
              <g id="Group_8895" data-name="Group 8895">
                <path id="Path_30085" data-name="Path 30085" d="M30.324,45.707H18.416a.916.916,0,0,1,0-1.832H30.324a.916.916,0,1,1,0,1.832Z" transform="translate(-17.5 -43.875)" fill="#b3b4b6"/>
              </g>
            </g>
          </g>
        </g>
        <g id="Group_8928" data-name="Group 8928" transform="translate(8.244 10.992)">
          <g id="Group_8900" data-name="Group 8900" transform="translate(0 10.992)">
            <g id="Group_8899" data-name="Group 8899">
              <path id="Path_30086" data-name="Path 30086" d="M30.74,37.5H17.916A.916.916,0,0,1,17,36.58v-.916A3.664,3.664,0,0,1,20.664,32h7.328a3.664,3.664,0,0,1,3.664,3.664v.916A.916.916,0,0,1,30.74,37.5Z" transform="translate(-17 -32)" fill="#d4d7da"/>
            </g>
          </g>
          <g id="Group_8927" data-name="Group 8927" transform="translate(2.29)">
            <g id="Group_8902" data-name="Group 8902" transform="translate(3.206 9.16)">
              <g id="Group_8901" data-name="Group 8901">
                <path id="Path_30087" data-name="Path 30087" d="M23,30v1.832a1.526,1.526,0,0,0,.037.357V32.2a1.832,1.832,0,0,0,3.591,0v-.009a1.526,1.526,0,0,0,.037-.357V30Z" transform="translate(-23 -30)" fill="#d4d7da"/>
              </g>
            </g>
            <g id="Group_8904" data-name="Group 8904" transform="translate(3.206 9.16)">
              <g id="Group_8903" data-name="Group 8903">
                <path id="Path_30088" data-name="Path 30088" d="M23,30v1.832a1.526,1.526,0,0,0,.037.357V32.2a3.207,3.207,0,0,0,3.591,0v-.009a1.526,1.526,0,0,0,.037-.357V30Z" transform="translate(-23 -30)" fill="#b3b4b6"/>
              </g>
            </g>
            <g id="Group_8906" data-name="Group 8906" transform="translate(1.374 3.664)">
              <g id="Group_8905" data-name="Group 8905">
                <path id="Path_30089" data-name="Path 30089" d="M24.664,31.328a3.664,3.664,0,0,0,3.664-3.664V24H21v3.664A3.664,3.664,0,0,0,24.664,31.328Z" transform="translate(-21 -24)" fill="#d4d7da"/>
              </g>
            </g>
            <g id="Group_8908" data-name="Group 8908" transform="translate(8.702 4.58)">
              <g id="Group_8907" data-name="Group 8907">
                <path id="Path_30090" data-name="Path 30090" d="M29,25v2.748A1.374,1.374,0,0,0,29,25Z" transform="translate(-29 -25)" fill="#d4d7da"/>
              </g>
            </g>
            <g id="Group_8910" data-name="Group 8910" transform="translate(0 4.58)">
              <g id="Group_8909" data-name="Group 8909">
                <path id="Path_30091" data-name="Path 30091" d="M19.5,26.374a1.374,1.374,0,0,0,1.374,1.374V25A1.374,1.374,0,0,0,19.5,26.374Z" transform="translate(-19.5 -25)" fill="#d4d7da"/>
              </g>
            </g>
            <g id="Group_8912" data-name="Group 8912" transform="translate(3.206 7.328)">
              <g id="Group_8911" data-name="Group 8911">
                <path id="Path_30092" data-name="Path 30092" d="M23,28a1.832,1.832,0,0,0,3.664,0Z" transform="translate(-23 -28)" fill="#b3b4b6"/>
              </g>
            </g>
            <g id="Group_8914" data-name="Group 8914" transform="translate(6.412 5.038)">
              <g id="Group_8913" data-name="Group 8913">
                <circle id="Ellipse_3996" data-name="Ellipse 3996" cx="0.458" cy="0.458" r="0.458" fill="#b3b4b6"/>
              </g>
            </g>
            <g id="Group_8916" data-name="Group 8916" transform="translate(2.748 5.038)">
              <g id="Group_8915" data-name="Group 8915">
                <circle id="Ellipse_3997" data-name="Ellipse 3997" cx="0.458" cy="0.458" r="0.458" fill="#b3b4b6"/>
              </g>
            </g>
            <g id="Group_8918" data-name="Group 8918" transform="translate(4.58 5.038)">
              <g id="Group_8917" data-name="Group 8917">
                <path id="Path_30093" data-name="Path 30093" d="M24.958,27.332a.458.458,0,0,0,.458-.458v-.916a.458.458,0,1,0-.916,0v.916A.458.458,0,0,0,24.958,27.332Z" transform="translate(-24.5 -25.5)" fill="#b3b4b6"/>
              </g>
            </g>
            <g id="Group_8920" data-name="Group 8920" transform="translate(7.786 3.664)">
              <g id="Group_8919" data-name="Group 8919">
                <path id="Path_30094" data-name="Path 30094" d="M28.916,27.664V24H28v2.748A.916.916,0,0,0,28.916,27.664Z" transform="translate(-28 -24)" fill="#b3b4b6"/>
              </g>
            </g>
            <g id="Group_8922" data-name="Group 8922" transform="translate(1.374 3.664)">
              <g id="Group_8921" data-name="Group 8921">
                <path id="Path_30095" data-name="Path 30095" d="M21,27.664V24h.916v2.748A.916.916,0,0,1,21,27.664Z" transform="translate(-21 -24)" fill="#b3b4b6"/>
              </g>
            </g>
            <g id="Group_8924" data-name="Group 8924" transform="translate(5.038)">
              <g id="Group_8923" data-name="Group 8923">
                <path id="Path_30096" data-name="Path 30096" d="M26.832,20a1.831,1.831,0,0,1,1.832,1.832v1.832H25V21.832A1.831,1.831,0,0,1,26.832,20Z" transform="translate(-25 -20)" fill="#b3b4b6"/>
              </g>
            </g>
            <g id="Group_8926" data-name="Group 8926" transform="translate(1.374)">
              <g id="Group_8925" data-name="Group 8925">
                <path id="Path_30097" data-name="Path 30097" d="M22.832,20a1.831,1.831,0,0,1,1.832,1.832v1.832H21V21.832A1.831,1.831,0,0,1,22.832,20Z" transform="translate(-21 -20)" fill="#b3b4b6"/>
              </g>
            </g>
          </g>
        </g>
      </g>
      <g id="Group_8931" data-name="Group 8931" transform="translate(24.849 24.849)">
        <g id="Group_8930" data-name="Group 8930" transform="translate(0 0)">
          <circle id="Ellipse_3998" data-name="Ellipse 3998" cx="9" cy="9" r="9" transform="translate(0.151 0.151)" fill="#d4d7da"/>
        </g>
      </g>
      <g id="Group_8933" data-name="Group 8933" transform="translate(28.624 29.539)">
        <g id="Group_8932" data-name="Group 8932">
          <path id="Path_30098" data-name="Path 30098" d="M46.79,51.029l-1.815-1.816-1.815,1.815a2.29,2.29,0,1,1-3.238-3.239l1.815-1.815-1.815-1.815a2.29,2.29,0,1,1,3.238-3.239l1.815,1.815,1.815-1.815a2.29,2.29,0,0,1,3.238,3.239l-1.815,1.816,1.815,1.815a2.29,2.29,0,0,1-3.238,3.239Z" transform="translate(-39.25 -40.248)" fill="#b3b4b6"/>
        </g>
      </g>
      <g id="Group_8935" data-name="Group 8935" transform="translate(28.624 28.623)">
        <g id="Group_8934" data-name="Group 8934">
          <path id="Path_30099" data-name="Path 30099" d="M46.79,50.029l-1.815-1.816-1.815,1.815a2.29,2.29,0,1,1-3.238-3.239l1.815-1.815-1.815-1.815a2.29,2.29,0,1,1,3.238-3.239l1.815,1.815,1.815-1.815a2.29,2.29,0,0,1,3.238,3.239l-1.815,1.816,1.815,1.815a2.29,2.29,0,0,1-3.238,3.239Z" transform="translate(-39.25 -39.248)" fill="#f0f0f0"/>
        </g>
      </g>
      <g id="Group_8937" data-name="Group 8937" transform="translate(29.541 29.541)">
        <g id="Group_8936" data-name="Group 8936">
          <path id="Path_30100" data-name="Path 30100" d="M47,45.059,49.465,42.6a1.374,1.374,0,0,0-1.943-1.943l-2.463,2.463L42.6,40.653A1.374,1.374,0,0,0,40.653,42.6l2.463,2.463-2.463,2.463A1.374,1.374,0,0,0,42.6,49.465L45.059,47l2.463,2.463a1.374,1.374,0,0,0,1.943-1.943Z" transform="translate(-40.251 -40.251)" fill="#b3b4b6"/>
        </g>
      </g>
    </g>
  </g>
</svg>
