<svg xmlns="http://www.w3.org/2000/svg" width="32.834" height="34.777" viewBox="0 0 32.834 34.777">
  <g id="Group_14664" data-name="Group 14664" transform="translate(-15.59 -224.723)">
    <g id="Verification" transform="translate(11.95 223.723)">
      <path id="Path_34418" data-name="Path 34418" d="M5.394,35.911c0-30.445.044-28.269-.085-28.269A1.669,1.669,0,0,0,3.64,9.314V38.268A1.669,1.669,0,0,0,5.309,39.94H25.231A1.672,1.672,0,0,0,26.9,38.353H7.843a2.445,2.445,0,0,1-2.449-2.442Z" transform="translate(0 -4.163)" fill="#b3b4b6"/>
      <path id="Path_34419" data-name="Path 34419" d="M32.935,29.98a1.224,1.224,0,0,1,0-.2L31.74,28.563a7.854,7.854,0,0,1-10.729-2.616H17.348a.37.37,0,0,1,0-.74h3.263a7.348,7.348,0,0,1-.625-1.928H17.359a.37.37,0,0,1,0-.74h2.534a7.832,7.832,0,0,1,.055-1.931h-2.59a.37.37,0,1,1,0-.74H20.1a7.629,7.629,0,0,1,.777-1.928H17.359a.37.37,0,1,1,0-.74h3.992a8.014,8.014,0,0,1,2.016-1.928H17.359a.37.37,0,0,1,0-.74h7.429a7.843,7.843,0,0,1,8.85,2.142V7.715H26.926V1H12.1a1.706,1.706,0,0,0-1.7,1.7V31.748a1.706,1.706,0,0,0,1.7,1.7H31.936a1.7,1.7,0,0,0,1.7-1.7v-.485a1.684,1.684,0,0,1-.7-1.284ZM17.359,11.851h12a.37.37,0,1,1,0,.74h-12a.37.37,0,1,1,0-.74ZM15.8,28.648a.492.492,0,0,1-.492.5H14.026a.5.5,0,0,1-.5-.5v-.8a.5.5,0,0,1,.5-.5h1.3a.492.492,0,0,1,.477.5Zm0-5.339a.492.492,0,0,1-.492.5H14.026a.5.5,0,0,1-.5-.5v-.8a.5.5,0,0,1,.5-.5h1.3a.492.492,0,0,1,.477.5Zm0-5.339a.492.492,0,0,1-.492.5H14.026a.5.5,0,0,1-.5-.5v-.8a.5.5,0,0,1,.5-.5h1.3a.492.492,0,0,1,.477.5Zm0-5.339a.492.492,0,0,1-.492.5H14.026a.5.5,0,0,1-.5-.5v-.8a.5.5,0,0,1,.5-.5h1.3a.492.492,0,0,1,.477.5Zm5.883,15.986H17.359a.37.37,0,0,1,0-.74h4.325a.37.37,0,0,1,0,.74Z" transform="translate(-4.259)" fill="#d4d7da"/>
      <path id="Path_34420" data-name="Path 34420" d="M62.546,6.738c-5.357-5.361-5.083-5.15-5.476-5.328V7.233h5.82A1.683,1.683,0,0,0,62.546,6.738Z" transform="translate(-33.663 -0.258)" fill="#d4d7da"/>
      <path id="Path_34421" data-name="Path 34421" d="M75.959,73.595a.651.651,0,0,0-.921,0L73.5,75.138a.644.644,0,0,0,0,.918l.555.559,2.468-2.464Z" transform="translate(-43.895 -45.617)" fill="#b3b4b6"/>
      <path id="Path_34422" data-name="Path 34422" d="M0,0H3.481V1.08H0Z" transform="translate(30.707 31.518) rotate(-44.96)" fill="#b3b4b6"/>
      <path id="Path_34423" data-name="Path 34423" d="M0,0H3.485V1.08H0Z" transform="translate(31.964 32.803) rotate(-45)" fill="#b3b4b6"/>
      <path id="Path_34424" data-name="Path 34424" d="M86.715,84.345l-.559-.555L83.7,86.254l.555.573a.651.651,0,0,0,.921,0l1.539-1.543a.655.655,0,0,0,0-.94Z" transform="translate(-50.44 -52.16)" fill="#b3b4b6"/>
      <path id="Path_34425" data-name="Path 34425" d="M50.09,40.134a7.114,7.114,0,1,0-.9,10.818L50.634,52.4c.022-.03,1.62-1.635,1.665-1.661l-1.447-1.447A7.111,7.111,0,0,0,50.09,40.134Zm-1.177,8.879a5.441,5.441,0,1,1,1.6-3.85,5.446,5.446,0,0,1-1.6,3.85Z" transform="translate(-21.61 -23.34)" fill="#d4d7da"/>
      <path id="Path_34426" data-name="Path 34426" d="M45.856,45.944a4.7,4.7,0,1,0,3.33-1.384A4.706,4.706,0,0,0,45.856,45.944ZM51.528,48.1l-2.682,2.845a.37.37,0,0,1-.555,0l-1.2-1.413a.371.371,0,0,1,.562-.485l.932,1.08,2.4-2.549a.376.376,0,0,1,.54.522Z" transform="translate(-25.73 -27.444)" fill="#b3b4b6"/>
    </g>
  </g>
</svg>
